ISO-10303-21;
HEADER;
FILE_DESCRIPTION(('KiCad electronic assembly'),'2;1');
FILE_NAME('top_panel.step','2026-05-14T19:13:51',('Pcbnew'),('Kicad'),
  'Open CASCADE STEP processor 7.9','KiCad to STEP converter','Unknown'
  );
FILE_SCHEMA(('AUTOMOTIVE_DESIGN { 1 0 10303 214 1 1 1 1 }'));
ENDSEC;
DATA;
#1 = APPLICATION_PROTOCOL_DEFINITION('international standard',
  'automotive_design',2000,#2);
#2 = APPLICATION_CONTEXT(
  'core data for automotive mechanical design processes');
#3 = SHAPE_DEFINITION_REPRESENTATION(#4,#10);
#4 = PRODUCT_DEFINITION_SHAPE('','',#5);
#5 = PRODUCT_DEFINITION('design','',#6,#9);
#6 = PRODUCT_DEFINITION_FORMATION('','',#7);
#7 = PRODUCT('top_panel 1','top_panel 1','',(#8));
#8 = PRODUCT_CONTEXT('',#2,'mechanical');
#9 = PRODUCT_DEFINITION_CONTEXT('part definition',#2,'design');
#10 = SHAPE_REPRESENTATION('',(#11,#15),#19);
#11 = AXIS2_PLACEMENT_3D('',#12,#13,#14);
#12 = CARTESIAN_POINT('',(0.,0.,0.));
#13 = DIRECTION('',(0.,0.,1.));
#14 = DIRECTION('',(1.,0.,-0.));
#15 = AXIS2_PLACEMENT_3D('',#16,#17,#18);
#16 = CARTESIAN_POINT('',(0.,0.,0.));
#17 = DIRECTION('',(0.,0.,1.));
#18 = DIRECTION('',(1.,0.,-0.));
#19 = ( GEOMETRIC_REPRESENTATION_CONTEXT(3) 
GLOBAL_UNCERTAINTY_ASSIGNED_CONTEXT((#23)) GLOBAL_UNIT_ASSIGNED_CONTEXT(
(#20,#21,#22)) REPRESENTATION_CONTEXT('Context #1',
  '3D Context with UNIT and UNCERTAINTY') );
#20 = ( LENGTH_UNIT() NAMED_UNIT(*) SI_UNIT(.MILLI.,.METRE.) );
#21 = ( NAMED_UNIT(*) PLANE_ANGLE_UNIT() SI_UNIT($,.RADIAN.) );
#22 = ( NAMED_UNIT(*) SI_UNIT($,.STERADIAN.) SOLID_ANGLE_UNIT() );
#23 = UNCERTAINTY_MEASURE_WITH_UNIT(LENGTH_MEASURE(1.E-07),#20,
  'distance_accuracy_value','confusion accuracy');
#24 = PRODUCT_RELATED_PRODUCT_CATEGORY('part',$,(#7));
#25 = SHAPE_DEFINITION_REPRESENTATION(#26,#32);
#26 = PRODUCT_DEFINITION_SHAPE('','',#27);
#27 = PRODUCT_DEFINITION('design','',#28,#31);
#28 = PRODUCT_DEFINITION_FORMATION('','',#29);
#29 = PRODUCT('+z_blank_face_PCB','+z_blank_face_PCB','',(#30));
#30 = PRODUCT_CONTEXT('',#2,'mechanical');
#31 = PRODUCT_DEFINITION_CONTEXT('part definition',#2,'design');
#32 = ADVANCED_BREP_SHAPE_REPRESENTATION('',(#11,#33),#1028);
#33 = MANIFOLD_SOLID_BREP('',#34);
#34 = CLOSED_SHELL('',(#35,#77,#108,#139,#382,#625,#642,#659,#676,#693,
    #705,#722,#739,#756,#773,#795,#812,#829,#846,#863,#880,#897,#909,
    #926,#943,#960,#977,#994,#1011));
#35 = ADVANCED_FACE('',(#36),#72,.T.);
#36 = FACE_BOUND('',#37,.T.);
#37 = EDGE_LOOP('',(#38,#48,#57,#65));
#38 = ORIENTED_EDGE('',*,*,#39,.T.);
#39 = EDGE_CURVE('',#40,#42,#44,.T.);
#40 = VERTEX_POINT('',#41);
#41 = CARTESIAN_POINT('',(185.64,-32.86,0.));
#42 = VERTEX_POINT('',#43);
#43 = CARTESIAN_POINT('',(185.64,-32.86,1.51));
#44 = LINE('',#45,#46);
#45 = CARTESIAN_POINT('',(185.64,-32.86,0.));
#46 = VECTOR('',#47,1.);
#47 = DIRECTION('',(0.,0.,1.));
#48 = ORIENTED_EDGE('',*,*,#49,.T.);
#49 = EDGE_CURVE('',#42,#50,#52,.T.);
#50 = VERTEX_POINT('',#51);
#51 = CARTESIAN_POINT('',(189.64,-36.86,1.51));
#52 = CIRCLE('',#53,4.00000042591);
#53 = AXIS2_PLACEMENT_3D('',#54,#55,#56);
#54 = CARTESIAN_POINT('',(185.63999957409,-36.86000042591,1.51));
#55 = DIRECTION('',(0.,0.,-1.));
#56 = DIRECTION('',(1.064775318894E-07,1.,0.));
#57 = ORIENTED_EDGE('',*,*,#58,.F.);
#58 = EDGE_CURVE('',#59,#50,#61,.T.);
#59 = VERTEX_POINT('',#60);
#60 = CARTESIAN_POINT('',(189.64,-36.86,0.));
#61 = LINE('',#62,#63);
#62 = CARTESIAN_POINT('',(189.64,-36.86,0.));
#63 = VECTOR('',#64,1.);
#64 = DIRECTION('',(0.,0.,1.));
#65 = ORIENTED_EDGE('',*,*,#66,.F.);
#66 = EDGE_CURVE('',#40,#59,#67,.T.);
#67 = CIRCLE('',#68,4.00000042591);
#68 = AXIS2_PLACEMENT_3D('',#69,#70,#71);
#69 = CARTESIAN_POINT('',(185.63999957409,-36.86000042591,0.));
#70 = DIRECTION('',(0.,0.,-1.));
#71 = DIRECTION('',(1.064775318894E-07,1.,0.));
#72 = CYLINDRICAL_SURFACE('',#73,4.00000042591);
#73 = AXIS2_PLACEMENT_3D('',#74,#75,#76);
#74 = CARTESIAN_POINT('',(185.63999957409,-36.86000042591,0.));
#75 = DIRECTION('',(0.,0.,-1.));
#76 = DIRECTION('',(1.064775318894E-07,1.,0.));
#77 = ADVANCED_FACE('',(#78),#103,.T.);
#78 = FACE_BOUND('',#79,.T.);
#79 = EDGE_LOOP('',(#80,#90,#96,#97));
#80 = ORIENTED_EDGE('',*,*,#81,.T.);
#81 = EDGE_CURVE('',#82,#84,#86,.T.);
#82 = VERTEX_POINT('',#83);
#83 = CARTESIAN_POINT('',(108.64,-32.86,0.));
#84 = VERTEX_POINT('',#85);
#85 = CARTESIAN_POINT('',(108.64,-32.86,1.51));
#86 = LINE('',#87,#88);
#87 = CARTESIAN_POINT('',(108.64,-32.86,0.));
#88 = VECTOR('',#89,1.);
#89 = DIRECTION('',(0.,0.,1.));
#90 = ORIENTED_EDGE('',*,*,#91,.T.);
#91 = EDGE_CURVE('',#84,#42,#92,.T.);
#92 = LINE('',#93,#94);
#93 = CARTESIAN_POINT('',(108.64,-32.86,1.51));
#94 = VECTOR('',#95,1.);
#95 = DIRECTION('',(1.,0.,0.));
#96 = ORIENTED_EDGE('',*,*,#39,.F.);
#97 = ORIENTED_EDGE('',*,*,#98,.F.);
#98 = EDGE_CURVE('',#82,#40,#99,.T.);
#99 = LINE('',#100,#101);
#100 = CARTESIAN_POINT('',(108.64,-32.86,0.));
#101 = VECTOR('',#102,1.);
#102 = DIRECTION('',(1.,0.,0.));
#103 = PLANE('',#104);
#104 = AXIS2_PLACEMENT_3D('',#105,#106,#107);
#105 = CARTESIAN_POINT('',(108.64,-32.86,0.));
#106 = DIRECTION('',(0.,1.,0.));
#107 = DIRECTION('',(1.,0.,0.));
#108 = ADVANCED_FACE('',(#109),#134,.T.);
#109 = FACE_BOUND('',#110,.T.);
#110 = EDGE_LOOP('',(#111,#112,#120,#128));
#111 = ORIENTED_EDGE('',*,*,#58,.T.);
#112 = ORIENTED_EDGE('',*,*,#113,.T.);
#113 = EDGE_CURVE('',#50,#114,#116,.T.);
#114 = VERTEX_POINT('',#115);
#115 = CARTESIAN_POINT('',(189.64,-113.86,1.51));
#116 = LINE('',#117,#118);
#117 = CARTESIAN_POINT('',(189.64,-36.86,1.51));
#118 = VECTOR('',#119,1.);
#119 = DIRECTION('',(0.,-1.,0.));
#120 = ORIENTED_EDGE('',*,*,#121,.F.);
#121 = EDGE_CURVE('',#122,#114,#124,.T.);
#122 = VERTEX_POINT('',#123);
#123 = CARTESIAN_POINT('',(189.64,-113.86,0.));
#124 = LINE('',#125,#126);
#125 = CARTESIAN_POINT('',(189.64,-113.86,0.));
#126 = VECTOR('',#127,1.);
#127 = DIRECTION('',(0.,0.,1.));
#128 = ORIENTED_EDGE('',*,*,#129,.F.);
#129 = EDGE_CURVE('',#59,#122,#130,.T.);
#130 = LINE('',#131,#132);
#131 = CARTESIAN_POINT('',(189.64,-36.86,0.));
#132 = VECTOR('',#133,1.);
#133 = DIRECTION('',(0.,-1.,0.));
#134 = PLANE('',#135);
#135 = AXIS2_PLACEMENT_3D('',#136,#137,#138);
#136 = CARTESIAN_POINT('',(189.64,-36.86,0.));
#137 = DIRECTION('',(1.,0.,-0.));
#138 = DIRECTION('',(0.,-1.,0.));
#139 = ADVANCED_FACE('',(#140,#186,#197,#208,#219,#230,#300,#311,#322,
    #333,#344,#355,#366),#377,.F.);
#140 = FACE_BOUND('',#141,.F.);
#141 = EDGE_LOOP('',(#142,#143,#144,#153,#161,#170,#178,#185));
#142 = ORIENTED_EDGE('',*,*,#66,.F.);
#143 = ORIENTED_EDGE('',*,*,#98,.F.);
#144 = ORIENTED_EDGE('',*,*,#145,.F.);
#145 = EDGE_CURVE('',#146,#82,#148,.T.);
#146 = VERTEX_POINT('',#147);
#147 = CARTESIAN_POINT('',(104.64,-36.86,0.));
#148 = CIRCLE('',#149,4.00000042591);
#149 = AXIS2_PLACEMENT_3D('',#150,#151,#152);
#150 = CARTESIAN_POINT('',(108.64000042591,-36.86000042591,0.));
#151 = DIRECTION('',(0.,0.,-1.));
#152 = DIRECTION('',(-1.,1.064775336658E-07,0.));
#153 = ORIENTED_EDGE('',*,*,#154,.F.);
#154 = EDGE_CURVE('',#155,#146,#157,.T.);
#155 = VERTEX_POINT('',#156);
#156 = CARTESIAN_POINT('',(104.64,-113.86,0.));
#157 = LINE('',#158,#159);
#158 = CARTESIAN_POINT('',(104.64,-113.86,0.));
#159 = VECTOR('',#160,1.);
#160 = DIRECTION('',(0.,1.,0.));
#161 = ORIENTED_EDGE('',*,*,#162,.F.);
#162 = EDGE_CURVE('',#163,#155,#165,.T.);
#163 = VERTEX_POINT('',#164);
#164 = CARTESIAN_POINT('',(108.64,-117.86,0.));
#165 = CIRCLE('',#166,4.00000042591);
#166 = AXIS2_PLACEMENT_3D('',#167,#168,#169);
#167 = CARTESIAN_POINT('',(108.64000042591,-113.859999574,0.));
#168 = DIRECTION('',(0.,0.,-1.));
#169 = DIRECTION('',(-1.064775318894E-07,-1.,-0.));
#170 = ORIENTED_EDGE('',*,*,#171,.F.);
#171 = EDGE_CURVE('',#172,#163,#174,.T.);
#172 = VERTEX_POINT('',#173);
#173 = CARTESIAN_POINT('',(185.64,-117.86,0.));
#174 = LINE('',#175,#176);
#175 = CARTESIAN_POINT('',(185.64,-117.86,0.));
#176 = VECTOR('',#177,1.);
#177 = DIRECTION('',(-1.,0.,0.));
#178 = ORIENTED_EDGE('',*,*,#179,.F.);
#179 = EDGE_CURVE('',#122,#172,#180,.T.);
#180 = CIRCLE('',#181,4.00000042591);
#181 = AXIS2_PLACEMENT_3D('',#182,#183,#184);
#182 = CARTESIAN_POINT('',(185.63999957409,-113.859999574,0.));
#183 = DIRECTION('',(0.,0.,-1.));
#184 = DIRECTION('',(1.,-1.064775318894E-07,0.));
#185 = ORIENTED_EDGE('',*,*,#129,.F.);
#186 = FACE_BOUND('',#187,.F.);
#187 = EDGE_LOOP('',(#188));
#188 = ORIENTED_EDGE('',*,*,#189,.T.);
#189 = EDGE_CURVE('',#190,#190,#192,.T.);
#190 = VERTEX_POINT('',#191);
#191 = CARTESIAN_POINT('',(149.94,-104.35,0.));
#192 = CIRCLE('',#193,1.35);
#193 = AXIS2_PLACEMENT_3D('',#194,#195,#196);
#194 = CARTESIAN_POINT('',(149.94,-103.,0.));
#195 = DIRECTION('',(-0.,0.,-1.));
#196 = DIRECTION('',(-0.,-1.,0.));
#197 = FACE_BOUND('',#198,.F.);
#198 = EDGE_LOOP('',(#199));
#199 = ORIENTED_EDGE('',*,*,#200,.T.);
#200 = EDGE_CURVE('',#201,#201,#203,.T.);
#201 = VERTEX_POINT('',#202);
#202 = CARTESIAN_POINT('',(161.82,-100.56,0.));
#203 = CIRCLE('',#204,1.35);
#204 = AXIS2_PLACEMENT_3D('',#205,#206,#207);
#205 = CARTESIAN_POINT('',(161.82,-99.21,0.));
#206 = DIRECTION('',(-0.,0.,-1.));
#207 = DIRECTION('',(-0.,-1.,0.));
#208 = FACE_BOUND('',#209,.F.);
#209 = EDGE_LOOP('',(#210));
#210 = ORIENTED_EDGE('',*,*,#211,.T.);
#211 = EDGE_CURVE('',#212,#212,#214,.T.);
#212 = VERTEX_POINT('',#213);
#213 = CARTESIAN_POINT('',(171.73,-113.86,0.));
#214 = CIRCLE('',#215,1.35);
#215 = AXIS2_PLACEMENT_3D('',#216,#217,#218);
#216 = CARTESIAN_POINT('',(171.73,-112.51,0.));
#217 = DIRECTION('',(-0.,0.,-1.));
#218 = DIRECTION('',(-2.10531180966E-14,-1.,0.));
#219 = FACE_BOUND('',#220,.F.);
#220 = EDGE_LOOP('',(#221));
#221 = ORIENTED_EDGE('',*,*,#222,.T.);
#222 = EDGE_CURVE('',#223,#223,#225,.T.);
#223 = VERTEX_POINT('',#224);
#224 = CARTESIAN_POINT('',(184.31,-101.3,0.));
#225 = CIRCLE('',#226,1.35);
#226 = AXIS2_PLACEMENT_3D('',#227,#228,#229);
#227 = CARTESIAN_POINT('',(184.31,-99.95,0.));
#228 = DIRECTION('',(-0.,0.,-1.));
#229 = DIRECTION('',(-0.,-1.,0.));
#230 = FACE_BOUND('',#231,.F.);
#231 = EDGE_LOOP('',(#232,#243,#251,#260,#268,#277,#285,#294));
#232 = ORIENTED_EDGE('',*,*,#233,.F.);
#233 = EDGE_CURVE('',#234,#236,#238,.T.);
#234 = VERTEX_POINT('',#235);
#235 = CARTESIAN_POINT('',(161.45417,-79.77937,0.));
#236 = VERTEX_POINT('',#237);
#237 = CARTESIAN_POINT('',(160.039957,-79.77937,0.));
#238 = CIRCLE('',#239,0.999999849418);
#239 = AXIS2_PLACEMENT_3D('',#240,#241,#242);
#240 = CARTESIAN_POINT('',(160.7470635,-80.48647684941,0.));
#241 = DIRECTION('',(0.,0.,1.));
#242 = DIRECTION('',(0.707106606478,0.707106955895,-0.));
#243 = ORIENTED_EDGE('',*,*,#244,.F.);
#244 = EDGE_CURVE('',#245,#234,#247,.T.);
#245 = VERTEX_POINT('',#246);
#246 = CARTESIAN_POINT('',(167.111024,-85.436225,0.));
#247 = LINE('',#248,#249);
#248 = CARTESIAN_POINT('',(167.111024,-85.436225,0.));
#249 = VECTOR('',#250,1.);
#250 = DIRECTION('',(-0.707106718687,0.707106843687,0.));
#251 = ORIENTED_EDGE('',*,*,#252,.F.);
#252 = EDGE_CURVE('',#253,#245,#255,.T.);
#253 = VERTEX_POINT('',#254);
#254 = CARTESIAN_POINT('',(167.111024,-86.850438,0.));
#255 = CIRCLE('',#256,1.000065040384);
#256 = AXIS2_PLACEMENT_3D('',#257,#258,#259);
#257 = CARTESIAN_POINT('',(166.40382495966,-86.1433315,0.));
#258 = DIRECTION('',(0.,-0.,1.));
#259 = DIRECTION('',(0.707153046833,-0.707060512512,-0.));
#260 = ORIENTED_EDGE('',*,*,#261,.F.);
#261 = EDGE_CURVE('',#262,#253,#264,.T.);
#262 = VERTEX_POINT('',#263);
#263 = CARTESIAN_POINT('',(158.625741,-95.335719,0.));
#264 = LINE('',#265,#266);
#265 = CARTESIAN_POINT('',(158.625741,-95.335719,0.));
#266 = VECTOR('',#267,1.);
#267 = DIRECTION('',(0.70710686452,0.707106697853,0.));
#268 = ORIENTED_EDGE('',*,*,#269,.F.);
#269 = EDGE_CURVE('',#270,#262,#272,.T.);
#270 = VERTEX_POINT('',#271);
#271 = CARTESIAN_POINT('',(157.211528,-95.335719,0.));
#272 = CIRCLE('',#273,0.999999849418);
#273 = AXIS2_PLACEMENT_3D('',#274,#275,#276);
#274 = CARTESIAN_POINT('',(157.9186345,-94.62861215058,0.));
#275 = DIRECTION('',(0.,0.,1.));
#276 = DIRECTION('',(-0.707106606478,-0.707106955895,0.));
#277 = ORIENTED_EDGE('',*,*,#278,.F.);
#278 = EDGE_CURVE('',#279,#270,#281,.T.);
#279 = VERTEX_POINT('',#280);
#280 = CARTESIAN_POINT('',(151.554674,-89.678864,0.));
#281 = LINE('',#282,#283);
#282 = CARTESIAN_POINT('',(151.554674,-89.678864,0.));
#283 = VECTOR('',#284,1.);
#284 = DIRECTION('',(0.707106718687,-0.707106843687,0.));
#285 = ORIENTED_EDGE('',*,*,#286,.F.);
#286 = EDGE_CURVE('',#287,#279,#289,.T.);
#287 = VERTEX_POINT('',#288);
#288 = CARTESIAN_POINT('',(151.554674,-88.26465,0.));
#289 = CIRCLE('',#290,1.000005885004);
#290 = AXIS2_PLACEMENT_3D('',#291,#292,#293);
#291 = CARTESIAN_POINT('',(152.261788885,-88.971757,0.));
#292 = DIRECTION('',(0.,0.,1.));
#293 = DIRECTION('',(-0.707110723654,0.707102838697,0.));
#294 = ORIENTED_EDGE('',*,*,#295,.F.);
#295 = EDGE_CURVE('',#236,#287,#296,.T.);
#296 = LINE('',#297,#298);
#297 = CARTESIAN_POINT('',(160.039957,-79.77937,0.));
#298 = VECTOR('',#299,1.);
#299 = DIRECTION('',(-0.707106906187,-0.707106656187,0.));
#300 = FACE_BOUND('',#301,.F.);
#301 = EDGE_LOOP('',(#302));
#302 = ORIENTED_EDGE('',*,*,#303,.T.);
#303 = EDGE_CURVE('',#304,#304,#306,.T.);
#304 = VERTEX_POINT('',#305);
#305 = CARTESIAN_POINT('',(170.99,-91.38,0.));
#306 = CIRCLE('',#307,1.35);
#307 = AXIS2_PLACEMENT_3D('',#308,#309,#310);
#308 = CARTESIAN_POINT('',(170.99,-90.03,0.));
#309 = DIRECTION('',(-0.,0.,-1.));
#310 = DIRECTION('',(-0.,-1.,0.));
#311 = FACE_BOUND('',#312,.F.);
#312 = EDGE_LOOP('',(#313));
#313 = ORIENTED_EDGE('',*,*,#314,.T.);
#314 = EDGE_CURVE('',#315,#315,#317,.T.);
#315 = VERTEX_POINT('',#316);
#316 = CARTESIAN_POINT('',(174.78,-79.52,0.));
#317 = CIRCLE('',#318,1.35);
#318 = AXIS2_PLACEMENT_3D('',#319,#320,#321);
#319 = CARTESIAN_POINT('',(174.78,-78.17,0.));
#320 = DIRECTION('',(-0.,0.,-1.));
#321 = DIRECTION('',(-0.,-1.,0.));
#322 = FACE_BOUND('',#323,.F.);
#323 = EDGE_LOOP('',(#324));
#324 = ORIENTED_EDGE('',*,*,#325,.T.);
#325 = EDGE_CURVE('',#326,#326,#328,.T.);
#326 = VERTEX_POINT('',#327);
#327 = CARTESIAN_POINT('',(119.46,-73.9,0.));
#328 = CIRCLE('',#329,1.35);
#329 = AXIS2_PLACEMENT_3D('',#330,#331,#332);
#330 = CARTESIAN_POINT('',(119.46,-72.55,0.));
#331 = DIRECTION('',(-0.,0.,-1.));
#332 = DIRECTION('',(-1.05265590483E-14,-1.,0.));
#333 = FACE_BOUND('',#334,.F.);
#334 = EDGE_LOOP('',(#335));
#335 = ORIENTED_EDGE('',*,*,#336,.T.);
#336 = EDGE_CURVE('',#337,#337,#339,.T.);
#337 = VERTEX_POINT('',#338);
#338 = CARTESIAN_POINT('',(131.18,-60.77,0.));
#339 = CIRCLE('',#340,1.35);
#340 = AXIS2_PLACEMENT_3D('',#341,#342,#343);
#341 = CARTESIAN_POINT('',(131.18,-59.42,0.));
#342 = DIRECTION('',(-0.,0.,-1.));
#343 = DIRECTION('',(-0.,-1.,0.));
#344 = FACE_BOUND('',#345,.F.);
#345 = EDGE_LOOP('',(#346));
#346 = ORIENTED_EDGE('',*,*,#347,.T.);
#347 = EDGE_CURVE('',#348,#348,#350,.T.);
#348 = VERTEX_POINT('',#349);
#349 = CARTESIAN_POINT('',(109.97,-52.13,0.));
#350 = CIRCLE('',#351,1.35);
#351 = AXIS2_PLACEMENT_3D('',#352,#353,#354);
#352 = CARTESIAN_POINT('',(109.97,-50.78,0.));
#353 = DIRECTION('',(-0.,0.,-1.));
#354 = DIRECTION('',(-0.,-1.,0.));
#355 = FACE_BOUND('',#356,.F.);
#356 = EDGE_LOOP('',(#357));
#357 = ORIENTED_EDGE('',*,*,#358,.T.);
#358 = EDGE_CURVE('',#359,#359,#361,.T.);
#359 = VERTEX_POINT('',#360);
#360 = CARTESIAN_POINT('',(122.56,-39.53,0.));
#361 = CIRCLE('',#362,1.35);
#362 = AXIS2_PLACEMENT_3D('',#363,#364,#365);
#363 = CARTESIAN_POINT('',(122.56,-38.18,0.));
#364 = DIRECTION('',(-0.,0.,-1.));
#365 = DIRECTION('',(-0.,-1.,0.));
#366 = FACE_BOUND('',#367,.F.);
#367 = EDGE_LOOP('',(#368));
#368 = ORIENTED_EDGE('',*,*,#369,.T.);
#369 = EDGE_CURVE('',#370,#370,#372,.T.);
#370 = VERTEX_POINT('',#371);
#371 = CARTESIAN_POINT('',(144.32,-49.06,0.));
#372 = CIRCLE('',#373,1.35);
#373 = AXIS2_PLACEMENT_3D('',#374,#375,#376);
#374 = CARTESIAN_POINT('',(144.32,-47.71,0.));
#375 = DIRECTION('',(-0.,0.,-1.));
#376 = DIRECTION('',(-0.,-1.,0.));
#377 = PLANE('',#378);
#378 = AXIS2_PLACEMENT_3D('',#379,#380,#381);
#379 = CARTESIAN_POINT('',(0.,0.,0.));
#380 = DIRECTION('',(0.,0.,1.));
#381 = DIRECTION('',(1.,0.,-0.));
#382 = ADVANCED_FACE('',(#383,#429,#440,#451,#462,#473,#543,#554,#565,
    #576,#587,#598,#609),#620,.T.);
#383 = FACE_BOUND('',#384,.T.);
#384 = EDGE_LOOP('',(#385,#386,#387,#396,#404,#413,#421,#428));
#385 = ORIENTED_EDGE('',*,*,#49,.F.);
#386 = ORIENTED_EDGE('',*,*,#91,.F.);
#387 = ORIENTED_EDGE('',*,*,#388,.F.);
#388 = EDGE_CURVE('',#389,#84,#391,.T.);
#389 = VERTEX_POINT('',#390);
#390 = CARTESIAN_POINT('',(104.64,-36.86,1.51));
#391 = CIRCLE('',#392,4.00000042591);
#392 = AXIS2_PLACEMENT_3D('',#393,#394,#395);
#393 = CARTESIAN_POINT('',(108.64000042591,-36.86000042591,1.51));
#394 = DIRECTION('',(0.,0.,-1.));
#395 = DIRECTION('',(-1.,1.064775336658E-07,0.));
#396 = ORIENTED_EDGE('',*,*,#397,.F.);
#397 = EDGE_CURVE('',#398,#389,#400,.T.);
#398 = VERTEX_POINT('',#399);
#399 = CARTESIAN_POINT('',(104.64,-113.86,1.51));
#400 = LINE('',#401,#402);
#401 = CARTESIAN_POINT('',(104.64,-113.86,1.51));
#402 = VECTOR('',#403,1.);
#403 = DIRECTION('',(0.,1.,0.));
#404 = ORIENTED_EDGE('',*,*,#405,.F.);
#405 = EDGE_CURVE('',#406,#398,#408,.T.);
#406 = VERTEX_POINT('',#407);
#407 = CARTESIAN_POINT('',(108.64,-117.86,1.51));
#408 = CIRCLE('',#409,4.00000042591);
#409 = AXIS2_PLACEMENT_3D('',#410,#411,#412);
#410 = CARTESIAN_POINT('',(108.64000042591,-113.859999574,1.51));
#411 = DIRECTION('',(0.,0.,-1.));
#412 = DIRECTION('',(-1.064775318894E-07,-1.,-0.));
#413 = ORIENTED_EDGE('',*,*,#414,.F.);
#414 = EDGE_CURVE('',#415,#406,#417,.T.);
#415 = VERTEX_POINT('',#416);
#416 = CARTESIAN_POINT('',(185.64,-117.86,1.51));
#417 = LINE('',#418,#419);
#418 = CARTESIAN_POINT('',(185.64,-117.86,1.51));
#419 = VECTOR('',#420,1.);
#420 = DIRECTION('',(-1.,0.,0.));
#421 = ORIENTED_EDGE('',*,*,#422,.F.);
#422 = EDGE_CURVE('',#114,#415,#423,.T.);
#423 = CIRCLE('',#424,4.00000042591);
#424 = AXIS2_PLACEMENT_3D('',#425,#426,#427);
#425 = CARTESIAN_POINT('',(185.63999957409,-113.859999574,1.51));
#426 = DIRECTION('',(0.,0.,-1.));
#427 = DIRECTION('',(1.,-1.064775318894E-07,0.));
#428 = ORIENTED_EDGE('',*,*,#113,.F.);
#429 = FACE_BOUND('',#430,.T.);
#430 = EDGE_LOOP('',(#431));
#431 = ORIENTED_EDGE('',*,*,#432,.T.);
#432 = EDGE_CURVE('',#433,#433,#435,.T.);
#433 = VERTEX_POINT('',#434);
#434 = CARTESIAN_POINT('',(149.94,-104.35,1.51));
#435 = CIRCLE('',#436,1.35);
#436 = AXIS2_PLACEMENT_3D('',#437,#438,#439);
#437 = CARTESIAN_POINT('',(149.94,-103.,1.51));
#438 = DIRECTION('',(-0.,0.,-1.));
#439 = DIRECTION('',(-0.,-1.,0.));
#440 = FACE_BOUND('',#441,.T.);
#441 = EDGE_LOOP('',(#442));
#442 = ORIENTED_EDGE('',*,*,#443,.T.);
#443 = EDGE_CURVE('',#444,#444,#446,.T.);
#444 = VERTEX_POINT('',#445);
#445 = CARTESIAN_POINT('',(161.82,-100.56,1.51));
#446 = CIRCLE('',#447,1.35);
#447 = AXIS2_PLACEMENT_3D('',#448,#449,#450);
#448 = CARTESIAN_POINT('',(161.82,-99.21,1.51));
#449 = DIRECTION('',(-0.,0.,-1.));
#450 = DIRECTION('',(-0.,-1.,0.));
#451 = FACE_BOUND('',#452,.T.);
#452 = EDGE_LOOP('',(#453));
#453 = ORIENTED_EDGE('',*,*,#454,.T.);
#454 = EDGE_CURVE('',#455,#455,#457,.T.);
#455 = VERTEX_POINT('',#456);
#456 = CARTESIAN_POINT('',(171.73,-113.86,1.51));
#457 = CIRCLE('',#458,1.35);
#458 = AXIS2_PLACEMENT_3D('',#459,#460,#461);
#459 = CARTESIAN_POINT('',(171.73,-112.51,1.51));
#460 = DIRECTION('',(-0.,0.,-1.));
#461 = DIRECTION('',(-2.10531180966E-14,-1.,0.));
#462 = FACE_BOUND('',#463,.T.);
#463 = EDGE_LOOP('',(#464));
#464 = ORIENTED_EDGE('',*,*,#465,.T.);
#465 = EDGE_CURVE('',#466,#466,#468,.T.);
#466 = VERTEX_POINT('',#467);
#467 = CARTESIAN_POINT('',(184.31,-101.3,1.51));
#468 = CIRCLE('',#469,1.35);
#469 = AXIS2_PLACEMENT_3D('',#470,#471,#472);
#470 = CARTESIAN_POINT('',(184.31,-99.95,1.51));
#471 = DIRECTION('',(-0.,0.,-1.));
#472 = DIRECTION('',(-0.,-1.,0.));
#473 = FACE_BOUND('',#474,.T.);
#474 = EDGE_LOOP('',(#475,#486,#494,#503,#511,#520,#528,#537));
#475 = ORIENTED_EDGE('',*,*,#476,.F.);
#476 = EDGE_CURVE('',#477,#479,#481,.T.);
#477 = VERTEX_POINT('',#478);
#478 = CARTESIAN_POINT('',(161.45417,-79.77937,1.51));
#479 = VERTEX_POINT('',#480);
#480 = CARTESIAN_POINT('',(160.039957,-79.77937,1.51));
#481 = CIRCLE('',#482,0.999999849418);
#482 = AXIS2_PLACEMENT_3D('',#483,#484,#485);
#483 = CARTESIAN_POINT('',(160.7470635,-80.48647684941,1.51));
#484 = DIRECTION('',(0.,0.,1.));
#485 = DIRECTION('',(0.707106606478,0.707106955895,-0.));
#486 = ORIENTED_EDGE('',*,*,#487,.F.);
#487 = EDGE_CURVE('',#488,#477,#490,.T.);
#488 = VERTEX_POINT('',#489);
#489 = CARTESIAN_POINT('',(167.111024,-85.436225,1.51));
#490 = LINE('',#491,#492);
#491 = CARTESIAN_POINT('',(167.111024,-85.436225,1.51));
#492 = VECTOR('',#493,1.);
#493 = DIRECTION('',(-0.707106718687,0.707106843687,0.));
#494 = ORIENTED_EDGE('',*,*,#495,.F.);
#495 = EDGE_CURVE('',#496,#488,#498,.T.);
#496 = VERTEX_POINT('',#497);
#497 = CARTESIAN_POINT('',(167.111024,-86.850438,1.51));
#498 = CIRCLE('',#499,1.000065040384);
#499 = AXIS2_PLACEMENT_3D('',#500,#501,#502);
#500 = CARTESIAN_POINT('',(166.40382495966,-86.1433315,1.51));
#501 = DIRECTION('',(0.,-0.,1.));
#502 = DIRECTION('',(0.707153046833,-0.707060512512,-0.));
#503 = ORIENTED_EDGE('',*,*,#504,.F.);
#504 = EDGE_CURVE('',#505,#496,#507,.T.);
#505 = VERTEX_POINT('',#506);
#506 = CARTESIAN_POINT('',(158.625741,-95.335719,1.51));
#507 = LINE('',#508,#509);
#508 = CARTESIAN_POINT('',(158.625741,-95.335719,1.51));
#509 = VECTOR('',#510,1.);
#510 = DIRECTION('',(0.70710686452,0.707106697853,0.));
#511 = ORIENTED_EDGE('',*,*,#512,.F.);
#512 = EDGE_CURVE('',#513,#505,#515,.T.);
#513 = VERTEX_POINT('',#514);
#514 = CARTESIAN_POINT('',(157.211528,-95.335719,1.51));
#515 = CIRCLE('',#516,0.999999849418);
#516 = AXIS2_PLACEMENT_3D('',#517,#518,#519);
#517 = CARTESIAN_POINT('',(157.9186345,-94.62861215058,1.51));
#518 = DIRECTION('',(0.,0.,1.));
#519 = DIRECTION('',(-0.707106606478,-0.707106955895,0.));
#520 = ORIENTED_EDGE('',*,*,#521,.F.);
#521 = EDGE_CURVE('',#522,#513,#524,.T.);
#522 = VERTEX_POINT('',#523);
#523 = CARTESIAN_POINT('',(151.554674,-89.678864,1.51));
#524 = LINE('',#525,#526);
#525 = CARTESIAN_POINT('',(151.554674,-89.678864,1.51));
#526 = VECTOR('',#527,1.);
#527 = DIRECTION('',(0.707106718687,-0.707106843687,0.));
#528 = ORIENTED_EDGE('',*,*,#529,.F.);
#529 = EDGE_CURVE('',#530,#522,#532,.T.);
#530 = VERTEX_POINT('',#531);
#531 = CARTESIAN_POINT('',(151.554674,-88.26465,1.51));
#532 = CIRCLE('',#533,1.000005885004);
#533 = AXIS2_PLACEMENT_3D('',#534,#535,#536);
#534 = CARTESIAN_POINT('',(152.261788885,-88.971757,1.51));
#535 = DIRECTION('',(0.,0.,1.));
#536 = DIRECTION('',(-0.707110723654,0.707102838697,0.));
#537 = ORIENTED_EDGE('',*,*,#538,.F.);
#538 = EDGE_CURVE('',#479,#530,#539,.T.);
#539 = LINE('',#540,#541);
#540 = CARTESIAN_POINT('',(160.039957,-79.77937,1.51));
#541 = VECTOR('',#542,1.);
#542 = DIRECTION('',(-0.707106906187,-0.707106656187,0.));
#543 = FACE_BOUND('',#544,.T.);
#544 = EDGE_LOOP('',(#545));
#545 = ORIENTED_EDGE('',*,*,#546,.T.);
#546 = EDGE_CURVE('',#547,#547,#549,.T.);
#547 = VERTEX_POINT('',#548);
#548 = CARTESIAN_POINT('',(170.99,-91.38,1.51));
#549 = CIRCLE('',#550,1.35);
#550 = AXIS2_PLACEMENT_3D('',#551,#552,#553);
#551 = CARTESIAN_POINT('',(170.99,-90.03,1.51));
#552 = DIRECTION('',(-0.,0.,-1.));
#553 = DIRECTION('',(-0.,-1.,0.));
#554 = FACE_BOUND('',#555,.T.);
#555 = EDGE_LOOP('',(#556));
#556 = ORIENTED_EDGE('',*,*,#557,.T.);
#557 = EDGE_CURVE('',#558,#558,#560,.T.);
#558 = VERTEX_POINT('',#559);
#559 = CARTESIAN_POINT('',(174.78,-79.52,1.51));
#560 = CIRCLE('',#561,1.35);
#561 = AXIS2_PLACEMENT_3D('',#562,#563,#564);
#562 = CARTESIAN_POINT('',(174.78,-78.17,1.51));
#563 = DIRECTION('',(-0.,0.,-1.));
#564 = DIRECTION('',(-0.,-1.,0.));
#565 = FACE_BOUND('',#566,.T.);
#566 = EDGE_LOOP('',(#567));
#567 = ORIENTED_EDGE('',*,*,#568,.T.);
#568 = EDGE_CURVE('',#569,#569,#571,.T.);
#569 = VERTEX_POINT('',#570);
#570 = CARTESIAN_POINT('',(119.46,-73.9,1.51));
#571 = CIRCLE('',#572,1.35);
#572 = AXIS2_PLACEMENT_3D('',#573,#574,#575);
#573 = CARTESIAN_POINT('',(119.46,-72.55,1.51));
#574 = DIRECTION('',(-0.,0.,-1.));
#575 = DIRECTION('',(-1.05265590483E-14,-1.,0.));
#576 = FACE_BOUND('',#577,.T.);
#577 = EDGE_LOOP('',(#578));
#578 = ORIENTED_EDGE('',*,*,#579,.T.);
#579 = EDGE_CURVE('',#580,#580,#582,.T.);
#580 = VERTEX_POINT('',#581);
#581 = CARTESIAN_POINT('',(131.18,-60.77,1.51));
#582 = CIRCLE('',#583,1.35);
#583 = AXIS2_PLACEMENT_3D('',#584,#585,#586);
#584 = CARTESIAN_POINT('',(131.18,-59.42,1.51));
#585 = DIRECTION('',(-0.,0.,-1.));
#586 = DIRECTION('',(-0.,-1.,0.));
#587 = FACE_BOUND('',#588,.T.);
#588 = EDGE_LOOP('',(#589));
#589 = ORIENTED_EDGE('',*,*,#590,.T.);
#590 = EDGE_CURVE('',#591,#591,#593,.T.);
#591 = VERTEX_POINT('',#592);
#592 = CARTESIAN_POINT('',(109.97,-52.13,1.51));
#593 = CIRCLE('',#594,1.35);
#594 = AXIS2_PLACEMENT_3D('',#595,#596,#597);
#595 = CARTESIAN_POINT('',(109.97,-50.78,1.51));
#596 = DIRECTION('',(-0.,0.,-1.));
#597 = DIRECTION('',(-0.,-1.,0.));
#598 = FACE_BOUND('',#599,.T.);
#599 = EDGE_LOOP('',(#600));
#600 = ORIENTED_EDGE('',*,*,#601,.T.);
#601 = EDGE_CURVE('',#602,#602,#604,.T.);
#602 = VERTEX_POINT('',#603);
#603 = CARTESIAN_POINT('',(122.56,-39.53,1.51));
#604 = CIRCLE('',#605,1.35);
#605 = AXIS2_PLACEMENT_3D('',#606,#607,#608);
#606 = CARTESIAN_POINT('',(122.56,-38.18,1.51));
#607 = DIRECTION('',(-0.,0.,-1.));
#608 = DIRECTION('',(-0.,-1.,0.));
#609 = FACE_BOUND('',#610,.T.);
#610 = EDGE_LOOP('',(#611));
#611 = ORIENTED_EDGE('',*,*,#612,.T.);
#612 = EDGE_CURVE('',#613,#613,#615,.T.);
#613 = VERTEX_POINT('',#614);
#614 = CARTESIAN_POINT('',(144.32,-49.06,1.51));
#615 = CIRCLE('',#616,1.35);
#616 = AXIS2_PLACEMENT_3D('',#617,#618,#619);
#617 = CARTESIAN_POINT('',(144.32,-47.71,1.51));
#618 = DIRECTION('',(-0.,0.,-1.));
#619 = DIRECTION('',(-0.,-1.,0.));
#620 = PLANE('',#621);
#621 = AXIS2_PLACEMENT_3D('',#622,#623,#624);
#622 = CARTESIAN_POINT('',(0.,0.,1.51));
#623 = DIRECTION('',(0.,0.,1.));
#624 = DIRECTION('',(1.,0.,-0.));
#625 = ADVANCED_FACE('',(#626),#637,.T.);
#626 = FACE_BOUND('',#627,.T.);
#627 = EDGE_LOOP('',(#628,#634,#635,#636));
#628 = ORIENTED_EDGE('',*,*,#629,.T.);
#629 = EDGE_CURVE('',#146,#389,#630,.T.);
#630 = LINE('',#631,#632);
#631 = CARTESIAN_POINT('',(104.64,-36.86,0.));
#632 = VECTOR('',#633,1.);
#633 = DIRECTION('',(0.,0.,1.));
#634 = ORIENTED_EDGE('',*,*,#388,.T.);
#635 = ORIENTED_EDGE('',*,*,#81,.F.);
#636 = ORIENTED_EDGE('',*,*,#145,.F.);
#637 = CYLINDRICAL_SURFACE('',#638,4.00000042591);
#638 = AXIS2_PLACEMENT_3D('',#639,#640,#641);
#639 = CARTESIAN_POINT('',(108.64000042591,-36.86000042591,0.));
#640 = DIRECTION('',(0.,0.,-1.));
#641 = DIRECTION('',(-1.,1.064775336658E-07,0.));
#642 = ADVANCED_FACE('',(#643),#654,.T.);
#643 = FACE_BOUND('',#644,.T.);
#644 = EDGE_LOOP('',(#645,#646,#647,#653));
#645 = ORIENTED_EDGE('',*,*,#121,.T.);
#646 = ORIENTED_EDGE('',*,*,#422,.T.);
#647 = ORIENTED_EDGE('',*,*,#648,.F.);
#648 = EDGE_CURVE('',#172,#415,#649,.T.);
#649 = LINE('',#650,#651);
#650 = CARTESIAN_POINT('',(185.64,-117.86,0.));
#651 = VECTOR('',#652,1.);
#652 = DIRECTION('',(0.,0.,1.));
#653 = ORIENTED_EDGE('',*,*,#179,.F.);
#654 = CYLINDRICAL_SURFACE('',#655,4.00000042591);
#655 = AXIS2_PLACEMENT_3D('',#656,#657,#658);
#656 = CARTESIAN_POINT('',(185.63999957409,-113.859999574,0.));
#657 = DIRECTION('',(0.,0.,-1.));
#658 = DIRECTION('',(1.,-1.064775318894E-07,0.));
#659 = ADVANCED_FACE('',(#660),#671,.T.);
#660 = FACE_BOUND('',#661,.T.);
#661 = EDGE_LOOP('',(#662,#668,#669,#670));
#662 = ORIENTED_EDGE('',*,*,#663,.T.);
#663 = EDGE_CURVE('',#155,#398,#664,.T.);
#664 = LINE('',#665,#666);
#665 = CARTESIAN_POINT('',(104.64,-113.86,0.));
#666 = VECTOR('',#667,1.);
#667 = DIRECTION('',(0.,0.,1.));
#668 = ORIENTED_EDGE('',*,*,#397,.T.);
#669 = ORIENTED_EDGE('',*,*,#629,.F.);
#670 = ORIENTED_EDGE('',*,*,#154,.F.);
#671 = PLANE('',#672);
#672 = AXIS2_PLACEMENT_3D('',#673,#674,#675);
#673 = CARTESIAN_POINT('',(104.64,-113.86,0.));
#674 = DIRECTION('',(-1.,0.,0.));
#675 = DIRECTION('',(0.,1.,0.));
#676 = ADVANCED_FACE('',(#677),#688,.T.);
#677 = FACE_BOUND('',#678,.T.);
#678 = EDGE_LOOP('',(#679,#680,#681,#687));
#679 = ORIENTED_EDGE('',*,*,#648,.T.);
#680 = ORIENTED_EDGE('',*,*,#414,.T.);
#681 = ORIENTED_EDGE('',*,*,#682,.F.);
#682 = EDGE_CURVE('',#163,#406,#683,.T.);
#683 = LINE('',#684,#685);
#684 = CARTESIAN_POINT('',(108.64,-117.86,0.));
#685 = VECTOR('',#686,1.);
#686 = DIRECTION('',(0.,0.,1.));
#687 = ORIENTED_EDGE('',*,*,#171,.F.);
#688 = PLANE('',#689);
#689 = AXIS2_PLACEMENT_3D('',#690,#691,#692);
#690 = CARTESIAN_POINT('',(185.64,-117.86,0.));
#691 = DIRECTION('',(0.,-1.,0.));
#692 = DIRECTION('',(-1.,0.,0.));
#693 = ADVANCED_FACE('',(#694),#700,.T.);
#694 = FACE_BOUND('',#695,.T.);
#695 = EDGE_LOOP('',(#696,#697,#698,#699));
#696 = ORIENTED_EDGE('',*,*,#682,.T.);
#697 = ORIENTED_EDGE('',*,*,#405,.T.);
#698 = ORIENTED_EDGE('',*,*,#663,.F.);
#699 = ORIENTED_EDGE('',*,*,#162,.F.);
#700 = CYLINDRICAL_SURFACE('',#701,4.00000042591);
#701 = AXIS2_PLACEMENT_3D('',#702,#703,#704);
#702 = CARTESIAN_POINT('',(108.64000042591,-113.859999574,0.));
#703 = DIRECTION('',(0.,0.,-1.));
#704 = DIRECTION('',(-1.064775318894E-07,-1.,-0.));
#705 = ADVANCED_FACE('',(#706),#717,.F.);
#706 = FACE_BOUND('',#707,.T.);
#707 = EDGE_LOOP('',(#708,#709,#715,#716));
#708 = ORIENTED_EDGE('',*,*,#189,.T.);
#709 = ORIENTED_EDGE('',*,*,#710,.T.);
#710 = EDGE_CURVE('',#190,#433,#711,.T.);
#711 = LINE('',#712,#713);
#712 = CARTESIAN_POINT('',(149.94,-104.35,-4.6E-02));
#713 = VECTOR('',#714,1.);
#714 = DIRECTION('',(0.,0.,1.));
#715 = ORIENTED_EDGE('',*,*,#432,.F.);
#716 = ORIENTED_EDGE('',*,*,#710,.F.);
#717 = CYLINDRICAL_SURFACE('',#718,1.35);
#718 = AXIS2_PLACEMENT_3D('',#719,#720,#721);
#719 = CARTESIAN_POINT('',(149.94,-103.,-4.6E-02));
#720 = DIRECTION('',(-0.,-0.,-1.));
#721 = DIRECTION('',(-0.,-1.,0.));
#722 = ADVANCED_FACE('',(#723),#734,.F.);
#723 = FACE_BOUND('',#724,.T.);
#724 = EDGE_LOOP('',(#725,#726,#732,#733));
#725 = ORIENTED_EDGE('',*,*,#200,.T.);
#726 = ORIENTED_EDGE('',*,*,#727,.T.);
#727 = EDGE_CURVE('',#201,#444,#728,.T.);
#728 = LINE('',#729,#730);
#729 = CARTESIAN_POINT('',(161.82,-100.56,-4.6E-02));
#730 = VECTOR('',#731,1.);
#731 = DIRECTION('',(0.,0.,1.));
#732 = ORIENTED_EDGE('',*,*,#443,.F.);
#733 = ORIENTED_EDGE('',*,*,#727,.F.);
#734 = CYLINDRICAL_SURFACE('',#735,1.35);
#735 = AXIS2_PLACEMENT_3D('',#736,#737,#738);
#736 = CARTESIAN_POINT('',(161.82,-99.21,-4.6E-02));
#737 = DIRECTION('',(-0.,-0.,-1.));
#738 = DIRECTION('',(-0.,-1.,0.));
#739 = ADVANCED_FACE('',(#740),#751,.F.);
#740 = FACE_BOUND('',#741,.T.);
#741 = EDGE_LOOP('',(#742,#743,#749,#750));
#742 = ORIENTED_EDGE('',*,*,#211,.T.);
#743 = ORIENTED_EDGE('',*,*,#744,.T.);
#744 = EDGE_CURVE('',#212,#455,#745,.T.);
#745 = LINE('',#746,#747);
#746 = CARTESIAN_POINT('',(171.73,-113.86,-4.6E-02));
#747 = VECTOR('',#748,1.);
#748 = DIRECTION('',(0.,0.,1.));
#749 = ORIENTED_EDGE('',*,*,#454,.F.);
#750 = ORIENTED_EDGE('',*,*,#744,.F.);
#751 = CYLINDRICAL_SURFACE('',#752,1.35);
#752 = AXIS2_PLACEMENT_3D('',#753,#754,#755);
#753 = CARTESIAN_POINT('',(171.73,-112.51,-4.6E-02));
#754 = DIRECTION('',(-0.,-0.,-1.));
#755 = DIRECTION('',(-2.10531180966E-14,-1.,0.));
#756 = ADVANCED_FACE('',(#757),#768,.F.);
#757 = FACE_BOUND('',#758,.T.);
#758 = EDGE_LOOP('',(#759,#760,#766,#767));
#759 = ORIENTED_EDGE('',*,*,#222,.T.);
#760 = ORIENTED_EDGE('',*,*,#761,.T.);
#761 = EDGE_CURVE('',#223,#466,#762,.T.);
#762 = LINE('',#763,#764);
#763 = CARTESIAN_POINT('',(184.31,-101.3,-4.6E-02));
#764 = VECTOR('',#765,1.);
#765 = DIRECTION('',(0.,0.,1.));
#766 = ORIENTED_EDGE('',*,*,#465,.F.);
#767 = ORIENTED_EDGE('',*,*,#761,.F.);
#768 = CYLINDRICAL_SURFACE('',#769,1.35);
#769 = AXIS2_PLACEMENT_3D('',#770,#771,#772);
#770 = CARTESIAN_POINT('',(184.31,-99.95,-4.6E-02));
#771 = DIRECTION('',(-0.,-0.,-1.));
#772 = DIRECTION('',(-0.,-1.,0.));
#773 = ADVANCED_FACE('',(#774),#790,.F.);
#774 = FACE_BOUND('',#775,.T.);
#775 = EDGE_LOOP('',(#776,#782,#783,#789));
#776 = ORIENTED_EDGE('',*,*,#777,.T.);
#777 = EDGE_CURVE('',#234,#477,#778,.T.);
#778 = LINE('',#779,#780);
#779 = CARTESIAN_POINT('',(161.45417,-79.77937,0.));
#780 = VECTOR('',#781,1.);
#781 = DIRECTION('',(0.,0.,1.));
#782 = ORIENTED_EDGE('',*,*,#476,.T.);
#783 = ORIENTED_EDGE('',*,*,#784,.F.);
#784 = EDGE_CURVE('',#236,#479,#785,.T.);
#785 = LINE('',#786,#787);
#786 = CARTESIAN_POINT('',(160.039957,-79.77937,0.));
#787 = VECTOR('',#788,1.);
#788 = DIRECTION('',(0.,0.,1.));
#789 = ORIENTED_EDGE('',*,*,#233,.F.);
#790 = CYLINDRICAL_SURFACE('',#791,0.999999849418);
#791 = AXIS2_PLACEMENT_3D('',#792,#793,#794);
#792 = CARTESIAN_POINT('',(160.7470635,-80.48647684941,0.));
#793 = DIRECTION('',(-0.,-0.,-1.));
#794 = DIRECTION('',(0.707106606478,0.707106955895,-0.));
#795 = ADVANCED_FACE('',(#796),#807,.T.);
#796 = FACE_BOUND('',#797,.T.);
#797 = EDGE_LOOP('',(#798,#804,#805,#806));
#798 = ORIENTED_EDGE('',*,*,#799,.T.);
#799 = EDGE_CURVE('',#245,#488,#800,.T.);
#800 = LINE('',#801,#802);
#801 = CARTESIAN_POINT('',(167.111024,-85.436225,0.));
#802 = VECTOR('',#803,1.);
#803 = DIRECTION('',(0.,0.,1.));
#804 = ORIENTED_EDGE('',*,*,#487,.T.);
#805 = ORIENTED_EDGE('',*,*,#777,.F.);
#806 = ORIENTED_EDGE('',*,*,#244,.F.);
#807 = PLANE('',#808);
#808 = AXIS2_PLACEMENT_3D('',#809,#810,#811);
#809 = CARTESIAN_POINT('',(167.111024,-85.436225,0.));
#810 = DIRECTION('',(-0.707106843687,-0.707106718687,0.));
#811 = DIRECTION('',(-0.707106718687,0.707106843687,0.));
#812 = ADVANCED_FACE('',(#813),#824,.T.);
#813 = FACE_BOUND('',#814,.T.);
#814 = EDGE_LOOP('',(#815,#816,#817,#823));
#815 = ORIENTED_EDGE('',*,*,#784,.T.);
#816 = ORIENTED_EDGE('',*,*,#538,.T.);
#817 = ORIENTED_EDGE('',*,*,#818,.F.);
#818 = EDGE_CURVE('',#287,#530,#819,.T.);
#819 = LINE('',#820,#821);
#820 = CARTESIAN_POINT('',(151.554674,-88.26465,0.));
#821 = VECTOR('',#822,1.);
#822 = DIRECTION('',(0.,0.,1.));
#823 = ORIENTED_EDGE('',*,*,#295,.F.);
#824 = PLANE('',#825);
#825 = AXIS2_PLACEMENT_3D('',#826,#827,#828);
#826 = CARTESIAN_POINT('',(160.039957,-79.77937,0.));
#827 = DIRECTION('',(0.707106656187,-0.707106906187,0.));
#828 = DIRECTION('',(-0.707106906187,-0.707106656187,0.));
#829 = ADVANCED_FACE('',(#830),#841,.F.);
#830 = FACE_BOUND('',#831,.T.);
#831 = EDGE_LOOP('',(#832,#838,#839,#840));
#832 = ORIENTED_EDGE('',*,*,#833,.T.);
#833 = EDGE_CURVE('',#253,#496,#834,.T.);
#834 = LINE('',#835,#836);
#835 = CARTESIAN_POINT('',(167.111024,-86.850438,0.));
#836 = VECTOR('',#837,1.);
#837 = DIRECTION('',(0.,0.,1.));
#838 = ORIENTED_EDGE('',*,*,#495,.T.);
#839 = ORIENTED_EDGE('',*,*,#799,.F.);
#840 = ORIENTED_EDGE('',*,*,#252,.F.);
#841 = CYLINDRICAL_SURFACE('',#842,1.000065040384);
#842 = AXIS2_PLACEMENT_3D('',#843,#844,#845);
#843 = CARTESIAN_POINT('',(166.40382495966,-86.1433315,0.));
#844 = DIRECTION('',(-0.,0.,-1.));
#845 = DIRECTION('',(0.707153046833,-0.707060512512,-0.));
#846 = ADVANCED_FACE('',(#847),#858,.F.);
#847 = FACE_BOUND('',#848,.T.);
#848 = EDGE_LOOP('',(#849,#850,#851,#857));
#849 = ORIENTED_EDGE('',*,*,#818,.T.);
#850 = ORIENTED_EDGE('',*,*,#529,.T.);
#851 = ORIENTED_EDGE('',*,*,#852,.F.);
#852 = EDGE_CURVE('',#279,#522,#853,.T.);
#853 = LINE('',#854,#855);
#854 = CARTESIAN_POINT('',(151.554674,-89.678864,0.));
#855 = VECTOR('',#856,1.);
#856 = DIRECTION('',(0.,0.,1.));
#857 = ORIENTED_EDGE('',*,*,#286,.F.);
#858 = CYLINDRICAL_SURFACE('',#859,1.000005885004);
#859 = AXIS2_PLACEMENT_3D('',#860,#861,#862);
#860 = CARTESIAN_POINT('',(152.261788885,-88.971757,0.));
#861 = DIRECTION('',(-0.,-0.,-1.));
#862 = DIRECTION('',(-0.707110723654,0.707102838697,0.));
#863 = ADVANCED_FACE('',(#864),#875,.T.);
#864 = FACE_BOUND('',#865,.T.);
#865 = EDGE_LOOP('',(#866,#872,#873,#874));
#866 = ORIENTED_EDGE('',*,*,#867,.T.);
#867 = EDGE_CURVE('',#262,#505,#868,.T.);
#868 = LINE('',#869,#870);
#869 = CARTESIAN_POINT('',(158.625741,-95.335719,0.));
#870 = VECTOR('',#871,1.);
#871 = DIRECTION('',(0.,0.,1.));
#872 = ORIENTED_EDGE('',*,*,#504,.T.);
#873 = ORIENTED_EDGE('',*,*,#833,.F.);
#874 = ORIENTED_EDGE('',*,*,#261,.F.);
#875 = PLANE('',#876);
#876 = AXIS2_PLACEMENT_3D('',#877,#878,#879);
#877 = CARTESIAN_POINT('',(158.625741,-95.335719,0.));
#878 = DIRECTION('',(-0.707106697853,0.70710686452,0.));
#879 = DIRECTION('',(0.70710686452,0.707106697853,0.));
#880 = ADVANCED_FACE('',(#881),#892,.T.);
#881 = FACE_BOUND('',#882,.T.);
#882 = EDGE_LOOP('',(#883,#884,#885,#891));
#883 = ORIENTED_EDGE('',*,*,#852,.T.);
#884 = ORIENTED_EDGE('',*,*,#521,.T.);
#885 = ORIENTED_EDGE('',*,*,#886,.F.);
#886 = EDGE_CURVE('',#270,#513,#887,.T.);
#887 = LINE('',#888,#889);
#888 = CARTESIAN_POINT('',(157.211528,-95.335719,0.));
#889 = VECTOR('',#890,1.);
#890 = DIRECTION('',(0.,0.,1.));
#891 = ORIENTED_EDGE('',*,*,#278,.F.);
#892 = PLANE('',#893);
#893 = AXIS2_PLACEMENT_3D('',#894,#895,#896);
#894 = CARTESIAN_POINT('',(151.554674,-89.678864,0.));
#895 = DIRECTION('',(0.707106843687,0.707106718687,-0.));
#896 = DIRECTION('',(0.707106718687,-0.707106843687,0.));
#897 = ADVANCED_FACE('',(#898),#904,.F.);
#898 = FACE_BOUND('',#899,.T.);
#899 = EDGE_LOOP('',(#900,#901,#902,#903));
#900 = ORIENTED_EDGE('',*,*,#886,.T.);
#901 = ORIENTED_EDGE('',*,*,#512,.T.);
#902 = ORIENTED_EDGE('',*,*,#867,.F.);
#903 = ORIENTED_EDGE('',*,*,#269,.F.);
#904 = CYLINDRICAL_SURFACE('',#905,0.999999849418);
#905 = AXIS2_PLACEMENT_3D('',#906,#907,#908);
#906 = CARTESIAN_POINT('',(157.9186345,-94.62861215058,0.));
#907 = DIRECTION('',(-0.,-0.,-1.));
#908 = DIRECTION('',(-0.707106606478,-0.707106955895,0.));
#909 = ADVANCED_FACE('',(#910),#921,.F.);
#910 = FACE_BOUND('',#911,.T.);
#911 = EDGE_LOOP('',(#912,#913,#919,#920));
#912 = ORIENTED_EDGE('',*,*,#303,.T.);
#913 = ORIENTED_EDGE('',*,*,#914,.T.);
#914 = EDGE_CURVE('',#304,#547,#915,.T.);
#915 = LINE('',#916,#917);
#916 = CARTESIAN_POINT('',(170.99,-91.38,-4.6E-02));
#917 = VECTOR('',#918,1.);
#918 = DIRECTION('',(0.,0.,1.));
#919 = ORIENTED_EDGE('',*,*,#546,.F.);
#920 = ORIENTED_EDGE('',*,*,#914,.F.);
#921 = CYLINDRICAL_SURFACE('',#922,1.35);
#922 = AXIS2_PLACEMENT_3D('',#923,#924,#925);
#923 = CARTESIAN_POINT('',(170.99,-90.03,-4.6E-02));
#924 = DIRECTION('',(-0.,-0.,-1.));
#925 = DIRECTION('',(-0.,-1.,0.));
#926 = ADVANCED_FACE('',(#927),#938,.F.);
#927 = FACE_BOUND('',#928,.T.);
#928 = EDGE_LOOP('',(#929,#930,#936,#937));
#929 = ORIENTED_EDGE('',*,*,#314,.T.);
#930 = ORIENTED_EDGE('',*,*,#931,.T.);
#931 = EDGE_CURVE('',#315,#558,#932,.T.);
#932 = LINE('',#933,#934);
#933 = CARTESIAN_POINT('',(174.78,-79.52,-4.6E-02));
#934 = VECTOR('',#935,1.);
#935 = DIRECTION('',(0.,0.,1.));
#936 = ORIENTED_EDGE('',*,*,#557,.F.);
#937 = ORIENTED_EDGE('',*,*,#931,.F.);
#938 = CYLINDRICAL_SURFACE('',#939,1.35);
#939 = AXIS2_PLACEMENT_3D('',#940,#941,#942);
#940 = CARTESIAN_POINT('',(174.78,-78.17,-4.6E-02));
#941 = DIRECTION('',(-0.,-0.,-1.));
#942 = DIRECTION('',(-0.,-1.,0.));
#943 = ADVANCED_FACE('',(#944),#955,.F.);
#944 = FACE_BOUND('',#945,.T.);
#945 = EDGE_LOOP('',(#946,#947,#953,#954));
#946 = ORIENTED_EDGE('',*,*,#325,.T.);
#947 = ORIENTED_EDGE('',*,*,#948,.T.);
#948 = EDGE_CURVE('',#326,#569,#949,.T.);
#949 = LINE('',#950,#951);
#950 = CARTESIAN_POINT('',(119.46,-73.9,-4.6E-02));
#951 = VECTOR('',#952,1.);
#952 = DIRECTION('',(0.,0.,1.));
#953 = ORIENTED_EDGE('',*,*,#568,.F.);
#954 = ORIENTED_EDGE('',*,*,#948,.F.);
#955 = CYLINDRICAL_SURFACE('',#956,1.35);
#956 = AXIS2_PLACEMENT_3D('',#957,#958,#959);
#957 = CARTESIAN_POINT('',(119.46,-72.55,-4.6E-02));
#958 = DIRECTION('',(-0.,-0.,-1.));
#959 = DIRECTION('',(-1.05265590483E-14,-1.,0.));
#960 = ADVANCED_FACE('',(#961),#972,.F.);
#961 = FACE_BOUND('',#962,.T.);
#962 = EDGE_LOOP('',(#963,#964,#970,#971));
#963 = ORIENTED_EDGE('',*,*,#336,.T.);
#964 = ORIENTED_EDGE('',*,*,#965,.T.);
#965 = EDGE_CURVE('',#337,#580,#966,.T.);
#966 = LINE('',#967,#968);
#967 = CARTESIAN_POINT('',(131.18,-60.77,-4.6E-02));
#968 = VECTOR('',#969,1.);
#969 = DIRECTION('',(0.,0.,1.));
#970 = ORIENTED_EDGE('',*,*,#579,.F.);
#971 = ORIENTED_EDGE('',*,*,#965,.F.);
#972 = CYLINDRICAL_SURFACE('',#973,1.35);
#973 = AXIS2_PLACEMENT_3D('',#974,#975,#976);
#974 = CARTESIAN_POINT('',(131.18,-59.42,-4.6E-02));
#975 = DIRECTION('',(-0.,-0.,-1.));
#976 = DIRECTION('',(-0.,-1.,0.));
#977 = ADVANCED_FACE('',(#978),#989,.F.);
#978 = FACE_BOUND('',#979,.T.);
#979 = EDGE_LOOP('',(#980,#981,#987,#988));
#980 = ORIENTED_EDGE('',*,*,#347,.T.);
#981 = ORIENTED_EDGE('',*,*,#982,.T.);
#982 = EDGE_CURVE('',#348,#591,#983,.T.);
#983 = LINE('',#984,#985);
#984 = CARTESIAN_POINT('',(109.97,-52.13,-4.6E-02));
#985 = VECTOR('',#986,1.);
#986 = DIRECTION('',(0.,0.,1.));
#987 = ORIENTED_EDGE('',*,*,#590,.F.);
#988 = ORIENTED_EDGE('',*,*,#982,.F.);
#989 = CYLINDRICAL_SURFACE('',#990,1.35);
#990 = AXIS2_PLACEMENT_3D('',#991,#992,#993);
#991 = CARTESIAN_POINT('',(109.97,-50.78,-4.6E-02));
#992 = DIRECTION('',(-0.,-0.,-1.));
#993 = DIRECTION('',(-0.,-1.,0.));
#994 = ADVANCED_FACE('',(#995),#1006,.F.);
#995 = FACE_BOUND('',#996,.T.);
#996 = EDGE_LOOP('',(#997,#998,#1004,#1005));
#997 = ORIENTED_EDGE('',*,*,#358,.T.);
#998 = ORIENTED_EDGE('',*,*,#999,.T.);
#999 = EDGE_CURVE('',#359,#602,#1000,.T.);
#1000 = LINE('',#1001,#1002);
#1001 = CARTESIAN_POINT('',(122.56,-39.53,-4.6E-02));
#1002 = VECTOR('',#1003,1.);
#1003 = DIRECTION('',(0.,0.,1.));
#1004 = ORIENTED_EDGE('',*,*,#601,.F.);
#1005 = ORIENTED_EDGE('',*,*,#999,.F.);
#1006 = CYLINDRICAL_SURFACE('',#1007,1.35);
#1007 = AXIS2_PLACEMENT_3D('',#1008,#1009,#1010);
#1008 = CARTESIAN_POINT('',(122.56,-38.18,-4.6E-02));
#1009 = DIRECTION('',(-0.,-0.,-1.));
#1010 = DIRECTION('',(-0.,-1.,0.));
#1011 = ADVANCED_FACE('',(#1012),#1023,.F.);
#1012 = FACE_BOUND('',#1013,.T.);
#1013 = EDGE_LOOP('',(#1014,#1015,#1021,#1022));
#1014 = ORIENTED_EDGE('',*,*,#369,.T.);
#1015 = ORIENTED_EDGE('',*,*,#1016,.T.);
#1016 = EDGE_CURVE('',#370,#613,#1017,.T.);
#1017 = LINE('',#1018,#1019);
#1018 = CARTESIAN_POINT('',(144.32,-49.06,-4.6E-02));
#1019 = VECTOR('',#1020,1.);
#1020 = DIRECTION('',(0.,0.,1.));
#1021 = ORIENTED_EDGE('',*,*,#612,.F.);
#1022 = ORIENTED_EDGE('',*,*,#1016,.F.);
#1023 = CYLINDRICAL_SURFACE('',#1024,1.35);
#1024 = AXIS2_PLACEMENT_3D('',#1025,#1026,#1027);
#1025 = CARTESIAN_POINT('',(144.32,-47.71,-4.6E-02));
#1026 = DIRECTION('',(-0.,-0.,-1.));
#1027 = DIRECTION('',(-0.,-1.,0.));
#1028 = ( GEOMETRIC_REPRESENTATION_CONTEXT(3) 
GLOBAL_UNCERTAINTY_ASSIGNED_CONTEXT((#1032)) 
GLOBAL_UNIT_ASSIGNED_CONTEXT((#1029,#1030,#1031)) REPRESENTATION_CONTEXT
('Context #1','3D Context with UNIT and UNCERTAINTY') );
#1029 = ( LENGTH_UNIT() NAMED_UNIT(*) SI_UNIT(.MILLI.,.METRE.) );
#1030 = ( NAMED_UNIT(*) PLANE_ANGLE_UNIT() SI_UNIT($,.RADIAN.) );
#1031 = ( NAMED_UNIT(*) SI_UNIT($,.STERADIAN.) SOLID_ANGLE_UNIT() );
#1032 = UNCERTAINTY_MEASURE_WITH_UNIT(LENGTH_MEASURE(1.E-07),#1029,
  'distance_accuracy_value','confusion accuracy');
#1033 = CONTEXT_DEPENDENT_SHAPE_REPRESENTATION(#1034,#1036);
#1034 = ( REPRESENTATION_RELATIONSHIP('','',#32,#10) 
REPRESENTATION_RELATIONSHIP_WITH_TRANSFORMATION(#1035) 
SHAPE_REPRESENTATION_RELATIONSHIP() );
#1035 = ITEM_DEFINED_TRANSFORMATION('','',#11,#15);
#1036 = PRODUCT_DEFINITION_SHAPE('Placement','Placement of an item',
  #1037);
#1037 = NEXT_ASSEMBLY_USAGE_OCCURRENCE('1','=>[0:1:1:2]','',#5,#27,$);
#1038 = PRODUCT_RELATED_PRODUCT_CATEGORY('part',$,(#29));
#1039 = MECHANICAL_DESIGN_GEOMETRIC_PRESENTATION_REPRESENTATION('',(
    #1040),#1028);
#1040 = STYLED_ITEM('color',(#1041),#33);
#1041 = PRESENTATION_STYLE_ASSIGNMENT((#1042));
#1042 = SURFACE_STYLE_USAGE(.BOTH.,#1043);
#1043 = SURFACE_SIDE_STYLE('',(#1044));
#1044 = SURFACE_STYLE_FILL_AREA(#1045);
#1045 = FILL_AREA_STYLE('',(#1046));
#1046 = FILL_AREA_STYLE_COLOUR('',#1047);
#1047 = COLOUR_RGB('',0.313304153717,0.484529207832,0.410020903123);
ENDSEC;
END-ISO-10303-21;
