ISO-10303-21;
HEADER;
/* Generated by software containing ST-Developer
 * from STEP Tools, Inc. (www.steptools.com) 
 */

FILE_DESCRIPTION(
/* description */ ('STEP AP214'),
/* implementation_level */ '2;1');

FILE_NAME(
/* name */ '2N3700UB.step',
/* time_stamp */ '2025-10-13T15:21:50-06:00',
/* author */ (''),
/* organization */ (''),
/* preprocessor_version */ 'ST-DEVELOPER v20.1',
/* originating_system */ 'Autodesk Translation Framework v14.17.0.0',
/* authorisation */ '');

FILE_SCHEMA (('AUTOMOTIVE_DESIGN { 1 0 10303 214 3 1 1 }'));
ENDSEC;

DATA;
#10=MECHANICAL_DESIGN_GEOMETRIC_PRESENTATION_REPRESENTATION('',(#14,#15,
#16,#17,#18),#1807);
#11=SHAPE_REPRESENTATION_RELATIONSHIP('SRR','None',#1817,#12);
#12=ADVANCED_BREP_SHAPE_REPRESENTATION('',(#19,#20,#21,#22,#23),#1806);
#13=FACE_BOUND('',#168,.T.);
#14=STYLED_ITEM('',(#1827),#19);
#15=STYLED_ITEM('',(#1827),#20);
#16=STYLED_ITEM('',(#1827),#21);
#17=STYLED_ITEM('',(#1828),#22);
#18=STYLED_ITEM('',(#1827),#23);
#19=MANIFOLD_SOLID_BREP('Body1',#1099);
#20=MANIFOLD_SOLID_BREP('Body2',#1100);
#21=MANIFOLD_SOLID_BREP('Body3',#1101);
#22=MANIFOLD_SOLID_BREP('Body4',#1102);
#23=MANIFOLD_SOLID_BREP('Body5',#1103);
#24=CIRCLE('',#1120,0.008);
#25=CIRCLE('',#1121,0.008);
#26=CIRCLE('',#1131,0.008);
#27=CIRCLE('',#1132,0.008);
#28=CIRCLE('',#1141,0.008);
#29=CIRCLE('',#1142,0.008);
#30=CIRCLE('',#1152,0.022);
#31=CIRCLE('',#1153,0.022);
#32=CIRCLE('',#1169,0.008);
#33=CIRCLE('',#1170,0.008);
#34=CIRCLE('',#1173,0.008);
#35=CIRCLE('',#1174,0.008);
#36=CIRCLE('',#1177,0.00799999999999999);
#37=CIRCLE('',#1178,0.00799999999999999);
#38=CIRCLE('',#1181,0.008);
#39=CIRCLE('',#1182,0.008);
#40=CIRCLE('',#1186,0.012);
#41=CIRCLE('',#1192,0.022);
#42=CIRCLE('',#1194,0.022);
#43=CIRCLE('',#1196,0.012);
#44=CYLINDRICAL_SURFACE('',#1119,0.008);
#45=CYLINDRICAL_SURFACE('',#1130,0.008);
#46=CYLINDRICAL_SURFACE('',#1140,0.008);
#47=CYLINDRICAL_SURFACE('',#1151,0.022);
#48=CYLINDRICAL_SURFACE('',#1168,0.008);
#49=CYLINDRICAL_SURFACE('',#1172,0.008);
#50=CYLINDRICAL_SURFACE('',#1176,0.008);
#51=CYLINDRICAL_SURFACE('',#1180,0.008);
#52=CYLINDRICAL_SURFACE('',#1193,0.022);
#53=CYLINDRICAL_SURFACE('',#1197,0.012);
#54=FACE_OUTER_BOUND('',#115,.T.);
#55=FACE_OUTER_BOUND('',#116,.T.);
#56=FACE_OUTER_BOUND('',#117,.T.);
#57=FACE_OUTER_BOUND('',#118,.T.);
#58=FACE_OUTER_BOUND('',#119,.T.);
#59=FACE_OUTER_BOUND('',#120,.T.);
#60=FACE_OUTER_BOUND('',#121,.T.);
#61=FACE_OUTER_BOUND('',#122,.T.);
#62=FACE_OUTER_BOUND('',#123,.T.);
#63=FACE_OUTER_BOUND('',#124,.T.);
#64=FACE_OUTER_BOUND('',#125,.T.);
#65=FACE_OUTER_BOUND('',#126,.T.);
#66=FACE_OUTER_BOUND('',#127,.T.);
#67=FACE_OUTER_BOUND('',#128,.T.);
#68=FACE_OUTER_BOUND('',#129,.T.);
#69=FACE_OUTER_BOUND('',#130,.T.);
#70=FACE_OUTER_BOUND('',#131,.T.);
#71=FACE_OUTER_BOUND('',#132,.T.);
#72=FACE_OUTER_BOUND('',#133,.T.);
#73=FACE_OUTER_BOUND('',#134,.T.);
#74=FACE_OUTER_BOUND('',#135,.T.);
#75=FACE_OUTER_BOUND('',#136,.T.);
#76=FACE_OUTER_BOUND('',#137,.T.);
#77=FACE_OUTER_BOUND('',#138,.T.);
#78=FACE_OUTER_BOUND('',#139,.T.);
#79=FACE_OUTER_BOUND('',#140,.T.);
#80=FACE_OUTER_BOUND('',#141,.T.);
#81=FACE_OUTER_BOUND('',#142,.T.);
#82=FACE_OUTER_BOUND('',#143,.T.);
#83=FACE_OUTER_BOUND('',#144,.T.);
#84=FACE_OUTER_BOUND('',#145,.T.);
#85=FACE_OUTER_BOUND('',#146,.T.);
#86=FACE_OUTER_BOUND('',#147,.T.);
#87=FACE_OUTER_BOUND('',#148,.T.);
#88=FACE_OUTER_BOUND('',#149,.T.);
#89=FACE_OUTER_BOUND('',#150,.T.);
#90=FACE_OUTER_BOUND('',#151,.T.);
#91=FACE_OUTER_BOUND('',#152,.T.);
#92=FACE_OUTER_BOUND('',#153,.T.);
#93=FACE_OUTER_BOUND('',#154,.T.);
#94=FACE_OUTER_BOUND('',#155,.T.);
#95=FACE_OUTER_BOUND('',#156,.T.);
#96=FACE_OUTER_BOUND('',#157,.T.);
#97=FACE_OUTER_BOUND('',#158,.T.);
#98=FACE_OUTER_BOUND('',#159,.T.);
#99=FACE_OUTER_BOUND('',#160,.T.);
#100=FACE_OUTER_BOUND('',#161,.T.);
#101=FACE_OUTER_BOUND('',#162,.T.);
#102=FACE_OUTER_BOUND('',#163,.T.);
#103=FACE_OUTER_BOUND('',#164,.T.);
#104=FACE_OUTER_BOUND('',#165,.T.);
#105=FACE_OUTER_BOUND('',#166,.T.);
#106=FACE_OUTER_BOUND('',#167,.T.);
#107=FACE_OUTER_BOUND('',#169,.T.);
#108=FACE_OUTER_BOUND('',#170,.T.);
#109=FACE_OUTER_BOUND('',#171,.T.);
#110=FACE_OUTER_BOUND('',#172,.T.);
#111=FACE_OUTER_BOUND('',#173,.T.);
#112=FACE_OUTER_BOUND('',#174,.T.);
#113=FACE_OUTER_BOUND('',#175,.T.);
#114=FACE_OUTER_BOUND('',#176,.T.);
#115=EDGE_LOOP('',(#687,#688,#689,#690));
#116=EDGE_LOOP('',(#691,#692,#693,#694));
#117=EDGE_LOOP('',(#695,#696,#697,#698));
#118=EDGE_LOOP('',(#699,#700,#701,#702));
#119=EDGE_LOOP('',(#703,#704,#705,#706));
#120=EDGE_LOOP('',(#707,#708,#709,#710));
#121=EDGE_LOOP('',(#711,#712,#713,#714,#715,#716));
#122=EDGE_LOOP('',(#717,#718,#719,#720,#721,#722));
#123=EDGE_LOOP('',(#723,#724,#725,#726));
#124=EDGE_LOOP('',(#727,#728,#729,#730));
#125=EDGE_LOOP('',(#731,#732,#733,#734));
#126=EDGE_LOOP('',(#735,#736,#737,#738));
#127=EDGE_LOOP('',(#739,#740,#741,#742));
#128=EDGE_LOOP('',(#743,#744,#745,#746));
#129=EDGE_LOOP('',(#747,#748,#749,#750,#751,#752));
#130=EDGE_LOOP('',(#753,#754,#755,#756,#757,#758));
#131=EDGE_LOOP('',(#759,#760,#761,#762));
#132=EDGE_LOOP('',(#763,#764,#765,#766));
#133=EDGE_LOOP('',(#767,#768,#769,#770));
#134=EDGE_LOOP('',(#771,#772,#773,#774));
#135=EDGE_LOOP('',(#775,#776,#777,#778));
#136=EDGE_LOOP('',(#779,#780,#781,#782));
#137=EDGE_LOOP('',(#783,#784,#785,#786,#787,#788));
#138=EDGE_LOOP('',(#789,#790,#791,#792,#793,#794));
#139=EDGE_LOOP('',(#795,#796,#797,#798,#799,#800,#801,#802,#803,#804,#805,
#806));
#140=EDGE_LOOP('',(#807,#808,#809,#810));
#141=EDGE_LOOP('',(#811,#812,#813,#814,#815,#816,#817,#818));
#142=EDGE_LOOP('',(#819,#820,#821,#822));
#143=EDGE_LOOP('',(#823,#824,#825,#826));
#144=EDGE_LOOP('',(#827,#828,#829,#830,#831,#832,#833,#834,#835,#836,#837,
#838,#839,#840,#841,#842,#843));
#145=EDGE_LOOP('',(#844,#845,#846,#847));
#146=EDGE_LOOP('',(#848,#849,#850,#851));
#147=EDGE_LOOP('',(#852,#853,#854,#855));
#148=EDGE_LOOP('',(#856,#857,#858,#859));
#149=EDGE_LOOP('',(#860,#861,#862,#863));
#150=EDGE_LOOP('',(#864,#865,#866,#867));
#151=EDGE_LOOP('',(#868,#869,#870,#871));
#152=EDGE_LOOP('',(#872,#873,#874,#875));
#153=EDGE_LOOP('',(#876,#877,#878,#879));
#154=EDGE_LOOP('',(#880,#881,#882,#883));
#155=EDGE_LOOP('',(#884,#885,#886,#887));
#156=EDGE_LOOP('',(#888,#889,#890,#891));
#157=EDGE_LOOP('',(#892,#893,#894,#895,#896));
#158=EDGE_LOOP('',(#897,#898,#899,#900));
#159=EDGE_LOOP('',(#901,#902,#903,#904));
#160=EDGE_LOOP('',(#905,#906,#907,#908));
#161=EDGE_LOOP('',(#909,#910,#911,#912));
#162=EDGE_LOOP('',(#913,#914,#915,#916));
#163=EDGE_LOOP('',(#917,#918,#919,#920));
#164=EDGE_LOOP('',(#921,#922,#923,#924));
#165=EDGE_LOOP('',(#925,#926,#927,#928));
#166=EDGE_LOOP('',(#929,#930,#931,#932,#933,#934,#935,#936));
#167=EDGE_LOOP('',(#937,#938,#939,#940,#941));
#168=EDGE_LOOP('',(#942,#943,#944,#945,#946,#947,#948,#949));
#169=EDGE_LOOP('',(#950,#951,#952,#953,#954,#955));
#170=EDGE_LOOP('',(#956,#957,#958,#959));
#171=EDGE_LOOP('',(#960,#961,#962,#963));
#172=EDGE_LOOP('',(#964,#965,#966,#967,#968,#969));
#173=EDGE_LOOP('',(#970,#971,#972,#973,#974));
#174=EDGE_LOOP('',(#975,#976,#977,#978));
#175=EDGE_LOOP('',(#979,#980,#981,#982));
#176=EDGE_LOOP('',(#983,#984,#985,#986));
#177=LINE('',#1496,#307);
#178=LINE('',#1498,#308);
#179=LINE('',#1500,#309);
#180=LINE('',#1501,#310);
#181=LINE('',#1504,#311);
#182=LINE('',#1506,#312);
#183=LINE('',#1507,#313);
#184=LINE('',#1512,#314);
#185=LINE('',#1516,#315);
#186=LINE('',#1518,#316);
#187=LINE('',#1519,#317);
#188=LINE('',#1522,#318);
#189=LINE('',#1524,#319);
#190=LINE('',#1525,#320);
#191=LINE('',#1527,#321);
#192=LINE('',#1528,#322);
#193=LINE('',#1534,#323);
#194=LINE('',#1536,#324);
#195=LINE('',#1538,#325);
#196=LINE('',#1539,#326);
#197=LINE('',#1542,#327);
#198=LINE('',#1544,#328);
#199=LINE('',#1545,#329);
#200=LINE('',#1548,#330);
#201=LINE('',#1550,#331);
#202=LINE('',#1551,#332);
#203=LINE('',#1556,#333);
#204=LINE('',#1560,#334);
#205=LINE('',#1562,#335);
#206=LINE('',#1563,#336);
#207=LINE('',#1565,#337);
#208=LINE('',#1566,#338);
#209=LINE('',#1572,#339);
#210=LINE('',#1574,#340);
#211=LINE('',#1576,#341);
#212=LINE('',#1577,#342);
#213=LINE('',#1580,#343);
#214=LINE('',#1582,#344);
#215=LINE('',#1583,#345);
#216=LINE('',#1586,#346);
#217=LINE('',#1588,#347);
#218=LINE('',#1589,#348);
#219=LINE('',#1594,#349);
#220=LINE('',#1598,#350);
#221=LINE('',#1600,#351);
#222=LINE('',#1601,#352);
#223=LINE('',#1603,#353);
#224=LINE('',#1604,#354);
#225=LINE('',#1610,#355);
#226=LINE('',#1612,#356);
#227=LINE('',#1614,#357);
#228=LINE('',#1616,#358);
#229=LINE('',#1618,#359);
#230=LINE('',#1620,#360);
#231=LINE('',#1622,#361);
#232=LINE('',#1624,#362);
#233=LINE('',#1626,#363);
#234=LINE('',#1628,#364);
#235=LINE('',#1630,#365);
#236=LINE('',#1631,#366);
#237=LINE('',#1634,#367);
#238=LINE('',#1636,#368);
#239=LINE('',#1637,#369);
#240=LINE('',#1640,#370);
#241=LINE('',#1642,#371);
#242=LINE('',#1644,#372);
#243=LINE('',#1646,#373);
#244=LINE('',#1648,#374);
#245=LINE('',#1650,#375);
#246=LINE('',#1651,#376);
#247=LINE('',#1654,#377);
#248=LINE('',#1656,#378);
#249=LINE('',#1657,#379);
#250=LINE('',#1663,#380);
#251=LINE('',#1665,#381);
#252=LINE('',#1666,#382);
#253=LINE('',#1668,#383);
#254=LINE('',#1670,#384);
#255=LINE('',#1671,#385);
#256=LINE('',#1673,#386);
#257=LINE('',#1675,#387);
#258=LINE('',#1676,#388);
#259=LINE('',#1679,#389);
#260=LINE('',#1680,#390);
#261=LINE('',#1683,#391);
#262=LINE('',#1684,#392);
#263=LINE('',#1686,#393);
#264=LINE('',#1690,#394);
#265=LINE('',#1691,#395);
#266=LINE('',#1694,#396);
#267=LINE('',#1695,#397);
#268=LINE('',#1697,#398);
#269=LINE('',#1701,#399);
#270=LINE('',#1702,#400);
#271=LINE('',#1705,#401);
#272=LINE('',#1706,#402);
#273=LINE('',#1708,#403);
#274=LINE('',#1716,#404);
#275=LINE('',#1719,#405);
#276=LINE('',#1722,#406);
#277=LINE('',#1724,#407);
#278=LINE('',#1725,#408);
#279=LINE('',#1731,#409);
#280=LINE('',#1734,#410);
#281=LINE('',#1736,#411);
#282=LINE('',#1737,#412);
#283=LINE('',#1743,#413);
#284=LINE('',#1746,#414);
#285=LINE('',#1748,#415);
#286=LINE('',#1749,#416);
#287=LINE('',#1755,#417);
#288=LINE('',#1757,#418);
#289=LINE('',#1758,#419);
#290=LINE('',#1765,#420);
#291=LINE('',#1767,#421);
#292=LINE('',#1769,#422);
#293=LINE('',#1770,#423);
#294=LINE('',#1774,#424);
#295=LINE('',#1776,#425);
#296=LINE('',#1778,#426);
#297=LINE('',#1779,#427);
#298=LINE('',#1780,#428);
#299=LINE('',#1783,#429);
#300=LINE('',#1784,#430);
#301=LINE('',#1787,#431);
#302=LINE('',#1788,#432);
#303=LINE('',#1791,#433);
#304=LINE('',#1793,#434);
#305=LINE('',#1795,#435);
#306=LINE('',#1796,#436);
#307=VECTOR('',#1202,39.3700787401575);
#308=VECTOR('',#1203,39.3700787401575);
#309=VECTOR('',#1204,39.3700787401575);
#310=VECTOR('',#1205,39.3700787401575);
#311=VECTOR('',#1208,39.3700787401575);
#312=VECTOR('',#1209,39.3700787401575);
#313=VECTOR('',#1210,39.3700787401575);
#314=VECTOR('',#1215,39.3700787401575);
#315=VECTOR('',#1220,39.3700787401575);
#316=VECTOR('',#1221,39.3700787401575);
#317=VECTOR('',#1222,39.3700787401575);
#318=VECTOR('',#1225,39.3700787401575);
#319=VECTOR('',#1226,39.3700787401575);
#320=VECTOR('',#1227,39.3700787401575);
#321=VECTOR('',#1230,39.3700787401575);
#322=VECTOR('',#1231,39.3700787401575);
#323=VECTOR('',#1238,39.3700787401575);
#324=VECTOR('',#1239,39.3700787401575);
#325=VECTOR('',#1240,39.3700787401575);
#326=VECTOR('',#1241,39.3700787401575);
#327=VECTOR('',#1244,39.3700787401575);
#328=VECTOR('',#1245,39.3700787401575);
#329=VECTOR('',#1246,39.3700787401575);
#330=VECTOR('',#1249,39.3700787401575);
#331=VECTOR('',#1250,39.3700787401575);
#332=VECTOR('',#1251,39.3700787401575);
#333=VECTOR('',#1256,39.3700787401575);
#334=VECTOR('',#1261,39.3700787401575);
#335=VECTOR('',#1262,39.3700787401575);
#336=VECTOR('',#1263,39.3700787401575);
#337=VECTOR('',#1266,39.3700787401575);
#338=VECTOR('',#1267,39.3700787401575);
#339=VECTOR('',#1274,39.3700787401575);
#340=VECTOR('',#1275,39.3700787401575);
#341=VECTOR('',#1276,39.3700787401575);
#342=VECTOR('',#1277,39.3700787401575);
#343=VECTOR('',#1280,39.3700787401575);
#344=VECTOR('',#1281,39.3700787401575);
#345=VECTOR('',#1282,39.3700787401575);
#346=VECTOR('',#1285,39.3700787401575);
#347=VECTOR('',#1286,39.3700787401575);
#348=VECTOR('',#1287,39.3700787401575);
#349=VECTOR('',#1292,39.3700787401575);
#350=VECTOR('',#1297,39.3700787401575);
#351=VECTOR('',#1298,39.3700787401575);
#352=VECTOR('',#1299,39.3700787401575);
#353=VECTOR('',#1302,39.3700787401575);
#354=VECTOR('',#1303,39.3700787401575);
#355=VECTOR('',#1310,39.3700787401575);
#356=VECTOR('',#1311,39.3700787401575);
#357=VECTOR('',#1312,39.3700787401575);
#358=VECTOR('',#1313,39.3700787401575);
#359=VECTOR('',#1314,39.3700787401575);
#360=VECTOR('',#1315,39.3700787401575);
#361=VECTOR('',#1316,39.3700787401575);
#362=VECTOR('',#1317,39.3700787401575);
#363=VECTOR('',#1318,39.3700787401575);
#364=VECTOR('',#1319,39.3700787401575);
#365=VECTOR('',#1320,39.3700787401575);
#366=VECTOR('',#1321,39.3700787401575);
#367=VECTOR('',#1324,39.3700787401575);
#368=VECTOR('',#1325,39.3700787401575);
#369=VECTOR('',#1326,39.3700787401575);
#370=VECTOR('',#1329,39.3700787401575);
#371=VECTOR('',#1330,39.3700787401575);
#372=VECTOR('',#1331,39.3700787401575);
#373=VECTOR('',#1332,39.3700787401575);
#374=VECTOR('',#1333,39.3700787401575);
#375=VECTOR('',#1334,39.3700787401575);
#376=VECTOR('',#1335,39.3700787401575);
#377=VECTOR('',#1338,39.3700787401575);
#378=VECTOR('',#1339,39.3700787401575);
#379=VECTOR('',#1340,39.3700787401575);
#380=VECTOR('',#1349,39.3700787401575);
#381=VECTOR('',#1350,39.3700787401575);
#382=VECTOR('',#1351,39.3700787401575);
#383=VECTOR('',#1352,39.3700787401575);
#384=VECTOR('',#1353,39.3700787401575);
#385=VECTOR('',#1354,39.3700787401575);
#386=VECTOR('',#1355,39.3700787401575);
#387=VECTOR('',#1356,39.3700787401575);
#388=VECTOR('',#1357,39.3700787401575);
#389=VECTOR('',#1360,39.3700787401575);
#390=VECTOR('',#1361,39.3700787401575);
#391=VECTOR('',#1364,39.3700787401575);
#392=VECTOR('',#1365,39.3700787401575);
#393=VECTOR('',#1368,39.3700787401575);
#394=VECTOR('',#1373,39.3700787401575);
#395=VECTOR('',#1374,39.3700787401575);
#396=VECTOR('',#1377,39.3700787401575);
#397=VECTOR('',#1378,39.3700787401575);
#398=VECTOR('',#1381,39.3700787401575);
#399=VECTOR('',#1386,39.3700787401575);
#400=VECTOR('',#1387,39.3700787401575);
#401=VECTOR('',#1390,39.3700787401575);
#402=VECTOR('',#1391,39.3700787401575);
#403=VECTOR('',#1394,39.3700787401575);
#404=VECTOR('',#1403,39.3700787401575);
#405=VECTOR('',#1406,39.3700787401575);
#406=VECTOR('',#1409,39.3700787401575);
#407=VECTOR('',#1410,39.3700787401575);
#408=VECTOR('',#1411,39.3700787401575);
#409=VECTOR('',#1418,39.3700787401575);
#410=VECTOR('',#1421,39.3700787401575);
#411=VECTOR('',#1422,39.3700787401575);
#412=VECTOR('',#1423,39.3700787401575);
#413=VECTOR('',#1430,39.3700787401575);
#414=VECTOR('',#1433,39.3700787401575);
#415=VECTOR('',#1434,39.3700787401575);
#416=VECTOR('',#1435,39.3700787401575);
#417=VECTOR('',#1442,39.3700787401575);
#418=VECTOR('',#1445,39.3700787401575);
#419=VECTOR('',#1446,39.3700787401575);
#420=VECTOR('',#1453,39.3700787401575);
#421=VECTOR('',#1454,39.3700787401575);
#422=VECTOR('',#1455,39.3700787401575);
#423=VECTOR('',#1456,39.3700787401575);
#424=VECTOR('',#1459,39.3700787401575);
#425=VECTOR('',#1460,39.3700787401575);
#426=VECTOR('',#1461,39.3700787401575);
#427=VECTOR('',#1462,39.3700787401575);
#428=VECTOR('',#1463,39.3700787401575);
#429=VECTOR('',#1466,39.3700787401575);
#430=VECTOR('',#1467,39.3700787401575);
#431=VECTOR('',#1470,39.3700787401575);
#432=VECTOR('',#1471,39.3700787401575);
#433=VECTOR('',#1474,39.3700787401575);
#434=VECTOR('',#1475,39.3700787401575);
#435=VECTOR('',#1476,39.3700787401575);
#436=VECTOR('',#1477,39.3700787401575);
#437=VERTEX_POINT('',#1494);
#438=VERTEX_POINT('',#1495);
#439=VERTEX_POINT('',#1497);
#440=VERTEX_POINT('',#1499);
#441=VERTEX_POINT('',#1503);
#442=VERTEX_POINT('',#1505);
#443=VERTEX_POINT('',#1509);
#444=VERTEX_POINT('',#1511);
#445=VERTEX_POINT('',#1515);
#446=VERTEX_POINT('',#1517);
#447=VERTEX_POINT('',#1521);
#448=VERTEX_POINT('',#1523);
#449=VERTEX_POINT('',#1532);
#450=VERTEX_POINT('',#1533);
#451=VERTEX_POINT('',#1535);
#452=VERTEX_POINT('',#1537);
#453=VERTEX_POINT('',#1541);
#454=VERTEX_POINT('',#1543);
#455=VERTEX_POINT('',#1547);
#456=VERTEX_POINT('',#1549);
#457=VERTEX_POINT('',#1553);
#458=VERTEX_POINT('',#1555);
#459=VERTEX_POINT('',#1559);
#460=VERTEX_POINT('',#1561);
#461=VERTEX_POINT('',#1570);
#462=VERTEX_POINT('',#1571);
#463=VERTEX_POINT('',#1573);
#464=VERTEX_POINT('',#1575);
#465=VERTEX_POINT('',#1579);
#466=VERTEX_POINT('',#1581);
#467=VERTEX_POINT('',#1585);
#468=VERTEX_POINT('',#1587);
#469=VERTEX_POINT('',#1591);
#470=VERTEX_POINT('',#1593);
#471=VERTEX_POINT('',#1597);
#472=VERTEX_POINT('',#1599);
#473=VERTEX_POINT('',#1608);
#474=VERTEX_POINT('',#1609);
#475=VERTEX_POINT('',#1611);
#476=VERTEX_POINT('',#1613);
#477=VERTEX_POINT('',#1615);
#478=VERTEX_POINT('',#1617);
#479=VERTEX_POINT('',#1619);
#480=VERTEX_POINT('',#1621);
#481=VERTEX_POINT('',#1623);
#482=VERTEX_POINT('',#1625);
#483=VERTEX_POINT('',#1627);
#484=VERTEX_POINT('',#1629);
#485=VERTEX_POINT('',#1633);
#486=VERTEX_POINT('',#1635);
#487=VERTEX_POINT('',#1639);
#488=VERTEX_POINT('',#1641);
#489=VERTEX_POINT('',#1643);
#490=VERTEX_POINT('',#1645);
#491=VERTEX_POINT('',#1647);
#492=VERTEX_POINT('',#1649);
#493=VERTEX_POINT('',#1653);
#494=VERTEX_POINT('',#1655);
#495=VERTEX_POINT('',#1662);
#496=VERTEX_POINT('',#1664);
#497=VERTEX_POINT('',#1667);
#498=VERTEX_POINT('',#1669);
#499=VERTEX_POINT('',#1672);
#500=VERTEX_POINT('',#1674);
#501=VERTEX_POINT('',#1678);
#502=VERTEX_POINT('',#1682);
#503=VERTEX_POINT('',#1689);
#504=VERTEX_POINT('',#1693);
#505=VERTEX_POINT('',#1700);
#506=VERTEX_POINT('',#1704);
#507=VERTEX_POINT('',#1712);
#508=VERTEX_POINT('',#1713);
#509=VERTEX_POINT('',#1715);
#510=VERTEX_POINT('',#1717);
#511=VERTEX_POINT('',#1721);
#512=VERTEX_POINT('',#1723);
#513=VERTEX_POINT('',#1727);
#514=VERTEX_POINT('',#1729);
#515=VERTEX_POINT('',#1733);
#516=VERTEX_POINT('',#1735);
#517=VERTEX_POINT('',#1739);
#518=VERTEX_POINT('',#1741);
#519=VERTEX_POINT('',#1745);
#520=VERTEX_POINT('',#1747);
#521=VERTEX_POINT('',#1751);
#522=VERTEX_POINT('',#1753);
#523=VERTEX_POINT('',#1761);
#524=VERTEX_POINT('',#1762);
#525=VERTEX_POINT('',#1764);
#526=VERTEX_POINT('',#1766);
#527=VERTEX_POINT('',#1768);
#528=VERTEX_POINT('',#1772);
#529=VERTEX_POINT('',#1773);
#530=VERTEX_POINT('',#1775);
#531=VERTEX_POINT('',#1777);
#532=VERTEX_POINT('',#1782);
#533=VERTEX_POINT('',#1786);
#534=VERTEX_POINT('',#1790);
#535=VERTEX_POINT('',#1792);
#536=VERTEX_POINT('',#1794);
#537=EDGE_CURVE('',#437,#438,#177,.T.);
#538=EDGE_CURVE('',#439,#438,#178,.T.);
#539=EDGE_CURVE('',#440,#439,#179,.T.);
#540=EDGE_CURVE('',#440,#437,#180,.T.);
#541=EDGE_CURVE('',#438,#441,#181,.T.);
#542=EDGE_CURVE('',#442,#441,#182,.T.);
#543=EDGE_CURVE('',#439,#442,#183,.T.);
#544=EDGE_CURVE('',#441,#443,#24,.T.);
#545=EDGE_CURVE('',#444,#443,#184,.T.);
#546=EDGE_CURVE('',#442,#444,#25,.T.);
#547=EDGE_CURVE('',#443,#445,#185,.T.);
#548=EDGE_CURVE('',#446,#445,#186,.T.);
#549=EDGE_CURVE('',#444,#446,#187,.T.);
#550=EDGE_CURVE('',#445,#447,#188,.T.);
#551=EDGE_CURVE('',#448,#447,#189,.T.);
#552=EDGE_CURVE('',#446,#448,#190,.T.);
#553=EDGE_CURVE('',#447,#437,#191,.T.);
#554=EDGE_CURVE('',#448,#440,#192,.T.);
#555=EDGE_CURVE('',#449,#450,#193,.T.);
#556=EDGE_CURVE('',#451,#450,#194,.T.);
#557=EDGE_CURVE('',#452,#451,#195,.T.);
#558=EDGE_CURVE('',#452,#449,#196,.T.);
#559=EDGE_CURVE('',#450,#453,#197,.T.);
#560=EDGE_CURVE('',#454,#453,#198,.T.);
#561=EDGE_CURVE('',#451,#454,#199,.T.);
#562=EDGE_CURVE('',#453,#455,#200,.T.);
#563=EDGE_CURVE('',#456,#455,#201,.T.);
#564=EDGE_CURVE('',#454,#456,#202,.T.);
#565=EDGE_CURVE('',#455,#457,#26,.T.);
#566=EDGE_CURVE('',#458,#457,#203,.T.);
#567=EDGE_CURVE('',#456,#458,#27,.T.);
#568=EDGE_CURVE('',#457,#459,#204,.T.);
#569=EDGE_CURVE('',#460,#459,#205,.T.);
#570=EDGE_CURVE('',#458,#460,#206,.T.);
#571=EDGE_CURVE('',#459,#449,#207,.T.);
#572=EDGE_CURVE('',#460,#452,#208,.T.);
#573=EDGE_CURVE('',#461,#462,#209,.T.);
#574=EDGE_CURVE('',#463,#462,#210,.T.);
#575=EDGE_CURVE('',#464,#463,#211,.T.);
#576=EDGE_CURVE('',#464,#461,#212,.T.);
#577=EDGE_CURVE('',#462,#465,#213,.T.);
#578=EDGE_CURVE('',#466,#465,#214,.T.);
#579=EDGE_CURVE('',#463,#466,#215,.T.);
#580=EDGE_CURVE('',#465,#467,#216,.T.);
#581=EDGE_CURVE('',#468,#467,#217,.T.);
#582=EDGE_CURVE('',#466,#468,#218,.T.);
#583=EDGE_CURVE('',#467,#469,#28,.T.);
#584=EDGE_CURVE('',#470,#469,#219,.T.);
#585=EDGE_CURVE('',#468,#470,#29,.T.);
#586=EDGE_CURVE('',#469,#471,#220,.T.);
#587=EDGE_CURVE('',#472,#471,#221,.T.);
#588=EDGE_CURVE('',#470,#472,#222,.T.);
#589=EDGE_CURVE('',#471,#461,#223,.T.);
#590=EDGE_CURVE('',#472,#464,#224,.T.);
#591=EDGE_CURVE('',#473,#474,#225,.T.);
#592=EDGE_CURVE('',#473,#475,#226,.T.);
#593=EDGE_CURVE('',#475,#476,#227,.T.);
#594=EDGE_CURVE('',#477,#476,#228,.T.);
#595=EDGE_CURVE('',#478,#477,#229,.T.);
#596=EDGE_CURVE('',#478,#479,#230,.T.);
#597=EDGE_CURVE('',#479,#480,#231,.T.);
#598=EDGE_CURVE('',#481,#480,#232,.T.);
#599=EDGE_CURVE('',#482,#481,#233,.T.);
#600=EDGE_CURVE('',#482,#483,#234,.T.);
#601=EDGE_CURVE('',#483,#484,#235,.T.);
#602=EDGE_CURVE('',#474,#484,#236,.T.);
#603=EDGE_CURVE('',#474,#485,#237,.T.);
#604=EDGE_CURVE('',#484,#486,#238,.T.);
#605=EDGE_CURVE('',#485,#486,#239,.T.);
#606=EDGE_CURVE('',#485,#487,#240,.T.);
#607=EDGE_CURVE('',#486,#488,#241,.T.);
#608=EDGE_CURVE('',#489,#488,#242,.T.);
#609=EDGE_CURVE('',#490,#489,#243,.T.);
#610=EDGE_CURVE('',#490,#491,#244,.T.);
#611=EDGE_CURVE('',#491,#492,#245,.T.);
#612=EDGE_CURVE('',#487,#492,#246,.T.);
#613=EDGE_CURVE('',#493,#473,#247,.T.);
#614=EDGE_CURVE('',#493,#494,#248,.T.);
#615=EDGE_CURVE('',#494,#475,#249,.T.);
#616=EDGE_CURVE('',#487,#493,#30,.T.);
#617=EDGE_CURVE('',#492,#494,#31,.T.);
#618=EDGE_CURVE('',#495,#491,#250,.T.);
#619=EDGE_CURVE('',#496,#495,#251,.T.);
#620=EDGE_CURVE('',#488,#496,#252,.T.);
#621=EDGE_CURVE('',#497,#483,#253,.T.);
#622=EDGE_CURVE('',#498,#497,#254,.T.);
#623=EDGE_CURVE('',#480,#498,#255,.T.);
#624=EDGE_CURVE('',#499,#479,#256,.T.);
#625=EDGE_CURVE('',#500,#499,#257,.T.);
#626=EDGE_CURVE('',#476,#500,#258,.T.);
#627=EDGE_CURVE('',#501,#490,#259,.T.);
#628=EDGE_CURVE('',#501,#495,#260,.T.);
#629=EDGE_CURVE('',#502,#501,#261,.T.);
#630=EDGE_CURVE('',#502,#496,#262,.T.);
#631=EDGE_CURVE('',#489,#502,#263,.T.);
#632=EDGE_CURVE('',#503,#498,#264,.T.);
#633=EDGE_CURVE('',#481,#503,#265,.T.);
#634=EDGE_CURVE('',#504,#482,#266,.T.);
#635=EDGE_CURVE('',#504,#497,#267,.T.);
#636=EDGE_CURVE('',#503,#504,#268,.T.);
#637=EDGE_CURVE('',#505,#478,#269,.T.);
#638=EDGE_CURVE('',#505,#499,#270,.T.);
#639=EDGE_CURVE('',#506,#505,#271,.T.);
#640=EDGE_CURVE('',#506,#500,#272,.T.);
#641=EDGE_CURVE('',#477,#506,#273,.T.);
#642=EDGE_CURVE('',#507,#508,#32,.T.);
#643=EDGE_CURVE('',#507,#509,#274,.T.);
#644=EDGE_CURVE('',#509,#510,#33,.T.);
#645=EDGE_CURVE('',#508,#510,#275,.T.);
#646=EDGE_CURVE('',#508,#511,#276,.T.);
#647=EDGE_CURVE('',#510,#512,#277,.T.);
#648=EDGE_CURVE('',#511,#512,#278,.T.);
#649=EDGE_CURVE('',#511,#513,#34,.T.);
#650=EDGE_CURVE('',#512,#514,#35,.T.);
#651=EDGE_CURVE('',#513,#514,#279,.T.);
#652=EDGE_CURVE('',#513,#515,#280,.T.);
#653=EDGE_CURVE('',#514,#516,#281,.T.);
#654=EDGE_CURVE('',#515,#516,#282,.T.);
#655=EDGE_CURVE('',#515,#517,#36,.T.);
#656=EDGE_CURVE('',#516,#518,#37,.T.);
#657=EDGE_CURVE('',#517,#518,#283,.T.);
#658=EDGE_CURVE('',#517,#519,#284,.T.);
#659=EDGE_CURVE('',#518,#520,#285,.T.);
#660=EDGE_CURVE('',#519,#520,#286,.T.);
#661=EDGE_CURVE('',#519,#521,#38,.T.);
#662=EDGE_CURVE('',#520,#522,#39,.T.);
#663=EDGE_CURVE('',#521,#522,#287,.T.);
#664=EDGE_CURVE('',#521,#507,#288,.T.);
#665=EDGE_CURVE('',#522,#509,#289,.T.);
#666=EDGE_CURVE('',#523,#524,#40,.T.);
#667=EDGE_CURVE('',#523,#525,#290,.T.);
#668=EDGE_CURVE('',#525,#526,#291,.T.);
#669=EDGE_CURVE('',#526,#527,#292,.T.);
#670=EDGE_CURVE('',#527,#524,#293,.T.);
#671=EDGE_CURVE('',#528,#529,#294,.T.);
#672=EDGE_CURVE('',#528,#530,#295,.T.);
#673=EDGE_CURVE('',#531,#530,#296,.T.);
#674=EDGE_CURVE('',#524,#531,#297,.T.);
#675=EDGE_CURVE('',#529,#527,#298,.T.);
#676=EDGE_CURVE('',#529,#532,#299,.T.);
#677=EDGE_CURVE('',#532,#526,#300,.T.);
#678=EDGE_CURVE('',#532,#533,#301,.T.);
#679=EDGE_CURVE('',#533,#525,#302,.T.);
#680=EDGE_CURVE('',#533,#534,#303,.T.);
#681=EDGE_CURVE('',#523,#535,#304,.T.);
#682=EDGE_CURVE('',#536,#535,#305,.T.);
#683=EDGE_CURVE('',#534,#536,#306,.T.);
#684=EDGE_CURVE('',#534,#528,#41,.T.);
#685=EDGE_CURVE('',#530,#536,#42,.T.);
#686=EDGE_CURVE('',#535,#531,#43,.T.);
#687=ORIENTED_EDGE('',*,*,#537,.T.);
#688=ORIENTED_EDGE('',*,*,#538,.F.);
#689=ORIENTED_EDGE('',*,*,#539,.F.);
#690=ORIENTED_EDGE('',*,*,#540,.T.);
#691=ORIENTED_EDGE('',*,*,#541,.T.);
#692=ORIENTED_EDGE('',*,*,#542,.F.);
#693=ORIENTED_EDGE('',*,*,#543,.F.);
#694=ORIENTED_EDGE('',*,*,#538,.T.);
#695=ORIENTED_EDGE('',*,*,#544,.T.);
#696=ORIENTED_EDGE('',*,*,#545,.F.);
#697=ORIENTED_EDGE('',*,*,#546,.F.);
#698=ORIENTED_EDGE('',*,*,#542,.T.);
#699=ORIENTED_EDGE('',*,*,#547,.T.);
#700=ORIENTED_EDGE('',*,*,#548,.F.);
#701=ORIENTED_EDGE('',*,*,#549,.F.);
#702=ORIENTED_EDGE('',*,*,#545,.T.);
#703=ORIENTED_EDGE('',*,*,#550,.T.);
#704=ORIENTED_EDGE('',*,*,#551,.F.);
#705=ORIENTED_EDGE('',*,*,#552,.F.);
#706=ORIENTED_EDGE('',*,*,#548,.T.);
#707=ORIENTED_EDGE('',*,*,#553,.T.);
#708=ORIENTED_EDGE('',*,*,#540,.F.);
#709=ORIENTED_EDGE('',*,*,#554,.F.);
#710=ORIENTED_EDGE('',*,*,#551,.T.);
#711=ORIENTED_EDGE('',*,*,#539,.T.);
#712=ORIENTED_EDGE('',*,*,#543,.T.);
#713=ORIENTED_EDGE('',*,*,#546,.T.);
#714=ORIENTED_EDGE('',*,*,#549,.T.);
#715=ORIENTED_EDGE('',*,*,#552,.T.);
#716=ORIENTED_EDGE('',*,*,#554,.T.);
#717=ORIENTED_EDGE('',*,*,#537,.F.);
#718=ORIENTED_EDGE('',*,*,#553,.F.);
#719=ORIENTED_EDGE('',*,*,#550,.F.);
#720=ORIENTED_EDGE('',*,*,#547,.F.);
#721=ORIENTED_EDGE('',*,*,#544,.F.);
#722=ORIENTED_EDGE('',*,*,#541,.F.);
#723=ORIENTED_EDGE('',*,*,#555,.T.);
#724=ORIENTED_EDGE('',*,*,#556,.F.);
#725=ORIENTED_EDGE('',*,*,#557,.F.);
#726=ORIENTED_EDGE('',*,*,#558,.T.);
#727=ORIENTED_EDGE('',*,*,#559,.T.);
#728=ORIENTED_EDGE('',*,*,#560,.F.);
#729=ORIENTED_EDGE('',*,*,#561,.F.);
#730=ORIENTED_EDGE('',*,*,#556,.T.);
#731=ORIENTED_EDGE('',*,*,#562,.T.);
#732=ORIENTED_EDGE('',*,*,#563,.F.);
#733=ORIENTED_EDGE('',*,*,#564,.F.);
#734=ORIENTED_EDGE('',*,*,#560,.T.);
#735=ORIENTED_EDGE('',*,*,#565,.T.);
#736=ORIENTED_EDGE('',*,*,#566,.F.);
#737=ORIENTED_EDGE('',*,*,#567,.F.);
#738=ORIENTED_EDGE('',*,*,#563,.T.);
#739=ORIENTED_EDGE('',*,*,#568,.T.);
#740=ORIENTED_EDGE('',*,*,#569,.F.);
#741=ORIENTED_EDGE('',*,*,#570,.F.);
#742=ORIENTED_EDGE('',*,*,#566,.T.);
#743=ORIENTED_EDGE('',*,*,#571,.T.);
#744=ORIENTED_EDGE('',*,*,#558,.F.);
#745=ORIENTED_EDGE('',*,*,#572,.F.);
#746=ORIENTED_EDGE('',*,*,#569,.T.);
#747=ORIENTED_EDGE('',*,*,#557,.T.);
#748=ORIENTED_EDGE('',*,*,#561,.T.);
#749=ORIENTED_EDGE('',*,*,#564,.T.);
#750=ORIENTED_EDGE('',*,*,#567,.T.);
#751=ORIENTED_EDGE('',*,*,#570,.T.);
#752=ORIENTED_EDGE('',*,*,#572,.T.);
#753=ORIENTED_EDGE('',*,*,#555,.F.);
#754=ORIENTED_EDGE('',*,*,#571,.F.);
#755=ORIENTED_EDGE('',*,*,#568,.F.);
#756=ORIENTED_EDGE('',*,*,#565,.F.);
#757=ORIENTED_EDGE('',*,*,#562,.F.);
#758=ORIENTED_EDGE('',*,*,#559,.F.);
#759=ORIENTED_EDGE('',*,*,#573,.T.);
#760=ORIENTED_EDGE('',*,*,#574,.F.);
#761=ORIENTED_EDGE('',*,*,#575,.F.);
#762=ORIENTED_EDGE('',*,*,#576,.T.);
#763=ORIENTED_EDGE('',*,*,#577,.T.);
#764=ORIENTED_EDGE('',*,*,#578,.F.);
#765=ORIENTED_EDGE('',*,*,#579,.F.);
#766=ORIENTED_EDGE('',*,*,#574,.T.);
#767=ORIENTED_EDGE('',*,*,#580,.T.);
#768=ORIENTED_EDGE('',*,*,#581,.F.);
#769=ORIENTED_EDGE('',*,*,#582,.F.);
#770=ORIENTED_EDGE('',*,*,#578,.T.);
#771=ORIENTED_EDGE('',*,*,#583,.T.);
#772=ORIENTED_EDGE('',*,*,#584,.F.);
#773=ORIENTED_EDGE('',*,*,#585,.F.);
#774=ORIENTED_EDGE('',*,*,#581,.T.);
#775=ORIENTED_EDGE('',*,*,#586,.T.);
#776=ORIENTED_EDGE('',*,*,#587,.F.);
#777=ORIENTED_EDGE('',*,*,#588,.F.);
#778=ORIENTED_EDGE('',*,*,#584,.T.);
#779=ORIENTED_EDGE('',*,*,#589,.T.);
#780=ORIENTED_EDGE('',*,*,#576,.F.);
#781=ORIENTED_EDGE('',*,*,#590,.F.);
#782=ORIENTED_EDGE('',*,*,#587,.T.);
#783=ORIENTED_EDGE('',*,*,#575,.T.);
#784=ORIENTED_EDGE('',*,*,#579,.T.);
#785=ORIENTED_EDGE('',*,*,#582,.T.);
#786=ORIENTED_EDGE('',*,*,#585,.T.);
#787=ORIENTED_EDGE('',*,*,#588,.T.);
#788=ORIENTED_EDGE('',*,*,#590,.T.);
#789=ORIENTED_EDGE('',*,*,#573,.F.);
#790=ORIENTED_EDGE('',*,*,#589,.F.);
#791=ORIENTED_EDGE('',*,*,#586,.F.);
#792=ORIENTED_EDGE('',*,*,#583,.F.);
#793=ORIENTED_EDGE('',*,*,#580,.F.);
#794=ORIENTED_EDGE('',*,*,#577,.F.);
#795=ORIENTED_EDGE('',*,*,#591,.F.);
#796=ORIENTED_EDGE('',*,*,#592,.T.);
#797=ORIENTED_EDGE('',*,*,#593,.T.);
#798=ORIENTED_EDGE('',*,*,#594,.F.);
#799=ORIENTED_EDGE('',*,*,#595,.F.);
#800=ORIENTED_EDGE('',*,*,#596,.T.);
#801=ORIENTED_EDGE('',*,*,#597,.T.);
#802=ORIENTED_EDGE('',*,*,#598,.F.);
#803=ORIENTED_EDGE('',*,*,#599,.F.);
#804=ORIENTED_EDGE('',*,*,#600,.T.);
#805=ORIENTED_EDGE('',*,*,#601,.T.);
#806=ORIENTED_EDGE('',*,*,#602,.F.);
#807=ORIENTED_EDGE('',*,*,#603,.F.);
#808=ORIENTED_EDGE('',*,*,#602,.T.);
#809=ORIENTED_EDGE('',*,*,#604,.T.);
#810=ORIENTED_EDGE('',*,*,#605,.F.);
#811=ORIENTED_EDGE('',*,*,#606,.F.);
#812=ORIENTED_EDGE('',*,*,#605,.T.);
#813=ORIENTED_EDGE('',*,*,#607,.T.);
#814=ORIENTED_EDGE('',*,*,#608,.F.);
#815=ORIENTED_EDGE('',*,*,#609,.F.);
#816=ORIENTED_EDGE('',*,*,#610,.T.);
#817=ORIENTED_EDGE('',*,*,#611,.T.);
#818=ORIENTED_EDGE('',*,*,#612,.F.);
#819=ORIENTED_EDGE('',*,*,#613,.F.);
#820=ORIENTED_EDGE('',*,*,#614,.T.);
#821=ORIENTED_EDGE('',*,*,#615,.T.);
#822=ORIENTED_EDGE('',*,*,#592,.F.);
#823=ORIENTED_EDGE('',*,*,#616,.F.);
#824=ORIENTED_EDGE('',*,*,#612,.T.);
#825=ORIENTED_EDGE('',*,*,#617,.T.);
#826=ORIENTED_EDGE('',*,*,#614,.F.);
#827=ORIENTED_EDGE('',*,*,#617,.F.);
#828=ORIENTED_EDGE('',*,*,#611,.F.);
#829=ORIENTED_EDGE('',*,*,#618,.F.);
#830=ORIENTED_EDGE('',*,*,#619,.F.);
#831=ORIENTED_EDGE('',*,*,#620,.F.);
#832=ORIENTED_EDGE('',*,*,#607,.F.);
#833=ORIENTED_EDGE('',*,*,#604,.F.);
#834=ORIENTED_EDGE('',*,*,#601,.F.);
#835=ORIENTED_EDGE('',*,*,#621,.F.);
#836=ORIENTED_EDGE('',*,*,#622,.F.);
#837=ORIENTED_EDGE('',*,*,#623,.F.);
#838=ORIENTED_EDGE('',*,*,#597,.F.);
#839=ORIENTED_EDGE('',*,*,#624,.F.);
#840=ORIENTED_EDGE('',*,*,#625,.F.);
#841=ORIENTED_EDGE('',*,*,#626,.F.);
#842=ORIENTED_EDGE('',*,*,#593,.F.);
#843=ORIENTED_EDGE('',*,*,#615,.F.);
#844=ORIENTED_EDGE('',*,*,#618,.T.);
#845=ORIENTED_EDGE('',*,*,#610,.F.);
#846=ORIENTED_EDGE('',*,*,#627,.F.);
#847=ORIENTED_EDGE('',*,*,#628,.T.);
#848=ORIENTED_EDGE('',*,*,#619,.T.);
#849=ORIENTED_EDGE('',*,*,#628,.F.);
#850=ORIENTED_EDGE('',*,*,#629,.F.);
#851=ORIENTED_EDGE('',*,*,#630,.T.);
#852=ORIENTED_EDGE('',*,*,#620,.T.);
#853=ORIENTED_EDGE('',*,*,#630,.F.);
#854=ORIENTED_EDGE('',*,*,#631,.F.);
#855=ORIENTED_EDGE('',*,*,#608,.T.);
#856=ORIENTED_EDGE('',*,*,#609,.T.);
#857=ORIENTED_EDGE('',*,*,#631,.T.);
#858=ORIENTED_EDGE('',*,*,#629,.T.);
#859=ORIENTED_EDGE('',*,*,#627,.T.);
#860=ORIENTED_EDGE('',*,*,#623,.T.);
#861=ORIENTED_EDGE('',*,*,#632,.F.);
#862=ORIENTED_EDGE('',*,*,#633,.F.);
#863=ORIENTED_EDGE('',*,*,#598,.T.);
#864=ORIENTED_EDGE('',*,*,#621,.T.);
#865=ORIENTED_EDGE('',*,*,#600,.F.);
#866=ORIENTED_EDGE('',*,*,#634,.F.);
#867=ORIENTED_EDGE('',*,*,#635,.T.);
#868=ORIENTED_EDGE('',*,*,#622,.T.);
#869=ORIENTED_EDGE('',*,*,#635,.F.);
#870=ORIENTED_EDGE('',*,*,#636,.F.);
#871=ORIENTED_EDGE('',*,*,#632,.T.);
#872=ORIENTED_EDGE('',*,*,#633,.T.);
#873=ORIENTED_EDGE('',*,*,#636,.T.);
#874=ORIENTED_EDGE('',*,*,#634,.T.);
#875=ORIENTED_EDGE('',*,*,#599,.T.);
#876=ORIENTED_EDGE('',*,*,#624,.T.);
#877=ORIENTED_EDGE('',*,*,#596,.F.);
#878=ORIENTED_EDGE('',*,*,#637,.F.);
#879=ORIENTED_EDGE('',*,*,#638,.T.);
#880=ORIENTED_EDGE('',*,*,#625,.T.);
#881=ORIENTED_EDGE('',*,*,#638,.F.);
#882=ORIENTED_EDGE('',*,*,#639,.F.);
#883=ORIENTED_EDGE('',*,*,#640,.T.);
#884=ORIENTED_EDGE('',*,*,#626,.T.);
#885=ORIENTED_EDGE('',*,*,#640,.F.);
#886=ORIENTED_EDGE('',*,*,#641,.F.);
#887=ORIENTED_EDGE('',*,*,#594,.T.);
#888=ORIENTED_EDGE('',*,*,#595,.T.);
#889=ORIENTED_EDGE('',*,*,#641,.T.);
#890=ORIENTED_EDGE('',*,*,#639,.T.);
#891=ORIENTED_EDGE('',*,*,#637,.T.);
#892=ORIENTED_EDGE('',*,*,#616,.T.);
#893=ORIENTED_EDGE('',*,*,#613,.T.);
#894=ORIENTED_EDGE('',*,*,#591,.T.);
#895=ORIENTED_EDGE('',*,*,#603,.T.);
#896=ORIENTED_EDGE('',*,*,#606,.T.);
#897=ORIENTED_EDGE('',*,*,#642,.F.);
#898=ORIENTED_EDGE('',*,*,#643,.T.);
#899=ORIENTED_EDGE('',*,*,#644,.T.);
#900=ORIENTED_EDGE('',*,*,#645,.F.);
#901=ORIENTED_EDGE('',*,*,#646,.F.);
#902=ORIENTED_EDGE('',*,*,#645,.T.);
#903=ORIENTED_EDGE('',*,*,#647,.T.);
#904=ORIENTED_EDGE('',*,*,#648,.F.);
#905=ORIENTED_EDGE('',*,*,#649,.F.);
#906=ORIENTED_EDGE('',*,*,#648,.T.);
#907=ORIENTED_EDGE('',*,*,#650,.T.);
#908=ORIENTED_EDGE('',*,*,#651,.F.);
#909=ORIENTED_EDGE('',*,*,#652,.F.);
#910=ORIENTED_EDGE('',*,*,#651,.T.);
#911=ORIENTED_EDGE('',*,*,#653,.T.);
#912=ORIENTED_EDGE('',*,*,#654,.F.);
#913=ORIENTED_EDGE('',*,*,#655,.F.);
#914=ORIENTED_EDGE('',*,*,#654,.T.);
#915=ORIENTED_EDGE('',*,*,#656,.T.);
#916=ORIENTED_EDGE('',*,*,#657,.F.);
#917=ORIENTED_EDGE('',*,*,#658,.F.);
#918=ORIENTED_EDGE('',*,*,#657,.T.);
#919=ORIENTED_EDGE('',*,*,#659,.T.);
#920=ORIENTED_EDGE('',*,*,#660,.F.);
#921=ORIENTED_EDGE('',*,*,#661,.F.);
#922=ORIENTED_EDGE('',*,*,#660,.T.);
#923=ORIENTED_EDGE('',*,*,#662,.T.);
#924=ORIENTED_EDGE('',*,*,#663,.F.);
#925=ORIENTED_EDGE('',*,*,#664,.F.);
#926=ORIENTED_EDGE('',*,*,#663,.T.);
#927=ORIENTED_EDGE('',*,*,#665,.T.);
#928=ORIENTED_EDGE('',*,*,#643,.F.);
#929=ORIENTED_EDGE('',*,*,#664,.T.);
#930=ORIENTED_EDGE('',*,*,#642,.T.);
#931=ORIENTED_EDGE('',*,*,#646,.T.);
#932=ORIENTED_EDGE('',*,*,#649,.T.);
#933=ORIENTED_EDGE('',*,*,#652,.T.);
#934=ORIENTED_EDGE('',*,*,#655,.T.);
#935=ORIENTED_EDGE('',*,*,#658,.T.);
#936=ORIENTED_EDGE('',*,*,#661,.T.);
#937=ORIENTED_EDGE('',*,*,#666,.F.);
#938=ORIENTED_EDGE('',*,*,#667,.T.);
#939=ORIENTED_EDGE('',*,*,#668,.T.);
#940=ORIENTED_EDGE('',*,*,#669,.T.);
#941=ORIENTED_EDGE('',*,*,#670,.T.);
#942=ORIENTED_EDGE('',*,*,#662,.F.);
#943=ORIENTED_EDGE('',*,*,#659,.F.);
#944=ORIENTED_EDGE('',*,*,#656,.F.);
#945=ORIENTED_EDGE('',*,*,#653,.F.);
#946=ORIENTED_EDGE('',*,*,#650,.F.);
#947=ORIENTED_EDGE('',*,*,#647,.F.);
#948=ORIENTED_EDGE('',*,*,#644,.F.);
#949=ORIENTED_EDGE('',*,*,#665,.F.);
#950=ORIENTED_EDGE('',*,*,#671,.F.);
#951=ORIENTED_EDGE('',*,*,#672,.T.);
#952=ORIENTED_EDGE('',*,*,#673,.F.);
#953=ORIENTED_EDGE('',*,*,#674,.F.);
#954=ORIENTED_EDGE('',*,*,#670,.F.);
#955=ORIENTED_EDGE('',*,*,#675,.F.);
#956=ORIENTED_EDGE('',*,*,#676,.F.);
#957=ORIENTED_EDGE('',*,*,#675,.T.);
#958=ORIENTED_EDGE('',*,*,#669,.F.);
#959=ORIENTED_EDGE('',*,*,#677,.F.);
#960=ORIENTED_EDGE('',*,*,#678,.F.);
#961=ORIENTED_EDGE('',*,*,#677,.T.);
#962=ORIENTED_EDGE('',*,*,#668,.F.);
#963=ORIENTED_EDGE('',*,*,#679,.F.);
#964=ORIENTED_EDGE('',*,*,#680,.F.);
#965=ORIENTED_EDGE('',*,*,#679,.T.);
#966=ORIENTED_EDGE('',*,*,#667,.F.);
#967=ORIENTED_EDGE('',*,*,#681,.T.);
#968=ORIENTED_EDGE('',*,*,#682,.F.);
#969=ORIENTED_EDGE('',*,*,#683,.F.);
#970=ORIENTED_EDGE('',*,*,#684,.T.);
#971=ORIENTED_EDGE('',*,*,#671,.T.);
#972=ORIENTED_EDGE('',*,*,#676,.T.);
#973=ORIENTED_EDGE('',*,*,#678,.T.);
#974=ORIENTED_EDGE('',*,*,#680,.T.);
#975=ORIENTED_EDGE('',*,*,#684,.F.);
#976=ORIENTED_EDGE('',*,*,#683,.T.);
#977=ORIENTED_EDGE('',*,*,#685,.F.);
#978=ORIENTED_EDGE('',*,*,#672,.F.);
#979=ORIENTED_EDGE('',*,*,#686,.T.);
#980=ORIENTED_EDGE('',*,*,#673,.T.);
#981=ORIENTED_EDGE('',*,*,#685,.T.);
#982=ORIENTED_EDGE('',*,*,#682,.T.);
#983=ORIENTED_EDGE('',*,*,#681,.F.);
#984=ORIENTED_EDGE('',*,*,#666,.T.);
#985=ORIENTED_EDGE('',*,*,#674,.T.);
#986=ORIENTED_EDGE('',*,*,#686,.F.);
#987=PLANE('',#1117);
#988=PLANE('',#1118);
#989=PLANE('',#1122);
#990=PLANE('',#1123);
#991=PLANE('',#1124);
#992=PLANE('',#1125);
#993=PLANE('',#1126);
#994=PLANE('',#1127);
#995=PLANE('',#1128);
#996=PLANE('',#1129);
#997=PLANE('',#1133);
#998=PLANE('',#1134);
#999=PLANE('',#1135);
#1000=PLANE('',#1136);
#1001=PLANE('',#1137);
#1002=PLANE('',#1138);
#1003=PLANE('',#1139);
#1004=PLANE('',#1143);
#1005=PLANE('',#1144);
#1006=PLANE('',#1145);
#1007=PLANE('',#1146);
#1008=PLANE('',#1147);
#1009=PLANE('',#1148);
#1010=PLANE('',#1149);
#1011=PLANE('',#1150);
#1012=PLANE('',#1154);
#1013=PLANE('',#1155);
#1014=PLANE('',#1156);
#1015=PLANE('',#1157);
#1016=PLANE('',#1158);
#1017=PLANE('',#1159);
#1018=PLANE('',#1160);
#1019=PLANE('',#1161);
#1020=PLANE('',#1162);
#1021=PLANE('',#1163);
#1022=PLANE('',#1164);
#1023=PLANE('',#1165);
#1024=PLANE('',#1166);
#1025=PLANE('',#1167);
#1026=PLANE('',#1171);
#1027=PLANE('',#1175);
#1028=PLANE('',#1179);
#1029=PLANE('',#1183);
#1030=PLANE('',#1184);
#1031=PLANE('',#1185);
#1032=PLANE('',#1187);
#1033=PLANE('',#1188);
#1034=PLANE('',#1189);
#1035=PLANE('',#1190);
#1036=PLANE('',#1191);
#1037=PLANE('',#1195);
#1038=ADVANCED_FACE('',(#54),#987,.F.);
#1039=ADVANCED_FACE('',(#55),#988,.F.);
#1040=ADVANCED_FACE('',(#56),#44,.F.);
#1041=ADVANCED_FACE('',(#57),#989,.F.);
#1042=ADVANCED_FACE('',(#58),#990,.F.);
#1043=ADVANCED_FACE('',(#59),#991,.F.);
#1044=ADVANCED_FACE('',(#60),#992,.T.);
#1045=ADVANCED_FACE('',(#61),#993,.F.);
#1046=ADVANCED_FACE('',(#62),#994,.F.);
#1047=ADVANCED_FACE('',(#63),#995,.F.);
#1048=ADVANCED_FACE('',(#64),#996,.F.);
#1049=ADVANCED_FACE('',(#65),#45,.F.);
#1050=ADVANCED_FACE('',(#66),#997,.F.);
#1051=ADVANCED_FACE('',(#67),#998,.F.);
#1052=ADVANCED_FACE('',(#68),#999,.F.);
#1053=ADVANCED_FACE('',(#69),#1000,.T.);
#1054=ADVANCED_FACE('',(#70),#1001,.F.);
#1055=ADVANCED_FACE('',(#71),#1002,.F.);
#1056=ADVANCED_FACE('',(#72),#1003,.F.);
#1057=ADVANCED_FACE('',(#73),#46,.F.);
#1058=ADVANCED_FACE('',(#74),#1004,.F.);
#1059=ADVANCED_FACE('',(#75),#1005,.F.);
#1060=ADVANCED_FACE('',(#76),#1006,.T.);
#1061=ADVANCED_FACE('',(#77),#1007,.F.);
#1062=ADVANCED_FACE('',(#78),#1008,.F.);
#1063=ADVANCED_FACE('',(#79),#1009,.F.);
#1064=ADVANCED_FACE('',(#80),#1010,.F.);
#1065=ADVANCED_FACE('',(#81),#1011,.F.);
#1066=ADVANCED_FACE('',(#82),#47,.F.);
#1067=ADVANCED_FACE('',(#83),#1012,.T.);
#1068=ADVANCED_FACE('',(#84),#1013,.F.);
#1069=ADVANCED_FACE('',(#85),#1014,.F.);
#1070=ADVANCED_FACE('',(#86),#1015,.F.);
#1071=ADVANCED_FACE('',(#87),#1016,.T.);
#1072=ADVANCED_FACE('',(#88),#1017,.F.);
#1073=ADVANCED_FACE('',(#89),#1018,.F.);
#1074=ADVANCED_FACE('',(#90),#1019,.F.);
#1075=ADVANCED_FACE('',(#91),#1020,.F.);
#1076=ADVANCED_FACE('',(#92),#1021,.F.);
#1077=ADVANCED_FACE('',(#93),#1022,.F.);
#1078=ADVANCED_FACE('',(#94),#1023,.F.);
#1079=ADVANCED_FACE('',(#95),#1024,.F.);
#1080=ADVANCED_FACE('',(#96),#1025,.T.);
#1081=ADVANCED_FACE('',(#97),#48,.T.);
#1082=ADVANCED_FACE('',(#98),#1026,.F.);
#1083=ADVANCED_FACE('',(#99),#49,.T.);
#1084=ADVANCED_FACE('',(#100),#1027,.F.);
#1085=ADVANCED_FACE('',(#101),#50,.T.);
#1086=ADVANCED_FACE('',(#102),#1028,.F.);
#1087=ADVANCED_FACE('',(#103),#51,.T.);
#1088=ADVANCED_FACE('',(#104),#1029,.F.);
#1089=ADVANCED_FACE('',(#105),#1030,.T.);
#1090=ADVANCED_FACE('',(#106,#13),#1031,.T.);
#1091=ADVANCED_FACE('',(#107),#1032,.T.);
#1092=ADVANCED_FACE('',(#108),#1033,.T.);
#1093=ADVANCED_FACE('',(#109),#1034,.T.);
#1094=ADVANCED_FACE('',(#110),#1035,.T.);
#1095=ADVANCED_FACE('',(#111),#1036,.F.);
#1096=ADVANCED_FACE('',(#112),#52,.T.);
#1097=ADVANCED_FACE('',(#113),#1037,.T.);
#1098=ADVANCED_FACE('',(#114),#53,.F.);
#1099=CLOSED_SHELL('',(#1038,#1039,#1040,#1041,#1042,#1043,#1044,#1045));
#1100=CLOSED_SHELL('',(#1046,#1047,#1048,#1049,#1050,#1051,#1052,#1053));
#1101=CLOSED_SHELL('',(#1054,#1055,#1056,#1057,#1058,#1059,#1060,#1061));
#1102=CLOSED_SHELL('',(#1062,#1063,#1064,#1065,#1066,#1067,#1068,#1069,
#1070,#1071,#1072,#1073,#1074,#1075,#1076,#1077,#1078,#1079,#1080));
#1103=CLOSED_SHELL('',(#1081,#1082,#1083,#1084,#1085,#1086,#1087,#1088,
#1089,#1090,#1091,#1092,#1093,#1094,#1095,#1096,#1097,#1098));
#1104=DERIVED_UNIT_ELEMENT(#1106,1.);
#1105=DERIVED_UNIT_ELEMENT(#1811,-3.);
#1106=(
MASS_UNIT()
NAMED_UNIT(*)
SI_UNIT(.KILO.,.GRAM.)
);
#1107=DERIVED_UNIT((#1104,#1105));
#1108=MEASURE_REPRESENTATION_ITEM('density measure',
POSITIVE_RATIO_MEASURE(7850.),#1107);
#1109=PROPERTY_DEFINITION_REPRESENTATION(#1114,#1111);
#1110=PROPERTY_DEFINITION_REPRESENTATION(#1115,#1112);
#1111=REPRESENTATION('material name',(#1113),#1806);
#1112=REPRESENTATION('density',(#1108),#1806);
#1113=DESCRIPTIVE_REPRESENTATION_ITEM('Steel','Steel');
#1114=PROPERTY_DEFINITION('material property','material name',#1819);
#1115=PROPERTY_DEFINITION('material property','density of part',#1819);
#1116=AXIS2_PLACEMENT_3D('',#1492,#1198,#1199);
#1117=AXIS2_PLACEMENT_3D('',#1493,#1200,#1201);
#1118=AXIS2_PLACEMENT_3D('',#1502,#1206,#1207);
#1119=AXIS2_PLACEMENT_3D('',#1508,#1211,#1212);
#1120=AXIS2_PLACEMENT_3D('',#1510,#1213,#1214);
#1121=AXIS2_PLACEMENT_3D('',#1513,#1216,#1217);
#1122=AXIS2_PLACEMENT_3D('',#1514,#1218,#1219);
#1123=AXIS2_PLACEMENT_3D('',#1520,#1223,#1224);
#1124=AXIS2_PLACEMENT_3D('',#1526,#1228,#1229);
#1125=AXIS2_PLACEMENT_3D('',#1529,#1232,#1233);
#1126=AXIS2_PLACEMENT_3D('',#1530,#1234,#1235);
#1127=AXIS2_PLACEMENT_3D('',#1531,#1236,#1237);
#1128=AXIS2_PLACEMENT_3D('',#1540,#1242,#1243);
#1129=AXIS2_PLACEMENT_3D('',#1546,#1247,#1248);
#1130=AXIS2_PLACEMENT_3D('',#1552,#1252,#1253);
#1131=AXIS2_PLACEMENT_3D('',#1554,#1254,#1255);
#1132=AXIS2_PLACEMENT_3D('',#1557,#1257,#1258);
#1133=AXIS2_PLACEMENT_3D('',#1558,#1259,#1260);
#1134=AXIS2_PLACEMENT_3D('',#1564,#1264,#1265);
#1135=AXIS2_PLACEMENT_3D('',#1567,#1268,#1269);
#1136=AXIS2_PLACEMENT_3D('',#1568,#1270,#1271);
#1137=AXIS2_PLACEMENT_3D('',#1569,#1272,#1273);
#1138=AXIS2_PLACEMENT_3D('',#1578,#1278,#1279);
#1139=AXIS2_PLACEMENT_3D('',#1584,#1283,#1284);
#1140=AXIS2_PLACEMENT_3D('',#1590,#1288,#1289);
#1141=AXIS2_PLACEMENT_3D('',#1592,#1290,#1291);
#1142=AXIS2_PLACEMENT_3D('',#1595,#1293,#1294);
#1143=AXIS2_PLACEMENT_3D('',#1596,#1295,#1296);
#1144=AXIS2_PLACEMENT_3D('',#1602,#1300,#1301);
#1145=AXIS2_PLACEMENT_3D('',#1605,#1304,#1305);
#1146=AXIS2_PLACEMENT_3D('',#1606,#1306,#1307);
#1147=AXIS2_PLACEMENT_3D('',#1607,#1308,#1309);
#1148=AXIS2_PLACEMENT_3D('',#1632,#1322,#1323);
#1149=AXIS2_PLACEMENT_3D('',#1638,#1327,#1328);
#1150=AXIS2_PLACEMENT_3D('',#1652,#1336,#1337);
#1151=AXIS2_PLACEMENT_3D('',#1658,#1341,#1342);
#1152=AXIS2_PLACEMENT_3D('',#1659,#1343,#1344);
#1153=AXIS2_PLACEMENT_3D('',#1660,#1345,#1346);
#1154=AXIS2_PLACEMENT_3D('',#1661,#1347,#1348);
#1155=AXIS2_PLACEMENT_3D('',#1677,#1358,#1359);
#1156=AXIS2_PLACEMENT_3D('',#1681,#1362,#1363);
#1157=AXIS2_PLACEMENT_3D('',#1685,#1366,#1367);
#1158=AXIS2_PLACEMENT_3D('',#1687,#1369,#1370);
#1159=AXIS2_PLACEMENT_3D('',#1688,#1371,#1372);
#1160=AXIS2_PLACEMENT_3D('',#1692,#1375,#1376);
#1161=AXIS2_PLACEMENT_3D('',#1696,#1379,#1380);
#1162=AXIS2_PLACEMENT_3D('',#1698,#1382,#1383);
#1163=AXIS2_PLACEMENT_3D('',#1699,#1384,#1385);
#1164=AXIS2_PLACEMENT_3D('',#1703,#1388,#1389);
#1165=AXIS2_PLACEMENT_3D('',#1707,#1392,#1393);
#1166=AXIS2_PLACEMENT_3D('',#1709,#1395,#1396);
#1167=AXIS2_PLACEMENT_3D('',#1710,#1397,#1398);
#1168=AXIS2_PLACEMENT_3D('',#1711,#1399,#1400);
#1169=AXIS2_PLACEMENT_3D('',#1714,#1401,#1402);
#1170=AXIS2_PLACEMENT_3D('',#1718,#1404,#1405);
#1171=AXIS2_PLACEMENT_3D('',#1720,#1407,#1408);
#1172=AXIS2_PLACEMENT_3D('',#1726,#1412,#1413);
#1173=AXIS2_PLACEMENT_3D('',#1728,#1414,#1415);
#1174=AXIS2_PLACEMENT_3D('',#1730,#1416,#1417);
#1175=AXIS2_PLACEMENT_3D('',#1732,#1419,#1420);
#1176=AXIS2_PLACEMENT_3D('',#1738,#1424,#1425);
#1177=AXIS2_PLACEMENT_3D('',#1740,#1426,#1427);
#1178=AXIS2_PLACEMENT_3D('',#1742,#1428,#1429);
#1179=AXIS2_PLACEMENT_3D('',#1744,#1431,#1432);
#1180=AXIS2_PLACEMENT_3D('',#1750,#1436,#1437);
#1181=AXIS2_PLACEMENT_3D('',#1752,#1438,#1439);
#1182=AXIS2_PLACEMENT_3D('',#1754,#1440,#1441);
#1183=AXIS2_PLACEMENT_3D('',#1756,#1443,#1444);
#1184=AXIS2_PLACEMENT_3D('',#1759,#1447,#1448);
#1185=AXIS2_PLACEMENT_3D('',#1760,#1449,#1450);
#1186=AXIS2_PLACEMENT_3D('',#1763,#1451,#1452);
#1187=AXIS2_PLACEMENT_3D('',#1771,#1457,#1458);
#1188=AXIS2_PLACEMENT_3D('',#1781,#1464,#1465);
#1189=AXIS2_PLACEMENT_3D('',#1785,#1468,#1469);
#1190=AXIS2_PLACEMENT_3D('',#1789,#1472,#1473);
#1191=AXIS2_PLACEMENT_3D('',#1797,#1478,#1479);
#1192=AXIS2_PLACEMENT_3D('',#1798,#1480,#1481);
#1193=AXIS2_PLACEMENT_3D('',#1799,#1482,#1483);
#1194=AXIS2_PLACEMENT_3D('',#1800,#1484,#1485);
#1195=AXIS2_PLACEMENT_3D('',#1801,#1486,#1487);
#1196=AXIS2_PLACEMENT_3D('',#1802,#1488,#1489);
#1197=AXIS2_PLACEMENT_3D('',#1803,#1490,#1491);
#1198=DIRECTION('axis',(0.,0.,1.));
#1199=DIRECTION('refdir',(1.,0.,0.));
#1200=DIRECTION('center_axis',(0.,0.,1.));
#1201=DIRECTION('ref_axis',(1.,0.,0.));
#1202=DIRECTION('',(-1.,0.,0.));
#1203=DIRECTION('',(0.,-1.,0.));
#1204=DIRECTION('',(-1.,0.,0.));
#1205=DIRECTION('',(0.,-1.,0.));
#1206=DIRECTION('center_axis',(1.,0.,-4.26851249010042E-15));
#1207=DIRECTION('ref_axis',(-4.26851249010042E-15,0.,-1.));
#1208=DIRECTION('',(4.26851249010042E-15,0.,1.));
#1209=DIRECTION('',(0.,-1.,0.));
#1210=DIRECTION('',(4.26851249010042E-15,0.,1.));
#1211=DIRECTION('center_axis',(0.,-1.,0.));
#1212=DIRECTION('ref_axis',(0.,0.,-1.));
#1213=DIRECTION('center_axis',(0.,-1.,0.));
#1214=DIRECTION('ref_axis',(0.,0.,1.));
#1215=DIRECTION('',(0.,-1.,0.));
#1216=DIRECTION('center_axis',(0.,-1.,0.));
#1217=DIRECTION('ref_axis',(0.,0.,1.));
#1218=DIRECTION('center_axis',(1.,0.,4.2685124901004E-15));
#1219=DIRECTION('ref_axis',(4.2685124901004E-15,0.,-1.));
#1220=DIRECTION('',(-4.2685124901004E-15,0.,1.));
#1221=DIRECTION('',(0.,-1.,0.));
#1222=DIRECTION('',(-4.2685124901004E-15,0.,1.));
#1223=DIRECTION('center_axis',(0.,0.,-1.));
#1224=DIRECTION('ref_axis',(-1.,0.,0.));
#1225=DIRECTION('',(1.,0.,0.));
#1226=DIRECTION('',(0.,-1.,0.));
#1227=DIRECTION('',(1.,0.,0.));
#1228=DIRECTION('center_axis',(-1.,0.,0.));
#1229=DIRECTION('ref_axis',(0.,0.,1.));
#1230=DIRECTION('',(0.,0.,-1.));
#1231=DIRECTION('',(0.,0.,-1.));
#1232=DIRECTION('center_axis',(0.,1.,0.));
#1233=DIRECTION('ref_axis',(0.,0.,1.));
#1234=DIRECTION('center_axis',(0.,1.,0.));
#1235=DIRECTION('ref_axis',(0.,0.,1.));
#1236=DIRECTION('center_axis',(-1.,0.,0.));
#1237=DIRECTION('ref_axis',(0.,0.,1.));
#1238=DIRECTION('',(0.,0.,-1.));
#1239=DIRECTION('',(0.,-1.,0.));
#1240=DIRECTION('',(0.,0.,-1.));
#1241=DIRECTION('',(0.,-1.,0.));
#1242=DIRECTION('center_axis',(0.,0.,1.));
#1243=DIRECTION('ref_axis',(1.,0.,0.));
#1244=DIRECTION('',(-1.,0.,0.));
#1245=DIRECTION('',(0.,-1.,0.));
#1246=DIRECTION('',(-1.,0.,0.));
#1247=DIRECTION('center_axis',(1.,0.,-4.2685124901004E-15));
#1248=DIRECTION('ref_axis',(-4.2685124901004E-15,0.,-1.));
#1249=DIRECTION('',(4.2685124901004E-15,0.,1.));
#1250=DIRECTION('',(0.,-1.,0.));
#1251=DIRECTION('',(4.2685124901004E-15,0.,1.));
#1252=DIRECTION('center_axis',(0.,-1.,0.));
#1253=DIRECTION('ref_axis',(0.,0.,-1.));
#1254=DIRECTION('center_axis',(0.,-1.,0.));
#1255=DIRECTION('ref_axis',(0.,0.,-1.));
#1256=DIRECTION('',(0.,-1.,0.));
#1257=DIRECTION('center_axis',(0.,-1.,0.));
#1258=DIRECTION('ref_axis',(0.,0.,-1.));
#1259=DIRECTION('center_axis',(1.,0.,4.26851249010042E-15));
#1260=DIRECTION('ref_axis',(4.26851249010042E-15,0.,-1.));
#1261=DIRECTION('',(-4.26851249010042E-15,0.,1.));
#1262=DIRECTION('',(0.,-1.,0.));
#1263=DIRECTION('',(-4.26851249010042E-15,0.,1.));
#1264=DIRECTION('center_axis',(0.,0.,-1.));
#1265=DIRECTION('ref_axis',(-1.,0.,0.));
#1266=DIRECTION('',(1.,0.,0.));
#1267=DIRECTION('',(1.,0.,0.));
#1268=DIRECTION('center_axis',(0.,-1.,0.));
#1269=DIRECTION('ref_axis',(0.,0.,-1.));
#1270=DIRECTION('center_axis',(0.,-1.,0.));
#1271=DIRECTION('ref_axis',(0.,0.,-1.));
#1272=DIRECTION('center_axis',(1.,0.,2.13425624505021E-16));
#1273=DIRECTION('ref_axis',(2.13425624505021E-16,0.,-1.));
#1274=DIRECTION('',(-2.13425624505021E-16,0.,1.));
#1275=DIRECTION('',(0.,-1.,0.));
#1276=DIRECTION('',(-2.13425624505021E-16,0.,1.));
#1277=DIRECTION('',(0.,-1.,0.));
#1278=DIRECTION('center_axis',(0.,0.,-1.));
#1279=DIRECTION('ref_axis',(-1.,0.,0.));
#1280=DIRECTION('',(1.,0.,0.));
#1281=DIRECTION('',(0.,-1.,0.));
#1282=DIRECTION('',(1.,0.,0.));
#1283=DIRECTION('center_axis',(-1.,0.,0.));
#1284=DIRECTION('ref_axis',(0.,0.,1.));
#1285=DIRECTION('',(0.,0.,-1.));
#1286=DIRECTION('',(0.,-1.,0.));
#1287=DIRECTION('',(0.,0.,-1.));
#1288=DIRECTION('center_axis',(0.,-1.,0.));
#1289=DIRECTION('ref_axis',(0.,0.,-1.));
#1290=DIRECTION('center_axis',(0.,-1.,0.));
#1291=DIRECTION('ref_axis',(0.,0.,1.));
#1292=DIRECTION('',(0.,-1.,0.));
#1293=DIRECTION('center_axis',(0.,-1.,0.));
#1294=DIRECTION('ref_axis',(0.,0.,1.));
#1295=DIRECTION('center_axis',(-1.,0.,0.));
#1296=DIRECTION('ref_axis',(0.,0.,1.));
#1297=DIRECTION('',(0.,0.,-1.));
#1298=DIRECTION('',(0.,-1.,0.));
#1299=DIRECTION('',(0.,0.,-1.));
#1300=DIRECTION('center_axis',(0.,0.,1.));
#1301=DIRECTION('ref_axis',(1.,0.,0.));
#1302=DIRECTION('',(-1.,0.,0.));
#1303=DIRECTION('',(-1.,0.,0.));
#1304=DIRECTION('center_axis',(0.,1.,0.));
#1305=DIRECTION('ref_axis',(0.,0.,1.));
#1306=DIRECTION('center_axis',(0.,1.,0.));
#1307=DIRECTION('ref_axis',(0.,0.,1.));
#1308=DIRECTION('center_axis',(1.,0.,7.02635800839574E-17));
#1309=DIRECTION('ref_axis',(7.02635800839574E-17,0.,-1.));
#1310=DIRECTION('',(-7.02635800839574E-17,0.,1.));
#1311=DIRECTION('',(0.,-1.,0.));
#1312=DIRECTION('',(-7.02635800839574E-17,0.,1.));
#1313=DIRECTION('',(0.,-1.,0.));
#1314=DIRECTION('',(0.,0.,-1.));
#1315=DIRECTION('',(0.,-1.,0.));
#1316=DIRECTION('',(-7.02635800839574E-17,0.,1.));
#1317=DIRECTION('',(0.,-1.,0.));
#1318=DIRECTION('',(0.,0.,-1.));
#1319=DIRECTION('',(0.,-1.,0.));
#1320=DIRECTION('',(-7.02635800839574E-17,0.,1.));
#1321=DIRECTION('',(0.,-1.,0.));
#1322=DIRECTION('center_axis',(-8.8466580105708E-17,0.,-1.));
#1323=DIRECTION('ref_axis',(-1.,0.,8.8466580105708E-17));
#1324=DIRECTION('',(1.,0.,-8.8466580105708E-17));
#1325=DIRECTION('',(1.,0.,-8.8466580105708E-17));
#1326=DIRECTION('',(0.,-1.,0.));
#1327=DIRECTION('center_axis',(-1.,0.,-3.1185479379729E-16));
#1328=DIRECTION('ref_axis',(-3.1185479379729E-16,0.,1.));
#1329=DIRECTION('',(2.57397738096507E-16,0.,-1.));
#1330=DIRECTION('',(3.1185479379729E-16,0.,-1.));
#1331=DIRECTION('',(0.,-1.,0.));
#1332=DIRECTION('',(0.,0.,1.));
#1333=DIRECTION('',(0.,-1.,0.));
#1334=DIRECTION('',(3.1185479379729E-16,0.,-1.));
#1335=DIRECTION('',(0.,-1.,0.));
#1336=DIRECTION('center_axis',(3.03089644267485E-16,0.,1.));
#1337=DIRECTION('ref_axis',(1.,0.,-3.03089644267485E-16));
#1338=DIRECTION('',(-1.,0.,3.43772817994664E-16));
#1339=DIRECTION('',(0.,-1.,0.));
#1340=DIRECTION('',(-1.,0.,3.03089644267485E-16));
#1341=DIRECTION('center_axis',(0.,-1.,0.));
#1342=DIRECTION('ref_axis',(0.,0.,-1.));
#1343=DIRECTION('center_axis',(0.,-1.,0.));
#1344=DIRECTION('ref_axis',(0.,0.,1.));
#1345=DIRECTION('center_axis',(0.,-1.,0.));
#1346=DIRECTION('ref_axis',(0.,0.,-1.));
#1347=DIRECTION('center_axis',(0.,-1.,0.));
#1348=DIRECTION('ref_axis',(0.,0.,-1.));
#1349=DIRECTION('',(1.,0.,0.));
#1350=DIRECTION('',(2.13425624505021E-16,0.,-1.));
#1351=DIRECTION('',(-1.,0.,0.));
#1352=DIRECTION('',(-1.,0.,0.));
#1353=DIRECTION('',(0.,0.,1.));
#1354=DIRECTION('',(1.,0.,0.));
#1355=DIRECTION('',(-1.,0.,0.));
#1356=DIRECTION('',(0.,0.,1.));
#1357=DIRECTION('',(1.,0.,0.));
#1358=DIRECTION('center_axis',(0.,0.,-1.));
#1359=DIRECTION('ref_axis',(-1.,0.,0.));
#1360=DIRECTION('',(1.,0.,0.));
#1361=DIRECTION('',(0.,-1.,0.));
#1362=DIRECTION('center_axis',(-1.,0.,-2.13425624505021E-16));
#1363=DIRECTION('ref_axis',(-2.13425624505021E-16,0.,1.));
#1364=DIRECTION('',(2.13425624505021E-16,0.,-1.));
#1365=DIRECTION('',(0.,-1.,0.));
#1366=DIRECTION('center_axis',(0.,0.,1.));
#1367=DIRECTION('ref_axis',(1.,0.,0.));
#1368=DIRECTION('',(-1.,0.,0.));
#1369=DIRECTION('center_axis',(0.,-1.,0.));
#1370=DIRECTION('ref_axis',(0.,0.,-1.));
#1371=DIRECTION('center_axis',(0.,0.,-1.));
#1372=DIRECTION('ref_axis',(-1.,0.,0.));
#1373=DIRECTION('',(0.,-1.,0.));
#1374=DIRECTION('',(1.,0.,0.));
#1375=DIRECTION('center_axis',(0.,0.,1.));
#1376=DIRECTION('ref_axis',(1.,0.,0.));
#1377=DIRECTION('',(-1.,0.,0.));
#1378=DIRECTION('',(0.,-1.,0.));
#1379=DIRECTION('center_axis',(1.,0.,0.));
#1380=DIRECTION('ref_axis',(0.,0.,-1.));
#1381=DIRECTION('',(0.,0.,1.));
#1382=DIRECTION('center_axis',(0.,1.,0.));
#1383=DIRECTION('ref_axis',(0.,0.,1.));
#1384=DIRECTION('center_axis',(0.,0.,1.));
#1385=DIRECTION('ref_axis',(1.,0.,0.));
#1386=DIRECTION('',(-1.,0.,0.));
#1387=DIRECTION('',(0.,-1.,0.));
#1388=DIRECTION('center_axis',(1.,0.,0.));
#1389=DIRECTION('ref_axis',(0.,0.,-1.));
#1390=DIRECTION('',(0.,0.,1.));
#1391=DIRECTION('',(0.,-1.,0.));
#1392=DIRECTION('center_axis',(0.,0.,-1.));
#1393=DIRECTION('ref_axis',(-1.,0.,0.));
#1394=DIRECTION('',(1.,0.,0.));
#1395=DIRECTION('center_axis',(0.,1.,0.));
#1396=DIRECTION('ref_axis',(0.,0.,1.));
#1397=DIRECTION('center_axis',(0.,1.,0.));
#1398=DIRECTION('ref_axis',(0.,0.,1.));
#1399=DIRECTION('center_axis',(0.,-1.,0.));
#1400=DIRECTION('ref_axis',(0.,0.,-1.));
#1401=DIRECTION('center_axis',(0.,1.,0.));
#1402=DIRECTION('ref_axis',(0.,0.,1.));
#1403=DIRECTION('',(0.,-1.,0.));
#1404=DIRECTION('center_axis',(0.,1.,0.));
#1405=DIRECTION('ref_axis',(0.,0.,-1.));
#1406=DIRECTION('',(0.,-1.,0.));
#1407=DIRECTION('center_axis',(0.,0.,-1.));
#1408=DIRECTION('ref_axis',(-1.,0.,0.));
#1409=DIRECTION('',(1.,0.,0.));
#1410=DIRECTION('',(1.,0.,0.));
#1411=DIRECTION('',(0.,-1.,0.));
#1412=DIRECTION('center_axis',(0.,-1.,0.));
#1413=DIRECTION('ref_axis',(0.,0.,-1.));
#1414=DIRECTION('center_axis',(0.,1.,0.));
#1415=DIRECTION('ref_axis',(0.,0.,1.));
#1416=DIRECTION('center_axis',(0.,1.,0.));
#1417=DIRECTION('ref_axis',(0.,0.,1.));
#1418=DIRECTION('',(0.,-1.,0.));
#1419=DIRECTION('center_axis',(-1.,0.,-5.23743863816001E-17));
#1420=DIRECTION('ref_axis',(-5.23743863816001E-17,0.,1.));
#1421=DIRECTION('',(5.23743863816002E-17,0.,-1.));
#1422=DIRECTION('',(5.23743863816002E-17,0.,-1.));
#1423=DIRECTION('',(0.,-1.,0.));
#1424=DIRECTION('center_axis',(0.,-1.,0.));
#1425=DIRECTION('ref_axis',(0.,0.,-1.));
#1426=DIRECTION('center_axis',(0.,1.,0.));
#1427=DIRECTION('ref_axis',(0.,0.,1.));
#1428=DIRECTION('center_axis',(0.,1.,0.));
#1429=DIRECTION('ref_axis',(0.,0.,1.));
#1430=DIRECTION('',(0.,-1.,0.));
#1431=DIRECTION('center_axis',(-1.4110785091241E-16,0.,1.));
#1432=DIRECTION('ref_axis',(1.,0.,1.4110785091241E-16));
#1433=DIRECTION('',(-1.,0.,-1.4110785091241E-16));
#1434=DIRECTION('',(-1.,0.,-1.4110785091241E-16));
#1435=DIRECTION('',(0.,-1.,0.));
#1436=DIRECTION('center_axis',(0.,-1.,0.));
#1437=DIRECTION('ref_axis',(0.,0.,-1.));
#1438=DIRECTION('center_axis',(0.,1.,0.));
#1439=DIRECTION('ref_axis',(0.,0.,1.));
#1440=DIRECTION('center_axis',(0.,1.,0.));
#1441=DIRECTION('ref_axis',(0.,0.,-1.));
#1442=DIRECTION('',(0.,-1.,0.));
#1443=DIRECTION('center_axis',(1.,0.,0.));
#1444=DIRECTION('ref_axis',(0.,0.,-1.));
#1445=DIRECTION('',(0.,0.,1.));
#1446=DIRECTION('',(0.,0.,1.));
#1447=DIRECTION('center_axis',(0.,1.,0.));
#1448=DIRECTION('ref_axis',(0.,0.,1.));
#1449=DIRECTION('center_axis',(0.,1.,0.));
#1450=DIRECTION('ref_axis',(0.,0.,1.));
#1451=DIRECTION('center_axis',(0.,1.,0.));
#1452=DIRECTION('ref_axis',(0.,0.,1.));
#1453=DIRECTION('',(-1.,0.,3.43772817994664E-16));
#1454=DIRECTION('',(-7.02635800839574E-17,0.,1.));
#1455=DIRECTION('',(1.,0.,-8.8466580105708E-17));
#1456=DIRECTION('',(2.57397738096507E-16,0.,-1.));
#1457=DIRECTION('center_axis',(1.,0.,2.57397738096507E-16));
#1458=DIRECTION('ref_axis',(2.57397738096507E-16,0.,-1.));
#1459=DIRECTION('',(-2.57397738096507E-16,0.,1.));
#1460=DIRECTION('',(0.,-1.,0.));
#1461=DIRECTION('',(0.,0.,1.));
#1462=DIRECTION('',(0.,-1.,0.));
#1463=DIRECTION('',(0.,1.,0.));
#1464=DIRECTION('center_axis',(8.8466580105708E-17,0.,1.));
#1465=DIRECTION('ref_axis',(1.,0.,-8.8466580105708E-17));
#1466=DIRECTION('',(-1.,0.,8.8466580105708E-17));
#1467=DIRECTION('',(0.,1.,0.));
#1468=DIRECTION('center_axis',(-1.,0.,-7.02635800839574E-17));
#1469=DIRECTION('ref_axis',(-7.02635800839574E-17,0.,1.));
#1470=DIRECTION('',(7.02635800839574E-17,0.,-1.));
#1471=DIRECTION('',(0.,1.,0.));
#1472=DIRECTION('center_axis',(-3.43772817994664E-16,0.,-1.));
#1473=DIRECTION('ref_axis',(-1.,0.,3.43772817994664E-16));
#1474=DIRECTION('',(1.,0.,-3.43772817994664E-16));
#1475=DIRECTION('',(0.,-1.,0.));
#1476=DIRECTION('',(1.,0.,0.));
#1477=DIRECTION('',(0.,-1.,0.));
#1478=DIRECTION('center_axis',(0.,1.,0.));
#1479=DIRECTION('ref_axis',(0.,0.,1.));
#1480=DIRECTION('center_axis',(0.,1.,0.));
#1481=DIRECTION('ref_axis',(0.,0.,1.));
#1482=DIRECTION('center_axis',(0.,-1.,0.));
#1483=DIRECTION('ref_axis',(0.,0.,-1.));
#1484=DIRECTION('center_axis',(0.,-1.,0.));
#1485=DIRECTION('ref_axis',(0.,0.,-1.));
#1486=DIRECTION('center_axis',(0.,-1.,0.));
#1487=DIRECTION('ref_axis',(0.,0.,-1.));
#1488=DIRECTION('center_axis',(0.,1.,0.));
#1489=DIRECTION('ref_axis',(0.,0.,-1.));
#1490=DIRECTION('center_axis',(0.,-1.,0.));
#1491=DIRECTION('ref_axis',(0.,0.,-1.));
#1492=CARTESIAN_POINT('',(0.,0.,0.));
#1493=CARTESIAN_POINT('Origin',(-0.01825,0.035,0.0275));
#1494=CARTESIAN_POINT('',(-0.01825,0.,0.0275));
#1495=CARTESIAN_POINT('',(-0.04825,0.,0.0275));
#1496=CARTESIAN_POINT('',(-0.01825,0.,0.0275));
#1497=CARTESIAN_POINT('',(-0.04825,0.035,0.0275));
#1498=CARTESIAN_POINT('',(-0.04825,0.035,0.0275));
#1499=CARTESIAN_POINT('',(-0.01825,0.035,0.0275));
#1500=CARTESIAN_POINT('',(-0.01825,0.035,0.0275));
#1501=CARTESIAN_POINT('',(-0.01825,0.035,0.0275));
#1502=CARTESIAN_POINT('Origin',(-0.04825,0.035,0.0295));
#1503=CARTESIAN_POINT('',(-0.04825,0.,0.0295));
#1504=CARTESIAN_POINT('',(-0.04825,0.,0.0295));
#1505=CARTESIAN_POINT('',(-0.04825,0.035,0.0295));
#1506=CARTESIAN_POINT('',(-0.04825,0.035,0.0295));
#1507=CARTESIAN_POINT('',(-0.04825,0.035,0.0295));
#1508=CARTESIAN_POINT('Origin',(-0.04825,0.035,0.0375));
#1509=CARTESIAN_POINT('',(-0.04825,0.,0.0455));
#1510=CARTESIAN_POINT('Origin',(-0.04825,0.,0.0375));
#1511=CARTESIAN_POINT('',(-0.04825,0.035,0.0455));
#1512=CARTESIAN_POINT('',(-0.04825,0.035,0.0455));
#1513=CARTESIAN_POINT('Origin',(-0.04825,0.035,0.0375));
#1514=CARTESIAN_POINT('Origin',(-0.04825,0.035,0.0475));
#1515=CARTESIAN_POINT('',(-0.04825,0.,0.0475));
#1516=CARTESIAN_POINT('',(-0.04825,0.,0.0475));
#1517=CARTESIAN_POINT('',(-0.04825,0.035,0.0475));
#1518=CARTESIAN_POINT('',(-0.04825,0.035,0.0475));
#1519=CARTESIAN_POINT('',(-0.04825,0.035,0.0475));
#1520=CARTESIAN_POINT('Origin',(-0.04825,0.035,0.0475));
#1521=CARTESIAN_POINT('',(-0.01825,0.,0.0475));
#1522=CARTESIAN_POINT('',(-0.04825,0.,0.0475));
#1523=CARTESIAN_POINT('',(-0.01825,0.035,0.0475));
#1524=CARTESIAN_POINT('',(-0.01825,0.035,0.0475));
#1525=CARTESIAN_POINT('',(-0.04825,0.035,0.0475));
#1526=CARTESIAN_POINT('Origin',(-0.01825,0.035,0.0475));
#1527=CARTESIAN_POINT('',(-0.01825,0.,0.0475));
#1528=CARTESIAN_POINT('',(-0.01825,0.035,0.0475));
#1529=CARTESIAN_POINT('Origin',(-0.04825,0.035,0.0375));
#1530=CARTESIAN_POINT('Origin',(-0.04825,0.,0.0375));
#1531=CARTESIAN_POINT('Origin',(-0.01825,0.035,-0.0275));
#1532=CARTESIAN_POINT('',(-0.01825,0.,-0.0275));
#1533=CARTESIAN_POINT('',(-0.01825,0.,-0.0475));
#1534=CARTESIAN_POINT('',(-0.01825,0.,-0.0275));
#1535=CARTESIAN_POINT('',(-0.01825,0.035,-0.0475));
#1536=CARTESIAN_POINT('',(-0.01825,0.035,-0.0475));
#1537=CARTESIAN_POINT('',(-0.01825,0.035,-0.0275));
#1538=CARTESIAN_POINT('',(-0.01825,0.035,-0.0275));
#1539=CARTESIAN_POINT('',(-0.01825,0.035,-0.0275));
#1540=CARTESIAN_POINT('Origin',(-0.01825,0.035,-0.0475));
#1541=CARTESIAN_POINT('',(-0.04825,0.,-0.0475));
#1542=CARTESIAN_POINT('',(-0.01825,0.,-0.0475));
#1543=CARTESIAN_POINT('',(-0.04825,0.035,-0.0475));
#1544=CARTESIAN_POINT('',(-0.04825,0.035,-0.0475));
#1545=CARTESIAN_POINT('',(-0.01825,0.035,-0.0475));
#1546=CARTESIAN_POINT('Origin',(-0.04825,0.035,-0.0475));
#1547=CARTESIAN_POINT('',(-0.04825,0.,-0.0455));
#1548=CARTESIAN_POINT('',(-0.04825,0.,-0.0475));
#1549=CARTESIAN_POINT('',(-0.04825,0.035,-0.0455));
#1550=CARTESIAN_POINT('',(-0.04825,0.035,-0.0455));
#1551=CARTESIAN_POINT('',(-0.04825,0.035,-0.0475));
#1552=CARTESIAN_POINT('Origin',(-0.04825,0.035,-0.0375));
#1553=CARTESIAN_POINT('',(-0.04825,0.,-0.0295));
#1554=CARTESIAN_POINT('Origin',(-0.04825,0.,-0.0375));
#1555=CARTESIAN_POINT('',(-0.04825,0.035,-0.0295));
#1556=CARTESIAN_POINT('',(-0.04825,0.035,-0.0295));
#1557=CARTESIAN_POINT('Origin',(-0.04825,0.035,-0.0375));
#1558=CARTESIAN_POINT('Origin',(-0.04825,0.035,-0.0295));
#1559=CARTESIAN_POINT('',(-0.04825,0.,-0.0275));
#1560=CARTESIAN_POINT('',(-0.04825,0.,-0.0295));
#1561=CARTESIAN_POINT('',(-0.04825,0.035,-0.0275));
#1562=CARTESIAN_POINT('',(-0.04825,0.035,-0.0275));
#1563=CARTESIAN_POINT('',(-0.04825,0.035,-0.0295));
#1564=CARTESIAN_POINT('Origin',(-0.04825,0.035,-0.0275));
#1565=CARTESIAN_POINT('',(-0.04825,0.,-0.0275));
#1566=CARTESIAN_POINT('',(-0.04825,0.035,-0.0275));
#1567=CARTESIAN_POINT('Origin',(-0.04825,0.035,-0.0375));
#1568=CARTESIAN_POINT('Origin',(-0.04825,0.,-0.0375));
#1569=CARTESIAN_POINT('Origin',(0.01825,0.035,-0.01));
#1570=CARTESIAN_POINT('',(0.01825,0.,-0.01));
#1571=CARTESIAN_POINT('',(0.01825,0.,0.01));
#1572=CARTESIAN_POINT('',(0.01825,0.,-0.01));
#1573=CARTESIAN_POINT('',(0.01825,0.035,0.01));
#1574=CARTESIAN_POINT('',(0.01825,0.035,0.01));
#1575=CARTESIAN_POINT('',(0.01825,0.035,-0.01));
#1576=CARTESIAN_POINT('',(0.01825,0.035,-0.01));
#1577=CARTESIAN_POINT('',(0.01825,0.035,-0.01));
#1578=CARTESIAN_POINT('Origin',(0.01825,0.035,0.01));
#1579=CARTESIAN_POINT('',(0.04825,0.,0.01));
#1580=CARTESIAN_POINT('',(0.01825,0.,0.01));
#1581=CARTESIAN_POINT('',(0.04825,0.035,0.01));
#1582=CARTESIAN_POINT('',(0.04825,0.035,0.01));
#1583=CARTESIAN_POINT('',(0.01825,0.035,0.01));
#1584=CARTESIAN_POINT('Origin',(0.04825,0.035,0.01));
#1585=CARTESIAN_POINT('',(0.04825,0.,0.008));
#1586=CARTESIAN_POINT('',(0.04825,0.,0.01));
#1587=CARTESIAN_POINT('',(0.04825,0.035,0.008));
#1588=CARTESIAN_POINT('',(0.04825,0.035,0.008));
#1589=CARTESIAN_POINT('',(0.04825,0.035,0.01));
#1590=CARTESIAN_POINT('Origin',(0.04825,0.035,0.));
#1591=CARTESIAN_POINT('',(0.04825,0.,-0.008));
#1592=CARTESIAN_POINT('Origin',(0.04825,0.,0.));
#1593=CARTESIAN_POINT('',(0.04825,0.035,-0.008));
#1594=CARTESIAN_POINT('',(0.04825,0.035,-0.008));
#1595=CARTESIAN_POINT('Origin',(0.04825,0.035,0.));
#1596=CARTESIAN_POINT('Origin',(0.04825,0.035,-0.008));
#1597=CARTESIAN_POINT('',(0.04825,0.,-0.01));
#1598=CARTESIAN_POINT('',(0.04825,0.,-0.008));
#1599=CARTESIAN_POINT('',(0.04825,0.035,-0.01));
#1600=CARTESIAN_POINT('',(0.04825,0.035,-0.01));
#1601=CARTESIAN_POINT('',(0.04825,0.035,-0.008));
#1602=CARTESIAN_POINT('Origin',(0.04825,0.035,-0.01));
#1603=CARTESIAN_POINT('',(0.04825,0.,-0.01));
#1604=CARTESIAN_POINT('',(0.04825,0.035,-0.01));
#1605=CARTESIAN_POINT('Origin',(0.04825,0.035,0.));
#1606=CARTESIAN_POINT('Origin',(0.04825,0.,0.));
#1607=CARTESIAN_POINT('Origin',(-0.04825,0.211159595255982,0.06075));
#1608=CARTESIAN_POINT('',(-0.04825,0.0475,-0.06075));
#1609=CARTESIAN_POINT('',(-0.04825,0.0475,0.06075));
#1610=CARTESIAN_POINT('',(-0.04825,0.0475,-0.06075));
#1611=CARTESIAN_POINT('',(-0.04825,0.,-0.06075));
#1612=CARTESIAN_POINT('',(-0.04825,0.211159595255982,-0.06075));
#1613=CARTESIAN_POINT('',(-0.04825,0.,-0.0475));
#1614=CARTESIAN_POINT('',(-0.04825,0.,0.06075));
#1615=CARTESIAN_POINT('',(-0.04825,0.035,-0.0475));
#1616=CARTESIAN_POINT('',(-0.04825,0.035,-0.0475));
#1617=CARTESIAN_POINT('',(-0.04825,0.035,-0.0275));
#1618=CARTESIAN_POINT('',(-0.04825,0.035,-0.0275));
#1619=CARTESIAN_POINT('',(-0.04825,0.,-0.0275));
#1620=CARTESIAN_POINT('',(-0.04825,0.035,-0.0275));
#1621=CARTESIAN_POINT('',(-0.04825,0.,0.0275));
#1622=CARTESIAN_POINT('',(-0.04825,0.,0.06075));
#1623=CARTESIAN_POINT('',(-0.04825,0.035,0.0275));
#1624=CARTESIAN_POINT('',(-0.04825,0.035,0.0275));
#1625=CARTESIAN_POINT('',(-0.04825,0.035,0.0475));
#1626=CARTESIAN_POINT('',(-0.04825,0.035,0.0275));
#1627=CARTESIAN_POINT('',(-0.04825,0.,0.0475));
#1628=CARTESIAN_POINT('',(-0.04825,0.035,0.0475));
#1629=CARTESIAN_POINT('',(-0.04825,0.,0.06075));
#1630=CARTESIAN_POINT('',(-0.04825,0.,0.06075));
#1631=CARTESIAN_POINT('',(-0.04825,0.211159595255982,0.06075));
#1632=CARTESIAN_POINT('Origin',(-0.04825,0.211159595255982,0.06075));
#1633=CARTESIAN_POINT('',(0.04825,0.0475,0.06075));
#1634=CARTESIAN_POINT('',(-0.04825,0.0475,0.06075));
#1635=CARTESIAN_POINT('',(0.04825,0.,0.06075));
#1636=CARTESIAN_POINT('',(-0.04825,0.,0.06075));
#1637=CARTESIAN_POINT('',(0.04825,0.211159595255982,0.06075));
#1638=CARTESIAN_POINT('Origin',(0.04825,0.211159595255982,0.06075));
#1639=CARTESIAN_POINT('',(0.04825,0.0475,-0.03875));
#1640=CARTESIAN_POINT('',(0.04825,0.0475,0.06075));
#1641=CARTESIAN_POINT('',(0.04825,0.,0.01));
#1642=CARTESIAN_POINT('',(0.04825,0.,0.06075));
#1643=CARTESIAN_POINT('',(0.04825,0.035,0.01));
#1644=CARTESIAN_POINT('',(0.04825,0.035,0.01));
#1645=CARTESIAN_POINT('',(0.04825,0.035,-0.01));
#1646=CARTESIAN_POINT('',(0.04825,0.035,0.01));
#1647=CARTESIAN_POINT('',(0.04825,0.,-0.01));
#1648=CARTESIAN_POINT('',(0.04825,0.035,-0.01));
#1649=CARTESIAN_POINT('',(0.04825,0.,-0.03875));
#1650=CARTESIAN_POINT('',(0.04825,0.,0.06075));
#1651=CARTESIAN_POINT('',(0.04825,0.0796126983722081,-0.03875));
#1652=CARTESIAN_POINT('Origin',(-0.04825,0.211159595255982,-0.06075));
#1653=CARTESIAN_POINT('',(0.02625,0.0475,-0.06075));
#1654=CARTESIAN_POINT('',(0.02625,0.0475,-0.06075));
#1655=CARTESIAN_POINT('',(0.02625,0.,-0.06075));
#1656=CARTESIAN_POINT('',(0.02625,0.0796126983722081,-0.06075));
#1657=CARTESIAN_POINT('',(-0.04825,0.,-0.06075));
#1658=CARTESIAN_POINT('Origin',(0.04825,0.0796126983722081,-0.06075));
#1659=CARTESIAN_POINT('Origin',(0.04825,0.0475,-0.06075));
#1660=CARTESIAN_POINT('Origin',(0.04825,0.,-0.06075));
#1661=CARTESIAN_POINT('Origin',(0.04825,0.,-0.06075));
#1662=CARTESIAN_POINT('',(0.01825,0.,-0.01));
#1663=CARTESIAN_POINT('',(0.01825,0.,-0.01));
#1664=CARTESIAN_POINT('',(0.01825,0.,0.01));
#1665=CARTESIAN_POINT('',(0.01825,0.,0.01));
#1666=CARTESIAN_POINT('',(0.01825,0.,0.01));
#1667=CARTESIAN_POINT('',(-0.01825,0.,0.0475));
#1668=CARTESIAN_POINT('',(-0.01825,0.,0.0475));
#1669=CARTESIAN_POINT('',(-0.01825,0.,0.0275));
#1670=CARTESIAN_POINT('',(-0.01825,0.,0.0275));
#1671=CARTESIAN_POINT('',(-0.01825,0.,0.0275));
#1672=CARTESIAN_POINT('',(-0.01825,0.,-0.0275));
#1673=CARTESIAN_POINT('',(-0.01825,0.,-0.0275));
#1674=CARTESIAN_POINT('',(-0.01825,0.,-0.0475));
#1675=CARTESIAN_POINT('',(-0.01825,0.,-0.0275));
#1676=CARTESIAN_POINT('',(-0.01825,0.,-0.0475));
#1677=CARTESIAN_POINT('Origin',(0.01825,0.035,-0.01));
#1678=CARTESIAN_POINT('',(0.01825,0.035,-0.01));
#1679=CARTESIAN_POINT('',(0.01825,0.035,-0.01));
#1680=CARTESIAN_POINT('',(0.01825,0.035,-0.01));
#1681=CARTESIAN_POINT('Origin',(0.01825,0.035,0.01));
#1682=CARTESIAN_POINT('',(0.01825,0.035,0.01));
#1683=CARTESIAN_POINT('',(0.01825,0.035,0.01));
#1684=CARTESIAN_POINT('',(0.01825,0.035,0.01));
#1685=CARTESIAN_POINT('Origin',(0.01825,0.035,0.01));
#1686=CARTESIAN_POINT('',(0.01825,0.035,0.01));
#1687=CARTESIAN_POINT('Origin',(0.,0.035,0.));
#1688=CARTESIAN_POINT('Origin',(-0.01825,0.035,0.0275));
#1689=CARTESIAN_POINT('',(-0.01825,0.035,0.0275));
#1690=CARTESIAN_POINT('',(-0.01825,0.035,0.0275));
#1691=CARTESIAN_POINT('',(-0.01825,0.035,0.0275));
#1692=CARTESIAN_POINT('Origin',(-0.01825,0.035,0.0475));
#1693=CARTESIAN_POINT('',(-0.01825,0.035,0.0475));
#1694=CARTESIAN_POINT('',(-0.01825,0.035,0.0475));
#1695=CARTESIAN_POINT('',(-0.01825,0.035,0.0475));
#1696=CARTESIAN_POINT('Origin',(-0.01825,0.035,0.0275));
#1697=CARTESIAN_POINT('',(-0.01825,0.035,0.0275));
#1698=CARTESIAN_POINT('Origin',(0.,0.035,0.));
#1699=CARTESIAN_POINT('Origin',(-0.01825,0.035,-0.0275));
#1700=CARTESIAN_POINT('',(-0.01825,0.035,-0.0275));
#1701=CARTESIAN_POINT('',(-0.01825,0.035,-0.0275));
#1702=CARTESIAN_POINT('',(-0.01825,0.035,-0.0275));
#1703=CARTESIAN_POINT('Origin',(-0.01825,0.035,-0.0275));
#1704=CARTESIAN_POINT('',(-0.01825,0.035,-0.0475));
#1705=CARTESIAN_POINT('',(-0.01825,0.035,-0.0275));
#1706=CARTESIAN_POINT('',(-0.01825,0.035,-0.0475));
#1707=CARTESIAN_POINT('Origin',(-0.01825,0.035,-0.0475));
#1708=CARTESIAN_POINT('',(-0.01825,0.035,-0.0475));
#1709=CARTESIAN_POINT('Origin',(0.,0.035,0.));
#1710=CARTESIAN_POINT('Origin',(0.04825,0.0475,-0.06075));
#1711=CARTESIAN_POINT('Origin',(-0.03025,0.179929415394409,0.04075));
#1712=CARTESIAN_POINT('',(-0.03825,0.056,0.04075));
#1713=CARTESIAN_POINT('',(-0.03025,0.056,0.04875));
#1714=CARTESIAN_POINT('Origin',(-0.03025,0.056,0.04075));
#1715=CARTESIAN_POINT('',(-0.03825,0.0485,0.04075));
#1716=CARTESIAN_POINT('',(-0.03825,0.179929415394409,0.04075));
#1717=CARTESIAN_POINT('',(-0.03025,0.0485,0.04875));
#1718=CARTESIAN_POINT('Origin',(-0.03025,0.0485,0.04075));
#1719=CARTESIAN_POINT('',(-0.03025,0.179929415394409,0.04875));
#1720=CARTESIAN_POINT('Origin',(-0.03025,0.179929415394409,0.04875));
#1721=CARTESIAN_POINT('',(0.03025,0.056,0.04875));
#1722=CARTESIAN_POINT('',(-0.03025,0.056,0.04875));
#1723=CARTESIAN_POINT('',(0.03025,0.0485,0.04875));
#1724=CARTESIAN_POINT('',(-0.03025,0.0485,0.04875));
#1725=CARTESIAN_POINT('',(0.03025,0.179929415394409,0.04875));
#1726=CARTESIAN_POINT('Origin',(0.03025,0.179929415394409,0.04075));
#1727=CARTESIAN_POINT('',(0.03825,0.056,0.04075));
#1728=CARTESIAN_POINT('Origin',(0.03025,0.056,0.04075));
#1729=CARTESIAN_POINT('',(0.03825,0.0485,0.04075));
#1730=CARTESIAN_POINT('Origin',(0.03025,0.0485,0.04075));
#1731=CARTESIAN_POINT('',(0.03825,0.179929415394409,0.04075));
#1732=CARTESIAN_POINT('Origin',(0.03825,0.179929415394409,0.04075));
#1733=CARTESIAN_POINT('',(0.03825,0.056,-0.04075));
#1734=CARTESIAN_POINT('',(0.03825,0.056,0.04075));
#1735=CARTESIAN_POINT('',(0.03825,0.0485,-0.04075));
#1736=CARTESIAN_POINT('',(0.03825,0.0485,0.04075));
#1737=CARTESIAN_POINT('',(0.03825,0.179929415394409,-0.04075));
#1738=CARTESIAN_POINT('Origin',(0.03025,0.179929415394409,-0.04075));
#1739=CARTESIAN_POINT('',(0.03025,0.056,-0.04875));
#1740=CARTESIAN_POINT('Origin',(0.03025,0.056,-0.04075));
#1741=CARTESIAN_POINT('',(0.03025,0.0485,-0.04875));
#1742=CARTESIAN_POINT('Origin',(0.03025,0.0485,-0.04075));
#1743=CARTESIAN_POINT('',(0.03025,0.179929415394409,-0.04875));
#1744=CARTESIAN_POINT('Origin',(-0.03025,0.179929415394409,-0.04875));
#1745=CARTESIAN_POINT('',(-0.03025,0.056,-0.04875));
#1746=CARTESIAN_POINT('',(-0.03025,0.056,-0.04875));
#1747=CARTESIAN_POINT('',(-0.03025,0.0485,-0.04875));
#1748=CARTESIAN_POINT('',(-0.03025,0.0485,-0.04875));
#1749=CARTESIAN_POINT('',(-0.03025,0.179929415394409,-0.04875));
#1750=CARTESIAN_POINT('Origin',(-0.03025,0.179929415394409,-0.04075));
#1751=CARTESIAN_POINT('',(-0.03825,0.056,-0.04075));
#1752=CARTESIAN_POINT('Origin',(-0.03025,0.056,-0.04075));
#1753=CARTESIAN_POINT('',(-0.03825,0.0485,-0.04075));
#1754=CARTESIAN_POINT('Origin',(-0.03025,0.0485,-0.04075));
#1755=CARTESIAN_POINT('',(-0.03825,0.179929415394409,-0.04075));
#1756=CARTESIAN_POINT('Origin',(-0.03825,0.179929415394409,0.04075));
#1757=CARTESIAN_POINT('',(-0.03825,0.056,0.04075));
#1758=CARTESIAN_POINT('',(-0.03825,0.0485,0.04075));
#1759=CARTESIAN_POINT('Origin',(0.,0.056,0.));
#1760=CARTESIAN_POINT('Origin',(0.04825,0.0485,-0.06075));
#1761=CARTESIAN_POINT('',(0.03625,0.0485,-0.06075));
#1762=CARTESIAN_POINT('',(0.04825,0.0485,-0.04875));
#1763=CARTESIAN_POINT('Origin',(0.04825,0.0485,-0.06075));
#1764=CARTESIAN_POINT('',(-0.04825,0.0485,-0.06075));
#1765=CARTESIAN_POINT('',(0.02625,0.0485,-0.06075));
#1766=CARTESIAN_POINT('',(-0.04825,0.0485,0.06075));
#1767=CARTESIAN_POINT('',(-0.04825,0.0485,-0.06075));
#1768=CARTESIAN_POINT('',(0.04825,0.0485,0.06075));
#1769=CARTESIAN_POINT('',(-0.04825,0.0485,0.06075));
#1770=CARTESIAN_POINT('',(0.04825,0.0485,0.06075));
#1771=CARTESIAN_POINT('Origin',(0.04825,-0.107659595255982,0.06075));
#1772=CARTESIAN_POINT('',(0.04825,0.0475,-0.03875));
#1773=CARTESIAN_POINT('',(0.04825,0.0475,0.06075));
#1774=CARTESIAN_POINT('',(0.04825,0.0475,0.06075));
#1775=CARTESIAN_POINT('',(0.04825,0.,-0.03875));
#1776=CARTESIAN_POINT('',(0.04825,0.0796126983722081,-0.03875));
#1777=CARTESIAN_POINT('',(0.04825,0.,-0.04875));
#1778=CARTESIAN_POINT('',(0.04825,0.,-0.03875));
#1779=CARTESIAN_POINT('',(0.04825,0.0796126983722081,-0.04875));
#1780=CARTESIAN_POINT('',(0.04825,-0.107659595255982,0.06075));
#1781=CARTESIAN_POINT('Origin',(-0.04825,-0.107659595255982,0.06075));
#1782=CARTESIAN_POINT('',(-0.04825,0.0475,0.06075));
#1783=CARTESIAN_POINT('',(-0.04825,0.0475,0.06075));
#1784=CARTESIAN_POINT('',(-0.04825,-0.107659595255982,0.06075));
#1785=CARTESIAN_POINT('Origin',(-0.04825,-0.107659595255982,-0.06075));
#1786=CARTESIAN_POINT('',(-0.04825,0.0475,-0.06075));
#1787=CARTESIAN_POINT('',(-0.04825,0.0475,-0.06075));
#1788=CARTESIAN_POINT('',(-0.04825,-0.107659595255982,-0.06075));
#1789=CARTESIAN_POINT('Origin',(0.02625,-0.107659595255982,-0.06075));
#1790=CARTESIAN_POINT('',(0.02625,0.0475,-0.06075));
#1791=CARTESIAN_POINT('',(0.02625,0.0475,-0.06075));
#1792=CARTESIAN_POINT('',(0.03625,0.,-0.06075));
#1793=CARTESIAN_POINT('',(0.03625,0.0796126983722081,-0.06075));
#1794=CARTESIAN_POINT('',(0.02625,0.,-0.06075));
#1795=CARTESIAN_POINT('',(0.02625,0.,-0.06075));
#1796=CARTESIAN_POINT('',(0.02625,0.0796126983722081,-0.06075));
#1797=CARTESIAN_POINT('Origin',(0.04825,0.0475,-0.06075));
#1798=CARTESIAN_POINT('Origin',(0.04825,0.0475,-0.06075));
#1799=CARTESIAN_POINT('Origin',(0.04825,0.0796126983722081,-0.06075));
#1800=CARTESIAN_POINT('Origin',(0.04825,0.,-0.06075));
#1801=CARTESIAN_POINT('Origin',(0.04825,0.,-0.06075));
#1802=CARTESIAN_POINT('Origin',(0.04825,0.,-0.06075));
#1803=CARTESIAN_POINT('Origin',(0.04825,0.0796126983722081,-0.06075));
#1804=UNCERTAINTY_MEASURE_WITH_UNIT(LENGTH_MEASURE(0.000393700787401575),
#1809,'DISTANCE_ACCURACY_VALUE',
'Maximum model space distance between geometric entities at asserted c
onnectivities');
#1805=UNCERTAINTY_MEASURE_WITH_UNIT(LENGTH_MEASURE(0.000393700787401575),
#1809,'DISTANCE_ACCURACY_VALUE',
'Maximum model space distance between geometric entities at asserted c
onnectivities');
#1806=(
GEOMETRIC_REPRESENTATION_CONTEXT(3)
GLOBAL_UNCERTAINTY_ASSIGNED_CONTEXT((#1804))
GLOBAL_UNIT_ASSIGNED_CONTEXT((#1809,#1813,#1814))
REPRESENTATION_CONTEXT('','3D')
);
#1807=(
GEOMETRIC_REPRESENTATION_CONTEXT(3)
GLOBAL_UNCERTAINTY_ASSIGNED_CONTEXT((#1805))
GLOBAL_UNIT_ASSIGNED_CONTEXT((#1809,#1813,#1814))
REPRESENTATION_CONTEXT('','3D')
);
#1808=DIMENSIONAL_EXPONENTS(1.,0.,0.,0.,0.,0.,0.);
#1809=(
CONVERSION_BASED_UNIT('inch',#1812)
LENGTH_UNIT()
NAMED_UNIT(#1808)
);
#1810=(
LENGTH_UNIT()
NAMED_UNIT(*)
SI_UNIT(.MILLI.,.METRE.)
);
#1811=(
LENGTH_UNIT()
NAMED_UNIT(*)
SI_UNIT($,.METRE.)
);
#1812=LENGTH_MEASURE_WITH_UNIT(LENGTH_MEASURE(25.4),#1810);
#1813=(
NAMED_UNIT(*)
PLANE_ANGLE_UNIT()
SI_UNIT($,.RADIAN.)
);
#1814=(
NAMED_UNIT(*)
SI_UNIT($,.STERADIAN.)
SOLID_ANGLE_UNIT()
);
#1815=SHAPE_DEFINITION_REPRESENTATION(#1816,#1817);
#1816=PRODUCT_DEFINITION_SHAPE('',$,#1819);
#1817=SHAPE_REPRESENTATION('',(#1116),#1806);
#1818=PRODUCT_DEFINITION_CONTEXT('part definition',#1823,'design');
#1819=PRODUCT_DEFINITION('JANTXV2N2222AUB_TR','(Unsaved)',#1820,#1818);
#1820=PRODUCT_DEFINITION_FORMATION('',$,#1825);
#1821=PRODUCT_RELATED_PRODUCT_CATEGORY('(Unsaved)','(Unsaved)',(#1825));
#1822=APPLICATION_PROTOCOL_DEFINITION('international standard',
'automotive_design',2009,#1823);
#1823=APPLICATION_CONTEXT(
'Core Data for Automotive Mechanical Design Process');
#1824=PRODUCT_CONTEXT('part definition',#1823,'mechanical');
#1825=PRODUCT('JANTXV2N2222AUB_TR','(Unsaved)','STEP AP214',(#1824));
#1826=PRESENTATION_STYLE_ASSIGNMENT((#1829));
#1827=PRESENTATION_STYLE_ASSIGNMENT((#1830));
#1828=PRESENTATION_STYLE_ASSIGNMENT((#1831));
#1829=SURFACE_STYLE_USAGE(.BOTH.,#1832);
#1830=SURFACE_STYLE_USAGE(.BOTH.,#1833);
#1831=SURFACE_STYLE_USAGE(.BOTH.,#1834);
#1832=SURFACE_SIDE_STYLE('',(#1835));
#1833=SURFACE_SIDE_STYLE('',(#1836));
#1834=SURFACE_SIDE_STYLE('',(#1837));
#1835=SURFACE_STYLE_FILL_AREA(#1838);
#1836=SURFACE_STYLE_FILL_AREA(#1839);
#1837=SURFACE_STYLE_FILL_AREA(#1840);
#1838=FILL_AREA_STYLE('Steel - Satin',(#1841));
#1839=FILL_AREA_STYLE('Opaque(255,207,128)',(#1842));
#1840=FILL_AREA_STYLE('Opaque(64,64,64)',(#1843));
#1841=FILL_AREA_STYLE_COLOUR('Steel - Satin',#1844);
#1842=FILL_AREA_STYLE_COLOUR('Opaque(255,207,128)',#1845);
#1843=FILL_AREA_STYLE_COLOUR('Opaque(64,64,64)',#1846);
#1844=COLOUR_RGB('Steel - Satin',0.627450980392157,0.627450980392157,0.627450980392157);
#1845=COLOUR_RGB('Opaque(255,207,128)',0.831372549019608,0.686274509803922,
0.215686274509804);
#1846=COLOUR_RGB('Opaque(64,64,64)',0.12156862745098,0.12156862745098,0.12156862745098);
ENDSEC;
END-ISO-10303-21;
