ISO-10303-21;
HEADER;
FILE_DESCRIPTION(('STEP AP242'),'1');
FILE_NAME('df13-3p-1_25dsa_05_.stp','2025-10-14T16:28:19',('TraceParts'),('TraceParts S.A.S.'),'Spatial InterOp 3D',' ',' ');
FILE_SCHEMA(('AP242_MANAGED_MODEL_BASED_3D_ENGINEERING_MIM_LF  {1 0 10303 442 1 1 4}'));
ENDSEC;
DATA;
#1=MECHANICAL_DESIGN_GEOMETRIC_PRESENTATION_REPRESENTATION(' ',(#10),#6);
#2=PRODUCT_DEFINITION_CONTEXT('',#11,'design');
#3=APPLICATION_PROTOCOL_DEFINITION('INTERNATIONAL STANDARD','ap242_managed_model_based_3d_engineering',2014,#11);
#4=PRODUCT_CATEGORY_RELATIONSHIP('NONE','NONE',#12,#13);
#5=SHAPE_DEFINITION_REPRESENTATION(#14,#15);
#6= (GEOMETRIC_REPRESENTATION_CONTEXT(3)GLOBAL_UNCERTAINTY_ASSIGNED_CONTEXT((#18))GLOBAL_UNIT_ASSIGNED_CONTEXT((#20,#21,#22))REPRESENTATION_CONTEXT('NONE','WORKSPACE'));
#10=STYLED_ITEM('',(#24),#25);
#11=APPLICATION_CONTEXT('managed model based 3d engineering');
#12=PRODUCT_CATEGORY('part','NONE');
#13=PRODUCT_RELATED_PRODUCT_CATEGORY('detail',' ',(#26));
#14=PRODUCT_DEFINITION_SHAPE('NONE','NONE',#27);
#15=ADVANCED_BREP_SHAPE_REPRESENTATION('DF13-3P-1.25DSA|1#DF13-3P-1.25DSA;DF13-3P-1.25DSA',(#25,#28),#6);
#18=UNCERTAINTY_MEASURE_WITH_UNIT(LENGTH_MEASURE(1.0E-06),#20,'','');
#20= (CONVERSION_BASED_UNIT('MILLIMETRE',#31)LENGTH_UNIT()NAMED_UNIT(#34));
#21= (NAMED_UNIT(#36)PLANE_ANGLE_UNIT()SI_UNIT($,.RADIAN.));
#22= (NAMED_UNIT(#36)SOLID_ANGLE_UNIT()SI_UNIT($,.STERADIAN.));
#24=PRESENTATION_STYLE_ASSIGNMENT((#42));
#25=MANIFOLD_SOLID_BREP('DF13-3P-1.25DSA|1#DF13-3P-1.25DSA;DF13-3P-1.25DSA',#43);
#26=PRODUCT('DF13-3P-1.25DSA|1#DF13-3P-1.25DSA;DF13-3P-1.25DSA','','PART--DESC',(#44));
#27=PRODUCT_DEFINITION('','NONE',#45,#2);
#28=AXIS2_PLACEMENT_3D('',#46,#47,#48);
#31=LENGTH_MEASURE_WITH_UNIT(LENGTH_MEASURE(1.0),#49);
#34=DIMENSIONAL_EXPONENTS(1.0,0.0,0.0,0.0,0.0,0.0,0.0);
#36=DIMENSIONAL_EXPONENTS(0.0,0.0,0.0,0.0,0.0,0.0,0.0);
#42=SURFACE_STYLE_USAGE(.BOTH.,#50);
#43=CLOSED_SHELL('',(#51,#52,#53,#54,#55,#56,#57,#58,#59,#60,#61,#62,#63,#64,#65,#66,#67,#68,#69,#70,#71,#72,#73,#74,#75,#76,#77,#78,#79,#80,#81,#82,#83,#84,#85,#86,#87,#88,#89,#90,#91,#92,#93,#94,#95,#96,#97,#98,#99,#100,#101,#102,#103,#104,#105,#106,#107,#108,#109,#110,#111,#112,#113,#114,#115,#116,#117,#118,#119,#120,#121,#122,#123,#124,#125,#126));
#44=PRODUCT_CONTEXT('',#11,'mechanical');
#45=PRODUCT_DEFINITION_FORMATION_WITH_SPECIFIED_SOURCE(' ','NONE',#26,.NOT_KNOWN.);
#46=CARTESIAN_POINT('',(0.0,0.0,0.0));
#47=DIRECTION('',(0.0,0.0,1.0));
#48=DIRECTION('',(1.0,0.0,0.0));
#49= (NAMED_UNIT(#34)LENGTH_UNIT()SI_UNIT(.MILLI.,.METRE.));
#50=SURFACE_SIDE_STYLE('',(#128));
#51=ADVANCED_FACE('',(#129),#130,.F.);
#52=ADVANCED_FACE('',(#131),#132,.F.);
#53=ADVANCED_FACE('',(#133),#134,.F.);
#54=ADVANCED_FACE('',(#135),#136,.F.);
#55=ADVANCED_FACE('',(#137),#138,.T.);
#56=ADVANCED_FACE('',(#139),#140,.F.);
#57=ADVANCED_FACE('',(#141),#142,.T.);
#58=ADVANCED_FACE('',(#143),#144,.F.);
#59=ADVANCED_FACE('',(#145),#146,.T.);
#60=ADVANCED_FACE('',(#147),#148,.F.);
#61=ADVANCED_FACE('',(#149),#150,.T.);
#62=ADVANCED_FACE('',(#151,#152,#153,#154),#155,.F.);
#63=ADVANCED_FACE('',(#156),#157,.T.);
#64=ADVANCED_FACE('',(#158),#159,.F.);
#65=ADVANCED_FACE('',(#160),#161,.T.);
#66=ADVANCED_FACE('',(#162),#163,.F.);
#67=ADVANCED_FACE('',(#164),#165,.T.);
#68=ADVANCED_FACE('',(#166),#167,.F.);
#69=ADVANCED_FACE('',(#168),#169,.T.);
#70=ADVANCED_FACE('',(#170),#171,.F.);
#71=ADVANCED_FACE('',(#172),#173,.F.);
#72=ADVANCED_FACE('',(#174),#175,.F.);
#73=ADVANCED_FACE('',(#176),#177,.T.);
#74=ADVANCED_FACE('',(#178),#179,.T.);
#75=ADVANCED_FACE('',(#180),#181,.T.);
#76=ADVANCED_FACE('',(#182),#183,.F.);
#77=ADVANCED_FACE('',(#184,#185,#186,#187),#188,.F.);
#78=ADVANCED_FACE('',(#189),#190,.T.);
#79=ADVANCED_FACE('',(#191),#192,.F.);
#80=ADVANCED_FACE('',(#193),#194,.F.);
#81=ADVANCED_FACE('',(#195),#196,.T.);
#82=ADVANCED_FACE('',(#197),#198,.F.);
#83=ADVANCED_FACE('',(#199),#200,.F.);
#84=ADVANCED_FACE('',(#201),#202,.F.);
#85=ADVANCED_FACE('',(#203),#204,.T.);
#86=ADVANCED_FACE('',(#205),#206,.F.);
#87=ADVANCED_FACE('',(#207),#208,.F.);
#88=ADVANCED_FACE('',(#209),#210,.F.);
#89=ADVANCED_FACE('',(#211),#212,.T.);
#90=ADVANCED_FACE('',(#213),#214,.T.);
#91=ADVANCED_FACE('',(#215),#216,.F.);
#92=ADVANCED_FACE('',(#217),#218,.F.);
#93=ADVANCED_FACE('',(#219),#220,.F.);
#94=ADVANCED_FACE('',(#221),#222,.T.);
#95=ADVANCED_FACE('',(#223),#224,.T.);
#96=ADVANCED_FACE('',(#225),#226,.T.);
#97=ADVANCED_FACE('',(#227),#228,.T.);
#98=ADVANCED_FACE('',(#229),#230,.F.);
#99=ADVANCED_FACE('',(#231),#232,.F.);
#100=ADVANCED_FACE('',(#233),#234,.F.);
#101=ADVANCED_FACE('',(#235),#236,.T.);
#102=ADVANCED_FACE('',(#237),#238,.T.);
#103=ADVANCED_FACE('',(#239),#240,.F.);
#104=ADVANCED_FACE('',(#241),#242,.F.);
#105=ADVANCED_FACE('',(#243),#244,.T.);
#106=ADVANCED_FACE('',(#245),#246,.F.);
#107=ADVANCED_FACE('',(#247),#248,.F.);
#108=ADVANCED_FACE('',(#249),#250,.F.);
#109=ADVANCED_FACE('',(#251),#252,.T.);
#110=ADVANCED_FACE('',(#253),#254,.T.);
#111=ADVANCED_FACE('',(#255),#256,.F.);
#112=ADVANCED_FACE('',(#257),#258,.T.);
#113=ADVANCED_FACE('',(#259),#260,.F.);
#114=ADVANCED_FACE('',(#261),#262,.F.);
#115=ADVANCED_FACE('',(#263),#264,.F.);
#116=ADVANCED_FACE('',(#265),#266,.F.);
#117=ADVANCED_FACE('',(#267),#268,.F.);
#118=ADVANCED_FACE('',(#269),#270,.F.);
#119=ADVANCED_FACE('',(#271),#272,.T.);
#120=ADVANCED_FACE('',(#273),#274,.T.);
#121=ADVANCED_FACE('',(#275),#276,.T.);
#122=ADVANCED_FACE('',(#277),#278,.F.);
#123=ADVANCED_FACE('',(#279),#280,.F.);
#124=ADVANCED_FACE('',(#281),#282,.F.);
#125=ADVANCED_FACE('',(#283),#284,.T.);
#126=ADVANCED_FACE('',(#285),#286,.F.);
#128=SURFACE_STYLE_FILL_AREA(#287);
#129=FACE_OUTER_BOUND('',#288,.T.);
#130=PLANE('',#289);
#131=FACE_OUTER_BOUND('',#290,.T.);
#132=PLANE('',#291);
#133=FACE_OUTER_BOUND('',#292,.T.);
#134=PLANE('',#293);
#135=FACE_OUTER_BOUND('',#294,.T.);
#136=PLANE('',#295);
#137=FACE_OUTER_BOUND('',#296,.T.);
#138=PLANE('',#297);
#139=FACE_OUTER_BOUND('',#298,.T.);
#140=PLANE('',#299);
#141=FACE_OUTER_BOUND('',#300,.T.);
#142=PLANE('',#301);
#143=FACE_OUTER_BOUND('',#302,.T.);
#144=PLANE('',#303);
#145=FACE_OUTER_BOUND('',#304,.T.);
#146=PLANE('',#305);
#147=FACE_OUTER_BOUND('',#306,.T.);
#148=PLANE('',#307);
#149=FACE_OUTER_BOUND('',#308,.T.);
#150=PLANE('',#309);
#151=FACE_OUTER_BOUND('',#310,.T.);
#152=FACE_BOUND('',#311,.T.);
#153=FACE_BOUND('',#312,.T.);
#154=FACE_BOUND('',#313,.T.);
#155=PLANE('',#314);
#156=FACE_OUTER_BOUND('',#315,.T.);
#157=PLANE('',#316);
#158=FACE_OUTER_BOUND('',#317,.T.);
#159=PLANE('',#318);
#160=FACE_OUTER_BOUND('',#319,.T.);
#161=PLANE('',#320);
#162=FACE_OUTER_BOUND('',#321,.T.);
#163=PLANE('',#322);
#164=FACE_OUTER_BOUND('',#323,.T.);
#165=PLANE('',#324);
#166=FACE_OUTER_BOUND('',#325,.T.);
#167=PLANE('',#326);
#168=FACE_OUTER_BOUND('',#327,.T.);
#169=PLANE('',#328);
#170=FACE_OUTER_BOUND('',#329,.T.);
#171=PLANE('',#330);
#172=FACE_OUTER_BOUND('',#331,.T.);
#173=PLANE('',#332);
#174=FACE_OUTER_BOUND('',#333,.T.);
#175=PLANE('',#334);
#176=FACE_OUTER_BOUND('',#335,.T.);
#177=PLANE('',#336);
#178=FACE_OUTER_BOUND('',#337,.T.);
#179=PLANE('',#338);
#180=FACE_OUTER_BOUND('',#339,.T.);
#181=PLANE('',#340);
#182=FACE_OUTER_BOUND('',#341,.T.);
#183=PLANE('',#342);
#184=FACE_OUTER_BOUND('',#343,.T.);
#185=FACE_BOUND('',#344,.T.);
#186=FACE_BOUND('',#345,.T.);
#187=FACE_BOUND('',#346,.T.);
#188=PLANE('',#347);
#189=FACE_OUTER_BOUND('',#348,.T.);
#190=PLANE('',#349);
#191=FACE_OUTER_BOUND('',#350,.T.);
#192=PLANE('',#351);
#193=FACE_OUTER_BOUND('',#352,.T.);
#194=PLANE('',#353);
#195=FACE_OUTER_BOUND('',#354,.T.);
#196=PLANE('',#355);
#197=FACE_OUTER_BOUND('',#356,.T.);
#198=PLANE('',#357);
#199=FACE_OUTER_BOUND('',#358,.T.);
#200=PLANE('',#359);
#201=FACE_OUTER_BOUND('',#360,.T.);
#202=PLANE('',#361);
#203=FACE_OUTER_BOUND('',#362,.T.);
#204=PLANE('',#363);
#205=FACE_OUTER_BOUND('',#364,.T.);
#206=PLANE('',#365);
#207=FACE_OUTER_BOUND('',#366,.T.);
#208=PLANE('',#367);
#209=FACE_OUTER_BOUND('',#368,.T.);
#210=PLANE('',#369);
#211=FACE_OUTER_BOUND('',#370,.T.);
#212=PLANE('',#371);
#213=FACE_OUTER_BOUND('',#372,.T.);
#214=PLANE('',#373);
#215=FACE_OUTER_BOUND('',#374,.T.);
#216=PLANE('',#375);
#217=FACE_OUTER_BOUND('',#376,.T.);
#218=PLANE('',#377);
#219=FACE_OUTER_BOUND('',#378,.T.);
#220=PLANE('',#379);
#221=FACE_OUTER_BOUND('',#380,.T.);
#222=PLANE('',#381);
#223=FACE_OUTER_BOUND('',#382,.T.);
#224=PLANE('',#383);
#225=FACE_OUTER_BOUND('',#384,.T.);
#226=PLANE('',#385);
#227=FACE_OUTER_BOUND('',#386,.T.);
#228=PLANE('',#387);
#229=FACE_OUTER_BOUND('',#388,.T.);
#230=PLANE('',#389);
#231=FACE_OUTER_BOUND('',#390,.T.);
#232=PLANE('',#391);
#233=FACE_OUTER_BOUND('',#392,.T.);
#234=PLANE('',#393);
#235=FACE_OUTER_BOUND('',#394,.T.);
#236=PLANE('',#395);
#237=FACE_OUTER_BOUND('',#396,.T.);
#238=PLANE('',#397);
#239=FACE_OUTER_BOUND('',#398,.T.);
#240=PLANE('',#399);
#241=FACE_OUTER_BOUND('',#400,.T.);
#242=PLANE('',#401);
#243=FACE_OUTER_BOUND('',#402,.T.);
#244=PLANE('',#403);
#245=FACE_OUTER_BOUND('',#404,.T.);
#246=PLANE('',#405);
#247=FACE_OUTER_BOUND('',#406,.T.);
#248=PLANE('',#407);
#249=FACE_OUTER_BOUND('',#408,.T.);
#250=PLANE('',#409);
#251=FACE_OUTER_BOUND('',#410,.T.);
#252=PLANE('',#411);
#253=FACE_OUTER_BOUND('',#412,.T.);
#254=PLANE('',#413);
#255=FACE_OUTER_BOUND('',#414,.T.);
#256=PLANE('',#415);
#257=FACE_OUTER_BOUND('',#416,.T.);
#258=PLANE('',#417);
#259=FACE_OUTER_BOUND('',#418,.T.);
#260=PLANE('',#419);
#261=FACE_OUTER_BOUND('',#420,.T.);
#262=PLANE('',#421);
#263=FACE_OUTER_BOUND('',#422,.T.);
#264=PLANE('',#423);
#265=FACE_OUTER_BOUND('',#424,.T.);
#266=PLANE('',#425);
#267=FACE_OUTER_BOUND('',#426,.T.);
#268=PLANE('',#427);
#269=FACE_OUTER_BOUND('',#428,.T.);
#270=PLANE('',#429);
#271=FACE_OUTER_BOUND('',#430,.T.);
#272=PLANE('',#431);
#273=FACE_OUTER_BOUND('',#432,.T.);
#274=PLANE('',#433);
#275=FACE_OUTER_BOUND('',#434,.T.);
#276=PLANE('',#435);
#277=FACE_OUTER_BOUND('',#436,.T.);
#278=PLANE('',#437);
#279=FACE_OUTER_BOUND('',#438,.T.);
#280=PLANE('',#439);
#281=FACE_OUTER_BOUND('',#440,.T.);
#282=PLANE('',#441);
#283=FACE_OUTER_BOUND('',#442,.T.);
#284=PLANE('',#443);
#285=FACE_OUTER_BOUND('',#444,.T.);
#286=PLANE('',#445);
#287=FILL_AREA_STYLE('',(#446));
#288=EDGE_LOOP('',(#447,#448,#449,#450));
#289=AXIS2_PLACEMENT_3D('',#451,#452,#453);
#290=EDGE_LOOP('',(#454,#455,#456,#457));
#291=AXIS2_PLACEMENT_3D('',#458,#459,#460);
#292=EDGE_LOOP('',(#461,#462,#463,#464));
#293=AXIS2_PLACEMENT_3D('',#465,#466,#467);
#294=EDGE_LOOP('',(#468,#469,#470,#471));
#295=AXIS2_PLACEMENT_3D('',#472,#473,#474);
#296=EDGE_LOOP('',(#475,#476,#477,#478));
#297=AXIS2_PLACEMENT_3D('',#479,#480,#481);
#298=EDGE_LOOP('',(#482,#483,#484,#485));
#299=AXIS2_PLACEMENT_3D('',#486,#487,#488);
#300=EDGE_LOOP('',(#489,#490,#491,#492));
#301=AXIS2_PLACEMENT_3D('',#493,#494,#495);
#302=EDGE_LOOP('',(#496,#497,#498,#499));
#303=AXIS2_PLACEMENT_3D('',#500,#501,#502);
#304=EDGE_LOOP('',(#503,#504,#505,#506));
#305=AXIS2_PLACEMENT_3D('',#507,#508,#509);
#306=EDGE_LOOP('',(#510,#511,#512,#513));
#307=AXIS2_PLACEMENT_3D('',#514,#515,#516);
#308=EDGE_LOOP('',(#517,#518,#519,#520));
#309=AXIS2_PLACEMENT_3D('',#521,#522,#523);
#310=EDGE_LOOP('',(#524,#525,#526,#527));
#311=EDGE_LOOP('',(#528,#529,#530,#531));
#312=EDGE_LOOP('',(#532,#533,#534,#535));
#313=EDGE_LOOP('',(#536,#537,#538,#539));
#314=AXIS2_PLACEMENT_3D('',#540,#541,#542);
#315=EDGE_LOOP('',(#543,#544,#545,#546));
#316=AXIS2_PLACEMENT_3D('',#547,#548,#549);
#317=EDGE_LOOP('',(#550,#551,#552,#553));
#318=AXIS2_PLACEMENT_3D('',#554,#555,#556);
#319=EDGE_LOOP('',(#557,#558,#559,#560));
#320=AXIS2_PLACEMENT_3D('',#561,#562,#563);
#321=EDGE_LOOP('',(#564,#565,#566,#567,#568,#569,#570,#571));
#322=AXIS2_PLACEMENT_3D('',#572,#573,#574);
#323=EDGE_LOOP('',(#575,#576,#577,#578,#579,#580,#581,#582));
#324=AXIS2_PLACEMENT_3D('',#583,#584,#585);
#325=EDGE_LOOP('',(#586,#587,#588,#589));
#326=AXIS2_PLACEMENT_3D('',#590,#591,#592);
#327=EDGE_LOOP('',(#593,#594,#595,#596));
#328=AXIS2_PLACEMENT_3D('',#597,#598,#599);
#329=EDGE_LOOP('',(#600,#601,#602,#603));
#330=AXIS2_PLACEMENT_3D('',#604,#605,#606);
#331=EDGE_LOOP('',(#607,#608,#609,#610));
#332=AXIS2_PLACEMENT_3D('',#611,#612,#613);
#333=EDGE_LOOP('',(#614,#615,#616,#617));
#334=AXIS2_PLACEMENT_3D('',#618,#619,#620);
#335=EDGE_LOOP('',(#621,#622,#623,#624));
#336=AXIS2_PLACEMENT_3D('',#625,#626,#627);
#337=EDGE_LOOP('',(#628,#629,#630,#631));
#338=AXIS2_PLACEMENT_3D('',#632,#633,#634);
#339=EDGE_LOOP('',(#635,#636,#637,#638));
#340=AXIS2_PLACEMENT_3D('',#639,#640,#641);
#341=EDGE_LOOP('',(#642,#643,#644,#645));
#342=AXIS2_PLACEMENT_3D('',#646,#647,#648);
#343=EDGE_LOOP('',(#649,#650,#651,#652));
#344=EDGE_LOOP('',(#653,#654,#655,#656));
#345=EDGE_LOOP('',(#657,#658,#659,#660));
#346=EDGE_LOOP('',(#661,#662,#663,#664));
#347=AXIS2_PLACEMENT_3D('',#665,#666,#667);
#348=EDGE_LOOP('',(#668,#669,#670,#671));
#349=AXIS2_PLACEMENT_3D('',#672,#673,#674);
#350=EDGE_LOOP('',(#675,#676,#677,#678));
#351=AXIS2_PLACEMENT_3D('',#679,#680,#681);
#352=EDGE_LOOP('',(#682,#683,#684,#685));
#353=AXIS2_PLACEMENT_3D('',#686,#687,#688);
#354=EDGE_LOOP('',(#689,#690,#691,#692));
#355=AXIS2_PLACEMENT_3D('',#693,#694,#695);
#356=EDGE_LOOP('',(#696,#697,#698,#699,#700,#701));
#357=AXIS2_PLACEMENT_3D('',#702,#703,#704);
#358=EDGE_LOOP('',(#705,#706,#707,#708));
#359=AXIS2_PLACEMENT_3D('',#709,#710,#711);
#360=EDGE_LOOP('',(#712,#713,#714,#715));
#361=AXIS2_PLACEMENT_3D('',#716,#717,#718);
#362=EDGE_LOOP('',(#719,#720,#721,#722));
#363=AXIS2_PLACEMENT_3D('',#723,#724,#725);
#364=EDGE_LOOP('',(#726,#727,#728,#729,#730,#731,#732,#733));
#365=AXIS2_PLACEMENT_3D('',#734,#735,#736);
#366=EDGE_LOOP('',(#737,#738,#739,#740));
#367=AXIS2_PLACEMENT_3D('',#741,#742,#743);
#368=EDGE_LOOP('',(#744,#745,#746,#747));
#369=AXIS2_PLACEMENT_3D('',#748,#749,#750);
#370=EDGE_LOOP('',(#751,#752,#753,#754));
#371=AXIS2_PLACEMENT_3D('',#755,#756,#757);
#372=EDGE_LOOP('',(#758,#759,#760,#761));
#373=AXIS2_PLACEMENT_3D('',#762,#763,#764);
#374=EDGE_LOOP('',(#765,#766,#767,#768));
#375=AXIS2_PLACEMENT_3D('',#769,#770,#771);
#376=EDGE_LOOP('',(#772,#773,#774,#775));
#377=AXIS2_PLACEMENT_3D('',#776,#777,#778);
#378=EDGE_LOOP('',(#779,#780,#781,#782,#783,#784,#785,#786));
#379=AXIS2_PLACEMENT_3D('',#787,#788,#789);
#380=EDGE_LOOP('',(#790,#791,#792,#793));
#381=AXIS2_PLACEMENT_3D('',#794,#795,#796);
#382=EDGE_LOOP('',(#797,#798,#799,#800));
#383=AXIS2_PLACEMENT_3D('',#801,#802,#803);
#384=EDGE_LOOP('',(#804,#805,#806,#807));
#385=AXIS2_PLACEMENT_3D('',#808,#809,#810);
#386=EDGE_LOOP('',(#811,#812,#813,#814));
#387=AXIS2_PLACEMENT_3D('',#815,#816,#817);
#388=EDGE_LOOP('',(#818,#819,#820,#821));
#389=AXIS2_PLACEMENT_3D('',#822,#823,#824);
#390=EDGE_LOOP('',(#825,#826,#827,#828));
#391=AXIS2_PLACEMENT_3D('',#829,#830,#831);
#392=EDGE_LOOP('',(#832,#833,#834,#835));
#393=AXIS2_PLACEMENT_3D('',#836,#837,#838);
#394=EDGE_LOOP('',(#839,#840,#841,#842));
#395=AXIS2_PLACEMENT_3D('',#843,#844,#845);
#396=EDGE_LOOP('',(#846,#847,#848,#849,#850,#851,#852,#853));
#397=AXIS2_PLACEMENT_3D('',#854,#855,#856);
#398=EDGE_LOOP('',(#857,#858,#859,#860));
#399=AXIS2_PLACEMENT_3D('',#861,#862,#863);
#400=EDGE_LOOP('',(#864,#865,#866,#867));
#401=AXIS2_PLACEMENT_3D('',#868,#869,#870);
#402=EDGE_LOOP('',(#871,#872,#873,#874));
#403=AXIS2_PLACEMENT_3D('',#875,#876,#877);
#404=EDGE_LOOP('',(#878,#879,#880,#881));
#405=AXIS2_PLACEMENT_3D('',#882,#883,#884);
#406=EDGE_LOOP('',(#885,#886,#887,#888));
#407=AXIS2_PLACEMENT_3D('',#889,#890,#891);
#408=EDGE_LOOP('',(#892,#893,#894,#895));
#409=AXIS2_PLACEMENT_3D('',#896,#897,#898);
#410=EDGE_LOOP('',(#899,#900,#901,#902));
#411=AXIS2_PLACEMENT_3D('',#903,#904,#905);
#412=EDGE_LOOP('',(#906,#907,#908,#909));
#413=AXIS2_PLACEMENT_3D('',#910,#911,#912);
#414=EDGE_LOOP('',(#913,#914,#915,#916));
#415=AXIS2_PLACEMENT_3D('',#917,#918,#919);
#416=EDGE_LOOP('',(#920,#921,#922,#923));
#417=AXIS2_PLACEMENT_3D('',#924,#925,#926);
#418=EDGE_LOOP('',(#927,#928,#929,#930));
#419=AXIS2_PLACEMENT_3D('',#931,#932,#933);
#420=EDGE_LOOP('',(#934,#935,#936,#937));
#421=AXIS2_PLACEMENT_3D('',#938,#939,#940);
#422=EDGE_LOOP('',(#941,#942,#943,#944));
#423=AXIS2_PLACEMENT_3D('',#945,#946,#947);
#424=EDGE_LOOP('',(#948,#949,#950,#951,#952,#953,#954,#955));
#425=AXIS2_PLACEMENT_3D('',#956,#957,#958);
#426=EDGE_LOOP('',(#959,#960,#961,#962));
#427=AXIS2_PLACEMENT_3D('',#963,#964,#965);
#428=EDGE_LOOP('',(#966,#967,#968,#969));
#429=AXIS2_PLACEMENT_3D('',#970,#971,#972);
#430=EDGE_LOOP('',(#973,#974,#975,#976));
#431=AXIS2_PLACEMENT_3D('',#977,#978,#979);
#432=EDGE_LOOP('',(#980,#981,#982,#983,#984,#985));
#433=AXIS2_PLACEMENT_3D('',#986,#987,#988);
#434=EDGE_LOOP('',(#989,#990,#991,#992,#993,#994,#995,#996));
#435=AXIS2_PLACEMENT_3D('',#997,#998,#999);
#436=EDGE_LOOP('',(#1000,#1001,#1002,#1003));
#437=AXIS2_PLACEMENT_3D('',#1004,#1005,#1006);
#438=EDGE_LOOP('',(#1007,#1008,#1009,#1010));
#439=AXIS2_PLACEMENT_3D('',#1011,#1012,#1013);
#440=EDGE_LOOP('',(#1014,#1015,#1016,#1017));
#441=AXIS2_PLACEMENT_3D('',#1018,#1019,#1020);
#442=EDGE_LOOP('',(#1021,#1022,#1023,#1024));
#443=AXIS2_PLACEMENT_3D('',#1025,#1026,#1027);
#444=EDGE_LOOP('',(#1028,#1029,#1030,#1031));
#445=AXIS2_PLACEMENT_3D('',#1032,#1033,#1034);
#446=FILL_AREA_STYLE_COLOUR('',#1035);
#447=ORIENTED_EDGE('',*,*,#1036,.T.);
#448=ORIENTED_EDGE('',*,*,#1037,.F.);
#449=ORIENTED_EDGE('',*,*,#1038,.F.);
#450=ORIENTED_EDGE('',*,*,#1039,.F.);
#451=CARTESIAN_POINT('',(-25.0064534779416,-1.26276840239229,-15.175));
#452=DIRECTION('',(0.0,0.0,1.0));
#453=DIRECTION('',(1.0,0.0,0.0));
#454=ORIENTED_EDGE('',*,*,#1040,.F.);
#455=ORIENTED_EDGE('',*,*,#1041,.T.);
#456=ORIENTED_EDGE('',*,*,#1042,.F.);
#457=ORIENTED_EDGE('',*,*,#1043,.T.);
#458=CARTESIAN_POINT('',(-25.0064534779416,-1.26276840239229,-15.175));
#459=DIRECTION('',(0.0,0.0,1.0));
#460=DIRECTION('',(1.0,0.0,0.0));
#461=ORIENTED_EDGE('',*,*,#1044,.F.);
#462=ORIENTED_EDGE('',*,*,#1045,.T.);
#463=ORIENTED_EDGE('',*,*,#1046,.F.);
#464=ORIENTED_EDGE('',*,*,#1047,.T.);
#465=CARTESIAN_POINT('',(-25.127181,-3.830469,-16.075));
#466=DIRECTION('',(0.970142500145332,0.242535625036333,0.0));
#467=DIRECTION('',(0.0,0.0,-1.0));
#468=ORIENTED_EDGE('',*,*,#1048,.F.);
#469=ORIENTED_EDGE('',*,*,#1049,.T.);
#470=ORIENTED_EDGE('',*,*,#1050,.F.);
#471=ORIENTED_EDGE('',*,*,#1051,.T.);
#472=CARTESIAN_POINT('',(-24.852181,-3.530469,-16.075));
#473=DIRECTION('',(-0.970142500145332,0.242535625036333,0.0));
#474=DIRECTION('',(0.0,0.0,1.0));
#475=ORIENTED_EDGE('',*,*,#1052,.F.);
#476=ORIENTED_EDGE('',*,*,#1053,.F.);
#477=ORIENTED_EDGE('',*,*,#1054,.T.);
#478=ORIENTED_EDGE('',*,*,#1055,.F.);
#479=CARTESIAN_POINT('',(-24.217181,2.769531,-21.7499976));
#480=DIRECTION('',(-1.0,-1.22460635382238E-16,0.0));
#481=DIRECTION('',(-1.22460635382238E-16,1.0,0.0));
#482=ORIENTED_EDGE('',*,*,#1056,.T.);
#483=ORIENTED_EDGE('',*,*,#1037,.T.);
#484=ORIENTED_EDGE('',*,*,#1057,.T.);
#485=ORIENTED_EDGE('',*,*,#1058,.F.);
#486=CARTESIAN_POINT('',(-24.852181,-0.761551108583667,-14.825));
#487=DIRECTION('',(-1.0,0.0,0.0));
#488=DIRECTION('',(0.0,0.0,1.0));
#489=ORIENTED_EDGE('',*,*,#1059,.F.);
#490=ORIENTED_EDGE('',*,*,#1060,.T.);
#491=ORIENTED_EDGE('',*,*,#1061,.F.);
#492=ORIENTED_EDGE('',*,*,#1062,.T.);
#493=CARTESIAN_POINT('',(-25.127181,2.169531,-16.075));
#494=DIRECTION('',(-0.970142500145332,0.242535625036333,0.0));
#495=DIRECTION('',(0.0,0.0,1.0));
#496=ORIENTED_EDGE('',*,*,#1059,.T.);
#497=ORIENTED_EDGE('',*,*,#1063,.T.);
#498=ORIENTED_EDGE('',*,*,#1064,.T.);
#499=ORIENTED_EDGE('',*,*,#1065,.T.);
#500=CARTESIAN_POINT('',(-27.6736834,2.169531,-16.15));
#501=DIRECTION('',(5.60976323348314E-18,-0.242535625036333,-0.970142500145332));
#502=DIRECTION('',(0.0,-0.970142500145332,0.242535625036333));
#503=ORIENTED_EDGE('',*,*,#1066,.T.);
#504=ORIENTED_EDGE('',*,*,#1063,.F.);
#505=ORIENTED_EDGE('',*,*,#1067,.T.);
#506=ORIENTED_EDGE('',*,*,#1068,.F.);
#507=CARTESIAN_POINT('',(-25.202181,-0.899386891416333,-16.075));
#508=DIRECTION('',(0.0,0.0,1.0));
#509=DIRECTION('',(1.0,0.0,0.0));
#510=ORIENTED_EDGE('',*,*,#1069,.F.);
#511=ORIENTED_EDGE('',*,*,#1070,.T.);
#512=ORIENTED_EDGE('',*,*,#1071,.F.);
#513=ORIENTED_EDGE('',*,*,#1072,.T.);
#514=CARTESIAN_POINT('',(-25.0064534779416,-1.26276840239229,-16.425));
#515=DIRECTION('',(0.0,0.0,1.0));
#516=DIRECTION('',(1.0,0.0,0.0));
#517=ORIENTED_EDGE('',*,*,#1073,.F.);
#518=ORIENTED_EDGE('',*,*,#1074,.T.);
#519=ORIENTED_EDGE('',*,*,#1075,.F.);
#520=ORIENTED_EDGE('',*,*,#1076,.T.);
#521=CARTESIAN_POINT('',(-25.127181,2.169531,-13.575));
#522=DIRECTION('',(-0.970142500145332,0.242535625036333,0.0));
#523=DIRECTION('',(0.0,0.0,1.0));
#524=ORIENTED_EDGE('',*,*,#1077,.T.);
#525=ORIENTED_EDGE('',*,*,#1078,.T.);
#526=ORIENTED_EDGE('',*,*,#1079,.T.);
#527=ORIENTED_EDGE('',*,*,#1080,.F.);
#528=ORIENTED_EDGE('',*,*,#1081,.F.);
#529=ORIENTED_EDGE('',*,*,#1082,.T.);
#530=ORIENTED_EDGE('',*,*,#1057,.F.);
#531=ORIENTED_EDGE('',*,*,#1036,.F.);
#532=ORIENTED_EDGE('',*,*,#1083,.F.);
#533=ORIENTED_EDGE('',*,*,#1084,.T.);
#534=ORIENTED_EDGE('',*,*,#1085,.F.);
#535=ORIENTED_EDGE('',*,*,#1086,.F.);
#536=ORIENTED_EDGE('',*,*,#1087,.F.);
#537=ORIENTED_EDGE('',*,*,#1088,.F.);
#538=ORIENTED_EDGE('',*,*,#1089,.F.);
#539=ORIENTED_EDGE('',*,*,#1090,.T.);
#540=CARTESIAN_POINT('',(-24.5000613700026,-1.530469,-8.4743375113588));
#541=DIRECTION('',(-1.22460635382238E-16,1.0,0.0));
#542=DIRECTION('',(1.0,1.22460635382238E-16,0.0));
#543=ORIENTED_EDGE('',*,*,#1091,.F.);
#544=ORIENTED_EDGE('',*,*,#1092,.T.);
#545=ORIENTED_EDGE('',*,*,#1093,.F.);
#546=ORIENTED_EDGE('',*,*,#1094,.F.);
#547=CARTESIAN_POINT('',(-24.927181,2.169531,-14.825));
#548=DIRECTION('',(-0.0,1.0,0.0));
#549=DIRECTION('',(1.0,0.0,0.0));
#550=ORIENTED_EDGE('',*,*,#1095,.T.);
#551=ORIENTED_EDGE('',*,*,#1069,.T.);
#552=ORIENTED_EDGE('',*,*,#1096,.F.);
#553=ORIENTED_EDGE('',*,*,#1066,.F.);
#554=CARTESIAN_POINT('',(-24.852181,-0.761551108583667,-16.075));
#555=DIRECTION('',(-1.0,0.0,0.0));
#556=DIRECTION('',(0.0,0.0,1.0));
#557=ORIENTED_EDGE('',*,*,#1097,.F.);
#558=ORIENTED_EDGE('',*,*,#1098,.T.);
#559=ORIENTED_EDGE('',*,*,#1099,.F.);
#560=ORIENTED_EDGE('',*,*,#1100,.T.);
#561=CARTESIAN_POINT('',(-24.852181,1.869531,-13.575));
#562=DIRECTION('',(0.970142500145332,0.242535625036333,0.0));
#563=DIRECTION('',(0.0,0.0,-1.0));
#564=ORIENTED_EDGE('',*,*,#1101,.T.);
#565=ORIENTED_EDGE('',*,*,#1102,.T.);
#566=ORIENTED_EDGE('',*,*,#1103,.T.);
#567=ORIENTED_EDGE('',*,*,#1104,.T.);
#568=ORIENTED_EDGE('',*,*,#1105,.T.);
#569=ORIENTED_EDGE('',*,*,#1106,.F.);
#570=ORIENTED_EDGE('',*,*,#1107,.F.);
#571=ORIENTED_EDGE('',*,*,#1078,.F.);
#572=CARTESIAN_POINT('',(-25.318488408855,-2.27214112744177,-17.7));
#573=DIRECTION('',(0.0,0.0,1.0));
#574=DIRECTION('',(1.0,0.0,0.0));
#575=ORIENTED_EDGE('',*,*,#1108,.T.);
#576=ORIENTED_EDGE('',*,*,#1109,.T.);
#577=ORIENTED_EDGE('',*,*,#1110,.T.);
#578=ORIENTED_EDGE('',*,*,#1111,.T.);
#579=ORIENTED_EDGE('',*,*,#1112,.F.);
#580=ORIENTED_EDGE('',*,*,#1113,.F.);
#581=ORIENTED_EDGE('',*,*,#1114,.F.);
#582=ORIENTED_EDGE('',*,*,#1115,.F.);
#583=CARTESIAN_POINT('',(-26.567181,2.669531,-11.55));
#584=DIRECTION('',(1.0,-1.16899762439555E-14,0.0));
#585=DIRECTION('',(-1.16899762439555E-14,-1.0,0.0));
#586=ORIENTED_EDGE('',*,*,#1116,.T.);
#587=ORIENTED_EDGE('',*,*,#1103,.F.);
#588=ORIENTED_EDGE('',*,*,#1117,.T.);
#589=ORIENTED_EDGE('',*,*,#1118,.T.);
#590=CARTESIAN_POINT('',(-25.792181,2.669531,-17.7));
#591=DIRECTION('',(-1.0,-1.22460635382238E-16,0.0));
#592=DIRECTION('',(-1.22460635382238E-16,1.0,0.0));
#593=ORIENTED_EDGE('',*,*,#1038,.T.);
#594=ORIENTED_EDGE('',*,*,#1119,.F.);
#595=ORIENTED_EDGE('',*,*,#1120,.T.);
#596=ORIENTED_EDGE('',*,*,#1121,.F.);
#597=CARTESIAN_POINT('',(-27.6736834,-3.530469,-15.175));
#598=DIRECTION('',(-5.60976323348314E-18,-0.242535625036333,-0.970142500145332));
#599=DIRECTION('',(0.0,-0.970142500145332,0.242535625036333));
#600=ORIENTED_EDGE('',*,*,#1122,.F.);
#601=ORIENTED_EDGE('',*,*,#1123,.T.);
#602=ORIENTED_EDGE('',*,*,#1124,.F.);
#603=ORIENTED_EDGE('',*,*,#1125,.T.);
#604=CARTESIAN_POINT('',(-25.0064534779416,-1.26276840239229,-13.925));
#605=DIRECTION('',(0.0,0.0,1.0));
#606=DIRECTION('',(1.0,0.0,0.0));
#607=ORIENTED_EDGE('',*,*,#1056,.F.);
#608=ORIENTED_EDGE('',*,*,#1126,.T.);
#609=ORIENTED_EDGE('',*,*,#1127,.F.);
#610=ORIENTED_EDGE('',*,*,#1119,.T.);
#611=CARTESIAN_POINT('',(-24.852181,-3.530469,-14.825));
#612=DIRECTION('',(-0.970142500145332,0.242535625036333,0.0));
#613=DIRECTION('',(0.0,0.0,1.0));
#614=ORIENTED_EDGE('',*,*,#1128,.F.);
#615=ORIENTED_EDGE('',*,*,#1083,.T.);
#616=ORIENTED_EDGE('',*,*,#1129,.T.);
#617=ORIENTED_EDGE('',*,*,#1044,.T.);
#618=CARTESIAN_POINT('',(-25.202181,-6.130469,-16.425));
#619=DIRECTION('',(1.0,0.0,0.0));
#620=DIRECTION('',(0.0,1.0,0.0));
#621=ORIENTED_EDGE('',*,*,#1065,.F.);
#622=ORIENTED_EDGE('',*,*,#1130,.F.);
#623=ORIENTED_EDGE('',*,*,#1131,.T.);
#624=ORIENTED_EDGE('',*,*,#1060,.F.);
#625=CARTESIAN_POINT('',(-24.927181,2.169531,-16.075));
#626=DIRECTION('',(-0.0,1.0,0.0));
#627=DIRECTION('',(1.0,0.0,0.0));
#628=ORIENTED_EDGE('',*,*,#1132,.F.);
#629=ORIENTED_EDGE('',*,*,#1049,.F.);
#630=ORIENTED_EDGE('',*,*,#1133,.F.);
#631=ORIENTED_EDGE('',*,*,#1047,.F.);
#632=CARTESIAN_POINT('',(-27.6736834,-3.830469,-16.15));
#633=DIRECTION('',(-5.60976323348314E-18,-0.242535625036333,0.970142500145332));
#634=DIRECTION('',(-1.0,2.31296463463575E-17,0.0));
#635=ORIENTED_EDGE('',*,*,#1134,.T.);
#636=ORIENTED_EDGE('',*,*,#1135,.F.);
#637=ORIENTED_EDGE('',*,*,#1104,.F.);
#638=ORIENTED_EDGE('',*,*,#1116,.F.);
#639=CARTESIAN_POINT('',(-25.4024247553731,1.769531,-17.7966736407211));
#640=DIRECTION('',(-0.0,1.0,0.0));
#641=DIRECTION('',(1.0,0.0,0.0));
#642=ORIENTED_EDGE('',*,*,#1075,.T.);
#643=ORIENTED_EDGE('',*,*,#1136,.F.);
#644=ORIENTED_EDGE('',*,*,#1097,.T.);
#645=ORIENTED_EDGE('',*,*,#1125,.F.);
#646=CARTESIAN_POINT('',(-27.6736834,1.869531,-13.925));
#647=DIRECTION('',(5.60976323348314E-18,-0.242535625036333,0.970142500145332));
#648=DIRECTION('',(-1.0,-2.31296463463575E-17,0.0));
#649=ORIENTED_EDGE('',*,*,#1108,.F.);
#650=ORIENTED_EDGE('',*,*,#1137,.F.);
#651=ORIENTED_EDGE('',*,*,#1053,.T.);
#652=ORIENTED_EDGE('',*,*,#1138,.T.);
#653=ORIENTED_EDGE('',*,*,#1095,.F.);
#654=ORIENTED_EDGE('',*,*,#1068,.T.);
#655=ORIENTED_EDGE('',*,*,#1139,.F.);
#656=ORIENTED_EDGE('',*,*,#1070,.F.);
#657=ORIENTED_EDGE('',*,*,#1140,.F.);
#658=ORIENTED_EDGE('',*,*,#1141,.T.);
#659=ORIENTED_EDGE('',*,*,#1142,.F.);
#660=ORIENTED_EDGE('',*,*,#1123,.F.);
#661=ORIENTED_EDGE('',*,*,#1143,.F.);
#662=ORIENTED_EDGE('',*,*,#1041,.F.);
#663=ORIENTED_EDGE('',*,*,#1144,.F.);
#664=ORIENTED_EDGE('',*,*,#1145,.T.);
#665=CARTESIAN_POINT('',(-26.8458828547312,-0.230469,3.05239538371848));
#666=DIRECTION('',(2.44921270764475E-16,-1.0,0.0));
#667=DIRECTION('',(0.0,0.0,-1.0));
#668=ORIENTED_EDGE('',*,*,#1146,.T.);
#669=ORIENTED_EDGE('',*,*,#1147,.F.);
#670=ORIENTED_EDGE('',*,*,#1148,.T.);
#671=ORIENTED_EDGE('',*,*,#1141,.F.);
#672=CARTESIAN_POINT('',(-25.202181,-0.899386891416333,-13.575));
#673=DIRECTION('',(0.0,0.0,1.0));
#674=DIRECTION('',(1.0,0.0,0.0));
#675=ORIENTED_EDGE('',*,*,#1086,.T.);
#676=ORIENTED_EDGE('',*,*,#1149,.F.);
#677=ORIENTED_EDGE('',*,*,#1150,.F.);
#678=ORIENTED_EDGE('',*,*,#1129,.F.);
#679=CARTESIAN_POINT('',(-25.0064534779416,-1.26276840239229,-16.425));
#680=DIRECTION('',(0.0,0.0,1.0));
#681=DIRECTION('',(1.0,0.0,0.0));
#682=ORIENTED_EDGE('',*,*,#1048,.T.);
#683=ORIENTED_EDGE('',*,*,#1149,.T.);
#684=ORIENTED_EDGE('',*,*,#1085,.T.);
#685=ORIENTED_EDGE('',*,*,#1151,.F.);
#686=CARTESIAN_POINT('',(-24.852181,-0.761551108583667,-16.075));
#687=DIRECTION('',(-1.0,0.0,0.0));
#688=DIRECTION('',(0.0,0.0,1.0));
#689=ORIENTED_EDGE('',*,*,#1150,.T.);
#690=ORIENTED_EDGE('',*,*,#1051,.F.);
#691=ORIENTED_EDGE('',*,*,#1152,.T.);
#692=ORIENTED_EDGE('',*,*,#1045,.F.);
#693=CARTESIAN_POINT('',(-27.6736834,-3.530469,-16.425));
#694=DIRECTION('',(-5.60976323348314E-18,-0.242535625036333,-0.970142500145332));
#695=DIRECTION('',(0.0,-0.970142500145332,0.242535625036333));
#696=ORIENTED_EDGE('',*,*,#1153,.F.);
#697=ORIENTED_EDGE('',*,*,#1117,.F.);
#698=ORIENTED_EDGE('',*,*,#1102,.F.);
#699=ORIENTED_EDGE('',*,*,#1154,.T.);
#700=ORIENTED_EDGE('',*,*,#1155,.T.);
#701=ORIENTED_EDGE('',*,*,#1110,.F.);
#702=CARTESIAN_POINT('',(-26.567181,2.769531,-17.2));
#703=DIRECTION('',(1.22460635382238E-16,-1.0,0.0));
#704=DIRECTION('',(0.0,0.0,-1.0));
#705=ORIENTED_EDGE('',*,*,#1156,.T.);
#706=ORIENTED_EDGE('',*,*,#1092,.F.);
#707=ORIENTED_EDGE('',*,*,#1157,.T.);
#708=ORIENTED_EDGE('',*,*,#1043,.F.);
#709=CARTESIAN_POINT('',(-27.6736834,1.869531,-15.175));
#710=DIRECTION('',(5.60976323348314E-18,-0.242535625036333,0.970142500145332));
#711=DIRECTION('',(-1.0,-2.31296463463575E-17,0.0));
#712=ORIENTED_EDGE('',*,*,#1079,.F.);
#713=ORIENTED_EDGE('',*,*,#1107,.T.);
#714=ORIENTED_EDGE('',*,*,#1158,.T.);
#715=ORIENTED_EDGE('',*,*,#1159,.F.);
#716=CARTESIAN_POINT('',(-23.817181,2.38528626053621,-2.19520332004536));
#717=DIRECTION('',(-1.0,0.0,0.0));
#718=DIRECTION('',(0.0,0.0,1.0));
#719=ORIENTED_EDGE('',*,*,#1160,.F.);
#720=ORIENTED_EDGE('',*,*,#1161,.F.);
#721=ORIENTED_EDGE('',*,*,#1162,.T.);
#722=ORIENTED_EDGE('',*,*,#1163,.F.);
#723=CARTESIAN_POINT('',(-25.792181,2.669531,-12.3));
#724=DIRECTION('',(1.0,0.0,0.0));
#725=DIRECTION('',(0.0,1.0,0.0));
#726=ORIENTED_EDGE('',*,*,#1153,.T.);
#727=ORIENTED_EDGE('',*,*,#1109,.F.);
#728=ORIENTED_EDGE('',*,*,#1138,.F.);
#729=ORIENTED_EDGE('',*,*,#1052,.T.);
#730=ORIENTED_EDGE('',*,*,#1164,.F.);
#731=ORIENTED_EDGE('',*,*,#1165,.F.);
#732=ORIENTED_EDGE('',*,*,#1134,.F.);
#733=ORIENTED_EDGE('',*,*,#1118,.F.);
#734=CARTESIAN_POINT('',(-25.2508593649965,-0.647956744658188,-17.2));
#735=DIRECTION('',(0.0,0.0,-1.0));
#736=DIRECTION('',(0.0,-1.0,0.0));
#737=ORIENTED_EDGE('',*,*,#1139,.T.);
#738=ORIENTED_EDGE('',*,*,#1067,.F.);
#739=ORIENTED_EDGE('',*,*,#1062,.F.);
#740=ORIENTED_EDGE('',*,*,#1071,.T.);
#741=CARTESIAN_POINT('',(-25.202181,-6.130469,-16.425));
#742=DIRECTION('',(1.0,0.0,0.0));
#743=DIRECTION('',(0.0,1.0,0.0));
#744=ORIENTED_EDGE('',*,*,#1061,.T.);
#745=ORIENTED_EDGE('',*,*,#1131,.F.);
#746=ORIENTED_EDGE('',*,*,#1166,.T.);
#747=ORIENTED_EDGE('',*,*,#1072,.F.);
#748=CARTESIAN_POINT('',(-27.6736834,1.869531,-16.425));
#749=DIRECTION('',(5.60976323348314E-18,-0.242535625036333,0.970142500145332));
#750=DIRECTION('',(-1.0,-2.31296463463575E-17,0.0));
#751=ORIENTED_EDGE('',*,*,#1166,.F.);
#752=ORIENTED_EDGE('',*,*,#1130,.T.);
#753=ORIENTED_EDGE('',*,*,#1064,.F.);
#754=ORIENTED_EDGE('',*,*,#1096,.T.);
#755=CARTESIAN_POINT('',(-24.852181,1.869531,-16.075));
#756=DIRECTION('',(0.970142500145332,0.242535625036333,0.0));
#757=DIRECTION('',(0.0,0.0,-1.0));
#758=ORIENTED_EDGE('',*,*,#1093,.T.);
#759=ORIENTED_EDGE('',*,*,#1156,.F.);
#760=ORIENTED_EDGE('',*,*,#1167,.T.);
#761=ORIENTED_EDGE('',*,*,#1168,.F.);
#762=CARTESIAN_POINT('',(-25.127181,2.169531,-14.825));
#763=DIRECTION('',(-0.970142500145332,0.242535625036333,0.0));
#764=DIRECTION('',(0.0,0.0,1.0));
#765=ORIENTED_EDGE('',*,*,#1046,.T.);
#766=ORIENTED_EDGE('',*,*,#1152,.F.);
#767=ORIENTED_EDGE('',*,*,#1050,.T.);
#768=ORIENTED_EDGE('',*,*,#1132,.T.);
#769=CARTESIAN_POINT('',(-24.927181,-3.830469,-16.075));
#770=DIRECTION('',(-0.0,1.0,0.0));
#771=DIRECTION('',(1.0,0.0,0.0));
#772=ORIENTED_EDGE('',*,*,#1167,.F.);
#773=ORIENTED_EDGE('',*,*,#1042,.T.);
#774=ORIENTED_EDGE('',*,*,#1143,.T.);
#775=ORIENTED_EDGE('',*,*,#1169,.F.);
#776=CARTESIAN_POINT('',(-25.202181,-6.130469,-15.175));
#777=DIRECTION('',(1.0,0.0,0.0));
#778=DIRECTION('',(0.0,1.0,0.0));
#779=ORIENTED_EDGE('',*,*,#1170,.F.);
#780=ORIENTED_EDGE('',*,*,#1171,.T.);
#781=ORIENTED_EDGE('',*,*,#1154,.F.);
#782=ORIENTED_EDGE('',*,*,#1101,.F.);
#783=ORIENTED_EDGE('',*,*,#1077,.F.);
#784=ORIENTED_EDGE('',*,*,#1172,.T.);
#785=ORIENTED_EDGE('',*,*,#1173,.T.);
#786=ORIENTED_EDGE('',*,*,#1174,.F.);
#787=CARTESIAN_POINT('',(-27.217181,-1.530469,-10.7174976));
#788=DIRECTION('',(1.0,2.44921270764475E-16,0.0));
#789=DIRECTION('',(-2.44921270764475E-16,1.0,0.0));
#790=ORIENTED_EDGE('',*,*,#1157,.F.);
#791=ORIENTED_EDGE('',*,*,#1091,.T.);
#792=ORIENTED_EDGE('',*,*,#1175,.F.);
#793=ORIENTED_EDGE('',*,*,#1176,.T.);
#794=CARTESIAN_POINT('',(-24.852181,1.869531,-14.825));
#795=DIRECTION('',(0.970142500145332,0.242535625036333,0.0));
#796=DIRECTION('',(0.0,0.0,-1.0));
#797=ORIENTED_EDGE('',*,*,#1084,.F.);
#798=ORIENTED_EDGE('',*,*,#1128,.T.);
#799=ORIENTED_EDGE('',*,*,#1133,.T.);
#800=ORIENTED_EDGE('',*,*,#1151,.T.);
#801=CARTESIAN_POINT('',(-25.202181,-0.899386891416333,-16.075));
#802=DIRECTION('',(0.0,0.0,1.0));
#803=DIRECTION('',(1.0,0.0,0.0));
#804=ORIENTED_EDGE('',*,*,#1171,.F.);
#805=ORIENTED_EDGE('',*,*,#1177,.F.);
#806=ORIENTED_EDGE('',*,*,#1111,.F.);
#807=ORIENTED_EDGE('',*,*,#1155,.F.);
#808=CARTESIAN_POINT('',(-27.217181,2.669531,-16.725));
#809=DIRECTION('',(0.0,0.0,1.0));
#810=DIRECTION('',(1.0,0.0,0.0));
#811=ORIENTED_EDGE('',*,*,#1165,.T.);
#812=ORIENTED_EDGE('',*,*,#1178,.T.);
#813=ORIENTED_EDGE('',*,*,#1105,.F.);
#814=ORIENTED_EDGE('',*,*,#1135,.T.);
#815=CARTESIAN_POINT('',(-24.992181,2.769531,-17.2));
#816=DIRECTION('',(-1.0,-1.11022302462516E-16,0.0));
#817=DIRECTION('',(-1.11022302462516E-16,1.0,0.0));
#818=ORIENTED_EDGE('',*,*,#1142,.T.);
#819=ORIENTED_EDGE('',*,*,#1148,.F.);
#820=ORIENTED_EDGE('',*,*,#1076,.F.);
#821=ORIENTED_EDGE('',*,*,#1124,.T.);
#822=CARTESIAN_POINT('',(-25.202181,-6.130469,-13.925));
#823=DIRECTION('',(1.0,0.0,0.0));
#824=DIRECTION('',(0.0,1.0,0.0));
#825=ORIENTED_EDGE('',*,*,#1168,.T.);
#826=ORIENTED_EDGE('',*,*,#1179,.T.);
#827=ORIENTED_EDGE('',*,*,#1175,.T.);
#828=ORIENTED_EDGE('',*,*,#1094,.T.);
#829=CARTESIAN_POINT('',(-27.6736834,2.169531,-14.9));
#830=DIRECTION('',(5.60976323348314E-18,-0.242535625036333,-0.970142500145332));
#831=DIRECTION('',(0.0,-0.970142500145332,0.242535625036333));
#832=ORIENTED_EDGE('',*,*,#1180,.F.);
#833=ORIENTED_EDGE('',*,*,#1121,.T.);
#834=ORIENTED_EDGE('',*,*,#1181,.F.);
#835=ORIENTED_EDGE('',*,*,#1182,.T.);
#836=CARTESIAN_POINT('',(-25.127181,-3.830469,-14.825));
#837=DIRECTION('',(0.970142500145332,0.242535625036333,0.0));
#838=DIRECTION('',(0.0,0.0,-1.0));
#839=ORIENTED_EDGE('',*,*,#1082,.F.);
#840=ORIENTED_EDGE('',*,*,#1183,.T.);
#841=ORIENTED_EDGE('',*,*,#1184,.T.);
#842=ORIENTED_EDGE('',*,*,#1058,.T.);
#843=CARTESIAN_POINT('',(-25.202181,-0.899386891416333,-14.825));
#844=DIRECTION('',(0.0,0.0,1.0));
#845=DIRECTION('',(1.0,0.0,0.0));
#846=ORIENTED_EDGE('',*,*,#1080,.T.);
#847=ORIENTED_EDGE('',*,*,#1159,.T.);
#848=ORIENTED_EDGE('',*,*,#1185,.T.);
#849=ORIENTED_EDGE('',*,*,#1186,.F.);
#850=ORIENTED_EDGE('',*,*,#1187,.F.);
#851=ORIENTED_EDGE('',*,*,#1162,.F.);
#852=ORIENTED_EDGE('',*,*,#1188,.F.);
#853=ORIENTED_EDGE('',*,*,#1172,.F.);
#854=CARTESIAN_POINT('',(-25.318488408855,-2.27214112744177,-12.3));
#855=DIRECTION('',(0.0,0.0,1.0));
#856=DIRECTION('',(1.0,0.0,0.0));
#857=ORIENTED_EDGE('',*,*,#1088,.T.);
#858=ORIENTED_EDGE('',*,*,#1189,.F.);
#859=ORIENTED_EDGE('',*,*,#1190,.F.);
#860=ORIENTED_EDGE('',*,*,#1191,.F.);
#861=CARTESIAN_POINT('',(-25.0064534779416,-1.26276840239229,-13.925));
#862=DIRECTION('',(0.0,0.0,1.0));
#863=DIRECTION('',(1.0,0.0,0.0));
#864=ORIENTED_EDGE('',*,*,#1192,.T.);
#865=ORIENTED_EDGE('',*,*,#1189,.T.);
#866=ORIENTED_EDGE('',*,*,#1087,.T.);
#867=ORIENTED_EDGE('',*,*,#1193,.F.);
#868=CARTESIAN_POINT('',(-24.852181,-0.761551108583667,-13.575));
#869=DIRECTION('',(-1.0,0.0,0.0));
#870=DIRECTION('',(0.0,0.0,1.0));
#871=ORIENTED_EDGE('',*,*,#1190,.T.);
#872=ORIENTED_EDGE('',*,*,#1194,.F.);
#873=ORIENTED_EDGE('',*,*,#1195,.T.);
#874=ORIENTED_EDGE('',*,*,#1196,.F.);
#875=CARTESIAN_POINT('',(-27.6736834,-3.530469,-13.925));
#876=DIRECTION('',(-5.60976323348314E-18,-0.242535625036333,-0.970142500145332));
#877=DIRECTION('',(0.0,-0.970142500145332,0.242535625036333));
#878=ORIENTED_EDGE('',*,*,#1192,.F.);
#879=ORIENTED_EDGE('',*,*,#1197,.T.);
#880=ORIENTED_EDGE('',*,*,#1198,.F.);
#881=ORIENTED_EDGE('',*,*,#1194,.T.);
#882=CARTESIAN_POINT('',(-24.852181,-3.530469,-13.575));
#883=DIRECTION('',(-0.970142500145332,0.242535625036333,0.0));
#884=DIRECTION('',(0.0,0.0,1.0));
#885=ORIENTED_EDGE('',*,*,#1199,.T.);
#886=ORIENTED_EDGE('',*,*,#1195,.F.);
#887=ORIENTED_EDGE('',*,*,#1198,.T.);
#888=ORIENTED_EDGE('',*,*,#1200,.T.);
#889=CARTESIAN_POINT('',(-24.927181,-3.830469,-13.575));
#890=DIRECTION('',(-0.0,1.0,0.0));
#891=DIRECTION('',(1.0,0.0,0.0));
#892=ORIENTED_EDGE('',*,*,#1201,.F.);
#893=ORIENTED_EDGE('',*,*,#1196,.T.);
#894=ORIENTED_EDGE('',*,*,#1199,.F.);
#895=ORIENTED_EDGE('',*,*,#1202,.T.);
#896=CARTESIAN_POINT('',(-25.127181,-3.830469,-13.575));
#897=DIRECTION('',(0.970142500145332,0.242535625036333,0.0));
#898=DIRECTION('',(0.0,0.0,-1.0));
#899=ORIENTED_EDGE('',*,*,#1200,.F.);
#900=ORIENTED_EDGE('',*,*,#1197,.F.);
#901=ORIENTED_EDGE('',*,*,#1203,.F.);
#902=ORIENTED_EDGE('',*,*,#1202,.F.);
#903=CARTESIAN_POINT('',(-27.6736834,-3.830469,-13.65));
#904=DIRECTION('',(-5.60976323348314E-18,-0.242535625036333,0.970142500145332));
#905=DIRECTION('',(-1.0,2.31296463463575E-17,0.0));
#906=ORIENTED_EDGE('',*,*,#1090,.F.);
#907=ORIENTED_EDGE('',*,*,#1204,.T.);
#908=ORIENTED_EDGE('',*,*,#1203,.T.);
#909=ORIENTED_EDGE('',*,*,#1193,.T.);
#910=CARTESIAN_POINT('',(-25.202181,-0.899386891416333,-13.575));
#911=DIRECTION('',(0.0,0.0,1.0));
#912=DIRECTION('',(1.0,0.0,0.0));
#913=ORIENTED_EDGE('',*,*,#1204,.F.);
#914=ORIENTED_EDGE('',*,*,#1089,.T.);
#915=ORIENTED_EDGE('',*,*,#1191,.T.);
#916=ORIENTED_EDGE('',*,*,#1201,.T.);
#917=CARTESIAN_POINT('',(-25.202181,-6.130469,-13.925));
#918=DIRECTION('',(1.0,0.0,0.0));
#919=DIRECTION('',(0.0,1.0,0.0));
#920=ORIENTED_EDGE('',*,*,#1205,.F.);
#921=ORIENTED_EDGE('',*,*,#1126,.F.);
#922=ORIENTED_EDGE('',*,*,#1184,.F.);
#923=ORIENTED_EDGE('',*,*,#1182,.F.);
#924=CARTESIAN_POINT('',(-27.6736834,-3.830469,-14.9));
#925=DIRECTION('',(-5.60976323348314E-18,-0.242535625036333,0.970142500145332));
#926=DIRECTION('',(-1.0,2.31296463463575E-17,0.0));
#927=ORIENTED_EDGE('',*,*,#1127,.T.);
#928=ORIENTED_EDGE('',*,*,#1205,.T.);
#929=ORIENTED_EDGE('',*,*,#1181,.T.);
#930=ORIENTED_EDGE('',*,*,#1120,.F.);
#931=CARTESIAN_POINT('',(-24.927181,-3.830469,-14.825));
#932=DIRECTION('',(-0.0,1.0,0.0));
#933=DIRECTION('',(1.0,0.0,0.0));
#934=ORIENTED_EDGE('',*,*,#1183,.F.);
#935=ORIENTED_EDGE('',*,*,#1081,.T.);
#936=ORIENTED_EDGE('',*,*,#1039,.T.);
#937=ORIENTED_EDGE('',*,*,#1180,.T.);
#938=CARTESIAN_POINT('',(-25.202181,-6.130469,-15.175));
#939=DIRECTION('',(1.0,0.0,0.0));
#940=DIRECTION('',(0.0,1.0,0.0));
#941=ORIENTED_EDGE('',*,*,#1206,.T.);
#942=ORIENTED_EDGE('',*,*,#1113,.T.);
#943=ORIENTED_EDGE('',*,*,#1207,.T.);
#944=ORIENTED_EDGE('',*,*,#1174,.T.);
#945=CARTESIAN_POINT('',(-27.217181,2.669531,-13.275));
#946=DIRECTION('',(0.0,0.0,1.0));
#947=DIRECTION('',(1.0,0.0,0.0));
#948=ORIENTED_EDGE('',*,*,#1055,.T.);
#949=ORIENTED_EDGE('',*,*,#1208,.F.);
#950=ORIENTED_EDGE('',*,*,#1209,.T.);
#951=ORIENTED_EDGE('',*,*,#1185,.F.);
#952=ORIENTED_EDGE('',*,*,#1158,.F.);
#953=ORIENTED_EDGE('',*,*,#1106,.T.);
#954=ORIENTED_EDGE('',*,*,#1178,.F.);
#955=ORIENTED_EDGE('',*,*,#1164,.T.);
#956=CARTESIAN_POINT('',(-24.117181,2.769531,-18.45));
#957=DIRECTION('',(9.00424483238364E-15,-1.0,0.0));
#958=DIRECTION('',(0.0,0.0,-1.0));
#959=ORIENTED_EDGE('',*,*,#1210,.F.);
#960=ORIENTED_EDGE('',*,*,#1186,.T.);
#961=ORIENTED_EDGE('',*,*,#1209,.F.);
#962=ORIENTED_EDGE('',*,*,#1211,.F.);
#963=CARTESIAN_POINT('',(-24.992181,2.769531,-12.8));
#964=DIRECTION('',(1.0,-1.14383329197221E-17,0.0));
#965=DIRECTION('',(-1.14383329197221E-17,-1.0,0.0));
#966=ORIENTED_EDGE('',*,*,#1176,.F.);
#967=ORIENTED_EDGE('',*,*,#1212,.F.);
#968=ORIENTED_EDGE('',*,*,#1144,.T.);
#969=ORIENTED_EDGE('',*,*,#1040,.T.);
#970=CARTESIAN_POINT('',(-24.852181,-0.761551108583667,-14.825));
#971=DIRECTION('',(-1.0,0.0,0.0));
#972=DIRECTION('',(0.0,0.0,1.0));
#973=ORIENTED_EDGE('',*,*,#1212,.T.);
#974=ORIENTED_EDGE('',*,*,#1179,.F.);
#975=ORIENTED_EDGE('',*,*,#1169,.T.);
#976=ORIENTED_EDGE('',*,*,#1145,.F.);
#977=CARTESIAN_POINT('',(-25.202181,-0.899386891416333,-14.825));
#978=DIRECTION('',(0.0,0.0,1.0));
#979=DIRECTION('',(1.0,0.0,0.0));
#980=ORIENTED_EDGE('',*,*,#1114,.T.);
#981=ORIENTED_EDGE('',*,*,#1206,.F.);
#982=ORIENTED_EDGE('',*,*,#1173,.F.);
#983=ORIENTED_EDGE('',*,*,#1188,.T.);
#984=ORIENTED_EDGE('',*,*,#1161,.T.);
#985=ORIENTED_EDGE('',*,*,#1213,.T.);
#986=CARTESIAN_POINT('',(-26.567181,2.769531,-12.8));
#987=DIRECTION('',(-0.0,1.0,0.0));
#988=DIRECTION('',(1.0,0.0,0.0));
#989=ORIENTED_EDGE('',*,*,#1160,.T.);
#990=ORIENTED_EDGE('',*,*,#1214,.T.);
#991=ORIENTED_EDGE('',*,*,#1211,.T.);
#992=ORIENTED_EDGE('',*,*,#1208,.T.);
#993=ORIENTED_EDGE('',*,*,#1054,.F.);
#994=ORIENTED_EDGE('',*,*,#1137,.T.);
#995=ORIENTED_EDGE('',*,*,#1115,.T.);
#996=ORIENTED_EDGE('',*,*,#1213,.F.);
#997=CARTESIAN_POINT('',(-25.2508593649965,-0.647956744658188,-12.8));
#998=DIRECTION('',(0.0,0.0,-1.0));
#999=DIRECTION('',(0.0,-1.0,0.0));
#1000=ORIENTED_EDGE('',*,*,#1073,.T.);
#1001=ORIENTED_EDGE('',*,*,#1147,.T.);
#1002=ORIENTED_EDGE('',*,*,#1099,.T.);
#1003=ORIENTED_EDGE('',*,*,#1215,.T.);
#1004=CARTESIAN_POINT('',(-27.6736834,2.169531,-13.65));
#1005=DIRECTION('',(5.60976323348314E-18,-0.242535625036333,-0.970142500145332));
#1006=DIRECTION('',(0.0,-0.970142500145332,0.242535625036333));
#1007=ORIENTED_EDGE('',*,*,#1170,.T.);
#1008=ORIENTED_EDGE('',*,*,#1207,.F.);
#1009=ORIENTED_EDGE('',*,*,#1112,.T.);
#1010=ORIENTED_EDGE('',*,*,#1177,.T.);
#1011=CARTESIAN_POINT('',(-27.217181,0.969530999999999,-28.25));
#1012=DIRECTION('',(1.22460635382238E-16,-1.0,0.0));
#1013=DIRECTION('',(0.0,0.0,-1.0));
#1014=ORIENTED_EDGE('',*,*,#1163,.T.);
#1015=ORIENTED_EDGE('',*,*,#1187,.T.);
#1016=ORIENTED_EDGE('',*,*,#1210,.T.);
#1017=ORIENTED_EDGE('',*,*,#1214,.F.);
#1018=CARTESIAN_POINT('',(-25.4024247553731,1.769531,-12.2033263592789));
#1019=DIRECTION('',(-1.22460635382238E-16,-1.0,0.0));
#1020=DIRECTION('',(-1.0,1.22460635382238E-16,0.0));
#1021=ORIENTED_EDGE('',*,*,#1215,.F.);
#1022=ORIENTED_EDGE('',*,*,#1098,.F.);
#1023=ORIENTED_EDGE('',*,*,#1136,.T.);
#1024=ORIENTED_EDGE('',*,*,#1074,.F.);
#1025=CARTESIAN_POINT('',(-24.927181,2.169531,-13.575));
#1026=DIRECTION('',(-0.0,1.0,0.0));
#1027=DIRECTION('',(1.0,0.0,0.0));
#1028=ORIENTED_EDGE('',*,*,#1140,.T.);
#1029=ORIENTED_EDGE('',*,*,#1122,.T.);
#1030=ORIENTED_EDGE('',*,*,#1100,.F.);
#1031=ORIENTED_EDGE('',*,*,#1146,.F.);
#1032=CARTESIAN_POINT('',(-24.852181,-0.761551108583667,-13.575));
#1033=DIRECTION('',(-1.0,0.0,0.0));
#1034=DIRECTION('',(0.0,0.0,1.0));
#1035=COLOUR_RGB('',0.760784387588501,0.772549092769623,0.560784339904785);
#1036=EDGE_CURVE('',#1216,#1217,#1218,.T.);
#1037=EDGE_CURVE('',#1219,#1217,#1220,.T.);
#1038=EDGE_CURVE('',#1221,#1219,#1222,.T.);
#1039=EDGE_CURVE('',#1216,#1221,#1223,.T.);
#1040=EDGE_CURVE('',#1224,#1225,#1226,.T.);
#1041=EDGE_CURVE('',#1224,#1227,#1228,.T.);
#1042=EDGE_CURVE('',#1229,#1227,#1230,.T.);
#1043=EDGE_CURVE('',#1229,#1225,#1231,.T.);
#1044=EDGE_CURVE('',#1232,#1233,#1234,.T.);
#1045=EDGE_CURVE('',#1232,#1235,#1236,.T.);
#1046=EDGE_CURVE('',#1237,#1235,#1238,.T.);
#1047=EDGE_CURVE('',#1237,#1233,#1239,.T.);
#1048=EDGE_CURVE('',#1240,#1241,#1242,.T.);
#1049=EDGE_CURVE('',#1240,#1243,#1244,.T.);
#1050=EDGE_CURVE('',#1245,#1243,#1246,.T.);
#1051=EDGE_CURVE('',#1245,#1241,#1247,.T.);
#1052=EDGE_CURVE('',#1248,#1249,#1250,.T.);
#1053=EDGE_CURVE('',#1251,#1248,#1252,.T.);
#1054=EDGE_CURVE('',#1251,#1253,#1254,.T.);
#1055=EDGE_CURVE('',#1249,#1253,#1255,.T.);
#1056=EDGE_CURVE('',#1256,#1219,#1257,.T.);
#1057=EDGE_CURVE('',#1217,#1258,#1259,.T.);
#1058=EDGE_CURVE('',#1256,#1258,#1260,.T.);
#1059=EDGE_CURVE('',#1261,#1262,#1263,.T.);
#1060=EDGE_CURVE('',#1261,#1264,#1265,.T.);
#1061=EDGE_CURVE('',#1266,#1264,#1267,.T.);
#1062=EDGE_CURVE('',#1266,#1262,#1268,.T.);
#1063=EDGE_CURVE('',#1262,#1269,#1270,.T.);
#1064=EDGE_CURVE('',#1269,#1271,#1272,.T.);
#1065=EDGE_CURVE('',#1271,#1261,#1273,.T.);
#1066=EDGE_CURVE('',#1274,#1269,#1275,.T.);
#1067=EDGE_CURVE('',#1262,#1276,#1277,.T.);
#1068=EDGE_CURVE('',#1274,#1276,#1278,.T.);
#1069=EDGE_CURVE('',#1279,#1280,#1281,.T.);
#1070=EDGE_CURVE('',#1279,#1282,#1283,.T.);
#1071=EDGE_CURVE('',#1266,#1282,#1284,.T.);
#1072=EDGE_CURVE('',#1266,#1280,#1285,.T.);
#1073=EDGE_CURVE('',#1286,#1287,#1288,.T.);
#1074=EDGE_CURVE('',#1286,#1289,#1290,.T.);
#1075=EDGE_CURVE('',#1291,#1289,#1292,.T.);
#1076=EDGE_CURVE('',#1291,#1287,#1293,.T.);
#1077=EDGE_CURVE('',#1294,#1295,#1296,.T.);
#1078=EDGE_CURVE('',#1295,#1297,#1298,.T.);
#1079=EDGE_CURVE('',#1297,#1299,#1300,.T.);
#1080=EDGE_CURVE('',#1294,#1299,#1301,.T.);
#1081=EDGE_CURVE('',#1302,#1216,#1303,.T.);
#1082=EDGE_CURVE('',#1302,#1258,#1304,.T.);
#1083=EDGE_CURVE('',#1305,#1306,#1307,.T.);
#1084=EDGE_CURVE('',#1305,#1308,#1309,.T.);
#1085=EDGE_CURVE('',#1310,#1308,#1311,.T.);
#1086=EDGE_CURVE('',#1306,#1310,#1312,.T.);
#1087=EDGE_CURVE('',#1313,#1314,#1315,.T.);
#1088=EDGE_CURVE('',#1316,#1313,#1317,.T.);
#1089=EDGE_CURVE('',#1318,#1316,#1319,.T.);
#1090=EDGE_CURVE('',#1318,#1314,#1320,.T.);
#1091=EDGE_CURVE('',#1321,#1322,#1323,.T.);
#1092=EDGE_CURVE('',#1321,#1324,#1325,.T.);
#1093=EDGE_CURVE('',#1326,#1324,#1327,.T.);
#1094=EDGE_CURVE('',#1322,#1326,#1328,.T.);
#1095=EDGE_CURVE('',#1274,#1279,#1329,.T.);
#1096=EDGE_CURVE('',#1269,#1280,#1330,.T.);
#1097=EDGE_CURVE('',#1331,#1332,#1333,.T.);
#1098=EDGE_CURVE('',#1331,#1334,#1335,.T.);
#1099=EDGE_CURVE('',#1336,#1334,#1337,.T.);
#1100=EDGE_CURVE('',#1336,#1332,#1338,.T.);
#1101=EDGE_CURVE('',#1295,#1339,#1340,.T.);
#1102=EDGE_CURVE('',#1339,#1341,#1342,.T.);
#1103=EDGE_CURVE('',#1341,#1343,#1344,.T.);
#1104=EDGE_CURVE('',#1343,#1345,#1346,.T.);
#1105=EDGE_CURVE('',#1345,#1347,#1348,.T.);
#1106=EDGE_CURVE('',#1349,#1347,#1350,.T.);
#1107=EDGE_CURVE('',#1297,#1349,#1351,.T.);
#1108=EDGE_CURVE('',#1352,#1353,#1354,.T.);
#1109=EDGE_CURVE('',#1353,#1355,#1356,.T.);
#1110=EDGE_CURVE('',#1355,#1357,#1358,.T.);
#1111=EDGE_CURVE('',#1357,#1359,#1360,.T.);
#1112=EDGE_CURVE('',#1361,#1359,#1362,.T.);
#1113=EDGE_CURVE('',#1363,#1361,#1364,.T.);
#1114=EDGE_CURVE('',#1365,#1363,#1366,.T.);
#1115=EDGE_CURVE('',#1352,#1365,#1367,.T.);
#1116=EDGE_CURVE('',#1368,#1343,#1369,.T.);
#1117=EDGE_CURVE('',#1341,#1370,#1371,.T.);
#1118=EDGE_CURVE('',#1370,#1368,#1372,.T.);
#1119=EDGE_CURVE('',#1373,#1219,#1374,.T.);
#1120=EDGE_CURVE('',#1373,#1375,#1376,.T.);
#1121=EDGE_CURVE('',#1221,#1375,#1377,.T.);
#1122=EDGE_CURVE('',#1378,#1332,#1379,.T.);
#1123=EDGE_CURVE('',#1378,#1380,#1381,.T.);
#1124=EDGE_CURVE('',#1291,#1380,#1382,.T.);
#1125=EDGE_CURVE('',#1291,#1332,#1383,.T.);
#1126=EDGE_CURVE('',#1256,#1384,#1385,.T.);
#1127=EDGE_CURVE('',#1373,#1384,#1386,.T.);
#1128=EDGE_CURVE('',#1305,#1233,#1387,.T.);
#1129=EDGE_CURVE('',#1306,#1232,#1388,.T.);
#1130=EDGE_CURVE('',#1389,#1271,#1390,.T.);
#1131=EDGE_CURVE('',#1389,#1264,#1391,.T.);
#1132=EDGE_CURVE('',#1243,#1237,#1392,.T.);
#1133=EDGE_CURVE('',#1233,#1240,#1393,.T.);
#1134=EDGE_CURVE('',#1368,#1394,#1395,.T.);
#1135=EDGE_CURVE('',#1345,#1394,#1396,.T.);
#1136=EDGE_CURVE('',#1331,#1289,#1397,.T.);
#1137=EDGE_CURVE('',#1251,#1352,#1398,.T.);
#1138=EDGE_CURVE('',#1248,#1353,#1399,.T.);
#1139=EDGE_CURVE('',#1282,#1276,#1400,.T.);
#1140=EDGE_CURVE('',#1401,#1378,#1402,.T.);
#1141=EDGE_CURVE('',#1401,#1403,#1404,.T.);
#1142=EDGE_CURVE('',#1380,#1403,#1405,.T.);
#1143=EDGE_CURVE('',#1227,#1406,#1407,.T.);
#1144=EDGE_CURVE('',#1408,#1224,#1409,.T.);
#1145=EDGE_CURVE('',#1408,#1406,#1410,.T.);
#1146=EDGE_CURVE('',#1401,#1336,#1411,.T.);
#1147=EDGE_CURVE('',#1287,#1336,#1412,.T.);
#1148=EDGE_CURVE('',#1287,#1403,#1413,.T.);
#1149=EDGE_CURVE('',#1241,#1310,#1414,.T.);
#1150=EDGE_CURVE('',#1232,#1241,#1415,.T.);
#1151=EDGE_CURVE('',#1240,#1308,#1416,.T.);
#1152=EDGE_CURVE('',#1245,#1235,#1417,.T.);
#1153=EDGE_CURVE('',#1370,#1355,#1418,.T.);
#1154=EDGE_CURVE('',#1339,#1419,#1420,.T.);
#1155=EDGE_CURVE('',#1419,#1357,#1421,.T.);
#1156=EDGE_CURVE('',#1229,#1324,#1422,.T.);
#1157=EDGE_CURVE('',#1321,#1225,#1423,.T.);
#1158=EDGE_CURVE('',#1349,#1424,#1425,.T.);
#1159=EDGE_CURVE('',#1299,#1424,#1426,.T.);
#1160=EDGE_CURVE('',#1427,#1428,#1429,.T.);
#1161=EDGE_CURVE('',#1430,#1427,#1431,.T.);
#1162=EDGE_CURVE('',#1430,#1432,#1433,.T.);
#1163=EDGE_CURVE('',#1428,#1432,#1434,.T.);
#1164=EDGE_CURVE('',#1435,#1249,#1436,.T.);
#1165=EDGE_CURVE('',#1394,#1435,#1437,.T.);
#1166=EDGE_CURVE('',#1389,#1280,#1438,.T.);
#1167=EDGE_CURVE('',#1229,#1439,#1440,.T.);
#1168=EDGE_CURVE('',#1326,#1439,#1441,.T.);
#1169=EDGE_CURVE('',#1439,#1406,#1442,.T.);
#1170=EDGE_CURVE('',#1443,#1444,#1445,.T.);
#1171=EDGE_CURVE('',#1443,#1419,#1446,.T.);
#1172=EDGE_CURVE('',#1294,#1447,#1448,.T.);
#1173=EDGE_CURVE('',#1447,#1449,#1450,.T.);
#1174=EDGE_CURVE('',#1444,#1449,#1451,.T.);
#1175=EDGE_CURVE('',#1452,#1322,#1453,.T.);
#1176=EDGE_CURVE('',#1452,#1225,#1454,.T.);
#1177=EDGE_CURVE('',#1359,#1443,#1455,.T.);
#1178=EDGE_CURVE('',#1435,#1347,#1456,.T.);
#1179=EDGE_CURVE('',#1439,#1452,#1457,.T.);
#1180=EDGE_CURVE('',#1221,#1458,#1459,.T.);
#1181=EDGE_CURVE('',#1460,#1375,#1461,.T.);
#1182=EDGE_CURVE('',#1460,#1458,#1462,.T.);
#1183=EDGE_CURVE('',#1302,#1458,#1463,.T.);
#1184=EDGE_CURVE('',#1458,#1256,#1464,.T.);
#1185=EDGE_CURVE('',#1424,#1465,#1466,.T.);
#1186=EDGE_CURVE('',#1467,#1465,#1468,.T.);
#1187=EDGE_CURVE('',#1432,#1467,#1469,.T.);
#1188=EDGE_CURVE('',#1447,#1430,#1470,.T.);
#1189=EDGE_CURVE('',#1471,#1313,#1472,.T.);
#1190=EDGE_CURVE('',#1473,#1471,#1474,.T.);
#1191=EDGE_CURVE('',#1316,#1473,#1475,.T.);
#1192=EDGE_CURVE('',#1476,#1471,#1477,.T.);
#1193=EDGE_CURVE('',#1476,#1314,#1478,.T.);
#1194=EDGE_CURVE('',#1479,#1471,#1480,.T.);
#1195=EDGE_CURVE('',#1479,#1481,#1482,.T.);
#1196=EDGE_CURVE('',#1473,#1481,#1483,.T.);
#1197=EDGE_CURVE('',#1476,#1484,#1485,.T.);
#1198=EDGE_CURVE('',#1479,#1484,#1486,.T.);
#1199=EDGE_CURVE('',#1487,#1481,#1488,.T.);
#1200=EDGE_CURVE('',#1484,#1487,#1489,.T.);
#1201=EDGE_CURVE('',#1473,#1490,#1491,.T.);
#1202=EDGE_CURVE('',#1487,#1490,#1492,.T.);
#1203=EDGE_CURVE('',#1490,#1476,#1493,.T.);
#1204=EDGE_CURVE('',#1318,#1490,#1494,.T.);
#1205=EDGE_CURVE('',#1384,#1460,#1495,.T.);
#1206=EDGE_CURVE('',#1449,#1363,#1496,.T.);
#1207=EDGE_CURVE('',#1361,#1444,#1497,.T.);
#1208=EDGE_CURVE('',#1498,#1253,#1499,.T.);
#1209=EDGE_CURVE('',#1498,#1465,#1500,.T.);
#1210=EDGE_CURVE('',#1467,#1501,#1502,.T.);
#1211=EDGE_CURVE('',#1501,#1498,#1503,.T.);
#1212=EDGE_CURVE('',#1408,#1452,#1504,.T.);
#1213=EDGE_CURVE('',#1427,#1365,#1505,.T.);
#1214=EDGE_CURVE('',#1428,#1501,#1506,.T.);
#1215=EDGE_CURVE('',#1334,#1286,#1507,.T.);
#1216=VERTEX_POINT('',#1508);
#1217=VERTEX_POINT('',#1509);
#1218=LINE('',#1510,#1511);
#1219=VERTEX_POINT('',#1512);
#1220=LINE('',#1513,#1514);
#1221=VERTEX_POINT('',#1515);
#1222=LINE('',#1516,#1517);
#1223=LINE('',#1518,#1519);
#1224=VERTEX_POINT('',#1520);
#1225=VERTEX_POINT('',#1521);
#1226=LINE('',#1522,#1523);
#1227=VERTEX_POINT('',#1524);
#1228=LINE('',#1525,#1526);
#1229=VERTEX_POINT('',#1527);
#1230=LINE('',#1528,#1529);
#1231=LINE('',#1530,#1531);
#1232=VERTEX_POINT('',#1532);
#1233=VERTEX_POINT('',#1533);
#1234=LINE('',#1534,#1535);
#1235=VERTEX_POINT('',#1536);
#1236=LINE('',#1537,#1538);
#1237=VERTEX_POINT('',#1539);
#1238=LINE('',#1540,#1541);
#1239=LINE('',#1542,#1543);
#1240=VERTEX_POINT('',#1544);
#1241=VERTEX_POINT('',#1545);
#1242=LINE('',#1546,#1547);
#1243=VERTEX_POINT('',#1548);
#1244=LINE('',#1549,#1550);
#1245=VERTEX_POINT('',#1551);
#1246=LINE('',#1552,#1553);
#1247=LINE('',#1554,#1555);
#1248=VERTEX_POINT('',#1556);
#1249=VERTEX_POINT('',#1557);
#1250=LINE('',#1558,#1559);
#1251=VERTEX_POINT('',#1560);
#1252=LINE('',#1561,#1562);
#1253=VERTEX_POINT('',#1563);
#1254=LINE('',#1564,#1565);
#1255=LINE('',#1566,#1567);
#1256=VERTEX_POINT('',#1568);
#1257=LINE('',#1569,#1570);
#1258=VERTEX_POINT('',#1571);
#1259=LINE('',#1572,#1573);
#1260=LINE('',#1574,#1575);
#1261=VERTEX_POINT('',#1576);
#1262=VERTEX_POINT('',#1577);
#1263=LINE('',#1578,#1579);
#1264=VERTEX_POINT('',#1580);
#1265=LINE('',#1581,#1582);
#1266=VERTEX_POINT('',#1583);
#1267=LINE('',#1584,#1585);
#1268=LINE('',#1586,#1587);
#1269=VERTEX_POINT('',#1588);
#1270=LINE('',#1589,#1590);
#1271=VERTEX_POINT('',#1591);
#1272=LINE('',#1592,#1593);
#1273=LINE('',#1594,#1595);
#1274=VERTEX_POINT('',#1596);
#1275=LINE('',#1597,#1598);
#1276=VERTEX_POINT('',#1599);
#1277=LINE('',#1600,#1601);
#1278=LINE('',#1602,#1603);
#1279=VERTEX_POINT('',#1604);
#1280=VERTEX_POINT('',#1605);
#1281=LINE('',#1606,#1607);
#1282=VERTEX_POINT('',#1608);
#1283=LINE('',#1609,#1610);
#1284=LINE('',#1611,#1612);
#1285=LINE('',#1613,#1614);
#1286=VERTEX_POINT('',#1615);
#1287=VERTEX_POINT('',#1616);
#1288=LINE('',#1617,#1618);
#1289=VERTEX_POINT('',#1619);
#1290=LINE('',#1620,#1621);
#1291=VERTEX_POINT('',#1622);
#1292=LINE('',#1623,#1624);
#1293=LINE('',#1625,#1626);
#1294=VERTEX_POINT('',#1627);
#1295=VERTEX_POINT('',#1628);
#1296=LINE('',#1629,#1630);
#1297=VERTEX_POINT('',#1631);
#1298=LINE('',#1632,#1633);
#1299=VERTEX_POINT('',#1634);
#1300=LINE('',#1635,#1636);
#1301=LINE('',#1637,#1638);
#1302=VERTEX_POINT('',#1639);
#1303=LINE('',#1640,#1641);
#1304=LINE('',#1642,#1643);
#1305=VERTEX_POINT('',#1644);
#1306=VERTEX_POINT('',#1645);
#1307=LINE('',#1646,#1647);
#1308=VERTEX_POINT('',#1648);
#1309=LINE('',#1649,#1650);
#1310=VERTEX_POINT('',#1651);
#1311=LINE('',#1652,#1653);
#1312=LINE('',#1654,#1655);
#1313=VERTEX_POINT('',#1656);
#1314=VERTEX_POINT('',#1657);
#1315=LINE('',#1658,#1659);
#1316=VERTEX_POINT('',#1660);
#1317=LINE('',#1661,#1662);
#1318=VERTEX_POINT('',#1663);
#1319=LINE('',#1664,#1665);
#1320=LINE('',#1666,#1667);
#1321=VERTEX_POINT('',#1668);
#1322=VERTEX_POINT('',#1669);
#1323=LINE('',#1670,#1671);
#1324=VERTEX_POINT('',#1672);
#1325=LINE('',#1673,#1674);
#1326=VERTEX_POINT('',#1675);
#1327=LINE('',#1676,#1677);
#1328=LINE('',#1678,#1679);
#1329=LINE('',#1680,#1681);
#1330=LINE('',#1682,#1683);
#1331=VERTEX_POINT('',#1684);
#1332=VERTEX_POINT('',#1685);
#1333=LINE('',#1686,#1687);
#1334=VERTEX_POINT('',#1688);
#1335=LINE('',#1689,#1690);
#1336=VERTEX_POINT('',#1691);
#1337=LINE('',#1692,#1693);
#1338=LINE('',#1694,#1695);
#1339=VERTEX_POINT('',#1696);
#1340=LINE('',#1697,#1698);
#1341=VERTEX_POINT('',#1699);
#1342=LINE('',#1700,#1701);
#1343=VERTEX_POINT('',#1702);
#1344=LINE('',#1703,#1704);
#1345=VERTEX_POINT('',#1705);
#1346=LINE('',#1706,#1707);
#1347=VERTEX_POINT('',#1708);
#1348=LINE('',#1709,#1710);
#1349=VERTEX_POINT('',#1711);
#1350=LINE('',#1712,#1713);
#1351=LINE('',#1714,#1715);
#1352=VERTEX_POINT('',#1716);
#1353=VERTEX_POINT('',#1717);
#1354=LINE('',#1718,#1719);
#1355=VERTEX_POINT('',#1720);
#1356=LINE('',#1721,#1722);
#1357=VERTEX_POINT('',#1723);
#1358=LINE('',#1724,#1725);
#1359=VERTEX_POINT('',#1726);
#1360=LINE('',#1727,#1728);
#1361=VERTEX_POINT('',#1729);
#1362=LINE('',#1730,#1731);
#1363=VERTEX_POINT('',#1732);
#1364=LINE('',#1733,#1734);
#1365=VERTEX_POINT('',#1735);
#1366=LINE('',#1736,#1737);
#1367=LINE('',#1738,#1739);
#1368=VERTEX_POINT('',#1740);
#1369=LINE('',#1741,#1742);
#1370=VERTEX_POINT('',#1743);
#1371=LINE('',#1744,#1745);
#1372=LINE('',#1746,#1747);
#1373=VERTEX_POINT('',#1748);
#1374=LINE('',#1749,#1750);
#1375=VERTEX_POINT('',#1751);
#1376=LINE('',#1752,#1753);
#1377=LINE('',#1754,#1755);
#1378=VERTEX_POINT('',#1756);
#1379=LINE('',#1757,#1758);
#1380=VERTEX_POINT('',#1759);
#1381=LINE('',#1760,#1761);
#1382=LINE('',#1762,#1763);
#1383=LINE('',#1764,#1765);
#1384=VERTEX_POINT('',#1766);
#1385=LINE('',#1767,#1768);
#1386=LINE('',#1769,#1770);
#1387=LINE('',#1771,#1772);
#1388=LINE('',#1773,#1774);
#1389=VERTEX_POINT('',#1775);
#1390=LINE('',#1776,#1777);
#1391=LINE('',#1778,#1779);
#1392=LINE('',#1780,#1781);
#1393=LINE('',#1782,#1783);
#1394=VERTEX_POINT('',#1784);
#1395=LINE('',#1785,#1786);
#1396=LINE('',#1787,#1788);
#1397=LINE('',#1789,#1790);
#1398=LINE('',#1791,#1792);
#1399=LINE('',#1793,#1794);
#1400=LINE('',#1795,#1796);
#1401=VERTEX_POINT('',#1797);
#1402=LINE('',#1798,#1799);
#1403=VERTEX_POINT('',#1800);
#1404=LINE('',#1801,#1802);
#1405=LINE('',#1803,#1804);
#1406=VERTEX_POINT('',#1805);
#1407=LINE('',#1806,#1807);
#1408=VERTEX_POINT('',#1808);
#1409=LINE('',#1809,#1810);
#1410=LINE('',#1811,#1812);
#1411=LINE('',#1813,#1814);
#1412=LINE('',#1815,#1816);
#1413=LINE('',#1817,#1818);
#1414=LINE('',#1819,#1820);
#1415=LINE('',#1821,#1822);
#1416=LINE('',#1823,#1824);
#1417=LINE('',#1825,#1826);
#1418=LINE('',#1827,#1828);
#1419=VERTEX_POINT('',#1829);
#1420=LINE('',#1830,#1831);
#1421=LINE('',#1832,#1833);
#1422=LINE('',#1834,#1835);
#1423=LINE('',#1836,#1837);
#1424=VERTEX_POINT('',#1838);
#1425=LINE('',#1839,#1840);
#1426=LINE('',#1841,#1842);
#1427=VERTEX_POINT('',#1843);
#1428=VERTEX_POINT('',#1844);
#1429=LINE('',#1845,#1846);
#1430=VERTEX_POINT('',#1847);
#1431=LINE('',#1848,#1849);
#1432=VERTEX_POINT('',#1850);
#1433=LINE('',#1851,#1852);
#1434=LINE('',#1853,#1854);
#1435=VERTEX_POINT('',#1855);
#1436=LINE('',#1856,#1857);
#1437=LINE('',#1858,#1859);
#1438=LINE('',#1860,#1861);
#1439=VERTEX_POINT('',#1862);
#1440=LINE('',#1863,#1864);
#1441=LINE('',#1865,#1866);
#1442=LINE('',#1867,#1868);
#1443=VERTEX_POINT('',#1869);
#1444=VERTEX_POINT('',#1870);
#1445=LINE('',#1871,#1872);
#1446=LINE('',#1873,#1874);
#1447=VERTEX_POINT('',#1875);
#1448=LINE('',#1876,#1877);
#1449=VERTEX_POINT('',#1878);
#1450=LINE('',#1879,#1880);
#1451=LINE('',#1881,#1882);
#1452=VERTEX_POINT('',#1883);
#1453=LINE('',#1884,#1885);
#1454=LINE('',#1886,#1887);
#1455=LINE('',#1888,#1889);
#1456=LINE('',#1890,#1891);
#1457=LINE('',#1892,#1893);
#1458=VERTEX_POINT('',#1894);
#1459=LINE('',#1895,#1896);
#1460=VERTEX_POINT('',#1897);
#1461=LINE('',#1898,#1899);
#1462=LINE('',#1900,#1901);
#1463=LINE('',#1902,#1903);
#1464=LINE('',#1904,#1905);
#1465=VERTEX_POINT('',#1906);
#1466=LINE('',#1907,#1908);
#1467=VERTEX_POINT('',#1909);
#1468=LINE('',#1910,#1911);
#1469=LINE('',#1912,#1913);
#1470=LINE('',#1914,#1915);
#1471=VERTEX_POINT('',#1916);
#1472=LINE('',#1917,#1918);
#1473=VERTEX_POINT('',#1919);
#1474=LINE('',#1920,#1921);
#1475=LINE('',#1922,#1923);
#1476=VERTEX_POINT('',#1924);
#1477=LINE('',#1925,#1926);
#1478=LINE('',#1927,#1928);
#1479=VERTEX_POINT('',#1929);
#1480=LINE('',#1930,#1931);
#1481=VERTEX_POINT('',#1932);
#1482=LINE('',#1933,#1934);
#1483=LINE('',#1935,#1936);
#1484=VERTEX_POINT('',#1937);
#1485=LINE('',#1938,#1939);
#1486=LINE('',#1940,#1941);
#1487=VERTEX_POINT('',#1942);
#1488=LINE('',#1943,#1944);
#1489=LINE('',#1945,#1946);
#1490=VERTEX_POINT('',#1947);
#1491=LINE('',#1948,#1949);
#1492=LINE('',#1950,#1951);
#1493=LINE('',#1952,#1953);
#1494=LINE('',#1954,#1955);
#1495=LINE('',#1956,#1957);
#1496=LINE('',#1958,#1959);
#1497=LINE('',#1960,#1961);
#1498=VERTEX_POINT('',#1962);
#1499=LINE('',#1963,#1964);
#1500=LINE('',#1965,#1966);
#1501=VERTEX_POINT('',#1967);
#1502=LINE('',#1968,#1969);
#1503=LINE('',#1970,#1971);
#1504=LINE('',#1972,#1973);
#1505=LINE('',#1974,#1975);
#1506=LINE('',#1976,#1977);
#1507=LINE('',#1978,#1979);
#1508=CARTESIAN_POINT('',(-25.202181,-1.530469,-15.175));
#1509=CARTESIAN_POINT('',(-24.852181,-1.530469,-15.175));
#1510=CARTESIAN_POINT('',(-25.0,-1.530469,-15.175));
#1511=VECTOR('',#1980,1.0);
#1512=CARTESIAN_POINT('',(-24.852181,-3.530469,-15.175));
#1513=CARTESIAN_POINT('',(-24.852181,-7.26276840239229,-15.175));
#1514=VECTOR('',#1981,1.0);
#1515=CARTESIAN_POINT('',(-25.202181,-3.530469,-15.175));
#1516=CARTESIAN_POINT('',(-25.0064534779416,-3.530469,-15.175));
#1517=VECTOR('',#1982,1.0);
#1518=CARTESIAN_POINT('',(-25.202181,4.469531,-15.175));
#1519=VECTOR('',#1983,1.0);
#1520=CARTESIAN_POINT('',(-24.852181,-0.230469,-15.175));
#1521=CARTESIAN_POINT('',(-24.852181,1.869531,-15.175));
#1522=CARTESIAN_POINT('',(-24.852181,-7.26276840239229,-15.175));
#1523=VECTOR('',#1984,1.0);
#1524=CARTESIAN_POINT('',(-25.202181,-0.230469,-15.175));
#1525=CARTESIAN_POINT('',(-25.0,-0.230469,-15.175));
#1526=VECTOR('',#1985,1.0);
#1527=CARTESIAN_POINT('',(-25.202181,1.869531,-15.175));
#1528=CARTESIAN_POINT('',(-25.202181,4.469531,-15.175));
#1529=VECTOR('',#1986,1.0);
#1530=CARTESIAN_POINT('',(-25.0064534779416,1.869531,-15.175));
#1531=VECTOR('',#1987,1.0);
#1532=CARTESIAN_POINT('',(-25.202181,-3.530469,-16.425));
#1533=CARTESIAN_POINT('',(-25.202181,-3.530469,-16.075));
#1534=CARTESIAN_POINT('',(-25.202181,-3.530469,-16.075));
#1535=VECTOR('',#1988,1.0);
#1536=CARTESIAN_POINT('',(-25.127181,-3.830469,-16.35));
#1537=CARTESIAN_POINT('',(-25.7691061494019,-1.26276840239229,-16.9919251494019));
#1538=VECTOR('',#1989,1.0);
#1539=CARTESIAN_POINT('',(-25.127181,-3.830469,-16.15));
#1540=CARTESIAN_POINT('',(-25.127181,-3.830469,-16.075));
#1541=VECTOR('',#1990,1.0);
#1542=CARTESIAN_POINT('',(-25.7691061494019,-1.26276840239229,-15.5080748505981));
#1543=VECTOR('',#1991,1.0);
#1544=CARTESIAN_POINT('',(-24.852181,-3.530469,-16.075));
#1545=CARTESIAN_POINT('',(-24.852181,-3.530469,-16.425));
#1546=CARTESIAN_POINT('',(-24.852181,-3.530469,-16.075));
#1547=VECTOR('',#1992,1.0);
#1548=CARTESIAN_POINT('',(-24.927181,-3.830469,-16.15));
#1549=CARTESIAN_POINT('',(-24.2852558505981,-1.26276840239229,-15.5080748505981));
#1550=VECTOR('',#1993,1.0);
#1551=CARTESIAN_POINT('',(-24.927181,-3.830469,-16.35));
#1552=CARTESIAN_POINT('',(-24.927181,-3.830469,-16.075));
#1553=VECTOR('',#1994,1.0);
#1554=CARTESIAN_POINT('',(-24.2852558505981,-1.26276840239229,-16.9919251494019));
#1555=VECTOR('',#1995,1.0);
#1556=CARTESIAN_POINT('',(-24.217181,-0.230469000000001,-17.2));
#1557=CARTESIAN_POINT('',(-24.217181,2.769531,-17.2));
#1558=CARTESIAN_POINT('',(-24.217181,3.17909117054313E-16,-17.2));
#1559=VECTOR('',#1996,1.0);
#1560=CARTESIAN_POINT('',(-24.217181,-0.230469000000001,-12.8));
#1561=CARTESIAN_POINT('',(-24.217181,-0.230469000000001,-15.625));
#1562=VECTOR('',#1997,1.0);
#1563=CARTESIAN_POINT('',(-24.217181,2.769531,-12.8));
#1564=CARTESIAN_POINT('',(-24.217181,0.0,-12.8));
#1565=VECTOR('',#1998,1.0);
#1566=CARTESIAN_POINT('',(-24.217181,2.769531,-23.45));
#1567=VECTOR('',#1999,1.0);
#1568=CARTESIAN_POINT('',(-24.852181,-3.530469,-14.825));
#1569=CARTESIAN_POINT('',(-24.852181,-3.530469,-14.825));
#1570=VECTOR('',#2000,1.0);
#1571=CARTESIAN_POINT('',(-24.852181,-1.530469,-14.825));
#1572=CARTESIAN_POINT('',(-24.852181,-1.530469,-6.875));
#1573=VECTOR('',#2001,1.0);
#1574=CARTESIAN_POINT('',(-24.852181,-0.761551108583667,-14.825));
#1575=VECTOR('',#2002,1.0);
#1576=CARTESIAN_POINT('',(-25.127181,2.169531,-16.15));
#1577=CARTESIAN_POINT('',(-25.202181,1.869531,-16.075));
#1578=CARTESIAN_POINT('',(-25.7691061494019,-0.398169597607712,-15.5080748505981));
#1579=VECTOR('',#2003,1.0);
#1580=CARTESIAN_POINT('',(-25.127181,2.169531,-16.35));
#1581=CARTESIAN_POINT('',(-25.127181,2.169531,-16.075));
#1582=VECTOR('',#2004,1.0);
#1583=CARTESIAN_POINT('',(-25.202181,1.869531,-16.425));
#1584=CARTESIAN_POINT('',(-25.7691061494019,-0.398169597607712,-16.9919251494019));
#1585=VECTOR('',#2005,1.0);
#1586=CARTESIAN_POINT('',(-25.202181,1.869531,-16.075));
#1587=VECTOR('',#2006,1.0);
#1588=CARTESIAN_POINT('',(-24.852181,1.869531,-16.075));
#1589=CARTESIAN_POINT('',(-25.0064534779416,1.869531,-16.075));
#1590=VECTOR('',#2007,1.0);
#1591=CARTESIAN_POINT('',(-24.927181,2.169531,-16.15));
#1592=CARTESIAN_POINT('',(-24.2852558505981,-0.398169597607712,-15.5080748505981));
#1593=VECTOR('',#2008,1.0);
#1594=CARTESIAN_POINT('',(-25.0064534779416,2.169531,-16.15));
#1595=VECTOR('',#2009,1.0);
#1596=CARTESIAN_POINT('',(-24.852181,-0.230469,-16.075));
#1597=CARTESIAN_POINT('',(-24.852181,-0.761551108583667,-16.075));
#1598=VECTOR('',#2010,1.0);
#1599=CARTESIAN_POINT('',(-25.202181,-0.230469,-16.075));
#1600=CARTESIAN_POINT('',(-25.202181,5.10061310858367,-16.075));
#1601=VECTOR('',#2011,1.0);
#1602=CARTESIAN_POINT('',(-25.0,-0.230469,-16.075));
#1603=VECTOR('',#2012,1.0);
#1604=CARTESIAN_POINT('',(-24.852181,-0.230469,-16.425));
#1605=CARTESIAN_POINT('',(-24.852181,1.869531,-16.425));
#1606=CARTESIAN_POINT('',(-24.852181,-7.26276840239229,-16.425));
#1607=VECTOR('',#2013,1.0);
#1608=CARTESIAN_POINT('',(-25.202181,-0.230469,-16.425));
#1609=CARTESIAN_POINT('',(-25.0,-0.230469,-16.425));
#1610=VECTOR('',#2014,1.0);
#1611=CARTESIAN_POINT('',(-25.202181,4.469531,-16.425));
#1612=VECTOR('',#2015,1.0);
#1613=CARTESIAN_POINT('',(-25.0064534779416,1.869531,-16.425));
#1614=VECTOR('',#2016,1.0);
#1615=CARTESIAN_POINT('',(-25.127181,2.169531,-13.65));
#1616=CARTESIAN_POINT('',(-25.202181,1.869531,-13.575));
#1617=CARTESIAN_POINT('',(-25.7691061494019,-0.398169597607712,-13.0080748505981));
#1618=VECTOR('',#2017,1.0);
#1619=CARTESIAN_POINT('',(-25.127181,2.169531,-13.85));
#1620=CARTESIAN_POINT('',(-25.127181,2.169531,-13.575));
#1621=VECTOR('',#2018,1.0);
#1622=CARTESIAN_POINT('',(-25.202181,1.869531,-13.925));
#1623=CARTESIAN_POINT('',(-25.7691061494019,-0.398169597607712,-14.4919251494019));
#1624=VECTOR('',#2019,1.0);
#1625=CARTESIAN_POINT('',(-25.202181,1.869531,-13.575));
#1626=VECTOR('',#2020,1.0);
#1627=CARTESIAN_POINT('',(-27.217181,-1.530469,-12.3));
#1628=CARTESIAN_POINT('',(-27.217181,-1.530469,-17.7));
#1629=CARTESIAN_POINT('',(-27.217181,-1.530469,-30.625));
#1630=VECTOR('',#2021,1.0);
#1631=CARTESIAN_POINT('',(-23.817181,-1.530469,-17.7));
#1632=CARTESIAN_POINT('',(-25.0,-1.530469,-17.7));
#1633=VECTOR('',#2022,1.0);
#1634=CARTESIAN_POINT('',(-23.817181,-1.530469,-12.3));
#1635=CARTESIAN_POINT('',(-23.817181,-1.530469,-30.625));
#1636=VECTOR('',#2023,1.0);
#1637=CARTESIAN_POINT('',(-25.0,-1.530469,-12.3));
#1638=VECTOR('',#2024,1.0);
#1639=CARTESIAN_POINT('',(-25.202181,-1.530469,-14.825));
#1640=CARTESIAN_POINT('',(-25.202181,-1.530469,-6.875));
#1641=VECTOR('',#2025,1.0);
#1642=CARTESIAN_POINT('',(-25.0,-1.530469,-14.825));
#1643=VECTOR('',#2026,1.0);
#1644=CARTESIAN_POINT('',(-25.202181,-1.530469,-16.075));
#1645=CARTESIAN_POINT('',(-25.202181,-1.530469,-16.425));
#1646=CARTESIAN_POINT('',(-25.202181,-1.530469,8.125));
#1647=VECTOR('',#2027,1.0);
#1648=CARTESIAN_POINT('',(-24.852181,-1.530469,-16.075));
#1649=CARTESIAN_POINT('',(-25.0,-1.530469,-16.075));
#1650=VECTOR('',#2028,1.0);
#1651=CARTESIAN_POINT('',(-24.852181,-1.530469,-16.425));
#1652=CARTESIAN_POINT('',(-24.852181,-1.530469,8.125));
#1653=VECTOR('',#2029,1.0);
#1654=CARTESIAN_POINT('',(-25.0,-1.530469,-16.425));
#1655=VECTOR('',#2030,1.0);
#1656=CARTESIAN_POINT('',(-24.852181,-1.530469,-13.925));
#1657=CARTESIAN_POINT('',(-24.852181,-1.530469,-13.575));
#1658=CARTESIAN_POINT('',(-24.852181,-1.530469,-6.875));
#1659=VECTOR('',#2031,1.0);
#1660=CARTESIAN_POINT('',(-25.202181,-1.530469,-13.925));
#1661=CARTESIAN_POINT('',(-25.0,-1.530469,-13.925));
#1662=VECTOR('',#2032,1.0);
#1663=CARTESIAN_POINT('',(-25.202181,-1.530469,-13.575));
#1664=CARTESIAN_POINT('',(-25.202181,-1.530469,-6.875));
#1665=VECTOR('',#2033,1.0);
#1666=CARTESIAN_POINT('',(-25.0,-1.530469,-13.575));
#1667=VECTOR('',#2034,1.0);
#1668=CARTESIAN_POINT('',(-24.927181,2.169531,-15.1));
#1669=CARTESIAN_POINT('',(-24.927181,2.169531,-14.9));
#1670=CARTESIAN_POINT('',(-24.927181,2.169531,-14.825));
#1671=VECTOR('',#2035,1.0);
#1672=CARTESIAN_POINT('',(-25.127181,2.169531,-15.1));
#1673=CARTESIAN_POINT('',(-25.0064534779416,2.169531,-15.1));
#1674=VECTOR('',#2036,1.0);
#1675=CARTESIAN_POINT('',(-25.127181,2.169531,-14.9));
#1676=CARTESIAN_POINT('',(-25.127181,2.169531,-14.825));
#1677=VECTOR('',#2037,1.0);
#1678=CARTESIAN_POINT('',(-25.0064534779416,2.169531,-14.9));
#1679=VECTOR('',#2038,1.0);
#1680=CARTESIAN_POINT('',(-24.852181,-0.230469,8.125));
#1681=VECTOR('',#2039,1.0);
#1682=CARTESIAN_POINT('',(-24.852181,1.869531,-16.075));
#1683=VECTOR('',#2040,1.0);
#1684=CARTESIAN_POINT('',(-24.927181,2.169531,-13.85));
#1685=CARTESIAN_POINT('',(-24.852181,1.869531,-13.925));
#1686=CARTESIAN_POINT('',(-24.2852558505981,-0.398169597607712,-14.4919251494019));
#1687=VECTOR('',#2041,1.0);
#1688=CARTESIAN_POINT('',(-24.927181,2.169531,-13.65));
#1689=CARTESIAN_POINT('',(-24.927181,2.169531,-13.575));
#1690=VECTOR('',#2042,1.0);
#1691=CARTESIAN_POINT('',(-24.852181,1.869531,-13.575));
#1692=CARTESIAN_POINT('',(-24.2852558505981,-0.398169597607712,-13.0080748505981));
#1693=VECTOR('',#2043,1.0);
#1694=CARTESIAN_POINT('',(-24.852181,1.869531,-13.575));
#1695=VECTOR('',#2044,1.0);
#1696=CARTESIAN_POINT('',(-27.217181,2.769531,-17.7));
#1697=CARTESIAN_POINT('',(-27.217181,-4.94727890923938E-17,-17.7));
#1698=VECTOR('',#2045,1.0);
#1699=CARTESIAN_POINT('',(-25.792181,2.769531,-17.7));
#1700=CARTESIAN_POINT('',(-25.0,2.769531,-17.7));
#1701=VECTOR('',#2046,1.0);
#1702=CARTESIAN_POINT('',(-25.792181,1.769531,-17.7));
#1703=CARTESIAN_POINT('',(-25.792181,2.769531,-17.7));
#1704=VECTOR('',#2047,1.0);
#1705=CARTESIAN_POINT('',(-24.992181,1.769531,-17.7));
#1706=CARTESIAN_POINT('',(-25.0,1.769531,-17.7));
#1707=VECTOR('',#2048,1.0);
#1708=CARTESIAN_POINT('',(-24.992181,2.769531,-17.7));
#1709=CARTESIAN_POINT('',(-24.992181,-6.66133814775094E-16,-17.7));
#1710=VECTOR('',#2049,1.0);
#1711=CARTESIAN_POINT('',(-23.817181,2.769531,-17.7));
#1712=CARTESIAN_POINT('',(-24.892181,2.769531,-17.7));
#1713=VECTOR('',#2050,1.0);
#1714=CARTESIAN_POINT('',(-23.817181,-6.66133814775094E-16,-17.7));
#1715=VECTOR('',#2051,1.0);
#1716=CARTESIAN_POINT('',(-26.567181,-0.230469000000001,-12.8));
#1717=CARTESIAN_POINT('',(-26.567181,-0.230469000000001,-17.2));
#1718=CARTESIAN_POINT('',(-26.567181,-0.230469,-13.125));
#1719=VECTOR('',#2052,1.0);
#1720=CARTESIAN_POINT('',(-26.567181,2.769531,-17.2));
#1721=CARTESIAN_POINT('',(-26.567181,-6.66133814775094E-16,-17.2));
#1722=VECTOR('',#2053,1.0);
#1723=CARTESIAN_POINT('',(-26.567181,2.769531,-16.725));
#1724=CARTESIAN_POINT('',(-26.567181,2.769531,-17.2));
#1725=VECTOR('',#2054,1.0);
#1726=CARTESIAN_POINT('',(-26.567181,0.969530999999999,-16.725));
#1727=CARTESIAN_POINT('',(-26.567181,-6.66133814775094E-16,-16.725));
#1728=VECTOR('',#2055,1.0);
#1729=CARTESIAN_POINT('',(-26.567181,0.969530999999999,-13.275));
#1730=CARTESIAN_POINT('',(-26.567181,0.969530999999999,-29.375));
#1731=VECTOR('',#2056,1.0);
#1732=CARTESIAN_POINT('',(-26.567181,2.769531,-13.275));
#1733=CARTESIAN_POINT('',(-26.567181,-6.96260438681155E-16,-13.275));
#1734=VECTOR('',#2057,1.0);
#1735=CARTESIAN_POINT('',(-26.567181,2.769531,-12.8));
#1736=CARTESIAN_POINT('',(-26.567181,2.769531,-12.8));
#1737=VECTOR('',#2058,1.0);
#1738=CARTESIAN_POINT('',(-26.567181,-6.96260438681155E-16,-12.8));
#1739=VECTOR('',#2059,1.0);
#1740=CARTESIAN_POINT('',(-25.792181,1.769531,-17.2));
#1741=CARTESIAN_POINT('',(-25.792181,1.769531,-8.125));
#1742=VECTOR('',#2060,1.0);
#1743=CARTESIAN_POINT('',(-25.792181,2.769531,-17.2));
#1744=CARTESIAN_POINT('',(-25.792181,2.769531,-17.7));
#1745=VECTOR('',#2061,1.0);
#1746=CARTESIAN_POINT('',(-25.792181,1.25033616327295E-16,-17.2));
#1747=VECTOR('',#2062,1.0);
#1748=CARTESIAN_POINT('',(-24.927181,-3.830469,-15.1));
#1749=CARTESIAN_POINT('',(-24.2852558505981,-1.26276840239229,-15.7419251494019));
#1750=VECTOR('',#2063,1.0);
#1751=CARTESIAN_POINT('',(-25.127181,-3.830469,-15.1));
#1752=CARTESIAN_POINT('',(-25.0064534779416,-3.830469,-15.1));
#1753=VECTOR('',#2064,1.0);
#1754=CARTESIAN_POINT('',(-25.7691061494019,-1.26276840239229,-15.7419251494019));
#1755=VECTOR('',#2065,1.0);
#1756=CARTESIAN_POINT('',(-24.852181,-0.230469,-13.925));
#1757=CARTESIAN_POINT('',(-24.852181,-7.26276840239229,-13.925));
#1758=VECTOR('',#2066,1.0);
#1759=CARTESIAN_POINT('',(-25.202181,-0.230469,-13.925));
#1760=CARTESIAN_POINT('',(-25.0,-0.230469,-13.925));
#1761=VECTOR('',#2067,1.0);
#1762=CARTESIAN_POINT('',(-25.202181,4.469531,-13.925));
#1763=VECTOR('',#2068,1.0);
#1764=CARTESIAN_POINT('',(-25.0064534779416,1.869531,-13.925));
#1765=VECTOR('',#2069,1.0);
#1766=CARTESIAN_POINT('',(-24.927181,-3.830469,-14.9));
#1767=CARTESIAN_POINT('',(-24.2852558505981,-1.26276840239229,-14.2580748505981));
#1768=VECTOR('',#2070,1.0);
#1769=CARTESIAN_POINT('',(-24.927181,-3.830469,-14.825));
#1770=VECTOR('',#2071,1.0);
#1771=CARTESIAN_POINT('',(-25.202181,5.10061310858367,-16.075));
#1772=VECTOR('',#2072,1.0);
#1773=CARTESIAN_POINT('',(-25.202181,4.469531,-16.425));
#1774=VECTOR('',#2073,1.0);
#1775=CARTESIAN_POINT('',(-24.927181,2.169531,-16.35));
#1776=CARTESIAN_POINT('',(-24.927181,2.169531,-16.075));
#1777=VECTOR('',#2074,1.0);
#1778=CARTESIAN_POINT('',(-25.0064534779416,2.169531,-16.35));
#1779=VECTOR('',#2075,1.0);
#1780=CARTESIAN_POINT('',(-25.0064534779416,-3.830469,-16.15));
#1781=VECTOR('',#2076,1.0);
#1782=CARTESIAN_POINT('',(-25.0064534779416,-3.530469,-16.075));
#1783=VECTOR('',#2077,1.0);
#1784=CARTESIAN_POINT('',(-24.992181,1.769531,-17.2));
#1785=CARTESIAN_POINT('',(-25.0,1.769531,-17.2));
#1786=VECTOR('',#2078,1.0);
#1787=CARTESIAN_POINT('',(-24.992181,1.769531,-8.125));
#1788=VECTOR('',#2079,1.0);
#1789=CARTESIAN_POINT('',(-25.0064534779416,2.169531,-13.85));
#1790=VECTOR('',#2080,1.0);
#1791=CARTESIAN_POINT('',(-25.0,-0.230469000000001,-12.8));
#1792=VECTOR('',#2081,1.0);
#1793=CARTESIAN_POINT('',(-25.0,-0.230469000000001,-17.2));
#1794=VECTOR('',#2082,1.0);
#1795=CARTESIAN_POINT('',(-25.202181,-0.230469,8.125));
#1796=VECTOR('',#2083,1.0);
#1797=CARTESIAN_POINT('',(-24.852181,-0.230469,-13.575));
#1798=CARTESIAN_POINT('',(-24.852181,-0.230469,-6.875));
#1799=VECTOR('',#2084,1.0);
#1800=CARTESIAN_POINT('',(-25.202181,-0.230469,-13.575));
#1801=CARTESIAN_POINT('',(-25.0,-0.230469,-13.575));
#1802=VECTOR('',#2085,1.0);
#1803=CARTESIAN_POINT('',(-25.202181,-0.230469,-6.875));
#1804=VECTOR('',#2086,1.0);
#1805=CARTESIAN_POINT('',(-25.202181,-0.230469,-14.825));
#1806=CARTESIAN_POINT('',(-25.202181,-0.230469,8.125));
#1807=VECTOR('',#2087,1.0);
#1808=CARTESIAN_POINT('',(-24.852181,-0.230469,-14.825));
#1809=CARTESIAN_POINT('',(-24.852181,-0.230469,8.125));
#1810=VECTOR('',#2088,1.0);
#1811=CARTESIAN_POINT('',(-25.0,-0.230469,-14.825));
#1812=VECTOR('',#2089,1.0);
#1813=CARTESIAN_POINT('',(-24.852181,-0.761551108583667,-13.575));
#1814=VECTOR('',#2090,1.0);
#1815=CARTESIAN_POINT('',(-25.0064534779416,1.869531,-13.575));
#1816=VECTOR('',#2091,1.0);
#1817=CARTESIAN_POINT('',(-25.202181,5.10061310858367,-13.575));
#1818=VECTOR('',#2092,1.0);
#1819=CARTESIAN_POINT('',(-24.852181,-7.26276840239229,-16.425));
#1820=VECTOR('',#2093,1.0);
#1821=CARTESIAN_POINT('',(-25.0064534779416,-3.530469,-16.425));
#1822=VECTOR('',#2094,1.0);
#1823=CARTESIAN_POINT('',(-24.852181,-0.761551108583667,-16.075));
#1824=VECTOR('',#2095,1.0);
#1825=CARTESIAN_POINT('',(-25.0064534779416,-3.830469,-16.35));
#1826=VECTOR('',#2096,1.0);
#1827=CARTESIAN_POINT('',(-26.567181,2.769531,-17.2));
#1828=VECTOR('',#2097,1.0);
#1829=CARTESIAN_POINT('',(-27.217181,2.769531,-16.725));
#1830=CARTESIAN_POINT('',(-27.217181,2.769531,-23.125));
#1831=VECTOR('',#2098,1.0);
#1832=CARTESIAN_POINT('',(-25.0,2.769531,-16.725));
#1833=VECTOR('',#2099,1.0);
#1834=CARTESIAN_POINT('',(-25.7691061494019,-0.398169597607712,-15.7419251494019));
#1835=VECTOR('',#2100,1.0);
#1836=CARTESIAN_POINT('',(-24.2852558505981,-0.398169597607712,-15.7419251494019));
#1837=VECTOR('',#2101,1.0);
#1838=CARTESIAN_POINT('',(-23.817181,2.769531,-12.3));
#1839=CARTESIAN_POINT('',(-23.817181,2.769531,0.625));
#1840=VECTOR('',#2102,1.0);
#1841=CARTESIAN_POINT('',(-23.817181,-1.03302718598231E-15,-12.3));
#1842=VECTOR('',#2103,1.0);
#1843=CARTESIAN_POINT('',(-25.792181,2.769531,-12.8));
#1844=CARTESIAN_POINT('',(-25.792181,1.769531,-12.8));
#1845=CARTESIAN_POINT('',(-25.792181,0.0,-12.8));
#1846=VECTOR('',#2104,1.0);
#1847=CARTESIAN_POINT('',(-25.792181,2.769531,-12.3));
#1848=CARTESIAN_POINT('',(-25.792181,2.769531,-12.3));
#1849=VECTOR('',#2105,1.0);
#1850=CARTESIAN_POINT('',(-25.792181,1.769531,-12.3));
#1851=CARTESIAN_POINT('',(-25.792181,2.769531,-12.3));
#1852=VECTOR('',#2106,1.0);
#1853=CARTESIAN_POINT('',(-25.792181,1.769531,-21.875));
#1854=VECTOR('',#2107,1.0);
#1855=CARTESIAN_POINT('',(-24.992181,2.769531,-17.2));
#1856=CARTESIAN_POINT('',(-25.0,2.769531,-17.2));
#1857=VECTOR('',#2108,1.0);
#1858=CARTESIAN_POINT('',(-24.992181,2.23002124633085E-16,-17.2));
#1859=VECTOR('',#2109,1.0);
#1860=CARTESIAN_POINT('',(-24.2852558505981,-0.398169597607712,-16.9919251494019));
#1861=VECTOR('',#2110,1.0);
#1862=CARTESIAN_POINT('',(-25.202181,1.869531,-14.825));
#1863=CARTESIAN_POINT('',(-25.202181,1.869531,-14.825));
#1864=VECTOR('',#2111,1.0);
#1865=CARTESIAN_POINT('',(-25.7691061494019,-0.398169597607712,-14.2580748505981));
#1866=VECTOR('',#2112,1.0);
#1867=CARTESIAN_POINT('',(-25.202181,5.10061310858367,-14.825));
#1868=VECTOR('',#2113,1.0);
#1869=CARTESIAN_POINT('',(-27.217181,0.969530999999999,-16.725));
#1870=CARTESIAN_POINT('',(-27.217181,0.969530999999999,-13.275));
#1871=CARTESIAN_POINT('',(-27.217181,0.969530999999999,0.625));
#1872=VECTOR('',#2114,1.0);
#1873=CARTESIAN_POINT('',(-27.217181,-4.94727890923938E-17,-16.725));
#1874=VECTOR('',#2115,1.0);
#1875=CARTESIAN_POINT('',(-27.217181,2.769531,-12.3));
#1876=CARTESIAN_POINT('',(-27.217181,0.0,-12.3));
#1877=VECTOR('',#2116,1.0);
#1878=CARTESIAN_POINT('',(-27.217181,2.769531,-13.275));
#1879=CARTESIAN_POINT('',(-27.217181,2.769531,-6.875));
#1880=VECTOR('',#2117,1.0);
#1881=CARTESIAN_POINT('',(-27.217181,0.0,-13.275));
#1882=VECTOR('',#2118,1.0);
#1883=CARTESIAN_POINT('',(-24.852181,1.869531,-14.825));
#1884=CARTESIAN_POINT('',(-24.2852558505981,-0.398169597607712,-14.2580748505981));
#1885=VECTOR('',#2119,1.0);
#1886=CARTESIAN_POINT('',(-24.852181,1.869531,-14.825));
#1887=VECTOR('',#2120,1.0);
#1888=CARTESIAN_POINT('',(-25.0,0.969530999999999,-16.725));
#1889=VECTOR('',#2121,1.0);
#1890=CARTESIAN_POINT('',(-24.992181,2.76953099999987,-23.125));
#1891=VECTOR('',#2122,1.0);
#1892=CARTESIAN_POINT('',(-25.0064534779416,1.869531,-14.825));
#1893=VECTOR('',#2123,1.0);
#1894=CARTESIAN_POINT('',(-25.202181,-3.530469,-14.825));
#1895=CARTESIAN_POINT('',(-25.202181,-3.530469,-14.825));
#1896=VECTOR('',#2124,1.0);
#1897=CARTESIAN_POINT('',(-25.127181,-3.830469,-14.9));
#1898=CARTESIAN_POINT('',(-25.127181,-3.830469,-14.825));
#1899=VECTOR('',#2125,1.0);
#1900=CARTESIAN_POINT('',(-25.7691061494019,-1.26276840239229,-14.2580748505981));
#1901=VECTOR('',#2126,1.0);
#1902=CARTESIAN_POINT('',(-25.202181,5.10061310858367,-14.825));
#1903=VECTOR('',#2127,1.0);
#1904=CARTESIAN_POINT('',(-25.0064534779416,-3.530469,-14.825));
#1905=VECTOR('',#2128,1.0);
#1906=CARTESIAN_POINT('',(-24.992181,2.769531,-12.3));
#1907=CARTESIAN_POINT('',(-24.892181,2.769531,-12.3));
#1908=VECTOR('',#2129,1.0);
#1909=CARTESIAN_POINT('',(-24.992181,1.769531,-12.3));
#1910=CARTESIAN_POINT('',(-24.992181,-8.89135939408179E-16,-12.3));
#1911=VECTOR('',#2130,1.0);
#1912=CARTESIAN_POINT('',(-25.0,1.769531,-12.3));
#1913=VECTOR('',#2131,1.0);
#1914=CARTESIAN_POINT('',(-25.0,2.769531,-12.3));
#1915=VECTOR('',#2132,1.0);
#1916=CARTESIAN_POINT('',(-24.852181,-3.530469,-13.925));
#1917=CARTESIAN_POINT('',(-24.852181,-7.26276840239229,-13.925));
#1918=VECTOR('',#2133,1.0);
#1919=CARTESIAN_POINT('',(-25.202181,-3.530469,-13.925));
#1920=CARTESIAN_POINT('',(-25.0064534779416,-3.530469,-13.925));
#1921=VECTOR('',#2134,1.0);
#1922=CARTESIAN_POINT('',(-25.202181,4.469531,-13.925));
#1923=VECTOR('',#2135,1.0);
#1924=CARTESIAN_POINT('',(-24.852181,-3.530469,-13.575));
#1925=CARTESIAN_POINT('',(-24.852181,-3.530469,-13.575));
#1926=VECTOR('',#2136,1.0);
#1927=CARTESIAN_POINT('',(-24.852181,-0.761551108583667,-13.575));
#1928=VECTOR('',#2137,1.0);
#1929=CARTESIAN_POINT('',(-24.927181,-3.830469,-13.85));
#1930=CARTESIAN_POINT('',(-24.2852558505981,-1.26276840239229,-14.4919251494019));
#1931=VECTOR('',#2138,1.0);
#1932=CARTESIAN_POINT('',(-25.127181,-3.830469,-13.85));
#1933=CARTESIAN_POINT('',(-25.0064534779416,-3.830469,-13.85));
#1934=VECTOR('',#2139,1.0);
#1935=CARTESIAN_POINT('',(-25.7691061494019,-1.26276840239229,-14.4919251494019));
#1936=VECTOR('',#2140,1.0);
#1937=CARTESIAN_POINT('',(-24.927181,-3.830469,-13.65));
#1938=CARTESIAN_POINT('',(-24.2852558505981,-1.26276840239229,-13.0080748505981));
#1939=VECTOR('',#2141,1.0);
#1940=CARTESIAN_POINT('',(-24.927181,-3.830469,-13.575));
#1941=VECTOR('',#2142,1.0);
#1942=CARTESIAN_POINT('',(-25.127181,-3.830469,-13.65));
#1943=CARTESIAN_POINT('',(-25.127181,-3.830469,-13.575));
#1944=VECTOR('',#2143,1.0);
#1945=CARTESIAN_POINT('',(-25.0064534779416,-3.830469,-13.65));
#1946=VECTOR('',#2144,1.0);
#1947=CARTESIAN_POINT('',(-25.202181,-3.530469,-13.575));
#1948=CARTESIAN_POINT('',(-25.202181,-3.530469,-13.575));
#1949=VECTOR('',#2145,1.0);
#1950=CARTESIAN_POINT('',(-25.7691061494019,-1.26276840239229,-13.0080748505981));
#1951=VECTOR('',#2146,1.0);
#1952=CARTESIAN_POINT('',(-25.0064534779416,-3.530469,-13.575));
#1953=VECTOR('',#2147,1.0);
#1954=CARTESIAN_POINT('',(-25.202181,5.10061310858367,-13.575));
#1955=VECTOR('',#2148,1.0);
#1956=CARTESIAN_POINT('',(-25.0064534779416,-3.830469,-14.9));
#1957=VECTOR('',#2149,1.0);
#1958=CARTESIAN_POINT('',(-25.0,2.769531,-13.275));
#1959=VECTOR('',#2150,1.0);
#1960=CARTESIAN_POINT('',(-25.0,0.969530999999999,-13.275));
#1961=VECTOR('',#2151,1.0);
#1962=CARTESIAN_POINT('',(-24.992181,2.769531,-12.8));
#1963=CARTESIAN_POINT('',(-25.0,2.769531,-12.8));
#1964=VECTOR('',#2152,1.0);
#1965=CARTESIAN_POINT('',(-24.992181,2.76953099999987,-6.875));
#1966=VECTOR('',#2153,1.0);
#1967=CARTESIAN_POINT('',(-24.992181,1.769531,-12.8));
#1968=CARTESIAN_POINT('',(-24.992181,1.769531,-21.875));
#1969=VECTOR('',#2154,1.0);
#1970=CARTESIAN_POINT('',(-24.992181,0.0,-12.8));
#1971=VECTOR('',#2155,1.0);
#1972=CARTESIAN_POINT('',(-24.852181,-0.761551108583667,-14.825));
#1973=VECTOR('',#2156,1.0);
#1974=CARTESIAN_POINT('',(-26.567181,2.769531,-12.8));
#1975=VECTOR('',#2157,1.0);
#1976=CARTESIAN_POINT('',(-25.0,1.769531,-12.8));
#1977=VECTOR('',#2158,1.0);
#1978=CARTESIAN_POINT('',(-25.0064534779416,2.169531,-13.65));
#1979=VECTOR('',#2159,1.0);
#1980=DIRECTION('',(1.0,1.22460635382238E-16,0.0));
#1981=DIRECTION('',(2.31296463463574E-17,1.0,0.0));
#1982=DIRECTION('',(1.0,-2.31296463463574E-17,0.0));
#1983=DIRECTION('',(0.0,-1.0,0.0));
#1984=DIRECTION('',(2.31296463463574E-17,1.0,0.0));
#1985=DIRECTION('',(-1.0,-2.44921270764475E-16,0.0));
#1986=DIRECTION('',(0.0,-1.0,0.0));
#1987=DIRECTION('',(1.0,2.31296463463574E-17,0.0));
#1988=DIRECTION('',(0.0,0.0,1.0));
#1989=DIRECTION('',(0.235702260395516,-0.942809041582063,0.235702260395516));
#1990=DIRECTION('',(0.0,0.0,-1.0));
#1991=DIRECTION('',(-0.235702260395516,0.942809041582063,0.235702260395516));
#1992=DIRECTION('',(0.0,0.0,-1.0));
#1993=DIRECTION('',(-0.235702260395516,-0.942809041582063,-0.235702260395516));
#1994=DIRECTION('',(0.0,0.0,1.0));
#1995=DIRECTION('',(0.235702260395516,0.942809041582063,-0.235702260395516));
#1996=DIRECTION('',(1.76411077586202E-14,1.0,0.0));
#1997=DIRECTION('',(0.0,0.0,-1.0));
#1998=DIRECTION('',(1.77635683940024E-14,1.0,0.0));
#1999=DIRECTION('',(0.0,0.0,1.0));
#2000=DIRECTION('',(0.0,0.0,-1.0));
#2001=DIRECTION('',(0.0,0.0,1.0));
#2002=DIRECTION('',(0.0,1.0,0.0));
#2003=DIRECTION('',(-0.235702260395516,-0.942809041582063,0.235702260395516));
#2004=DIRECTION('',(0.0,0.0,-1.0));
#2005=DIRECTION('',(0.235702260395516,0.942809041582063,0.235702260395516));
#2006=DIRECTION('',(0.0,0.0,1.0));
#2007=DIRECTION('',(1.0,2.31296463463574E-17,0.0));
#2008=DIRECTION('',(-0.235702260395516,0.942809041582063,-0.235702260395516));
#2009=DIRECTION('',(-1.0,0.0,-5.78241158658936E-18));
#2010=DIRECTION('',(0.0,1.0,0.0));
#2011=DIRECTION('',(0.0,-1.0,0.0));
#2012=DIRECTION('',(-1.0,-2.44921270764475E-16,0.0));
#2013=DIRECTION('',(2.31296463463574E-17,1.0,0.0));
#2014=DIRECTION('',(-1.0,-2.44921270764475E-16,0.0));
#2015=DIRECTION('',(0.0,-1.0,0.0));
#2016=DIRECTION('',(1.0,2.31296463463574E-17,0.0));
#2017=DIRECTION('',(-0.235702260395516,-0.942809041582063,0.235702260395516));
#2018=DIRECTION('',(0.0,0.0,-1.0));
#2019=DIRECTION('',(0.235702260395516,0.942809041582063,0.235702260395516));
#2020=DIRECTION('',(0.0,0.0,1.0));
#2021=DIRECTION('',(0.0,0.0,-1.0));
#2022=DIRECTION('',(1.0,0.0,0.0));
#2023=DIRECTION('',(0.0,0.0,1.0));
#2024=DIRECTION('',(1.0,-1.22460635382238E-16,0.0));
#2025=DIRECTION('',(0.0,0.0,-1.0));
#2026=DIRECTION('',(1.0,1.22460635382238E-16,0.0));
#2027=DIRECTION('',(0.0,0.0,-1.0));
#2028=DIRECTION('',(1.0,1.22460635382238E-16,0.0));
#2029=DIRECTION('',(0.0,0.0,1.0));
#2030=DIRECTION('',(1.0,1.22460635382238E-16,0.0));
#2031=DIRECTION('',(0.0,0.0,1.0));
#2032=DIRECTION('',(1.0,1.22460635382238E-16,0.0));
#2033=DIRECTION('',(0.0,0.0,-1.0));
#2034=DIRECTION('',(1.0,1.22460635382238E-16,0.0));
#2035=DIRECTION('',(0.0,0.0,1.0));
#2036=DIRECTION('',(-1.0,0.0,5.78241158658936E-18));
#2037=DIRECTION('',(0.0,0.0,-1.0));
#2038=DIRECTION('',(-1.0,0.0,-5.78241158658936E-18));
#2039=DIRECTION('',(0.0,0.0,-1.0));
#2040=DIRECTION('',(0.0,0.0,-1.0));
#2041=DIRECTION('',(0.235702260395516,-0.942809041582063,-0.235702260395516));
#2042=DIRECTION('',(0.0,0.0,1.0));
#2043=DIRECTION('',(-0.235702260395516,0.942809041582063,-0.235702260395516));
#2044=DIRECTION('',(0.0,0.0,-1.0));
#2045=DIRECTION('',(-1.22460635382238E-16,1.0,0.0));
#2046=DIRECTION('',(1.0,0.0,0.0));
#2047=DIRECTION('',(1.22460635382238E-16,-1.0,0.0));
#2048=DIRECTION('',(1.0,0.0,0.0));
#2049=DIRECTION('',(-1.11022302462516E-16,1.0,0.0));
#2050=DIRECTION('',(-1.0,-1.22460635382238E-16,0.0));
#2051=DIRECTION('',(0.0,1.0,0.0));
#2052=DIRECTION('',(0.0,0.0,-1.0));
#2053=DIRECTION('',(0.0,1.0,0.0));
#2054=DIRECTION('',(0.0,0.0,1.0));
#2055=DIRECTION('',(0.0,-1.0,0.0));
#2056=DIRECTION('',(0.0,0.0,-1.0));
#2057=DIRECTION('',(-1.22460635382238E-16,-1.0,0.0));
#2058=DIRECTION('',(0.0,0.0,-1.0));
#2059=DIRECTION('',(1.22460635382238E-16,1.0,0.0));
#2060=DIRECTION('',(0.0,0.0,-1.0));
#2061=DIRECTION('',(0.0,0.0,1.0));
#2062=DIRECTION('',(1.22460635382238E-16,-1.0,0.0));
#2063=DIRECTION('',(0.235702260395516,0.942809041582063,-0.235702260395516));
#2064=DIRECTION('',(-1.0,0.0,5.78241158658936E-18));
#2065=DIRECTION('',(0.235702260395516,-0.942809041582063,0.235702260395516));
#2066=DIRECTION('',(2.31296463463574E-17,1.0,0.0));
#2067=DIRECTION('',(-1.0,-2.44921270764475E-16,0.0));
#2068=DIRECTION('',(0.0,-1.0,0.0));
#2069=DIRECTION('',(1.0,2.31296463463574E-17,0.0));
#2070=DIRECTION('',(-0.235702260395516,-0.942809041582063,-0.235702260395516));
#2071=DIRECTION('',(0.0,0.0,1.0));
#2072=DIRECTION('',(0.0,-1.0,0.0));
#2073=DIRECTION('',(0.0,-1.0,0.0));
#2074=DIRECTION('',(0.0,0.0,1.0));
#2075=DIRECTION('',(-1.0,0.0,5.78241158658936E-18));
#2076=DIRECTION('',(-1.0,0.0,-5.78241158658936E-18));
#2077=DIRECTION('',(1.0,-2.31296463463574E-17,0.0));
#2078=DIRECTION('',(1.0,0.0,0.0));
#2079=DIRECTION('',(0.0,0.0,1.0));
#2080=DIRECTION('',(-1.0,0.0,5.78241158658936E-18));
#2081=DIRECTION('',(-1.0,1.22460635382238E-16,0.0));
#2082=DIRECTION('',(-1.0,0.0,0.0));
#2083=DIRECTION('',(0.0,0.0,1.0));
#2084=DIRECTION('',(0.0,0.0,-1.0));
#2085=DIRECTION('',(-1.0,-2.44921270764475E-16,0.0));
#2086=DIRECTION('',(0.0,0.0,1.0));
#2087=DIRECTION('',(0.0,0.0,1.0));
#2088=DIRECTION('',(0.0,0.0,-1.0));
#2089=DIRECTION('',(-1.0,-2.44921270764475E-16,0.0));
#2090=DIRECTION('',(0.0,1.0,0.0));
#2091=DIRECTION('',(1.0,2.31296463463574E-17,0.0));
#2092=DIRECTION('',(0.0,-1.0,0.0));
#2093=DIRECTION('',(2.31296463463574E-17,1.0,0.0));
#2094=DIRECTION('',(1.0,-2.31296463463574E-17,0.0));
#2095=DIRECTION('',(0.0,1.0,0.0));
#2096=DIRECTION('',(-1.0,0.0,5.78241158658936E-18));
#2097=DIRECTION('',(-1.0,-1.22460635382238E-16,0.0));
#2098=DIRECTION('',(0.0,0.0,1.0));
#2099=DIRECTION('',(1.0,0.0,0.0));
#2100=DIRECTION('',(0.235702260395516,0.942809041582063,0.235702260395516));
#2101=DIRECTION('',(0.235702260395516,-0.942809041582063,-0.235702260395516));
#2102=DIRECTION('',(0.0,0.0,1.0));
#2103=DIRECTION('',(1.22460635382238E-16,1.0,0.0));
#2104=DIRECTION('',(0.0,-1.0,0.0));
#2105=DIRECTION('',(0.0,0.0,-1.0));
#2106=DIRECTION('',(0.0,-1.0,0.0));
#2107=DIRECTION('',(0.0,0.0,1.0));
#2108=DIRECTION('',(1.0,1.22460635382238E-16,0.0));
#2109=DIRECTION('',(-1.22460635382238E-16,1.0,0.0));
#2110=DIRECTION('',(0.235702260395516,-0.942809041582063,-0.235702260395516));
#2111=DIRECTION('',(0.0,0.0,1.0));
#2112=DIRECTION('',(-0.235702260395516,-0.942809041582063,0.235702260395516));
#2113=DIRECTION('',(0.0,-1.0,0.0));
#2114=DIRECTION('',(0.0,0.0,1.0));
#2115=DIRECTION('',(-1.22460635382238E-16,1.0,0.0));
#2116=DIRECTION('',(0.0,1.0,0.0));
#2117=DIRECTION('',(0.0,0.0,-1.0));
#2118=DIRECTION('',(0.0,1.0,0.0));
#2119=DIRECTION('',(-0.235702260395516,0.942809041582063,-0.235702260395516));
#2120=DIRECTION('',(0.0,0.0,-1.0));
#2121=DIRECTION('',(-1.0,0.0,0.0));
#2122=DIRECTION('',(2.71917234023169E-30,-2.22044604925028E-14,-1.0));
#2123=DIRECTION('',(1.0,2.31296463463574E-17,0.0));
#2124=DIRECTION('',(0.0,0.0,1.0));
#2125=DIRECTION('',(0.0,0.0,-1.0));
#2126=DIRECTION('',(-0.235702260395516,0.942809041582063,0.235702260395516));
#2127=DIRECTION('',(0.0,-1.0,0.0));
#2128=DIRECTION('',(1.0,-2.31296463463574E-17,0.0));
#2129=DIRECTION('',(-1.0,0.0,0.0));
#2130=DIRECTION('',(1.14383329197221E-17,1.0,0.0));
#2131=DIRECTION('',(1.0,-1.22460635382238E-16,0.0));
#2132=DIRECTION('',(1.0,-1.22460635382238E-16,0.0));
#2133=DIRECTION('',(2.31296463463574E-17,1.0,0.0));
#2134=DIRECTION('',(1.0,-2.31296463463574E-17,0.0));
#2135=DIRECTION('',(0.0,-1.0,0.0));
#2136=DIRECTION('',(0.0,0.0,-1.0));
#2137=DIRECTION('',(0.0,1.0,0.0));
#2138=DIRECTION('',(0.235702260395516,0.942809041582063,-0.235702260395516));
#2139=DIRECTION('',(-1.0,0.0,5.78241158658936E-18));
#2140=DIRECTION('',(0.235702260395516,-0.942809041582063,0.235702260395516));
#2141=DIRECTION('',(-0.235702260395516,-0.942809041582063,-0.235702260395516));
#2142=DIRECTION('',(0.0,0.0,1.0));
#2143=DIRECTION('',(0.0,0.0,-1.0));
#2144=DIRECTION('',(-1.0,0.0,-5.78241158658936E-18));
#2145=DIRECTION('',(0.0,0.0,1.0));
#2146=DIRECTION('',(-0.235702260395516,0.942809041582063,0.235702260395516));
#2147=DIRECTION('',(1.0,-2.31296463463574E-17,0.0));
#2148=DIRECTION('',(0.0,-1.0,0.0));
#2149=DIRECTION('',(-1.0,0.0,-5.78241158658936E-18));
#2150=DIRECTION('',(1.0,-1.22460635382238E-16,0.0));
#2151=DIRECTION('',(-1.0,1.22460635382238E-16,0.0));
#2152=DIRECTION('',(1.0,0.0,0.0));
#2153=DIRECTION('',(0.0,-2.22044604925028E-14,1.0));
#2154=DIRECTION('',(0.0,0.0,-1.0));
#2155=DIRECTION('',(0.0,1.0,0.0));
#2156=DIRECTION('',(0.0,1.0,0.0));
#2157=DIRECTION('',(-1.0,0.0,0.0));
#2158=DIRECTION('',(1.0,-1.22460635382238E-16,0.0));
#2159=DIRECTION('',(-1.0,0.0,-5.78241158658936E-18));
#2160=PRESENTATION_LAYER_ASSIGNMENT('','',(#25,#51,#52,#53,#54,#55,#56,#57,#58,#59,#60,#61,#62,#63,#64,#65,#66,#67,#68,#69,#70,#71,#72,#73,#74,#75,#76,#77,#78,#79,#80,#81,#82,#83,#84,#85,#86,#87,#88,#89,#90,#91,#92,#93,#94,#95,#96,#97,#98,#99,#100,#101,#102,#103,#104,#105,#106,#107,#108,#109,#110,#111,#112,#113,#114,#115,#116,#117,#118,#119,#120,#121,#122,#123,#124,#125,#126,#1036,#1037,#1038,#1039,#1040,#1041,#1042,#1043,#1044,#1045,#1046,#1047,#1048,#1049,#1050,#1051,#1052,#1053,#1054,#1055,#1056,#1057,#1058,#1059,#1060,#1061,#1062,#1063,#1064,#1065,#1066,#1067,#1068,#1069,#1070,#1071,#1072,#1073,#1074,#1075,#1076,#1077,#1078,#1079,#1080,#1081,#1082,#1083,#1084,#1085,#1086,#1087,#1088,#1089,#1090,#1091,#1092,#1093,#1094,#1095,#1096,#1097,#1098,#1099,#1100,#1101,#1102,#1103,#1104,#1105,#1106,#1107,#1108,#1109,#1110,#1111,#1112,#1113,#1114,#1115,#1116,#1117,#1118,#1119,#1120,#1121,#1122,#1123,#1124,#1125,#1126,#1127,#1128,#1129,#1130,#1131,#1132,#1133,#1134,#1135,#1136,#1137,#1138,#1139,#1140,#1141,#1142,#1143,#1144,#1145,#1146,#1147,#1148,#1149,#1150,#1151,#1152,#1153,#1154,#1155,#1156,#1157,#1158,#1159,#1160,#1161,#1162,#1163,#1164,#1165,#1166,#1167,#1168,#1169,#1170,#1171,#1172,#1173,#1174,#1175,#1176,#1177,#1178,#1179,#1180,#1181,#1182,#1183,#1184,#1185,#1186,#1187,#1188,#1189,#1190,#1191,#1192,#1193,#1194,#1195,#1196,#1197,#1198,#1199,#1200,#1201,#1202,#1203,#1204,#1205,#1206,#1207,#1208,#1209,#1210,#1211,#1212,#1213,#1214,#1215,#1216,#1217,#1219,#1221,#1224,#1225,#1227,#1229,#1232,#1233,#1235,#1237,#1240,#1241,#1243,#1245,#1248,#1249,#1251,#1253,#1256,#1258,#1261,#1262,#1264,#1266,#1269,#1271,#1274,#1276,#1279,#1280,#1282,#1286,#1287,#1289,#1291,#1294,#1295,#1297,#1299,#1302,#1305,#1306,#1308,#1310,#1313,#1314,#1316,#1318,#1321,#1322,#1324,#1326,#1331,#1332,#1334,#1336,#1339,#1341,#1343,#1345,#1347,#1349,#1352,#1353,#1355,#1357,#1359,#1361,#1363,#1365,#1368,#1370,#1373,#1375,#1378,#1380,#1384,#1389,#1394,#1401,#1403,#1406,#1408,#1419,#1424,#1427,#1428,#1430,#1432,#1435,#1439,#1443,#1444,#1447,#1449,#1452,#1458,#1460,#1465,#1467,#1471,#1473,#1476,#1479,#1481,#1484,#1487,#1490,#1498,#1501));
ENDSEC;
END-ISO-10303-21;
