ISO-10303-21;
HEADER;
FILE_DESCRIPTION (( 'STEP AP203' ),
    '1' );
FILE_NAME ('2661480002.STEP',
    '2020-03-06T16:51:07',
    ( '' ),
    ( '' ),
    'SwSTEP 2.0',
    'SolidWorks 2018',
    '' );
FILE_SCHEMA (( 'CONFIG_CONTROL_DESIGN' ));
ENDSEC;

DATA;
#1 = LINE ( 'NONE', #18, #54 ) ;
#2 = VERTEX_POINT ( 'NONE', #165 ) ;
#3 = APPROVAL_DATE_TIME ( #279, #116 ) ;
#4 = APPROVAL_STATUS ( 'not_yet_approved' ) ;
#5 = DIRECTION ( 'NONE',  ( 0.0000000000000000000, 0.0000000000000000000, 1.000000000000000000 ) ) ;
#6 = DIRECTION ( 'NONE',  ( 0.0000000000000000000, 0.0000000000000000000, 1.000000000000000000 ) ) ;
#7 = LINE ( 'NONE', #394, #346 ) ;
#8 = CIRCLE ( 'NONE', #327, 0.09999999999999992228 ) ;
#9 = SECURITY_CLASSIFICATION ( '', '', #219 ) ;
#10 = DIRECTION ( 'NONE',  ( 0.0000000000000000000, 0.0000000000000000000, 1.000000000000000000 ) ) ;
#11 = CONICAL_SURFACE ( 'NONE', #106, 0.2269999999999991747, 0.7853981633974642662 ) ;
#12 = EDGE_CURVE ( 'NONE', #63, #255, #396, .T. ) ;
#13 = CARTESIAN_POINT ( 'NONE',  ( 2.779948234064481311E-17, -0.5000000000000001110, -0.2269999999999991469 ) ) ;
#14 = DIRECTION ( 'NONE',  ( 8.659560562355070909E-17, -0.7071067811865362485, 0.7071067811865587860 ) ) ;
#15 = ADVANCED_FACE ( 'NONE', ( #99 ), #158, .F. ) ;
#16 = VERTEX_POINT ( 'NONE', #433 ) ;
#17 = AXIS2_PLACEMENT_3D ( 'NONE', #233, #90, #436 ) ;
#18 = CARTESIAN_POINT ( 'NONE',  ( 1.408343819019446599E-17, 0.5000000000000001110, -0.1149999999999992140 ) ) ;
#19 = DIRECTION ( 'NONE',  ( -0.0000000000000000000, 1.000000000000000000, -0.0000000000000000000 ) ) ;
#20 = VECTOR ( 'NONE', #359, 39.37007874015748143 ) ;
#21 = VERTEX_POINT ( 'NONE', #47 ) ;
#22 = DIRECTION ( 'NONE',  ( 0.0000000000000000000, 0.0000000000000000000, 1.000000000000000000 ) ) ;
#23 = EDGE_LOOP ( 'NONE', ( #148, #314, #56, #57 ) ) ;
#24 = EDGE_LOOP ( 'NONE', ( #70, #111, #101, #76 ) ) ;
#25 = EDGE_CURVE ( 'NONE', #95, #21, #1, .T. ) ;
#26 = CIRCLE ( 'NONE', #358, 0.2269999999999991747 ) ;
#27 = CARTESIAN_POINT ( 'NONE',  ( 0.0000000000000000000, 0.5000000000000001110, 0.0000000000000000000 ) ) ;
#28 = EDGE_CURVE ( 'NONE', #2, #309, #448, .T. ) ;
#29 = DIRECTION ( 'NONE',  ( 0.0000000000000000000, 0.0000000000000000000, 1.000000000000000000 ) ) ;
#30 = CARTESIAN_POINT ( 'NONE',  ( 1.408343819019446599E-17, -0.5000000000000001110, 0.1149999999999992140 ) ) ;
#31 = CIRCLE ( 'NONE', #297, 0.2419999999999999096 ) ;
#32 = AXIS2_PLACEMENT_3D ( 'NONE', #204, #268, #55 ) ;
#33 = VERTEX_POINT ( 'NONE', #401 ) ;
#34 = ORIENTED_EDGE ( 'NONE', *, *, #364, .F. ) ;
#35 = PERSON_AND_ORGANIZATION ( #126, #330 ) ;
#36 = DIRECTION ( 'NONE',  ( 0.0000000000000000000, 0.0000000000000000000, 1.000000000000000000 ) ) ;
#37 = PERSON_AND_ORGANIZATION ( #126, #330 ) ;
#38 = DIRECTION ( 'NONE',  ( 0.0000000000000000000, 0.0000000000000000000, 1.000000000000000000 ) ) ;
#39 = AXIS2_PLACEMENT_3D ( 'NONE', #320, #156, #38 ) ;
#40 = CIRCLE ( 'NONE', #186, 0.2269999999999991469 ) ;
#41 = CYLINDRICAL_SURFACE ( 'NONE', #213, 0.2419999999999999096 ) ;
#42 = ORIENTED_EDGE ( 'NONE', *, *, #28, .T. ) ;
#43 = AXIS2_PLACEMENT_3D ( 'NONE', #349, #36, #428 ) ;
#44 = CARTESIAN_POINT ( 'NONE',  ( 0.0000000000000000000, -0.5000000000000001110, 0.0000000000000000000 ) ) ;
#45 = UNCERTAINTY_MEASURE_WITH_UNIT (LENGTH_MEASURE( 1.000000000000000082E-05 ), #424, 'distance_accuracy_value', 'NONE');
#46 = LINE ( 'NONE', #307, #399 ) ;
#47 = CARTESIAN_POINT ( 'NONE',  ( 1.408343819019446599E-17, 0.5000000000000001110, -0.1149999999999992140 ) ) ;
#48 = CARTESIAN_POINT ( 'NONE',  ( 2.963645253936593746E-17, 3.182511028214465743, -0.2419999999999999096 ) ) ;
#49 = ORIENTED_EDGE ( 'NONE', *, *, #299, .T. ) ;
#50 = CALENDAR_DATE ( 2020, 6, 3 ) ;
#51 = CARTESIAN_POINT ( 'NONE',  ( 0.0000000000000000000, 0.4849999999999998757, -0.2419999999999999096 ) ) ;
#52 = AXIS2_PLACEMENT_3D ( 'NONE', #270, #374, #206 ) ;
#53 = DIRECTION ( 'NONE',  ( 0.0000000000000000000, 0.7071067811865354713, 0.7071067811865595631 ) ) ;
#54 = VECTOR ( 'NONE', #229, 39.37007874015748143 ) ;
#55 = DIRECTION ( 'NONE',  ( 0.0000000000000000000, 0.0000000000000000000, 1.000000000000000000 ) ) ;
#56 = ORIENTED_EDGE ( 'NONE', *, *, #288, .T. ) ;
#57 = ORIENTED_EDGE ( 'NONE', *, *, #12, .F. ) ;
#58 = DIRECTION ( 'NONE',  ( -0.0000000000000000000, 1.000000000000000000, -0.0000000000000000000 ) ) ;
#59 = EDGE_CURVE ( 'NONE', #172, #340, #267, .T. ) ;
#60 = ADVANCED_FACE ( 'NONE', ( #246 ), #41, .T. ) ;
#61 = DIRECTION ( 'NONE',  ( 0.0000000000000000000, 0.0000000000000000000, 1.000000000000000000 ) ) ;
#62 = VECTOR ( 'NONE', #231, 39.37007874015748143 ) ;
#63 = VERTEX_POINT ( 'NONE', #51 ) ;
#64 = AXIS2_PLACEMENT_3D ( 'NONE', #27, #447, #418 ) ;
#65 = CC_DESIGN_APPROVAL ( #116, ( #9 ) ) ;
#66 = EDGE_CURVE ( 'NONE', #117, #290, #376, .T. ) ;
#67 = DIRECTION ( 'NONE',  ( 0.0000000000000000000, -1.000000000000000000, 0.0000000000000000000 ) ) ;
#68 =( GEOMETRIC_REPRESENTATION_CONTEXT ( 3 ) GLOBAL_UNCERTAINTY_ASSIGNED_CONTEXT ( ( #45 ) ) GLOBAL_UNIT_ASSIGNED_CONTEXT ( ( #424, #110, #318 ) ) REPRESENTATION_CONTEXT ( 'NONE', 'WORKASPACE' ) );
#69 = ORIENTED_EDGE ( 'NONE', *, *, #85, .T. ) ;
#70 = ORIENTED_EDGE ( 'NONE', *, *, #160, .T. ) ;
#71 = APPROVAL_DATE_TIME ( #256, #73 ) ;
#72 = DIRECTION ( 'NONE',  ( 0.0000000000000000000, 0.0000000000000000000, 1.000000000000000000 ) ) ;
#73 = APPROVAL ( #108, 'UNSPECIFIED' ) ;
#74 = CIRCLE ( 'NONE', #311, 0.09999999999999999167 ) ;
#75 = APPLICATION_CONTEXT ( 'configuration controlled 3d designs of mechanical parts and assemblies' ) ;
#76 = ORIENTED_EDGE ( 'NONE', *, *, #288, .F. ) ;
#77 = ORIENTED_EDGE ( 'NONE', *, *, #25, .T. ) ;
#78 = APPLICATION_PROTOCOL_DEFINITION ( 'international standard', 'config_control_design', 1994, #221 ) ;
#79 = CARTESIAN_POINT ( 'NONE',  ( 0.0000000000000000000, -0.5000000000000001110, 0.0000000000000000000 ) ) ;
#80 = AXIS2_PLACEMENT_3D ( 'NONE', #392, #228, #192 ) ;
#81 = CONICAL_SURFACE ( 'NONE', #269, 0.1149999999999992140, 0.7853981633974324028 ) ;
#82 = ORIENTED_EDGE ( 'NONE', *, *, #353, .F. ) ;
#83 = ORIENTED_EDGE ( 'NONE', *, *, #332, .F. ) ;
#84 = CARTESIAN_POINT ( 'NONE',  ( 0.0000000000000000000, 0.5000000000000001110, 0.1149999999999992140 ) ) ;
#85 = EDGE_CURVE ( 'NONE', #159, #95, #409, .T. ) ;
#86 = CLOSED_SHELL ( 'NONE', ( #303, #15, #205, #98, #413, #405, #333, #163, #407, #60, #366, #130, #133, #294 ) ) ;
#87 = EDGE_LOOP ( 'NONE', ( #175, #215, #451, #250 ) ) ;
#88 = SHAPE_DEFINITION_REPRESENTATION ( #139, #422 ) ;
#89 = CONICAL_SURFACE ( 'NONE', #96, 0.1149999999999992140, 0.7853981633974346233 ) ;
#90 = DIRECTION ( 'NONE',  ( -0.0000000000000000000, 1.000000000000000000, -0.0000000000000000000 ) ) ;
#91 = CC_DESIGN_APPROVAL ( #259, ( #450 ) ) ;
#92 = DIRECTION ( 'NONE',  ( 0.0000000000000000000, 0.0000000000000000000, 1.000000000000000000 ) ) ;
#93 = FACE_OUTER_BOUND ( 'NONE', #124, .T. ) ;
#94 = AXIS2_PLACEMENT_3D ( 'NONE', #201, #292, #265 ) ;
#95 = VERTEX_POINT ( 'NONE', #372 ) ;
#96 = AXIS2_PLACEMENT_3D ( 'NONE', #371, #171, #305 ) ;
#97 = CC_DESIGN_PERSON_AND_ORGANIZATION_ASSIGNMENT ( #335, #351, ( #321 ) ) ;
#98 = ADVANCED_FACE ( 'NONE', ( #272 ), #387, .T. ) ;
#99 = FACE_OUTER_BOUND ( 'NONE', #380, .T. ) ;
#100 = ORIENTED_EDGE ( 'NONE', *, *, #440, .T. ) ;
#101 = ORIENTED_EDGE ( 'NONE', *, *, #174, .F. ) ;
#102 = DIRECTION ( 'NONE',  ( -0.0000000000000000000, 1.000000000000000000, -0.0000000000000000000 ) ) ;
#103 = MANIFOLD_SOLID_BREP ( 'Revolve1', #86 ) ;
#104 = DIRECTION ( 'NONE',  ( -0.0000000000000000000, 1.000000000000000000, -0.0000000000000000000 ) ) ;
#105 = APPROVAL_PERSON_ORGANIZATION ( #35, #116, #319 ) ;
#106 = AXIS2_PLACEMENT_3D ( 'NONE', #212, #67, #343 ) ;
#107 = PERSON_AND_ORGANIZATION ( #126, #330 ) ;
#108 = APPROVAL_STATUS ( 'not_yet_approved' ) ;
#109 = EDGE_CURVE ( 'NONE', #426, #290, #301, .T. ) ;
#110 =( NAMED_UNIT ( * ) PLANE_ANGLE_UNIT ( ) SI_UNIT ( $, .RADIAN. ) );
#111 = ORIENTED_EDGE ( 'NONE', *, *, #316, .T. ) ;
#112 = DIRECTION ( 'NONE',  ( -0.0000000000000000000, 1.000000000000000000, -0.0000000000000000000 ) ) ;
#113 = APPROVAL_ROLE ( '' ) ;
#114 = CC_DESIGN_PERSON_AND_ORGANIZATION_ASSIGNMENT ( #37, #384, ( #450 ) ) ;
#115 = LINE ( 'NONE', #30, #134 ) ;
#116 = APPROVAL ( #4, 'UNSPECIFIED' ) ;
#117 = VERTEX_POINT ( 'NONE', #169 ) ;
#118 = PLANE ( 'NONE',  #39 ) ;
#119 = AXIS2_PLACEMENT_3D ( 'NONE', #363, #328, #361 ) ;
#120 = CARTESIAN_POINT ( 'NONE',  ( 2.963645253936593746E-17, 0.4849999999999998757, 0.2419999999999999096 ) ) ;
#121 = CONICAL_SURFACE ( 'NONE', #245, 0.2269999999999991469, 0.7853981633974653764 ) ;
#122 = AXIS2_PLACEMENT_3D ( 'NONE', #410, #439, #164 ) ;
#123 = FACE_OUTER_BOUND ( 'NONE', #350, .T. ) ;
#124 = EDGE_LOOP ( 'NONE', ( #144, #437 ) ) ;
#125 = ORIENTED_EDGE ( 'NONE', *, *, #25, .F. ) ;
#126 = PERSON ( 'UNSPECIFIED', 'UNSPECIFIED', 'UNSPECIFIED', ('UNSPECIFIED'), ('UNSPECIFIED'), ('UNSPECIFIED') ) ;
#127 = EDGE_CURVE ( 'NONE', #2, #33, #236, .T. ) ;
#128 = CARTESIAN_POINT ( 'NONE',  ( 0.0000000000000000000, 3.182511028214465743, 0.0000000000000000000 ) ) ;
#129 = DIRECTION ( 'NONE',  ( 0.0000000000000000000, 0.0000000000000000000, 1.000000000000000000 ) ) ;
#130 = ADVANCED_FACE ( 'NONE', ( #93, #313 ), #168, .F. ) ;
#131 = AXIS2_PLACEMENT_3D ( 'NONE', #142, #102, #72 ) ;
#132 = DIRECTION ( 'NONE',  ( 0.0000000000000000000, -0.7071067811865587860, -0.7071067811865362485 ) ) ;
#133 = ADVANCED_FACE ( 'NONE', ( #283 ), #81, .F. ) ;
#134 = VECTOR ( 'NONE', #281, 39.37007874015748143 ) ;
#135 = DIRECTION ( 'NONE',  ( 0.0000000000000000000, 0.0000000000000000000, 1.000000000000000000 ) ) ;
#136 = EDGE_CURVE ( 'NONE', #356, #117, #115, .T. ) ;
#137 = ORIENTED_EDGE ( 'NONE', *, *, #174, .T. ) ;
#138 = EDGE_LOOP ( 'NONE', ( #82, #34 ) ) ;
#139 = PRODUCT_DEFINITION_SHAPE ( 'NONE', 'NONE',  #450 ) ;
#140 = CARTESIAN_POINT ( 'NONE',  ( 0.0000000000000000000, -0.5000000000000001110, 0.0000000000000000000 ) ) ;
#141 = DIRECTION ( 'NONE',  ( 0.0000000000000000000, 0.0000000000000000000, 1.000000000000000000 ) ) ;
#142 = CARTESIAN_POINT ( 'NONE',  ( 0.0000000000000000000, 0.5000000000000001110, 0.0000000000000000000 ) ) ;
#143 = LINE ( 'NONE', #84, #230 ) ;
#144 = ORIENTED_EDGE ( 'NONE', *, *, #241, .F. ) ;
#145 = CC_DESIGN_DATE_AND_TIME_ASSIGNMENT ( #151, #348, ( #450 ) ) ;
#146 = APPROVAL_DATE_TIME ( #417, #259 ) ;
#147 = DIRECTION ( 'NONE',  ( -0.0000000000000000000, 1.000000000000000000, -0.0000000000000000000 ) ) ;
#148 = ORIENTED_EDGE ( 'NONE', *, *, #316, .F. ) ;
#149 = CALENDAR_DATE ( 2020, 6, 3 ) ;
#150 = CARTESIAN_POINT ( 'NONE',  ( 0.0000000000000000000, 0.5000000000000001110, 0.0000000000000000000 ) ) ;
#151 = DATE_AND_TIME ( #423, #431 ) ;
#152 = EDGE_CURVE ( 'NONE', #95, #159, #8, .T. ) ;
#153 = MECHANICAL_CONTEXT ( 'NONE', #221, 'mechanical' ) ;
#154 = VECTOR ( 'NONE', #293, 39.37007874015748143 ) ;
#155 = COORDINATED_UNIVERSAL_TIME_OFFSET ( 5, 0, .BEHIND. ) ;
#156 = DIRECTION ( 'NONE',  ( -0.0000000000000000000, 1.000000000000000000, 0.0000000000000000000 ) ) ;
#157 = CC_DESIGN_PERSON_AND_ORGANIZATION_ASSIGNMENT ( #285, #421, ( #9 ) ) ;
#158 = CONICAL_SURFACE ( 'NONE', #94, 0.1149999999999992140, 0.7853981633974324028 ) ;
#159 = VERTEX_POINT ( 'NONE', #354 ) ;
#160 = EDGE_CURVE ( 'NONE', #16, #309, #198, .T. ) ;
#161 = CARTESIAN_POINT ( 'NONE',  ( 0.0000000000000000000, 3.182511028214465743, 0.2419999999999999096 ) ) ;
#162 = ORIENTED_EDGE ( 'NONE', *, *, #402, .T. ) ;
#163 = ADVANCED_FACE ( 'NONE', ( #254, #367 ), #118, .T. ) ;
#164 = DIRECTION ( 'NONE',  ( 0.0000000000000000000, 0.0000000000000000000, 1.000000000000000000 ) ) ;
#165 = CARTESIAN_POINT ( 'NONE',  ( 2.871796744000536912E-17, -0.5000000000000001110, -0.2269999999999991469 ) ) ;
#166 = AXIS2_PLACEMENT_3D ( 'NONE', #140, #19, #141 ) ;
#167 = ORIENTED_EDGE ( 'NONE', *, *, #427, .F. ) ;
#168 = PLANE ( 'NONE',  #209 ) ;
#169 = CARTESIAN_POINT ( 'NONE',  ( 1.408343819019446599E-17, -0.5000000000000001110, 0.1149999999999992140 ) ) ;
#170 = CC_DESIGN_PERSON_AND_ORGANIZATION_ASSIGNMENT ( #224, #216, ( #194 ) ) ;
#171 = DIRECTION ( 'NONE',  ( -0.0000000000000000000, 1.000000000000000000, -0.0000000000000000000 ) ) ;
#172 = VERTEX_POINT ( 'NONE', #253 ) ;
#173 = DIRECTION ( 'NONE',  ( 0.0000000000000000000, 0.0000000000000000000, 1.000000000000000000 ) ) ;
#174 = EDGE_CURVE ( 'NONE', #255, #63, #435, .T. ) ;
#175 = ORIENTED_EDGE ( 'NONE', *, *, #136, .F. ) ;
#176 = ORIENTED_EDGE ( 'NONE', *, *, #66, .T. ) ;
#177 = CARTESIAN_POINT ( 'NONE',  ( 0.0000000000000000000, -0.5000000000000000000, 3.048937492928867541E-16 ) ) ;
#178 = CARTESIAN_POINT ( 'NONE',  ( 2.871796744000537528E-17, 0.5000000000000001110, 0.2269999999999991747 ) ) ;
#179 = DIRECTION ( 'NONE',  ( 0.0000000000000000000, 0.0000000000000000000, 1.000000000000000000 ) ) ;
#180 = CYLINDRICAL_SURFACE ( 'NONE', #252, 0.09999999999999996392 ) ;
#181 = ORIENTED_EDGE ( 'NONE', *, *, #353, .T. ) ;
#182 = DIRECTION ( 'NONE',  ( 0.0000000000000000000, 0.0000000000000000000, -1.000000000000000000 ) ) ;
#183 = APPROVAL_STATUS ( 'not_yet_approved' ) ;
#184 = ORIENTED_EDGE ( 'NONE', *, *, #218, .T. ) ;
#185 = FACE_OUTER_BOUND ( 'NONE', #352, .T. ) ;
#186 = AXIS2_PLACEMENT_3D ( 'NONE', #44, #397, #232 ) ;
#187 = CC_DESIGN_DATE_AND_TIME_ASSIGNMENT ( #412, #214, ( #9 ) ) ;
#188 = ORIENTED_EDGE ( 'NONE', *, *, #329, .F. ) ;
#189 = EDGE_LOOP ( 'NONE', ( #302, #362, #324, #227 ) ) ;
#190 = AXIS2_PLACEMENT_3D ( 'NONE', #203, #240, #173 ) ;
#191 = LOCAL_TIME ( 11, 51, 7.000000000000000000, #444 ) ;
#192 = DIRECTION ( 'NONE',  ( 0.0000000000000000000, 0.0000000000000000000, 1.000000000000000000 ) ) ;
#193 = CC_DESIGN_SECURITY_CLASSIFICATION ( #9, ( #321 ) ) ;
#194 = PRODUCT ( '2661480002', '2661480002', '', ( #153 ) ) ;
#195 = ORIENTED_EDGE ( 'NONE', *, *, #109, .F. ) ;
#196 = DIRECTION ( 'NONE',  ( -0.0000000000000000000, 1.000000000000000000, -0.0000000000000000000 ) ) ;
#197 = CARTESIAN_POINT ( 'NONE',  ( 2.963645253936593746E-17, -0.4849999999999998757, -0.2419999999999999096 ) ) ;
#198 = CIRCLE ( 'NONE', #434, 0.2419999999999999096 ) ;
#199 = ORIENTED_EDGE ( 'NONE', *, *, #299, .F. ) ;
#200 = DIRECTION ( 'NONE',  ( -0.0000000000000000000, 1.000000000000000000, -0.0000000000000000000 ) ) ;
#201 = CARTESIAN_POINT ( 'NONE',  ( 0.0000000000000000000, -0.5000000000000001110, 0.0000000000000000000 ) ) ;
#202 = VECTOR ( 'NONE', #446, 39.37007874015748143 ) ;
#203 = CARTESIAN_POINT ( 'NONE',  ( 0.0000000000000000000, 0.4850000000000004308, 0.0000000000000000000 ) ) ;
#204 = CARTESIAN_POINT ( 'NONE',  ( 0.0000000000000000000, -0.5000000000000001110, 0.0000000000000000000 ) ) ;
#205 = ADVANCED_FACE ( 'NONE', ( #123 ), #121, .T. ) ;
#206 = DIRECTION ( 'NONE',  ( 0.0000000000000000000, 0.0000000000000000000, 1.000000000000000000 ) ) ;
#207 = CONICAL_SURFACE ( 'NONE', #408, 0.2269999999999991469, 0.7853981633974653764 ) ;
#208 = LINE ( 'NONE', #161, #20 ) ;
#209 = AXIS2_PLACEMENT_3D ( 'NONE', #177, #336, #135 ) ;
#210 = VECTOR ( 'NONE', #295, 39.37007874015748143 ) ;
#211 = ORIENTED_EDGE ( 'NONE', *, *, #383, .F. ) ;
#212 = CARTESIAN_POINT ( 'NONE',  ( 0.0000000000000000000, 0.5000000000000001110, 0.0000000000000000000 ) ) ;
#213 = AXIS2_PLACEMENT_3D ( 'NONE', #128, #400, #92 ) ;
#214 = DATE_TIME_ROLE ( 'classification_date' ) ;
#215 = ORIENTED_EDGE ( 'NONE', *, *, #383, .T. ) ;
#216 = PERSON_AND_ORGANIZATION_ROLE ( 'design_owner' ) ;
#217 = APPROVAL_PERSON_ORGANIZATION ( #304, #73, #113 ) ;
#218 = EDGE_CURVE ( 'NONE', #159, #443, #143, .T. ) ;
#219 = SECURITY_CLASSIFICATION_LEVEL ( 'unclassified' ) ;
#220 = FACE_OUTER_BOUND ( 'NONE', #315, .T. ) ;
#221 = APPLICATION_CONTEXT ( 'configuration controlled 3d designs of mechanical parts and assemblies' ) ;
#222 = EDGE_LOOP ( 'NONE', ( #199, #389, #382, #296 ) ) ;
#223 = COORDINATED_UNIVERSAL_TIME_OFFSET ( 5, 0, .BEHIND. ) ;
#224 = PERSON_AND_ORGANIZATION ( #126, #330 ) ;
#225 = CIRCLE ( 'NONE', #32, 0.1149999999999992140 ) ;
#226 = ORIENTED_EDGE ( 'NONE', *, *, #28, .F. ) ;
#227 = ORIENTED_EDGE ( 'NONE', *, *, #12, .T. ) ;
#228 = DIRECTION ( 'NONE',  ( -0.0000000000000000000, 1.000000000000000000, -0.0000000000000000000 ) ) ;
#229 = DIRECTION ( 'NONE',  ( 8.659560562354814529E-17, 0.7071067811865572317, -0.7071067811865378028 ) ) ;
#230 = VECTOR ( 'NONE', #322, 39.37007874015748143 ) ;
#231 = DIRECTION ( 'NONE',  ( -0.0000000000000000000, 1.000000000000000000, -0.0000000000000000000 ) ) ;
#232 = DIRECTION ( 'NONE',  ( 0.0000000000000000000, 0.0000000000000000000, 1.000000000000000000 ) ) ;
#233 = CARTESIAN_POINT ( 'NONE',  ( 0.0000000000000000000, 0.4849999999999998757, 0.0000000000000000000 ) ) ;
#234 = DIMENSIONAL_EXPONENTS ( 1.000000000000000000, 0.0000000000000000000, 0.0000000000000000000, 0.0000000000000000000, 0.0000000000000000000, 0.0000000000000000000, 0.0000000000000000000 ) ;
#235 = CARTESIAN_POINT ( 'NONE',  ( 0.0000000000000000000, -0.4850000000000004308, 0.0000000000000000000 ) ) ;
#236 = CIRCLE ( 'NONE', #393, 0.2269999999999991469 ) ;
#237 = ORIENTED_EDGE ( 'NONE', *, *, #364, .T. ) ;
#238 = CARTESIAN_POINT ( 'NONE',  ( 0.0000000000000000000, -0.5000000000000001110, -0.1149999999999992140 ) ) ;
#239 = FACE_OUTER_BOUND ( 'NONE', #289, .T. ) ;
#240 = DIRECTION ( 'NONE',  ( -0.0000000000000000000, 1.000000000000000000, -0.0000000000000000000 ) ) ;
#241 = EDGE_CURVE ( 'NONE', #33, #2, #40, .T. ) ;
#242 = CARTESIAN_POINT ( 'NONE',  ( 0.0000000000000000000, -0.5000000000000001110, 0.0000000000000000000 ) ) ;
#243 = CARTESIAN_POINT ( 'NONE',  ( 0.0000000000000000000, 0.5000000000000001110, 0.1149999999999992140 ) ) ;
#244 = CARTESIAN_POINT ( 'NONE',  ( 1.316495309083399934E-17, -0.4850000000000004308, 0.09999999999999999167 ) ) ;
#245 = AXIS2_PLACEMENT_3D ( 'NONE', #79, #360, #10 ) ;
#246 = FACE_OUTER_BOUND ( 'NONE', #23, .T. ) ;
#247 = ORIENTED_EDGE ( 'NONE', *, *, #241, .T. ) ;
#248 = COORDINATED_UNIVERSAL_TIME_OFFSET ( 5, 0, .BEHIND. ) ;
#249 = DIRECTION ( 'NONE',  ( 0.0000000000000000000, 0.0000000000000000000, -1.000000000000000000 ) ) ;
#250 = ORIENTED_EDGE ( 'NONE', *, *, #66, .F. ) ;
#251 = CALENDAR_DATE ( 2020, 6, 3 ) ;
#252 = AXIS2_PLACEMENT_3D ( 'NONE', #403, #196, #334 ) ;
#253 = CARTESIAN_POINT ( 'NONE',  ( 0.0000000000000000000, 0.5000000000000001110, -0.2269999999999991747 ) ) ;
#254 = FACE_OUTER_BOUND ( 'NONE', #368, .T. ) ;
#255 = VERTEX_POINT ( 'NONE', #120 ) ;
#256 = DATE_AND_TIME ( #342, #191 ) ;
#257 = COORDINATED_UNIVERSAL_TIME_OFFSET ( 5, 0, .BEHIND. ) ;
#258 = CIRCLE ( 'NONE', #287, 0.1149999999999992140 ) ;
#259 = APPROVAL ( #183, 'UNSPECIFIED' ) ;
#260 = EDGE_LOOP ( 'NONE', ( #167, #211, #162, #69 ) ) ;
#261 = ORIENTED_EDGE ( 'NONE', *, *, #152, .F. ) ;
#262 = EDGE_CURVE ( 'NONE', #340, #255, #7, .T. ) ;
#263 = CARTESIAN_POINT ( 'NONE',  ( 0.0000000000000000000, 0.5000000000000001110, -0.2269999999999991747 ) ) ;
#264 = LOCAL_TIME ( 11, 51, 7.000000000000000000, #257 ) ;
#265 = DIRECTION ( 'NONE',  ( 0.0000000000000000000, 0.0000000000000000000, -1.000000000000000000 ) ) ;
#266 = CYLINDRICAL_SURFACE ( 'NONE', #122, 0.09999999999999996392 ) ;
#267 = CIRCLE ( 'NONE', #119, 0.2269999999999991747 ) ;
#268 = DIRECTION ( 'NONE',  ( -0.0000000000000000000, 1.000000000000000000, -0.0000000000000000000 ) ) ;
#269 = AXIS2_PLACEMENT_3D ( 'NONE', #276, #347, #249 ) ;
#270 = CARTESIAN_POINT ( 'NONE',  ( 0.0000000000000000000, 3.182511028214465743, 0.0000000000000000000 ) ) ;
#271 = DIRECTION ( 'NONE',  ( -0.0000000000000000000, 1.000000000000000000, -0.0000000000000000000 ) ) ;
#272 = FACE_OUTER_BOUND ( 'NONE', #24, .T. ) ;
#273 = DIRECTION ( 'NONE',  ( -0.0000000000000000000, 1.000000000000000000, -0.0000000000000000000 ) ) ;
#274 = CARTESIAN_POINT ( 'NONE',  ( 0.0000000000000000000, -0.5000000000000001110, 0.0000000000000000000 ) ) ;
#275 =( LENGTH_UNIT ( ) NAMED_UNIT ( * ) SI_UNIT ( $, .METRE. ) );
#276 = CARTESIAN_POINT ( 'NONE',  ( 0.0000000000000000000, -0.5000000000000001110, 0.0000000000000000000 ) ) ;
#277 = ORIENTED_EDGE ( 'NONE', *, *, #127, .T. ) ;
#278 = ORIENTED_EDGE ( 'NONE', *, *, #136, .T. ) ;
#279 = DATE_AND_TIME ( #50, #404 ) ;
#280 = DESIGN_CONTEXT ( 'detailed design', #75, 'design' ) ;
#281 = DIRECTION ( 'NONE',  ( 8.659560562354794808E-17, -0.7071067811865587860, 0.7071067811865362485 ) ) ;
#282 = CIRCLE ( 'NONE', #370, 0.09999999999999999167 ) ;
#283 = FACE_OUTER_BOUND ( 'NONE', #87, .T. ) ;
#284 = ORIENTED_EDGE ( 'NONE', *, *, #59, .T. ) ;
#285 = PERSON_AND_ORGANIZATION ( #126, #330 ) ;
#286 = CONICAL_SURFACE ( 'NONE', #131, 0.1149999999999992140, 0.7853981633974346233 ) ;
#287 = AXIS2_PLACEMENT_3D ( 'NONE', #445, #414, #345 ) ;
#288 = EDGE_CURVE ( 'NONE', #16, #255, #208, .T. ) ;
#289 = EDGE_LOOP ( 'NONE', ( #438, #341, #137, #442 ) ) ;
#290 = VERTEX_POINT ( 'NONE', #331 ) ;
#291 = CIRCLE ( 'NONE', #64, 0.1149999999999992140 ) ;
#292 = DIRECTION ( 'NONE',  ( 0.0000000000000000000, -1.000000000000000000, 0.0000000000000000000 ) ) ;
#293 = DIRECTION ( 'NONE',  ( 0.0000000000000000000, -0.7071067811865362485, -0.7071067811865587860 ) ) ;
#294 = ADVANCED_FACE ( 'NONE', ( #355 ), #180, .F. ) ;
#295 = DIRECTION ( 'NONE',  ( 8.659560562355080770E-17, 0.7071067811865354713, -0.7071067811865595631 ) ) ;
#296 = ORIENTED_EDGE ( 'NONE', *, *, #402, .F. ) ;
#297 = AXIS2_PLACEMENT_3D ( 'NONE', #339, #271, #61 ) ;
#298 = LINE ( 'NONE', #337, #202 ) ;
#299 = EDGE_CURVE ( 'NONE', #426, #356, #282, .T. ) ;
#300 = PRODUCT_RELATED_PRODUCT_CATEGORY ( 'detail', '', ( #194 ) ) ;
#301 = LINE ( 'NONE', #238, #323 ) ;
#302 = ORIENTED_EDGE ( 'NONE', *, *, #262, .F. ) ;
#303 = ADVANCED_FACE ( 'NONE', ( #312 ), #266, .F. ) ;
#304 = PERSON_AND_ORGANIZATION ( #126, #330 ) ;
#305 = DIRECTION ( 'NONE',  ( 0.0000000000000000000, 0.0000000000000000000, 1.000000000000000000 ) ) ;
#306 = EDGE_CURVE ( 'NONE', #290, #117, #225, .T. ) ;
#307 = CARTESIAN_POINT ( 'NONE',  ( 0.0000000000000000000, 3.182511028214465743, 0.09999999999999996392 ) ) ;
#308 = LINE ( 'NONE', #441, #395 ) ;
#309 = VERTEX_POINT ( 'NONE', #197 ) ;
#310 = EDGE_CURVE ( 'NONE', #172, #63, #430, .T. ) ;
#311 = AXIS2_PLACEMENT_3D ( 'NONE', #449, #104, #179 ) ;
#312 = FACE_OUTER_BOUND ( 'NONE', #222, .T. ) ;
#313 = FACE_BOUND ( 'NONE', #369, .T. ) ;
#314 = ORIENTED_EDGE ( 'NONE', *, *, #329, .T. ) ;
#315 = EDGE_LOOP ( 'NONE', ( #125, #411, #184, #181 ) ) ;
#316 = EDGE_CURVE ( 'NONE', #309, #63, #338, .T. ) ;
#317 = LENGTH_MEASURE_WITH_UNIT ( LENGTH_MEASURE( 0.02539999999999999897 ), #275 );
#318 =( NAMED_UNIT ( * ) SI_UNIT ( $, .STERADIAN. ) SOLID_ANGLE_UNIT ( ) );
#319 = APPROVAL_ROLE ( '' ) ;
#320 = CARTESIAN_POINT ( 'NONE',  ( 0.0000000000000000000, 0.4999999999999999445, 3.048937492928867541E-16 ) ) ;
#321 = PRODUCT_DEFINITION_FORMATION_WITH_SPECIFIED_SOURCE ( 'ANY', '', #194, .NOT_KNOWN. ) ;
#322 = DIRECTION ( 'NONE',  ( 0.0000000000000000000, 0.7071067811865572317, 0.7071067811865378028 ) ) ;
#323 = VECTOR ( 'NONE', #132, 39.37007874015748143 ) ;
#324 = ORIENTED_EDGE ( 'NONE', *, *, #310, .T. ) ;
#325 = PERSON_AND_ORGANIZATION ( #126, #330 ) ;
#326 = FACE_OUTER_BOUND ( 'NONE', #415, .T. ) ;
#327 = AXIS2_PLACEMENT_3D ( 'NONE', #391, #386, #5 ) ;
#328 = DIRECTION ( 'NONE',  ( -0.0000000000000000000, 1.000000000000000000, -0.0000000000000000000 ) ) ;
#329 = EDGE_CURVE ( 'NONE', #309, #16, #31, .T. ) ;
#330 = ORGANIZATION ( 'UNSPECIFIED', 'UNSPECIFIED', '' ) ;
#331 = CARTESIAN_POINT ( 'NONE',  ( 0.0000000000000000000, -0.5000000000000001110, -0.1149999999999992140 ) ) ;
#332 = EDGE_CURVE ( 'NONE', #33, #16, #308, .T. ) ;
#333 = ADVANCED_FACE ( 'NONE', ( #220 ), #89, .F. ) ;
#334 = DIRECTION ( 'NONE',  ( 0.0000000000000000000, 0.0000000000000000000, 1.000000000000000000 ) ) ;
#335 = PERSON_AND_ORGANIZATION ( #126, #330 ) ;
#336 = DIRECTION ( 'NONE',  ( -0.0000000000000000000, 1.000000000000000000, 0.0000000000000000000 ) ) ;
#337 = CARTESIAN_POINT ( 'NONE',  ( 1.224646799147352807E-17, 3.182511028214465743, -0.09999999999999996392 ) ) ;
#338 = LINE ( 'NONE', #48, #62 ) ;
#339 = CARTESIAN_POINT ( 'NONE',  ( 0.0000000000000000000, -0.4849999999999998757, 0.0000000000000000000 ) ) ;
#340 = VERTEX_POINT ( 'NONE', #178 ) ;
#341 = ORIENTED_EDGE ( 'NONE', *, *, #262, .T. ) ;
#342 = CALENDAR_DATE ( 2020, 6, 3 ) ;
#343 = DIRECTION ( 'NONE',  ( 0.0000000000000000000, 0.0000000000000000000, -1.000000000000000000 ) ) ;
#344 = CC_DESIGN_APPROVAL ( #73, ( #321 ) ) ;
#345 = DIRECTION ( 'NONE',  ( 0.0000000000000000000, 0.0000000000000000000, 1.000000000000000000 ) ) ;
#346 = VECTOR ( 'NONE', #14, 39.37007874015748143 ) ;
#347 = DIRECTION ( 'NONE',  ( 0.0000000000000000000, -1.000000000000000000, 0.0000000000000000000 ) ) ;
#348 = DATE_TIME_ROLE ( 'creation_date' ) ;
#349 = CARTESIAN_POINT ( 'NONE',  ( 0.0000000000000000000, 0.0000000000000000000, 0.0000000000000000000 ) ) ;
#350 = EDGE_LOOP ( 'NONE', ( #247, #42, #377, #83 ) ) ;
#351 = PERSON_AND_ORGANIZATION_ROLE ( 'creator' ) ;
#352 = EDGE_LOOP ( 'NONE', ( #261, #77, #237, #406 ) ) ;
#353 = EDGE_CURVE ( 'NONE', #443, #21, #291, .T. ) ;
#354 = CARTESIAN_POINT ( 'NONE',  ( 0.0000000000000000000, 0.4850000000000004308, 0.09999999999999992228 ) ) ;
#355 = FACE_OUTER_BOUND ( 'NONE', #260, .T. ) ;
#356 = VERTEX_POINT ( 'NONE', #244 ) ;
#357 = APPROVAL_PERSON_ORGANIZATION ( #107, #259, #385 ) ;
#358 = AXIS2_PLACEMENT_3D ( 'NONE', #150, #112, #29 ) ;
#359 = DIRECTION ( 'NONE',  ( -0.0000000000000000000, 1.000000000000000000, -0.0000000000000000000 ) ) ;
#360 = DIRECTION ( 'NONE',  ( -0.0000000000000000000, 1.000000000000000000, -0.0000000000000000000 ) ) ;
#361 = DIRECTION ( 'NONE',  ( 0.0000000000000000000, 0.0000000000000000000, 1.000000000000000000 ) ) ;
#362 = ORIENTED_EDGE ( 'NONE', *, *, #59, .F. ) ;
#363 = CARTESIAN_POINT ( 'NONE',  ( 0.0000000000000000000, 0.5000000000000001110, 0.0000000000000000000 ) ) ;
#364 = EDGE_CURVE ( 'NONE', #21, #443, #258, .T. ) ;
#365 = CONICAL_SURFACE ( 'NONE', #398, 0.2269999999999991747, 0.7853981633974642662 ) ;
#366 = ADVANCED_FACE ( 'NONE', ( #326 ), #207, .T. ) ;
#367 = FACE_BOUND ( 'NONE', #138, .T. ) ;
#368 = EDGE_LOOP ( 'NONE', ( #284, #100 ) ) ;
#369 = EDGE_LOOP ( 'NONE', ( #381, #176 ) ) ;
#370 = AXIS2_PLACEMENT_3D ( 'NONE', #235, #200, #129 ) ;
#371 = CARTESIAN_POINT ( 'NONE',  ( 0.0000000000000000000, 0.5000000000000001110, 0.0000000000000000000 ) ) ;
#372 = CARTESIAN_POINT ( 'NONE',  ( 1.316495309083399472E-17, 0.4850000000000004308, -0.09999999999999992228 ) ) ;
#373 = FACE_OUTER_BOUND ( 'NONE', #189, .T. ) ;
#374 = DIRECTION ( 'NONE',  ( -0.0000000000000000000, 1.000000000000000000, -0.0000000000000000000 ) ) ;
#375 = DIRECTION ( 'NONE',  ( 0.0000000000000000000, -1.000000000000000000, 0.0000000000000000000 ) ) ;
#376 = CIRCLE ( 'NONE', #166, 0.1149999999999992140 ) ;
#377 = ORIENTED_EDGE ( 'NONE', *, *, #160, .F. ) ;
#378 = CARTESIAN_POINT ( 'NONE',  ( 0.0000000000000000000, 0.5000000000000001110, 0.0000000000000000000 ) ) ;
#379 = APPLICATION_PROTOCOL_DEFINITION ( 'international standard', 'config_control_design', 1994, #75 ) ;
#380 = EDGE_LOOP ( 'NONE', ( #49, #278, #432, #195 ) ) ;
#381 = ORIENTED_EDGE ( 'NONE', *, *, #306, .T. ) ;
#382 = ORIENTED_EDGE ( 'NONE', *, *, #152, .T. ) ;
#383 = EDGE_CURVE ( 'NONE', #356, #426, #74, .T. ) ;
#384 = PERSON_AND_ORGANIZATION_ROLE ( 'creator' ) ;
#385 = APPROVAL_ROLE ( '' ) ;
#386 = DIRECTION ( 'NONE',  ( -0.0000000000000000000, 1.000000000000000000, -0.0000000000000000000 ) ) ;
#387 = CYLINDRICAL_SURFACE ( 'NONE', #52, 0.2419999999999999096 ) ;
#388 = CARTESIAN_POINT ( 'NONE',  ( 0.0000000000000000000, -0.4849999999999998757, 0.0000000000000000000 ) ) ;
#389 = ORIENTED_EDGE ( 'NONE', *, *, #427, .T. ) ;
#390 = CC_DESIGN_PERSON_AND_ORGANIZATION_ASSIGNMENT ( #325, #425, ( #321 ) ) ;
#391 = CARTESIAN_POINT ( 'NONE',  ( 0.0000000000000000000, 0.4850000000000004308, 0.0000000000000000000 ) ) ;
#392 = CARTESIAN_POINT ( 'NONE',  ( 0.0000000000000000000, 0.4849999999999998757, 0.0000000000000000000 ) ) ;
#393 = AXIS2_PLACEMENT_3D ( 'NONE', #274, #58, #22 ) ;
#394 = CARTESIAN_POINT ( 'NONE',  ( 2.779948234064481311E-17, 0.5000000000000001110, 0.2269999999999991747 ) ) ;
#395 = VECTOR ( 'NONE', #53, 39.37007874015748143 ) ;
#396 = CIRCLE ( 'NONE', #17, 0.2419999999999999096 ) ;
#397 = DIRECTION ( 'NONE',  ( -0.0000000000000000000, 1.000000000000000000, -0.0000000000000000000 ) ) ;
#398 = AXIS2_PLACEMENT_3D ( 'NONE', #378, #375, #182 ) ;
#399 = VECTOR ( 'NONE', #147, 39.37007874015748143 ) ;
#400 = DIRECTION ( 'NONE',  ( -0.0000000000000000000, 1.000000000000000000, -0.0000000000000000000 ) ) ;
#401 = CARTESIAN_POINT ( 'NONE',  ( 0.0000000000000000000, -0.5000000000000001110, 0.2269999999999991469 ) ) ;
#402 = EDGE_CURVE ( 'NONE', #356, #159, #46, .T. ) ;
#403 = CARTESIAN_POINT ( 'NONE',  ( 0.0000000000000000000, 3.182511028214465743, 0.0000000000000000000 ) ) ;
#404 = LOCAL_TIME ( 11, 51, 7.000000000000000000, #155 ) ;
#405 = ADVANCED_FACE ( 'NONE', ( #185 ), #286, .F. ) ;
#406 = ORIENTED_EDGE ( 'NONE', *, *, #218, .F. ) ;
#407 = ADVANCED_FACE ( 'NONE', ( #373 ), #11, .T. ) ;
#408 = AXIS2_PLACEMENT_3D ( 'NONE', #242, #273, #452 ) ;
#409 = CIRCLE ( 'NONE', #190, 0.09999999999999992228 ) ;
#410 = CARTESIAN_POINT ( 'NONE',  ( 0.0000000000000000000, 3.182511028214465743, 0.0000000000000000000 ) ) ;
#411 = ORIENTED_EDGE ( 'NONE', *, *, #85, .F. ) ;
#412 = DATE_AND_TIME ( #149, #420 ) ;
#413 = ADVANCED_FACE ( 'NONE', ( #239 ), #365, .T. ) ;
#414 = DIRECTION ( 'NONE',  ( -0.0000000000000000000, 1.000000000000000000, -0.0000000000000000000 ) ) ;
#415 = EDGE_LOOP ( 'NONE', ( #226, #277, #419, #188 ) ) ;
#416 = CARTESIAN_POINT ( 'NONE',  ( 0.0000000000000000000, -0.4850000000000004308, -0.09999999999999999167 ) ) ;
#417 = DATE_AND_TIME ( #251, #264 ) ;
#418 = DIRECTION ( 'NONE',  ( 0.0000000000000000000, 0.0000000000000000000, 1.000000000000000000 ) ) ;
#419 = ORIENTED_EDGE ( 'NONE', *, *, #332, .T. ) ;
#420 = LOCAL_TIME ( 11, 51, 7.000000000000000000, #248 ) ;
#421 = PERSON_AND_ORGANIZATION_ROLE ( 'classification_officer' ) ;
#422 = ADVANCED_BREP_SHAPE_REPRESENTATION ( '2661480002', ( #103, #43 ), #68 ) ;
#423 = CALENDAR_DATE ( 2020, 6, 3 ) ;
#424 =( CONVERSION_BASED_UNIT ( 'INCH', #317 ) LENGTH_UNIT ( ) NAMED_UNIT ( #234 ) );
#425 = PERSON_AND_ORGANIZATION_ROLE ( 'design_supplier' ) ;
#426 = VERTEX_POINT ( 'NONE', #416 ) ;
#427 = EDGE_CURVE ( 'NONE', #426, #95, #298, .T. ) ;
#428 = DIRECTION ( 'NONE',  ( 1.000000000000000000, 0.0000000000000000000, 0.0000000000000000000 ) ) ;
#429 = DIRECTION ( 'NONE',  ( -0.0000000000000000000, 1.000000000000000000, -0.0000000000000000000 ) ) ;
#430 = LINE ( 'NONE', #263, #154 ) ;
#431 = LOCAL_TIME ( 11, 51, 7.000000000000000000, #223 ) ;
#432 = ORIENTED_EDGE ( 'NONE', *, *, #306, .F. ) ;
#433 = CARTESIAN_POINT ( 'NONE',  ( 0.0000000000000000000, -0.4849999999999998757, 0.2419999999999999096 ) ) ;
#434 = AXIS2_PLACEMENT_3D ( 'NONE', #388, #429, #6 ) ;
#435 = CIRCLE ( 'NONE', #80, 0.2419999999999999096 ) ;
#436 = DIRECTION ( 'NONE',  ( 0.0000000000000000000, 0.0000000000000000000, 1.000000000000000000 ) ) ;
#437 = ORIENTED_EDGE ( 'NONE', *, *, #127, .F. ) ;
#438 = ORIENTED_EDGE ( 'NONE', *, *, #440, .F. ) ;
#439 = DIRECTION ( 'NONE',  ( -0.0000000000000000000, 1.000000000000000000, -0.0000000000000000000 ) ) ;
#440 = EDGE_CURVE ( 'NONE', #340, #172, #26, .T. ) ;
#441 = CARTESIAN_POINT ( 'NONE',  ( 0.0000000000000000000, -0.5000000000000001110, 0.2269999999999991469 ) ) ;
#442 = ORIENTED_EDGE ( 'NONE', *, *, #310, .F. ) ;
#443 = VERTEX_POINT ( 'NONE', #243 ) ;
#444 = COORDINATED_UNIVERSAL_TIME_OFFSET ( 5, 0, .BEHIND. ) ;
#445 = CARTESIAN_POINT ( 'NONE',  ( 0.0000000000000000000, 0.5000000000000001110, 0.0000000000000000000 ) ) ;
#446 = DIRECTION ( 'NONE',  ( -0.0000000000000000000, 1.000000000000000000, -0.0000000000000000000 ) ) ;
#447 = DIRECTION ( 'NONE',  ( -0.0000000000000000000, 1.000000000000000000, -0.0000000000000000000 ) ) ;
#448 = LINE ( 'NONE', #13, #210 ) ;
#449 = CARTESIAN_POINT ( 'NONE',  ( 0.0000000000000000000, -0.4850000000000004308, 0.0000000000000000000 ) ) ;
#450 = PRODUCT_DEFINITION ( 'UNKNOWN', '', #321, #280 ) ;
#451 = ORIENTED_EDGE ( 'NONE', *, *, #109, .T. ) ;
#452 = DIRECTION ( 'NONE',  ( 0.0000000000000000000, 0.0000000000000000000, 1.000000000000000000 ) ) ;
ENDSEC;
END-ISO-10303-21;
