ISO-10303-21;
HEADER;
/* Generated by software containing ST-Developer
 * from STEP Tools, Inc. (www.steptools.com) 
 */

FILE_DESCRIPTION(
/* description */ (''),
/* implementation_level */ '2;1');

FILE_NAME(
/* name */ 'RADSAT Sensor Shield.stp',
/* time_stamp */ '2025-07-10T09:58:58-06:00',
/* author */ ('muench'),
/* organization */ (''),
/* preprocessor_version */ 'ST-DEVELOPER v20',
/* originating_system */ 'Autodesk Inventor 2025',
/* authorisation */ '');

FILE_SCHEMA (('AUTOMOTIVE_DESIGN { 1 0 10303 214 3 1 1 }'));
ENDSEC;

DATA;
#10=MECHANICAL_DESIGN_GEOMETRIC_PRESENTATION_REPRESENTATION('',(#13),#317);
#11=SHAPE_REPRESENTATION_RELATIONSHIP('SRR','None',#328,#12);
#12=ADVANCED_BREP_SHAPE_REPRESENTATION('',(#14),#316);
#13=STYLED_ITEM('',(#337),#14);
#14=MANIFOLD_SOLID_BREP('Solid1',#167);
#15=CYLINDRICAL_SURFACE('',#205,0.26);
#16=CYLINDRICAL_SURFACE('',#207,0.26);
#17=LINE('',#279,#27);
#18=LINE('',#284,#28);
#19=LINE('',#287,#29);
#20=LINE('',#290,#30);
#21=LINE('',#294,#31);
#22=LINE('',#295,#32);
#23=LINE('',#296,#33);
#24=LINE('',#300,#34);
#25=LINE('',#301,#35);
#26=LINE('',#302,#36);
#27=VECTOR('',#225,0.393700787401575);
#28=VECTOR('',#230,0.393700787401575);
#29=VECTOR('',#233,0.393700787401575);
#30=VECTOR('',#236,0.393700787401575);
#31=VECTOR('',#239,0.393700787401575);
#32=VECTOR('',#240,0.393700787401575);
#33=VECTOR('',#241,0.393700787401575);
#34=VECTOR('',#244,0.393700787401575);
#35=VECTOR('',#245,0.393700787401575);
#36=VECTOR('',#246,0.393700787401575);
#37=PLANE('',#194);
#38=PLANE('',#197);
#39=PLANE('',#199);
#40=PLANE('',#200);
#41=PLANE('',#201);
#42=PLANE('',#203);
#43=FACE_OUTER_BOUND('',#53,.T.);
#44=FACE_OUTER_BOUND('',#54,.T.);
#45=FACE_OUTER_BOUND('',#55,.T.);
#46=FACE_OUTER_BOUND('',#56,.T.);
#47=FACE_OUTER_BOUND('',#57,.T.);
#48=FACE_OUTER_BOUND('',#58,.T.);
#49=FACE_OUTER_BOUND('',#59,.T.);
#50=FACE_OUTER_BOUND('',#60,.T.);
#51=FACE_OUTER_BOUND('',#61,.T.);
#52=FACE_OUTER_BOUND('',#62,.T.);
#53=EDGE_LOOP('',(#111,#112,#113,#114,#115));
#54=EDGE_LOOP('',(#116,#117,#118,#119,#120,#121));
#55=EDGE_LOOP('',(#122,#123,#124,#125));
#56=EDGE_LOOP('',(#126,#127,#128,#129,#130));
#57=EDGE_LOOP('',(#131,#132,#133,#134,#135));
#58=EDGE_LOOP('',(#136,#137));
#59=EDGE_LOOP('',(#138,#139));
#60=EDGE_LOOP('',(#140,#141,#142,#143));
#61=EDGE_LOOP('',(#144,#145,#146,#147));
#62=EDGE_LOOP('',(#148,#149,#150,#151,#152,#153,#154));
#63=CIRCLE('',#190,0.05);
#64=CIRCLE('',#191,0.05);
#65=CIRCLE('',#192,0.05);
#66=CIRCLE('',#193,0.05);
#67=CIRCLE('',#195,0.26);
#68=CIRCLE('',#196,0.26);
#69=CIRCLE('',#198,0.26);
#70=CIRCLE('',#202,0.26);
#71=CIRCLE('',#204,0.26);
#72=CIRCLE('',#206,0.26);
#73=CIRCLE('',#208,0.26);
#74=CIRCLE('',#210,0.26);
#75=VERTEX_POINT('',#269);
#76=VERTEX_POINT('',#270);
#77=VERTEX_POINT('',#272);
#78=VERTEX_POINT('',#275);
#79=VERTEX_POINT('',#278);
#80=VERTEX_POINT('',#280);
#81=VERTEX_POINT('',#282);
#82=VERTEX_POINT('',#286);
#83=VERTEX_POINT('',#288);
#84=VERTEX_POINT('',#292);
#85=VERTEX_POINT('',#293);
#86=VERTEX_POINT('',#298);
#87=VERTEX_POINT('',#299);
#88=VERTEX_POINT('',#312);
#89=EDGE_CURVE('',#75,#76,#63,.T.);
#90=EDGE_CURVE('',#77,#75,#64,.T.);
#91=EDGE_CURVE('',#76,#77,#65,.T.);
#92=EDGE_CURVE('',#76,#78,#66,.T.);
#93=EDGE_CURVE('',#79,#77,#17,.T.);
#94=EDGE_CURVE('',#80,#79,#67,.T.);
#95=EDGE_CURVE('',#81,#80,#68,.T.);
#96=EDGE_CURVE('',#75,#81,#18,.T.);
#97=EDGE_CURVE('',#82,#75,#19,.T.);
#98=EDGE_CURVE('',#83,#82,#69,.T.);
#99=EDGE_CURVE('',#77,#83,#20,.T.);
#100=EDGE_CURVE('',#84,#85,#21,.T.);
#101=EDGE_CURVE('',#82,#84,#22,.T.);
#102=EDGE_CURVE('',#85,#81,#23,.T.);
#103=EDGE_CURVE('',#86,#87,#24,.T.);
#104=EDGE_CURVE('',#79,#86,#25,.T.);
#105=EDGE_CURVE('',#87,#83,#26,.T.);
#106=EDGE_CURVE('',#86,#87,#70,.T.);
#107=EDGE_CURVE('',#84,#85,#71,.T.);
#108=EDGE_CURVE('',#79,#83,#72,.T.);
#109=EDGE_CURVE('',#82,#81,#73,.T.);
#110=EDGE_CURVE('',#88,#80,#74,.T.);
#111=ORIENTED_EDGE('',*,*,#89,.F.);
#112=ORIENTED_EDGE('',*,*,#90,.F.);
#113=ORIENTED_EDGE('',*,*,#91,.F.);
#114=ORIENTED_EDGE('',*,*,#92,.T.);
#115=ORIENTED_EDGE('',*,*,#92,.F.);
#116=ORIENTED_EDGE('',*,*,#89,.T.);
#117=ORIENTED_EDGE('',*,*,#91,.T.);
#118=ORIENTED_EDGE('',*,*,#93,.F.);
#119=ORIENTED_EDGE('',*,*,#94,.F.);
#120=ORIENTED_EDGE('',*,*,#95,.F.);
#121=ORIENTED_EDGE('',*,*,#96,.F.);
#122=ORIENTED_EDGE('',*,*,#90,.T.);
#123=ORIENTED_EDGE('',*,*,#97,.F.);
#124=ORIENTED_EDGE('',*,*,#98,.F.);
#125=ORIENTED_EDGE('',*,*,#99,.F.);
#126=ORIENTED_EDGE('',*,*,#100,.F.);
#127=ORIENTED_EDGE('',*,*,#101,.F.);
#128=ORIENTED_EDGE('',*,*,#97,.T.);
#129=ORIENTED_EDGE('',*,*,#96,.T.);
#130=ORIENTED_EDGE('',*,*,#102,.F.);
#131=ORIENTED_EDGE('',*,*,#103,.F.);
#132=ORIENTED_EDGE('',*,*,#104,.F.);
#133=ORIENTED_EDGE('',*,*,#93,.T.);
#134=ORIENTED_EDGE('',*,*,#99,.T.);
#135=ORIENTED_EDGE('',*,*,#105,.F.);
#136=ORIENTED_EDGE('',*,*,#103,.T.);
#137=ORIENTED_EDGE('',*,*,#106,.F.);
#138=ORIENTED_EDGE('',*,*,#100,.T.);
#139=ORIENTED_EDGE('',*,*,#107,.F.);
#140=ORIENTED_EDGE('',*,*,#105,.T.);
#141=ORIENTED_EDGE('',*,*,#108,.F.);
#142=ORIENTED_EDGE('',*,*,#104,.T.);
#143=ORIENTED_EDGE('',*,*,#106,.T.);
#144=ORIENTED_EDGE('',*,*,#101,.T.);
#145=ORIENTED_EDGE('',*,*,#107,.T.);
#146=ORIENTED_EDGE('',*,*,#102,.T.);
#147=ORIENTED_EDGE('',*,*,#109,.F.);
#148=ORIENTED_EDGE('',*,*,#109,.T.);
#149=ORIENTED_EDGE('',*,*,#95,.T.);
#150=ORIENTED_EDGE('',*,*,#110,.F.);
#151=ORIENTED_EDGE('',*,*,#110,.T.);
#152=ORIENTED_EDGE('',*,*,#94,.T.);
#153=ORIENTED_EDGE('',*,*,#108,.T.);
#154=ORIENTED_EDGE('',*,*,#98,.T.);
#155=SPHERICAL_SURFACE('',#189,0.05);
#156=SPHERICAL_SURFACE('',#209,0.26);
#157=ADVANCED_FACE('',(#43),#155,.F.);
#158=ADVANCED_FACE('',(#44),#37,.T.);
#159=ADVANCED_FACE('',(#45),#38,.T.);
#160=ADVANCED_FACE('',(#46),#39,.F.);
#161=ADVANCED_FACE('',(#47),#40,.F.);
#162=ADVANCED_FACE('',(#48),#41,.F.);
#163=ADVANCED_FACE('',(#49),#42,.F.);
#164=ADVANCED_FACE('',(#50),#15,.T.);
#165=ADVANCED_FACE('',(#51),#16,.T.);
#166=ADVANCED_FACE('',(#52),#156,.T.);
#167=CLOSED_SHELL('',(#157,#158,#159,#160,#161,#162,#163,#164,#165,#166));
#168=DERIVED_UNIT_ELEMENT(#170,1.);
#169=DERIVED_UNIT_ELEMENT(#322,-3.);
#170=(
CONVERSION_BASED_UNIT('gram',#172)
MASS_UNIT()
NAMED_UNIT(#319)
);
#171=(
MASS_UNIT()
NAMED_UNIT(*)
SI_UNIT(.KILO.,.GRAM.)
);
#172=MASS_MEASURE_WITH_UNIT(MASS_MEASURE(0.001),#171);
#173=DERIVED_UNIT((#168,#169));
#174=MEASURE_REPRESENTATION_ITEM('density measure',
POSITIVE_RATIO_MEASURE(1.),#173);
#175=PROPERTY_DEFINITION_REPRESENTATION(#180,#177);
#176=PROPERTY_DEFINITION_REPRESENTATION(#181,#178);
#177=REPRESENTATION('material name',(#179),#316);
#178=REPRESENTATION('density',(#174),#316);
#179=DESCRIPTIVE_REPRESENTATION_ITEM('Generic','Generic');
#180=PROPERTY_DEFINITION('material property','material name',#330);
#181=PROPERTY_DEFINITION('material property','density of part',#330);
#182=DATE_TIME_ROLE('creation_date');
#183=APPLIED_DATE_AND_TIME_ASSIGNMENT(#184,#182,(#330));
#184=DATE_AND_TIME(#185,#186);
#185=CALENDAR_DATE(2025,10,7);
#186=LOCAL_TIME(0,0,0.,#187);
#187=COORDINATED_UNIVERSAL_TIME_OFFSET(0,0,.BEHIND.);
#188=AXIS2_PLACEMENT_3D('',#267,#211,#212);
#189=AXIS2_PLACEMENT_3D('',#268,#213,#214);
#190=AXIS2_PLACEMENT_3D('',#271,#215,#216);
#191=AXIS2_PLACEMENT_3D('',#273,#217,#218);
#192=AXIS2_PLACEMENT_3D('',#274,#219,#220);
#193=AXIS2_PLACEMENT_3D('',#276,#221,#222);
#194=AXIS2_PLACEMENT_3D('',#277,#223,#224);
#195=AXIS2_PLACEMENT_3D('',#281,#226,#227);
#196=AXIS2_PLACEMENT_3D('',#283,#228,#229);
#197=AXIS2_PLACEMENT_3D('',#285,#231,#232);
#198=AXIS2_PLACEMENT_3D('',#289,#234,#235);
#199=AXIS2_PLACEMENT_3D('',#291,#237,#238);
#200=AXIS2_PLACEMENT_3D('',#297,#242,#243);
#201=AXIS2_PLACEMENT_3D('',#303,#247,#248);
#202=AXIS2_PLACEMENT_3D('',#304,#249,#250);
#203=AXIS2_PLACEMENT_3D('',#305,#251,#252);
#204=AXIS2_PLACEMENT_3D('',#306,#253,#254);
#205=AXIS2_PLACEMENT_3D('',#307,#255,#256);
#206=AXIS2_PLACEMENT_3D('',#308,#257,#258);
#207=AXIS2_PLACEMENT_3D('',#309,#259,#260);
#208=AXIS2_PLACEMENT_3D('',#310,#261,#262);
#209=AXIS2_PLACEMENT_3D('',#311,#263,#264);
#210=AXIS2_PLACEMENT_3D('',#313,#265,#266);
#211=DIRECTION('axis',(0.,0.,1.));
#212=DIRECTION('refdir',(1.,0.,0.));
#213=DIRECTION('center_axis',(6.12323399573676E-17,0.,1.));
#214=DIRECTION('ref_axis',(1.,0.,0.));
#215=DIRECTION('center_axis',(0.,0.,1.));
#216=DIRECTION('ref_axis',(0.,-1.,0.));
#217=DIRECTION('center_axis',(0.,0.,1.));
#218=DIRECTION('ref_axis',(0.,-1.,0.));
#219=DIRECTION('center_axis',(0.,0.,1.));
#220=DIRECTION('ref_axis',(0.,-1.,0.));
#221=DIRECTION('center_axis',(-1.22464679914735E-16,1.,0.));
#222=DIRECTION('ref_axis',(-1.,-1.22464679914735E-16,0.));
#223=DIRECTION('center_axis',(0.,0.,-1.));
#224=DIRECTION('ref_axis',(-1.,0.,0.));
#225=DIRECTION('',(1.,0.,0.));
#226=DIRECTION('center_axis',(0.,0.,1.));
#227=DIRECTION('ref_axis',(1.,0.,0.));
#228=DIRECTION('center_axis',(0.,0.,1.));
#229=DIRECTION('ref_axis',(1.,0.,0.));
#230=DIRECTION('',(-1.,0.,0.));
#231=DIRECTION('center_axis',(0.,0.,-1.));
#232=DIRECTION('ref_axis',(-1.,0.,0.));
#233=DIRECTION('',(-1.,0.,0.));
#234=DIRECTION('center_axis',(0.,0.,1.));
#235=DIRECTION('ref_axis',(1.,0.,0.));
#236=DIRECTION('',(1.,0.,0.));
#237=DIRECTION('center_axis',(0.,1.,0.));
#238=DIRECTION('ref_axis',(-1.,0.,0.));
#239=DIRECTION('',(-1.,0.,0.));
#240=DIRECTION('',(0.,0.,-1.));
#241=DIRECTION('',(0.,0.,1.));
#242=DIRECTION('center_axis',(0.,-1.,0.));
#243=DIRECTION('ref_axis',(1.,0.,0.));
#244=DIRECTION('',(1.,0.,0.));
#245=DIRECTION('',(0.,0.,-1.));
#246=DIRECTION('',(0.,0.,1.));
#247=DIRECTION('center_axis',(0.,0.,1.));
#248=DIRECTION('ref_axis',(1.,0.,0.));
#249=DIRECTION('center_axis',(0.,0.,1.));
#250=DIRECTION('ref_axis',(1.,0.,0.));
#251=DIRECTION('center_axis',(0.,0.,1.));
#252=DIRECTION('ref_axis',(1.,0.,0.));
#253=DIRECTION('center_axis',(0.,0.,1.));
#254=DIRECTION('ref_axis',(1.,0.,0.));
#255=DIRECTION('center_axis',(0.,0.,1.));
#256=DIRECTION('ref_axis',(1.,0.,0.));
#257=DIRECTION('center_axis',(0.,0.,1.));
#258=DIRECTION('ref_axis',(1.,0.,0.));
#259=DIRECTION('center_axis',(0.,0.,1.));
#260=DIRECTION('ref_axis',(1.,0.,0.));
#261=DIRECTION('center_axis',(0.,0.,1.));
#262=DIRECTION('ref_axis',(1.,0.,0.));
#263=DIRECTION('center_axis',(6.12323399573677E-17,0.,1.));
#264=DIRECTION('ref_axis',(1.,0.,0.));
#265=DIRECTION('center_axis',(1.22464679914735E-16,-1.,0.));
#266=DIRECTION('ref_axis',(-1.,-1.22464679914735E-16,0.));
#267=CARTESIAN_POINT('',(0.,0.,0.));
#268=CARTESIAN_POINT('Origin',(0.,0.,0.025));
#269=CARTESIAN_POINT('',(0.,0.05,0.025));
#270=CARTESIAN_POINT('',(-0.05,-6.12323399573677E-18,0.025));
#271=CARTESIAN_POINT('Origin',(0.,0.,0.025));
#272=CARTESIAN_POINT('',(0.,-0.05,0.025));
#273=CARTESIAN_POINT('Origin',(0.,0.,0.025));
#274=CARTESIAN_POINT('Origin',(0.,0.,0.025));
#275=CARTESIAN_POINT('',(-3.06161699786838E-18,-3.74939945665464E-34,0.075));
#276=CARTESIAN_POINT('Origin',(0.,0.,0.025));
#277=CARTESIAN_POINT('Origin',(0.,0.,0.025));
#278=CARTESIAN_POINT('',(-0.255147016443461,-0.05,0.025));
#279=CARTESIAN_POINT('',(0.26,-0.05,0.025));
#280=CARTESIAN_POINT('',(-0.26,-3.18408167778312E-17,0.025));
#281=CARTESIAN_POINT('Origin',(0.,0.,0.025));
#282=CARTESIAN_POINT('',(-0.255147016443461,0.05,0.025));
#283=CARTESIAN_POINT('Origin',(0.,0.,0.025));
#284=CARTESIAN_POINT('',(-0.26,0.05,0.025));
#285=CARTESIAN_POINT('Origin',(0.,0.,0.025));
#286=CARTESIAN_POINT('',(0.255147016443461,0.05,0.025));
#287=CARTESIAN_POINT('',(-0.26,0.05,0.025));
#288=CARTESIAN_POINT('',(0.255147016443461,-0.05,0.025));
#289=CARTESIAN_POINT('Origin',(0.,0.,0.025));
#290=CARTESIAN_POINT('',(0.26,-0.05,0.025));
#291=CARTESIAN_POINT('Origin',(0.255147016443461,0.05,0.));
#292=CARTESIAN_POINT('',(0.255147016443461,0.05,0.));
#293=CARTESIAN_POINT('',(-0.255147016443461,0.05,0.));
#294=CARTESIAN_POINT('',(0.127573508221731,0.05,0.));
#295=CARTESIAN_POINT('',(0.255147016443461,0.05,0.));
#296=CARTESIAN_POINT('',(-0.255147016443461,0.05,0.));
#297=CARTESIAN_POINT('Origin',(-0.255147016443461,-0.05,0.));
#298=CARTESIAN_POINT('',(-0.255147016443461,-0.05,0.));
#299=CARTESIAN_POINT('',(0.255147016443461,-0.05,0.));
#300=CARTESIAN_POINT('',(-0.127573508221731,-0.05,0.));
#301=CARTESIAN_POINT('',(-0.255147016443461,-0.05,0.));
#302=CARTESIAN_POINT('',(0.255147016443461,-0.05,0.));
#303=CARTESIAN_POINT('Origin',(0.,0.,0.));
#304=CARTESIAN_POINT('Origin',(0.,0.,0.));
#305=CARTESIAN_POINT('Origin',(0.,0.,0.));
#306=CARTESIAN_POINT('Origin',(0.,0.,0.));
#307=CARTESIAN_POINT('Origin',(0.,0.,0.));
#308=CARTESIAN_POINT('Origin',(0.,0.,0.025));
#309=CARTESIAN_POINT('Origin',(0.,0.,0.));
#310=CARTESIAN_POINT('Origin',(0.,0.,0.025));
#311=CARTESIAN_POINT('Origin',(0.,0.,0.025));
#312=CARTESIAN_POINT('',(-1.59204083889156E-17,-1.94968771746041E-33,0.285));
#313=CARTESIAN_POINT('Origin',(0.,0.,0.025));
#314=UNCERTAINTY_MEASURE_WITH_UNIT(LENGTH_MEASURE(0.000393700787401575),
#320,'DISTANCE_ACCURACY_VALUE',
'Maximum model space distance between geometric entities at asserted c
onnectivities');
#315=UNCERTAINTY_MEASURE_WITH_UNIT(LENGTH_MEASURE(0.000393700787401575),
#320,'DISTANCE_ACCURACY_VALUE',
'Maximum model space distance between geometric entities at asserted c
onnectivities');
#316=(
GEOMETRIC_REPRESENTATION_CONTEXT(3)
GLOBAL_UNCERTAINTY_ASSIGNED_CONTEXT((#314))
GLOBAL_UNIT_ASSIGNED_CONTEXT((#320,#324,#325))
REPRESENTATION_CONTEXT('','3D')
);
#317=(
GEOMETRIC_REPRESENTATION_CONTEXT(3)
GLOBAL_UNCERTAINTY_ASSIGNED_CONTEXT((#315))
GLOBAL_UNIT_ASSIGNED_CONTEXT((#320,#324,#325))
REPRESENTATION_CONTEXT('','3D')
);
#318=DIMENSIONAL_EXPONENTS(1.,0.,0.,0.,0.,0.,0.);
#319=DIMENSIONAL_EXPONENTS(0.,1.,0.,0.,0.,0.,0.);
#320=(
CONVERSION_BASED_UNIT('inch',#323)
LENGTH_UNIT()
NAMED_UNIT(#318)
);
#321=(
LENGTH_UNIT()
NAMED_UNIT(*)
SI_UNIT(.MILLI.,.METRE.)
);
#322=(
LENGTH_UNIT()
NAMED_UNIT(*)
SI_UNIT(.CENTI.,.METRE.)
);
#323=LENGTH_MEASURE_WITH_UNIT(LENGTH_MEASURE(25.4),#321);
#324=(
NAMED_UNIT(*)
PLANE_ANGLE_UNIT()
SI_UNIT($,.RADIAN.)
);
#325=(
NAMED_UNIT(*)
SI_UNIT($,.STERADIAN.)
SOLID_ANGLE_UNIT()
);
#326=SHAPE_DEFINITION_REPRESENTATION(#327,#328);
#327=PRODUCT_DEFINITION_SHAPE('',$,#330);
#328=SHAPE_REPRESENTATION('',(#188),#316);
#329=PRODUCT_DEFINITION_CONTEXT('part definition',#334,'design');
#330=PRODUCT_DEFINITION('RADSAT Sensor Shield','RADSAT Sensor Shield',#331,
#329);
#331=PRODUCT_DEFINITION_FORMATION('',$,#336);
#332=PRODUCT_RELATED_PRODUCT_CATEGORY('RADSAT Sensor Shield',
'RADSAT Sensor Shield',(#336));
#333=APPLICATION_PROTOCOL_DEFINITION('international standard',
'automotive_design',2009,#334);
#334=APPLICATION_CONTEXT(
'Core Data for Automotive Mechanical Design Process');
#335=PRODUCT_CONTEXT('part definition',#334,'mechanical');
#336=PRODUCT('RADSAT Sensor Shield','RADSAT Sensor Shield',$,(#335));
#337=PRESENTATION_STYLE_ASSIGNMENT((#338));
#338=SURFACE_STYLE_USAGE(.BOTH.,#341);
#339=SURFACE_STYLE_RENDERING_WITH_PROPERTIES($,#345,(#340));
#340=SURFACE_STYLE_TRANSPARENT(0.);
#341=SURFACE_SIDE_STYLE('',(#342,#339));
#342=SURFACE_STYLE_FILL_AREA(#343);
#343=FILL_AREA_STYLE('',(#344));
#344=FILL_AREA_STYLE_COLOUR('',#345);
#345=COLOUR_RGB('',0.749019607843137,0.749019607843137,0.749019607843137);
ENDSEC;
END-ISO-10303-21;
