ISO-10303-21;
HEADER;
/* Generated by software containing ST-Developer
 * from STEP Tools, Inc. (www.steptools.com) 
 */

FILE_DESCRIPTION(
/* description */ (''),
/* implementation_level */ '2;1');

FILE_NAME(
/* name */ 'UB3C-8R2F1.step',
/* time_stamp */ '2025-08-25T13:03:00-06:00',
/* author */ (''),
/* organization */ (''),
/* preprocessor_version */ 'ST-DEVELOPER v20.1',
/* originating_system */ 'Autodesk Translation Framework v14.10.0.0',
/* authorisation */ '');

FILE_SCHEMA (('AUTOMOTIVE_DESIGN { 1 0 10303 214 3 1 1 }'));
ENDSEC;

DATA;
#10=MECHANICAL_DESIGN_GEOMETRIC_PRESENTATION_REPRESENTATION('',(#239,#240,
#241,#242,#243,#244,#245,#246,#247,#248,#249,#250,#251,#252,#253,#254,#255,
#256),#1237);
#11=ITEM_DEFINED_TRANSFORMATION($,$,#288,#321);
#12=(
REPRESENTATION_RELATIONSHIP($,$,#1248,#1247)
REPRESENTATION_RELATIONSHIP_WITH_TRANSFORMATION(#11)
SHAPE_REPRESENTATION_RELATIONSHIP()
);
#13=CONTEXT_DEPENDENT_SHAPE_REPRESENTATION(#12,#1246);
#14=NEXT_ASSEMBLY_USAGE_OCCURRENCE('UB3C:1','UB3C:1','UB3C:1',#1250,#1251,
'UB3C:1');
#15=SHAPE_REPRESENTATION_RELATIONSHIP('SRR','None',#1248,#16);
#16=ADVANCED_BREP_SHAPE_REPRESENTATION('',(#17),#1236);
#17=MANIFOLD_SOLID_BREP('Body1',#274);
#18=PLANE('',#319);
#19=PLANE('',#320);
#20=TOROIDAL_SURFACE('',#305,1.,0.4);
#21=TOROIDAL_SURFACE('',#309,1.,0.4);
#22=LINE('',#712,#27);
#23=LINE('',#1026,#28);
#24=LINE('',#1222,#29);
#25=LINE('',#1226,#30);
#26=LINE('',#1228,#31);
#27=VECTOR('',#342,0.4);
#28=VECTOR('',#359,0.4);
#29=VECTOR('',#382,0.4);
#30=VECTOR('',#387,0.4);
#31=VECTOR('',#390,1.75);
#32=CYLINDRICAL_SURFACE('',#294,0.4);
#33=CYLINDRICAL_SURFACE('',#302,0.4);
#34=CYLINDRICAL_SURFACE('',#314,0.4);
#35=CYLINDRICAL_SURFACE('',#316,0.4);
#36=CYLINDRICAL_SURFACE('',#318,1.75);
#37=(
BOUNDED_SURFACE()
B_SPLINE_SURFACE(5,2,((#612,#613,#614,#615,#616,#617,#618,#619,#620),(#621,
#622,#623,#624,#625,#626,#627,#628,#629),(#630,#631,#632,#633,#634,#635,
#636,#637,#638),(#639,#640,#641,#642,#643,#644,#645,#646,#647),(#648,#649,
#650,#651,#652,#653,#654,#655,#656),(#657,#658,#659,#660,#661,#662,#663,
#664,#665),(#666,#667,#668,#669,#670,#671,#672,#673,#674),(#675,#676,#677,
#678,#679,#680,#681,#682,#683),(#684,#685,#686,#687,#688,#689,#690,#691,
#692),(#693,#694,#695,#696,#697,#698,#699,#700,#701)),.UNSPECIFIED.,.F.,
 .T.,.F.)
B_SPLINE_SURFACE_WITH_KNOTS((6,4,6),(3,2,2,2,3),(4.712388980385,5.497787143782,
6.28318530718),(0.,1.5707963267949,3.14159265358979,4.71238898038469,6.28318530717959),
 .UNSPECIFIED.)
GEOMETRIC_REPRESENTATION_ITEM()
RATIONAL_B_SPLINE_SURFACE(((1.,0.707106781186548,1.,0.707106781186548,1.,
0.707106781186548,1.,0.707106781186548,1.),(1.,0.707106781186548,1.,0.707106781186548,
1.,0.707106781186548,1.,0.707106781186548,1.),(1.,0.707106781186548,1.,
0.707106781186548,1.,0.707106781186548,1.,0.707106781186548,1.),(1.,0.707106781186548,
1.,0.707106781186548,1.,0.707106781186548,1.,0.707106781186548,1.),(1.,
0.707106781186548,1.,0.707106781186548,1.,0.707106781186548,1.,0.707106781186548,
1.),(1.,0.707106781186548,1.,0.707106781186548,1.,0.707106781186548,1.,
0.707106781186548,1.),(1.,0.707106781186548,1.,0.707106781186548,1.,0.707106781186548,
1.,0.707106781186548,1.),(1.,0.707106781186548,1.,0.707106781186548,1.,
0.707106781186548,1.,0.707106781186548,1.),(1.,0.707106781186548,1.,0.707106781186548,
1.,0.707106781186548,1.,0.707106781186548,1.),(1.,0.707106781186548,1.,
0.707106781186548,1.,0.707106781186548,1.,0.707106781186548,1.)))
REPRESENTATION_ITEM('')
SURFACE()
);
#38=(
BOUNDED_SURFACE()
B_SPLINE_SURFACE(5,2,((#926,#927,#928,#929,#930,#931,#932,#933,#934),(#935,
#936,#937,#938,#939,#940,#941,#942,#943),(#944,#945,#946,#947,#948,#949,
#950,#951,#952),(#953,#954,#955,#956,#957,#958,#959,#960,#961),(#962,#963,
#964,#965,#966,#967,#968,#969,#970),(#971,#972,#973,#974,#975,#976,#977,
#978,#979),(#980,#981,#982,#983,#984,#985,#986,#987,#988),(#989,#990,#991,
#992,#993,#994,#995,#996,#997),(#998,#999,#1000,#1001,#1002,#1003,#1004,
#1005,#1006),(#1007,#1008,#1009,#1010,#1011,#1012,#1013,#1014,#1015)),
 .UNSPECIFIED.,.F.,.T.,.F.)
B_SPLINE_SURFACE_WITH_KNOTS((6,4,6),(3,2,2,2,3),(4.712388980385,5.497787143782,
6.28318530718),(0.,1.5707963267949,3.14159265358979,4.71238898038469,6.28318530717959),
 .UNSPECIFIED.)
GEOMETRIC_REPRESENTATION_ITEM()
RATIONAL_B_SPLINE_SURFACE(((1.,0.707106781186548,1.,0.707106781186548,1.,
0.707106781186548,1.,0.707106781186548,1.),(1.,0.707106781186548,1.,0.707106781186548,
1.,0.707106781186548,1.,0.707106781186548,1.),(1.,0.707106781186548,1.,
0.707106781186548,1.,0.707106781186548,1.,0.707106781186548,1.),(1.,0.707106781186548,
1.,0.707106781186548,1.,0.707106781186548,1.,0.707106781186548,1.),(1.,
0.707106781186548,1.,0.707106781186548,1.,0.707106781186548,1.,0.707106781186548,
1.),(1.,0.707106781186548,1.,0.707106781186548,1.,0.707106781186548,1.,
0.707106781186548,1.),(1.,0.707106781186548,1.,0.707106781186548,1.,0.707106781186548,
1.,0.707106781186548,1.),(1.,0.707106781186548,1.,0.707106781186548,1.,
0.707106781186548,1.,0.707106781186548,1.),(1.,0.707106781186548,1.,0.707106781186548,
1.,0.707106781186548,1.,0.707106781186548,1.),(1.,0.707106781186548,1.,
0.707106781186548,1.,0.707106781186548,1.,0.707106781186548,1.)))
REPRESENTATION_ITEM('')
SURFACE()
);
#39=(
BOUNDED_SURFACE()
B_SPLINE_SURFACE(5,2,((#1037,#1038,#1039,#1040,#1041,#1042,#1043,#1044,
#1045),(#1046,#1047,#1048,#1049,#1050,#1051,#1052,#1053,#1054),(#1055,#1056,
#1057,#1058,#1059,#1060,#1061,#1062,#1063),(#1064,#1065,#1066,#1067,#1068,
#1069,#1070,#1071,#1072),(#1073,#1074,#1075,#1076,#1077,#1078,#1079,#1080,
#1081),(#1082,#1083,#1084,#1085,#1086,#1087,#1088,#1089,#1090),(#1091,#1092,
#1093,#1094,#1095,#1096,#1097,#1098,#1099),(#1100,#1101,#1102,#1103,#1104,
#1105,#1106,#1107,#1108),(#1109,#1110,#1111,#1112,#1113,#1114,#1115,#1116,
#1117),(#1118,#1119,#1120,#1121,#1122,#1123,#1124,#1125,#1126)),
 .UNSPECIFIED.,.F.,.T.,.F.)
B_SPLINE_SURFACE_WITH_KNOTS((6,4,6),(3,2,2,2,3),(4.712388980385,5.497787143782,
6.28318530718),(0.,1.5707963267949,3.14159265358979,4.71238898038469,6.28318530717959),
 .UNSPECIFIED.)
GEOMETRIC_REPRESENTATION_ITEM()
RATIONAL_B_SPLINE_SURFACE(((1.,0.707106781186548,1.,0.707106781186548,1.,
0.707106781186548,1.,0.707106781186548,1.),(1.,0.707106781186548,1.,0.707106781186548,
1.,0.707106781186548,1.,0.707106781186548,1.),(1.,0.707106781186548,1.,
0.707106781186548,1.,0.707106781186548,1.,0.707106781186548,1.),(1.,0.707106781186548,
1.,0.707106781186548,1.,0.707106781186548,1.,0.707106781186548,1.),(1.,
0.707106781186548,1.,0.707106781186548,1.,0.707106781186548,1.,0.707106781186548,
1.),(1.,0.707106781186548,1.,0.707106781186548,1.,0.707106781186548,1.,
0.707106781186548,1.),(1.,0.707106781186548,1.,0.707106781186548,1.,0.707106781186548,
1.,0.707106781186548,1.),(1.,0.707106781186548,1.,0.707106781186548,1.,
0.707106781186548,1.,0.707106781186548,1.),(1.,0.707106781186548,1.,0.707106781186548,
1.,0.707106781186548,1.,0.707106781186548,1.),(1.,0.707106781186548,1.,
0.707106781186548,1.,0.707106781186548,1.,0.707106781186548,1.)))
REPRESENTATION_ITEM('')
SURFACE()
);
#40=(
BOUNDED_SURFACE()
B_SPLINE_SURFACE(5,2,((#1128,#1129,#1130,#1131,#1132,#1133,#1134,#1135,
#1136),(#1137,#1138,#1139,#1140,#1141,#1142,#1143,#1144,#1145),(#1146,#1147,
#1148,#1149,#1150,#1151,#1152,#1153,#1154),(#1155,#1156,#1157,#1158,#1159,
#1160,#1161,#1162,#1163),(#1164,#1165,#1166,#1167,#1168,#1169,#1170,#1171,
#1172),(#1173,#1174,#1175,#1176,#1177,#1178,#1179,#1180,#1181),(#1182,#1183,
#1184,#1185,#1186,#1187,#1188,#1189,#1190),(#1191,#1192,#1193,#1194,#1195,
#1196,#1197,#1198,#1199),(#1200,#1201,#1202,#1203,#1204,#1205,#1206,#1207,
#1208),(#1209,#1210,#1211,#1212,#1213,#1214,#1215,#1216,#1217)),
 .UNSPECIFIED.,.F.,.T.,.F.)
B_SPLINE_SURFACE_WITH_KNOTS((6,4,6),(3,2,2,2,3),(4.712388980385,5.497787143782,
6.28318530718),(0.,1.5707963267949,3.14159265358979,4.71238898038469,6.28318530717959),
 .UNSPECIFIED.)
GEOMETRIC_REPRESENTATION_ITEM()
RATIONAL_B_SPLINE_SURFACE(((1.,0.707106781186548,1.,0.707106781186548,1.,
0.707106781186548,1.,0.707106781186548,1.),(1.,0.707106781186548,1.,0.707106781186548,
1.,0.707106781186548,1.,0.707106781186548,1.),(1.,0.707106781186548,1.,
0.707106781186548,1.,0.707106781186548,1.,0.707106781186548,1.),(1.,0.707106781186548,
1.,0.707106781186548,1.,0.707106781186548,1.,0.707106781186548,1.),(1.,
0.707106781186548,1.,0.707106781186548,1.,0.707106781186548,1.,0.707106781186548,
1.),(1.,0.707106781186548,1.,0.707106781186548,1.,0.707106781186548,1.,
0.707106781186548,1.),(1.,0.707106781186548,1.,0.707106781186548,1.,0.707106781186548,
1.,0.707106781186548,1.),(1.,0.707106781186548,1.,0.707106781186548,1.,
0.707106781186548,1.,0.707106781186548,1.),(1.,0.707106781186548,1.,0.707106781186548,
1.,0.707106781186548,1.,0.707106781186548,1.),(1.,0.707106781186548,1.,
0.707106781186548,1.,0.707106781186548,1.,0.707106781186548,1.)))
REPRESENTATION_ITEM('')
SURFACE()
);
#41=FACE_OUTER_BOUND('',#58,.T.);
#42=FACE_OUTER_BOUND('',#59,.T.);
#43=FACE_OUTER_BOUND('',#60,.T.);
#44=FACE_OUTER_BOUND('',#61,.T.);
#45=FACE_OUTER_BOUND('',#62,.T.);
#46=FACE_OUTER_BOUND('',#63,.T.);
#47=FACE_OUTER_BOUND('',#64,.T.);
#48=FACE_OUTER_BOUND('',#65,.T.);
#49=FACE_OUTER_BOUND('',#66,.T.);
#50=FACE_OUTER_BOUND('',#67,.T.);
#51=FACE_OUTER_BOUND('',#68,.T.);
#52=FACE_OUTER_BOUND('',#69,.T.);
#53=FACE_OUTER_BOUND('',#70,.T.);
#54=FACE_OUTER_BOUND('',#71,.T.);
#55=FACE_OUTER_BOUND('',#72,.T.);
#56=FACE_OUTER_BOUND('',#73,.T.);
#57=FACE_OUTER_BOUND('',#74,.T.);
#58=EDGE_LOOP('',(#163,#164,#165,#166));
#59=EDGE_LOOP('',(#167,#168,#169,#170));
#60=EDGE_LOOP('',(#171,#172,#173,#174));
#61=EDGE_LOOP('',(#175,#176,#177,#178,#179,#180));
#62=EDGE_LOOP('',(#181,#182,#183,#184));
#63=EDGE_LOOP('',(#185,#186,#187,#188));
#64=EDGE_LOOP('',(#189,#190,#191,#192));
#65=EDGE_LOOP('',(#193,#194,#195,#196,#197,#198));
#66=EDGE_LOOP('',(#199,#200,#201,#202,#203,#204));
#67=EDGE_LOOP('',(#205,#206,#207,#208,#209));
#68=EDGE_LOOP('',(#210,#211,#212,#213));
#69=EDGE_LOOP('',(#214,#215,#216,#217));
#70=EDGE_LOOP('',(#218,#219,#220,#221,#222));
#71=EDGE_LOOP('',(#223,#224,#225,#226));
#72=EDGE_LOOP('',(#227,#228,#229,#230,#231,#232));
#73=EDGE_LOOP('',(#233));
#74=EDGE_LOOP('',(#234));
#75=B_SPLINE_CURVE_WITH_KNOTS('',3,(#448,#449,#450,#451,#452,#453,#454,
#455,#456,#457,#458,#459,#460,#461,#462,#463,#464,#465,#466,#467,#468,#469,
#470,#471,#472,#473,#474,#475,#476,#477,#478,#479,#480,#481,#482,#483,#484,
#485,#486,#487,#488,#489,#490,#491,#492,#493,#494,#495,#496,#497,#498,#499,
#500,#501,#502,#503,#504,#505,#506,#507,#508,#509,#510,#511,#512,#513,#514,
#515,#516,#517,#518,#519,#520,#521,#522,#523,#524,#525,#526,#527,#528,#529,
#530,#531,#532,#533,#534,#535,#536,#537,#538,#539,#540,#541,#542,#543,#544),
 .UNSPECIFIED.,.F.,.F.,(4,3,3,3,3,3,3,3,3,3,3,3,3,3,3,3,3,3,3,3,3,3,3,3,
3,3,3,3,3,3,3,3,4),(0.,0.00418355473979315,0.014225449682576,0.0242116469018427,
0.0337488561536224,0.0356753704658863,0.0453720061114902,0.0551367814974267,
0.0643973235553481,0.0714002518888479,0.0809105101930621,0.0904658566766645,
0.0958648414761355,0.105554132742913,0.107079197930278,0.117180837449853,
0.127282476969429,0.136740047946166,0.142753118504523,0.152236833223721,
0.156783386674348,0.166582850485331,0.176409891030236,0.186106992711308,
0.187362591997076,0.196290487924576,0.205781654985003,0.215400668170646,
0.217941797319804,0.228137278419324,0.23830552597172,0.247442707024723,
0.249835303838892),.UNSPECIFIED.);
#76=B_SPLINE_CURVE_WITH_KNOTS('',3,(#547,#548,#549,#550,#551,#552,#553,
#554,#555),.UNSPECIFIED.,.F.,.F.,(4,1,1,1,1,1,4),(-0.249835303838892,-0.196299167301987,
-0.142763030765081,-0.107072273073811,-0.0713815153825405,-0.0356907576912702,
5.8897875255372E-17),.UNSPECIFIED.);
#77=B_SPLINE_CURVE_WITH_KNOTS('',3,(#596,#597,#598,#599,#600,#601,#602,
#603),.UNSPECIFIED.,.F.,.F.,(4,1,1,1,1,4),(-0.249779485156138,-0.196255309765537,
-0.142731134374936,-0.0713655671874679,-0.0356827835937339,0.),
 .UNSPECIFIED.);
#78=B_SPLINE_CURVE_WITH_KNOTS('',3,(#604,#605,#606,#607,#608,#609,#610,
#611),.UNSPECIFIED.,.F.,.F.,(4,1,1,1,1,4),(0.,0.0356827835937339,0.0713655671874679,
0.142731134374936,0.196255309765537,0.249779485156138),.UNSPECIFIED.);
#79=B_SPLINE_CURVE_WITH_KNOTS('',3,(#762,#763,#764,#765,#766,#767,#768,
#769,#770,#771,#772,#773,#774,#775,#776,#777,#778,#779,#780,#781,#782,#783,
#784,#785,#786,#787,#788,#789,#790,#791,#792,#793,#794,#795,#796,#797,#798,
#799,#800,#801,#802,#803,#804,#805,#806,#807,#808,#809,#810,#811,#812,#813,
#814,#815,#816,#817,#818,#819,#820,#821,#822,#823,#824,#825,#826,#827,#828,
#829,#830,#831,#832,#833,#834,#835,#836,#837,#838,#839,#840,#841,#842,#843,
#844,#845,#846,#847,#848,#849,#850,#851,#852,#853,#854,#855,#856,#857,#858),
 .UNSPECIFIED.,.F.,.F.,(4,3,3,3,3,3,3,3,3,3,3,3,3,3,3,3,3,3,3,3,3,3,3,3,
3,3,3,3,3,3,3,3,4),(0.,0.00418355473979316,0.0142254496825753,0.0242116469018412,
0.0337488561536223,0.0356753704658864,0.0453720061114883,0.0551367814974236,
0.0643973235553481,0.071400251888848,0.0809105101930615,0.0904658566766631,
0.0958648414761356,0.105554132742911,0.107079197930278,0.117180837449853,
0.127282476969429,0.136740047946161,0.142753118504523,0.152236833223722,
0.156783386674348,0.166582850485332,0.176409891030241,0.186106992711319,
0.187362591997076,0.196290487924576,0.205781654985006,0.215400668170647,
0.217941797319804,0.228137278419323,0.23830552597172,0.247442707024723,
0.249835303838892),.UNSPECIFIED.);
#80=B_SPLINE_CURVE_WITH_KNOTS('',3,(#861,#862,#863,#864,#865,#866,#867,
#868,#869),.UNSPECIFIED.,.F.,.F.,(4,1,1,1,1,1,4),(-0.249835303838892,-0.196299167301987,
-0.142763030765081,-0.107072273073811,-0.0713815153825406,-0.0356907576912703,
1.26481506639641E-17),.UNSPECIFIED.);
#81=B_SPLINE_CURVE_WITH_KNOTS('',3,(#910,#911,#912,#913,#914,#915,#916,
#917),.UNSPECIFIED.,.F.,.F.,(4,1,1,1,1,4),(-0.249779485156138,-0.196255309765537,
-0.142731134374936,-0.0713655671874679,-0.0356827835937339,0.),
 .UNSPECIFIED.);
#82=B_SPLINE_CURVE_WITH_KNOTS('',3,(#918,#919,#920,#921,#922,#923,#924,
#925),.UNSPECIFIED.,.F.,.F.,(4,1,1,1,1,4),(0.,0.0356827835937339,0.0713655671874679,
0.142731134374936,0.196255309765537,0.249779485156138),.UNSPECIFIED.);
#83=CIRCLE('',#289,0.400000000000001);
#84=CIRCLE('',#290,0.4);
#85=CIRCLE('',#291,1.25);
#86=CIRCLE('',#292,1.75);
#87=CIRCLE('',#293,1.25);
#88=CIRCLE('',#295,0.4);
#89=CIRCLE('',#296,0.4);
#90=CIRCLE('',#297,0.399999999999999);
#91=CIRCLE('',#298,0.4);
#92=CIRCLE('',#299,1.25);
#93=CIRCLE('',#300,1.75);
#94=CIRCLE('',#301,1.25);
#95=CIRCLE('',#303,0.4);
#96=CIRCLE('',#304,0.4);
#97=CIRCLE('',#306,0.4);
#98=CIRCLE('',#307,0.6);
#99=CIRCLE('',#308,0.4);
#100=CIRCLE('',#310,0.4);
#101=CIRCLE('',#311,0.6);
#102=CIRCLE('',#312,1.75);
#103=CIRCLE('',#313,1.75);
#104=CIRCLE('',#315,0.4);
#105=CIRCLE('',#317,0.4);
#106=VERTEX_POINT('',#444);
#107=VERTEX_POINT('',#445);
#108=VERTEX_POINT('',#447);
#109=VERTEX_POINT('',#545);
#110=VERTEX_POINT('',#702);
#111=VERTEX_POINT('',#704);
#112=VERTEX_POINT('',#708);
#113=VERTEX_POINT('',#709);
#114=VERTEX_POINT('',#758);
#115=VERTEX_POINT('',#759);
#116=VERTEX_POINT('',#761);
#117=VERTEX_POINT('',#859);
#118=VERTEX_POINT('',#1016);
#119=VERTEX_POINT('',#1018);
#120=VERTEX_POINT('',#1022);
#121=VERTEX_POINT('',#1023);
#122=VERTEX_POINT('',#1028);
#123=VERTEX_POINT('',#1029);
#124=VERTEX_POINT('',#1034);
#125=VERTEX_POINT('',#1220);
#126=VERTEX_POINT('',#1224);
#127=EDGE_CURVE('',#106,#107,#83,.T.);
#128=EDGE_CURVE('',#107,#108,#75,.T.);
#129=EDGE_CURVE('',#108,#109,#84,.T.);
#130=EDGE_CURVE('',#109,#106,#76,.T.);
#131=EDGE_CURVE('',#106,#109,#77,.T.);
#132=EDGE_CURVE('',#108,#107,#78,.T.);
#133=EDGE_CURVE('',#107,#110,#85,.T.);
#134=EDGE_CURVE('',#111,#110,#86,.T.);
#135=EDGE_CURVE('',#108,#111,#87,.T.);
#136=EDGE_CURVE('',#112,#113,#88,.T.);
#137=EDGE_CURVE('',#113,#112,#89,.T.);
#138=EDGE_CURVE('',#112,#106,#22,.T.);
#139=EDGE_CURVE('',#114,#115,#90,.T.);
#140=EDGE_CURVE('',#115,#116,#79,.T.);
#141=EDGE_CURVE('',#116,#117,#91,.T.);
#142=EDGE_CURVE('',#117,#114,#80,.T.);
#143=EDGE_CURVE('',#114,#117,#81,.T.);
#144=EDGE_CURVE('',#116,#115,#82,.T.);
#145=EDGE_CURVE('',#115,#118,#92,.T.);
#146=EDGE_CURVE('',#119,#118,#93,.T.);
#147=EDGE_CURVE('',#116,#119,#94,.T.);
#148=EDGE_CURVE('',#120,#121,#95,.T.);
#149=EDGE_CURVE('',#121,#120,#96,.T.);
#150=EDGE_CURVE('',#120,#114,#23,.T.);
#151=EDGE_CURVE('',#122,#123,#97,.T.);
#152=EDGE_CURVE('',#123,#121,#98,.T.);
#153=EDGE_CURVE('',#123,#122,#99,.T.);
#154=EDGE_CURVE('',#124,#124,#100,.T.);
#155=EDGE_CURVE('',#124,#113,#101,.T.);
#156=EDGE_CURVE('',#110,#111,#102,.T.);
#157=EDGE_CURVE('',#118,#119,#103,.T.);
#158=EDGE_CURVE('',#125,#125,#104,.T.);
#159=EDGE_CURVE('',#125,#122,#24,.T.);
#160=EDGE_CURVE('',#126,#126,#105,.T.);
#161=EDGE_CURVE('',#126,#124,#25,.T.);
#162=EDGE_CURVE('',#118,#111,#26,.T.);
#163=ORIENTED_EDGE('',*,*,#127,.T.);
#164=ORIENTED_EDGE('',*,*,#128,.T.);
#165=ORIENTED_EDGE('',*,*,#129,.T.);
#166=ORIENTED_EDGE('',*,*,#130,.T.);
#167=ORIENTED_EDGE('',*,*,#127,.F.);
#168=ORIENTED_EDGE('',*,*,#131,.T.);
#169=ORIENTED_EDGE('',*,*,#129,.F.);
#170=ORIENTED_EDGE('',*,*,#132,.T.);
#171=ORIENTED_EDGE('',*,*,#128,.F.);
#172=ORIENTED_EDGE('',*,*,#133,.T.);
#173=ORIENTED_EDGE('',*,*,#134,.F.);
#174=ORIENTED_EDGE('',*,*,#135,.F.);
#175=ORIENTED_EDGE('',*,*,#136,.T.);
#176=ORIENTED_EDGE('',*,*,#137,.T.);
#177=ORIENTED_EDGE('',*,*,#138,.T.);
#178=ORIENTED_EDGE('',*,*,#130,.F.);
#179=ORIENTED_EDGE('',*,*,#131,.F.);
#180=ORIENTED_EDGE('',*,*,#138,.F.);
#181=ORIENTED_EDGE('',*,*,#139,.T.);
#182=ORIENTED_EDGE('',*,*,#140,.T.);
#183=ORIENTED_EDGE('',*,*,#141,.T.);
#184=ORIENTED_EDGE('',*,*,#142,.T.);
#185=ORIENTED_EDGE('',*,*,#139,.F.);
#186=ORIENTED_EDGE('',*,*,#143,.T.);
#187=ORIENTED_EDGE('',*,*,#141,.F.);
#188=ORIENTED_EDGE('',*,*,#144,.T.);
#189=ORIENTED_EDGE('',*,*,#140,.F.);
#190=ORIENTED_EDGE('',*,*,#145,.T.);
#191=ORIENTED_EDGE('',*,*,#146,.F.);
#192=ORIENTED_EDGE('',*,*,#147,.F.);
#193=ORIENTED_EDGE('',*,*,#148,.T.);
#194=ORIENTED_EDGE('',*,*,#149,.T.);
#195=ORIENTED_EDGE('',*,*,#150,.T.);
#196=ORIENTED_EDGE('',*,*,#142,.F.);
#197=ORIENTED_EDGE('',*,*,#143,.F.);
#198=ORIENTED_EDGE('',*,*,#150,.F.);
#199=ORIENTED_EDGE('',*,*,#151,.T.);
#200=ORIENTED_EDGE('',*,*,#152,.T.);
#201=ORIENTED_EDGE('',*,*,#148,.F.);
#202=ORIENTED_EDGE('',*,*,#149,.F.);
#203=ORIENTED_EDGE('',*,*,#152,.F.);
#204=ORIENTED_EDGE('',*,*,#153,.T.);
#205=ORIENTED_EDGE('',*,*,#154,.T.);
#206=ORIENTED_EDGE('',*,*,#155,.T.);
#207=ORIENTED_EDGE('',*,*,#136,.F.);
#208=ORIENTED_EDGE('',*,*,#137,.F.);
#209=ORIENTED_EDGE('',*,*,#155,.F.);
#210=ORIENTED_EDGE('',*,*,#132,.F.);
#211=ORIENTED_EDGE('',*,*,#135,.T.);
#212=ORIENTED_EDGE('',*,*,#156,.F.);
#213=ORIENTED_EDGE('',*,*,#133,.F.);
#214=ORIENTED_EDGE('',*,*,#144,.F.);
#215=ORIENTED_EDGE('',*,*,#147,.T.);
#216=ORIENTED_EDGE('',*,*,#157,.F.);
#217=ORIENTED_EDGE('',*,*,#145,.F.);
#218=ORIENTED_EDGE('',*,*,#158,.T.);
#219=ORIENTED_EDGE('',*,*,#159,.T.);
#220=ORIENTED_EDGE('',*,*,#153,.F.);
#221=ORIENTED_EDGE('',*,*,#151,.F.);
#222=ORIENTED_EDGE('',*,*,#159,.F.);
#223=ORIENTED_EDGE('',*,*,#160,.T.);
#224=ORIENTED_EDGE('',*,*,#161,.T.);
#225=ORIENTED_EDGE('',*,*,#154,.F.);
#226=ORIENTED_EDGE('',*,*,#161,.F.);
#227=ORIENTED_EDGE('',*,*,#157,.T.);
#228=ORIENTED_EDGE('',*,*,#146,.T.);
#229=ORIENTED_EDGE('',*,*,#162,.T.);
#230=ORIENTED_EDGE('',*,*,#134,.T.);
#231=ORIENTED_EDGE('',*,*,#156,.T.);
#232=ORIENTED_EDGE('',*,*,#162,.F.);
#233=ORIENTED_EDGE('',*,*,#160,.F.);
#234=ORIENTED_EDGE('',*,*,#158,.F.);
#235=B_SPLINE_SURFACE_WITH_KNOTS('',3,3,((#399,#400,#401,#402,#403,#404,
#405,#406,#407),(#408,#409,#410,#411,#412,#413,#414,#415,#416),(#417,#418,
#419,#420,#421,#422,#423,#424,#425),(#426,#427,#428,#429,#430,#431,#432,
#433,#434),(#435,#436,#437,#438,#439,#440,#441,#442,#443)),
 .UNSPECIFIED.,.F.,.F.,.F.,(4,1,4),(4,1,1,1,1,1,4),(0.,0.5,1.),(-0.249835303838892,
-0.196299167301987,-0.142763030765081,-0.107072273073811,-0.0713815153825405,
-0.0356907576912702,5.8897875255372E-17),.UNSPECIFIED.);
#236=B_SPLINE_SURFACE_WITH_KNOTS('',3,3,((#556,#557,#558,#559,#560,#561,
#562,#563),(#564,#565,#566,#567,#568,#569,#570,#571),(#572,#573,#574,#575,
#576,#577,#578,#579),(#580,#581,#582,#583,#584,#585,#586,#587),(#588,#589,
#590,#591,#592,#593,#594,#595)),.UNSPECIFIED.,.F.,.F.,.F.,(4,1,4),(4,1,
1,1,1,4),(0.,0.5,1.),(-0.249779485156138,-0.196255309765537,-0.142731134374936,
-0.0713655671874679,-0.0356827835937339,0.),.UNSPECIFIED.);
#237=B_SPLINE_SURFACE_WITH_KNOTS('',3,3,((#713,#714,#715,#716,#717,#718,
#719,#720,#721),(#722,#723,#724,#725,#726,#727,#728,#729,#730),(#731,#732,
#733,#734,#735,#736,#737,#738,#739),(#740,#741,#742,#743,#744,#745,#746,
#747,#748),(#749,#750,#751,#752,#753,#754,#755,#756,#757)),
 .UNSPECIFIED.,.F.,.F.,.F.,(4,1,4),(4,1,1,1,1,1,4),(0.,0.5,1.),(-0.249835303838892,
-0.196299167301987,-0.142763030765081,-0.107072273073811,-0.0713815153825406,
-0.0356907576912703,1.26481506639641E-17),.UNSPECIFIED.);
#238=B_SPLINE_SURFACE_WITH_KNOTS('',3,3,((#870,#871,#872,#873,#874,#875,
#876,#877),(#878,#879,#880,#881,#882,#883,#884,#885),(#886,#887,#888,#889,
#890,#891,#892,#893),(#894,#895,#896,#897,#898,#899,#900,#901),(#902,#903,
#904,#905,#906,#907,#908,#909)),.UNSPECIFIED.,.F.,.F.,.F.,(4,1,4),(4,1,
1,1,1,4),(0.,0.5,1.),(-0.249779485156138,-0.196255309765537,-0.142731134374936,
-0.0713655671874679,-0.0356827835937339,0.),.UNSPECIFIED.);
#239=STYLED_ITEM('',(#1263),#257);
#240=STYLED_ITEM('',(#1263),#258);
#241=STYLED_ITEM('',(#1263),#259);
#242=STYLED_ITEM('',(#1264),#260);
#243=STYLED_ITEM('',(#1263),#261);
#244=STYLED_ITEM('',(#1263),#262);
#245=STYLED_ITEM('',(#1263),#263);
#246=STYLED_ITEM('',(#1264),#264);
#247=STYLED_ITEM('',(#1264),#265);
#248=STYLED_ITEM('',(#1264),#266);
#249=STYLED_ITEM('',(#1263),#267);
#250=STYLED_ITEM('',(#1263),#268);
#251=STYLED_ITEM('',(#1264),#269);
#252=STYLED_ITEM('',(#1264),#270);
#253=STYLED_ITEM('',(#1263),#271);
#254=STYLED_ITEM('',(#1264),#272);
#255=STYLED_ITEM('',(#1264),#273);
#256=STYLED_ITEM('',(#1262),#17);
#257=ADVANCED_FACE('',(#41),#235,.T.);
#258=ADVANCED_FACE('',(#42),#236,.T.);
#259=ADVANCED_FACE('',(#43),#37,.T.);
#260=ADVANCED_FACE('',(#44),#32,.T.);
#261=ADVANCED_FACE('',(#45),#237,.T.);
#262=ADVANCED_FACE('',(#46),#238,.T.);
#263=ADVANCED_FACE('',(#47),#38,.T.);
#264=ADVANCED_FACE('',(#48),#33,.T.);
#265=ADVANCED_FACE('',(#49),#20,.T.);
#266=ADVANCED_FACE('',(#50),#21,.T.);
#267=ADVANCED_FACE('',(#51),#39,.T.);
#268=ADVANCED_FACE('',(#52),#40,.T.);
#269=ADVANCED_FACE('',(#53),#34,.T.);
#270=ADVANCED_FACE('',(#54),#35,.T.);
#271=ADVANCED_FACE('',(#55),#36,.T.);
#272=ADVANCED_FACE('',(#56),#18,.F.);
#273=ADVANCED_FACE('',(#57),#19,.F.);
#274=CLOSED_SHELL('',(#257,#258,#259,#260,#261,#262,#263,#264,#265,#266,
#267,#268,#269,#270,#271,#272,#273));
#275=DERIVED_UNIT_ELEMENT(#277,1.);
#276=DERIVED_UNIT_ELEMENT(#1239,-3.);
#277=(
MASS_UNIT()
NAMED_UNIT(*)
SI_UNIT(.KILO.,.GRAM.)
);
#278=DERIVED_UNIT((#275,#276));
#279=MEASURE_REPRESENTATION_ITEM('density measure',
POSITIVE_RATIO_MEASURE(7850.),#278);
#280=PROPERTY_DEFINITION_REPRESENTATION(#285,#282);
#281=PROPERTY_DEFINITION_REPRESENTATION(#286,#283);
#282=REPRESENTATION('material name',(#284),#1236);
#283=REPRESENTATION('density',(#279),#1236);
#284=DESCRIPTIVE_REPRESENTATION_ITEM('Steel','Steel');
#285=PROPERTY_DEFINITION('material property','material name',#1251);
#286=PROPERTY_DEFINITION('material property','density of part',#1251);
#287=AXIS2_PLACEMENT_3D('',#397,#322,#323);
#288=AXIS2_PLACEMENT_3D('',#398,#324,#325);
#289=AXIS2_PLACEMENT_3D('',#446,#326,#327);
#290=AXIS2_PLACEMENT_3D('',#546,#328,#329);
#291=AXIS2_PLACEMENT_3D('',#703,#330,#331);
#292=AXIS2_PLACEMENT_3D('',#705,#332,#333);
#293=AXIS2_PLACEMENT_3D('',#706,#334,#335);
#294=AXIS2_PLACEMENT_3D('',#707,#336,#337);
#295=AXIS2_PLACEMENT_3D('',#710,#338,#339);
#296=AXIS2_PLACEMENT_3D('',#711,#340,#341);
#297=AXIS2_PLACEMENT_3D('',#760,#343,#344);
#298=AXIS2_PLACEMENT_3D('',#860,#345,#346);
#299=AXIS2_PLACEMENT_3D('',#1017,#347,#348);
#300=AXIS2_PLACEMENT_3D('',#1019,#349,#350);
#301=AXIS2_PLACEMENT_3D('',#1020,#351,#352);
#302=AXIS2_PLACEMENT_3D('',#1021,#353,#354);
#303=AXIS2_PLACEMENT_3D('',#1024,#355,#356);
#304=AXIS2_PLACEMENT_3D('',#1025,#357,#358);
#305=AXIS2_PLACEMENT_3D('',#1027,#360,#361);
#306=AXIS2_PLACEMENT_3D('',#1030,#362,#363);
#307=AXIS2_PLACEMENT_3D('',#1031,#364,#365);
#308=AXIS2_PLACEMENT_3D('',#1032,#366,#367);
#309=AXIS2_PLACEMENT_3D('',#1033,#368,#369);
#310=AXIS2_PLACEMENT_3D('',#1035,#370,#371);
#311=AXIS2_PLACEMENT_3D('',#1036,#372,#373);
#312=AXIS2_PLACEMENT_3D('',#1127,#374,#375);
#313=AXIS2_PLACEMENT_3D('',#1218,#376,#377);
#314=AXIS2_PLACEMENT_3D('',#1219,#378,#379);
#315=AXIS2_PLACEMENT_3D('',#1221,#380,#381);
#316=AXIS2_PLACEMENT_3D('',#1223,#383,#384);
#317=AXIS2_PLACEMENT_3D('',#1225,#385,#386);
#318=AXIS2_PLACEMENT_3D('',#1227,#388,#389);
#319=AXIS2_PLACEMENT_3D('',#1229,#391,#392);
#320=AXIS2_PLACEMENT_3D('',#1230,#393,#394);
#321=AXIS2_PLACEMENT_3D('',#1231,#395,#396);
#322=DIRECTION('axis',(0.,0.,1.));
#323=DIRECTION('refdir',(1.,0.,0.));
#324=DIRECTION('axis',(0.,0.,1.));
#325=DIRECTION('refdir',(1.,0.,0.));
#326=DIRECTION('center_axis',(-2.94414692452985E-16,1.,-3.20007174195785E-16));
#327=DIRECTION('ref_axis',(0.,-3.20007174195785E-16,-1.));
#328=DIRECTION('center_axis',(1.13218545865105E-16,1.,0.));
#329=DIRECTION('ref_axis',(-0.983331756506959,1.11331391574698E-16,0.181820396669181));
#330=DIRECTION('center_axis',(0.,-1.,0.));
#331=DIRECTION('ref_axis',(0.,0.,-1.));
#332=DIRECTION('center_axis',(-1.,0.,0.));
#333=DIRECTION('ref_axis',(0.,0.,1.));
#334=DIRECTION('center_axis',(0.,1.,1.224646799147E-16));
#335=DIRECTION('ref_axis',(0.,-1.224646799147E-16,1.));
#336=DIRECTION('center_axis',(1.,0.,0.));
#337=DIRECTION('ref_axis',(0.,0.,-1.));
#338=DIRECTION('center_axis',(-1.,1.594364860089E-15,0.));
#339=DIRECTION('ref_axis',(-1.594364860089E-15,-1.,0.));
#340=DIRECTION('center_axis',(-1.,1.594364860089E-15,0.));
#341=DIRECTION('ref_axis',(-1.594364860089E-15,-1.,0.));
#342=DIRECTION('',(-1.,0.,0.));
#343=DIRECTION('center_axis',(2.98022570799904E-16,1.,4.51053831596509E-16));
#344=DIRECTION('ref_axis',(0.,-4.51053831596509E-16,1.));
#345=DIRECTION('center_axis',(-1.13218545865105E-16,1.,0.));
#346=DIRECTION('ref_axis',(0.983331756506959,1.11331391574698E-16,-0.181820396669181));
#347=DIRECTION('center_axis',(0.,-1.,0.));
#348=DIRECTION('ref_axis',(0.,0.,-1.));
#349=DIRECTION('center_axis',(1.,0.,0.));
#350=DIRECTION('ref_axis',(0.,0.,-1.));
#351=DIRECTION('center_axis',(0.,1.,-1.224646799147E-16));
#352=DIRECTION('ref_axis',(0.,1.224646799147E-16,1.));
#353=DIRECTION('center_axis',(-1.,0.,0.));
#354=DIRECTION('ref_axis',(0.,0.,1.));
#355=DIRECTION('center_axis',(1.,1.594364860089E-15,0.));
#356=DIRECTION('ref_axis',(1.594364860089E-15,-1.,0.));
#357=DIRECTION('center_axis',(1.,1.594364860089E-15,0.));
#358=DIRECTION('ref_axis',(1.594364860089E-15,-1.,0.));
#359=DIRECTION('',(1.,0.,0.));
#360=DIRECTION('center_axis',(0.,0.,1.));
#361=DIRECTION('ref_axis',(1.,0.,0.));
#362=DIRECTION('center_axis',(-8.176230051737E-16,1.,0.));
#363=DIRECTION('ref_axis',(1.,8.176230051737E-16,0.));
#364=DIRECTION('center_axis',(0.,0.,-1.));
#365=DIRECTION('ref_axis',(1.,0.,0.));
#366=DIRECTION('center_axis',(-8.176230051737E-16,1.,0.));
#367=DIRECTION('ref_axis',(1.,8.176230051737E-16,0.));
#368=DIRECTION('center_axis',(0.,0.,-1.));
#369=DIRECTION('ref_axis',(-1.,0.,0.));
#370=DIRECTION('center_axis',(8.176230051737E-16,1.,0.));
#371=DIRECTION('ref_axis',(-1.,8.176230051737E-16,0.));
#372=DIRECTION('center_axis',(0.,0.,1.));
#373=DIRECTION('ref_axis',(-1.,0.,0.));
#374=DIRECTION('center_axis',(-1.,0.,0.));
#375=DIRECTION('ref_axis',(0.,0.,1.));
#376=DIRECTION('center_axis',(1.,0.,0.));
#377=DIRECTION('ref_axis',(0.,0.,-1.));
#378=DIRECTION('center_axis',(-7.76741854915E-16,-1.,0.));
#379=DIRECTION('ref_axis',(1.,-7.76741854915E-16,0.));
#380=DIRECTION('center_axis',(-8.176230051737E-16,1.,0.));
#381=DIRECTION('ref_axis',(1.,8.176230051737E-16,0.));
#382=DIRECTION('',(7.76741854915E-16,1.,0.));
#383=DIRECTION('center_axis',(7.76741854915E-16,-1.,0.));
#384=DIRECTION('ref_axis',(1.,7.76741854915E-16,0.));
#385=DIRECTION('center_axis',(8.176230051737E-16,1.,0.));
#386=DIRECTION('ref_axis',(-1.,8.176230051737E-16,0.));
#387=DIRECTION('',(-7.76741854915E-16,1.,0.));
#388=DIRECTION('center_axis',(-1.,0.,0.));
#389=DIRECTION('ref_axis',(0.,0.,1.));
#390=DIRECTION('',(1.,0.,0.));
#391=DIRECTION('center_axis',(8.176230051737E-16,1.,0.));
#392=DIRECTION('ref_axis',(-1.,8.176230051737E-16,0.));
#393=DIRECTION('center_axis',(-8.176230051737E-16,1.,0.));
#394=DIRECTION('ref_axis',(1.,8.176230051737E-16,0.));
#395=DIRECTION('',(4.37113877322601E-8,-0.999999999999995,3.13235136330128E-14));
#396=DIRECTION('',(0.999999999999998,4.37113876477201E-8,-4.37114084964058E-8));
#397=CARTESIAN_POINT('',(0.,0.,0.));
#398=CARTESIAN_POINT('',(0.,0.,0.));
#399=CARTESIAN_POINT('Ctrl Pts',(4.97916599774883,0.,-0.727271841332328));
#400=CARTESIAN_POINT('Ctrl Pts',(4.97916599774883,-0.162230519154225,-0.727271841332328));
#401=CARTESIAN_POINT('Ctrl Pts',(4.97916599774883,-0.489684094997172,-0.613088859426679));
#402=CARTESIAN_POINT('Ctrl Pts',(4.97916599774883,-0.73368047704873,-0.223466360157021));
#403=CARTESIAN_POINT('Ctrl Pts',(4.97916599774883,-0.733268723622732,0.16749130528854));
#404=CARTESIAN_POINT('Ctrl Pts',(4.97916599774883,-0.588118705475547,0.469105187290925));
#405=CARTESIAN_POINT('Ctrl Pts',(4.97916599774883,-0.325898321450411,0.678172792547602));
#406=CARTESIAN_POINT('Ctrl Pts',(4.97916599774883,-0.10815367943615,0.727271841332327));
#407=CARTESIAN_POINT('Ctrl Pts',(4.97916599774883,5.39175423637131E-16,
0.727271841332327));
#408=CARTESIAN_POINT('Ctrl Pts',(4.99598994738617,0.,-0.636283568006932));
#409=CARTESIAN_POINT('Ctrl Pts',(4.99598994738617,-0.141894385213212,-0.636283568006932));
#410=CARTESIAN_POINT('Ctrl Pts',(4.99598994738617,-0.428342281457016,-0.536320482865013));
#411=CARTESIAN_POINT('Ctrl Pts',(4.99598994738617,-0.641752567004742,-0.195507311311528));
#412=CARTESIAN_POINT('Ctrl Pts',(4.99598994738617,-0.641404223713773,0.146526816606336));
#413=CARTESIAN_POINT('Ctrl Pts',(4.99598994738617,-0.51443609413766,0.410357356294889));
#414=CARTESIAN_POINT('Ctrl Pts',(4.99598994738617,-0.285077498320745,0.593270328497813));
#415=CARTESIAN_POINT('Ctrl Pts',(4.99598994738617,-0.0945962568088072,0.636283568006931));
#416=CARTESIAN_POINT('Ctrl Pts',(4.99598994738617,5.53427536399294E-16,
0.636283568006931));
#417=CARTESIAN_POINT('Ctrl Pts',(5.095289704144,0.,-0.466835486914293));
#418=CARTESIAN_POINT('Ctrl Pts',(5.095289704144,-0.104210700302419,-0.466835486914293));
#419=CARTESIAN_POINT('Ctrl Pts',(5.095289704144,-0.314475455192557,-0.393665290425315));
#420=CARTESIAN_POINT('Ctrl Pts',(5.095289704144,-0.47121007241499,-0.143445591789899));
#421=CARTESIAN_POINT('Ctrl Pts',(5.095289704144,-0.470923255827372,0.107531170497782));
#422=CARTESIAN_POINT('Ctrl Pts',(5.095289704144,-0.377709299360948,0.301229196841437));
#423=CARTESIAN_POINT('Ctrl Pts',(5.095289704144,-0.209284831789099,0.435426553778296));
#424=CARTESIAN_POINT('Ctrl Pts',(5.095289704144,-0.0694738002016117,0.466835486914292));
#425=CARTESIAN_POINT('Ctrl Pts',(5.095289704144,5.92530699804144E-16,0.466835486914292));
#426=CARTESIAN_POINT('Ctrl Pts',(5.27996810452442,0.,-0.400000000000001));
#427=CARTESIAN_POINT('Ctrl Pts',(5.27996810452442,-0.0891145233988282,-0.400000000000001));
#428=CARTESIAN_POINT('Ctrl Pts',(5.27996810452442,-0.269105667616719,-0.337013776794611));
#429=CARTESIAN_POINT('Ctrl Pts',(5.27996810452442,-0.403133869421372,-0.122902707490084));
#430=CARTESIAN_POINT('Ctrl Pts',(5.27996810452442,-0.402941134898704,0.092092502796232));
#431=CARTESIAN_POINT('Ctrl Pts',(5.27996810452442,-0.323171787933107,0.257842191658146));
#432=CARTESIAN_POINT('Ctrl Pts',(5.27996810452442,-0.179108193435576,0.372834084934395));
#433=CARTESIAN_POINT('Ctrl Pts',(5.27996810452442,-0.0594096822658848,0.399999999999999));
#434=CARTESIAN_POINT('Ctrl Pts',(5.27996810452442,6.3484641829969E-16,0.399999999999999));
#435=CARTESIAN_POINT('Ctrl Pts',(5.37249870035162,0.,-0.400000000000001));
#436=CARTESIAN_POINT('Ctrl Pts',(5.37249870035162,-0.0892268942281757,-0.400000000000001));
#437=CARTESIAN_POINT('Ctrl Pts',(5.37249870035162,-0.269326580333463,-0.337199283450075));
#438=CARTESIAN_POINT('Ctrl Pts',(5.37249870035162,-0.403524753937806,-0.122906647807265));
#439=CARTESIAN_POINT('Ctrl Pts',(5.37249870035162,-0.403298289277595,0.0921203301267468));
#440=CARTESIAN_POINT('Ctrl Pts',(5.37249870035162,-0.323465682047116,0.258008167307336));
#441=CARTESIAN_POINT('Ctrl Pts',(5.37249870035162,-0.179244295147421,0.37299549027236));
#442=CARTESIAN_POINT('Ctrl Pts',(5.37249870035162,-0.0594845961521164,0.399999999999999));
#443=CARTESIAN_POINT('Ctrl Pts',(5.37249870035162,6.51947156447516E-16,
0.399999999999999));
#444=CARTESIAN_POINT('',(5.37249870035162,-4.89858719658941E-17,0.4));
#445=CARTESIAN_POINT('',(4.97916599774884,-6.00594614957844E-17,0.727271841332327));
#446=CARTESIAN_POINT('Origin',(5.37249870035162,7.90169977124202E-17,0.800000000000001));
#447=CARTESIAN_POINT('',(4.97916599774883,4.4532556629879E-17,-0.727271841332328));
#448=CARTESIAN_POINT('Ctrl Pts',(4.97916599774883,0.,0.727271841332327));
#449=CARTESIAN_POINT('Ctrl Pts',(4.97916599774883,-0.0126774231621831,0.727271841332327));
#450=CARTESIAN_POINT('Ctrl Pts',(4.97916599774883,-0.0253591038367028,0.726934396854534));
#451=CARTESIAN_POINT('Ctrl Pts',(4.97916599774883,-0.038018585891287,0.726264431633753));
#452=CARTESIAN_POINT('Ctrl Pts',(4.97916599774883,-0.0684054689916773,0.724656296738705));
#453=CARTESIAN_POINT('Ctrl Pts',(4.97916709104256,-0.0988688947818556,0.721111989201567));
#454=CARTESIAN_POINT('Ctrl Pts',(4.97916913385488,-0.129046664468365,0.715660680878038));
#455=CARTESIAN_POINT('Ctrl Pts',(4.97917116533667,-0.159057052093828,0.710239608427871));
#456=CARTESIAN_POINT('Ctrl Pts',(4.97917413587571,-0.188783816382992,0.702932868915829));
#457=CARTESIAN_POINT('Ctrl Pts',(4.97917790504362,-0.217876929075619,0.693819514616048));
#458=CARTESIAN_POINT('Ctrl Pts',(4.97918150474651,-0.245661990540244,0.685115904519612));
#459=CARTESIAN_POINT('Ctrl Pts',(4.97918583291117,-0.272868315903065,0.674765001754917));
#460=CARTESIAN_POINT('Ctrl Pts',(4.97919076755119,-0.299210295417798,0.662875704692925));
#461=CARTESIAN_POINT('Ctrl Pts',(4.97919176434746,-0.304531369875615,0.660474069125539));
#462=CARTESIAN_POINT('Ctrl Pts',(4.97919258356356,-0.309829391657488,0.658005520903435));
#463=CARTESIAN_POINT('Ctrl Pts',(4.97919324613845,-0.31510168227861,0.655470184861207));
#464=CARTESIAN_POINT('Ctrl Pts',(4.97919658104612,-0.341638459527195,0.642709194878341));
#465=CARTESIAN_POINT('Ctrl Pts',(4.97919594662798,-0.367522525991789,0.62825201222031));
#466=CARTESIAN_POINT('Ctrl Pts',(4.979194024896,-0.392469792100964,0.612248320019601));
#467=CARTESIAN_POINT('Ctrl Pts',(4.97919208965971,-0.417592366461043,0.596132167428424));
#468=CARTESIAN_POINT('Ctrl Pts',(4.97918885003813,-0.441763987727471,0.578448169426065));
#469=CARTESIAN_POINT('Ctrl Pts',(4.97918704470694,-0.464713207155758,0.559398376656748));
#470=CARTESIAN_POINT('Ctrl Pts',(4.97918533259942,-0.486477375128141,0.541332276806769));
#471=CARTESIAN_POINT('Ctrl Pts',(4.97918490950773,-0.507141597745585,0.52203861476161));
#472=CARTESIAN_POINT('Ctrl Pts',(4.97918811154191,-0.526501331333002,0.50172365863098));
#473=CARTESIAN_POINT('Ctrl Pts',(4.97919053295695,-0.541141384368813,0.486361255329837));
#474=CARTESIAN_POINT('Ctrl Pts',(4.97919082905659,-0.555179902299354,0.470297617089399));
#475=CARTESIAN_POINT('Ctrl Pts',(4.97918991951884,-0.568505785228327,0.453600108062038));
#476=CARTESIAN_POINT('Ctrl Pts',(4.97918868433,-0.586602870154928,0.430924219301687));
#477=CARTESIAN_POINT('Ctrl Pts',(4.97918522641556,-0.603383818275262,0.407078031686947));
#478=CARTESIAN_POINT('Ctrl Pts',(4.97918185238152,-0.618676113649644,0.382317396877589));
#479=CARTESIAN_POINT('Ctrl Pts',(4.97917846235116,-0.634040909868381,0.357439371782044));
#480=CARTESIAN_POINT('Ctrl Pts',(4.97917515694095,-0.647902332771353,0.331639054656198));
#481=CARTESIAN_POINT('Ctrl Pts',(4.97917427008914,-0.660126633459355,0.305207928472437));
#482=CARTESIAN_POINT('Ctrl Pts',(4.979173768998,-0.667033637167901,0.290273750131138));
#483=CARTESIAN_POINT('Ctrl Pts',(4.97917403987654,-0.673418784722613,0.275138694915145));
#484=CARTESIAN_POINT('Ctrl Pts',(4.9791755043027,-0.679264747979591,0.259858208484568));
#485=CARTESIAN_POINT('Ctrl Pts',(4.97917813243597,-0.689756209399761,0.232435074465299));
#486=CARTESIAN_POINT('Ctrl Pts',(4.97917918340812,-0.698663720610252,0.2042193665555));
#487=CARTESIAN_POINT('Ctrl Pts',(4.97917967397004,-0.705816111996685,0.175493293384816));
#488=CARTESIAN_POINT('Ctrl Pts',(4.97917975118301,-0.70694187680337,0.170971896209718));
#489=CARTESIAN_POINT('Ctrl Pts',(4.97917981451746,-0.708024250986744,0.166437908764908));
#490=CARTESIAN_POINT('Ctrl Pts',(4.9791798679422,-0.709062671366058,0.161892486436536));
#491=CARTESIAN_POINT('Ctrl Pts',(4.97918022181396,-0.715940900853242,0.131784778119633));
#492=CARTESIAN_POINT('Ctrl Pts',(4.97918014088154,-0.720885700203808,0.1011741979328));
#493=CARTESIAN_POINT('Ctrl Pts',(4.97918077875116,-0.723866760519681,0.0704398976926358));
#494=CARTESIAN_POINT('Ctrl Pts',(4.97918141662078,-0.726847820835554,0.0397055974524716));
#495=CARTESIAN_POINT('Ctrl Pts',(4.97918277303663,-0.727865083786641,0.00884894385514219));
#496=CARTESIAN_POINT('Ctrl Pts',(4.9791860034139,-0.726950282515739,-0.0217485300362616));
#497=CARTESIAN_POINT('Ctrl Pts',(4.97918902782616,-0.726093807887794,-0.0503951453184671));
#498=CARTESIAN_POINT('Ctrl Pts',(4.97918913633296,-0.723558671471623,-0.0791600915644717));
#499=CARTESIAN_POINT('Ctrl Pts',(4.97918771699009,-0.719298421705889,-0.107723222578103));
#500=CARTESIAN_POINT('Ctrl Pts',(4.97918681457986,-0.716589778810098,-0.125883501002133));
#501=CARTESIAN_POINT('Ctrl Pts',(4.97918529477971,-0.713184799649529,-0.143961904934496));
#502=CARTESIAN_POINT('Ctrl Pts',(4.97918351495233,-0.70908250996757,-0.161875559272328));
#503=CARTESIAN_POINT('Ctrl Pts',(4.97918070783825,-0.702612447016933,-0.190128676489154));
#504=CARTESIAN_POINT('Ctrl Pts',(4.97917725416889,-0.694405371605965,-0.217970912702658));
#505=CARTESIAN_POINT('Ctrl Pts',(4.9791745534772,-0.684612373968748,-0.245122318510834));
#506=CARTESIAN_POINT('Ctrl Pts',(4.97917325874835,-0.67991754831047,-0.258138875990853));
#507=CARTESIAN_POINT('Ctrl Pts',(4.97917213701168,-0.674858979611855,-0.27099688406378));
#508=CARTESIAN_POINT('Ctrl Pts',(4.97917134222444,-0.66945718856141,-0.283667205934655));
#509=CARTESIAN_POINT('Ctrl Pts',(4.97916962917105,-0.657814379016079,-0.310976323048417));
#510=CARTESIAN_POINT('Ctrl Pts',(4.97916846540296,-0.644440853281585,-0.337737741197822));
#511=CARTESIAN_POINT('Ctrl Pts',(4.97916821506971,-0.629460397062866,-0.363643506759856));
#512=CARTESIAN_POINT('Ctrl Pts',(4.97916796403199,-0.614437784246282,-0.389622173902807));
#513=CARTESIAN_POINT('Ctrl Pts',(4.97916863147278,-0.597799665449068,-0.414739402864117));
#514=CARTESIAN_POINT('Ctrl Pts',(4.97917058575432,-0.579719060118311,-0.438704759527931));
#515=CARTESIAN_POINT('Ctrl Pts',(4.9791725141952,-0.561877527100665,-0.462353232262954));
#516=CARTESIAN_POINT('Ctrl Pts',(4.97917569553811,-0.542632026618603,-0.484879275689704));
#517=CARTESIAN_POINT('Ctrl Pts',(4.97918048658966,-0.522187214027248,-0.506036573133802));
#518=CARTESIAN_POINT('Ctrl Pts',(4.97918110694419,-0.519539980561865,-0.508776060501603));
#519=CARTESIAN_POINT('Ctrl Pts',(4.97918175429208,-0.516872685770479,-0.5114926553407));
#520=CARTESIAN_POINT('Ctrl Pts',(4.97918242941342,-0.514185813329802,-0.514185874502975));
#521=CARTESIAN_POINT('Ctrl Pts',(4.97918722984074,-0.495080898415665,-0.533335917564715));
#522=CARTESIAN_POINT('Ctrl Pts',(4.9791878267025,-0.474812749047646,-0.551516887736533));
#523=CARTESIAN_POINT('Ctrl Pts',(4.9791862634331,-0.453501627956433,-0.568494724329284));
#524=CARTESIAN_POINT('Ctrl Pts',(4.97918460153525,-0.430845963938371,-0.586543711989418));
#525=CARTESIAN_POINT('Ctrl Pts',(4.9791804999386,-0.40701160372831,-0.603231808385912));
#526=CARTESIAN_POINT('Ctrl Pts',(4.97917641933735,-0.382286934422663,-0.618416376800207));
#527=CARTESIAN_POINT('Ctrl Pts',(4.97917228377036,-0.357229223548167,-0.633805481518889));
#528=CARTESIAN_POINT('Ctrl Pts',(4.97916816976196,-0.331258023754889,-0.647649731914817));
#529=CARTESIAN_POINT('Ctrl Pts',(4.97916663103793,-0.304703307699134,-0.659844331761664));
#530=CARTESIAN_POINT('Ctrl Pts',(4.9791662245413,-0.297688142867301,-0.663065873570067));
#531=CARTESIAN_POINT('Ctrl Pts',(4.97916599774883,-0.290632368473483,-0.666172544820828));
#532=CARTESIAN_POINT('Ctrl Pts',(4.97916599774883,-0.283542272452853,-0.66916298571005));
#533=CARTESIAN_POINT('Ctrl Pts',(4.97916599774883,-0.255095493194865,-0.681161188782652));
#534=CARTESIAN_POINT('Ctrl Pts',(4.97916599774883,-0.225725394862648,-0.69146187131509));
#535=CARTESIAN_POINT('Ctrl Pts',(4.97916599774883,-0.195769016816307,-0.699896005942263));
#536=CARTESIAN_POINT('Ctrl Pts',(4.97916599774883,-0.165892656419474,-0.708307611823556));
#537=CARTESIAN_POINT('Ctrl Pts',(4.97916599774883,-0.13543426491385,-0.714862226631748));
#538=CARTESIAN_POINT('Ctrl Pts',(4.97916599774883,-0.104749864448227,-0.719438407217279));
#539=CARTESIAN_POINT('Ctrl Pts',(4.97916599774883,-0.0771768808920615,-0.72355056030224));
#540=CARTESIAN_POINT('Ctrl Pts',(4.97916599774883,-0.0494222508913641,-0.72606558143798));
#541=CARTESIAN_POINT('Ctrl Pts',(4.97916599774883,-0.0217479580607663,-0.726931142714925));
#542=CARTESIAN_POINT('Ctrl Pts',(4.97916599774883,-0.0145013658703753,-0.727157792394041));
#543=CARTESIAN_POINT('Ctrl Pts',(4.97916599774883,-0.00725028454419506,
-0.727271841332327));
#544=CARTESIAN_POINT('Ctrl Pts',(4.97916599774883,0.,-0.727271841332327));
#545=CARTESIAN_POINT('',(5.37249870035162,0.,-0.4));
#546=CARTESIAN_POINT('Origin',(5.37249870035162,0.,-0.800000000000001));
#547=CARTESIAN_POINT('Ctrl Pts',(5.37249870035162,0.,-0.400000000000001));
#548=CARTESIAN_POINT('Ctrl Pts',(5.37249870035162,-0.0892268942281757,-0.400000000000001));
#549=CARTESIAN_POINT('Ctrl Pts',(5.37249870035162,-0.269326580333463,-0.337199283450075));
#550=CARTESIAN_POINT('Ctrl Pts',(5.37249870035162,-0.403524753937806,-0.122906647807265));
#551=CARTESIAN_POINT('Ctrl Pts',(5.37249870035162,-0.403298289277595,0.0921203301267468));
#552=CARTESIAN_POINT('Ctrl Pts',(5.37249870035162,-0.323465682047116,0.258008167307336));
#553=CARTESIAN_POINT('Ctrl Pts',(5.37249870035162,-0.179244295147421,0.37299549027236));
#554=CARTESIAN_POINT('Ctrl Pts',(5.37249870035162,-0.0594845961521164,0.399999999999999));
#555=CARTESIAN_POINT('Ctrl Pts',(5.37249870035162,6.51947156447516E-16,
0.399999999999999));
#556=CARTESIAN_POINT('Ctrl Pts',(4.97916599774883,3.46944695195361E-17,
0.727271841332328));
#557=CARTESIAN_POINT('Ctrl Pts',(4.97916599774883,0.162194273300487,0.727271841332328));
#558=CARTESIAN_POINT('Ctrl Pts',(4.97916599774883,0.488877106555445,0.613120186723108));
#559=CARTESIAN_POINT('Ctrl Pts',(4.97916599774883,0.797213700955848,0.124684301985087));
#560=CARTESIAN_POINT('Ctrl Pts',(4.97916599774884,0.677324670004142,-0.399888384631082));
#561=CARTESIAN_POINT('Ctrl Pts',(4.97916599774883,0.324284686452043,-0.677674886587381));
#562=CARTESIAN_POINT('Ctrl Pts',(4.97916599774883,0.108129515533658,-0.727271841332328));
#563=CARTESIAN_POINT('Ctrl Pts',(4.97916599774883,0.,-0.727271841332328));
#564=CARTESIAN_POINT('Ctrl Pts',(4.99598994738617,4.83442514804639E-17,
0.636283568006932));
#565=CARTESIAN_POINT('Ctrl Pts',(4.99598994738617,0.14186268289752,0.636283568006932));
#566=CARTESIAN_POINT('Ctrl Pts',(4.99598994738617,0.427629222892165,0.536356703728377));
#567=CARTESIAN_POINT('Ctrl Pts',(4.99598994738617,0.697319626484021,0.109107378902588));
#568=CARTESIAN_POINT('Ctrl Pts',(4.99598994738617,0.592457994259264,-0.349834242968836));
#569=CARTESIAN_POINT('Ctrl Pts',(4.99598994738617,0.283658621005342,-0.592824611916063));
#570=CARTESIAN_POINT('Ctrl Pts',(4.99598994738617,0.0945751219316815,-0.636283568006932));
#571=CARTESIAN_POINT('Ctrl Pts',(4.99598994738617,-2.09869328144368E-19,
-0.636283568006932));
#572=CARTESIAN_POINT('Ctrl Pts',(5.09528970414341,6.39932385874705E-17,
0.466835486913582));
#573=CARTESIAN_POINT('Ctrl Pts',(5.09528970414341,0.104187417347881,0.466835486913582));
#574=CARTESIAN_POINT('Ctrl Pts',(5.0952897041434,0.313970756446911,0.393668721788066));
#575=CARTESIAN_POINT('Ctrl Pts',(5.0952897041434,0.512025299072418,0.0799927725143619));
#576=CARTESIAN_POINT('Ctrl Pts',(5.09528970414341,0.43501521761131,-0.256734538301162));
#577=CARTESIAN_POINT('Ctrl Pts',(5.0952897041434,0.208262519095477,-0.43512606746567));
#578=CARTESIAN_POINT('Ctrl Pts',(5.0952897041434,0.0694582782319241,-0.466835486913583));
#579=CARTESIAN_POINT('Ctrl Pts',(5.0952897041434,-6.28739772717321E-19,
-0.466835486913583));
#580=CARTESIAN_POINT('Ctrl Pts',(5.27996810452442,4.92470264918268E-17,
0.4));
#581=CARTESIAN_POINT('Ctrl Pts',(5.27996810452442,0.0890946132610852,0.4));
#582=CARTESIAN_POINT('Ctrl Pts',(5.27996810452442,0.268641885834029,0.337055994937654));
#583=CARTESIAN_POINT('Ctrl Pts',(5.27996810452442,0.438027325920152,0.0686394204571221));
#584=CARTESIAN_POINT('Ctrl Pts',(5.27996810452442,0.372168232885115,-0.21986942779448));
#585=CARTESIAN_POINT('Ctrl Pts',(5.27996810452442,0.178200497595927,-0.372531589812585));
#586=CARTESIAN_POINT('Ctrl Pts',(5.27996810452442,0.0593964088407294,-0.400000000000001));
#587=CARTESIAN_POINT('Ctrl Pts',(5.27996810452442,-8.5396228478737E-19,
-0.400000000000001));
#588=CARTESIAN_POINT('Ctrl Pts',(5.37249870035162,3.59448858847947E-17,
0.4));
#589=CARTESIAN_POINT('Ctrl Pts',(5.37249870035162,0.0892069589843261,0.4));
#590=CARTESIAN_POINT('Ctrl Pts',(5.37249870035162,0.268882736149853,0.337216513484085));
#591=CARTESIAN_POINT('Ctrl Pts',(5.37249870035162,0.438468069653515,0.0685764496294359));
#592=CARTESIAN_POINT('Ctrl Pts',(5.37249870035162,0.372529022305225,-0.219938879469615));
#593=CARTESIAN_POINT('Ctrl Pts',(5.37249870035162,0.17835679481719,-0.372721641660646));
#594=CARTESIAN_POINT('Ctrl Pts',(5.37249870035162,0.0594713059895566,-0.400000000000001));
#595=CARTESIAN_POINT('Ctrl Pts',(5.37249870035162,-8.92120809279273E-19,
-0.400000000000001));
#596=CARTESIAN_POINT('Ctrl Pts',(5.37249870035162,3.59448858847947E-17,
0.4));
#597=CARTESIAN_POINT('Ctrl Pts',(5.37249870035162,0.0892069589843261,0.4));
#598=CARTESIAN_POINT('Ctrl Pts',(5.37249870035162,0.268882736149853,0.337216513484085));
#599=CARTESIAN_POINT('Ctrl Pts',(5.37249870035162,0.438468069653515,0.0685764496294359));
#600=CARTESIAN_POINT('Ctrl Pts',(5.37249870035162,0.372529022305225,-0.219938879469615));
#601=CARTESIAN_POINT('Ctrl Pts',(5.37249870035162,0.17835679481719,-0.372721641660646));
#602=CARTESIAN_POINT('Ctrl Pts',(5.37249870035162,0.0594713059895566,-0.400000000000001));
#603=CARTESIAN_POINT('Ctrl Pts',(5.37249870035162,-8.92120809279273E-19,
-0.400000000000001));
#604=CARTESIAN_POINT('Ctrl Pts',(4.97916599774883,0.,-0.727271841332328));
#605=CARTESIAN_POINT('Ctrl Pts',(4.97916599774883,0.108129515533658,-0.727271841332328));
#606=CARTESIAN_POINT('Ctrl Pts',(4.97916599774883,0.324284686452043,-0.677674886587381));
#607=CARTESIAN_POINT('Ctrl Pts',(4.97916599774884,0.677324670004142,-0.399888384631082));
#608=CARTESIAN_POINT('Ctrl Pts',(4.97916599774883,0.797213700955848,0.124684301985087));
#609=CARTESIAN_POINT('Ctrl Pts',(4.97916599774883,0.488877106555445,0.613120186723108));
#610=CARTESIAN_POINT('Ctrl Pts',(4.97916599774883,0.162194273300487,0.727271841332328));
#611=CARTESIAN_POINT('Ctrl Pts',(4.97916599774883,3.46944695195361E-17,
0.727271841332328));
#612=CARTESIAN_POINT('Ctrl Pts',(5.,0.,0.5));
#613=CARTESIAN_POINT('Ctrl Pts',(5.,-0.5,0.5));
#614=CARTESIAN_POINT('Ctrl Pts',(5.,-0.5,0.));
#615=CARTESIAN_POINT('Ctrl Pts',(5.,-0.5,-0.5));
#616=CARTESIAN_POINT('Ctrl Pts',(5.,0.,-0.5));
#617=CARTESIAN_POINT('Ctrl Pts',(5.,0.5,-0.5));
#618=CARTESIAN_POINT('Ctrl Pts',(5.,0.5,0.));
#619=CARTESIAN_POINT('Ctrl Pts',(5.,0.5,0.5));
#620=CARTESIAN_POINT('Ctrl Pts',(5.,0.,0.5));
#621=CARTESIAN_POINT('Ctrl Pts',(5.,0.,0.696349540849));
#622=CARTESIAN_POINT('Ctrl Pts',(5.,-0.696349540849,0.696349540849));
#623=CARTESIAN_POINT('Ctrl Pts',(5.,-0.696349540849,0.));
#624=CARTESIAN_POINT('Ctrl Pts',(5.,-0.696349540849,-0.696349540849));
#625=CARTESIAN_POINT('Ctrl Pts',(5.,0.,-0.696349540849));
#626=CARTESIAN_POINT('Ctrl Pts',(5.,0.696349540849,-0.696349540849));
#627=CARTESIAN_POINT('Ctrl Pts',(5.,0.696349540849,0.));
#628=CARTESIAN_POINT('Ctrl Pts',(5.,0.696349540849,0.696349540849));
#629=CARTESIAN_POINT('Ctrl Pts',(5.,0.,0.696349540849));
#630=CARTESIAN_POINT('Ctrl Pts',(4.961455508818,0.,0.892702192477));
#631=CARTESIAN_POINT('Ctrl Pts',(4.961455508818,-0.892702192477,0.892702192477));
#632=CARTESIAN_POINT('Ctrl Pts',(4.961455508818,-0.892702192477,0.));
#633=CARTESIAN_POINT('Ctrl Pts',(4.961455508818,-0.892702192477,-0.892702192477));
#634=CARTESIAN_POINT('Ctrl Pts',(4.961455508818,0.,-0.892702192477));
#635=CARTESIAN_POINT('Ctrl Pts',(4.961455508818,0.892702192477,-0.892702192477));
#636=CARTESIAN_POINT('Ctrl Pts',(4.961455508818,0.892702192477,0.));
#637=CARTESIAN_POINT('Ctrl Pts',(4.961455508818,0.892702192477,0.892702192477));
#638=CARTESIAN_POINT('Ctrl Pts',(4.961455508818,0.,0.892702192477));
#639=CARTESIAN_POINT('Ctrl Pts',(4.884310788678,0.,1.078946022103));
#640=CARTESIAN_POINT('Ctrl Pts',(4.884310788678,-1.078946022103,1.078946022103));
#641=CARTESIAN_POINT('Ctrl Pts',(4.884310788678,-1.078946022103,0.));
#642=CARTESIAN_POINT('Ctrl Pts',(4.884310788678,-1.078946022103,-1.078946022103));
#643=CARTESIAN_POINT('Ctrl Pts',(4.884310788678,0.,-1.078946022103));
#644=CARTESIAN_POINT('Ctrl Pts',(4.884310788678,1.078946022103,-1.078946022103));
#645=CARTESIAN_POINT('Ctrl Pts',(4.884310788678,1.078946022103,0.));
#646=CARTESIAN_POINT('Ctrl Pts',(4.884310788678,1.078946022103,1.078946022103));
#647=CARTESIAN_POINT('Ctrl Pts',(4.884310788678,0.,1.078946022103));
#648=CARTESIAN_POINT('Ctrl Pts',(4.772723568301,0.,1.245043384666));
#649=CARTESIAN_POINT('Ctrl Pts',(4.772723568301,-1.245043384666,1.245043384666));
#650=CARTESIAN_POINT('Ctrl Pts',(4.772723568301,-1.245043384666,0.));
#651=CARTESIAN_POINT('Ctrl Pts',(4.772723568301,-1.245043384666,-1.245043384666));
#652=CARTESIAN_POINT('Ctrl Pts',(4.772723568301,0.,-1.245043384666));
#653=CARTESIAN_POINT('Ctrl Pts',(4.772723568301,1.245043384666,-1.245043384666));
#654=CARTESIAN_POINT('Ctrl Pts',(4.772723568301,1.245043384666,0.));
#655=CARTESIAN_POINT('Ctrl Pts',(4.772723568301,1.245043384666,1.245043384666));
#656=CARTESIAN_POINT('Ctrl Pts',(4.772723568301,0.,1.245043384666));
#657=CARTESIAN_POINT('Ctrl Pts',(4.495043384666,0.,1.522723568301));
#658=CARTESIAN_POINT('Ctrl Pts',(4.495043384666,-1.522723568301,1.522723568301));
#659=CARTESIAN_POINT('Ctrl Pts',(4.495043384666,-1.522723568301,0.));
#660=CARTESIAN_POINT('Ctrl Pts',(4.495043384666,-1.522723568301,-1.522723568301));
#661=CARTESIAN_POINT('Ctrl Pts',(4.495043384666,0.,-1.522723568301));
#662=CARTESIAN_POINT('Ctrl Pts',(4.495043384666,1.522723568301,-1.522723568301));
#663=CARTESIAN_POINT('Ctrl Pts',(4.495043384666,1.522723568301,0.));
#664=CARTESIAN_POINT('Ctrl Pts',(4.495043384666,1.522723568301,1.522723568301));
#665=CARTESIAN_POINT('Ctrl Pts',(4.495043384666,0.,1.522723568301));
#666=CARTESIAN_POINT('Ctrl Pts',(4.328946022103,0.,1.634310788678));
#667=CARTESIAN_POINT('Ctrl Pts',(4.328946022103,-1.634310788678,1.634310788678));
#668=CARTESIAN_POINT('Ctrl Pts',(4.328946022103,-1.634310788678,0.));
#669=CARTESIAN_POINT('Ctrl Pts',(4.328946022103,-1.634310788678,-1.634310788678));
#670=CARTESIAN_POINT('Ctrl Pts',(4.328946022103,0.,-1.634310788678));
#671=CARTESIAN_POINT('Ctrl Pts',(4.328946022103,1.634310788678,-1.634310788678));
#672=CARTESIAN_POINT('Ctrl Pts',(4.328946022103,1.634310788678,0.));
#673=CARTESIAN_POINT('Ctrl Pts',(4.328946022103,1.634310788678,1.634310788678));
#674=CARTESIAN_POINT('Ctrl Pts',(4.328946022103,0.,1.634310788678));
#675=CARTESIAN_POINT('Ctrl Pts',(4.142702192477,0.,1.711455508818));
#676=CARTESIAN_POINT('Ctrl Pts',(4.142702192477,-1.711455508818,1.711455508818));
#677=CARTESIAN_POINT('Ctrl Pts',(4.142702192477,-1.711455508818,0.));
#678=CARTESIAN_POINT('Ctrl Pts',(4.142702192477,-1.711455508818,-1.711455508818));
#679=CARTESIAN_POINT('Ctrl Pts',(4.142702192477,0.,-1.711455508818));
#680=CARTESIAN_POINT('Ctrl Pts',(4.142702192477,1.711455508818,-1.711455508818));
#681=CARTESIAN_POINT('Ctrl Pts',(4.142702192477,1.711455508818,0.));
#682=CARTESIAN_POINT('Ctrl Pts',(4.142702192477,1.711455508818,1.711455508818));
#683=CARTESIAN_POINT('Ctrl Pts',(4.142702192477,0.,1.711455508818));
#684=CARTESIAN_POINT('Ctrl Pts',(3.946349540849,0.,1.75));
#685=CARTESIAN_POINT('Ctrl Pts',(3.946349540849,-1.75,1.75));
#686=CARTESIAN_POINT('Ctrl Pts',(3.946349540849,-1.75,0.));
#687=CARTESIAN_POINT('Ctrl Pts',(3.946349540849,-1.75,-1.75));
#688=CARTESIAN_POINT('Ctrl Pts',(3.946349540849,0.,-1.75));
#689=CARTESIAN_POINT('Ctrl Pts',(3.946349540849,1.75,-1.75));
#690=CARTESIAN_POINT('Ctrl Pts',(3.946349540849,1.75,0.));
#691=CARTESIAN_POINT('Ctrl Pts',(3.946349540849,1.75,1.75));
#692=CARTESIAN_POINT('Ctrl Pts',(3.946349540849,0.,1.75));
#693=CARTESIAN_POINT('Ctrl Pts',(3.75,0.,1.75));
#694=CARTESIAN_POINT('Ctrl Pts',(3.75,-1.75,1.75));
#695=CARTESIAN_POINT('Ctrl Pts',(3.75,-1.75,0.));
#696=CARTESIAN_POINT('Ctrl Pts',(3.75,-1.75,-1.75));
#697=CARTESIAN_POINT('Ctrl Pts',(3.75,0.,-1.75));
#698=CARTESIAN_POINT('Ctrl Pts',(3.75,1.75,-1.75));
#699=CARTESIAN_POINT('Ctrl Pts',(3.75,1.75,0.));
#700=CARTESIAN_POINT('Ctrl Pts',(3.75,1.75,1.75));
#701=CARTESIAN_POINT('Ctrl Pts',(3.75,0.,1.75));
#702=CARTESIAN_POINT('',(3.75,0.,1.75));
#703=CARTESIAN_POINT('Origin',(3.75,0.,0.5));
#704=CARTESIAN_POINT('',(3.75,2.143131898508E-16,-1.75));
#705=CARTESIAN_POINT('Origin',(3.75,0.,0.));
#706=CARTESIAN_POINT('Origin',(3.75,6.123233995737E-17,-0.5));
#707=CARTESIAN_POINT('Origin',(0.,0.,0.));
#708=CARTESIAN_POINT('',(5.4,-4.89858719658941E-17,0.4));
#709=CARTESIAN_POINT('',(5.4,-0.4,4.89858719658941E-17));
#710=CARTESIAN_POINT('Origin',(5.4,0.,0.));
#711=CARTESIAN_POINT('Origin',(5.4,0.,0.));
#712=CARTESIAN_POINT('',(0.,-4.89858719658941E-17,0.4));
#713=CARTESIAN_POINT('Ctrl Pts',(-4.97916599774883,0.,0.727271841332328));
#714=CARTESIAN_POINT('Ctrl Pts',(-4.97916599774883,-0.162230519154225,0.727271841332328));
#715=CARTESIAN_POINT('Ctrl Pts',(-4.97916599774884,-0.489684094997172,0.613088859426678));
#716=CARTESIAN_POINT('Ctrl Pts',(-4.97916599774884,-0.733680477048731,0.223466360157021));
#717=CARTESIAN_POINT('Ctrl Pts',(-4.97916599774884,-0.733268723622733,-0.167491305288541));
#718=CARTESIAN_POINT('Ctrl Pts',(-4.97916599774884,-0.588118705475548,-0.469105187290925));
#719=CARTESIAN_POINT('Ctrl Pts',(-4.97916599774883,-0.325898321450412,-0.678172792547603));
#720=CARTESIAN_POINT('Ctrl Pts',(-4.97916599774883,-0.10815367943615,-0.727271841332329));
#721=CARTESIAN_POINT('Ctrl Pts',(-4.97916599774883,1.94661940720229E-16,
-0.727271841332329));
#722=CARTESIAN_POINT('Ctrl Pts',(-4.99598994738617,0.,0.636283568006932));
#723=CARTESIAN_POINT('Ctrl Pts',(-4.99598994738617,-0.141894385213212,0.636283568006932));
#724=CARTESIAN_POINT('Ctrl Pts',(-4.99598994738617,-0.428342281457017,0.536320482865013));
#725=CARTESIAN_POINT('Ctrl Pts',(-4.99598994738618,-0.641752567004744,0.195507311311528));
#726=CARTESIAN_POINT('Ctrl Pts',(-4.99598994738617,-0.641404223713774,-0.146526816606335));
#727=CARTESIAN_POINT('Ctrl Pts',(-4.99598994738617,-0.514436094137662,-0.41035735629489));
#728=CARTESIAN_POINT('Ctrl Pts',(-4.99598994738617,-0.285077498320747,-0.593270328497813));
#729=CARTESIAN_POINT('Ctrl Pts',(-4.99598994738617,-0.0945962568088079,
-0.636283568006933));
#730=CARTESIAN_POINT('Ctrl Pts',(-4.99598994738617,2.07235098857237E-16,
-0.636283568006933));
#731=CARTESIAN_POINT('Ctrl Pts',(-5.095289704144,0.,0.466835486914293));
#732=CARTESIAN_POINT('Ctrl Pts',(-5.095289704144,-0.104210700302419,0.466835486914293));
#733=CARTESIAN_POINT('Ctrl Pts',(-5.095289704144,-0.314475455192556,0.393665290425317));
#734=CARTESIAN_POINT('Ctrl Pts',(-5.095289704144,-0.471210072414993,0.143445591789895));
#735=CARTESIAN_POINT('Ctrl Pts',(-5.095289704144,-0.470923255827374,-0.107531170497781));
#736=CARTESIAN_POINT('Ctrl Pts',(-5.095289704144,-0.37770929936095,-0.301229196841439));
#737=CARTESIAN_POINT('Ctrl Pts',(-5.095289704144,-0.2092848317891,-0.435426553778297));
#738=CARTESIAN_POINT('Ctrl Pts',(-5.095289704144,-0.069473800201612,-0.466835486914294));
#739=CARTESIAN_POINT('Ctrl Pts',(-5.095289704144,2.36428592447377E-16,-0.466835486914294));
#740=CARTESIAN_POINT('Ctrl Pts',(-5.27996810452442,0.,0.400000000000001));
#741=CARTESIAN_POINT('Ctrl Pts',(-5.27996810452442,-0.0891145233988282,
0.400000000000001));
#742=CARTESIAN_POINT('Ctrl Pts',(-5.27996810452442,-0.269105667616719,0.337013776794612));
#743=CARTESIAN_POINT('Ctrl Pts',(-5.27996810452442,-0.403133869421376,0.12290270749008));
#744=CARTESIAN_POINT('Ctrl Pts',(-5.27996810452442,-0.402941134898706,-0.0920925027962308));
#745=CARTESIAN_POINT('Ctrl Pts',(-5.27996810452442,-0.323171787933109,-0.257842191658149));
#746=CARTESIAN_POINT('Ctrl Pts',(-5.27996810452442,-0.179108193435578,-0.372834084934395));
#747=CARTESIAN_POINT('Ctrl Pts',(-5.27996810452442,-0.0594096822658854,
-0.400000000000001));
#748=CARTESIAN_POINT('Ctrl Pts',(-5.27996810452442,2.60314235891059E-16,
-0.400000000000001));
#749=CARTESIAN_POINT('Ctrl Pts',(-5.37249870035162,0.,0.400000000000001));
#750=CARTESIAN_POINT('Ctrl Pts',(-5.37249870035162,-0.0892268942281757,
0.400000000000001));
#751=CARTESIAN_POINT('Ctrl Pts',(-5.37249870035162,-0.269326580333462,0.337199283450077));
#752=CARTESIAN_POINT('Ctrl Pts',(-5.37249870035162,-0.403524753937811,0.12290664780726));
#753=CARTESIAN_POINT('Ctrl Pts',(-5.37249870035162,-0.403298289277597,-0.0921203301267458));
#754=CARTESIAN_POINT('Ctrl Pts',(-5.37249870035162,-0.323465682047117,-0.258008167307339));
#755=CARTESIAN_POINT('Ctrl Pts',(-5.37249870035162,-0.179244295147423,-0.372995490272361));
#756=CARTESIAN_POINT('Ctrl Pts',(-5.37249870035162,-0.0594845961521169,
-0.400000000000001));
#757=CARTESIAN_POINT('Ctrl Pts',(-5.37249870035162,2.68180836087851E-16,
-0.400000000000001));
#758=CARTESIAN_POINT('',(-5.37249870035162,-4.89858719658941E-17,-0.4));
#759=CARTESIAN_POINT('',(-4.97916599774883,-1.8590677168659E-17,-0.727271841332327));
#760=CARTESIAN_POINT('Origin',(-5.37249870035162,1.31435660672709E-16,-0.799999999999999));
#761=CARTESIAN_POINT('',(-4.97916599774883,4.4532556629879E-17,0.727271841332328));
#762=CARTESIAN_POINT('Ctrl Pts',(-4.97916599774883,5.45787926164547E-32,
-0.727271841332328));
#763=CARTESIAN_POINT('Ctrl Pts',(-4.97916599774883,-0.0126774231621832,
-0.727271841332328));
#764=CARTESIAN_POINT('Ctrl Pts',(-4.97916599774883,-0.0253591038367021,
-0.726934396854535));
#765=CARTESIAN_POINT('Ctrl Pts',(-4.97916599774883,-0.0380185858912863,
-0.726264431633754));
#766=CARTESIAN_POINT('Ctrl Pts',(-4.97916599774883,-0.0684054689916747,
-0.724656296738706));
#767=CARTESIAN_POINT('Ctrl Pts',(-4.97916709104256,-0.098868894781851,-0.721111989201568));
#768=CARTESIAN_POINT('Ctrl Pts',(-4.97916913385488,-0.129046664468358,-0.71566068087804));
#769=CARTESIAN_POINT('Ctrl Pts',(-4.97917116533668,-0.159057052093819,-0.710239608427874));
#770=CARTESIAN_POINT('Ctrl Pts',(-4.97917413587571,-0.18878381638298,-0.702932868915833));
#771=CARTESIAN_POINT('Ctrl Pts',(-4.97917790504362,-0.217876929075605,-0.693819514616053));
#772=CARTESIAN_POINT('Ctrl Pts',(-4.97918150474651,-0.245661990540235,-0.685115904519615));
#773=CARTESIAN_POINT('Ctrl Pts',(-4.97918583291117,-0.272868315903061,-0.67476500175492));
#774=CARTESIAN_POINT('Ctrl Pts',(-4.97919076755119,-0.299210295417798,-0.662875704692926));
#775=CARTESIAN_POINT('Ctrl Pts',(-4.97919176434746,-0.304531369875615,-0.660474069125539));
#776=CARTESIAN_POINT('Ctrl Pts',(-4.97919258356356,-0.309829391657488,-0.658005520903435));
#777=CARTESIAN_POINT('Ctrl Pts',(-4.97919324613845,-0.315101682278611,-0.655470184861207));
#778=CARTESIAN_POINT('Ctrl Pts',(-4.97919658104612,-0.34163845952719,-0.642709194878344));
#779=CARTESIAN_POINT('Ctrl Pts',(-4.97919594662799,-0.367522525991778,-0.628252012220316));
#780=CARTESIAN_POINT('Ctrl Pts',(-4.979194024896,-0.392469792100949,-0.61224832001961));
#781=CARTESIAN_POINT('Ctrl Pts',(-4.97919208965971,-0.417592366461026,-0.596132167428437));
#782=CARTESIAN_POINT('Ctrl Pts',(-4.97918885003813,-0.441763987727452,-0.57844816942608));
#783=CARTESIAN_POINT('Ctrl Pts',(-4.97918704470694,-0.464713207155736,-0.559398376656766));
#784=CARTESIAN_POINT('Ctrl Pts',(-4.97918533259942,-0.486477375128128,-0.541332276806782));
#785=CARTESIAN_POINT('Ctrl Pts',(-4.97918490950773,-0.507141597745579,-0.522038614761617));
#786=CARTESIAN_POINT('Ctrl Pts',(-4.97918811154191,-0.526501331333002,-0.501723658630981));
#787=CARTESIAN_POINT('Ctrl Pts',(-4.97919053295695,-0.541141384368813,-0.486361255329837));
#788=CARTESIAN_POINT('Ctrl Pts',(-4.97919082905659,-0.555179902299355,-0.470297617089399));
#789=CARTESIAN_POINT('Ctrl Pts',(-4.97918991951884,-0.568505785228328,-0.453600108062037));
#790=CARTESIAN_POINT('Ctrl Pts',(-4.97918868433,-0.586602870154928,-0.430924219301688));
#791=CARTESIAN_POINT('Ctrl Pts',(-4.97918522641556,-0.60338381827526,-0.40707803168695));
#792=CARTESIAN_POINT('Ctrl Pts',(-4.97918185238152,-0.618676113649641,-0.382317396877594));
#793=CARTESIAN_POINT('Ctrl Pts',(-4.97917846235117,-0.634040909868378,-0.357439371782051));
#794=CARTESIAN_POINT('Ctrl Pts',(-4.97917515694095,-0.647902332771348,-0.331639054656207));
#795=CARTESIAN_POINT('Ctrl Pts',(-4.97917427008914,-0.66012663345935,-0.305207928472448));
#796=CARTESIAN_POINT('Ctrl Pts',(-4.979173768998,-0.667033637167898,-0.290273750131145));
#797=CARTESIAN_POINT('Ctrl Pts',(-4.97917403987654,-0.673418784722612,-0.275138694915148));
#798=CARTESIAN_POINT('Ctrl Pts',(-4.9791755043027,-0.679264747979591,-0.259858208484568));
#799=CARTESIAN_POINT('Ctrl Pts',(-4.97917813243597,-0.68975620939976,-0.232435074465304));
#800=CARTESIAN_POINT('Ctrl Pts',(-4.97917918340812,-0.698663720610249,-0.20421936655551));
#801=CARTESIAN_POINT('Ctrl Pts',(-4.97917967397004,-0.705816111996681,-0.175493293384832));
#802=CARTESIAN_POINT('Ctrl Pts',(-4.97917975118301,-0.706941876803368,-0.170971896209728));
#803=CARTESIAN_POINT('Ctrl Pts',(-4.97917981451746,-0.708024250986743,-0.166437908764914));
#804=CARTESIAN_POINT('Ctrl Pts',(-4.97917986794221,-0.709062671366058,-0.161892486436536));
#805=CARTESIAN_POINT('Ctrl Pts',(-4.97918022181396,-0.715940900853242,-0.131784778119633));
#806=CARTESIAN_POINT('Ctrl Pts',(-4.97918014088154,-0.720885700203808,-0.1011741979328));
#807=CARTESIAN_POINT('Ctrl Pts',(-4.97918077875116,-0.723866760519681,-0.0704398976926362));
#808=CARTESIAN_POINT('Ctrl Pts',(-4.97918141662078,-0.726847820835554,-0.0397055974524721));
#809=CARTESIAN_POINT('Ctrl Pts',(-4.97918277303663,-0.727865083786641,-0.00884894385514221));
#810=CARTESIAN_POINT('Ctrl Pts',(-4.97918600341391,-0.726950282515739,0.0217485300362617));
#811=CARTESIAN_POINT('Ctrl Pts',(-4.97918902782616,-0.726093807887795,0.0503951453184543));
#812=CARTESIAN_POINT('Ctrl Pts',(-4.97918913633296,-0.723558671471625,0.079160091564446));
#813=CARTESIAN_POINT('Ctrl Pts',(-4.97918771699009,-0.719298421705895,0.107723222578064));
#814=CARTESIAN_POINT('Ctrl Pts',(-4.97918681457986,-0.716589778810103,0.125883501002108));
#815=CARTESIAN_POINT('Ctrl Pts',(-4.97918529477971,-0.713184799649532,0.143961904934484));
#816=CARTESIAN_POINT('Ctrl Pts',(-4.97918351495234,-0.709082509967571,0.161875559272328));
#817=CARTESIAN_POINT('Ctrl Pts',(-4.97918070783825,-0.702612447016932,0.190128676489158));
#818=CARTESIAN_POINT('Ctrl Pts',(-4.97917725416889,-0.694405371605963,0.217970912702666));
#819=CARTESIAN_POINT('Ctrl Pts',(-4.97917455347721,-0.684612373968744,0.245122318510846));
#820=CARTESIAN_POINT('Ctrl Pts',(-4.97917325874835,-0.679917548310468,0.258138875990861));
#821=CARTESIAN_POINT('Ctrl Pts',(-4.97917213701168,-0.674858979611854,0.270996884063784));
#822=CARTESIAN_POINT('Ctrl Pts',(-4.97917134222444,-0.669457188561411,0.283667205934655));
#823=CARTESIAN_POINT('Ctrl Pts',(-4.97916962917106,-0.657814379016078,0.31097632304842));
#824=CARTESIAN_POINT('Ctrl Pts',(-4.97916846540297,-0.644440853281582,0.337737741197828));
#825=CARTESIAN_POINT('Ctrl Pts',(-4.97916821506971,-0.629460397062862,0.363643506759864));
#826=CARTESIAN_POINT('Ctrl Pts',(-4.97916796403199,-0.614437784246272,0.389622173902824));
#827=CARTESIAN_POINT('Ctrl Pts',(-4.97916863147279,-0.597799665449052,0.414739402864142));
#828=CARTESIAN_POINT('Ctrl Pts',(-4.97917058575432,-0.579719060118287,0.438704759527963));
#829=CARTESIAN_POINT('Ctrl Pts',(-4.9791725141952,-0.561877527100628,0.462353232263001));
#830=CARTESIAN_POINT('Ctrl Pts',(-4.97917569553812,-0.54263202661855,0.484879275689765));
#831=CARTESIAN_POINT('Ctrl Pts',(-4.97918048658967,-0.522187214027178,0.506036573133874));
#832=CARTESIAN_POINT('Ctrl Pts',(-4.97918110694419,-0.519539980561818,0.508776060501651));
#833=CARTESIAN_POINT('Ctrl Pts',(-4.97918175429208,-0.516872685770456,0.511492655340725));
#834=CARTESIAN_POINT('Ctrl Pts',(-4.97918242941342,-0.514185813329802,0.514185874502975));
#835=CARTESIAN_POINT('Ctrl Pts',(-4.97918722984074,-0.495080898415665,0.533335917564715));
#836=CARTESIAN_POINT('Ctrl Pts',(-4.9791878267025,-0.474812749047646,0.551516887736533));
#837=CARTESIAN_POINT('Ctrl Pts',(-4.9791862634331,-0.453501627956433,0.568494724329284));
#838=CARTESIAN_POINT('Ctrl Pts',(-4.97918460153525,-0.430845963938364,0.586543711989423));
#839=CARTESIAN_POINT('Ctrl Pts',(-4.9791804999386,-0.407011603728296,0.603231808385922));
#840=CARTESIAN_POINT('Ctrl Pts',(-4.97917641933735,-0.38228693442264,0.61841637680022));
#841=CARTESIAN_POINT('Ctrl Pts',(-4.97917228377036,-0.357229223548152,0.633805481518898));
#842=CARTESIAN_POINT('Ctrl Pts',(-4.97916816976196,-0.331258023754881,0.647649731914821));
#843=CARTESIAN_POINT('Ctrl Pts',(-4.97916663103793,-0.304703307699133,0.659844331761665));
#844=CARTESIAN_POINT('Ctrl Pts',(-4.9791662245413,-0.2976881428673,0.663065873570068));
#845=CARTESIAN_POINT('Ctrl Pts',(-4.97916599774883,-0.290632368473483,0.666172544820828));
#846=CARTESIAN_POINT('Ctrl Pts',(-4.97916599774883,-0.283542272452853,0.66916298571005));
#847=CARTESIAN_POINT('Ctrl Pts',(-4.97916599774883,-0.255095493194867,0.681161188782652));
#848=CARTESIAN_POINT('Ctrl Pts',(-4.97916599774883,-0.22572539486265,0.69146187131509));
#849=CARTESIAN_POINT('Ctrl Pts',(-4.97916599774883,-0.19576901681631,0.699896005942263));
#850=CARTESIAN_POINT('Ctrl Pts',(-4.97916599774883,-0.165892656419476,0.708307611823556));
#851=CARTESIAN_POINT('Ctrl Pts',(-4.97916599774883,-0.135434264913851,0.714862226631748));
#852=CARTESIAN_POINT('Ctrl Pts',(-4.97916599774883,-0.104749864448227,0.719438407217279));
#853=CARTESIAN_POINT('Ctrl Pts',(-4.97916599774883,-0.0771768808920617,
0.72355056030224));
#854=CARTESIAN_POINT('Ctrl Pts',(-4.97916599774883,-0.0494222508913637,
0.72606558143798));
#855=CARTESIAN_POINT('Ctrl Pts',(-4.97916599774883,-0.0217479580607661,
0.726931142714925));
#856=CARTESIAN_POINT('Ctrl Pts',(-4.97916599774883,-0.0145013658703753,
0.727157792394041));
#857=CARTESIAN_POINT('Ctrl Pts',(-4.97916599774883,-0.00725028454419506,
0.727271841332327));
#858=CARTESIAN_POINT('Ctrl Pts',(-4.97916599774883,0.,0.727271841332327));
#859=CARTESIAN_POINT('',(-5.37249870035162,0.,0.4));
#860=CARTESIAN_POINT('Origin',(-5.37249870035162,0.,0.800000000000001));
#861=CARTESIAN_POINT('Ctrl Pts',(-5.37249870035162,0.,0.400000000000001));
#862=CARTESIAN_POINT('Ctrl Pts',(-5.37249870035162,-0.0892268942281757,
0.400000000000001));
#863=CARTESIAN_POINT('Ctrl Pts',(-5.37249870035162,-0.269326580333462,0.337199283450077));
#864=CARTESIAN_POINT('Ctrl Pts',(-5.37249870035162,-0.403524753937811,0.12290664780726));
#865=CARTESIAN_POINT('Ctrl Pts',(-5.37249870035162,-0.403298289277597,-0.0921203301267458));
#866=CARTESIAN_POINT('Ctrl Pts',(-5.37249870035162,-0.323465682047117,-0.258008167307339));
#867=CARTESIAN_POINT('Ctrl Pts',(-5.37249870035162,-0.179244295147423,-0.372995490272361));
#868=CARTESIAN_POINT('Ctrl Pts',(-5.37249870035162,-0.0594845961521169,
-0.400000000000001));
#869=CARTESIAN_POINT('Ctrl Pts',(-5.37249870035162,2.68180836087851E-16,
-0.400000000000001));
#870=CARTESIAN_POINT('Ctrl Pts',(-4.97916599774883,3.46944695195361E-17,
-0.727271841332328));
#871=CARTESIAN_POINT('Ctrl Pts',(-4.97916599774883,0.162194273300487,-0.727271841332328));
#872=CARTESIAN_POINT('Ctrl Pts',(-4.97916599774883,0.488877106555445,-0.613120186723108));
#873=CARTESIAN_POINT('Ctrl Pts',(-4.97916599774883,0.797213700955848,-0.124684301985087));
#874=CARTESIAN_POINT('Ctrl Pts',(-4.97916599774884,0.677324670004142,0.399888384631082));
#875=CARTESIAN_POINT('Ctrl Pts',(-4.97916599774883,0.324284686452043,0.677674886587381));
#876=CARTESIAN_POINT('Ctrl Pts',(-4.97916599774883,0.108129515533658,0.727271841332328));
#877=CARTESIAN_POINT('Ctrl Pts',(-4.97916599774883,0.,0.727271841332328));
#878=CARTESIAN_POINT('Ctrl Pts',(-4.99598994738617,4.83442514804639E-17,
-0.636283568006932));
#879=CARTESIAN_POINT('Ctrl Pts',(-4.99598994738617,0.14186268289752,-0.636283568006932));
#880=CARTESIAN_POINT('Ctrl Pts',(-4.99598994738617,0.427629222892165,-0.536356703728377));
#881=CARTESIAN_POINT('Ctrl Pts',(-4.99598994738617,0.697319626484021,-0.109107378902588));
#882=CARTESIAN_POINT('Ctrl Pts',(-4.99598994738617,0.592457994259264,0.349834242968836));
#883=CARTESIAN_POINT('Ctrl Pts',(-4.99598994738617,0.283658621005342,0.592824611916063));
#884=CARTESIAN_POINT('Ctrl Pts',(-4.99598994738617,0.0945751219316815,0.636283568006932));
#885=CARTESIAN_POINT('Ctrl Pts',(-4.99598994738617,-2.09869328144368E-19,
0.636283568006932));
#886=CARTESIAN_POINT('Ctrl Pts',(-5.09528970414341,6.39932385874705E-17,
-0.466835486913582));
#887=CARTESIAN_POINT('Ctrl Pts',(-5.09528970414341,0.104187417347881,-0.466835486913582));
#888=CARTESIAN_POINT('Ctrl Pts',(-5.0952897041434,0.313970756446911,-0.393668721788066));
#889=CARTESIAN_POINT('Ctrl Pts',(-5.0952897041434,0.512025299072418,-0.0799927725143619));
#890=CARTESIAN_POINT('Ctrl Pts',(-5.09528970414341,0.43501521761131,0.256734538301162));
#891=CARTESIAN_POINT('Ctrl Pts',(-5.0952897041434,0.208262519095477,0.43512606746567));
#892=CARTESIAN_POINT('Ctrl Pts',(-5.0952897041434,0.0694582782319241,0.466835486913583));
#893=CARTESIAN_POINT('Ctrl Pts',(-5.0952897041434,-6.28739772717321E-19,
0.466835486913583));
#894=CARTESIAN_POINT('Ctrl Pts',(-5.27996810452442,4.92470264918268E-17,
-0.4));
#895=CARTESIAN_POINT('Ctrl Pts',(-5.27996810452442,0.0890946132610852,-0.4));
#896=CARTESIAN_POINT('Ctrl Pts',(-5.27996810452442,0.268641885834029,-0.337055994937654));
#897=CARTESIAN_POINT('Ctrl Pts',(-5.27996810452442,0.438027325920152,-0.0686394204571221));
#898=CARTESIAN_POINT('Ctrl Pts',(-5.27996810452442,0.372168232885115,0.21986942779448));
#899=CARTESIAN_POINT('Ctrl Pts',(-5.27996810452442,0.178200497595927,0.372531589812585));
#900=CARTESIAN_POINT('Ctrl Pts',(-5.27996810452442,0.0593964088407294,0.400000000000001));
#901=CARTESIAN_POINT('Ctrl Pts',(-5.27996810452442,-8.5396228478737E-19,
0.400000000000001));
#902=CARTESIAN_POINT('Ctrl Pts',(-5.37249870035162,3.59448858847947E-17,
-0.4));
#903=CARTESIAN_POINT('Ctrl Pts',(-5.37249870035162,0.0892069589843261,-0.4));
#904=CARTESIAN_POINT('Ctrl Pts',(-5.37249870035162,0.268882736149853,-0.337216513484085));
#905=CARTESIAN_POINT('Ctrl Pts',(-5.37249870035162,0.438468069653515,-0.0685764496294359));
#906=CARTESIAN_POINT('Ctrl Pts',(-5.37249870035162,0.372529022305225,0.219938879469615));
#907=CARTESIAN_POINT('Ctrl Pts',(-5.37249870035162,0.17835679481719,0.372721641660646));
#908=CARTESIAN_POINT('Ctrl Pts',(-5.37249870035162,0.0594713059895566,0.400000000000001));
#909=CARTESIAN_POINT('Ctrl Pts',(-5.37249870035162,-8.92120809279273E-19,
0.400000000000001));
#910=CARTESIAN_POINT('Ctrl Pts',(-5.37249870035162,3.59448858847947E-17,
-0.4));
#911=CARTESIAN_POINT('Ctrl Pts',(-5.37249870035162,0.0892069589843261,-0.4));
#912=CARTESIAN_POINT('Ctrl Pts',(-5.37249870035162,0.268882736149853,-0.337216513484085));
#913=CARTESIAN_POINT('Ctrl Pts',(-5.37249870035162,0.438468069653515,-0.0685764496294359));
#914=CARTESIAN_POINT('Ctrl Pts',(-5.37249870035162,0.372529022305225,0.219938879469615));
#915=CARTESIAN_POINT('Ctrl Pts',(-5.37249870035162,0.17835679481719,0.372721641660646));
#916=CARTESIAN_POINT('Ctrl Pts',(-5.37249870035162,0.0594713059895566,0.400000000000001));
#917=CARTESIAN_POINT('Ctrl Pts',(-5.37249870035162,-8.92120809279273E-19,
0.400000000000001));
#918=CARTESIAN_POINT('Ctrl Pts',(-4.97916599774883,0.,0.727271841332328));
#919=CARTESIAN_POINT('Ctrl Pts',(-4.97916599774883,0.108129515533658,0.727271841332328));
#920=CARTESIAN_POINT('Ctrl Pts',(-4.97916599774883,0.324284686452043,0.677674886587381));
#921=CARTESIAN_POINT('Ctrl Pts',(-4.97916599774884,0.677324670004142,0.399888384631082));
#922=CARTESIAN_POINT('Ctrl Pts',(-4.97916599774883,0.797213700955848,-0.124684301985087));
#923=CARTESIAN_POINT('Ctrl Pts',(-4.97916599774883,0.488877106555445,-0.613120186723108));
#924=CARTESIAN_POINT('Ctrl Pts',(-4.97916599774883,0.162194273300487,-0.727271841332328));
#925=CARTESIAN_POINT('Ctrl Pts',(-4.97916599774883,3.46944695195361E-17,
-0.727271841332328));
#926=CARTESIAN_POINT('Ctrl Pts',(-5.,0.,-0.5));
#927=CARTESIAN_POINT('Ctrl Pts',(-5.,-0.5,-0.5));
#928=CARTESIAN_POINT('Ctrl Pts',(-5.,-0.5,0.));
#929=CARTESIAN_POINT('Ctrl Pts',(-5.,-0.5,0.5));
#930=CARTESIAN_POINT('Ctrl Pts',(-5.,0.,0.5));
#931=CARTESIAN_POINT('Ctrl Pts',(-5.,0.5,0.5));
#932=CARTESIAN_POINT('Ctrl Pts',(-5.,0.5,0.));
#933=CARTESIAN_POINT('Ctrl Pts',(-5.,0.5,-0.5));
#934=CARTESIAN_POINT('Ctrl Pts',(-5.,0.,-0.5));
#935=CARTESIAN_POINT('Ctrl Pts',(-5.,0.,-0.696349540849));
#936=CARTESIAN_POINT('Ctrl Pts',(-5.,-0.696349540849,-0.696349540849));
#937=CARTESIAN_POINT('Ctrl Pts',(-5.,-0.696349540849,0.));
#938=CARTESIAN_POINT('Ctrl Pts',(-5.,-0.696349540849,0.696349540849));
#939=CARTESIAN_POINT('Ctrl Pts',(-5.,0.,0.696349540849));
#940=CARTESIAN_POINT('Ctrl Pts',(-5.,0.696349540849,0.696349540849));
#941=CARTESIAN_POINT('Ctrl Pts',(-5.,0.696349540849,0.));
#942=CARTESIAN_POINT('Ctrl Pts',(-5.,0.696349540849,-0.696349540849));
#943=CARTESIAN_POINT('Ctrl Pts',(-5.,0.,-0.696349540849));
#944=CARTESIAN_POINT('Ctrl Pts',(-4.961455508818,0.,-0.892702192477));
#945=CARTESIAN_POINT('Ctrl Pts',(-4.961455508818,-0.892702192477,-0.892702192477));
#946=CARTESIAN_POINT('Ctrl Pts',(-4.961455508818,-0.892702192477,0.));
#947=CARTESIAN_POINT('Ctrl Pts',(-4.961455508818,-0.892702192477,0.892702192477));
#948=CARTESIAN_POINT('Ctrl Pts',(-4.961455508818,0.,0.892702192477));
#949=CARTESIAN_POINT('Ctrl Pts',(-4.961455508818,0.892702192477,0.892702192477));
#950=CARTESIAN_POINT('Ctrl Pts',(-4.961455508818,0.892702192477,0.));
#951=CARTESIAN_POINT('Ctrl Pts',(-4.961455508818,0.892702192477,-0.892702192477));
#952=CARTESIAN_POINT('Ctrl Pts',(-4.961455508818,0.,-0.892702192477));
#953=CARTESIAN_POINT('Ctrl Pts',(-4.884310788678,0.,-1.078946022103));
#954=CARTESIAN_POINT('Ctrl Pts',(-4.884310788678,-1.078946022103,-1.078946022103));
#955=CARTESIAN_POINT('Ctrl Pts',(-4.884310788678,-1.078946022103,0.));
#956=CARTESIAN_POINT('Ctrl Pts',(-4.884310788678,-1.078946022103,1.078946022103));
#957=CARTESIAN_POINT('Ctrl Pts',(-4.884310788678,0.,1.078946022103));
#958=CARTESIAN_POINT('Ctrl Pts',(-4.884310788678,1.078946022103,1.078946022103));
#959=CARTESIAN_POINT('Ctrl Pts',(-4.884310788678,1.078946022103,0.));
#960=CARTESIAN_POINT('Ctrl Pts',(-4.884310788678,1.078946022103,-1.078946022103));
#961=CARTESIAN_POINT('Ctrl Pts',(-4.884310788678,0.,-1.078946022103));
#962=CARTESIAN_POINT('Ctrl Pts',(-4.772723568301,0.,-1.245043384666));
#963=CARTESIAN_POINT('Ctrl Pts',(-4.772723568301,-1.245043384666,-1.245043384666));
#964=CARTESIAN_POINT('Ctrl Pts',(-4.772723568301,-1.245043384666,0.));
#965=CARTESIAN_POINT('Ctrl Pts',(-4.772723568301,-1.245043384666,1.245043384666));
#966=CARTESIAN_POINT('Ctrl Pts',(-4.772723568301,0.,1.245043384666));
#967=CARTESIAN_POINT('Ctrl Pts',(-4.772723568301,1.245043384666,1.245043384666));
#968=CARTESIAN_POINT('Ctrl Pts',(-4.772723568301,1.245043384666,0.));
#969=CARTESIAN_POINT('Ctrl Pts',(-4.772723568301,1.245043384666,-1.245043384666));
#970=CARTESIAN_POINT('Ctrl Pts',(-4.772723568301,0.,-1.245043384666));
#971=CARTESIAN_POINT('Ctrl Pts',(-4.495043384666,0.,-1.522723568301));
#972=CARTESIAN_POINT('Ctrl Pts',(-4.495043384666,-1.522723568301,-1.522723568301));
#973=CARTESIAN_POINT('Ctrl Pts',(-4.495043384666,-1.522723568301,0.));
#974=CARTESIAN_POINT('Ctrl Pts',(-4.495043384666,-1.522723568301,1.522723568301));
#975=CARTESIAN_POINT('Ctrl Pts',(-4.495043384666,0.,1.522723568301));
#976=CARTESIAN_POINT('Ctrl Pts',(-4.495043384666,1.522723568301,1.522723568301));
#977=CARTESIAN_POINT('Ctrl Pts',(-4.495043384666,1.522723568301,0.));
#978=CARTESIAN_POINT('Ctrl Pts',(-4.495043384666,1.522723568301,-1.522723568301));
#979=CARTESIAN_POINT('Ctrl Pts',(-4.495043384666,0.,-1.522723568301));
#980=CARTESIAN_POINT('Ctrl Pts',(-4.328946022103,0.,-1.634310788678));
#981=CARTESIAN_POINT('Ctrl Pts',(-4.328946022103,-1.634310788678,-1.634310788678));
#982=CARTESIAN_POINT('Ctrl Pts',(-4.328946022103,-1.634310788678,0.));
#983=CARTESIAN_POINT('Ctrl Pts',(-4.328946022103,-1.634310788678,1.634310788678));
#984=CARTESIAN_POINT('Ctrl Pts',(-4.328946022103,0.,1.634310788678));
#985=CARTESIAN_POINT('Ctrl Pts',(-4.328946022103,1.634310788678,1.634310788678));
#986=CARTESIAN_POINT('Ctrl Pts',(-4.328946022103,1.634310788678,0.));
#987=CARTESIAN_POINT('Ctrl Pts',(-4.328946022103,1.634310788678,-1.634310788678));
#988=CARTESIAN_POINT('Ctrl Pts',(-4.328946022103,0.,-1.634310788678));
#989=CARTESIAN_POINT('Ctrl Pts',(-4.142702192477,0.,-1.711455508818));
#990=CARTESIAN_POINT('Ctrl Pts',(-4.142702192477,-1.711455508818,-1.711455508818));
#991=CARTESIAN_POINT('Ctrl Pts',(-4.142702192477,-1.711455508818,0.));
#992=CARTESIAN_POINT('Ctrl Pts',(-4.142702192477,-1.711455508818,1.711455508818));
#993=CARTESIAN_POINT('Ctrl Pts',(-4.142702192477,0.,1.711455508818));
#994=CARTESIAN_POINT('Ctrl Pts',(-4.142702192477,1.711455508818,1.711455508818));
#995=CARTESIAN_POINT('Ctrl Pts',(-4.142702192477,1.711455508818,0.));
#996=CARTESIAN_POINT('Ctrl Pts',(-4.142702192477,1.711455508818,-1.711455508818));
#997=CARTESIAN_POINT('Ctrl Pts',(-4.142702192477,0.,-1.711455508818));
#998=CARTESIAN_POINT('Ctrl Pts',(-3.946349540849,0.,-1.75));
#999=CARTESIAN_POINT('Ctrl Pts',(-3.946349540849,-1.75,-1.75));
#1000=CARTESIAN_POINT('Ctrl Pts',(-3.946349540849,-1.75,0.));
#1001=CARTESIAN_POINT('Ctrl Pts',(-3.946349540849,-1.75,1.75));
#1002=CARTESIAN_POINT('Ctrl Pts',(-3.946349540849,0.,1.75));
#1003=CARTESIAN_POINT('Ctrl Pts',(-3.946349540849,1.75,1.75));
#1004=CARTESIAN_POINT('Ctrl Pts',(-3.946349540849,1.75,0.));
#1005=CARTESIAN_POINT('Ctrl Pts',(-3.946349540849,1.75,-1.75));
#1006=CARTESIAN_POINT('Ctrl Pts',(-3.946349540849,0.,-1.75));
#1007=CARTESIAN_POINT('Ctrl Pts',(-3.75,0.,-1.75));
#1008=CARTESIAN_POINT('Ctrl Pts',(-3.75,-1.75,-1.75));
#1009=CARTESIAN_POINT('Ctrl Pts',(-3.75,-1.75,0.));
#1010=CARTESIAN_POINT('Ctrl Pts',(-3.75,-1.75,1.75));
#1011=CARTESIAN_POINT('Ctrl Pts',(-3.75,0.,1.75));
#1012=CARTESIAN_POINT('Ctrl Pts',(-3.75,1.75,1.75));
#1013=CARTESIAN_POINT('Ctrl Pts',(-3.75,1.75,0.));
#1014=CARTESIAN_POINT('Ctrl Pts',(-3.75,1.75,-1.75));
#1015=CARTESIAN_POINT('Ctrl Pts',(-3.75,0.,-1.75));
#1016=CARTESIAN_POINT('',(-3.75,2.143131898508E-16,-1.75));
#1017=CARTESIAN_POINT('Origin',(-3.75,0.,-0.5));
#1018=CARTESIAN_POINT('',(-3.75,0.,1.75));
#1019=CARTESIAN_POINT('Origin',(-3.75,0.,0.));
#1020=CARTESIAN_POINT('Origin',(-3.75,6.123233995737E-17,0.5));
#1021=CARTESIAN_POINT('Origin',(0.,0.,0.));
#1022=CARTESIAN_POINT('',(-5.4,-4.89858719658941E-17,-0.4));
#1023=CARTESIAN_POINT('',(-5.4,-0.4,-4.89858719658941E-17));
#1024=CARTESIAN_POINT('Origin',(-5.4,0.,0.));
#1025=CARTESIAN_POINT('Origin',(-5.4,0.,0.));
#1026=CARTESIAN_POINT('',(0.,-4.89858719658941E-17,-0.4));
#1027=CARTESIAN_POINT('Origin',(-5.4,-1.,0.));
#1028=CARTESIAN_POINT('',(-6.8,-0.999999999999999,-4.89858719658941E-17));
#1029=CARTESIAN_POINT('',(-6.,-1.,-4.89858719658941E-17));
#1030=CARTESIAN_POINT('Origin',(-6.4,-1.,0.));
#1031=CARTESIAN_POINT('Origin',(-5.4,-1.,-4.89858719658941E-17));
#1032=CARTESIAN_POINT('Origin',(-6.4,-1.,0.));
#1033=CARTESIAN_POINT('Origin',(5.4,-1.,0.));
#1034=CARTESIAN_POINT('',(6.,-1.,4.898587196589E-17));
#1035=CARTESIAN_POINT('Origin',(6.4,-1.,0.));
#1036=CARTESIAN_POINT('Origin',(5.4,-1.,4.89858719658941E-17));
#1037=CARTESIAN_POINT('Ctrl Pts',(5.,0.,0.5));
#1038=CARTESIAN_POINT('Ctrl Pts',(5.,-0.5,0.5));
#1039=CARTESIAN_POINT('Ctrl Pts',(5.,-0.5,0.));
#1040=CARTESIAN_POINT('Ctrl Pts',(5.,-0.5,-0.5));
#1041=CARTESIAN_POINT('Ctrl Pts',(5.,0.,-0.5));
#1042=CARTESIAN_POINT('Ctrl Pts',(5.,0.5,-0.5));
#1043=CARTESIAN_POINT('Ctrl Pts',(5.,0.5,0.));
#1044=CARTESIAN_POINT('Ctrl Pts',(5.,0.5,0.5));
#1045=CARTESIAN_POINT('Ctrl Pts',(5.,0.,0.5));
#1046=CARTESIAN_POINT('Ctrl Pts',(5.,0.,0.696349540849));
#1047=CARTESIAN_POINT('Ctrl Pts',(5.,-0.696349540849,0.696349540849));
#1048=CARTESIAN_POINT('Ctrl Pts',(5.,-0.696349540849,0.));
#1049=CARTESIAN_POINT('Ctrl Pts',(5.,-0.696349540849,-0.696349540849));
#1050=CARTESIAN_POINT('Ctrl Pts',(5.,0.,-0.696349540849));
#1051=CARTESIAN_POINT('Ctrl Pts',(5.,0.696349540849,-0.696349540849));
#1052=CARTESIAN_POINT('Ctrl Pts',(5.,0.696349540849,0.));
#1053=CARTESIAN_POINT('Ctrl Pts',(5.,0.696349540849,0.696349540849));
#1054=CARTESIAN_POINT('Ctrl Pts',(5.,0.,0.696349540849));
#1055=CARTESIAN_POINT('Ctrl Pts',(4.961455508818,0.,0.892702192477));
#1056=CARTESIAN_POINT('Ctrl Pts',(4.961455508818,-0.892702192477,0.892702192477));
#1057=CARTESIAN_POINT('Ctrl Pts',(4.961455508818,-0.892702192477,0.));
#1058=CARTESIAN_POINT('Ctrl Pts',(4.961455508818,-0.892702192477,-0.892702192477));
#1059=CARTESIAN_POINT('Ctrl Pts',(4.961455508818,0.,-0.892702192477));
#1060=CARTESIAN_POINT('Ctrl Pts',(4.961455508818,0.892702192477,-0.892702192477));
#1061=CARTESIAN_POINT('Ctrl Pts',(4.961455508818,0.892702192477,0.));
#1062=CARTESIAN_POINT('Ctrl Pts',(4.961455508818,0.892702192477,0.892702192477));
#1063=CARTESIAN_POINT('Ctrl Pts',(4.961455508818,0.,0.892702192477));
#1064=CARTESIAN_POINT('Ctrl Pts',(4.884310788678,0.,1.078946022103));
#1065=CARTESIAN_POINT('Ctrl Pts',(4.884310788678,-1.078946022103,1.078946022103));
#1066=CARTESIAN_POINT('Ctrl Pts',(4.884310788678,-1.078946022103,0.));
#1067=CARTESIAN_POINT('Ctrl Pts',(4.884310788678,-1.078946022103,-1.078946022103));
#1068=CARTESIAN_POINT('Ctrl Pts',(4.884310788678,0.,-1.078946022103));
#1069=CARTESIAN_POINT('Ctrl Pts',(4.884310788678,1.078946022103,-1.078946022103));
#1070=CARTESIAN_POINT('Ctrl Pts',(4.884310788678,1.078946022103,0.));
#1071=CARTESIAN_POINT('Ctrl Pts',(4.884310788678,1.078946022103,1.078946022103));
#1072=CARTESIAN_POINT('Ctrl Pts',(4.884310788678,0.,1.078946022103));
#1073=CARTESIAN_POINT('Ctrl Pts',(4.772723568301,0.,1.245043384666));
#1074=CARTESIAN_POINT('Ctrl Pts',(4.772723568301,-1.245043384666,1.245043384666));
#1075=CARTESIAN_POINT('Ctrl Pts',(4.772723568301,-1.245043384666,0.));
#1076=CARTESIAN_POINT('Ctrl Pts',(4.772723568301,-1.245043384666,-1.245043384666));
#1077=CARTESIAN_POINT('Ctrl Pts',(4.772723568301,0.,-1.245043384666));
#1078=CARTESIAN_POINT('Ctrl Pts',(4.772723568301,1.245043384666,-1.245043384666));
#1079=CARTESIAN_POINT('Ctrl Pts',(4.772723568301,1.245043384666,0.));
#1080=CARTESIAN_POINT('Ctrl Pts',(4.772723568301,1.245043384666,1.245043384666));
#1081=CARTESIAN_POINT('Ctrl Pts',(4.772723568301,0.,1.245043384666));
#1082=CARTESIAN_POINT('Ctrl Pts',(4.495043384666,0.,1.522723568301));
#1083=CARTESIAN_POINT('Ctrl Pts',(4.495043384666,-1.522723568301,1.522723568301));
#1084=CARTESIAN_POINT('Ctrl Pts',(4.495043384666,-1.522723568301,0.));
#1085=CARTESIAN_POINT('Ctrl Pts',(4.495043384666,-1.522723568301,-1.522723568301));
#1086=CARTESIAN_POINT('Ctrl Pts',(4.495043384666,0.,-1.522723568301));
#1087=CARTESIAN_POINT('Ctrl Pts',(4.495043384666,1.522723568301,-1.522723568301));
#1088=CARTESIAN_POINT('Ctrl Pts',(4.495043384666,1.522723568301,0.));
#1089=CARTESIAN_POINT('Ctrl Pts',(4.495043384666,1.522723568301,1.522723568301));
#1090=CARTESIAN_POINT('Ctrl Pts',(4.495043384666,0.,1.522723568301));
#1091=CARTESIAN_POINT('Ctrl Pts',(4.328946022103,0.,1.634310788678));
#1092=CARTESIAN_POINT('Ctrl Pts',(4.328946022103,-1.634310788678,1.634310788678));
#1093=CARTESIAN_POINT('Ctrl Pts',(4.328946022103,-1.634310788678,0.));
#1094=CARTESIAN_POINT('Ctrl Pts',(4.328946022103,-1.634310788678,-1.634310788678));
#1095=CARTESIAN_POINT('Ctrl Pts',(4.328946022103,0.,-1.634310788678));
#1096=CARTESIAN_POINT('Ctrl Pts',(4.328946022103,1.634310788678,-1.634310788678));
#1097=CARTESIAN_POINT('Ctrl Pts',(4.328946022103,1.634310788678,0.));
#1098=CARTESIAN_POINT('Ctrl Pts',(4.328946022103,1.634310788678,1.634310788678));
#1099=CARTESIAN_POINT('Ctrl Pts',(4.328946022103,0.,1.634310788678));
#1100=CARTESIAN_POINT('Ctrl Pts',(4.142702192477,0.,1.711455508818));
#1101=CARTESIAN_POINT('Ctrl Pts',(4.142702192477,-1.711455508818,1.711455508818));
#1102=CARTESIAN_POINT('Ctrl Pts',(4.142702192477,-1.711455508818,0.));
#1103=CARTESIAN_POINT('Ctrl Pts',(4.142702192477,-1.711455508818,-1.711455508818));
#1104=CARTESIAN_POINT('Ctrl Pts',(4.142702192477,0.,-1.711455508818));
#1105=CARTESIAN_POINT('Ctrl Pts',(4.142702192477,1.711455508818,-1.711455508818));
#1106=CARTESIAN_POINT('Ctrl Pts',(4.142702192477,1.711455508818,0.));
#1107=CARTESIAN_POINT('Ctrl Pts',(4.142702192477,1.711455508818,1.711455508818));
#1108=CARTESIAN_POINT('Ctrl Pts',(4.142702192477,0.,1.711455508818));
#1109=CARTESIAN_POINT('Ctrl Pts',(3.946349540849,0.,1.75));
#1110=CARTESIAN_POINT('Ctrl Pts',(3.946349540849,-1.75,1.75));
#1111=CARTESIAN_POINT('Ctrl Pts',(3.946349540849,-1.75,0.));
#1112=CARTESIAN_POINT('Ctrl Pts',(3.946349540849,-1.75,-1.75));
#1113=CARTESIAN_POINT('Ctrl Pts',(3.946349540849,0.,-1.75));
#1114=CARTESIAN_POINT('Ctrl Pts',(3.946349540849,1.75,-1.75));
#1115=CARTESIAN_POINT('Ctrl Pts',(3.946349540849,1.75,0.));
#1116=CARTESIAN_POINT('Ctrl Pts',(3.946349540849,1.75,1.75));
#1117=CARTESIAN_POINT('Ctrl Pts',(3.946349540849,0.,1.75));
#1118=CARTESIAN_POINT('Ctrl Pts',(3.75,0.,1.75));
#1119=CARTESIAN_POINT('Ctrl Pts',(3.75,-1.75,1.75));
#1120=CARTESIAN_POINT('Ctrl Pts',(3.75,-1.75,0.));
#1121=CARTESIAN_POINT('Ctrl Pts',(3.75,-1.75,-1.75));
#1122=CARTESIAN_POINT('Ctrl Pts',(3.75,0.,-1.75));
#1123=CARTESIAN_POINT('Ctrl Pts',(3.75,1.75,-1.75));
#1124=CARTESIAN_POINT('Ctrl Pts',(3.75,1.75,0.));
#1125=CARTESIAN_POINT('Ctrl Pts',(3.75,1.75,1.75));
#1126=CARTESIAN_POINT('Ctrl Pts',(3.75,0.,1.75));
#1127=CARTESIAN_POINT('Origin',(3.75,0.,0.));
#1128=CARTESIAN_POINT('Ctrl Pts',(-5.,0.,-0.5));
#1129=CARTESIAN_POINT('Ctrl Pts',(-5.,-0.5,-0.5));
#1130=CARTESIAN_POINT('Ctrl Pts',(-5.,-0.5,0.));
#1131=CARTESIAN_POINT('Ctrl Pts',(-5.,-0.5,0.5));
#1132=CARTESIAN_POINT('Ctrl Pts',(-5.,0.,0.5));
#1133=CARTESIAN_POINT('Ctrl Pts',(-5.,0.5,0.5));
#1134=CARTESIAN_POINT('Ctrl Pts',(-5.,0.5,0.));
#1135=CARTESIAN_POINT('Ctrl Pts',(-5.,0.5,-0.5));
#1136=CARTESIAN_POINT('Ctrl Pts',(-5.,0.,-0.5));
#1137=CARTESIAN_POINT('Ctrl Pts',(-5.,0.,-0.696349540849));
#1138=CARTESIAN_POINT('Ctrl Pts',(-5.,-0.696349540849,-0.696349540849));
#1139=CARTESIAN_POINT('Ctrl Pts',(-5.,-0.696349540849,0.));
#1140=CARTESIAN_POINT('Ctrl Pts',(-5.,-0.696349540849,0.696349540849));
#1141=CARTESIAN_POINT('Ctrl Pts',(-5.,0.,0.696349540849));
#1142=CARTESIAN_POINT('Ctrl Pts',(-5.,0.696349540849,0.696349540849));
#1143=CARTESIAN_POINT('Ctrl Pts',(-5.,0.696349540849,0.));
#1144=CARTESIAN_POINT('Ctrl Pts',(-5.,0.696349540849,-0.696349540849));
#1145=CARTESIAN_POINT('Ctrl Pts',(-5.,0.,-0.696349540849));
#1146=CARTESIAN_POINT('Ctrl Pts',(-4.961455508818,0.,-0.892702192477));
#1147=CARTESIAN_POINT('Ctrl Pts',(-4.961455508818,-0.892702192477,-0.892702192477));
#1148=CARTESIAN_POINT('Ctrl Pts',(-4.961455508818,-0.892702192477,0.));
#1149=CARTESIAN_POINT('Ctrl Pts',(-4.961455508818,-0.892702192477,0.892702192477));
#1150=CARTESIAN_POINT('Ctrl Pts',(-4.961455508818,0.,0.892702192477));
#1151=CARTESIAN_POINT('Ctrl Pts',(-4.961455508818,0.892702192477,0.892702192477));
#1152=CARTESIAN_POINT('Ctrl Pts',(-4.961455508818,0.892702192477,0.));
#1153=CARTESIAN_POINT('Ctrl Pts',(-4.961455508818,0.892702192477,-0.892702192477));
#1154=CARTESIAN_POINT('Ctrl Pts',(-4.961455508818,0.,-0.892702192477));
#1155=CARTESIAN_POINT('Ctrl Pts',(-4.884310788678,0.,-1.078946022103));
#1156=CARTESIAN_POINT('Ctrl Pts',(-4.884310788678,-1.078946022103,-1.078946022103));
#1157=CARTESIAN_POINT('Ctrl Pts',(-4.884310788678,-1.078946022103,0.));
#1158=CARTESIAN_POINT('Ctrl Pts',(-4.884310788678,-1.078946022103,1.078946022103));
#1159=CARTESIAN_POINT('Ctrl Pts',(-4.884310788678,0.,1.078946022103));
#1160=CARTESIAN_POINT('Ctrl Pts',(-4.884310788678,1.078946022103,1.078946022103));
#1161=CARTESIAN_POINT('Ctrl Pts',(-4.884310788678,1.078946022103,0.));
#1162=CARTESIAN_POINT('Ctrl Pts',(-4.884310788678,1.078946022103,-1.078946022103));
#1163=CARTESIAN_POINT('Ctrl Pts',(-4.884310788678,0.,-1.078946022103));
#1164=CARTESIAN_POINT('Ctrl Pts',(-4.772723568301,0.,-1.245043384666));
#1165=CARTESIAN_POINT('Ctrl Pts',(-4.772723568301,-1.245043384666,-1.245043384666));
#1166=CARTESIAN_POINT('Ctrl Pts',(-4.772723568301,-1.245043384666,0.));
#1167=CARTESIAN_POINT('Ctrl Pts',(-4.772723568301,-1.245043384666,1.245043384666));
#1168=CARTESIAN_POINT('Ctrl Pts',(-4.772723568301,0.,1.245043384666));
#1169=CARTESIAN_POINT('Ctrl Pts',(-4.772723568301,1.245043384666,1.245043384666));
#1170=CARTESIAN_POINT('Ctrl Pts',(-4.772723568301,1.245043384666,0.));
#1171=CARTESIAN_POINT('Ctrl Pts',(-4.772723568301,1.245043384666,-1.245043384666));
#1172=CARTESIAN_POINT('Ctrl Pts',(-4.772723568301,0.,-1.245043384666));
#1173=CARTESIAN_POINT('Ctrl Pts',(-4.495043384666,0.,-1.522723568301));
#1174=CARTESIAN_POINT('Ctrl Pts',(-4.495043384666,-1.522723568301,-1.522723568301));
#1175=CARTESIAN_POINT('Ctrl Pts',(-4.495043384666,-1.522723568301,0.));
#1176=CARTESIAN_POINT('Ctrl Pts',(-4.495043384666,-1.522723568301,1.522723568301));
#1177=CARTESIAN_POINT('Ctrl Pts',(-4.495043384666,0.,1.522723568301));
#1178=CARTESIAN_POINT('Ctrl Pts',(-4.495043384666,1.522723568301,1.522723568301));
#1179=CARTESIAN_POINT('Ctrl Pts',(-4.495043384666,1.522723568301,0.));
#1180=CARTESIAN_POINT('Ctrl Pts',(-4.495043384666,1.522723568301,-1.522723568301));
#1181=CARTESIAN_POINT('Ctrl Pts',(-4.495043384666,0.,-1.522723568301));
#1182=CARTESIAN_POINT('Ctrl Pts',(-4.328946022103,0.,-1.634310788678));
#1183=CARTESIAN_POINT('Ctrl Pts',(-4.328946022103,-1.634310788678,-1.634310788678));
#1184=CARTESIAN_POINT('Ctrl Pts',(-4.328946022103,-1.634310788678,0.));
#1185=CARTESIAN_POINT('Ctrl Pts',(-4.328946022103,-1.634310788678,1.634310788678));
#1186=CARTESIAN_POINT('Ctrl Pts',(-4.328946022103,0.,1.634310788678));
#1187=CARTESIAN_POINT('Ctrl Pts',(-4.328946022103,1.634310788678,1.634310788678));
#1188=CARTESIAN_POINT('Ctrl Pts',(-4.328946022103,1.634310788678,0.));
#1189=CARTESIAN_POINT('Ctrl Pts',(-4.328946022103,1.634310788678,-1.634310788678));
#1190=CARTESIAN_POINT('Ctrl Pts',(-4.328946022103,0.,-1.634310788678));
#1191=CARTESIAN_POINT('Ctrl Pts',(-4.142702192477,0.,-1.711455508818));
#1192=CARTESIAN_POINT('Ctrl Pts',(-4.142702192477,-1.711455508818,-1.711455508818));
#1193=CARTESIAN_POINT('Ctrl Pts',(-4.142702192477,-1.711455508818,0.));
#1194=CARTESIAN_POINT('Ctrl Pts',(-4.142702192477,-1.711455508818,1.711455508818));
#1195=CARTESIAN_POINT('Ctrl Pts',(-4.142702192477,0.,1.711455508818));
#1196=CARTESIAN_POINT('Ctrl Pts',(-4.142702192477,1.711455508818,1.711455508818));
#1197=CARTESIAN_POINT('Ctrl Pts',(-4.142702192477,1.711455508818,0.));
#1198=CARTESIAN_POINT('Ctrl Pts',(-4.142702192477,1.711455508818,-1.711455508818));
#1199=CARTESIAN_POINT('Ctrl Pts',(-4.142702192477,0.,-1.711455508818));
#1200=CARTESIAN_POINT('Ctrl Pts',(-3.946349540849,0.,-1.75));
#1201=CARTESIAN_POINT('Ctrl Pts',(-3.946349540849,-1.75,-1.75));
#1202=CARTESIAN_POINT('Ctrl Pts',(-3.946349540849,-1.75,0.));
#1203=CARTESIAN_POINT('Ctrl Pts',(-3.946349540849,-1.75,1.75));
#1204=CARTESIAN_POINT('Ctrl Pts',(-3.946349540849,0.,1.75));
#1205=CARTESIAN_POINT('Ctrl Pts',(-3.946349540849,1.75,1.75));
#1206=CARTESIAN_POINT('Ctrl Pts',(-3.946349540849,1.75,0.));
#1207=CARTESIAN_POINT('Ctrl Pts',(-3.946349540849,1.75,-1.75));
#1208=CARTESIAN_POINT('Ctrl Pts',(-3.946349540849,0.,-1.75));
#1209=CARTESIAN_POINT('Ctrl Pts',(-3.75,0.,-1.75));
#1210=CARTESIAN_POINT('Ctrl Pts',(-3.75,-1.75,-1.75));
#1211=CARTESIAN_POINT('Ctrl Pts',(-3.75,-1.75,0.));
#1212=CARTESIAN_POINT('Ctrl Pts',(-3.75,-1.75,1.75));
#1213=CARTESIAN_POINT('Ctrl Pts',(-3.75,0.,1.75));
#1214=CARTESIAN_POINT('Ctrl Pts',(-3.75,1.75,1.75));
#1215=CARTESIAN_POINT('Ctrl Pts',(-3.75,1.75,0.));
#1216=CARTESIAN_POINT('Ctrl Pts',(-3.75,1.75,-1.75));
#1217=CARTESIAN_POINT('Ctrl Pts',(-3.75,0.,-1.75));
#1218=CARTESIAN_POINT('Origin',(-3.75,0.,0.));
#1219=CARTESIAN_POINT('Origin',(-6.4,-1.,0.));
#1220=CARTESIAN_POINT('',(-6.8,-4.35,-4.89858719658941E-17));
#1221=CARTESIAN_POINT('Origin',(-6.4,-4.35,0.));
#1222=CARTESIAN_POINT('',(-6.8,-1.,-4.89858719658941E-17));
#1223=CARTESIAN_POINT('Origin',(6.4,-1.,0.));
#1224=CARTESIAN_POINT('',(6.,-4.35,-4.89858719658941E-17));
#1225=CARTESIAN_POINT('Origin',(6.4,-4.35,0.));
#1226=CARTESIAN_POINT('',(6.,-1.,-4.89858719658941E-17));
#1227=CARTESIAN_POINT('Origin',(-5.,0.,0.));
#1228=CARTESIAN_POINT('',(-5.,-2.14313189850787E-16,-1.75));
#1229=CARTESIAN_POINT('Origin',(6.4,-4.35,0.));
#1230=CARTESIAN_POINT('Origin',(-6.4,-4.35,0.));
#1231=CARTESIAN_POINT('',(6.40000191371443,-3.68660649097932E-7,1.74999913973127));
#1232=UNCERTAINTY_MEASURE_WITH_UNIT(LENGTH_MEASURE(0.01),#1238,
'DISTANCE_ACCURACY_VALUE',
'Maximum model space distance between geometric entities at asserted c
onnectivities');
#1233=UNCERTAINTY_MEASURE_WITH_UNIT(LENGTH_MEASURE(0.01),#1238,
'DISTANCE_ACCURACY_VALUE',
'Maximum model space distance between geometric entities at asserted c
onnectivities');
#1234=UNCERTAINTY_MEASURE_WITH_UNIT(LENGTH_MEASURE(0.01),#1238,
'DISTANCE_ACCURACY_VALUE',
'Maximum model space distance between geometric entities at asserted c
onnectivities');
#1235=(
GEOMETRIC_REPRESENTATION_CONTEXT(3)
GLOBAL_UNCERTAINTY_ASSIGNED_CONTEXT((#1232))
GLOBAL_UNIT_ASSIGNED_CONTEXT((#1238,#1240,#1241))
REPRESENTATION_CONTEXT('','3D')
);
#1236=(
GEOMETRIC_REPRESENTATION_CONTEXT(3)
GLOBAL_UNCERTAINTY_ASSIGNED_CONTEXT((#1233))
GLOBAL_UNIT_ASSIGNED_CONTEXT((#1238,#1240,#1241))
REPRESENTATION_CONTEXT('','3D')
);
#1237=(
GEOMETRIC_REPRESENTATION_CONTEXT(3)
GLOBAL_UNCERTAINTY_ASSIGNED_CONTEXT((#1234))
GLOBAL_UNIT_ASSIGNED_CONTEXT((#1238,#1240,#1241))
REPRESENTATION_CONTEXT('','3D')
);
#1238=(
LENGTH_UNIT()
NAMED_UNIT(*)
SI_UNIT(.MILLI.,.METRE.)
);
#1239=(
LENGTH_UNIT()
NAMED_UNIT(*)
SI_UNIT($,.METRE.)
);
#1240=(
NAMED_UNIT(*)
PLANE_ANGLE_UNIT()
SI_UNIT($,.RADIAN.)
);
#1241=(
NAMED_UNIT(*)
SI_UNIT($,.STERADIAN.)
SOLID_ANGLE_UNIT()
);
#1242=SHAPE_DEFINITION_REPRESENTATION(#1244,#1247);
#1243=SHAPE_DEFINITION_REPRESENTATION(#1245,#1248);
#1244=PRODUCT_DEFINITION_SHAPE('',$,#1250);
#1245=PRODUCT_DEFINITION_SHAPE('',$,#1251);
#1246=PRODUCT_DEFINITION_SHAPE($,$,#14);
#1247=SHAPE_REPRESENTATION('',(#287,#321),#1235);
#1248=SHAPE_REPRESENTATION('',(#288),#1236);
#1249=PRODUCT_DEFINITION_CONTEXT('part definition',#1257,'design');
#1250=PRODUCT_DEFINITION('R1','(Unsaved)',#1252,#1249);
#1251=PRODUCT_DEFINITION('UB3C','UB3C',#1253,#1249);
#1252=PRODUCT_DEFINITION_FORMATION('',$,#1259);
#1253=PRODUCT_DEFINITION_FORMATION('',$,#1260);
#1254=PRODUCT_RELATED_PRODUCT_CATEGORY('(Unsaved)','(Unsaved)',(#1259));
#1255=PRODUCT_RELATED_PRODUCT_CATEGORY('UB3C','UB3C',(#1260));
#1256=APPLICATION_PROTOCOL_DEFINITION('international standard',
'automotive_design',2009,#1257);
#1257=APPLICATION_CONTEXT(
'Core Data for Automotive Mechanical Design Process');
#1258=PRODUCT_CONTEXT('part definition',#1257,'mechanical');
#1259=PRODUCT('R1','(Unsaved)',$,(#1258));
#1260=PRODUCT('UB3C','UB3C',$,(#1258));
#1261=PRESENTATION_STYLE_ASSIGNMENT((#1265));
#1262=PRESENTATION_STYLE_ASSIGNMENT((#1266));
#1263=PRESENTATION_STYLE_ASSIGNMENT((#1267));
#1264=PRESENTATION_STYLE_ASSIGNMENT((#1268));
#1265=SURFACE_STYLE_USAGE(.BOTH.,#1269);
#1266=SURFACE_STYLE_USAGE(.BOTH.,#1270);
#1267=SURFACE_STYLE_USAGE(.BOTH.,#1271);
#1268=SURFACE_STYLE_USAGE(.BOTH.,#1272);
#1269=SURFACE_SIDE_STYLE('',(#1273));
#1270=SURFACE_SIDE_STYLE('',(#1274));
#1271=SURFACE_SIDE_STYLE('',(#1275));
#1272=SURFACE_SIDE_STYLE('',(#1276));
#1273=SURFACE_STYLE_FILL_AREA(#1277);
#1274=SURFACE_STYLE_FILL_AREA(#1278);
#1275=SURFACE_STYLE_FILL_AREA(#1279);
#1276=SURFACE_STYLE_FILL_AREA(#1280);
#1277=FILL_AREA_STYLE('Steel - Satin',(#1281));
#1278=FILL_AREA_STYLE('Opaque(153,153,153)',(#1282));
#1279=FILL_AREA_STYLE('Base Material - Opaque',(#1283));
#1280=FILL_AREA_STYLE('Base Material - Opaque',(#1284));
#1281=FILL_AREA_STYLE_COLOUR('Steel - Satin',#1285);
#1282=FILL_AREA_STYLE_COLOUR('Opaque(153,153,153)',#1286);
#1283=FILL_AREA_STYLE_COLOUR('Base Material - Opaque',#1287);
#1284=FILL_AREA_STYLE_COLOUR('Base Material - Opaque',#1288);
#1285=COLOUR_RGB('Steel - Satin',0.627450980392157,0.627450980392157,0.627450980392157);
#1286=COLOUR_RGB('Opaque(153,153,153)',0.6,0.6,0.6);
#1287=COLOUR_RGB('Base Material - Opaque',0.250980392156863,0.254901960784314,
0.270588235294118);
#1288=COLOUR_RGB('Base Material - Opaque',0.588235294117647,0.588235294117647,
0.588235294117647);
ENDSEC;
END-ISO-10303-21;
