ISO-10303-21;
HEADER;
/* Generated by software containing ST-Developer
 * from STEP Tools, Inc. (www.steptools.com) 
 */

FILE_DESCRIPTION(
/* description */ (''),
/* implementation_level */ '2;1');

FILE_NAME(
/* name */ 'SolarCellv1.step',
/* time_stamp */ '2025-10-17T16:04:23-06:00',
/* author */ (''),
/* organization */ (''),
/* preprocessor_version */ 'ST-DEVELOPER v20.1',
/* originating_system */ 'Autodesk Translation Framework v14.17.0.0',
/* authorisation */ '');

FILE_SCHEMA (('AUTOMOTIVE_DESIGN { 1 0 10303 214 3 1 1 }'));
ENDSEC;

DATA;
#10=MECHANICAL_DESIGN_GEOMETRIC_PRESENTATION_REPRESENTATION('',(#13),#744);
#11=SHAPE_REPRESENTATION_RELATIONSHIP('SRR','None',#751,#12);
#12=ADVANCED_BREP_SHAPE_REPRESENTATION('',(#14),#743);
#13=STYLED_ITEM('',(#760),#14);
#14=MANIFOLD_SOLID_BREP('Body1',#464);
#15=FACE_OUTER_BOUND('',#38,.T.);
#16=FACE_OUTER_BOUND('',#39,.T.);
#17=FACE_OUTER_BOUND('',#40,.T.);
#18=FACE_OUTER_BOUND('',#41,.T.);
#19=FACE_OUTER_BOUND('',#42,.T.);
#20=FACE_OUTER_BOUND('',#43,.T.);
#21=FACE_OUTER_BOUND('',#44,.T.);
#22=FACE_OUTER_BOUND('',#45,.T.);
#23=FACE_OUTER_BOUND('',#46,.T.);
#24=FACE_OUTER_BOUND('',#47,.T.);
#25=FACE_OUTER_BOUND('',#48,.T.);
#26=FACE_OUTER_BOUND('',#49,.T.);
#27=FACE_OUTER_BOUND('',#50,.T.);
#28=FACE_OUTER_BOUND('',#51,.T.);
#29=FACE_OUTER_BOUND('',#52,.T.);
#30=FACE_OUTER_BOUND('',#53,.T.);
#31=FACE_OUTER_BOUND('',#54,.T.);
#32=FACE_OUTER_BOUND('',#55,.T.);
#33=FACE_OUTER_BOUND('',#56,.T.);
#34=FACE_OUTER_BOUND('',#57,.T.);
#35=FACE_OUTER_BOUND('',#58,.T.);
#36=FACE_OUTER_BOUND('',#59,.T.);
#37=FACE_OUTER_BOUND('',#60,.T.);
#38=EDGE_LOOP('',(#292,#293,#294,#295,#296,#297,#298,#299,#300,#301,#302,
#303,#304,#305,#306,#307,#308,#309,#310,#311,#312));
#39=EDGE_LOOP('',(#313,#314,#315,#316));
#40=EDGE_LOOP('',(#317,#318,#319,#320));
#41=EDGE_LOOP('',(#321,#322,#323,#324));
#42=EDGE_LOOP('',(#325,#326,#327,#328));
#43=EDGE_LOOP('',(#329,#330,#331,#332));
#44=EDGE_LOOP('',(#333,#334,#335,#336));
#45=EDGE_LOOP('',(#337,#338,#339,#340));
#46=EDGE_LOOP('',(#341,#342,#343,#344));
#47=EDGE_LOOP('',(#345,#346,#347,#348));
#48=EDGE_LOOP('',(#349,#350,#351,#352));
#49=EDGE_LOOP('',(#353,#354,#355,#356));
#50=EDGE_LOOP('',(#357,#358,#359,#360));
#51=EDGE_LOOP('',(#361,#362,#363,#364));
#52=EDGE_LOOP('',(#365,#366,#367,#368));
#53=EDGE_LOOP('',(#369,#370,#371,#372));
#54=EDGE_LOOP('',(#373,#374,#375,#376));
#55=EDGE_LOOP('',(#377,#378,#379,#380));
#56=EDGE_LOOP('',(#381,#382,#383,#384));
#57=EDGE_LOOP('',(#385,#386,#387,#388));
#58=EDGE_LOOP('',(#389,#390,#391,#392));
#59=EDGE_LOOP('',(#393,#394,#395,#396));
#60=EDGE_LOOP('',(#397,#398,#399,#400,#401,#402,#403,#404,#405,#406,#407,
#408,#409,#410,#411,#412,#413,#414,#415,#416,#417));
#61=LINE('',#616,#124);
#62=LINE('',#618,#125);
#63=LINE('',#620,#126);
#64=LINE('',#622,#127);
#65=LINE('',#624,#128);
#66=LINE('',#626,#129);
#67=LINE('',#628,#130);
#68=LINE('',#630,#131);
#69=LINE('',#632,#132);
#70=LINE('',#634,#133);
#71=LINE('',#636,#134);
#72=LINE('',#638,#135);
#73=LINE('',#640,#136);
#74=LINE('',#642,#137);
#75=LINE('',#644,#138);
#76=LINE('',#646,#139);
#77=LINE('',#648,#140);
#78=LINE('',#650,#141);
#79=LINE('',#652,#142);
#80=LINE('',#654,#143);
#81=LINE('',#655,#144);
#82=LINE('',#659,#145);
#83=LINE('',#660,#146);
#84=LINE('',#661,#147);
#85=LINE('',#664,#148);
#86=LINE('',#665,#149);
#87=LINE('',#668,#150);
#88=LINE('',#669,#151);
#89=LINE('',#672,#152);
#90=LINE('',#673,#153);
#91=LINE('',#676,#154);
#92=LINE('',#677,#155);
#93=LINE('',#680,#156);
#94=LINE('',#681,#157);
#95=LINE('',#684,#158);
#96=LINE('',#685,#159);
#97=LINE('',#688,#160);
#98=LINE('',#689,#161);
#99=LINE('',#692,#162);
#100=LINE('',#693,#163);
#101=LINE('',#696,#164);
#102=LINE('',#697,#165);
#103=LINE('',#700,#166);
#104=LINE('',#701,#167);
#105=LINE('',#704,#168);
#106=LINE('',#705,#169);
#107=LINE('',#708,#170);
#108=LINE('',#709,#171);
#109=LINE('',#712,#172);
#110=LINE('',#713,#173);
#111=LINE('',#716,#174);
#112=LINE('',#717,#175);
#113=LINE('',#720,#176);
#114=LINE('',#721,#177);
#115=LINE('',#724,#178);
#116=LINE('',#725,#179);
#117=LINE('',#728,#180);
#118=LINE('',#729,#181);
#119=LINE('',#732,#182);
#120=LINE('',#733,#183);
#121=LINE('',#736,#184);
#122=LINE('',#737,#185);
#123=LINE('',#739,#186);
#124=VECTOR('',#505,10.);
#125=VECTOR('',#506,10.);
#126=VECTOR('',#507,10.);
#127=VECTOR('',#508,10.);
#128=VECTOR('',#509,10.);
#129=VECTOR('',#510,10.);
#130=VECTOR('',#511,10.);
#131=VECTOR('',#512,10.);
#132=VECTOR('',#513,10.);
#133=VECTOR('',#514,10.);
#134=VECTOR('',#515,10.);
#135=VECTOR('',#516,10.);
#136=VECTOR('',#517,10.);
#137=VECTOR('',#518,10.);
#138=VECTOR('',#519,10.);
#139=VECTOR('',#520,10.);
#140=VECTOR('',#521,10.);
#141=VECTOR('',#522,10.);
#142=VECTOR('',#523,10.);
#143=VECTOR('',#524,10.);
#144=VECTOR('',#525,10.);
#145=VECTOR('',#528,10.);
#146=VECTOR('',#529,10.);
#147=VECTOR('',#530,10.);
#148=VECTOR('',#533,10.);
#149=VECTOR('',#534,10.);
#150=VECTOR('',#537,10.);
#151=VECTOR('',#538,10.);
#152=VECTOR('',#541,10.);
#153=VECTOR('',#542,10.);
#154=VECTOR('',#545,10.);
#155=VECTOR('',#546,10.);
#156=VECTOR('',#549,10.);
#157=VECTOR('',#550,10.);
#158=VECTOR('',#553,10.);
#159=VECTOR('',#554,10.);
#160=VECTOR('',#557,10.);
#161=VECTOR('',#558,10.);
#162=VECTOR('',#561,10.);
#163=VECTOR('',#562,10.);
#164=VECTOR('',#565,10.);
#165=VECTOR('',#566,10.);
#166=VECTOR('',#569,10.);
#167=VECTOR('',#570,10.);
#168=VECTOR('',#573,10.);
#169=VECTOR('',#574,10.);
#170=VECTOR('',#577,10.);
#171=VECTOR('',#578,10.);
#172=VECTOR('',#581,10.);
#173=VECTOR('',#582,10.);
#174=VECTOR('',#585,10.);
#175=VECTOR('',#586,10.);
#176=VECTOR('',#589,10.);
#177=VECTOR('',#590,10.);
#178=VECTOR('',#593,10.);
#179=VECTOR('',#594,10.);
#180=VECTOR('',#597,10.);
#181=VECTOR('',#598,10.);
#182=VECTOR('',#601,10.);
#183=VECTOR('',#602,10.);
#184=VECTOR('',#605,10.);
#185=VECTOR('',#606,10.);
#186=VECTOR('',#609,10.);
#187=VERTEX_POINT('',#614);
#188=VERTEX_POINT('',#615);
#189=VERTEX_POINT('',#617);
#190=VERTEX_POINT('',#619);
#191=VERTEX_POINT('',#621);
#192=VERTEX_POINT('',#623);
#193=VERTEX_POINT('',#625);
#194=VERTEX_POINT('',#627);
#195=VERTEX_POINT('',#629);
#196=VERTEX_POINT('',#631);
#197=VERTEX_POINT('',#633);
#198=VERTEX_POINT('',#635);
#199=VERTEX_POINT('',#637);
#200=VERTEX_POINT('',#639);
#201=VERTEX_POINT('',#641);
#202=VERTEX_POINT('',#643);
#203=VERTEX_POINT('',#645);
#204=VERTEX_POINT('',#647);
#205=VERTEX_POINT('',#649);
#206=VERTEX_POINT('',#651);
#207=VERTEX_POINT('',#653);
#208=VERTEX_POINT('',#657);
#209=VERTEX_POINT('',#658);
#210=VERTEX_POINT('',#663);
#211=VERTEX_POINT('',#667);
#212=VERTEX_POINT('',#671);
#213=VERTEX_POINT('',#675);
#214=VERTEX_POINT('',#679);
#215=VERTEX_POINT('',#683);
#216=VERTEX_POINT('',#687);
#217=VERTEX_POINT('',#691);
#218=VERTEX_POINT('',#695);
#219=VERTEX_POINT('',#699);
#220=VERTEX_POINT('',#703);
#221=VERTEX_POINT('',#707);
#222=VERTEX_POINT('',#711);
#223=VERTEX_POINT('',#715);
#224=VERTEX_POINT('',#719);
#225=VERTEX_POINT('',#723);
#226=VERTEX_POINT('',#727);
#227=VERTEX_POINT('',#731);
#228=VERTEX_POINT('',#735);
#229=EDGE_CURVE('',#187,#188,#61,.T.);
#230=EDGE_CURVE('',#188,#189,#62,.T.);
#231=EDGE_CURVE('',#189,#190,#63,.T.);
#232=EDGE_CURVE('',#190,#191,#64,.T.);
#233=EDGE_CURVE('',#191,#192,#65,.T.);
#234=EDGE_CURVE('',#192,#193,#66,.T.);
#235=EDGE_CURVE('',#193,#194,#67,.T.);
#236=EDGE_CURVE('',#194,#195,#68,.T.);
#237=EDGE_CURVE('',#195,#196,#69,.T.);
#238=EDGE_CURVE('',#196,#197,#70,.T.);
#239=EDGE_CURVE('',#197,#198,#71,.T.);
#240=EDGE_CURVE('',#198,#199,#72,.T.);
#241=EDGE_CURVE('',#199,#200,#73,.T.);
#242=EDGE_CURVE('',#200,#201,#74,.T.);
#243=EDGE_CURVE('',#201,#202,#75,.T.);
#244=EDGE_CURVE('',#202,#203,#76,.T.);
#245=EDGE_CURVE('',#203,#204,#77,.T.);
#246=EDGE_CURVE('',#204,#205,#78,.T.);
#247=EDGE_CURVE('',#205,#206,#79,.T.);
#248=EDGE_CURVE('',#206,#207,#80,.T.);
#249=EDGE_CURVE('',#207,#187,#81,.T.);
#250=EDGE_CURVE('',#208,#209,#82,.T.);
#251=EDGE_CURVE('',#208,#187,#83,.T.);
#252=EDGE_CURVE('',#209,#207,#84,.T.);
#253=EDGE_CURVE('',#209,#210,#85,.T.);
#254=EDGE_CURVE('',#210,#206,#86,.T.);
#255=EDGE_CURVE('',#210,#211,#87,.T.);
#256=EDGE_CURVE('',#211,#205,#88,.T.);
#257=EDGE_CURVE('',#211,#212,#89,.T.);
#258=EDGE_CURVE('',#212,#204,#90,.T.);
#259=EDGE_CURVE('',#212,#213,#91,.T.);
#260=EDGE_CURVE('',#213,#203,#92,.T.);
#261=EDGE_CURVE('',#213,#214,#93,.T.);
#262=EDGE_CURVE('',#214,#202,#94,.T.);
#263=EDGE_CURVE('',#214,#215,#95,.T.);
#264=EDGE_CURVE('',#215,#201,#96,.T.);
#265=EDGE_CURVE('',#215,#216,#97,.T.);
#266=EDGE_CURVE('',#216,#200,#98,.T.);
#267=EDGE_CURVE('',#216,#217,#99,.T.);
#268=EDGE_CURVE('',#217,#199,#100,.T.);
#269=EDGE_CURVE('',#217,#218,#101,.T.);
#270=EDGE_CURVE('',#218,#198,#102,.T.);
#271=EDGE_CURVE('',#218,#219,#103,.T.);
#272=EDGE_CURVE('',#219,#197,#104,.T.);
#273=EDGE_CURVE('',#219,#220,#105,.T.);
#274=EDGE_CURVE('',#220,#196,#106,.T.);
#275=EDGE_CURVE('',#220,#221,#107,.T.);
#276=EDGE_CURVE('',#221,#195,#108,.T.);
#277=EDGE_CURVE('',#221,#222,#109,.T.);
#278=EDGE_CURVE('',#222,#194,#110,.T.);
#279=EDGE_CURVE('',#222,#223,#111,.T.);
#280=EDGE_CURVE('',#223,#193,#112,.T.);
#281=EDGE_CURVE('',#224,#223,#113,.T.);
#282=EDGE_CURVE('',#224,#192,#114,.T.);
#283=EDGE_CURVE('',#225,#224,#115,.T.);
#284=EDGE_CURVE('',#225,#191,#116,.T.);
#285=EDGE_CURVE('',#226,#225,#117,.T.);
#286=EDGE_CURVE('',#226,#190,#118,.T.);
#287=EDGE_CURVE('',#227,#226,#119,.T.);
#288=EDGE_CURVE('',#227,#189,#120,.T.);
#289=EDGE_CURVE('',#228,#227,#121,.T.);
#290=EDGE_CURVE('',#228,#188,#122,.T.);
#291=EDGE_CURVE('',#208,#228,#123,.T.);
#292=ORIENTED_EDGE('',*,*,#229,.T.);
#293=ORIENTED_EDGE('',*,*,#230,.T.);
#294=ORIENTED_EDGE('',*,*,#231,.T.);
#295=ORIENTED_EDGE('',*,*,#232,.T.);
#296=ORIENTED_EDGE('',*,*,#233,.T.);
#297=ORIENTED_EDGE('',*,*,#234,.T.);
#298=ORIENTED_EDGE('',*,*,#235,.T.);
#299=ORIENTED_EDGE('',*,*,#236,.T.);
#300=ORIENTED_EDGE('',*,*,#237,.T.);
#301=ORIENTED_EDGE('',*,*,#238,.T.);
#302=ORIENTED_EDGE('',*,*,#239,.T.);
#303=ORIENTED_EDGE('',*,*,#240,.T.);
#304=ORIENTED_EDGE('',*,*,#241,.T.);
#305=ORIENTED_EDGE('',*,*,#242,.T.);
#306=ORIENTED_EDGE('',*,*,#243,.T.);
#307=ORIENTED_EDGE('',*,*,#244,.T.);
#308=ORIENTED_EDGE('',*,*,#245,.T.);
#309=ORIENTED_EDGE('',*,*,#246,.T.);
#310=ORIENTED_EDGE('',*,*,#247,.T.);
#311=ORIENTED_EDGE('',*,*,#248,.T.);
#312=ORIENTED_EDGE('',*,*,#249,.T.);
#313=ORIENTED_EDGE('',*,*,#250,.F.);
#314=ORIENTED_EDGE('',*,*,#251,.T.);
#315=ORIENTED_EDGE('',*,*,#249,.F.);
#316=ORIENTED_EDGE('',*,*,#252,.F.);
#317=ORIENTED_EDGE('',*,*,#253,.F.);
#318=ORIENTED_EDGE('',*,*,#252,.T.);
#319=ORIENTED_EDGE('',*,*,#248,.F.);
#320=ORIENTED_EDGE('',*,*,#254,.F.);
#321=ORIENTED_EDGE('',*,*,#255,.F.);
#322=ORIENTED_EDGE('',*,*,#254,.T.);
#323=ORIENTED_EDGE('',*,*,#247,.F.);
#324=ORIENTED_EDGE('',*,*,#256,.F.);
#325=ORIENTED_EDGE('',*,*,#257,.F.);
#326=ORIENTED_EDGE('',*,*,#256,.T.);
#327=ORIENTED_EDGE('',*,*,#246,.F.);
#328=ORIENTED_EDGE('',*,*,#258,.F.);
#329=ORIENTED_EDGE('',*,*,#259,.F.);
#330=ORIENTED_EDGE('',*,*,#258,.T.);
#331=ORIENTED_EDGE('',*,*,#245,.F.);
#332=ORIENTED_EDGE('',*,*,#260,.F.);
#333=ORIENTED_EDGE('',*,*,#261,.F.);
#334=ORIENTED_EDGE('',*,*,#260,.T.);
#335=ORIENTED_EDGE('',*,*,#244,.F.);
#336=ORIENTED_EDGE('',*,*,#262,.F.);
#337=ORIENTED_EDGE('',*,*,#263,.F.);
#338=ORIENTED_EDGE('',*,*,#262,.T.);
#339=ORIENTED_EDGE('',*,*,#243,.F.);
#340=ORIENTED_EDGE('',*,*,#264,.F.);
#341=ORIENTED_EDGE('',*,*,#265,.F.);
#342=ORIENTED_EDGE('',*,*,#264,.T.);
#343=ORIENTED_EDGE('',*,*,#242,.F.);
#344=ORIENTED_EDGE('',*,*,#266,.F.);
#345=ORIENTED_EDGE('',*,*,#267,.F.);
#346=ORIENTED_EDGE('',*,*,#266,.T.);
#347=ORIENTED_EDGE('',*,*,#241,.F.);
#348=ORIENTED_EDGE('',*,*,#268,.F.);
#349=ORIENTED_EDGE('',*,*,#269,.F.);
#350=ORIENTED_EDGE('',*,*,#268,.T.);
#351=ORIENTED_EDGE('',*,*,#240,.F.);
#352=ORIENTED_EDGE('',*,*,#270,.F.);
#353=ORIENTED_EDGE('',*,*,#271,.F.);
#354=ORIENTED_EDGE('',*,*,#270,.T.);
#355=ORIENTED_EDGE('',*,*,#239,.F.);
#356=ORIENTED_EDGE('',*,*,#272,.F.);
#357=ORIENTED_EDGE('',*,*,#273,.F.);
#358=ORIENTED_EDGE('',*,*,#272,.T.);
#359=ORIENTED_EDGE('',*,*,#238,.F.);
#360=ORIENTED_EDGE('',*,*,#274,.F.);
#361=ORIENTED_EDGE('',*,*,#275,.F.);
#362=ORIENTED_EDGE('',*,*,#274,.T.);
#363=ORIENTED_EDGE('',*,*,#237,.F.);
#364=ORIENTED_EDGE('',*,*,#276,.F.);
#365=ORIENTED_EDGE('',*,*,#277,.F.);
#366=ORIENTED_EDGE('',*,*,#276,.T.);
#367=ORIENTED_EDGE('',*,*,#236,.F.);
#368=ORIENTED_EDGE('',*,*,#278,.F.);
#369=ORIENTED_EDGE('',*,*,#279,.F.);
#370=ORIENTED_EDGE('',*,*,#278,.T.);
#371=ORIENTED_EDGE('',*,*,#235,.F.);
#372=ORIENTED_EDGE('',*,*,#280,.F.);
#373=ORIENTED_EDGE('',*,*,#281,.T.);
#374=ORIENTED_EDGE('',*,*,#280,.T.);
#375=ORIENTED_EDGE('',*,*,#234,.F.);
#376=ORIENTED_EDGE('',*,*,#282,.F.);
#377=ORIENTED_EDGE('',*,*,#283,.T.);
#378=ORIENTED_EDGE('',*,*,#282,.T.);
#379=ORIENTED_EDGE('',*,*,#233,.F.);
#380=ORIENTED_EDGE('',*,*,#284,.F.);
#381=ORIENTED_EDGE('',*,*,#285,.T.);
#382=ORIENTED_EDGE('',*,*,#284,.T.);
#383=ORIENTED_EDGE('',*,*,#232,.F.);
#384=ORIENTED_EDGE('',*,*,#286,.F.);
#385=ORIENTED_EDGE('',*,*,#287,.T.);
#386=ORIENTED_EDGE('',*,*,#286,.T.);
#387=ORIENTED_EDGE('',*,*,#231,.F.);
#388=ORIENTED_EDGE('',*,*,#288,.F.);
#389=ORIENTED_EDGE('',*,*,#289,.T.);
#390=ORIENTED_EDGE('',*,*,#288,.T.);
#391=ORIENTED_EDGE('',*,*,#230,.F.);
#392=ORIENTED_EDGE('',*,*,#290,.F.);
#393=ORIENTED_EDGE('',*,*,#291,.T.);
#394=ORIENTED_EDGE('',*,*,#290,.T.);
#395=ORIENTED_EDGE('',*,*,#229,.F.);
#396=ORIENTED_EDGE('',*,*,#251,.F.);
#397=ORIENTED_EDGE('',*,*,#291,.F.);
#398=ORIENTED_EDGE('',*,*,#250,.T.);
#399=ORIENTED_EDGE('',*,*,#253,.T.);
#400=ORIENTED_EDGE('',*,*,#255,.T.);
#401=ORIENTED_EDGE('',*,*,#257,.T.);
#402=ORIENTED_EDGE('',*,*,#259,.T.);
#403=ORIENTED_EDGE('',*,*,#261,.T.);
#404=ORIENTED_EDGE('',*,*,#263,.T.);
#405=ORIENTED_EDGE('',*,*,#265,.T.);
#406=ORIENTED_EDGE('',*,*,#267,.T.);
#407=ORIENTED_EDGE('',*,*,#269,.T.);
#408=ORIENTED_EDGE('',*,*,#271,.T.);
#409=ORIENTED_EDGE('',*,*,#273,.T.);
#410=ORIENTED_EDGE('',*,*,#275,.T.);
#411=ORIENTED_EDGE('',*,*,#277,.T.);
#412=ORIENTED_EDGE('',*,*,#279,.T.);
#413=ORIENTED_EDGE('',*,*,#281,.F.);
#414=ORIENTED_EDGE('',*,*,#283,.F.);
#415=ORIENTED_EDGE('',*,*,#285,.F.);
#416=ORIENTED_EDGE('',*,*,#287,.F.);
#417=ORIENTED_EDGE('',*,*,#289,.F.);
#418=PLANE('',#478);
#419=PLANE('',#479);
#420=PLANE('',#480);
#421=PLANE('',#481);
#422=PLANE('',#482);
#423=PLANE('',#483);
#424=PLANE('',#484);
#425=PLANE('',#485);
#426=PLANE('',#486);
#427=PLANE('',#487);
#428=PLANE('',#488);
#429=PLANE('',#489);
#430=PLANE('',#490);
#431=PLANE('',#491);
#432=PLANE('',#492);
#433=PLANE('',#493);
#434=PLANE('',#494);
#435=PLANE('',#495);
#436=PLANE('',#496);
#437=PLANE('',#497);
#438=PLANE('',#498);
#439=PLANE('',#499);
#440=PLANE('',#500);
#441=ADVANCED_FACE('',(#15),#418,.T.);
#442=ADVANCED_FACE('',(#16),#419,.T.);
#443=ADVANCED_FACE('',(#17),#420,.T.);
#444=ADVANCED_FACE('',(#18),#421,.T.);
#445=ADVANCED_FACE('',(#19),#422,.T.);
#446=ADVANCED_FACE('',(#20),#423,.T.);
#447=ADVANCED_FACE('',(#21),#424,.T.);
#448=ADVANCED_FACE('',(#22),#425,.T.);
#449=ADVANCED_FACE('',(#23),#426,.T.);
#450=ADVANCED_FACE('',(#24),#427,.T.);
#451=ADVANCED_FACE('',(#25),#428,.T.);
#452=ADVANCED_FACE('',(#26),#429,.T.);
#453=ADVANCED_FACE('',(#27),#430,.T.);
#454=ADVANCED_FACE('',(#28),#431,.T.);
#455=ADVANCED_FACE('',(#29),#432,.T.);
#456=ADVANCED_FACE('',(#30),#433,.T.);
#457=ADVANCED_FACE('',(#31),#434,.T.);
#458=ADVANCED_FACE('',(#32),#435,.T.);
#459=ADVANCED_FACE('',(#33),#436,.T.);
#460=ADVANCED_FACE('',(#34),#437,.T.);
#461=ADVANCED_FACE('',(#35),#438,.T.);
#462=ADVANCED_FACE('',(#36),#439,.T.);
#463=ADVANCED_FACE('',(#37),#440,.F.);
#464=CLOSED_SHELL('',(#441,#442,#443,#444,#445,#446,#447,#448,#449,#450,
#451,#452,#453,#454,#455,#456,#457,#458,#459,#460,#461,#462,#463));
#465=DERIVED_UNIT_ELEMENT(#467,1.);
#466=DERIVED_UNIT_ELEMENT(#746,-3.);
#467=(
MASS_UNIT()
NAMED_UNIT(*)
SI_UNIT(.KILO.,.GRAM.)
);
#468=DERIVED_UNIT((#465,#466));
#469=MEASURE_REPRESENTATION_ITEM('density measure',
POSITIVE_RATIO_MEASURE(7850.),#468);
#470=PROPERTY_DEFINITION_REPRESENTATION(#475,#472);
#471=PROPERTY_DEFINITION_REPRESENTATION(#476,#473);
#472=REPRESENTATION('material name',(#474),#743);
#473=REPRESENTATION('density',(#469),#743);
#474=DESCRIPTIVE_REPRESENTATION_ITEM('Steel','Steel');
#475=PROPERTY_DEFINITION('material property','material name',#753);
#476=PROPERTY_DEFINITION('material property','density of part',#753);
#477=AXIS2_PLACEMENT_3D('',#612,#501,#502);
#478=AXIS2_PLACEMENT_3D('',#613,#503,#504);
#479=AXIS2_PLACEMENT_3D('',#656,#526,#527);
#480=AXIS2_PLACEMENT_3D('',#662,#531,#532);
#481=AXIS2_PLACEMENT_3D('',#666,#535,#536);
#482=AXIS2_PLACEMENT_3D('',#670,#539,#540);
#483=AXIS2_PLACEMENT_3D('',#674,#543,#544);
#484=AXIS2_PLACEMENT_3D('',#678,#547,#548);
#485=AXIS2_PLACEMENT_3D('',#682,#551,#552);
#486=AXIS2_PLACEMENT_3D('',#686,#555,#556);
#487=AXIS2_PLACEMENT_3D('',#690,#559,#560);
#488=AXIS2_PLACEMENT_3D('',#694,#563,#564);
#489=AXIS2_PLACEMENT_3D('',#698,#567,#568);
#490=AXIS2_PLACEMENT_3D('',#702,#571,#572);
#491=AXIS2_PLACEMENT_3D('',#706,#575,#576);
#492=AXIS2_PLACEMENT_3D('',#710,#579,#580);
#493=AXIS2_PLACEMENT_3D('',#714,#583,#584);
#494=AXIS2_PLACEMENT_3D('',#718,#587,#588);
#495=AXIS2_PLACEMENT_3D('',#722,#591,#592);
#496=AXIS2_PLACEMENT_3D('',#726,#595,#596);
#497=AXIS2_PLACEMENT_3D('',#730,#599,#600);
#498=AXIS2_PLACEMENT_3D('',#734,#603,#604);
#499=AXIS2_PLACEMENT_3D('',#738,#607,#608);
#500=AXIS2_PLACEMENT_3D('',#740,#610,#611);
#501=DIRECTION('axis',(0.,0.,1.));
#502=DIRECTION('refdir',(1.,0.,0.));
#503=DIRECTION('center_axis',(0.,1.,0.));
#504=DIRECTION('ref_axis',(0.,0.,1.));
#505=DIRECTION('',(1.,0.,0.));
#506=DIRECTION('',(0.,0.,-1.));
#507=DIRECTION('',(-1.,0.,0.));
#508=DIRECTION('',(0.,0.,-1.));
#509=DIRECTION('',(-1.,0.,0.));
#510=DIRECTION('',(0.,0.,1.));
#511=DIRECTION('',(-1.,0.,0.));
#512=DIRECTION('',(0.,0.,-1.));
#513=DIRECTION('',(-1.,0.,0.));
#514=DIRECTION('',(0.,0.,1.));
#515=DIRECTION('',(-1.,0.,0.));
#516=DIRECTION('',(0.,0.,-1.));
#517=DIRECTION('',(-1.,0.,0.));
#518=DIRECTION('',(0.,0.,1.));
#519=DIRECTION('',(-1.,0.,0.));
#520=DIRECTION('',(0.,0.,-1.));
#521=DIRECTION('',(-1.,0.,0.));
#522=DIRECTION('',(0.,0.,1.));
#523=DIRECTION('',(-1.,0.,0.));
#524=DIRECTION('',(-0.765442631022205,0.,0.643504140323747));
#525=DIRECTION('',(0.,0.,1.));
#526=DIRECTION('center_axis',(-1.,0.,0.));
#527=DIRECTION('ref_axis',(0.,0.,1.));
#528=DIRECTION('',(0.,0.,-1.));
#529=DIRECTION('',(0.,1.,0.));
#530=DIRECTION('',(0.,1.,0.));
#531=DIRECTION('center_axis',(-0.643504140323747,0.,-0.765442631022205));
#532=DIRECTION('ref_axis',(-0.765442631022205,0.,0.643504140323747));
#533=DIRECTION('',(0.765442631022205,0.,-0.643504140323747));
#534=DIRECTION('',(0.,1.,0.));
#535=DIRECTION('center_axis',(0.,0.,-1.));
#536=DIRECTION('ref_axis',(-1.,0.,0.));
#537=DIRECTION('',(1.,0.,0.));
#538=DIRECTION('',(0.,1.,0.));
#539=DIRECTION('center_axis',(-1.,0.,0.));
#540=DIRECTION('ref_axis',(0.,0.,1.));
#541=DIRECTION('',(0.,0.,-1.));
#542=DIRECTION('',(0.,1.,0.));
#543=DIRECTION('center_axis',(0.,0.,-1.));
#544=DIRECTION('ref_axis',(-1.,0.,0.));
#545=DIRECTION('',(1.,0.,0.));
#546=DIRECTION('',(0.,1.,0.));
#547=DIRECTION('center_axis',(1.,0.,0.));
#548=DIRECTION('ref_axis',(0.,0.,-1.));
#549=DIRECTION('',(0.,0.,1.));
#550=DIRECTION('',(0.,1.,0.));
#551=DIRECTION('center_axis',(0.,0.,-1.));
#552=DIRECTION('ref_axis',(-1.,0.,0.));
#553=DIRECTION('',(1.,0.,0.));
#554=DIRECTION('',(0.,1.,0.));
#555=DIRECTION('center_axis',(-1.,0.,0.));
#556=DIRECTION('ref_axis',(0.,0.,1.));
#557=DIRECTION('',(0.,0.,-1.));
#558=DIRECTION('',(0.,1.,0.));
#559=DIRECTION('center_axis',(0.,0.,-1.));
#560=DIRECTION('ref_axis',(-1.,0.,0.));
#561=DIRECTION('',(1.,0.,0.));
#562=DIRECTION('',(0.,1.,0.));
#563=DIRECTION('center_axis',(1.,0.,0.));
#564=DIRECTION('ref_axis',(0.,0.,-1.));
#565=DIRECTION('',(0.,0.,1.));
#566=DIRECTION('',(0.,1.,0.));
#567=DIRECTION('center_axis',(0.,0.,-1.));
#568=DIRECTION('ref_axis',(-1.,0.,0.));
#569=DIRECTION('',(1.,0.,0.));
#570=DIRECTION('',(0.,1.,0.));
#571=DIRECTION('center_axis',(-1.,0.,0.));
#572=DIRECTION('ref_axis',(0.,0.,1.));
#573=DIRECTION('',(0.,0.,-1.));
#574=DIRECTION('',(0.,1.,0.));
#575=DIRECTION('center_axis',(0.,0.,-1.));
#576=DIRECTION('ref_axis',(-1.,0.,0.));
#577=DIRECTION('',(1.,0.,0.));
#578=DIRECTION('',(0.,1.,0.));
#579=DIRECTION('center_axis',(1.,0.,0.));
#580=DIRECTION('ref_axis',(0.,0.,-1.));
#581=DIRECTION('',(0.,0.,1.));
#582=DIRECTION('',(0.,1.,0.));
#583=DIRECTION('center_axis',(0.,0.,-1.));
#584=DIRECTION('ref_axis',(-1.,0.,0.));
#585=DIRECTION('',(1.,0.,0.));
#586=DIRECTION('',(0.,1.,0.));
#587=DIRECTION('center_axis',(-1.,0.,0.));
#588=DIRECTION('ref_axis',(0.,0.,1.));
#589=DIRECTION('',(0.,0.,1.));
#590=DIRECTION('',(0.,1.,0.));
#591=DIRECTION('center_axis',(0.,0.,-1.));
#592=DIRECTION('ref_axis',(-1.,0.,0.));
#593=DIRECTION('',(-1.,0.,0.));
#594=DIRECTION('',(0.,1.,0.));
#595=DIRECTION('center_axis',(1.,0.,0.));
#596=DIRECTION('ref_axis',(0.,0.,-1.));
#597=DIRECTION('',(0.,0.,-1.));
#598=DIRECTION('',(0.,1.,0.));
#599=DIRECTION('center_axis',(0.,0.,-1.));
#600=DIRECTION('ref_axis',(-1.,0.,0.));
#601=DIRECTION('',(-1.,0.,0.));
#602=DIRECTION('',(0.,1.,0.));
#603=DIRECTION('center_axis',(1.,0.,0.));
#604=DIRECTION('ref_axis',(0.,0.,-1.));
#605=DIRECTION('',(0.,0.,-1.));
#606=DIRECTION('',(0.,1.,0.));
#607=DIRECTION('center_axis',(0.,0.,1.));
#608=DIRECTION('ref_axis',(1.,0.,0.));
#609=DIRECTION('',(1.,0.,0.));
#610=DIRECTION('center_axis',(0.,1.,0.));
#611=DIRECTION('ref_axis',(1.,0.,0.));
#612=CARTESIAN_POINT('',(0.,0.,0.));
#613=CARTESIAN_POINT('Origin',(40.075,0.9,-49.075));
#614=CARTESIAN_POINT('',(0.,0.9,-25.));
#615=CARTESIAN_POINT('',(80.15,0.9,-25.));
#616=CARTESIAN_POINT('',(0.,0.9,-25.));
#617=CARTESIAN_POINT('',(80.15,0.9,-65.15));
#618=CARTESIAN_POINT('',(80.15,0.9,-25.));
#619=CARTESIAN_POINT('',(76.75,0.9,-65.15));
#620=CARTESIAN_POINT('',(80.15,0.9,-65.15));
#621=CARTESIAN_POINT('',(76.75,0.9,-73.15));
#622=CARTESIAN_POINT('',(76.75,0.9,-65.15));
#623=CARTESIAN_POINT('',(72.15,0.9,-73.15));
#624=CARTESIAN_POINT('',(76.75,0.9,-73.15));
#625=CARTESIAN_POINT('',(72.15,0.9,-65.15));
#626=CARTESIAN_POINT('',(72.15,0.9,-73.15));
#627=CARTESIAN_POINT('',(63.73,0.9,-65.15));
#628=CARTESIAN_POINT('',(63.73,0.9,-65.15));
#629=CARTESIAN_POINT('',(63.73,0.9,-73.15));
#630=CARTESIAN_POINT('',(63.73,0.9,-73.15));
#631=CARTESIAN_POINT('',(57.43,0.9,-73.15));
#632=CARTESIAN_POINT('',(57.43,0.9,-73.15));
#633=CARTESIAN_POINT('',(57.43,0.9,-65.15));
#634=CARTESIAN_POINT('',(57.43,0.9,-65.15));
#635=CARTESIAN_POINT('',(43.23,0.9,-65.15));
#636=CARTESIAN_POINT('',(43.23,0.9,-65.15));
#637=CARTESIAN_POINT('',(43.23,0.9,-73.15));
#638=CARTESIAN_POINT('',(43.23,0.9,-73.15));
#639=CARTESIAN_POINT('',(36.93,0.9,-73.15));
#640=CARTESIAN_POINT('',(36.93,0.9,-73.15));
#641=CARTESIAN_POINT('',(36.93,0.9,-65.15));
#642=CARTESIAN_POINT('',(36.93,0.9,-65.15));
#643=CARTESIAN_POINT('',(22.73,0.9,-65.15));
#644=CARTESIAN_POINT('',(22.73,0.9,-65.15));
#645=CARTESIAN_POINT('',(22.73,0.9,-73.15));
#646=CARTESIAN_POINT('',(22.73,0.9,-73.15));
#647=CARTESIAN_POINT('',(16.43,0.9,-73.15));
#648=CARTESIAN_POINT('',(16.43,0.9,-73.15));
#649=CARTESIAN_POINT('',(16.43,0.9,-65.15));
#650=CARTESIAN_POINT('',(16.43,0.9,-65.15));
#651=CARTESIAN_POINT('',(14.9875914489495,0.9,-65.15));
#652=CARTESIAN_POINT('',(14.9875914489495,0.9,-65.15));
#653=CARTESIAN_POINT('',(0.,0.9,-52.55));
#654=CARTESIAN_POINT('',(0.,0.9,-52.55));
#655=CARTESIAN_POINT('',(0.,0.9,-25.));
#656=CARTESIAN_POINT('Origin',(0.,0.,-52.55));
#657=CARTESIAN_POINT('',(0.,0.,-25.));
#658=CARTESIAN_POINT('',(0.,0.,-52.55));
#659=CARTESIAN_POINT('',(0.,0.,-25.));
#660=CARTESIAN_POINT('',(0.,0.,-25.));
#661=CARTESIAN_POINT('',(0.,0.,-52.55));
#662=CARTESIAN_POINT('Origin',(14.9875914489495,0.,-65.15));
#663=CARTESIAN_POINT('',(14.9875914489495,0.,-65.15));
#664=CARTESIAN_POINT('',(0.,0.,-52.55));
#665=CARTESIAN_POINT('',(14.9875914489495,0.,-65.15));
#666=CARTESIAN_POINT('Origin',(16.43,0.,-65.15));
#667=CARTESIAN_POINT('',(16.43,0.,-65.15));
#668=CARTESIAN_POINT('',(14.9875914489495,0.,-65.15));
#669=CARTESIAN_POINT('',(16.43,0.,-65.15));
#670=CARTESIAN_POINT('Origin',(16.43,0.,-73.15));
#671=CARTESIAN_POINT('',(16.43,0.,-73.15));
#672=CARTESIAN_POINT('',(16.43,0.,-65.15));
#673=CARTESIAN_POINT('',(16.43,0.,-73.15));
#674=CARTESIAN_POINT('Origin',(22.73,0.,-73.15));
#675=CARTESIAN_POINT('',(22.73,0.,-73.15));
#676=CARTESIAN_POINT('',(16.43,0.,-73.15));
#677=CARTESIAN_POINT('',(22.73,0.,-73.15));
#678=CARTESIAN_POINT('Origin',(22.73,0.,-65.15));
#679=CARTESIAN_POINT('',(22.73,0.,-65.15));
#680=CARTESIAN_POINT('',(22.73,0.,-73.15));
#681=CARTESIAN_POINT('',(22.73,0.,-65.15));
#682=CARTESIAN_POINT('Origin',(36.93,0.,-65.15));
#683=CARTESIAN_POINT('',(36.93,0.,-65.15));
#684=CARTESIAN_POINT('',(22.73,0.,-65.15));
#685=CARTESIAN_POINT('',(36.93,0.,-65.15));
#686=CARTESIAN_POINT('Origin',(36.93,0.,-73.15));
#687=CARTESIAN_POINT('',(36.93,0.,-73.15));
#688=CARTESIAN_POINT('',(36.93,0.,-65.15));
#689=CARTESIAN_POINT('',(36.93,0.,-73.15));
#690=CARTESIAN_POINT('Origin',(43.23,0.,-73.15));
#691=CARTESIAN_POINT('',(43.23,0.,-73.15));
#692=CARTESIAN_POINT('',(36.93,0.,-73.15));
#693=CARTESIAN_POINT('',(43.23,0.,-73.15));
#694=CARTESIAN_POINT('Origin',(43.23,0.,-65.15));
#695=CARTESIAN_POINT('',(43.23,0.,-65.15));
#696=CARTESIAN_POINT('',(43.23,0.,-73.15));
#697=CARTESIAN_POINT('',(43.23,0.,-65.15));
#698=CARTESIAN_POINT('Origin',(57.43,0.,-65.15));
#699=CARTESIAN_POINT('',(57.43,0.,-65.15));
#700=CARTESIAN_POINT('',(43.23,0.,-65.15));
#701=CARTESIAN_POINT('',(57.43,0.,-65.15));
#702=CARTESIAN_POINT('Origin',(57.43,0.,-73.15));
#703=CARTESIAN_POINT('',(57.43,0.,-73.15));
#704=CARTESIAN_POINT('',(57.43,0.,-65.15));
#705=CARTESIAN_POINT('',(57.43,0.,-73.15));
#706=CARTESIAN_POINT('Origin',(63.73,0.,-73.15));
#707=CARTESIAN_POINT('',(63.73,0.,-73.15));
#708=CARTESIAN_POINT('',(57.43,0.,-73.15));
#709=CARTESIAN_POINT('',(63.73,0.,-73.15));
#710=CARTESIAN_POINT('Origin',(63.73,0.,-65.15));
#711=CARTESIAN_POINT('',(63.73,0.,-65.15));
#712=CARTESIAN_POINT('',(63.73,0.,-73.15));
#713=CARTESIAN_POINT('',(63.73,0.,-65.15));
#714=CARTESIAN_POINT('Origin',(72.15,0.,-65.15));
#715=CARTESIAN_POINT('',(72.15,0.,-65.15));
#716=CARTESIAN_POINT('',(63.73,0.,-65.15));
#717=CARTESIAN_POINT('',(72.15,0.,-65.15));
#718=CARTESIAN_POINT('Origin',(72.15,0.,-73.15));
#719=CARTESIAN_POINT('',(72.15,0.,-73.15));
#720=CARTESIAN_POINT('',(72.15,0.,-73.15));
#721=CARTESIAN_POINT('',(72.15,0.,-73.15));
#722=CARTESIAN_POINT('Origin',(76.75,0.,-73.15));
#723=CARTESIAN_POINT('',(76.75,0.,-73.15));
#724=CARTESIAN_POINT('',(76.75,0.,-73.15));
#725=CARTESIAN_POINT('',(76.75,0.,-73.15));
#726=CARTESIAN_POINT('Origin',(76.75,0.,-65.15));
#727=CARTESIAN_POINT('',(76.75,0.,-65.15));
#728=CARTESIAN_POINT('',(76.75,0.,-65.15));
#729=CARTESIAN_POINT('',(76.75,0.,-65.15));
#730=CARTESIAN_POINT('Origin',(80.15,0.,-65.15));
#731=CARTESIAN_POINT('',(80.15,0.,-65.15));
#732=CARTESIAN_POINT('',(80.15,0.,-65.15));
#733=CARTESIAN_POINT('',(80.15,0.,-65.15));
#734=CARTESIAN_POINT('Origin',(80.15,0.,-25.));
#735=CARTESIAN_POINT('',(80.15,0.,-25.));
#736=CARTESIAN_POINT('',(80.15,0.,-25.));
#737=CARTESIAN_POINT('',(80.15,0.,-25.));
#738=CARTESIAN_POINT('Origin',(0.,0.,-25.));
#739=CARTESIAN_POINT('',(0.,0.,-25.));
#740=CARTESIAN_POINT('Origin',(40.075,0.,-49.075));
#741=UNCERTAINTY_MEASURE_WITH_UNIT(LENGTH_MEASURE(0.01),#745,
'DISTANCE_ACCURACY_VALUE',
'Maximum model space distance between geometric entities at asserted c
onnectivities');
#742=UNCERTAINTY_MEASURE_WITH_UNIT(LENGTH_MEASURE(0.01),#745,
'DISTANCE_ACCURACY_VALUE',
'Maximum model space distance between geometric entities at asserted c
onnectivities');
#743=(
GEOMETRIC_REPRESENTATION_CONTEXT(3)
GLOBAL_UNCERTAINTY_ASSIGNED_CONTEXT((#741))
GLOBAL_UNIT_ASSIGNED_CONTEXT((#745,#747,#748))
REPRESENTATION_CONTEXT('','3D')
);
#744=(
GEOMETRIC_REPRESENTATION_CONTEXT(3)
GLOBAL_UNCERTAINTY_ASSIGNED_CONTEXT((#742))
GLOBAL_UNIT_ASSIGNED_CONTEXT((#745,#747,#748))
REPRESENTATION_CONTEXT('','3D')
);
#745=(
LENGTH_UNIT()
NAMED_UNIT(*)
SI_UNIT(.MILLI.,.METRE.)
);
#746=(
LENGTH_UNIT()
NAMED_UNIT(*)
SI_UNIT($,.METRE.)
);
#747=(
NAMED_UNIT(*)
PLANE_ANGLE_UNIT()
SI_UNIT($,.RADIAN.)
);
#748=(
NAMED_UNIT(*)
SI_UNIT($,.STERADIAN.)
SOLID_ANGLE_UNIT()
);
#749=SHAPE_DEFINITION_REPRESENTATION(#750,#751);
#750=PRODUCT_DEFINITION_SHAPE('',$,#753);
#751=SHAPE_REPRESENTATION('',(#477),#743);
#752=PRODUCT_DEFINITION_CONTEXT('part definition',#757,'design');
#753=PRODUCT_DEFINITION('SolarCell','SolarCell v1',#754,#752);
#754=PRODUCT_DEFINITION_FORMATION('',$,#759);
#755=PRODUCT_RELATED_PRODUCT_CATEGORY('SolarCell v1','SolarCell v1',(#759));
#756=APPLICATION_PROTOCOL_DEFINITION('international standard',
'automotive_design',2009,#757);
#757=APPLICATION_CONTEXT(
'Core Data for Automotive Mechanical Design Process');
#758=PRODUCT_CONTEXT('part definition',#757,'mechanical');
#759=PRODUCT('SolarCell','SolarCell v1',$,(#758));
#760=PRESENTATION_STYLE_ASSIGNMENT((#761));
#761=SURFACE_STYLE_USAGE(.BOTH.,#762);
#762=SURFACE_SIDE_STYLE('',(#763));
#763=SURFACE_STYLE_FILL_AREA(#764);
#764=FILL_AREA_STYLE('Steel - Satin',(#765));
#765=FILL_AREA_STYLE_COLOUR('Steel - Satin',#766);
#766=COLOUR_RGB('Steel - Satin',0.627450980392157,0.627450980392157,0.627450980392157);
ENDSEC;
END-ISO-10303-21;
