  0
SECTION
  2
HEADER
  9
$ANGBASE
  50
0.0
  9
$ANGDIR
  70
1
  9
$MEASUREMENT
  70
0
  0
ENDSEC
  0
SECTION
  2
TABLES
  0
TABLE
  2
LTYPE
  70
4
  0
LTYPE
  5
40F
  2
CONTINUOUS
  70
0
  3
Solid line
  72
65
  73
0
  40
0.0
  0
LTYPE
  5
410
  2
DASHDOT
 70
0
  3
Dash Dot ____ _ ____ _
 72
65
 73
4
 40
2.0
 49
1.25
 49
-0.25
 49
0.25
 49
-0.25
  0
LTYPE
  5
411
  2
DASHED
 70
0
  3
Dashed __ __ __ __ __
 72
65
 73
2
 40
0.75
 49
0.5
 49
-0.25
  0
LTYPE
  5
43B
  2
DOTTED
 70
0
  3
Dotted .  .  .  .
 72
65
 73
2
 40
0.2
 49
0.0
 49
-0.2
  0
ENDTAB
  0
TABLE
  2
STYLE
  70
4
  0
STYLE
  2
KICAD
  70
0
  40
0
  41
1
  42
1
  50
0
  71
0
  3
isocp.shx
  0
STYLE
  2
KICADB
  70
0
  40
0
  41
1
  42
1
  50
0
  71
0
  3
isocp.shx
  0
STYLE
  2
KICADI
  70
0
  40
0
  41
1
  42
1
  50
15
  71
0
  3
isocp.shx
  0
STYLE
  2
KICADBI
  70
0
  40
0
  41
1
  42
1
  50
15
  71
0
  3
isocp.shx
  0
ENDTAB
  0
TABLE
  2
LAYER
  70
1
  0
LAYER
  2
BLACK
  70
0
  62
7
  6
CONTINUOUS
  0
ENDTAB
  0
ENDSEC
  0
SECTION
  2
ENTITIES
0
LINE
8
BLACK
6
CONTINUOUS
10
6.1173081102362206
20
-10.8153107874015753
11
6.117779015748031
21
-10.8159175590551175
0
LINE
8
BLACK
6
CONTINUOUS
10
6.117779015748031
20
-10.8159175590551175
11
6.1195109448818892
21
-10.819381417322834
0
LINE
8
BLACK
6
CONTINUOUS
10
6.1195109448818892
20
-10.819381417322834
11
6.1228966141732286
21
-10.8227670866141725
0
LINE
8
BLACK
6
CONTINUOUS
10
6.1228966141732286
20
-10.8227670866141725
11
6.128358858267716
21
-10.8264086220472446
0
LINE
8
BLACK
6
CONTINUOUS
10
6.128358858267716
20
-10.8264086220472446
11
6.1289025196850391
21
-10.8269511417322839
0
LINE
8
BLACK
6
CONTINUOUS
10
6.1289025196850391
20
-10.8269511417322839
11
6.1289422440944881
21
-10.8271498425196846
0
LINE
8
BLACK
6
CONTINUOUS
10
6.1289422440944881
20
-10.8271498425196846
11
6.1290855905511812
21
-10.8272931889763768
0
LINE
8
BLACK
6
CONTINUOUS
10
6.1290855905511812
20
-10.8272931889763768
11
6.1290855905511812
21
-10.8278663779527555
0
LINE
8
BLACK
6
CONTINUOUS
10
6.1290855905511812
20
-10.8278663779527555
11
6.1291980314960632
21
-10.828428543307087
0
LINE
8
BLACK
6
CONTINUOUS
10
6.1291980314960632
20
-10.828428543307087
11
6.1290855905511812
21
-10.8285971653543296
0
LINE
8
BLACK
6
CONTINUOUS
10
6.1290855905511812
20
-10.8285971653543296
11
6.1290855905511812
21
-10.8287998031496056
0
LINE
8
BLACK
6
CONTINUOUS
10
6.1290855905511812
20
-10.8287998031496056
11
6.1286802755905514
21
-10.8292050787401575
0
LINE
8
BLACK
6
CONTINUOUS
10
6.1286802755905514
20
-10.8292050787401575
11
6.1283622834645666
21
-10.8296820866141736
0
LINE
8
BLACK
6
CONTINUOUS
10
6.1283622834645666
20
-10.8296820866141736
11
6.1281635433070862
21
-10.8297218110236226
0
LINE
8
BLACK
6
CONTINUOUS
10
6.1281635433070862
20
-10.8297218110236226
11
6.1280202362204719
21
-10.8298651574803149
0
LINE
8
BLACK
6
CONTINUOUS
10
6.1280202362204719
20
-10.8298651574803149
11
6.1272669291338584
21
-10.8300149999999995
0
LINE
8
BLACK
6
CONTINUOUS
10
6.1272669291338584
20
-10.8300149999999995
11
6.0898653543307084
21
-10.8300149999999995
0
LINE
8
BLACK
6
CONTINUOUS
10
6.0898653543307084
20
-10.8300149999999995
11
6.0898653543307084
21
-10.8392950787401574
0
LINE
8
BLACK
6
CONTINUOUS
10
6.0898653543307084
20
-10.8392950787401574
11
6.0897155118110238
21
-10.8400483858267709
0
LINE
8
BLACK
6
CONTINUOUS
10
6.0897155118110238
20
-10.8400483858267709
11
6.0886501574803145
21
-10.8411137401574802
0
LINE
8
BLACK
6
CONTINUOUS
10
6.0886501574803145
20
-10.8411137401574802
11
6.0871435433070866
21
-10.8411137401574802
0
LINE
8
BLACK
6
CONTINUOUS
10
6.0871435433070866
20
-10.8411137401574802
11
6.0860781889763782
21
-10.8400483858267709
0
LINE
8
BLACK
6
CONTINUOUS
10
6.0860781889763782
20
-10.8400483858267709
11
6.0859283464566927
21
-10.8392950787401574
0
LINE
8
BLACK
6
CONTINUOUS
10
6.0859283464566927
20
-10.8392950787401574
11
6.0859283464566927
21
-10.8167979133858267
0
LINE
8
BLACK
6
CONTINUOUS
10
6.0859283464566927
20
-10.8167979133858267
11
6.0860781889763782
21
-10.8160446062992115
0
LINE
8
BLACK
6
CONTINUOUS
10
6.0860781889763782
20
-10.8160446062992115
11
6.0871435433070866
21
-10.814979251968504
0
LINE
8
BLACK
6
CONTINUOUS
10
6.0871435433070866
20
-10.814979251968504
11
6.0886501574803145
21
-10.814979251968504
0
LINE
8
BLACK
6
CONTINUOUS
10
6.0886501574803145
20
-10.814979251968504
11
6.0897155118110238
21
-10.8160446062992115
0
LINE
8
BLACK
6
CONTINUOUS
10
6.0897155118110238
20
-10.8160446062992115
11
6.0898653543307084
21
-10.8167979133858267
0
LINE
8
BLACK
6
CONTINUOUS
10
6.0898653543307084
20
-10.8167979133858267
11
6.0898653543307084
21
-10.8260779921259847
0
LINE
8
BLACK
6
CONTINUOUS
10
6.0898653543307084
20
-10.8260779921259847
11
6.1207653937007871
21
-10.8260779921259847
0
LINE
8
BLACK
6
CONTINUOUS
10
6.1207653937007871
20
-10.8260779921259847
11
6.1205507086614173
21
-10.8259348818897632
0
LINE
8
BLACK
6
CONTINUOUS
10
6.1205507086614173
20
-10.8259348818897632
11
6.1204126377952752
21
-10.8257970866141733
0
LINE
8
BLACK
6
CONTINUOUS
10
6.1204126377952752
20
-10.8257970866141733
11
6.1202507086614171
21
-10.8256888976377947
0
LINE
8
BLACK
6
CONTINUOUS
10
6.1202507086614171
20
-10.8256888976377947
11
6.116501181102362
21
-10.8219393700787396
0
LINE
8
BLACK
6
CONTINUOUS
10
6.116501181102362
20
-10.8219393700787396
11
6.1163259055118111
21
-10.8216770866141729
0
LINE
8
BLACK
6
CONTINUOUS
10
6.1163259055118111
20
-10.8216770866141729
11
6.1161324015748031
21
-10.8214277559055123
0
LINE
8
BLACK
6
CONTINUOUS
10
6.1161324015748031
20
-10.8214277559055123
11
6.1142576771653543
21
-10.817678267716536
0
LINE
8
BLACK
6
CONTINUOUS
10
6.1142576771653543
20
-10.817678267716536
11
6.1140548031496058
21
-10.8169374803149605
0
LINE
8
BLACK
6
CONTINUOUS
10
6.1140548031496058
20
-10.8169374803149605
11
6.1145312204724407
21
-10.8155081496062984
0
LINE
8
BLACK
6
CONTINUOUS
10
6.1145312204724407
20
-10.8155081496062984
11
6.1158787795275593
21
-10.8148343700787404
0
LINE
8
BLACK
6
CONTINUOUS
10
6.1158787795275593
20
-10.8148343700787404
11
6.1173081102362206
21
-10.8153107874015753
0
LINE
8
BLACK
6
CONTINUOUS
10
6.1173081102362206
20
-10.7778154724409454
11
6.117779015748031
21
-10.7784222440944877
0
LINE
8
BLACK
6
CONTINUOUS
10
6.117779015748031
20
-10.7784222440944877
11
6.1195109448818892
21
-10.7818861023622041
0
LINE
8
BLACK
6
CONTINUOUS
10
6.1195109448818892
20
-10.7818861023622041
11
6.1228966141732286
21
-10.7852717716535427
0
LINE
8
BLACK
6
CONTINUOUS
10
6.1228966141732286
20
-10.7852717716535427
11
6.128358858267716
21
-10.7889133070866148
0
LINE
8
BLACK
6
CONTINUOUS
10
6.128358858267716
20
-10.7889133070866148
11
6.1289025196850391
21
-10.789455826771654
0
LINE
8
BLACK
6
CONTINUOUS
10
6.1289025196850391
20
-10.789455826771654
11
6.1289422440944881
21
-10.7896545275590547
0
LINE
8
BLACK
6
CONTINUOUS
10
6.1289422440944881
20
-10.7896545275590547
11
6.1290855905511812
21
-10.789797874015747
0
LINE
8
BLACK
6
CONTINUOUS
10
6.1290855905511812
20
-10.789797874015747
11
6.1290855905511812
21
-10.7903710629921257
0
LINE
8
BLACK
6
CONTINUOUS
10
6.1290855905511812
20
-10.7903710629921257
11
6.1291980314960632
21
-10.7909332283464572
0
LINE
8
BLACK
6
CONTINUOUS
10
6.1291980314960632
20
-10.7909332283464572
11
6.1290855905511812
21
-10.7911018503936997
0
LINE
8
BLACK
6
CONTINUOUS
10
6.1290855905511812
20
-10.7911018503936997
11
6.1290855905511812
21
-10.7913044881889757
0
LINE
8
BLACK
6
CONTINUOUS
10
6.1290855905511812
20
-10.7913044881889757
11
6.1286802755905514
21
-10.7917097637795276
0
LINE
8
BLACK
6
CONTINUOUS
10
6.1286802755905514
20
-10.7917097637795276
11
6.1283622834645666
21
-10.7921867716535438
0
LINE
8
BLACK
6
CONTINUOUS
10
6.1283622834645666
20
-10.7921867716535438
11
6.1281635433070862
21
-10.792226496062991
0
LINE
8
BLACK
6
CONTINUOUS
10
6.1281635433070862
20
-10.792226496062991
11
6.1280202362204719
21
-10.792369842519685
0
LINE
8
BLACK
6
CONTINUOUS
10
6.1280202362204719
20
-10.792369842519685
11
6.1272669291338584
21
-10.7925196850393696
0
LINE
8
BLACK
6
CONTINUOUS
10
6.1272669291338584
20
-10.7925196850393696
11
6.0898653543307084
21
-10.7925196850393696
0
LINE
8
BLACK
6
CONTINUOUS
10
6.0898653543307084
20
-10.7925196850393696
11
6.0898653543307084
21
-10.8017997637795276
0
LINE
8
BLACK
6
CONTINUOUS
10
6.0898653543307084
20
-10.8017997637795276
11
6.0897155118110238
21
-10.802553070866141
0
LINE
8
BLACK
6
CONTINUOUS
10
6.0897155118110238
20
-10.802553070866141
11
6.0886501574803145
21
-10.8036184251968503
0
LINE
8
BLACK
6
CONTINUOUS
10
6.0886501574803145
20
-10.8036184251968503
11
6.0871435433070866
21
-10.8036184251968503
0
LINE
8
BLACK
6
CONTINUOUS
10
6.0871435433070866
20
-10.8036184251968503
11
6.0860781889763782
21
-10.802553070866141
0
LINE
8
BLACK
6
CONTINUOUS
10
6.0860781889763782
20
-10.802553070866141
11
6.0859283464566927
21
-10.8017997637795276
0
LINE
8
BLACK
6
CONTINUOUS
10
6.0859283464566927
20
-10.8017997637795276
11
6.0859283464566927
21
-10.7793025984251969
0
LINE
8
BLACK
6
CONTINUOUS
10
6.0859283464566927
20
-10.7793025984251969
11
6.0860781889763782
21
-10.7785492913385816
0
LINE
8
BLACK
6
CONTINUOUS
10
6.0860781889763782
20
-10.7785492913385816
11
6.0871435433070866
21
-10.7774839370078741
0
LINE
8
BLACK
6
CONTINUOUS
10
6.0871435433070866
20
-10.7774839370078741
11
6.0886501574803145
21
-10.7774839370078741
0
LINE
8
BLACK
6
CONTINUOUS
10
6.0886501574803145
20
-10.7774839370078741
11
6.0897155118110238
21
-10.7785492913385816
0
LINE
8
BLACK
6
CONTINUOUS
10
6.0897155118110238
20
-10.7785492913385816
11
6.0898653543307084
21
-10.7793025984251969
0
LINE
8
BLACK
6
CONTINUOUS
10
6.0898653543307084
20
-10.7793025984251969
11
6.0898653543307084
21
-10.7885826771653548
0
LINE
8
BLACK
6
CONTINUOUS
10
6.0898653543307084
20
-10.7885826771653548
11
6.1207653937007871
21
-10.7885826771653548
0
LINE
8
BLACK
6
CONTINUOUS
10
6.1207653937007871
20
-10.7885826771653548
11
6.1205507086614173
21
-10.7884395669291333
0
LINE
8
BLACK
6
CONTINUOUS
10
6.1205507086614173
20
-10.7884395669291333
11
6.1204126377952752
21
-10.7883017716535434
0
LINE
8
BLACK
6
CONTINUOUS
10
6.1204126377952752
20
-10.7883017716535434
11
6.1202507086614171
21
-10.7881935826771649
0
LINE
8
BLACK
6
CONTINUOUS
10
6.1202507086614171
20
-10.7881935826771649
11
6.116501181102362
21
-10.7844440551181098
0
LINE
8
BLACK
6
CONTINUOUS
10
6.116501181102362
20
-10.7844440551181098
11
6.1163259055118111
21
-10.7841817716535431
0
LINE
8
BLACK
6
CONTINUOUS
10
6.1163259055118111
20
-10.7841817716535431
11
6.1161324015748031
21
-10.7839324409448825
0
LINE
8
BLACK
6
CONTINUOUS
10
6.1161324015748031
20
-10.7839324409448825
11
6.1142576771653543
21
-10.7801829527559061
0
LINE
8
BLACK
6
CONTINUOUS
10
6.1142576771653543
20
-10.7801829527559061
11
6.1140548031496058
21
-10.7794421653543306
0
LINE
8
BLACK
6
CONTINUOUS
10
6.1140548031496058
20
-10.7794421653543306
11
6.1145312204724407
21
-10.7780128346456685
0
LINE
8
BLACK
6
CONTINUOUS
10
6.1145312204724407
20
-10.7780128346456685
11
6.1158787795275593
21
-10.7773390551181105
0
LINE
8
BLACK
6
CONTINUOUS
10
6.1158787795275593
20
-10.7773390551181105
11
6.1173081102362206
21
-10.7778154724409454
0
LINE
8
BLACK
6
CONTINUOUS
10
6.1106306299212596
20
-10.7380110629921255
11
6.110871496062992
21
-10.7380227952755902
0
LINE
8
BLACK
6
CONTINUOUS
10
6.110871496062992
20
-10.7380227952755902
11
6.1183705511811022
21
-10.7398975590551178
0
LINE
8
BLACK
6
CONTINUOUS
10
6.1183705511811022
20
-10.7398975590551178
11
6.1185655118110231
21
-10.7399896456692918
0
LINE
8
BLACK
6
CONTINUOUS
10
6.1185655118110231
20
-10.7399896456692918
11
6.1187734645669289
21
-10.7400466141732274
0
LINE
8
BLACK
6
CONTINUOUS
10
6.1187734645669289
20
-10.7400466141732274
11
6.1225229527559053
21
-10.7419213385826762
0
LINE
8
BLACK
6
CONTINUOUS
10
6.1225229527559053
20
-10.7419213385826762
11
6.1227722834645668
21
-10.7421148425196851
0
LINE
8
BLACK
6
CONTINUOUS
10
6.1227722834645668
20
-10.7421148425196851
11
6.1230345669291335
21
-10.7422901181102368
0
LINE
8
BLACK
6
CONTINUOUS
10
6.1230345669291335
20
-10.7422901181102368
11
6.1267840944881886
21
-10.7460396456692919
0
LINE
8
BLACK
6
CONTINUOUS
10
6.1267840944881886
20
-10.7460396456692919
11
6.1268388188976379
21
-10.7461215748031496
0
LINE
8
BLACK
6
CONTINUOUS
10
6.1268388188976379
20
-10.7461215748031496
11
6.1268792913385823
21
-10.7461418110236213
0
LINE
8
BLACK
6
CONTINUOUS
10
6.1268792913385823
20
-10.7461418110236213
11
6.1270355905511806
21
-10.7464160236220465
0
LINE
8
BLACK
6
CONTINUOUS
10
6.1270355905511806
20
-10.7464160236220465
11
6.1272108267716536
21
-10.7466782677165344
0
LINE
8
BLACK
6
CONTINUOUS
10
6.1272108267716536
20
-10.7466782677165344
11
6.1272108267716536
21
-10.7467234251968495
0
LINE
8
BLACK
6
CONTINUOUS
10
6.1272108267716536
20
-10.7467234251968495
11
6.1272596456692909
21
-10.7468090944881887
0
LINE
8
BLACK
6
CONTINUOUS
10
6.1272596456692909
20
-10.7468090944881887
11
6.1291344094488185
21
-10.7524333464566926
0
LINE
8
BLACK
6
CONTINUOUS
10
6.1291344094488185
20
-10.7524333464566926
11
6.1291738582677162
21
-10.7527463385826767
0
LINE
8
BLACK
6
CONTINUOUS
10
6.1291738582677162
20
-10.7527463385826767
11
6.1292354330708658
21
-10.7530558661417324
0
LINE
8
BLACK
6
CONTINUOUS
10
6.1292354330708658
20
-10.7530558661417324
11
6.1292354330708658
21
-10.7568053937007875
0
LINE
8
BLACK
6
CONTINUOUS
10
6.1292354330708658
20
-10.7568053937007875
11
6.1291738582677162
21
-10.7571148818897644
0
LINE
8
BLACK
6
CONTINUOUS
10
6.1291738582677162
20
-10.7571148818897644
11
6.1291344094488185
21
-10.7574279133858273
0
LINE
8
BLACK
6
CONTINUOUS
10
6.1291344094488185
20
-10.7574279133858273
11
6.1272596456692909
21
-10.7630521653543312
0
LINE
8
BLACK
6
CONTINUOUS
10
6.1272596456692909
20
-10.7630521653543312
11
6.1272108267716536
21
-10.7631377952755898
0
LINE
8
BLACK
6
CONTINUOUS
10
6.1272108267716536
20
-10.7631377952755898
11
6.1272108267716536
21
-10.7631830314960624
0
LINE
8
BLACK
6
CONTINUOUS
10
6.1272108267716536
20
-10.7631830314960624
11
6.1270354330708656
21
-10.7634454724409441
0
LINE
8
BLACK
6
CONTINUOUS
10
6.1270354330708656
20
-10.7634454724409441
11
6.1268792913385823
21
-10.7637194488188968
0
LINE
8
BLACK
6
CONTINUOUS
10
6.1268792913385823
20
-10.7637194488188968
11
6.1268388582677167
21
-10.7637396456692915
0
LINE
8
BLACK
6
CONTINUOUS
10
6.1268388582677167
20
-10.7637396456692915
11
6.1267840944881886
21
-10.7638216535433067
0
LINE
8
BLACK
6
CONTINUOUS
10
6.1267840944881886
20
-10.7638216535433067
11
6.1249093307086611
21
-10.7656963779527555
0
LINE
8
BLACK
6
CONTINUOUS
10
6.1249093307086611
20
-10.7656963779527555
11
6.1242707086614168
21
-10.7661231102362205
0
LINE
8
BLACK
6
CONTINUOUS
10
6.1242707086614168
20
-10.7661231102362205
11
6.1227640944881889
21
-10.7661231102362205
0
LINE
8
BLACK
6
CONTINUOUS
10
6.1227640944881889
20
-10.7661231102362205
11
6.1216987401574805
21
-10.7650577559055112
0
LINE
8
BLACK
6
CONTINUOUS
10
6.1216987401574805
20
-10.7650577559055112
11
6.1216987401574805
21
-10.7635511417322824
0
LINE
8
BLACK
6
CONTINUOUS
10
6.1216987401574805
20
-10.7635511417322824
11
6.1221254724409446
21
-10.7629125196850399
0
LINE
8
BLACK
6
CONTINUOUS
10
6.1221254724409446
20
-10.7629125196850399
11
6.1236716141732286
21
-10.7613662992125985
0
LINE
8
BLACK
6
CONTINUOUS
10
6.1236716141732286
20
-10.7613662992125985
11
6.1252984251968501
21
-10.7564859842519684
0
LINE
8
BLACK
6
CONTINUOUS
10
6.1252984251968501
20
-10.7564859842519684
11
6.1252984251968501
21
-10.7533752755905514
0
LINE
8
BLACK
6
CONTINUOUS
10
6.1252984251968501
20
-10.7533752755905514
11
6.1236716141732286
21
-10.7484948818897639
0
LINE
8
BLACK
6
CONTINUOUS
10
6.1236716141732286
20
-10.7484948818897639
11
6.1204766141732279
21
-10.745299881889764
0
LINE
8
BLACK
6
CONTINUOUS
10
6.1204766141732279
20
-10.745299881889764
11
6.1172060629921257
21
-10.7436646062992125
0
LINE
8
BLACK
6
CONTINUOUS
10
6.1172060629921257
20
-10.7436646062992125
11
6.1101517322834642
21
-10.7419010236220469
0
LINE
8
BLACK
6
CONTINUOUS
10
6.1101517322834642
20
-10.7419010236220469
11
6.1050120866141731
21
-10.7419010236220469
0
LINE
8
BLACK
6
CONTINUOUS
10
6.1050120866141731
20
-10.7419010236220469
11
6.0979577952755903
21
-10.7436645669291337
0
LINE
8
BLACK
6
CONTINUOUS
10
6.0979577952755903
20
-10.7436645669291337
11
6.0946871653543306
21
-10.745299881889764
0
LINE
8
BLACK
6
CONTINUOUS
10
6.0946871653543306
20
-10.745299881889764
11
6.0914921653543308
21
-10.7484948818897639
0
LINE
8
BLACK
6
CONTINUOUS
10
6.0914921653543308
20
-10.7484948818897639
11
6.0898653543307084
21
-10.7533753149606301
0
LINE
8
BLACK
6
CONTINUOUS
10
6.0898653543307084
20
-10.7533753149606301
11
6.0898653543307084
21
-10.7564859055118109
0
LINE
8
BLACK
6
CONTINUOUS
10
6.0898653543307084
20
-10.7564859055118109
11
6.0914921653543308
21
-10.7613663385826772
0
LINE
8
BLACK
6
CONTINUOUS
10
6.0914921653543308
20
-10.7613663385826772
11
6.0930383464566926
21
-10.7629124803149612
0
LINE
8
BLACK
6
CONTINUOUS
10
6.0930383464566926
20
-10.7629124803149612
11
6.0934650787401576
21
-10.7635511023622037
0
LINE
8
BLACK
6
CONTINUOUS
10
6.0934650787401576
20
-10.7635511023622037
11
6.0934650787401576
21
-10.7650577559055112
0
LINE
8
BLACK
6
CONTINUOUS
10
6.0934650787401576
20
-10.7650577559055112
11
6.0923997244094483
21
-10.7661231102362205
0
LINE
8
BLACK
6
CONTINUOUS
10
6.0923997244094483
20
-10.7661231102362205
11
6.0908930708661417
21
-10.7661231102362205
0
LINE
8
BLACK
6
CONTINUOUS
10
6.0908930708661417
20
-10.7661231102362205
11
6.0902544488188974
21
-10.7656963779527555
0
LINE
8
BLACK
6
CONTINUOUS
10
6.0902544488188974
20
-10.7656963779527555
11
6.0883797244094486
21
-10.7638216141732279
0
LINE
8
BLACK
6
CONTINUOUS
10
6.0883797244094486
20
-10.7638216141732279
11
6.0883249606299215
21
-10.7637396456692915
0
LINE
8
BLACK
6
CONTINUOUS
10
6.0883249606299215
20
-10.7637396456692915
11
6.0882845275590549
21
-10.7637194488188968
0
LINE
8
BLACK
6
CONTINUOUS
10
6.0882845275590549
20
-10.7637194488188968
11
6.0881281496062991
21
-10.7634451181102353
0
LINE
8
BLACK
6
CONTINUOUS
10
6.0881281496062991
20
-10.7634451181102353
11
6.0879529921259845
21
-10.7631829921259836
0
LINE
8
BLACK
6
CONTINUOUS
10
6.0879529921259845
20
-10.7631829921259836
11
6.0879529921259845
21
-10.7631378346456685
0
LINE
8
BLACK
6
CONTINUOUS
10
6.0879529921259845
20
-10.7631378346456685
11
6.0879041732283463
21
-10.7630522047244099
0
LINE
8
BLACK
6
CONTINUOUS
10
6.0879041732283463
20
-10.7630522047244099
11
6.08602937007874
21
-10.7574279133858273
0
LINE
8
BLACK
6
CONTINUOUS
10
6.08602937007874
20
-10.7574279133858273
11
6.0859898818897635
21
-10.7571148818897644
0
LINE
8
BLACK
6
CONTINUOUS
10
6.0859898818897635
20
-10.7571148818897644
11
6.0859283464566927
21
-10.7568053937007875
0
LINE
8
BLACK
6
CONTINUOUS
10
6.0859283464566927
20
-10.7568053937007875
11
6.0859283464566927
21
-10.7530558661417324
0
LINE
8
BLACK
6
CONTINUOUS
10
6.0859283464566927
20
-10.7530558661417324
11
6.0859898818897635
21
-10.7527463385826767
0
LINE
8
BLACK
6
CONTINUOUS
10
6.0859898818897635
20
-10.7527463385826767
11
6.08602937007874
21
-10.7524333464566926
0
LINE
8
BLACK
6
CONTINUOUS
10
6.08602937007874
20
-10.7524333464566926
11
6.0879041732283463
21
-10.7468090551181099
0
LINE
8
BLACK
6
CONTINUOUS
10
6.0879041732283463
20
-10.7468090551181099
11
6.0879529921259845
21
-10.7467233858267708
0
LINE
8
BLACK
6
CONTINUOUS
10
6.0879529921259845
20
-10.7467233858267708
11
6.0879529921259845
21
-10.7466782677165344
0
LINE
8
BLACK
6
CONTINUOUS
10
6.0879529921259845
20
-10.7466782677165344
11
6.0881281496062991
21
-10.746416102362204
0
LINE
8
BLACK
6
CONTINUOUS
10
6.0881281496062991
20
-10.746416102362204
11
6.0882845275590549
21
-10.7461418110236213
0
LINE
8
BLACK
6
CONTINUOUS
10
6.0882845275590549
20
-10.7461418110236213
11
6.0883249606299215
21
-10.7461215748031496
0
LINE
8
BLACK
6
CONTINUOUS
10
6.0883249606299215
20
-10.7461215748031496
11
6.0883797244094486
21
-10.7460396456692919
0
LINE
8
BLACK
6
CONTINUOUS
10
6.0883797244094486
20
-10.7460396456692919
11
6.0921292519685037
21
-10.7422901181102368
0
LINE
8
BLACK
6
CONTINUOUS
10
6.0921292519685037
20
-10.7422901181102368
11
6.0923914173228342
21
-10.7421148818897638
0
LINE
8
BLACK
6
CONTINUOUS
10
6.0923914173228342
20
-10.7421148818897638
11
6.0926408267716532
21
-10.7419213779527549
0
LINE
8
BLACK
6
CONTINUOUS
10
6.0926408267716532
20
-10.7419213779527549
11
6.0963903543307083
21
-10.7400466141732274
0
LINE
8
BLACK
6
CONTINUOUS
10
6.0963903543307083
20
-10.7400466141732274
11
6.0965982677165353
21
-10.7399896456692918
0
LINE
8
BLACK
6
CONTINUOUS
10
6.0965982677165353
20
-10.7399896456692918
11
6.0967932677165351
21
-10.7398975590551178
0
LINE
8
BLACK
6
CONTINUOUS
10
6.0967932677165351
20
-10.7398975590551178
11
6.1042923228346453
21
-10.7380227952755902
0
LINE
8
BLACK
6
CONTINUOUS
10
6.1042923228346453
20
-10.7380227952755902
11
6.1045331496062989
21
-10.7380110629921255
0
LINE
8
BLACK
6
CONTINUOUS
10
6.1045331496062989
20
-10.7380110629921255
11
6.1047697637795277
21
-10.7379640157480321
0
LINE
8
BLACK
6
CONTINUOUS
10
6.1047697637795277
20
-10.7379640157480321
11
6.1103940551181104
21
-10.7379640157480321
0
LINE
8
BLACK
6
CONTINUOUS
10
6.1103940551181104
20
-10.7379640157480321
11
6.1106306299212596
21
-10.7380110629921255
0
LINE
8
BLACK
6
CONTINUOUS
10
6.1198645669291336
20
-10.7004879133858264
11
6.1199074409448819
21
-10.7004736614173233
0
LINE
8
BLACK
6
CONTINUOUS
10
6.1199074409448819
20
-10.7004736614173233
11
6.1202116535433069
21
-10.7005569685039372
0
LINE
8
BLACK
6
CONTINUOUS
10
6.1202116535433069
20
-10.7005569685039372
11
6.1205211811023617
21
-10.7006185433070868
0
LINE
8
BLACK
6
CONTINUOUS
10
6.1205211811023617
20
-10.7006185433070868
11
6.1205531102362203
21
-10.7006504724409446
0
LINE
8
BLACK
6
CONTINUOUS
10
6.1205531102362203
20
-10.7006504724409446
11
6.1206482283464565
21
-10.70067653543307
0
LINE
8
BLACK
6
CONTINUOUS
10
6.1206482283464565
20
-10.70067653543307
11
6.1243977165354329
21
-10.7025512598425188
0
LINE
8
BLACK
6
CONTINUOUS
10
6.1243977165354329
20
-10.7025512598425188
11
6.1246470472440944
21
-10.7027447637795277
0
LINE
8
BLACK
6
CONTINUOUS
10
6.1246470472440944
20
-10.7027447637795277
11
6.1249093307086611
21
-10.7029200393700776
0
LINE
8
BLACK
6
CONTINUOUS
10
6.1249093307086611
20
-10.7029200393700776
11
6.1267840944881886
21
-10.7047947637795264
0
LINE
8
BLACK
6
CONTINUOUS
10
6.1267840944881886
20
-10.7047947637795264
11
6.1269594488188979
21
-10.7050572047244099
0
LINE
8
BLACK
6
CONTINUOUS
10
6.1269594488188979
20
-10.7050572047244099
11
6.1271528346456687
21
-10.7053063779527555
0
LINE
8
BLACK
6
CONTINUOUS
10
6.1271528346456687
20
-10.7053063779527555
11
6.1290275984251963
21
-10.7090559055118106
0
LINE
8
BLACK
6
CONTINUOUS
10
6.1290275984251963
20
-10.7090559055118106
11
6.1290536220472438
21
-10.7091509842519681
0
LINE
8
BLACK
6
CONTINUOUS
10
6.1290536220472438
20
-10.7091509842519681
11
6.1290855905511812
21
-10.7091829527559046
0
LINE
8
BLACK
6
CONTINUOUS
10
6.1290855905511812
20
-10.7091829527559046
11
6.129147125984252
21
-10.7094924409448815
0
LINE
8
BLACK
6
CONTINUOUS
10
6.129147125984252
20
-10.7094924409448815
11
6.1292304724409448
21
-10.7097966929133861
0
LINE
8
BLACK
6
CONTINUOUS
10
6.1292304724409448
20
-10.7097966929133861
11
6.129216181102362
21
-10.7098395275590548
0
LINE
8
BLACK
6
CONTINUOUS
10
6.129216181102362
20
-10.7098395275590548
11
6.1292354330708658
21
-10.7099362598425198
0
LINE
8
BLACK
6
CONTINUOUS
10
6.1292354330708658
20
-10.7099362598425198
11
6.1292354330708658
21
-10.7193100787401576
0
LINE
8
BLACK
6
CONTINUOUS
10
6.1292354330708658
20
-10.7193100787401576
11
6.1291738582677162
21
-10.7196195669291328
0
LINE
8
BLACK
6
CONTINUOUS
10
6.1291738582677162
20
-10.7196195669291328
11
6.1291344094488185
21
-10.7199325984251974
0
LINE
8
BLACK
6
CONTINUOUS
10
6.1291344094488185
20
-10.7199325984251974
11
6.1272596456692909
21
-10.7255568503937013
0
LINE
8
BLACK
6
CONTINUOUS
10
6.1272596456692909
20
-10.7255568503937013
11
6.1268792913385823
21
-10.7262241338582669
0
LINE
8
BLACK
6
CONTINUOUS
10
6.1268792913385823
20
-10.7262241338582669
11
6.1255316929133858
21
-10.7268979133858267
0
LINE
8
BLACK
6
CONTINUOUS
10
6.1255316929133858
20
-10.7268979133858267
11
6.1241024015748033
21
-10.7264214960629918
0
LINE
8
BLACK
6
CONTINUOUS
10
6.1241024015748033
20
-10.7264214960629918
11
6.1234286220472436
21
-10.7250738976377953
0
LINE
8
BLACK
6
CONTINUOUS
10
6.1234286220472436
20
-10.7250738976377953
11
6.1235246850393699
21
-10.7243118897637792
0
LINE
8
BLACK
6
CONTINUOUS
10
6.1235246850393699
20
-10.7243118897637792
11
6.1252984251968501
21
-10.7189906692913386
0
LINE
8
BLACK
6
CONTINUOUS
10
6.1252984251968501
20
-10.7189906692913386
11
6.1252984251968501
21
-10.71040094488189
0
LINE
8
BLACK
6
CONTINUOUS
10
6.1252984251968501
20
-10.71040094488189
11
6.1237743307086614
21
-10.7073527952755896
0
LINE
8
BLACK
6
CONTINUOUS
10
6.1237743307086614
20
-10.7073527952755896
11
6.1223513385826767
21
-10.7059297637795279
0
LINE
8
BLACK
6
CONTINUOUS
10
6.1223513385826767
20
-10.7059297637795279
11
6.119303188976378
21
-10.7044057086614171
0
LINE
8
BLACK
6
CONTINUOUS
10
6.119303188976378
20
-10.7044057086614171
11
6.116483070866142
21
-10.7044057086614171
0
LINE
8
BLACK
6
CONTINUOUS
10
6.116483070866142
20
-10.7044057086614171
11
6.1134348818897637
21
-10.7059297637795279
0
LINE
8
BLACK
6
CONTINUOUS
10
6.1134348818897637
20
-10.7059297637795279
11
6.1120118503937002
21
-10.7073527559055108
0
LINE
8
BLACK
6
CONTINUOUS
10
6.1120118503937002
20
-10.7073527559055108
11
6.1103766141732283
21
-10.7106233070866139
0
LINE
8
BLACK
6
CONTINUOUS
10
6.1103766141732283
20
-10.7106233070866139
11
6.1085542519685037
21
-10.7179127559055107
0
LINE
8
BLACK
6
CONTINUOUS
10
6.1085542519685037
20
-10.7179127559055107
11
6.1084621259842518
21
-10.7181077165354335
0
LINE
8
BLACK
6
CONTINUOUS
10
6.1084621259842518
20
-10.7181077165354335
11
6.1084051968503932
21
-10.7183156692913375
0
LINE
8
BLACK
6
CONTINUOUS
10
6.1084051968503932
20
-10.7183156692913375
11
6.1065304330708656
21
-10.7220651968503926
0
LINE
8
BLACK
6
CONTINUOUS
10
6.1065304330708656
20
-10.7220651968503926
11
6.1063370472440948
21
-10.7223143307086612
0
LINE
8
BLACK
6
CONTINUOUS
10
6.1063370472440948
20
-10.7223143307086612
11
6.1061616929133855
21
-10.7225768110236217
0
LINE
8
BLACK
6
CONTINUOUS
10
6.1061616929133855
20
-10.7225768110236217
11
6.104286929133858
21
-10.7244515354330705
0
LINE
8
BLACK
6
CONTINUOUS
10
6.104286929133858
20
-10.7244515354330705
11
6.1040246456692913
21
-10.7246267716535435
0
LINE
8
BLACK
6
CONTINUOUS
10
6.1040246456692913
20
-10.7246267716535435
11
6.1037753149606297
21
-10.7248203149606294
0
LINE
8
BLACK
6
CONTINUOUS
10
6.1037753149606297
20
-10.7248203149606294
11
6.1000258267716534
21
-10.7266950393700782
0
LINE
8
BLACK
6
CONTINUOUS
10
6.1000258267716534
20
-10.7266950393700782
11
6.0999307086614172
21
-10.7267210629921266
0
LINE
8
BLACK
6
CONTINUOUS
10
6.0999307086614172
20
-10.7267210629921266
11
6.0998987795275585
21
-10.7267530314960631
0
LINE
8
BLACK
6
CONTINUOUS
10
6.0998987795275585
20
-10.7267530314960631
11
6.0995892519685038
21
-10.7268145669291339
0
LINE
8
BLACK
6
CONTINUOUS
10
6.0995892519685038
20
-10.7268145669291339
11
6.0992850393700788
21
-10.7268979133858267
0
LINE
8
BLACK
6
CONTINUOUS
10
6.0992850393700788
20
-10.7268979133858267
11
6.0992421653543305
21
-10.726883622047243
0
LINE
8
BLACK
6
CONTINUOUS
10
6.0992421653543305
20
-10.726883622047243
11
6.0991454724409451
21
-10.7269028740157477
0
LINE
8
BLACK
6
CONTINUOUS
10
6.0991454724409451
20
-10.7269028740157477
11
6.09539594488189
21
-10.7269028740157477
0
LINE
8
BLACK
6
CONTINUOUS
10
6.09539594488189
20
-10.7269028740157477
11
6.0952992125984249
21
-10.726883622047243
0
LINE
8
BLACK
6
CONTINUOUS
10
6.0952992125984249
20
-10.726883622047243
11
6.0952563779527562
21
-10.7268979133858267
0
LINE
8
BLACK
6
CONTINUOUS
10
6.0952563779527562
20
-10.7268979133858267
11
6.0949521259842516
21
-10.7268145669291339
0
LINE
8
BLACK
6
CONTINUOUS
10
6.0949521259842516
20
-10.7268145669291339
11
6.0946426377952756
21
-10.7267530314960631
0
LINE
8
BLACK
6
CONTINUOUS
10
6.0946426377952756
20
-10.7267530314960631
11
6.0946106692913382
21
-10.7267210629921266
0
LINE
8
BLACK
6
CONTINUOUS
10
6.0946106692913382
20
-10.7267210629921266
11
6.0945155905511808
21
-10.7266950393700782
0
LINE
8
BLACK
6
CONTINUOUS
10
6.0945155905511808
20
-10.7266950393700782
11
6.0907660629921256
21
-10.7248202755905506
0
LINE
8
BLACK
6
CONTINUOUS
10
6.0907660629921256
20
-10.7248202755905506
11
6.0905168897637791
21
-10.7246268897637798
0
LINE
8
BLACK
6
CONTINUOUS
10
6.0905168897637791
20
-10.7246268897637798
11
6.0902544488188974
21
-10.7244515354330705
0
LINE
8
BLACK
6
CONTINUOUS
10
6.0902544488188974
20
-10.7244515354330705
11
6.0883797244094486
21
-10.7225767716535429
0
LINE
8
BLACK
6
CONTINUOUS
10
6.0883797244094486
20
-10.7225767716535429
11
6.0882044881889765
21
-10.7223145669291338
0
LINE
8
BLACK
6
CONTINUOUS
10
6.0882044881889765
20
-10.7223145669291338
11
6.0880109842519685
21
-10.7220651968503926
0
LINE
8
BLACK
6
CONTINUOUS
10
6.0880109842519685
20
-10.7220651968503926
11
6.0861361811023622
21
-10.7183156692913375
0
LINE
8
BLACK
6
CONTINUOUS
10
6.0861361811023622
20
-10.7183156692913375
11
6.0861101181102359
21
-10.7182205511811013
0
LINE
8
BLACK
6
CONTINUOUS
10
6.0861101181102359
20
-10.7182205511811013
11
6.0860781889763782
21
-10.7181886220472435
0
LINE
8
BLACK
6
CONTINUOUS
10
6.0860781889763782
20
-10.7181886220472435
11
6.0860166141732286
21
-10.7178790944881879
0
LINE
8
BLACK
6
CONTINUOUS
10
6.0860166141732286
20
-10.7178790944881879
11
6.0859333070866137
21
-10.7175748818897638
0
LINE
8
BLACK
6
CONTINUOUS
10
6.0859333070866137
20
-10.7175748818897638
11
6.0859475590551178
21
-10.7175320078740164
0
LINE
8
BLACK
6
CONTINUOUS
10
6.0859475590551178
20
-10.7175320078740164
11
6.0859283464566927
21
-10.7174353149606301
0
LINE
8
BLACK
6
CONTINUOUS
10
6.0859283464566927
20
-10.7174353149606301
11
6.0859283464566927
21
-10.7080614960629923
0
LINE
8
BLACK
6
CONTINUOUS
10
6.0859283464566927
20
-10.7080614960629923
11
6.0859898818897635
21
-10.7077519685039366
0
LINE
8
BLACK
6
CONTINUOUS
10
6.0859898818897635
20
-10.7077519685039366
11
6.08602937007874
21
-10.7074389763779525
0
LINE
8
BLACK
6
CONTINUOUS
10
6.08602937007874
20
-10.7074389763779525
11
6.0879041732283463
21
-10.7018146850393698
0
LINE
8
BLACK
6
CONTINUOUS
10
6.0879041732283463
20
-10.7018146850393698
11
6.0882845275590549
21
-10.7011474409448812
0
LINE
8
BLACK
6
CONTINUOUS
10
6.0882845275590549
20
-10.7011474409448812
11
6.0896321259842514
21
-10.7004736614173233
0
LINE
8
BLACK
6
CONTINUOUS
10
6.0896321259842514
20
-10.7004736614173233
11
6.0910614173228348
21
-10.7009500787401564
0
LINE
8
BLACK
6
CONTINUOUS
10
6.0910614173228348
20
-10.7009500787401564
11
6.0917351968503937
21
-10.7022976771653546
0
LINE
8
BLACK
6
CONTINUOUS
10
6.0917351968503937
20
-10.7022976771653546
11
6.0916391338582674
21
-10.7030597244094494
0
LINE
8
BLACK
6
CONTINUOUS
10
6.0916391338582674
20
-10.7030597244094494
11
6.0898653543307084
21
-10.7083809448818901
0
LINE
8
BLACK
6
CONTINUOUS
10
6.0898653543307084
20
-10.7083809448818901
11
6.0898653543307084
21
-10.7169705905511812
0
LINE
8
BLACK
6
CONTINUOUS
10
6.0898653543307084
20
-10.7169705905511812
11
6.0913894488188971
21
-10.7200187795275586
0
LINE
8
BLACK
6
CONTINUOUS
10
6.0913894488188971
20
-10.7200187795275586
11
6.0928124803149606
21
-10.7214417716535433
0
LINE
8
BLACK
6
CONTINUOUS
10
6.0928124803149606
20
-10.7214417716535433
11
6.0958606692913389
21
-10.7229658661417329
0
LINE
8
BLACK
6
CONTINUOUS
10
6.0958606692913389
20
-10.7229658661417329
11
6.0986807874015749
21
-10.7229658661417329
0
LINE
8
BLACK
6
CONTINUOUS
10
6.0986807874015749
20
-10.7229658661417329
11
6.1017289370078736
21
-10.7214417716535433
0
LINE
8
BLACK
6
CONTINUOUS
10
6.1017289370078736
20
-10.7214417716535433
11
6.1031519291338583
21
-10.7200187401574798
0
LINE
8
BLACK
6
CONTINUOUS
10
6.1031519291338583
20
-10.7200187401574798
11
6.1047872047244089
21
-10.7167481889763785
0
LINE
8
BLACK
6
CONTINUOUS
10
6.1047872047244089
20
-10.7167481889763785
11
6.1066095669291336
21
-10.7094588188976374
0
LINE
8
BLACK
6
CONTINUOUS
10
6.1066095669291336
20
-10.7094588188976374
11
6.1067016535433067
21
-10.7092638188976377
0
LINE
8
BLACK
6
CONTINUOUS
10
6.1067016535433067
20
-10.7092638188976377
11
6.1067586220472441
21
-10.7090559055118106
0
LINE
8
BLACK
6
CONTINUOUS
10
6.1067586220472441
20
-10.7090559055118106
11
6.1086333464566929
21
-10.7053064173228343
0
LINE
8
BLACK
6
CONTINUOUS
10
6.1086333464566929
20
-10.7053064173228343
11
6.1088268503937009
21
-10.7050570472440949
0
LINE
8
BLACK
6
CONTINUOUS
10
6.1088268503937009
20
-10.7050570472440949
11
6.1090021259842517
21
-10.7047948031496052
0
LINE
8
BLACK
6
CONTINUOUS
10
6.1090021259842517
20
-10.7047948031496052
11
6.1108768503937005
21
-10.7029200393700776
0
LINE
8
BLACK
6
CONTINUOUS
10
6.1108768503937005
20
-10.7029200393700776
11
6.1111392913385822
21
-10.7027446456692914
0
LINE
8
BLACK
6
CONTINUOUS
10
6.1111392913385822
20
-10.7027446456692914
11
6.1113884645669287
21
-10.7025512992125975
0
LINE
8
BLACK
6
CONTINUOUS
10
6.1113884645669287
20
-10.7025512992125975
11
6.1151379921259839
21
-10.70067653543307
0
LINE
8
BLACK
6
CONTINUOUS
10
6.1151379921259839
20
-10.70067653543307
11
6.1152330708661413
21
-10.7006504724409446
0
LINE
8
BLACK
6
CONTINUOUS
10
6.1152330708661413
20
-10.7006504724409446
11
6.1152650393700787
21
-10.7006185433070868
0
LINE
8
BLACK
6
CONTINUOUS
10
6.1152650393700787
20
-10.7006185433070868
11
6.1155745275590547
21
-10.7005569685039372
0
LINE
8
BLACK
6
CONTINUOUS
10
6.1155745275590547
20
-10.7005569685039372
11
6.1158787795275593
21
-10.7004736614173233
0
LINE
8
BLACK
6
CONTINUOUS
10
6.1158787795275593
20
-10.7004736614173233
11
6.115921614173228
21
-10.7004879133858264
0
LINE
8
BLACK
6
CONTINUOUS
10
6.115921614173228
20
-10.7004879133858264
11
6.1160183464566931
21
-10.7004687007874022
0
LINE
8
BLACK
6
CONTINUOUS
10
6.1160183464566931
20
-10.7004687007874022
11
6.1197678740157482
21
-10.7004687007874022
0
LINE
8
BLACK
6
CONTINUOUS
10
6.1197678740157482
20
-10.7004687007874022
11
6.1198645669291336
21
-10.7004879133858264
0
LINE
8
BLACK
6
CONTINUOUS
10
6.898031496062992
20
-10.3779527559055111
11
7.3940944881889763
21
-10.3779527559055111
0
LINE
8
BLACK
6
CONTINUOUS
10
7.3940944881889763
20
-10.3779527559055111
11
7.3948477952755907
21
-10.3781025984251958
0
LINE
8
BLACK
6
CONTINUOUS
10
7.3948477952755907
20
-10.3781025984251958
11
7.3959131496062991
21
-10.3791679527559051
0
LINE
8
BLACK
6
CONTINUOUS
10
7.3959131496062991
20
-10.3791679527559051
11
7.3960629921259837
21
-10.3799212598425186
0
LINE
8
BLACK
6
CONTINUOUS
10
7.3960629921259837
20
-10.3799212598425186
11
7.3960629921259837
21
-10.8759842519685037
0
LINE
8
BLACK
6
CONTINUOUS
10
7.3960629921259837
20
-10.8759842519685037
11
7.3960629921259837
21
-11.9547244094488185
0
LINE
8
BLACK
6
CONTINUOUS
10
7.3960629921259837
20
-11.9547244094488185
11
7.3959131496062991
21
-11.955477716535432
0
LINE
8
BLACK
6
CONTINUOUS
10
7.3959131496062991
20
-11.955477716535432
11
7.3948477952755907
21
-11.9565430708661413
0
LINE
8
BLACK
6
CONTINUOUS
10
7.3948477952755907
20
-11.9565430708661413
11
7.3940944881889763
21
-11.956692913385826
0
LINE
8
BLACK
6
CONTINUOUS
10
7.3940944881889763
20
-11.956692913385826
11
4.2444881889763781
21
-11.956692913385826
0
LINE
8
BLACK
6
CONTINUOUS
10
4.2444881889763781
20
-11.956692913385826
11
4.2437348818897638
21
-11.9565430708661413
0
LINE
8
BLACK
6
CONTINUOUS
10
4.2437348818897638
20
-11.9565430708661413
11
4.2426695275590554
21
-11.955477716535432
0
LINE
8
BLACK
6
CONTINUOUS
10
4.2426695275590554
20
-11.955477716535432
11
4.2425196850393698
21
-11.9547244094488185
0
LINE
8
BLACK
6
CONTINUOUS
10
4.2425196850393698
20
-11.9547244094488185
11
4.2425196850393698
21
-10.9311023622047241
0
LINE
8
BLACK
6
CONTINUOUS
10
4.2425196850393698
20
-10.9311023622047241
11
4.2426695275590554
21
-10.9303490551181106
0
LINE
8
BLACK
6
CONTINUOUS
10
4.2426695275590554
20
-10.9303490551181106
11
4.2430962598425195
21
-10.9297104330708663
0
LINE
8
BLACK
6
CONTINUOUS
10
4.2430962598425195
20
-10.9297104330708663
11
4.7942773622047241
21
-10.3785293307086608
0
LINE
8
BLACK
6
CONTINUOUS
10
4.7942773622047241
20
-10.3785293307086608
11
4.7949159842519684
21
-10.3781025984251958
0
LINE
8
BLACK
6
CONTINUOUS
10
4.7949159842519684
20
-10.3781025984251958
11
4.7956692913385828
21
-10.3779527559055111
0
LINE
8
BLACK
6
CONTINUOUS
10
4.7956692913385828
20
-10.3779527559055111
11
6.898031496062992
21
-10.3779527559055111
0
LINE
8
BLACK
6
CONTINUOUS
10
4.7964846456692909
20
-10.3818897637795278
11
4.2464566929133856
21
-10.9319177165354322
0
LINE
8
BLACK
6
CONTINUOUS
10
4.2464566929133856
20
-10.9319177165354322
11
4.2464566929133856
21
-11.9527559055118111
0
LINE
8
BLACK
6
CONTINUOUS
10
4.2464566929133856
20
-11.9527559055118111
11
7.392125984251968
21
-11.9527559055118111
0
LINE
8
BLACK
6
CONTINUOUS
10
7.392125984251968
20
-11.9527559055118111
11
7.392125984251968
21
-10.8767996062992118
0
LINE
8
BLACK
6
CONTINUOUS
10
7.392125984251968
20
-10.8767996062992118
11
6.897216141732283
21
-10.3818897637795278
0
LINE
8
BLACK
6
CONTINUOUS
10
6.897216141732283
20
-10.3818897637795278
11
4.7964846456692909
21
-10.3818897637795278
0
LINE
8
BLACK
6
CONTINUOUS
10
6.9027838582677168
20
-10.3818897637795278
11
7.392125984251968
21
-10.871231889763779
0
LINE
8
BLACK
6
CONTINUOUS
10
7.392125984251968
20
-10.871231889763779
11
7.392125984251968
21
-10.3818897637795278
0
LINE
8
BLACK
6
CONTINUOUS
10
7.392125984251968
20
-10.3818897637795278
11
6.9027838582677168
21
-10.3818897637795278
0
LINE
8
BLACK
6
CONTINUOUS
10
6.9008858267716535
20
-8.5228346456692918
11
7.3969488188976378
21
-8.5228346456692918
0
LINE
8
BLACK
6
CONTINUOUS
10
7.3969488188976378
20
-8.5228346456692918
11
7.3977021259842521
21
-8.5229844881889765
0
LINE
8
BLACK
6
CONTINUOUS
10
7.3977021259842521
20
-8.5229844881889765
11
7.3987674803149606
21
-8.524049842519684
0
LINE
8
BLACK
6
CONTINUOUS
10
7.3987674803149606
20
-8.524049842519684
11
7.3989173228346452
21
-8.5248031496062993
0
LINE
8
BLACK
6
CONTINUOUS
10
7.3989173228346452
20
-8.5248031496062993
11
7.3989173228346452
21
-9.0208661417322826
0
LINE
8
BLACK
6
CONTINUOUS
10
7.3989173228346452
20
-9.0208661417322826
11
7.3989173228346452
21
-10.0996062992125974
0
LINE
8
BLACK
6
CONTINUOUS
10
7.3989173228346452
20
-10.0996062992125974
11
7.3987674803149606
21
-10.1003596062992127
0
LINE
8
BLACK
6
CONTINUOUS
10
7.3987674803149606
20
-10.1003596062992127
11
7.3977021259842521
21
-10.1014249606299202
0
LINE
8
BLACK
6
CONTINUOUS
10
7.3977021259842521
20
-10.1014249606299202
11
7.3969488188976378
21
-10.1015748031496067
0
LINE
8
BLACK
6
CONTINUOUS
10
7.3969488188976378
20
-10.1015748031496067
11
4.2473425196850396
21
-10.1015748031496067
0
LINE
8
BLACK
6
CONTINUOUS
10
4.2473425196850396
20
-10.1015748031496067
11
4.2465892125984253
21
-10.1014249606299202
0
LINE
8
BLACK
6
CONTINUOUS
10
4.2465892125984253
20
-10.1014249606299202
11
4.2455238582677168
21
-10.1003596062992127
0
LINE
8
BLACK
6
CONTINUOUS
10
4.2455238582677168
20
-10.1003596062992127
11
4.2453740157480313
21
-10.0996062992125974
0
LINE
8
BLACK
6
CONTINUOUS
10
4.2453740157480313
20
-10.0996062992125974
11
4.2453740157480313
21
-9.075984251968503
0
LINE
8
BLACK
6
CONTINUOUS
10
4.2453740157480313
20
-9.075984251968503
11
4.2455238582677168
21
-9.0752309448818895
0
LINE
8
BLACK
6
CONTINUOUS
10
4.2455238582677168
20
-9.0752309448818895
11
4.245950590551181
21
-9.0745923228346452
0
LINE
8
BLACK
6
CONTINUOUS
10
4.245950590551181
20
-9.0745923228346452
11
4.7971316929133856
21
-8.5234112204724415
0
LINE
8
BLACK
6
CONTINUOUS
10
4.7971316929133856
20
-8.5234112204724415
11
4.7977703149606299
21
-8.5229844881889765
0
LINE
8
BLACK
6
CONTINUOUS
10
4.7977703149606299
20
-8.5229844881889765
11
4.7985236220472443
21
-8.5228346456692918
0
LINE
8
BLACK
6
CONTINUOUS
10
4.7985236220472443
20
-8.5228346456692918
11
6.9008858267716535
21
-8.5228346456692918
0
LINE
8
BLACK
6
CONTINUOUS
10
4.7993389763779524
20
-8.5267716535433067
11
4.249311023622047
21
-9.0767996062992129
0
LINE
8
BLACK
6
CONTINUOUS
10
4.249311023622047
20
-9.0767996062992129
11
4.249311023622047
21
-10.09763779527559
0
LINE
8
BLACK
6
CONTINUOUS
10
4.249311023622047
20
-10.09763779527559
11
7.3949803149606295
21
-10.09763779527559
0
LINE
8
BLACK
6
CONTINUOUS
10
7.3949803149606295
20
-10.09763779527559
11
7.3949803149606295
21
-9.0216814960629925
0
LINE
8
BLACK
6
CONTINUOUS
10
7.3949803149606295
20
-9.0216814960629925
11
6.9000704724409445
21
-8.5267716535433067
0
LINE
8
BLACK
6
CONTINUOUS
10
6.9000704724409445
20
-8.5267716535433067
11
4.7993389763779524
21
-8.5267716535433067
0
LINE
8
BLACK
6
CONTINUOUS
10
6.9056381889763774
20
-8.5267716535433067
11
7.3949803149606295
21
-9.0161137795275597
0
LINE
8
BLACK
6
CONTINUOUS
10
7.3949803149606295
20
-9.0161137795275597
11
7.3949803149606295
21
-8.5267716535433067
0
LINE
8
BLACK
6
CONTINUOUS
10
7.3949803149606295
20
-8.5267716535433067
11
6.9056381889763774
21
-8.5267716535433067
0
LINE
8
BLACK
6
CONTINUOUS
10
4.1968557874015744
20
-8.5589709448818887
11
4.1970966535433067
21
-8.5589826771653534
0
LINE
8
BLACK
6
CONTINUOUS
10
4.1970966535433067
20
-8.5589826771653534
11
4.204595708661417
21
-8.560857440944881
0
LINE
8
BLACK
6
CONTINUOUS
10
4.204595708661417
20
-8.560857440944881
11
4.2047906692913388
21
-8.560949527559055
0
LINE
8
BLACK
6
CONTINUOUS
10
4.2047906692913388
20
-8.560949527559055
11
4.2049986220472437
21
-8.5610064960629924
0
LINE
8
BLACK
6
CONTINUOUS
10
4.2049986220472437
20
-8.5610064960629924
11
4.2087481102362201
21
-8.5628812204724412
0
LINE
8
BLACK
6
CONTINUOUS
10
4.2087481102362201
20
-8.5628812204724412
11
4.2089974409448816
21
-8.5630747244094483
0
LINE
8
BLACK
6
CONTINUOUS
10
4.2089974409448816
20
-8.5630747244094483
11
4.2092597244094483
21
-8.56325
0
LINE
8
BLACK
6
CONTINUOUS
10
4.2092597244094483
20
-8.56325
11
4.2111344881889758
21
-8.5651247244094488
0
LINE
8
BLACK
6
CONTINUOUS
10
4.2111344881889758
20
-8.5651247244094488
11
4.2113098425196851
21
-8.5653871653543305
0
LINE
8
BLACK
6
CONTINUOUS
10
4.2113098425196851
20
-8.5653871653543305
11
4.2115032283464569
21
-8.5656363385826761
0
LINE
8
BLACK
6
CONTINUOUS
10
4.2115032283464569
20
-8.5656363385826761
11
4.2133779921259844
21
-8.5693858661417313
0
LINE
8
BLACK
6
CONTINUOUS
10
4.2133779921259844
20
-8.5693858661417313
11
4.213404015748031
21
-8.5694809448818887
0
LINE
8
BLACK
6
CONTINUOUS
10
4.213404015748031
20
-8.5694809448818887
11
4.2134359842519684
21
-8.569512913385827
0
LINE
8
BLACK
6
CONTINUOUS
10
4.2134359842519684
20
-8.569512913385827
11
4.2134975196850393
21
-8.5698224015748021
0
LINE
8
BLACK
6
CONTINUOUS
10
4.2134975196850393
20
-8.5698224015748021
11
4.213580866141732
21
-8.5701266535433067
0
LINE
8
BLACK
6
CONTINUOUS
10
4.213580866141732
20
-8.5701266535433067
11
4.2135665748031492
21
-8.5701694881889754
0
LINE
8
BLACK
6
CONTINUOUS
10
4.2135665748031492
20
-8.5701694881889754
11
4.2135858267716531
21
-8.5702662204724405
0
LINE
8
BLACK
6
CONTINUOUS
10
4.2135858267716531
20
-8.5702662204724405
11
4.2135858267716531
21
-8.5740157480314956
0
LINE
8
BLACK
6
CONTINUOUS
10
4.2135858267716531
20
-8.5740157480314956
11
4.2135665748031492
21
-8.5741124409448819
0
LINE
8
BLACK
6
CONTINUOUS
10
4.2135665748031492
20
-8.5741124409448819
11
4.213580866141732
21
-8.5741553149606293
0
LINE
8
BLACK
6
CONTINUOUS
10
4.213580866141732
20
-8.5741553149606293
11
4.2134975196850393
21
-8.5744595275590552
0
LINE
8
BLACK
6
CONTINUOUS
10
4.2134975196850393
20
-8.5744595275590552
11
4.2134359842519684
21
-8.5747690551181108
0
LINE
8
BLACK
6
CONTINUOUS
10
4.2134359842519684
20
-8.5747690551181108
11
4.213404015748031
21
-8.5748009842519686
0
LINE
8
BLACK
6
CONTINUOUS
10
4.213404015748031
20
-8.5748009842519686
11
4.2133779921259844
21
-8.5748961023622048
0
LINE
8
BLACK
6
CONTINUOUS
10
4.2133779921259844
20
-8.5748961023622048
11
4.2115032283464569
21
-8.5786456299212599
0
LINE
8
BLACK
6
CONTINUOUS
10
4.2115032283464569
20
-8.5786456299212599
11
4.2113098425196851
21
-8.5788947637795268
0
LINE
8
BLACK
6
CONTINUOUS
10
4.2113098425196851
20
-8.5788947637795268
11
4.2111344881889758
21
-8.5791572440944872
0
LINE
8
BLACK
6
CONTINUOUS
10
4.2111344881889758
20
-8.5791572440944872
11
4.2092597244094483
21
-8.581031968503936
0
LINE
8
BLACK
6
CONTINUOUS
10
4.2092597244094483
20
-8.581031968503936
11
4.2089974409448816
21
-8.581207204724409
0
LINE
8
BLACK
6
CONTINUOUS
10
4.2089974409448816
20
-8.581207204724409
11
4.2087481102362201
21
-8.5814007480314967
0
LINE
8
BLACK
6
CONTINUOUS
10
4.2087481102362201
20
-8.5814007480314967
11
4.2049986220472437
21
-8.5832754724409455
0
LINE
8
BLACK
6
CONTINUOUS
10
4.2049986220472437
20
-8.5832754724409455
11
4.2047906692913388
21
-8.5833324015748023
0
LINE
8
BLACK
6
CONTINUOUS
10
4.2047906692913388
20
-8.5833324015748023
11
4.204595708661417
21
-8.5834245275590551
0
LINE
8
BLACK
6
CONTINUOUS
10
4.204595708661417
20
-8.5834245275590551
11
4.1970966535433067
21
-8.5852992913385826
0
LINE
8
BLACK
6
CONTINUOUS
10
4.1970966535433067
20
-8.5852992913385826
11
4.1968557874015744
21
-8.5853109842519686
0
LINE
8
BLACK
6
CONTINUOUS
10
4.1968557874015744
20
-8.5853109842519686
11
4.1966192125984252
21
-8.5853580708661408
0
LINE
8
BLACK
6
CONTINUOUS
10
4.1966192125984252
20
-8.5853580708661408
11
4.1872453937007874
21
-8.5853580708661408
0
LINE
8
BLACK
6
CONTINUOUS
10
4.1872453937007874
20
-8.5853580708661408
11
4.1870087795275586
21
-8.5853109842519686
0
LINE
8
BLACK
6
CONTINUOUS
10
4.1870087795275586
20
-8.5853109842519686
11
4.1867679527559059
21
-8.5852992913385826
0
LINE
8
BLACK
6
CONTINUOUS
10
4.1867679527559059
20
-8.5852992913385826
11
4.1792688976377947
21
-8.5834245275590551
0
LINE
8
BLACK
6
CONTINUOUS
10
4.1792688976377947
20
-8.5834245275590551
11
4.179073897637795
21
-8.5833324015748023
0
LINE
8
BLACK
6
CONTINUOUS
10
4.179073897637795
20
-8.5833324015748023
11
4.178865984251968
21
-8.5832754724409455
0
LINE
8
BLACK
6
CONTINUOUS
10
4.178865984251968
20
-8.5832754724409455
11
4.1751164566929129
21
-8.5814007086614179
0
LINE
8
BLACK
6
CONTINUOUS
10
4.1751164566929129
20
-8.5814007086614179
11
4.1748672834645673
21
-8.5812073228346453
0
LINE
8
BLACK
6
CONTINUOUS
10
4.1748672834645673
20
-8.5812073228346453
11
4.1746048425196847
21
-8.581031968503936
0
LINE
8
BLACK
6
CONTINUOUS
10
4.1746048425196847
20
-8.581031968503936
11
4.1727301181102359
21
-8.5791572047244085
0
LINE
8
BLACK
6
CONTINUOUS
10
4.1727301181102359
20
-8.5791572047244085
11
4.1725548818897638
21
-8.5788949999999993
0
LINE
8
BLACK
6
CONTINUOUS
10
4.1725548818897638
20
-8.5788949999999993
11
4.1723613779527557
21
-8.5786456299212599
0
LINE
8
BLACK
6
CONTINUOUS
10
4.1723613779527557
20
-8.5786456299212599
11
4.1704865748031494
21
-8.5748961023622048
0
LINE
8
BLACK
6
CONTINUOUS
10
4.1704865748031494
20
-8.5748961023622048
11
4.1704605118110232
21
-8.5748009842519686
0
LINE
8
BLACK
6
CONTINUOUS
10
4.1704605118110232
20
-8.5748009842519686
11
4.1704285826771654
21
-8.5747690551181108
0
LINE
8
BLACK
6
CONTINUOUS
10
4.1704285826771654
20
-8.5747690551181108
11
4.1703670078740158
21
-8.5744595275590552
0
LINE
8
BLACK
6
CONTINUOUS
10
4.1703670078740158
20
-8.5744595275590552
11
4.1702837007874018
21
-8.5741553149606293
0
LINE
8
BLACK
6
CONTINUOUS
10
4.1702837007874018
20
-8.5741553149606293
11
4.170297952755905
21
-8.5741124409448819
0
LINE
8
BLACK
6
CONTINUOUS
10
4.170297952755905
20
-8.5741124409448819
11
4.1702787401574799
21
-8.5740157480314956
0
LINE
8
BLACK
6
CONTINUOUS
10
4.1702787401574799
20
-8.5740157480314956
11
4.1702787401574799
21
-8.5702662204724405
0
LINE
8
BLACK
6
CONTINUOUS
10
4.1702787401574799
20
-8.5702662204724405
11
4.170297952755905
21
-8.5701694881889754
0
LINE
8
BLACK
6
CONTINUOUS
10
4.170297952755905
20
-8.5701694881889754
11
4.1702837007874018
21
-8.5701266535433067
0
LINE
8
BLACK
6
CONTINUOUS
10
4.1702837007874018
20
-8.5701266535433067
11
4.1703670078740158
21
-8.5698224015748021
0
LINE
8
BLACK
6
CONTINUOUS
10
4.1703670078740158
20
-8.5698224015748021
11
4.1704285826771654
21
-8.569512913385827
0
LINE
8
BLACK
6
CONTINUOUS
10
4.1704285826771654
20
-8.569512913385827
11
4.1704605118110232
21
-8.5694809448818887
0
LINE
8
BLACK
6
CONTINUOUS
10
4.1704605118110232
20
-8.5694809448818887
11
4.1704865748031494
21
-8.5693858661417313
0
LINE
8
BLACK
6
CONTINUOUS
10
4.1704865748031494
20
-8.5693858661417313
11
4.1723613779527557
21
-8.5656363385826761
0
LINE
8
BLACK
6
CONTINUOUS
10
4.1723613779527557
20
-8.5656363385826761
11
4.1725548818897638
21
-8.565386929133858
0
LINE
8
BLACK
6
CONTINUOUS
10
4.1725548818897638
20
-8.565386929133858
11
4.1727301181102359
21
-8.5651247637795276
0
LINE
8
BLACK
6
CONTINUOUS
10
4.1727301181102359
20
-8.5651247637795276
11
4.1746048425196847
21
-8.56325
0
LINE
8
BLACK
6
CONTINUOUS
10
4.1746048425196847
20
-8.56325
11
4.1748672834645673
21
-8.563074606299212
0
LINE
8
BLACK
6
CONTINUOUS
10
4.1748672834645673
20
-8.563074606299212
11
4.1751164566929129
21
-8.5628812598425199
0
LINE
8
BLACK
6
CONTINUOUS
10
4.1751164566929129
20
-8.5628812598425199
11
4.178865984251968
21
-8.5610064960629924
0
LINE
8
BLACK
6
CONTINUOUS
10
4.178865984251968
20
-8.5610064960629924
11
4.179073897637795
21
-8.560949527559055
0
LINE
8
BLACK
6
CONTINUOUS
10
4.179073897637795
20
-8.560949527559055
11
4.1792688976377947
21
-8.560857440944881
0
LINE
8
BLACK
6
CONTINUOUS
10
4.1792688976377947
20
-8.560857440944881
11
4.1867679527559059
21
-8.5589826771653534
0
LINE
8
BLACK
6
CONTINUOUS
10
4.1867679527559059
20
-8.5589826771653534
11
4.1870087795275586
21
-8.5589709448818887
0
LINE
8
BLACK
6
CONTINUOUS
10
4.1870087795275586
20
-8.5589709448818887
11
4.1872453937007874
21
-8.5589238976377953
0
LINE
8
BLACK
6
CONTINUOUS
10
4.1872453937007874
20
-8.5589238976377953
11
4.1966192125984252
21
-8.5589238976377953
0
LINE
8
BLACK
6
CONTINUOUS
10
4.1966192125984252
20
-8.5589238976377953
11
4.1968557874015744
21
-8.5589709448818887
0
LINE
8
BLACK
6
CONTINUOUS
10
4.18043342519685
20
-8.564624448818897
11
4.1771628740157478
21
-8.5662597244094485
0
LINE
8
BLACK
6
CONTINUOUS
10
4.1771628740157478
20
-8.5662597244094485
11
4.1757398425196852
21
-8.5676827165354332
0
LINE
8
BLACK
6
CONTINUOUS
10
4.1757398425196852
20
-8.5676827165354332
11
4.1742157480314956
21
-8.5707309055118106
0
LINE
8
BLACK
6
CONTINUOUS
10
4.1742157480314956
20
-8.5707309055118106
11
4.1742157480314956
21
-8.5735510236220467
0
LINE
8
BLACK
6
CONTINUOUS
10
4.1742157480314956
20
-8.5735510236220467
11
4.1757398425196852
21
-8.5765992125984258
0
LINE
8
BLACK
6
CONTINUOUS
10
4.1757398425196852
20
-8.5765992125984258
11
4.1771628740157478
21
-8.5780222047244088
0
LINE
8
BLACK
6
CONTINUOUS
10
4.1771628740157478
20
-8.5780222047244088
11
4.18043342519685
21
-8.5796574803149603
0
LINE
8
BLACK
6
CONTINUOUS
10
4.18043342519685
20
-8.5796574803149603
11
4.1874877165354327
21
-8.5814210629921259
0
LINE
8
BLACK
6
CONTINUOUS
10
4.1874877165354327
20
-8.5814210629921259
11
4.1963768897637799
21
-8.5814210629921259
0
LINE
8
BLACK
6
CONTINUOUS
10
4.1963768897637799
20
-8.5814210629921259
11
4.2034312204724404
21
-8.5796574803149603
0
LINE
8
BLACK
6
CONTINUOUS
10
4.2034312204724404
20
-8.5796574803149603
11
4.2067017322834648
21
-8.5780222047244088
0
LINE
8
BLACK
6
CONTINUOUS
10
4.2067017322834648
20
-8.5780222047244088
11
4.2081247244094486
21
-8.5765991732283471
0
LINE
8
BLACK
6
CONTINUOUS
10
4.2081247244094486
20
-8.5765991732283471
11
4.2096488188976373
21
-8.5735510236220467
0
LINE
8
BLACK
6
CONTINUOUS
10
4.2096488188976373
20
-8.5735510236220467
11
4.2096488188976373
21
-8.5707309055118106
0
LINE
8
BLACK
6
CONTINUOUS
10
4.2096488188976373
20
-8.5707309055118106
11
4.2081247244094486
21
-8.567682755905512
0
LINE
8
BLACK
6
CONTINUOUS
10
4.2081247244094486
20
-8.567682755905512
11
4.2067017322834648
21
-8.5662597244094485
0
LINE
8
BLACK
6
CONTINUOUS
10
4.2067017322834648
20
-8.5662597244094485
11
4.2034312204724404
21
-8.5646244881889757
0
LINE
8
BLACK
6
CONTINUOUS
10
4.2034312204724404
20
-8.5646244881889757
11
4.1963768897637799
21
-8.5628609055118101
0
LINE
8
BLACK
6
CONTINUOUS
10
4.1963768897637799
20
-8.5628609055118101
11
4.1874877165354327
21
-8.5628609055118101
0
LINE
8
BLACK
6
CONTINUOUS
10
4.1874877165354327
20
-8.5628609055118101
11
4.18043342519685
21
-8.564624448818897
0
LINE
8
BLACK
6
CONTINUOUS
10
4.2016585039370078
20
-8.5219099606299213
11
4.2021294094488191
21
-8.5225167322834636
0
LINE
8
BLACK
6
CONTINUOUS
10
4.2021294094488191
20
-8.5225167322834636
11
4.2038613385826773
21
-8.5259805905511801
0
LINE
8
BLACK
6
CONTINUOUS
10
4.2038613385826773
20
-8.5259805905511801
11
4.2072470078740158
21
-8.5293662598425186
0
LINE
8
BLACK
6
CONTINUOUS
10
4.2072470078740158
20
-8.5293662598425186
11
4.2127092519685041
21
-8.5330077952755907
0
LINE
8
BLACK
6
CONTINUOUS
10
4.2127092519685041
20
-8.5330077952755907
11
4.2132529133858263
21
-8.53355031496063
0
LINE
8
BLACK
6
CONTINUOUS
10
4.2132529133858263
20
-8.53355031496063
11
4.2132926377952753
21
-8.5337490157480307
0
LINE
8
BLACK
6
CONTINUOUS
10
4.2132926377952753
20
-8.5337490157480307
11
4.2134359842519684
21
-8.5338923622047247
0
LINE
8
BLACK
6
CONTINUOUS
10
4.2134359842519684
20
-8.5338923622047247
11
4.2134359842519684
21
-8.5344655511811016
0
LINE
8
BLACK
6
CONTINUOUS
10
4.2134359842519684
20
-8.5344655511811016
11
4.2135484251968505
21
-8.5350277165354331
0
LINE
8
BLACK
6
CONTINUOUS
10
4.2135484251968505
20
-8.5350277165354331
11
4.2134359842519684
21
-8.5351963385826775
0
LINE
8
BLACK
6
CONTINUOUS
10
4.2134359842519684
20
-8.5351963385826775
11
4.2134359842519684
21
-8.5353989763779534
0
LINE
8
BLACK
6
CONTINUOUS
10
4.2134359842519684
20
-8.5353989763779534
11
4.2130306692913386
21
-8.5358042519685036
0
LINE
8
BLACK
6
CONTINUOUS
10
4.2130306692913386
20
-8.5358042519685036
11
4.2127126771653538
21
-8.5362812598425197
0
LINE
8
BLACK
6
CONTINUOUS
10
4.2127126771653538
20
-8.5362812598425197
11
4.2125139370078744
21
-8.5363209842519687
0
LINE
8
BLACK
6
CONTINUOUS
10
4.2125139370078744
20
-8.5363209842519687
11
4.21237062992126
21
-8.536464330708661
0
LINE
8
BLACK
6
CONTINUOUS
10
4.21237062992126
20
-8.536464330708661
11
4.2116173228346456
21
-8.5366141732283456
0
LINE
8
BLACK
6
CONTINUOUS
10
4.2116173228346456
20
-8.5366141732283456
11
4.1742157480314956
21
-8.5366141732283456
0
LINE
8
BLACK
6
CONTINUOUS
10
4.1742157480314956
20
-8.5366141732283456
11
4.1742157480314956
21
-8.5458942519685035
0
LINE
8
BLACK
6
CONTINUOUS
10
4.1742157480314956
20
-8.5458942519685035
11
4.174065905511811
21
-8.5466475590551187
0
LINE
8
BLACK
6
CONTINUOUS
10
4.174065905511811
20
-8.5466475590551187
11
4.1730005511811026
21
-8.5477129133858263
0
LINE
8
BLACK
6
CONTINUOUS
10
4.1730005511811026
20
-8.5477129133858263
11
4.1714939370078739
21
-8.5477129133858263
0
LINE
8
BLACK
6
CONTINUOUS
10
4.1714939370078739
20
-8.5477129133858263
11
4.1704285826771654
21
-8.5466475590551187
0
LINE
8
BLACK
6
CONTINUOUS
10
4.1704285826771654
20
-8.5466475590551187
11
4.1702787401574799
21
-8.5458942519685035
0
LINE
8
BLACK
6
CONTINUOUS
10
4.1702787401574799
20
-8.5458942519685035
11
4.1702787401574799
21
-8.5233970866141728
0
LINE
8
BLACK
6
CONTINUOUS
10
4.1702787401574799
20
-8.5233970866141728
11
4.1704285826771654
21
-8.5226437795275594
0
LINE
8
BLACK
6
CONTINUOUS
10
4.1704285826771654
20
-8.5226437795275594
11
4.1714939370078739
21
-8.52157842519685
0
LINE
8
BLACK
6
CONTINUOUS
10
4.1714939370078739
20
-8.52157842519685
11
4.1730005511811026
21
-8.52157842519685
0
LINE
8
BLACK
6
CONTINUOUS
10
4.1730005511811026
20
-8.52157842519685
11
4.174065905511811
21
-8.5226437795275594
0
LINE
8
BLACK
6
CONTINUOUS
10
4.174065905511811
20
-8.5226437795275594
11
4.1742157480314956
21
-8.5233970866141728
0
LINE
8
BLACK
6
CONTINUOUS
10
4.1742157480314956
20
-8.5233970866141728
11
4.1742157480314956
21
-8.5326771653543307
0
LINE
8
BLACK
6
CONTINUOUS
10
4.1742157480314956
20
-8.5326771653543307
11
4.2051157874015743
21
-8.5326771653543307
0
LINE
8
BLACK
6
CONTINUOUS
10
4.2051157874015743
20
-8.5326771653543307
11
4.2049011023622045
21
-8.5325340551181093
0
LINE
8
BLACK
6
CONTINUOUS
10
4.2049011023622045
20
-8.5325340551181093
11
4.2047630314960625
21
-8.5323962598425194
0
LINE
8
BLACK
6
CONTINUOUS
10
4.2047630314960625
20
-8.5323962598425194
11
4.2046011023622043
21
-8.5322880708661408
0
LINE
8
BLACK
6
CONTINUOUS
10
4.2046011023622043
20
-8.5322880708661408
11
4.2008515748031492
21
-8.5285385433070857
0
LINE
8
BLACK
6
CONTINUOUS
10
4.2008515748031492
20
-8.5285385433070857
11
4.2006762992125983
21
-8.528276259842519
0
LINE
8
BLACK
6
CONTINUOUS
10
4.2006762992125983
20
-8.528276259842519
11
4.2004827952755903
21
-8.5280269291338584
0
LINE
8
BLACK
6
CONTINUOUS
10
4.2004827952755903
20
-8.5280269291338584
11
4.1986080708661415
21
-8.524277440944882
0
LINE
8
BLACK
6
CONTINUOUS
10
4.1986080708661415
20
-8.524277440944882
11
4.1984051968503939
21
-8.5235366535433066
0
LINE
8
BLACK
6
CONTINUOUS
10
4.1984051968503939
20
-8.5235366535433066
11
4.1988816141732279
21
-8.5221073228346462
0
LINE
8
BLACK
6
CONTINUOUS
10
4.1988816141732279
20
-8.5221073228346462
11
4.2002291732283465
21
-8.5214335433070865
0
LINE
8
BLACK
6
CONTINUOUS
10
4.2002291732283465
20
-8.5214335433070865
11
4.2016585039370078
21
-8.5219099606299213
0
LINE
8
BLACK
6
CONTINUOUS
10
4.1949810236220468
20
-8.4821055511811014
11
4.1952218897637792
21
-8.4821172834645662
0
LINE
8
BLACK
6
CONTINUOUS
10
4.1952218897637792
20
-8.4821172834645662
11
4.2027209448818894
21
-8.4839920472440937
0
LINE
8
BLACK
6
CONTINUOUS
10
4.2027209448818894
20
-8.4839920472440937
11
4.2029159055118113
21
-8.4840841338582678
0
LINE
8
BLACK
6
CONTINUOUS
10
4.2029159055118113
20
-8.4840841338582678
11
4.2031238582677162
21
-8.4841411023622051
0
LINE
8
BLACK
6
CONTINUOUS
10
4.2031238582677162
20
-8.4841411023622051
11
4.2068733464566925
21
-8.4860158267716539
0
LINE
8
BLACK
6
CONTINUOUS
10
4.2068733464566925
20
-8.4860158267716539
11
4.207122677165354
21
-8.486209330708661
0
LINE
8
BLACK
6
CONTINUOUS
10
4.207122677165354
20
-8.486209330708661
11
4.2073849606299207
21
-8.4863846062992128
0
LINE
8
BLACK
6
CONTINUOUS
10
4.2073849606299207
20
-8.4863846062992128
11
4.2111344881889758
21
-8.4901341338582679
0
LINE
8
BLACK
6
CONTINUOUS
10
4.2111344881889758
20
-8.4901341338582679
11
4.2111892125984252
21
-8.4902160629921255
0
LINE
8
BLACK
6
CONTINUOUS
10
4.2111892125984252
20
-8.4902160629921255
11
4.2112296850393696
21
-8.490236299212599
0
LINE
8
BLACK
6
CONTINUOUS
10
4.2112296850393696
20
-8.490236299212599
11
4.2113859842519688
21
-8.4905105118110242
0
LINE
8
BLACK
6
CONTINUOUS
10
4.2113859842519688
20
-8.4905105118110242
11
4.2115612204724409
21
-8.4907727559055122
0
LINE
8
BLACK
6
CONTINUOUS
10
4.2115612204724409
20
-8.4907727559055122
11
4.2115612204724409
21
-8.4908179133858273
0
LINE
8
BLACK
6
CONTINUOUS
10
4.2115612204724409
20
-8.4908179133858273
11
4.2116100393700791
21
-8.4909035826771646
0
LINE
8
BLACK
6
CONTINUOUS
10
4.2116100393700791
20
-8.4909035826771646
11
4.2134848031496066
21
-8.4965278346456685
0
LINE
8
BLACK
6
CONTINUOUS
10
4.2134848031496066
20
-8.4965278346456685
11
4.2135242519685034
21
-8.4968408267716526
0
LINE
8
BLACK
6
CONTINUOUS
10
4.2135242519685034
20
-8.4968408267716526
11
4.2135858267716531
21
-8.4971503543307083
0
LINE
8
BLACK
6
CONTINUOUS
10
4.2135858267716531
20
-8.4971503543307083
11
4.2135858267716531
21
-8.5008998818897634
0
LINE
8
BLACK
6
CONTINUOUS
10
4.2135858267716531
20
-8.5008998818897634
11
4.2135242519685034
21
-8.5012093700787403
0
LINE
8
BLACK
6
CONTINUOUS
10
4.2135242519685034
20
-8.5012093700787403
11
4.2134848031496066
21
-8.5015224015748032
0
LINE
8
BLACK
6
CONTINUOUS
10
4.2134848031496066
20
-8.5015224015748032
11
4.2116100393700791
21
-8.5071466535433071
0
LINE
8
BLACK
6
CONTINUOUS
10
4.2116100393700791
20
-8.5071466535433071
11
4.2115612204724409
21
-8.5072322834645675
0
LINE
8
BLACK
6
CONTINUOUS
10
4.2115612204724409
20
-8.5072322834645675
11
4.2115612204724409
21
-8.5072775196850383
0
LINE
8
BLACK
6
CONTINUOUS
10
4.2115612204724409
20
-8.5072775196850383
11
4.2113858267716537
21
-8.5075399606299218
0
LINE
8
BLACK
6
CONTINUOUS
10
4.2113858267716537
20
-8.5075399606299218
11
4.2112296850393696
21
-8.5078139370078745
0
LINE
8
BLACK
6
CONTINUOUS
10
4.2112296850393696
20
-8.5078139370078745
11
4.2111892519685039
21
-8.5078341338582675
0
LINE
8
BLACK
6
CONTINUOUS
10
4.2111892519685039
20
-8.5078341338582675
11
4.2111344881889758
21
-8.5079161417322826
0
LINE
8
BLACK
6
CONTINUOUS
10
4.2111344881889758
20
-8.5079161417322826
11
4.2092597244094483
21
-8.5097908661417314
0
LINE
8
BLACK
6
CONTINUOUS
10
4.2092597244094483
20
-8.5097908661417314
11
4.2086211023622049
21
-8.5102175984251964
0
LINE
8
BLACK
6
CONTINUOUS
10
4.2086211023622049
20
-8.5102175984251964
11
4.2071144881889762
21
-8.5102175984251964
0
LINE
8
BLACK
6
CONTINUOUS
10
4.2071144881889762
20
-8.5102175984251964
11
4.2060491338582677
21
-8.5091522440944871
0
LINE
8
BLACK
6
CONTINUOUS
10
4.2060491338582677
20
-8.5091522440944871
11
4.2060491338582677
21
-8.5076456299212602
0
LINE
8
BLACK
6
CONTINUOUS
10
4.2060491338582677
20
-8.5076456299212602
11
4.2064758661417319
21
-8.5070070078740159
0
LINE
8
BLACK
6
CONTINUOUS
10
4.2064758661417319
20
-8.5070070078740159
11
4.2080220078740158
21
-8.5054607874015744
0
LINE
8
BLACK
6
CONTINUOUS
10
4.2080220078740158
20
-8.5054607874015744
11
4.2096488188976373
21
-8.5005804724409444
0
LINE
8
BLACK
6
CONTINUOUS
10
4.2096488188976373
20
-8.5005804724409444
11
4.2096488188976373
21
-8.4974697637795273
0
LINE
8
BLACK
6
CONTINUOUS
10
4.2096488188976373
20
-8.4974697637795273
11
4.2080220078740158
21
-8.4925893700787398
0
LINE
8
BLACK
6
CONTINUOUS
10
4.2080220078740158
20
-8.4925893700787398
11
4.204827007874016
21
-8.48939437007874
0
LINE
8
BLACK
6
CONTINUOUS
10
4.204827007874016
20
-8.48939437007874
11
4.2015564566929129
21
-8.4877590944881884
0
LINE
8
BLACK
6
CONTINUOUS
10
4.2015564566929129
20
-8.4877590944881884
11
4.1945021259842523
21
-8.4859955118110229
0
LINE
8
BLACK
6
CONTINUOUS
10
4.1945021259842523
20
-8.4859955118110229
11
4.1893624803149603
21
-8.4859955118110229
0
LINE
8
BLACK
6
CONTINUOUS
10
4.1893624803149603
20
-8.4859955118110229
11
4.1823081889763776
21
-8.4877590551181097
0
LINE
8
BLACK
6
CONTINUOUS
10
4.1823081889763776
20
-8.4877590551181097
11
4.1790375590551179
21
-8.48939437007874
0
LINE
8
BLACK
6
CONTINUOUS
10
4.1790375590551179
20
-8.48939437007874
11
4.175842559055118
21
-8.4925893700787398
0
LINE
8
BLACK
6
CONTINUOUS
10
4.175842559055118
20
-8.4925893700787398
11
4.1742157480314956
21
-8.4974698031496061
0
LINE
8
BLACK
6
CONTINUOUS
10
4.1742157480314956
20
-8.4974698031496061
11
4.1742157480314956
21
-8.5005803937007869
0
LINE
8
BLACK
6
CONTINUOUS
10
4.1742157480314956
20
-8.5005803937007869
11
4.175842559055118
21
-8.5054608267716532
0
LINE
8
BLACK
6
CONTINUOUS
10
4.175842559055118
20
-8.5054608267716532
11
4.1773887401574799
21
-8.5070069685039371
0
LINE
8
BLACK
6
CONTINUOUS
10
4.1773887401574799
20
-8.5070069685039371
11
4.1778154724409449
21
-8.5076455905511814
0
LINE
8
BLACK
6
CONTINUOUS
10
4.1778154724409449
20
-8.5076455905511814
11
4.1778154724409449
21
-8.5091522440944871
0
LINE
8
BLACK
6
CONTINUOUS
10
4.1778154724409449
20
-8.5091522440944871
11
4.1767501181102364
21
-8.5102175984251964
0
LINE
8
BLACK
6
CONTINUOUS
10
4.1767501181102364
20
-8.5102175984251964
11
4.175243464566929
21
-8.5102175984251964
0
LINE
8
BLACK
6
CONTINUOUS
10
4.175243464566929
20
-8.5102175984251964
11
4.1746048425196847
21
-8.5097908661417314
0
LINE
8
BLACK
6
CONTINUOUS
10
4.1746048425196847
20
-8.5097908661417314
11
4.1727301181102359
21
-8.5079161023622039
0
LINE
8
BLACK
6
CONTINUOUS
10
4.1727301181102359
20
-8.5079161023622039
11
4.1726753543307087
21
-8.5078341338582675
0
LINE
8
BLACK
6
CONTINUOUS
10
4.1726753543307087
20
-8.5078341338582675
11
4.1726349212598421
21
-8.5078139370078745
0
LINE
8
BLACK
6
CONTINUOUS
10
4.1726349212598421
20
-8.5078139370078745
11
4.1724785433070863
21
-8.507539606299213
0
LINE
8
BLACK
6
CONTINUOUS
10
4.1724785433070863
20
-8.507539606299213
11
4.1723033858267717
21
-8.5072774803149596
0
LINE
8
BLACK
6
CONTINUOUS
10
4.1723033858267717
20
-8.5072774803149596
11
4.1723033858267717
21
-8.5072323228346463
0
LINE
8
BLACK
6
CONTINUOUS
10
4.1723033858267717
20
-8.5072323228346463
11
4.1722545669291335
21
-8.5071466929133859
0
LINE
8
BLACK
6
CONTINUOUS
10
4.1722545669291335
20
-8.5071466929133859
11
4.1703797637795272
21
-8.5015224015748032
0
LINE
8
BLACK
6
CONTINUOUS
10
4.1703797637795272
20
-8.5015224015748032
11
4.1703402755905508
21
-8.5012093700787403
0
LINE
8
BLACK
6
CONTINUOUS
10
4.1703402755905508
20
-8.5012093700787403
11
4.1702787401574799
21
-8.5008998818897634
0
LINE
8
BLACK
6
CONTINUOUS
10
4.1702787401574799
20
-8.5008998818897634
11
4.1702787401574799
21
-8.4971503543307083
0
LINE
8
BLACK
6
CONTINUOUS
10
4.1702787401574799
20
-8.4971503543307083
11
4.1703402755905508
21
-8.4968408267716526
0
LINE
8
BLACK
6
CONTINUOUS
10
4.1703402755905508
20
-8.4968408267716526
11
4.1703797637795272
21
-8.4965278346456685
0
LINE
8
BLACK
6
CONTINUOUS
10
4.1703797637795272
20
-8.4965278346456685
11
4.1722545669291335
21
-8.4909035433070859
0
LINE
8
BLACK
6
CONTINUOUS
10
4.1722545669291335
20
-8.4909035433070859
11
4.1723033858267717
21
-8.4908178740157485
0
LINE
8
BLACK
6
CONTINUOUS
10
4.1723033858267717
20
-8.4908178740157485
11
4.1723033858267717
21
-8.4907727559055122
0
LINE
8
BLACK
6
CONTINUOUS
10
4.1723033858267717
20
-8.4907727559055122
11
4.1724785433070863
21
-8.4905105905511817
0
LINE
8
BLACK
6
CONTINUOUS
10
4.1724785433070863
20
-8.4905105905511817
11
4.1726349212598421
21
-8.490236299212599
0
LINE
8
BLACK
6
CONTINUOUS
10
4.1726349212598421
20
-8.490236299212599
11
4.1726753543307087
21
-8.4902160629921255
0
LINE
8
BLACK
6
CONTINUOUS
10
4.1726753543307087
20
-8.4902160629921255
11
4.1727301181102359
21
-8.4901341338582679
0
LINE
8
BLACK
6
CONTINUOUS
10
4.1727301181102359
20
-8.4901341338582679
11
4.176479645669291
21
-8.4863846062992128
0
LINE
8
BLACK
6
CONTINUOUS
10
4.176479645669291
20
-8.4863846062992128
11
4.1767418110236223
21
-8.4862093700787398
0
LINE
8
BLACK
6
CONTINUOUS
10
4.1767418110236223
20
-8.4862093700787398
11
4.1769912204724404
21
-8.4860158661417326
0
LINE
8
BLACK
6
CONTINUOUS
10
4.1769912204724404
20
-8.4860158661417326
11
4.1807407480314955
21
-8.4841411023622051
0
LINE
8
BLACK
6
CONTINUOUS
10
4.1807407480314955
20
-8.4841411023622051
11
4.1809486614173226
21
-8.4840841338582678
0
LINE
8
BLACK
6
CONTINUOUS
10
4.1809486614173226
20
-8.4840841338582678
11
4.1811436614173223
21
-8.4839920472440937
0
LINE
8
BLACK
6
CONTINUOUS
10
4.1811436614173223
20
-8.4839920472440937
11
4.1886427165354334
21
-8.4821172834645662
0
LINE
8
BLACK
6
CONTINUOUS
10
4.1886427165354334
20
-8.4821172834645662
11
4.1888835433070861
21
-8.4821055511811014
0
LINE
8
BLACK
6
CONTINUOUS
10
4.1888835433070861
20
-8.4821055511811014
11
4.189120157480315
21
-8.482058503937008
0
LINE
8
BLACK
6
CONTINUOUS
10
4.189120157480315
20
-8.482058503937008
11
4.1947444488188976
21
-8.482058503937008
0
LINE
8
BLACK
6
CONTINUOUS
10
4.1947444488188976
20
-8.482058503937008
11
4.1949810236220468
21
-8.4821055511811014
0
LINE
8
BLACK
6
CONTINUOUS
10
6.8964566929133859
20
-6.8999999999999995
11
7.3925196850393702
21
-6.8999999999999995
0
LINE
8
BLACK
6
CONTINUOUS
10
7.3925196850393702
20
-6.8999999999999995
11
7.3932729921259837
21
-6.900149842519685
0
LINE
8
BLACK
6
CONTINUOUS
10
7.3932729921259837
20
-6.900149842519685
11
7.394338346456693
21
-6.9012151968503934
0
LINE
8
BLACK
6
CONTINUOUS
10
7.394338346456693
20
-6.9012151968503934
11
7.3944881889763776
21
-6.9019685039370078
0
LINE
8
BLACK
6
CONTINUOUS
10
7.3944881889763776
20
-6.9019685039370078
11
7.3944881889763776
21
-7.398031496062992
0
LINE
8
BLACK
6
CONTINUOUS
10
7.3944881889763776
20
-7.398031496062992
11
7.3944881889763776
21
-8.4767716535433077
0
LINE
8
BLACK
6
CONTINUOUS
10
7.3944881889763776
20
-8.4767716535433077
11
7.394338346456693
21
-8.4775249606299212
0
LINE
8
BLACK
6
CONTINUOUS
10
7.394338346456693
20
-8.4775249606299212
11
7.3932729921259837
21
-8.4785903149606305
0
LINE
8
BLACK
6
CONTINUOUS
10
7.3932729921259837
20
-8.4785903149606305
11
7.3925196850393702
21
-8.4787401574803152
0
LINE
8
BLACK
6
CONTINUOUS
10
7.3925196850393702
20
-8.4787401574803152
11
4.2429133858267711
21
-8.4787401574803152
0
LINE
8
BLACK
6
CONTINUOUS
10
4.2429133858267711
20
-8.4787401574803152
11
4.2421600787401577
21
-8.4785903149606305
0
LINE
8
BLACK
6
CONTINUOUS
10
4.2421600787401577
20
-8.4785903149606305
11
4.2410947244094483
21
-8.4775249606299212
0
LINE
8
BLACK
6
CONTINUOUS
10
4.2410947244094483
20
-8.4775249606299212
11
4.2409448818897637
21
-8.4767716535433077
0
LINE
8
BLACK
6
CONTINUOUS
10
4.2409448818897637
20
-8.4767716535433077
11
4.2409448818897637
21
-7.4531496062992124
0
LINE
8
BLACK
6
CONTINUOUS
10
4.2409448818897637
20
-7.4531496062992124
11
4.2410947244094483
21
-7.4523962992125981
0
LINE
8
BLACK
6
CONTINUOUS
10
4.2410947244094483
20
-7.4523962992125981
11
4.2415214566929134
21
-7.4517576771653538
0
LINE
8
BLACK
6
CONTINUOUS
10
4.2415214566929134
20
-7.4517576771653538
11
4.792702559055118
21
-6.9005765748031491
0
LINE
8
BLACK
6
CONTINUOUS
10
4.792702559055118
20
-6.9005765748031491
11
4.7933411811023623
21
-6.900149842519685
0
LINE
8
BLACK
6
CONTINUOUS
10
4.7933411811023623
20
-6.900149842519685
11
4.7940944881889767
21
-6.8999999999999995
0
LINE
8
BLACK
6
CONTINUOUS
10
4.7940944881889767
20
-6.8999999999999995
11
6.8964566929133859
21
-6.8999999999999995
0
LINE
8
BLACK
6
CONTINUOUS
10
4.7949098425196848
20
-6.9039370078740152
11
4.2448818897637794
21
-7.4539649606299214
0
LINE
8
BLACK
6
CONTINUOUS
10
4.2448818897637794
20
-7.4539649606299214
11
4.2448818897637794
21
-8.4748031496062985
0
LINE
8
BLACK
6
CONTINUOUS
10
4.2448818897637794
20
-8.4748031496062985
11
7.3905511811023619
21
-8.4748031496062985
0
LINE
8
BLACK
6
CONTINUOUS
10
7.3905511811023619
20
-8.4748031496062985
11
7.3905511811023619
21
-7.398846850393701
0
LINE
8
BLACK
6
CONTINUOUS
10
7.3905511811023619
20
-7.398846850393701
11
6.8956413385826769
21
-6.9039370078740152
0
LINE
8
BLACK
6
CONTINUOUS
10
6.8956413385826769
20
-6.9039370078740152
11
4.7949098425196848
21
-6.9039370078740152
0
LINE
8
BLACK
6
CONTINUOUS
10
6.9012090551181098
20
-6.9039370078740152
11
7.3905511811023619
21
-7.3932791338582673
0
LINE
8
BLACK
6
CONTINUOUS
10
7.3905511811023619
20
-7.3932791338582673
11
7.3905511811023619
21
-6.9039370078740152
0
LINE
8
BLACK
6
CONTINUOUS
10
7.3905511811023619
20
-6.9039370078740152
11
6.9012090551181098
21
-6.9039370078740152
0
LINE
8
BLACK
6
CONTINUOUS
10
4.2042149606299208
20
-8.4445824015748023
11
4.2042578346456692
21
-8.4445681496062992
0
LINE
8
BLACK
6
CONTINUOUS
10
4.2042578346456692
20
-8.4445681496062992
11
4.2045620472440941
21
-8.4446514566929132
0
LINE
8
BLACK
6
CONTINUOUS
10
4.2045620472440941
20
-8.4446514566929132
11
4.2048715748031498
21
-8.4447130314960628
0
LINE
8
BLACK
6
CONTINUOUS
10
4.2048715748031498
20
-8.4447130314960628
11
4.2049035039370075
21
-8.4447449606299205
0
LINE
8
BLACK
6
CONTINUOUS
10
4.2049035039370075
20
-8.4447449606299205
11
4.2049986220472437
21
-8.4447710236220477
0
LINE
8
BLACK
6
CONTINUOUS
10
4.2049986220472437
20
-8.4447710236220477
11
4.2087481102362201
21
-8.4466457480314965
0
LINE
8
BLACK
6
CONTINUOUS
10
4.2087481102362201
20
-8.4466457480314965
11
4.2089974409448816
21
-8.4468392519685036
0
LINE
8
BLACK
6
CONTINUOUS
10
4.2089974409448816
20
-8.4468392519685036
11
4.2092597244094483
21
-8.4470145275590554
0
LINE
8
BLACK
6
CONTINUOUS
10
4.2092597244094483
20
-8.4470145275590554
11
4.2111344881889758
21
-8.4488892519685042
0
LINE
8
BLACK
6
CONTINUOUS
10
4.2111344881889758
20
-8.4488892519685042
11
4.2113098425196851
21
-8.4491516929133859
0
LINE
8
BLACK
6
CONTINUOUS
10
4.2113098425196851
20
-8.4491516929133859
11
4.2115032283464569
21
-8.4494008661417315
0
LINE
8
BLACK
6
CONTINUOUS
10
4.2115032283464569
20
-8.4494008661417315
11
4.2133779921259844
21
-8.4531503937007866
0
LINE
8
BLACK
6
CONTINUOUS
10
4.2133779921259844
20
-8.4531503937007866
11
4.213404015748031
21
-8.453245472440944
0
LINE
8
BLACK
6
CONTINUOUS
10
4.213404015748031
20
-8.453245472440944
11
4.2134359842519684
21
-8.4532774409448823
0
LINE
8
BLACK
6
CONTINUOUS
10
4.2134359842519684
20
-8.4532774409448823
11
4.2134975196850393
21
-8.4535869291338575
0
LINE
8
BLACK
6
CONTINUOUS
10
4.2134975196850393
20
-8.4535869291338575
11
4.213580866141732
21
-8.453891181102362
0
LINE
8
BLACK
6
CONTINUOUS
10
4.213580866141732
20
-8.453891181102362
11
4.2135665748031492
21
-8.4539340157480307
0
LINE
8
BLACK
6
CONTINUOUS
10
4.2135665748031492
20
-8.4539340157480307
11
4.2135858267716531
21
-8.4540307480314958
0
LINE
8
BLACK
6
CONTINUOUS
10
4.2135858267716531
20
-8.4540307480314958
11
4.2135858267716531
21
-8.4634045669291336
0
LINE
8
BLACK
6
CONTINUOUS
10
4.2135858267716531
20
-8.4634045669291336
11
4.2135242519685034
21
-8.4637140551181105
0
LINE
8
BLACK
6
CONTINUOUS
10
4.2135242519685034
20
-8.4637140551181105
11
4.2134848031496066
21
-8.4640270866141734
0
LINE
8
BLACK
6
CONTINUOUS
10
4.2134848031496066
20
-8.4640270866141734
11
4.2116100393700791
21
-8.4696513385826773
0
LINE
8
BLACK
6
CONTINUOUS
10
4.2116100393700791
20
-8.4696513385826773
11
4.2112296850393696
21
-8.4703186220472446
0
LINE
8
BLACK
6
CONTINUOUS
10
4.2112296850393696
20
-8.4703186220472446
11
4.2098820866141731
21
-8.4709924015748026
0
LINE
8
BLACK
6
CONTINUOUS
10
4.2098820866141731
20
-8.4709924015748026
11
4.2084527952755906
21
-8.4705159842519677
0
LINE
8
BLACK
6
CONTINUOUS
10
4.2084527952755906
20
-8.4705159842519677
11
4.2077790157480317
21
-8.4691683858267712
0
LINE
8
BLACK
6
CONTINUOUS
10
4.2077790157480317
20
-8.4691683858267712
11
4.2078750787401571
21
-8.4684063779527552
0
LINE
8
BLACK
6
CONTINUOUS
10
4.2078750787401571
20
-8.4684063779527552
11
4.2096488188976373
21
-8.4630851574803145
0
LINE
8
BLACK
6
CONTINUOUS
10
4.2096488188976373
20
-8.4630851574803145
11
4.2096488188976373
21
-8.4544954330708659
0
LINE
8
BLACK
6
CONTINUOUS
10
4.2096488188976373
20
-8.4544954330708659
11
4.2081247244094486
21
-8.4514472834645673
0
LINE
8
BLACK
6
CONTINUOUS
10
4.2081247244094486
20
-8.4514472834645673
11
4.2067017322834648
21
-8.4500242519685038
0
LINE
8
BLACK
6
CONTINUOUS
10
4.2067017322834648
20
-8.4500242519685038
11
4.2036535826771653
21
-8.448500196850393
0
LINE
8
BLACK
6
CONTINUOUS
10
4.2036535826771653
20
-8.448500196850393
11
4.2008334645669292
21
-8.448500196850393
0
LINE
8
BLACK
6
CONTINUOUS
10
4.2008334645669292
20
-8.448500196850393
11
4.1977852755905509
21
-8.4500242519685038
0
LINE
8
BLACK
6
CONTINUOUS
10
4.1977852755905509
20
-8.4500242519685038
11
4.1963622440944883
21
-8.4514472440944886
0
LINE
8
BLACK
6
CONTINUOUS
10
4.1963622440944883
20
-8.4514472440944886
11
4.1947270078740155
21
-8.4547177952755899
0
LINE
8
BLACK
6
CONTINUOUS
10
4.1947270078740155
20
-8.4547177952755899
11
4.1929046456692909
21
-8.4620072440944885
0
LINE
8
BLACK
6
CONTINUOUS
10
4.1929046456692909
20
-8.4620072440944885
11
4.192812519685039
21
-8.4622022047244094
0
LINE
8
BLACK
6
CONTINUOUS
10
4.192812519685039
20
-8.4622022047244094
11
4.1927555905511813
21
-8.4624101574803152
0
LINE
8
BLACK
6
CONTINUOUS
10
4.1927555905511813
20
-8.4624101574803152
11
4.1908808267716537
21
-8.4661596850393703
0
LINE
8
BLACK
6
CONTINUOUS
10
4.1908808267716537
20
-8.4661596850393703
11
4.190687440944882
21
-8.4664088188976372
0
LINE
8
BLACK
6
CONTINUOUS
10
4.190687440944882
20
-8.4664088188976372
11
4.1905120866141727
21
-8.4666712992125976
0
LINE
8
BLACK
6
CONTINUOUS
10
4.1905120866141727
20
-8.4666712992125976
11
4.1886373228346452
21
-8.4685460236220464
0
LINE
8
BLACK
6
CONTINUOUS
10
4.1886373228346452
20
-8.4685460236220464
11
4.1883750393700785
21
-8.4687212598425194
0
LINE
8
BLACK
6
CONTINUOUS
10
4.1883750393700785
20
-8.4687212598425194
11
4.188125708661417
21
-8.4689148031496053
0
LINE
8
BLACK
6
CONTINUOUS
10
4.188125708661417
20
-8.4689148031496053
11
4.1843762204724406
21
-8.4707895275590541
0
LINE
8
BLACK
6
CONTINUOUS
10
4.1843762204724406
20
-8.4707895275590541
11
4.1842811023622044
21
-8.4708155511811025
0
LINE
8
BLACK
6
CONTINUOUS
10
4.1842811023622044
20
-8.4708155511811025
11
4.1842491732283467
21
-8.470847519685039
0
LINE
8
BLACK
6
CONTINUOUS
10
4.1842491732283467
20
-8.470847519685039
11
4.183939645669291
21
-8.4709090551181099
0
LINE
8
BLACK
6
CONTINUOUS
10
4.183939645669291
20
-8.4709090551181099
11
4.183635433070866
21
-8.4709924015748026
0
LINE
8
BLACK
6
CONTINUOUS
10
4.183635433070866
20
-8.4709924015748026
11
4.1835925590551177
21
-8.4709781102362207
0
LINE
8
BLACK
6
CONTINUOUS
10
4.1835925590551177
20
-8.4709781102362207
11
4.1834958661417323
21
-8.4709973622047237
0
LINE
8
BLACK
6
CONTINUOUS
10
4.1834958661417323
20
-8.4709973622047237
11
4.1797463385826772
21
-8.4709973622047237
0
LINE
8
BLACK
6
CONTINUOUS
10
4.1797463385826772
20
-8.4709973622047237
11
4.1796496062992121
21
-8.4709781102362207
0
LINE
8
BLACK
6
CONTINUOUS
10
4.1796496062992121
20
-8.4709781102362207
11
4.1796067716535434
21
-8.4709924015748026
0
LINE
8
BLACK
6
CONTINUOUS
10
4.1796067716535434
20
-8.4709924015748026
11
4.1793025196850389
21
-8.4709090551181099
0
LINE
8
BLACK
6
CONTINUOUS
10
4.1793025196850389
20
-8.4709090551181099
11
4.1789930314960628
21
-8.470847519685039
0
LINE
8
BLACK
6
CONTINUOUS
10
4.1789930314960628
20
-8.470847519685039
11
4.1789610629921263
21
-8.4708155511811025
0
LINE
8
BLACK
6
CONTINUOUS
10
4.1789610629921263
20
-8.4708155511811025
11
4.178865984251968
21
-8.4707895275590541
0
LINE
8
BLACK
6
CONTINUOUS
10
4.178865984251968
20
-8.4707895275590541
11
4.1751164566929129
21
-8.4689147637795266
0
LINE
8
BLACK
6
CONTINUOUS
10
4.1751164566929129
20
-8.4689147637795266
11
4.1748672834645673
21
-8.4687213779527557
0
LINE
8
BLACK
6
CONTINUOUS
10
4.1748672834645673
20
-8.4687213779527557
11
4.1746048425196847
21
-8.4685460236220464
0
LINE
8
BLACK
6
CONTINUOUS
10
4.1746048425196847
20
-8.4685460236220464
11
4.1727301181102359
21
-8.4666712598425189
0
LINE
8
BLACK
6
CONTINUOUS
10
4.1727301181102359
20
-8.4666712598425189
11
4.1725548818897638
21
-8.4664090551181097
0
LINE
8
BLACK
6
CONTINUOUS
10
4.1725548818897638
20
-8.4664090551181097
11
4.1723613779527557
21
-8.4661596850393703
0
LINE
8
BLACK
6
CONTINUOUS
10
4.1723613779527557
20
-8.4661596850393703
11
4.1704865748031494
21
-8.4624101574803152
0
LINE
8
BLACK
6
CONTINUOUS
10
4.1704865748031494
20
-8.4624101574803152
11
4.1704605118110232
21
-8.462315039370079
0
LINE
8
BLACK
6
CONTINUOUS
10
4.1704605118110232
20
-8.462315039370079
11
4.1704285826771654
21
-8.4622831102362195
0
LINE
8
BLACK
6
CONTINUOUS
10
4.1704285826771654
20
-8.4622831102362195
11
4.1703670078740158
21
-8.4619735826771656
0
LINE
8
BLACK
6
CONTINUOUS
10
4.1703670078740158
20
-8.4619735826771656
11
4.1702837007874018
21
-8.4616693700787398
0
LINE
8
BLACK
6
CONTINUOUS
10
4.1702837007874018
20
-8.4616693700787398
11
4.170297952755905
21
-8.4616264960629923
0
LINE
8
BLACK
6
CONTINUOUS
10
4.170297952755905
20
-8.4616264960629923
11
4.1702787401574799
21
-8.461529803149606
0
LINE
8
BLACK
6
CONTINUOUS
10
4.1702787401574799
20
-8.461529803149606
11
4.1702787401574799
21
-8.4521559842519682
0
LINE
8
BLACK
6
CONTINUOUS
10
4.1702787401574799
20
-8.4521559842519682
11
4.1703402755905508
21
-8.4518464566929126
0
LINE
8
BLACK
6
CONTINUOUS
10
4.1703402755905508
20
-8.4518464566929126
11
4.1703797637795272
21
-8.4515334645669284
0
LINE
8
BLACK
6
CONTINUOUS
10
4.1703797637795272
20
-8.4515334645669284
11
4.1722545669291335
21
-8.4459091732283458
0
LINE
8
BLACK
6
CONTINUOUS
10
4.1722545669291335
20
-8.4459091732283458
11
4.1726349212598421
21
-8.445241929133859
0
LINE
8
BLACK
6
CONTINUOUS
10
4.1726349212598421
20
-8.445241929133859
11
4.1739825196850395
21
-8.4445681496062992
0
LINE
8
BLACK
6
CONTINUOUS
10
4.1739825196850395
20
-8.4445681496062992
11
4.175411811023622
21
-8.4450445669291341
0
LINE
8
BLACK
6
CONTINUOUS
10
4.175411811023622
20
-8.4450445669291341
11
4.1760855905511809
21
-8.4463921653543306
0
LINE
8
BLACK
6
CONTINUOUS
10
4.1760855905511809
20
-8.4463921653543306
11
4.1759895275590546
21
-8.4471542125984254
0
LINE
8
BLACK
6
CONTINUOUS
10
4.1759895275590546
20
-8.4471542125984254
11
4.1742157480314956
21
-8.452475433070866
0
LINE
8
BLACK
6
CONTINUOUS
10
4.1742157480314956
20
-8.452475433070866
11
4.1742157480314956
21
-8.4610650787401571
0
LINE
8
BLACK
6
CONTINUOUS
10
4.1742157480314956
20
-8.4610650787401571
11
4.1757398425196852
21
-8.4641132677165345
0
LINE
8
BLACK
6
CONTINUOUS
10
4.1757398425196852
20
-8.4641132677165345
11
4.1771628740157478
21
-8.4655362598425192
0
LINE
8
BLACK
6
CONTINUOUS
10
4.1771628740157478
20
-8.4655362598425192
11
4.1802110629921261
21
-8.4670603543307088
0
LINE
8
BLACK
6
CONTINUOUS
10
4.1802110629921261
20
-8.4670603543307088
11
4.1830311811023622
21
-8.4670603543307088
0
LINE
8
BLACK
6
CONTINUOUS
10
4.1830311811023622
20
-8.4670603543307088
11
4.1860793307086617
21
-8.4655362598425192
0
LINE
8
BLACK
6
CONTINUOUS
10
4.1860793307086617
20
-8.4655362598425192
11
4.1875023228346455
21
-8.4641132283464557
0
LINE
8
BLACK
6
CONTINUOUS
10
4.1875023228346455
20
-8.4641132283464557
11
4.1891375984251971
21
-8.4608426771653544
0
LINE
8
BLACK
6
CONTINUOUS
10
4.1891375984251971
20
-8.4608426771653544
11
4.1909599606299208
21
-8.4535533070866133
0
LINE
8
BLACK
6
CONTINUOUS
10
4.1909599606299208
20
-8.4535533070866133
11
4.191052047244094
21
-8.4533583070866136
0
LINE
8
BLACK
6
CONTINUOUS
10
4.191052047244094
20
-8.4533583070866136
11
4.1911090157480313
21
-8.4531503937007866
0
LINE
8
BLACK
6
CONTINUOUS
10
4.1911090157480313
20
-8.4531503937007866
11
4.1929837401574801
21
-8.4494009055118102
0
LINE
8
BLACK
6
CONTINUOUS
10
4.1929837401574801
20
-8.4494009055118102
11
4.1931772440944881
21
-8.4491515354330708
0
LINE
8
BLACK
6
CONTINUOUS
10
4.1931772440944881
20
-8.4491515354330708
11
4.193352519685039
21
-8.4488892913385829
0
LINE
8
BLACK
6
CONTINUOUS
10
4.193352519685039
20
-8.4488892913385829
11
4.1952272440944878
21
-8.4470145275590554
0
LINE
8
BLACK
6
CONTINUOUS
10
4.1952272440944878
20
-8.4470145275590554
11
4.1954896850393704
21
-8.4468391338582673
0
LINE
8
BLACK
6
CONTINUOUS
10
4.1954896850393704
20
-8.4468391338582673
11
4.1957388582677169
21
-8.4466457874015752
0
LINE
8
BLACK
6
CONTINUOUS
10
4.1957388582677169
20
-8.4466457874015752
11
4.199488385826772
21
-8.4447710236220477
0
LINE
8
BLACK
6
CONTINUOUS
10
4.199488385826772
20
-8.4447710236220477
11
4.1995834645669294
21
-8.4447449606299205
0
LINE
8
BLACK
6
CONTINUOUS
10
4.1995834645669294
20
-8.4447449606299205
11
4.1996154330708659
21
-8.4447130314960628
0
LINE
8
BLACK
6
CONTINUOUS
10
4.1996154330708659
20
-8.4447130314960628
11
4.1999249212598428
21
-8.4446514566929132
0
LINE
8
BLACK
6
CONTINUOUS
10
4.1999249212598428
20
-8.4446514566929132
11
4.2002291732283465
21
-8.4445681496062992
0
LINE
8
BLACK
6
CONTINUOUS
10
4.2002291732283465
20
-8.4445681496062992
11
4.2002720078740152
21
-8.4445824015748023
0
LINE
8
BLACK
6
CONTINUOUS
10
4.2002720078740152
20
-8.4445824015748023
11
4.2003687401574803
21
-8.4445631889763781
0
LINE
8
BLACK
6
CONTINUOUS
10
4.2003687401574803
20
-8.4445631889763781
11
4.2041182677165354
21
-8.4445631889763781
0
LINE
8
BLACK
6
CONTINUOUS
10
4.2041182677165354
20
-8.4445631889763781
11
4.2042149606299208
21
-8.4445824015748023
0
LINE
8
BLACK
6
CONTINUOUS
10
6.8927165354330704
20
-5.2777559055118113
11
7.3887795275590546
21
-5.2777559055118113
0
LINE
8
BLACK
6
CONTINUOUS
10
7.3887795275590546
20
-5.2777559055118113
11
7.389532834645669
21
-5.2779057480314959
0
LINE
8
BLACK
6
CONTINUOUS
10
7.389532834645669
20
-5.2779057480314959
11
7.3905981889763774
21
-5.2789711023622043
0
LINE
8
BLACK
6
CONTINUOUS
10
7.3905981889763774
20
-5.2789711023622043
11
7.390748031496063
21
-5.2797244094488187
0
LINE
8
BLACK
6
CONTINUOUS
10
7.390748031496063
20
-5.2797244094488187
11
7.390748031496063
21
-5.775787401574803
0
LINE
8
BLACK
6
CONTINUOUS
10
7.390748031496063
20
-5.775787401574803
11
7.390748031496063
21
-6.8545275590551178
0
LINE
8
BLACK
6
CONTINUOUS
10
7.390748031496063
20
-6.8545275590551178
11
7.3905981889763774
21
-6.8552808661417322
0
LINE
8
BLACK
6
CONTINUOUS
10
7.3905981889763774
20
-6.8552808661417322
11
7.389532834645669
21
-6.8563462204724406
0
LINE
8
BLACK
6
CONTINUOUS
10
7.389532834645669
20
-6.8563462204724406
11
7.3887795275590546
21
-6.8564960629921261
0
LINE
8
BLACK
6
CONTINUOUS
10
7.3887795275590546
20
-6.8564960629921261
11
4.2391732283464565
21
-6.8564960629921261
0
LINE
8
BLACK
6
CONTINUOUS
10
4.2391732283464565
20
-6.8564960629921261
11
4.2384199212598421
21
-6.8563462204724406
0
LINE
8
BLACK
6
CONTINUOUS
10
4.2384199212598421
20
-6.8563462204724406
11
4.2373545669291337
21
-6.8552808661417322
0
LINE
8
BLACK
6
CONTINUOUS
10
4.2373545669291337
20
-6.8552808661417322
11
4.2372047244094491
21
-6.8545275590551178
0
LINE
8
BLACK
6
CONTINUOUS
10
4.2372047244094491
20
-6.8545275590551178
11
4.2372047244094491
21
-5.8309055118110233
0
LINE
8
BLACK
6
CONTINUOUS
10
4.2372047244094491
20
-5.8309055118110233
11
4.2373545669291337
21
-5.830152204724409
0
LINE
8
BLACK
6
CONTINUOUS
10
4.2373545669291337
20
-5.830152204724409
11
4.2377812992125987
21
-5.8295135826771656
0
LINE
8
BLACK
6
CONTINUOUS
10
4.2377812992125987
20
-5.8295135826771656
11
4.7889624015748034
21
-5.2783324803149609
0
LINE
8
BLACK
6
CONTINUOUS
10
4.7889624015748034
20
-5.2783324803149609
11
4.7896010236220468
21
-5.2779057480314959
0
LINE
8
BLACK
6
CONTINUOUS
10
4.7896010236220468
20
-5.2779057480314959
11
4.7903543307086611
21
-5.2777559055118113
0
LINE
8
BLACK
6
CONTINUOUS
10
4.7903543307086611
20
-5.2777559055118113
11
6.8927165354330704
21
-5.2777559055118113
0
LINE
8
BLACK
6
CONTINUOUS
10
4.7911696850393701
20
-5.281692913385827
11
4.2411417322834648
21
-5.8317208661417324
0
LINE
8
BLACK
6
CONTINUOUS
10
4.2411417322834648
20
-5.8317208661417324
11
4.2411417322834648
21
-6.8525590551181104
0
LINE
8
BLACK
6
CONTINUOUS
10
4.2411417322834648
20
-6.8525590551181104
11
7.3868110236220472
21
-6.8525590551181104
0
LINE
8
BLACK
6
CONTINUOUS
10
7.3868110236220472
20
-6.8525590551181104
11
7.3868110236220472
21
-5.776602755905512
0
LINE
8
BLACK
6
CONTINUOUS
10
7.3868110236220472
20
-5.776602755905512
11
6.8919011811023623
21
-5.281692913385827
0
LINE
8
BLACK
6
CONTINUOUS
10
6.8919011811023623
20
-5.281692913385827
11
4.7911696850393701
21
-5.281692913385827
0
LINE
8
BLACK
6
CONTINUOUS
10
6.8974688976377951
20
-5.281692913385827
11
7.3868110236220472
21
-5.7710350393700782
0
LINE
8
BLACK
6
CONTINUOUS
10
7.3868110236220472
20
-5.7710350393700782
11
7.3868110236220472
21
-5.281692913385827
0
LINE
8
BLACK
6
CONTINUOUS
10
7.3868110236220472
20
-5.281692913385827
11
6.8974688976377951
21
-5.281692913385827
0
LINE
8
BLACK
6
CONTINUOUS
10
6.9070866141732283
20
-3.4055118110236218
11
7.4031496062992126
21
-3.4055118110236218
0
LINE
8
BLACK
6
CONTINUOUS
10
7.4031496062992126
20
-3.4055118110236218
11
7.403902913385827
21
-3.4056616535433069
0
LINE
8
BLACK
6
CONTINUOUS
10
7.403902913385827
20
-3.4056616535433069
11
7.4049682677165354
21
-3.4067270078740157
0
LINE
8
BLACK
6
CONTINUOUS
10
7.4049682677165354
20
-3.4067270078740157
11
7.40511811023622
21
-3.4074803149606296
0
LINE
8
BLACK
6
CONTINUOUS
10
7.40511811023622
20
-3.4074803149606296
11
7.40511811023622
21
-3.9035433070866139
0
LINE
8
BLACK
6
CONTINUOUS
10
7.40511811023622
20
-3.9035433070866139
11
7.40511811023622
21
-4.9822834645669287
0
LINE
8
BLACK
6
CONTINUOUS
10
7.40511811023622
20
-4.9822834645669287
11
7.4049682677165354
21
-4.9830367716535431
0
LINE
8
BLACK
6
CONTINUOUS
10
7.4049682677165354
20
-4.9830367716535431
11
7.403902913385827
21
-4.9841021259842515
0
LINE
8
BLACK
6
CONTINUOUS
10
7.403902913385827
20
-4.9841021259842515
11
7.4031496062992126
21
-4.984251968503937
0
LINE
8
BLACK
6
CONTINUOUS
10
7.4031496062992126
20
-4.984251968503937
11
4.2535433070866144
21
-4.984251968503937
0
LINE
8
BLACK
6
CONTINUOUS
10
4.2535433070866144
20
-4.984251968503937
11
4.2527900000000001
21
-4.9841021259842515
0
LINE
8
BLACK
6
CONTINUOUS
10
4.2527900000000001
20
-4.9841021259842515
11
4.2517246456692916
21
-4.9830367716535431
0
LINE
8
BLACK
6
CONTINUOUS
10
4.2517246456692916
20
-4.9830367716535431
11
4.2515748031496061
21
-4.9822834645669287
0
LINE
8
BLACK
6
CONTINUOUS
10
4.2515748031496061
20
-4.9822834645669287
11
4.2515748031496061
21
-3.9586614173228347
0
LINE
8
BLACK
6
CONTINUOUS
10
4.2515748031496061
20
-3.9586614173228347
11
4.2517246456692916
21
-3.9579081102362204
0
LINE
8
BLACK
6
CONTINUOUS
10
4.2517246456692916
20
-3.9579081102362204
11
4.2521513779527558
21
-3.9572694881889765
0
LINE
8
BLACK
6
CONTINUOUS
10
4.2521513779527558
20
-3.9572694881889765
11
4.8033324803149604
21
-3.4060883858267714
0
LINE
8
BLACK
6
CONTINUOUS
10
4.8033324803149604
20
-3.4060883858267714
11
4.8039711023622047
21
-3.4056616535433069
0
LINE
8
BLACK
6
CONTINUOUS
10
4.8039711023622047
20
-3.4056616535433069
11
4.8047244094488191
21
-3.4055118110236218
0
LINE
8
BLACK
6
CONTINUOUS
10
4.8047244094488191
20
-3.4055118110236218
11
6.9070866141732283
21
-3.4055118110236218
0
LINE
8
BLACK
6
CONTINUOUS
10
4.8055397637795272
20
-3.4094488188976375
11
4.2555118110236219
21
-3.9594767716535433
0
LINE
8
BLACK
6
CONTINUOUS
10
4.2555118110236219
20
-3.9594767716535433
11
4.2555118110236219
21
-4.9803149606299213
0
LINE
8
BLACK
6
CONTINUOUS
10
4.2555118110236219
20
-4.9803149606299213
11
7.4011811023622043
21
-4.9803149606299213
0
LINE
8
BLACK
6
CONTINUOUS
10
7.4011811023622043
20
-4.9803149606299213
11
7.4011811023622043
21
-3.9043586614173229
0
LINE
8
BLACK
6
CONTINUOUS
10
7.4011811023622043
20
-3.9043586614173229
11
6.9062712598425193
21
-3.4094488188976375
0
LINE
8
BLACK
6
CONTINUOUS
10
6.9062712598425193
20
-3.4094488188976375
11
4.8055397637795272
21
-3.4094488188976375
0
LINE
8
BLACK
6
CONTINUOUS
10
6.9118389763779522
20
-3.4094488188976375
11
7.4011811023622043
21
-3.8987909448818896
0
LINE
8
BLACK
6
CONTINUOUS
10
7.4011811023622043
20
-3.8987909448818896
11
7.4011811023622043
21
-3.4094488188976375
0
LINE
8
BLACK
6
CONTINUOUS
10
7.4011811023622043
20
-3.4094488188976375
11
6.9118389763779522
21
-3.4094488188976375
0
LINE
8
BLACK
6
CONTINUOUS
10
4.2255422834645664
20
-3.4320363385826771
11
4.2256921259842519
21
-3.4327896456692915
0
LINE
8
BLACK
6
CONTINUOUS
10
4.2256921259842519
20
-3.4327896456692915
11
4.2256921259842519
21
-3.4590363385826772
0
LINE
8
BLACK
6
CONTINUOUS
10
4.2256921259842519
20
-3.4590363385826772
11
4.2256888582677163
21
-3.4590526377952755
0
LINE
8
BLACK
6
CONTINUOUS
10
4.2256888582677163
20
-3.4590526377952755
11
4.2256919685039369
21
-3.4590603543307088
0
LINE
8
BLACK
6
CONTINUOUS
10
4.2256919685039369
20
-3.4590603543307088
11
4.2256833464566927
21
-3.459080433070866
0
LINE
8
BLACK
6
CONTINUOUS
10
4.2256833464566927
20
-3.459080433070866
11
4.2255422834645664
21
-3.4597896456692911
0
LINE
8
BLACK
6
CONTINUOUS
10
4.2255422834645664
20
-3.4597896456692911
11
4.225257204724409
21
-3.4600746850393702
0
LINE
8
BLACK
6
CONTINUOUS
10
4.225257204724409
20
-3.4600746850393702
11
4.2250984645669289
21
-3.4604451181102363
0
LINE
8
BLACK
6
CONTINUOUS
10
4.2250984645669289
20
-3.4604451181102363
11
4.2247456692913383
21
-3.4605862204724409
0
LINE
8
BLACK
6
CONTINUOUS
10
4.2247456692913383
20
-3.4605862204724409
11
4.224476929133858
21
-3.460855
0
LINE
8
BLACK
6
CONTINUOUS
10
4.224476929133858
20
-3.460855
11
4.2240738188976374
21
-3.460855
0
LINE
8
BLACK
6
CONTINUOUS
10
4.2240738188976374
20
-3.460855
11
4.2236996062992125
21
-3.4610046850393701
0
LINE
8
BLACK
6
CONTINUOUS
10
4.2236996062992125
20
-3.4610046850393701
11
4.222992283464567
21
-3.460855
0
LINE
8
BLACK
6
CONTINUOUS
10
4.222992283464567
20
-3.460855
11
4.2229703149606301
21
-3.460855
0
LINE
8
BLACK
6
CONTINUOUS
10
4.2229703149606301
20
-3.460855
11
4.222964409448819
21
-3.4608490944881889
0
LINE
8
BLACK
6
CONTINUOUS
10
4.222964409448819
20
-3.4608490944881889
11
4.2229481889763782
21
-3.4608456692913383
0
LINE
8
BLACK
6
CONTINUOUS
10
4.2229481889763782
20
-3.4608456692913383
11
4.1835781102362199
21
-3.4439727952755903
0
LINE
8
BLACK
6
CONTINUOUS
10
4.1835781102362199
20
-3.4439727952755903
11
4.1829447244094489
21
-3.4435383464566929
0
LINE
8
BLACK
6
CONTINUOUS
10
4.1829447244094489
20
-3.4435383464566929
11
4.1823851968503938
21
-3.4421394488188977
0
LINE
8
BLACK
6
CONTINUOUS
10
4.1823851968503938
20
-3.4421394488188977
11
4.182978661417323
21
-3.4407546456692915
0
LINE
8
BLACK
6
CONTINUOUS
10
4.182978661417323
20
-3.4407546456692915
11
4.1843775590551182
21
-3.4401951181102359
0
LINE
8
BLACK
6
CONTINUOUS
10
4.1843775590551182
20
-3.4401951181102359
11
4.1851289763779524
21
-3.4403541338582677
0
LINE
8
BLACK
6
CONTINUOUS
10
4.1851289763779524
20
-3.4403541338582677
11
4.2217551181102362
21
-3.456051023622047
0
LINE
8
BLACK
6
CONTINUOUS
10
4.2217551181102362
20
-3.456051023622047
11
4.2217551181102362
21
-3.4327896456692915
0
LINE
8
BLACK
6
CONTINUOUS
10
4.2217551181102362
20
-3.4327896456692915
11
4.2219049606299208
21
-3.4320363385826771
0
LINE
8
BLACK
6
CONTINUOUS
10
4.2219049606299208
20
-3.4320363385826771
11
4.2229703149606301
21
-3.4309709842519682
0
LINE
8
BLACK
6
CONTINUOUS
10
4.2229703149606301
20
-3.4309709842519682
11
4.224476929133858
21
-3.4309709842519682
0
LINE
8
BLACK
6
CONTINUOUS
10
4.224476929133858
20
-3.4309709842519682
11
4.2255422834645664
21
-3.4320363385826771
0
LINE
8
BLACK
6
CONTINUOUS
10
4.2070873228346457
20
-3.3933728740157481
11
4.2073281889763781
21
-3.3933846062992123
0
LINE
8
BLACK
6
CONTINUOUS
10
4.2073281889763781
20
-3.3933846062992123
11
4.2148272440944883
21
-3.3952593700787399
0
LINE
8
BLACK
6
CONTINUOUS
10
4.2148272440944883
20
-3.3952593700787399
11
4.2150222047244092
21
-3.3953514566929135
0
LINE
8
BLACK
6
CONTINUOUS
10
4.2150222047244092
20
-3.3953514566929135
11
4.215230157480315
21
-3.3954084251968504
0
LINE
8
BLACK
6
CONTINUOUS
10
4.215230157480315
20
-3.3954084251968504
11
4.2189796456692914
21
-3.3972831496062992
0
LINE
8
BLACK
6
CONTINUOUS
10
4.2189796456692914
20
-3.3972831496062992
11
4.2192289763779529
21
-3.3974766535433072
0
LINE
8
BLACK
6
CONTINUOUS
10
4.2192289763779529
20
-3.3974766535433072
11
4.2194912598425196
21
-3.3976519291338581
0
LINE
8
BLACK
6
CONTINUOUS
10
4.2194912598425196
20
-3.3976519291338581
11
4.2232407874015747
21
-3.4014014566929132
0
LINE
8
BLACK
6
CONTINUOUS
10
4.2232407874015747
20
-3.4014014566929132
11
4.2232955118110231
21
-3.4014833858267717
0
LINE
8
BLACK
6
CONTINUOUS
10
4.2232955118110231
20
-3.4014833858267717
11
4.2233359842519684
21
-3.4015036220472439
0
LINE
8
BLACK
6
CONTINUOUS
10
4.2233359842519684
20
-3.4015036220472439
11
4.2234922834645667
21
-3.4017778346456691
0
LINE
8
BLACK
6
CONTINUOUS
10
4.2234922834645667
20
-3.4017778346456691
11
4.2236675196850388
21
-3.4020400787401575
0
LINE
8
BLACK
6
CONTINUOUS
10
4.2236675196850388
20
-3.4020400787401575
11
4.2236675196850388
21
-3.4020852362204725
0
LINE
8
BLACK
6
CONTINUOUS
10
4.2236675196850388
20
-3.4020852362204725
11
4.223716338582677
21
-3.4021709055118108
0
LINE
8
BLACK
6
CONTINUOUS
10
4.223716338582677
20
-3.4021709055118108
11
4.2255911023622046
21
-3.4077951574803147
0
LINE
8
BLACK
6
CONTINUOUS
10
4.2255911023622046
20
-3.4077951574803147
11
4.2256305511811023
21
-3.4081081496062993
0
LINE
8
BLACK
6
CONTINUOUS
10
4.2256305511811023
20
-3.4081081496062993
11
4.2256921259842519
21
-3.408417677165354
0
LINE
8
BLACK
6
CONTINUOUS
10
4.2256921259842519
20
-3.408417677165354
11
4.2256921259842519
21
-3.4121672047244092
0
LINE
8
BLACK
6
CONTINUOUS
10
4.2256921259842519
20
-3.4121672047244092
11
4.2256305511811023
21
-3.4124766929133856
0
LINE
8
BLACK
6
CONTINUOUS
10
4.2256305511811023
20
-3.4124766929133856
11
4.2255911023622046
21
-3.4127897244094489
0
LINE
8
BLACK
6
CONTINUOUS
10
4.2255911023622046
20
-3.4127897244094489
11
4.223716338582677
21
-3.4184139763779529
0
LINE
8
BLACK
6
CONTINUOUS
10
4.223716338582677
20
-3.4184139763779529
11
4.2236675196850388
21
-3.4184996062992123
0
LINE
8
BLACK
6
CONTINUOUS
10
4.2236675196850388
20
-3.4184996062992123
11
4.2236675196850388
21
-3.4185448425196849
0
LINE
8
BLACK
6
CONTINUOUS
10
4.2236675196850388
20
-3.4185448425196849
11
4.2234921259842517
21
-3.4188072834645666
0
LINE
8
BLACK
6
CONTINUOUS
10
4.2234921259842517
20
-3.4188072834645666
11
4.2233359842519684
21
-3.4190812598425198
0
LINE
8
BLACK
6
CONTINUOUS
10
4.2233359842519684
20
-3.4190812598425198
11
4.2232955511811019
21
-3.4191014566929132
0
LINE
8
BLACK
6
CONTINUOUS
10
4.2232955511811019
20
-3.4191014566929132
11
4.2232407874015747
21
-3.4191834645669292
0
LINE
8
BLACK
6
CONTINUOUS
10
4.2232407874015747
20
-3.4191834645669292
11
4.2213660236220472
21
-3.421058188976378
0
LINE
8
BLACK
6
CONTINUOUS
10
4.2213660236220472
20
-3.421058188976378
11
4.2207274015748029
21
-3.4214849212598426
0
LINE
8
BLACK
6
CONTINUOUS
10
4.2207274015748029
20
-3.4214849212598426
11
4.219220787401575
21
-3.4214849212598426
0
LINE
8
BLACK
6
CONTINUOUS
10
4.219220787401575
20
-3.4214849212598426
11
4.2181554330708657
21
-3.4204195669291337
0
LINE
8
BLACK
6
CONTINUOUS
10
4.2181554330708657
20
-3.4204195669291337
11
4.2181554330708657
21
-3.4189129527559055
0
LINE
8
BLACK
6
CONTINUOUS
10
4.2181554330708657
20
-3.4189129527559055
11
4.2185821653543307
21
-3.4182743307086612
0
LINE
8
BLACK
6
CONTINUOUS
10
4.2185821653543307
20
-3.4182743307086612
11
4.2201283070866138
21
-3.4167281102362206
0
LINE
8
BLACK
6
CONTINUOUS
10
4.2201283070866138
20
-3.4167281102362206
11
4.2217551181102362
21
-3.4118477952755906
0
LINE
8
BLACK
6
CONTINUOUS
10
4.2217551181102362
20
-3.4118477952755906
11
4.2217551181102362
21
-3.4087370866141731
0
LINE
8
BLACK
6
CONTINUOUS
10
4.2217551181102362
20
-3.4087370866141731
11
4.2201283070866138
21
-3.4038566929133856
0
LINE
8
BLACK
6
CONTINUOUS
10
4.2201283070866138
20
-3.4038566929133856
11
4.216933307086614
21
-3.4006616929133857
0
LINE
8
BLACK
6
CONTINUOUS
10
4.216933307086614
20
-3.4006616929133857
11
4.2136627559055118
21
-3.3990264173228346
0
LINE
8
BLACK
6
CONTINUOUS
10
4.2136627559055118
20
-3.3990264173228346
11
4.2066084251968503
21
-3.397262834645669
0
LINE
8
BLACK
6
CONTINUOUS
10
4.2066084251968503
20
-3.397262834645669
11
4.2014687795275591
21
-3.397262834645669
0
LINE
8
BLACK
6
CONTINUOUS
10
4.2014687795275591
20
-3.397262834645669
11
4.1944144881889764
21
-3.3990263779527559
0
LINE
8
BLACK
6
CONTINUOUS
10
4.1944144881889764
20
-3.3990263779527559
11
4.1911438582677167
21
-3.4006616929133857
0
LINE
8
BLACK
6
CONTINUOUS
10
4.1911438582677167
20
-3.4006616929133857
11
4.187948858267716
21
-3.4038566929133856
0
LINE
8
BLACK
6
CONTINUOUS
10
4.187948858267716
20
-3.4038566929133856
11
4.1863220472440945
21
-3.4087371259842518
0
LINE
8
BLACK
6
CONTINUOUS
10
4.1863220472440945
20
-3.4087371259842518
11
4.1863220472440945
21
-3.4118477165354331
0
LINE
8
BLACK
6
CONTINUOUS
10
4.1863220472440945
20
-3.4118477165354331
11
4.187948858267716
21
-3.4167281496062993
0
LINE
8
BLACK
6
CONTINUOUS
10
4.187948858267716
20
-3.4167281496062993
11
4.1894950393700787
21
-3.4182742913385824
0
LINE
8
BLACK
6
CONTINUOUS
10
4.1894950393700787
20
-3.4182742913385824
11
4.1899217716535428
21
-3.4189129133858267
0
LINE
8
BLACK
6
CONTINUOUS
10
4.1899217716535428
20
-3.4189129133858267
11
4.1899217716535428
21
-3.4204195669291337
0
LINE
8
BLACK
6
CONTINUOUS
10
4.1899217716535428
20
-3.4204195669291337
11
4.1888564173228344
21
-3.4214849212598426
0
LINE
8
BLACK
6
CONTINUOUS
10
4.1888564173228344
20
-3.4214849212598426
11
4.1873497637795278
21
-3.4214849212598426
0
LINE
8
BLACK
6
CONTINUOUS
10
4.1873497637795278
20
-3.4214849212598426
11
4.1867111417322835
21
-3.421058188976378
0
LINE
8
BLACK
6
CONTINUOUS
10
4.1867111417322835
20
-3.421058188976378
11
4.1848364173228347
21
-3.4191834251968505
0
LINE
8
BLACK
6
CONTINUOUS
10
4.1848364173228347
20
-3.4191834251968505
11
4.1847816535433067
21
-3.4191014566929132
0
LINE
8
BLACK
6
CONTINUOUS
10
4.1847816535433067
20
-3.4191014566929132
11
4.184741220472441
21
-3.4190812598425198
0
LINE
8
BLACK
6
CONTINUOUS
10
4.184741220472441
20
-3.4190812598425198
11
4.1845848425196852
21
-3.4188069291338583
0
LINE
8
BLACK
6
CONTINUOUS
10
4.1845848425196852
20
-3.4188069291338583
11
4.1844096850393697
21
-3.4185448031496062
0
LINE
8
BLACK
6
CONTINUOUS
10
4.1844096850393697
20
-3.4185448031496062
11
4.1844096850393697
21
-3.4184996456692911
0
LINE
8
BLACK
6
CONTINUOUS
10
4.1844096850393697
20
-3.4184996456692911
11
4.1843608661417324
21
-3.4184140157480316
0
LINE
8
BLACK
6
CONTINUOUS
10
4.1843608661417324
20
-3.4184140157480316
11
4.1824860629921261
21
-3.4127897244094489
0
LINE
8
BLACK
6
CONTINUOUS
10
4.1824860629921261
20
-3.4127897244094489
11
4.1824465748031496
21
-3.4124766929133856
0
LINE
8
BLACK
6
CONTINUOUS
10
4.1824465748031496
20
-3.4124766929133856
11
4.1823850393700788
21
-3.4121672047244092
0
LINE
8
BLACK
6
CONTINUOUS
10
4.1823850393700788
20
-3.4121672047244092
11
4.1823850393700788
21
-3.408417677165354
0
LINE
8
BLACK
6
CONTINUOUS
10
4.1823850393700788
20
-3.408417677165354
11
4.1824465748031496
21
-3.4081081496062993
0
LINE
8
BLACK
6
CONTINUOUS
10
4.1824465748031496
20
-3.4081081496062993
11
4.1824860629921261
21
-3.4077951574803147
0
LINE
8
BLACK
6
CONTINUOUS
10
4.1824860629921261
20
-3.4077951574803147
11
4.1843608661417324
21
-3.402170866141732
0
LINE
8
BLACK
6
CONTINUOUS
10
4.1843608661417324
20
-3.402170866141732
11
4.1844096850393697
21
-3.4020851968503938
0
LINE
8
BLACK
6
CONTINUOUS
10
4.1844096850393697
20
-3.4020851968503938
11
4.1844096850393697
21
-3.4020400787401575
0
LINE
8
BLACK
6
CONTINUOUS
10
4.1844096850393697
20
-3.4020400787401575
11
4.1845848425196852
21
-3.4017779133858266
0
LINE
8
BLACK
6
CONTINUOUS
10
4.1845848425196852
20
-3.4017779133858266
11
4.184741220472441
21
-3.4015036220472439
0
LINE
8
BLACK
6
CONTINUOUS
10
4.184741220472441
20
-3.4015036220472439
11
4.1847816535433067
21
-3.4014833858267717
0
LINE
8
BLACK
6
CONTINUOUS
10
4.1847816535433067
20
-3.4014833858267717
11
4.1848364173228347
21
-3.4014014566929132
0
LINE
8
BLACK
6
CONTINUOUS
10
4.1848364173228347
20
-3.4014014566929132
11
4.1885859448818898
21
-3.3976519291338581
0
LINE
8
BLACK
6
CONTINUOUS
10
4.1885859448818898
20
-3.3976519291338581
11
4.1888481102362203
21
-3.3974766929133859
0
LINE
8
BLACK
6
CONTINUOUS
10
4.1888481102362203
20
-3.3974766929133859
11
4.1890975196850393
21
-3.3972831889763779
0
LINE
8
BLACK
6
CONTINUOUS
10
4.1890975196850393
20
-3.3972831889763779
11
4.1928470472440944
21
-3.3954084251968504
0
LINE
8
BLACK
6
CONTINUOUS
10
4.1928470472440944
20
-3.3954084251968504
11
4.1930549606299214
21
-3.3953514566929135
0
LINE
8
BLACK
6
CONTINUOUS
10
4.1930549606299214
20
-3.3953514566929135
11
4.1932499606299212
21
-3.3952593700787399
0
LINE
8
BLACK
6
CONTINUOUS
10
4.1932499606299212
20
-3.3952593700787399
11
4.2007490157480314
21
-3.3933846062992123
0
LINE
8
BLACK
6
CONTINUOUS
10
4.2007490157480314
20
-3.3933846062992123
11
4.200989842519685
21
-3.3933728740157481
0
LINE
8
BLACK
6
CONTINUOUS
10
4.200989842519685
20
-3.3933728740157481
11
4.2012264566929129
21
-3.3933258267716533
0
LINE
8
BLACK
6
CONTINUOUS
10
4.2012264566929129
20
-3.3933258267716533
11
4.2068507480314956
21
-3.3933258267716533
0
LINE
8
BLACK
6
CONTINUOUS
10
4.2068507480314956
20
-3.3933258267716533
11
4.2070873228346457
21
-3.3933728740157481
0
LINE
8
BLACK
6
CONTINUOUS
10
4.2163212598425197
20
-3.355849724409449
11
4.216364133858268
21
-3.3558354724409449
0
LINE
8
BLACK
6
CONTINUOUS
10
4.216364133858268
20
-3.3558354724409449
11
4.216668346456693
21
-3.3559187795275589
0
LINE
8
BLACK
6
CONTINUOUS
10
4.216668346456693
20
-3.3559187795275589
11
4.2169778740157478
21
-3.3559803543307085
0
LINE
8
BLACK
6
CONTINUOUS
10
4.2169778740157478
20
-3.3559803543307085
11
4.2170098031496064
21
-3.3560122834645667
0
LINE
8
BLACK
6
CONTINUOUS
10
4.2170098031496064
20
-3.3560122834645667
11
4.2171049212598426
21
-3.356038346456693
0
LINE
8
BLACK
6
CONTINUOUS
10
4.2171049212598426
20
-3.356038346456693
11
4.220854409448819
21
-3.3579130708661418
0
LINE
8
BLACK
6
CONTINUOUS
10
4.220854409448819
20
-3.3579130708661418
11
4.2211037401574805
21
-3.3581065748031493
0
LINE
8
BLACK
6
CONTINUOUS
10
4.2211037401574805
20
-3.3581065748031493
11
4.2213660236220472
21
-3.3582818503937006
0
LINE
8
BLACK
6
CONTINUOUS
10
4.2213660236220472
20
-3.3582818503937006
11
4.2232407874015747
21
-3.3601565748031494
0
LINE
8
BLACK
6
CONTINUOUS
10
4.2232407874015747
20
-3.3601565748031494
11
4.2234161417322831
21
-3.3604190157480316
0
LINE
8
BLACK
6
CONTINUOUS
10
4.2234161417322831
20
-3.3604190157480316
11
4.2236095275590548
21
-3.3606681889763781
0
LINE
8
BLACK
6
CONTINUOUS
10
4.2236095275590548
20
-3.3606681889763781
11
4.2254842913385824
21
-3.3644177165354332
0
LINE
8
BLACK
6
CONTINUOUS
10
4.2254842913385824
20
-3.3644177165354332
11
4.2255103149606299
21
-3.3645127952755907
0
LINE
8
BLACK
6
CONTINUOUS
10
4.2255103149606299
20
-3.3645127952755907
11
4.2255422834645664
21
-3.3645447637795276
0
LINE
8
BLACK
6
CONTINUOUS
10
4.2255422834645664
20
-3.3645447637795276
11
4.2256038188976381
21
-3.3648542519685041
0
LINE
8
BLACK
6
CONTINUOUS
10
4.2256038188976381
20
-3.3648542519685041
11
4.2256871653543309
21
-3.3651585039370078
0
LINE
8
BLACK
6
CONTINUOUS
10
4.2256871653543309
20
-3.3651585039370078
11
4.2256728740157481
21
-3.3652013385826769
0
LINE
8
BLACK
6
CONTINUOUS
10
4.2256728740157481
20
-3.3652013385826769
11
4.2256921259842519
21
-3.3652980708661415
0
LINE
8
BLACK
6
CONTINUOUS
10
4.2256921259842519
20
-3.3652980708661415
11
4.2256921259842519
21
-3.3746718897637793
0
LINE
8
BLACK
6
CONTINUOUS
10
4.2256921259842519
20
-3.3746718897637793
11
4.2256305511811023
21
-3.3749813779527558
0
LINE
8
BLACK
6
CONTINUOUS
10
4.2256305511811023
20
-3.3749813779527558
11
4.2255911023622046
21
-3.3752944094488186
0
LINE
8
BLACK
6
CONTINUOUS
10
4.2255911023622046
20
-3.3752944094488186
11
4.223716338582677
21
-3.3809186614173226
0
LINE
8
BLACK
6
CONTINUOUS
10
4.223716338582677
20
-3.3809186614173226
11
4.2233359842519684
21
-3.3815859448818899
0
LINE
8
BLACK
6
CONTINUOUS
10
4.2233359842519684
20
-3.3815859448818899
11
4.2219883858267719
21
-3.3822597244094488
0
LINE
8
BLACK
6
CONTINUOUS
10
4.2219883858267719
20
-3.3822597244094488
11
4.2205590944881886
21
-3.3817833070866139
0
LINE
8
BLACK
6
CONTINUOUS
10
4.2205590944881886
20
-3.3817833070866139
11
4.2198853149606297
21
-3.3804357086614174
0
LINE
8
BLACK
6
CONTINUOUS
10
4.2198853149606297
20
-3.3804357086614174
11
4.219981377952756
21
-3.3796737007874014
0
LINE
8
BLACK
6
CONTINUOUS
10
4.219981377952756
20
-3.3796737007874014
11
4.2217551181102362
21
-3.3743524803149607
0
LINE
8
BLACK
6
CONTINUOUS
10
4.2217551181102362
20
-3.3743524803149607
11
4.2217551181102362
21
-3.3657627559055117
0
LINE
8
BLACK
6
CONTINUOUS
10
4.2217551181102362
20
-3.3657627559055117
11
4.2202310236220475
21
-3.3627146062992126
0
LINE
8
BLACK
6
CONTINUOUS
10
4.2202310236220475
20
-3.3627146062992126
11
4.2188080314960628
21
-3.3612915748031496
0
LINE
8
BLACK
6
CONTINUOUS
10
4.2188080314960628
20
-3.3612915748031496
11
4.2157598818897632
21
-3.3597675196850392
0
LINE
8
BLACK
6
CONTINUOUS
10
4.2157598818897632
20
-3.3597675196850392
11
4.2129397637795272
21
-3.3597675196850392
0
LINE
8
BLACK
6
CONTINUOUS
10
4.2129397637795272
20
-3.3597675196850392
11
4.2098915748031498
21
-3.3612915748031496
0
LINE
8
BLACK
6
CONTINUOUS
10
4.2098915748031498
20
-3.3612915748031496
11
4.2084685433070863
21
-3.3627145669291338
0
LINE
8
BLACK
6
CONTINUOUS
10
4.2084685433070863
20
-3.3627145669291338
11
4.2068333070866144
21
-3.365985118110236
0
LINE
8
BLACK
6
CONTINUOUS
10
4.2068333070866144
20
-3.365985118110236
11
4.2050109448818898
21
-3.3732745669291337
0
LINE
8
BLACK
6
CONTINUOUS
10
4.2050109448818898
20
-3.3732745669291337
11
4.2049188188976379
21
-3.3734695275590552
0
LINE
8
BLACK
6
CONTINUOUS
10
4.2049188188976379
20
-3.3734695275590552
11
4.2048618897637793
21
-3.3736774803149605
0
LINE
8
BLACK
6
CONTINUOUS
10
4.2048618897637793
20
-3.3736774803149605
11
4.2029871259842517
21
-3.3774270078740156
0
LINE
8
BLACK
6
CONTINUOUS
10
4.2029871259842517
20
-3.3774270078740156
11
4.20279374015748
21
-3.3776761417322834
0
LINE
8
BLACK
6
CONTINUOUS
10
4.20279374015748
20
-3.3776761417322834
11
4.2026183858267716
21
-3.3779386220472438
0
LINE
8
BLACK
6
CONTINUOUS
10
4.2026183858267716
20
-3.3779386220472438
11
4.2007436220472441
21
-3.3798133464566926
0
LINE
8
BLACK
6
CONTINUOUS
10
4.2007436220472441
20
-3.3798133464566926
11
4.2004813385826774
21
-3.3799885826771652
0
LINE
8
BLACK
6
CONTINUOUS
10
4.2004813385826774
20
-3.3799885826771652
11
4.2002320078740158
21
-3.3801821259842519
0
LINE
8
BLACK
6
CONTINUOUS
10
4.2002320078740158
20
-3.3801821259842519
11
4.1964825196850395
21
-3.3820568503937007
0
LINE
8
BLACK
6
CONTINUOUS
10
4.1964825196850395
20
-3.3820568503937007
11
4.1963874015748033
21
-3.3820828740157478
0
LINE
8
BLACK
6
CONTINUOUS
10
4.1963874015748033
20
-3.3820828740157478
11
4.1963554724409446
21
-3.3821148425196847
0
LINE
8
BLACK
6
CONTINUOUS
10
4.1963554724409446
20
-3.3821148425196847
11
4.1960459448818899
21
-3.3821763779527556
0
LINE
8
BLACK
6
CONTINUOUS
10
4.1960459448818899
20
-3.3821763779527556
11
4.195741732283464
21
-3.3822597244094488
0
LINE
8
BLACK
6
CONTINUOUS
10
4.195741732283464
20
-3.3822597244094488
11
4.1956988582677166
21
-3.382245433070866
0
LINE
8
BLACK
6
CONTINUOUS
10
4.1956988582677166
20
-3.382245433070866
11
4.1956021653543303
21
-3.3822646850393698
0
LINE
8
BLACK
6
CONTINUOUS
10
4.1956021653543303
20
-3.3822646850393698
11
4.1918526377952752
21
-3.3822646850393698
0
LINE
8
BLACK
6
CONTINUOUS
10
4.1918526377952752
20
-3.3822646850393698
11
4.191755905511811
21
-3.382245433070866
0
LINE
8
BLACK
6
CONTINUOUS
10
4.191755905511811
20
-3.382245433070866
11
4.1917130708661414
21
-3.3822597244094488
0
LINE
8
BLACK
6
CONTINUOUS
10
4.1917130708661414
20
-3.3822597244094488
11
4.1914088188976377
21
-3.3821763779527556
0
LINE
8
BLACK
6
CONTINUOUS
10
4.1914088188976377
20
-3.3821763779527556
11
4.1910993307086617
21
-3.3821148425196847
0
LINE
8
BLACK
6
CONTINUOUS
10
4.1910993307086617
20
-3.3821148425196847
11
4.1910673622047243
21
-3.3820828740157478
0
LINE
8
BLACK
6
CONTINUOUS
10
4.1910673622047243
20
-3.3820828740157478
11
4.1909722834645668
21
-3.3820568503937007
0
LINE
8
BLACK
6
CONTINUOUS
10
4.1909722834645668
20
-3.3820568503937007
11
4.1872227559055117
21
-3.3801820866141732
0
LINE
8
BLACK
6
CONTINUOUS
10
4.1872227559055117
20
-3.3801820866141732
11
4.1869735826771652
21
-3.3799887007874014
0
LINE
8
BLACK
6
CONTINUOUS
10
4.1869735826771652
20
-3.3799887007874014
11
4.1867111417322835
21
-3.3798133464566926
0
LINE
8
BLACK
6
CONTINUOUS
10
4.1867111417322835
20
-3.3798133464566926
11
4.1848364173228347
21
-3.3779385826771651
0
LINE
8
BLACK
6
CONTINUOUS
10
4.1848364173228347
20
-3.3779385826771651
11
4.1846611811023617
21
-3.3776763779527559
0
LINE
8
BLACK
6
CONTINUOUS
10
4.1846611811023617
20
-3.3776763779527559
11
4.1844676771653546
21
-3.3774270078740156
0
LINE
8
BLACK
6
CONTINUOUS
10
4.1844676771653546
20
-3.3774270078740156
11
4.1825928740157483
21
-3.3736774803149605
0
LINE
8
BLACK
6
CONTINUOUS
10
4.1825928740157483
20
-3.3736774803149605
11
4.182566811023622
21
-3.3735823622047243
0
LINE
8
BLACK
6
CONTINUOUS
10
4.182566811023622
20
-3.3735823622047243
11
4.1825348818897634
21
-3.3735504330708661
0
LINE
8
BLACK
6
CONTINUOUS
10
4.1825348818897634
20
-3.3735504330708661
11
4.1824733070866138
21
-3.3732409055118109
0
LINE
8
BLACK
6
CONTINUOUS
10
4.1824733070866138
20
-3.3732409055118109
11
4.1823899999999998
21
-3.3729366929133859
0
LINE
8
BLACK
6
CONTINUOUS
10
4.1823899999999998
20
-3.3729366929133859
11
4.1824042519685038
21
-3.3728938188976376
0
LINE
8
BLACK
6
CONTINUOUS
10
4.1824042519685038
20
-3.3728938188976376
11
4.1823850393700788
21
-3.3727971259842517
0
LINE
8
BLACK
6
CONTINUOUS
10
4.1823850393700788
20
-3.3727971259842517
11
4.1823850393700788
21
-3.363423307086614
0
LINE
8
BLACK
6
CONTINUOUS
10
4.1823850393700788
20
-3.363423307086614
11
4.1824465748031496
21
-3.3631137795275592
0
LINE
8
BLACK
6
CONTINUOUS
10
4.1824465748031496
20
-3.3631137795275592
11
4.1824860629921261
21
-3.3628007874015746
0
LINE
8
BLACK
6
CONTINUOUS
10
4.1824860629921261
20
-3.3628007874015746
11
4.1843608661417324
21
-3.357176496062992
0
LINE
8
BLACK
6
CONTINUOUS
10
4.1843608661417324
20
-3.357176496062992
11
4.184741220472441
21
-3.3565092519685038
0
LINE
8
BLACK
6
CONTINUOUS
10
4.184741220472441
20
-3.3565092519685038
11
4.1860888188976375
21
-3.3558354724409449
0
LINE
8
BLACK
6
CONTINUOUS
10
4.1860888188976375
20
-3.3558354724409449
11
4.18751811023622
21
-3.3563118897637794
0
LINE
8
BLACK
6
CONTINUOUS
10
4.18751811023622
20
-3.3563118897637794
11
4.1881918897637798
21
-3.3576594881889763
0
LINE
8
BLACK
6
CONTINUOUS
10
4.1881918897637798
20
-3.3576594881889763
11
4.1880958267716535
21
-3.3584215354330706
0
LINE
8
BLACK
6
CONTINUOUS
10
4.1880958267716535
20
-3.3584215354330706
11
4.1863220472440945
21
-3.3637427559055117
0
LINE
8
BLACK
6
CONTINUOUS
10
4.1863220472440945
20
-3.3637427559055117
11
4.1863220472440945
21
-3.3723324015748029
0
LINE
8
BLACK
6
CONTINUOUS
10
4.1863220472440945
20
-3.3723324015748029
11
4.1878461417322832
21
-3.3753805905511811
0
LINE
8
BLACK
6
CONTINUOUS
10
4.1878461417322832
20
-3.3753805905511811
11
4.1892691732283467
21
-3.3768035826771654
0
LINE
8
BLACK
6
CONTINUOUS
10
4.1892691732283467
20
-3.3768035826771654
11
4.1923173622047241
21
-3.3783276771653541
0
LINE
8
BLACK
6
CONTINUOUS
10
4.1923173622047241
20
-3.3783276771653541
11
4.1951374803149601
21
-3.3783276771653541
0
LINE
8
BLACK
6
CONTINUOUS
10
4.1951374803149601
20
-3.3783276771653541
11
4.1981856299212597
21
-3.3768035826771654
0
LINE
8
BLACK
6
CONTINUOUS
10
4.1981856299212597
20
-3.3768035826771654
11
4.1996086220472444
21
-3.3753805511811024
0
LINE
8
BLACK
6
CONTINUOUS
10
4.1996086220472444
20
-3.3753805511811024
11
4.201243897637795
21
-3.3721099999999997
0
LINE
8
BLACK
6
CONTINUOUS
10
4.201243897637795
20
-3.3721099999999997
11
4.2030662598425197
21
-3.36482062992126
0
LINE
8
BLACK
6
CONTINUOUS
10
4.2030662598425197
20
-3.36482062992126
11
4.2031583464566928
21
-3.3646256299212598
0
LINE
8
BLACK
6
CONTINUOUS
10
4.2031583464566928
20
-3.3646256299212598
11
4.2032153149606302
21
-3.3644177165354332
0
LINE
8
BLACK
6
CONTINUOUS
10
4.2032153149606302
20
-3.3644177165354332
11
4.205090039370079
21
-3.3606682283464564
0
LINE
8
BLACK
6
CONTINUOUS
10
4.205090039370079
20
-3.3606682283464564
11
4.2052835433070861
21
-3.3604188582677166
0
LINE
8
BLACK
6
CONTINUOUS
10
4.2052835433070861
20
-3.3604188582677166
11
4.2054588188976378
21
-3.3601566141732282
0
LINE
8
BLACK
6
CONTINUOUS
10
4.2054588188976378
20
-3.3601566141732282
11
4.2073335433070866
21
-3.3582818503937006
0
LINE
8
BLACK
6
CONTINUOUS
10
4.2073335433070866
20
-3.3582818503937006
11
4.2075959842519683
21
-3.3581064566929135
0
LINE
8
BLACK
6
CONTINUOUS
10
4.2075959842519683
20
-3.3581064566929135
11
4.2078451574803148
21
-3.3579131102362205
0
LINE
8
BLACK
6
CONTINUOUS
10
4.2078451574803148
20
-3.3579131102362205
11
4.21159468503937
21
-3.356038346456693
0
LINE
8
BLACK
6
CONTINUOUS
10
4.21159468503937
20
-3.356038346456693
11
4.2116897637795274
21
-3.3560122834645667
0
LINE
8
BLACK
6
CONTINUOUS
10
4.2116897637795274
20
-3.3560122834645667
11
4.2117217322834648
21
-3.3559803543307085
0
LINE
8
BLACK
6
CONTINUOUS
10
4.2117217322834648
20
-3.3559803543307085
11
4.2120312204724408
21
-3.3559187795275589
0
LINE
8
BLACK
6
CONTINUOUS
10
4.2120312204724408
20
-3.3559187795275589
11
4.2123354724409445
21
-3.3558354724409449
0
LINE
8
BLACK
6
CONTINUOUS
10
4.2123354724409445
20
-3.3558354724409449
11
4.2123783070866141
21
-3.355849724409449
0
LINE
8
BLACK
6
CONTINUOUS
10
4.2123783070866141
20
-3.355849724409449
11
4.2124750393700783
21
-3.3558305118110234
0
LINE
8
BLACK
6
CONTINUOUS
10
4.2124750393700783
20
-3.3558305118110234
11
4.2162245669291334
21
-3.3558305118110234
0
LINE
8
BLACK
6
CONTINUOUS
10
4.2162245669291334
20
-3.3558305118110234
11
4.2163212598425197
21
-3.355849724409449
0
LINE
8
BLACK
6
CONTINUOUS
10
4.7764934251968505
20
-2.3090369685039369
11
4.776673228346457
21
-2.3099409448818897
0
LINE
8
BLACK
6
CONTINUOUS
10
4.776673228346457
20
-2.3099409448818897
11
4.776673228346457
21
-2.3249015748031496
0
LINE
8
BLACK
6
CONTINUOUS
10
4.776673228346457
20
-2.3249015748031496
11
5.0022637795275591
21
-2.3249015748031496
0
LINE
8
BLACK
6
CONTINUOUS
10
5.0022637795275591
20
-2.3249015748031496
11
5.0022637795275591
21
-2.3099409448818897
0
LINE
8
BLACK
6
CONTINUOUS
10
5.0022637795275591
20
-2.3099409448818897
11
5.0024435826771656
21
-2.3090369685039369
0
LINE
8
BLACK
6
CONTINUOUS
10
5.0024435826771656
20
-2.3090369685039369
11
5.0037220078740159
21
-2.3077585433070866
0
LINE
8
BLACK
6
CONTINUOUS
10
5.0037220078740159
20
-2.3077585433070866
11
5.0055299606299215
21
-2.3077585433070866
0
LINE
8
BLACK
6
CONTINUOUS
10
5.0055299606299215
20
-2.3077585433070866
11
5.0068083858267718
21
-2.3090369685039369
0
LINE
8
BLACK
6
CONTINUOUS
10
5.0068083858267718
20
-2.3090369685039369
11
5.0069881889763774
21
-2.3099409448818897
0
LINE
8
BLACK
6
CONTINUOUS
10
5.0069881889763774
20
-2.3099409448818897
11
5.0069881889763774
21
-2.3272637795275588
0
LINE
8
BLACK
6
CONTINUOUS
10
5.0069881889763774
20
-2.3272637795275588
11
5.0068083858267718
21
-2.3281677559055116
0
LINE
8
BLACK
6
CONTINUOUS
10
5.0068083858267718
20
-2.3281677559055116
11
5.0055299606299215
21
-2.3294461811023623
0
LINE
8
BLACK
6
CONTINUOUS
10
5.0055299606299215
20
-2.3294461811023623
11
5.0046259842519687
21
-2.3296259842519684
0
LINE
8
BLACK
6
CONTINUOUS
10
5.0046259842519687
20
-2.3296259842519684
11
4.7743110236220474
21
-2.3296259842519684
0
LINE
8
BLACK
6
CONTINUOUS
10
4.7743110236220474
20
-2.3296259842519684
11
4.7734070472440946
21
-2.3294461811023623
0
LINE
8
BLACK
6
CONTINUOUS
10
4.7734070472440946
20
-2.3294461811023623
11
4.7721286220472443
21
-2.3281677559055116
0
LINE
8
BLACK
6
CONTINUOUS
10
4.7721286220472443
20
-2.3281677559055116
11
4.7719488188976378
21
-2.3272637795275588
0
LINE
8
BLACK
6
CONTINUOUS
10
4.7719488188976378
20
-2.3272637795275588
11
4.7719488188976378
21
-2.3099409448818897
0
LINE
8
BLACK
6
CONTINUOUS
10
4.7719488188976378
20
-2.3099409448818897
11
4.7721286220472443
21
-2.3090369685039369
0
LINE
8
BLACK
6
CONTINUOUS
10
4.7721286220472443
20
-2.3090369685039369
11
4.7734070472440946
21
-2.3077585433070866
0
LINE
8
BLACK
6
CONTINUOUS
10
4.7734070472440946
20
-2.3077585433070866
11
4.7752150000000002
21
-2.3077585433070866
0
LINE
8
BLACK
6
CONTINUOUS
10
4.7752150000000002
20
-2.3077585433070866
11
4.7764934251968505
21
-2.3090369685039369
0
LINE
8
BLACK
6
CONTINUOUS
10
4.8417504330708656
20
-2.183349094488189
11
4.8430288582677168
21
-2.1846275196850393
0
LINE
8
BLACK
6
CONTINUOUS
10
4.8430288582677168
20
-2.1846275196850393
11
4.8430288582677168
21
-2.1864354724409449
0
LINE
8
BLACK
6
CONTINUOUS
10
4.8430288582677168
20
-2.1864354724409449
11
4.8417504330708656
21
-2.1877138976377952
0
LINE
8
BLACK
6
CONTINUOUS
10
4.8417504330708656
20
-2.1877138976377952
11
4.8408464566929137
21
-2.1878937007874013
0
LINE
8
BLACK
6
CONTINUOUS
10
4.8408464566929137
20
-2.1878937007874013
11
4.776673228346457
21
-2.1878937007874013
0
LINE
8
BLACK
6
CONTINUOUS
10
4.776673228346457
20
-2.1878937007874013
11
4.776673228346457
21
-2.2028543307086612
0
LINE
8
BLACK
6
CONTINUOUS
10
4.776673228346457
20
-2.2028543307086612
11
4.7764934251968505
21
-2.203758307086614
0
LINE
8
BLACK
6
CONTINUOUS
10
4.7764934251968505
20
-2.203758307086614
11
4.7752150000000002
21
-2.2050367322834643
0
LINE
8
BLACK
6
CONTINUOUS
10
4.7752150000000002
20
-2.2050367322834643
11
4.7734070472440946
21
-2.2050367322834643
0
LINE
8
BLACK
6
CONTINUOUS
10
4.7734070472440946
20
-2.2050367322834643
11
4.7721286220472443
21
-2.203758307086614
0
LINE
8
BLACK
6
CONTINUOUS
10
4.7721286220472443
20
-2.203758307086614
11
4.7719488188976378
21
-2.2028543307086612
0
LINE
8
BLACK
6
CONTINUOUS
10
4.7719488188976378
20
-2.2028543307086612
11
4.7719488188976378
21
-2.1855314960629921
0
LINE
8
BLACK
6
CONTINUOUS
10
4.7719488188976378
20
-2.1855314960629921
11
4.7721286220472443
21
-2.1846275196850393
0
LINE
8
BLACK
6
CONTINUOUS
10
4.7721286220472443
20
-2.1846275196850393
11
4.7734070472440946
21
-2.183349094488189
0
LINE
8
BLACK
6
CONTINUOUS
10
4.7734070472440946
20
-2.183349094488189
11
4.7743110236220474
21
-2.1831692913385825
0
LINE
8
BLACK
6
CONTINUOUS
10
4.7743110236220474
20
-2.1831692913385825
11
4.8408464566929137
21
-2.1831692913385825
0
LINE
8
BLACK
6
CONTINUOUS
10
4.8408464566929137
20
-2.1831692913385825
11
4.8417504330708656
21
-2.183349094488189
0
LINE
8
BLACK
6
CONTINUOUS
10
4.9402729527559055
20
-2.113761377952756
11
4.940452755905512
21
-2.1146653543307088
0
LINE
8
BLACK
6
CONTINUOUS
10
4.940452755905512
20
-2.1146653543307088
11
4.940452755905512
21
-2.1831692913385825
0
LINE
8
BLACK
6
CONTINUOUS
10
4.940452755905512
20
-2.1831692913385825
11
5.0046259842519687
21
-2.1831692913385825
0
LINE
8
BLACK
6
CONTINUOUS
10
5.0046259842519687
20
-2.1831692913385825
11
5.0055299606299215
21
-2.183349094488189
0
LINE
8
BLACK
6
CONTINUOUS
10
5.0055299606299215
20
-2.183349094488189
11
5.0068083858267718
21
-2.1846275196850393
0
LINE
8
BLACK
6
CONTINUOUS
10
5.0068083858267718
20
-2.1846275196850393
11
5.0069881889763774
21
-2.1855314960629921
0
LINE
8
BLACK
6
CONTINUOUS
10
5.0069881889763774
20
-2.1855314960629921
11
5.0069881889763774
21
-2.2028543307086612
0
LINE
8
BLACK
6
CONTINUOUS
10
5.0069881889763774
20
-2.2028543307086612
11
5.0068083858267718
21
-2.203758307086614
0
LINE
8
BLACK
6
CONTINUOUS
10
5.0068083858267718
20
-2.203758307086614
11
5.0055299606299215
21
-2.2050367322834643
0
LINE
8
BLACK
6
CONTINUOUS
10
5.0055299606299215
20
-2.2050367322834643
11
5.0037220078740159
21
-2.2050367322834643
0
LINE
8
BLACK
6
CONTINUOUS
10
5.0037220078740159
20
-2.2050367322834643
11
5.0024435826771656
21
-2.203758307086614
0
LINE
8
BLACK
6
CONTINUOUS
10
5.0024435826771656
20
-2.203758307086614
11
5.0022637795275591
21
-2.2028543307086612
0
LINE
8
BLACK
6
CONTINUOUS
10
5.0022637795275591
20
-2.2028543307086612
11
5.0022637795275591
21
-2.1878937007874013
0
LINE
8
BLACK
6
CONTINUOUS
10
5.0022637795275591
20
-2.1878937007874013
11
4.9380905511811024
21
-2.1878937007874013
0
LINE
8
BLACK
6
CONTINUOUS
10
4.9380905511811024
20
-2.1878937007874013
11
4.9371865748031496
21
-2.1877138976377952
0
LINE
8
BLACK
6
CONTINUOUS
10
4.9371865748031496
20
-2.1877138976377952
11
4.9359081496062993
21
-2.1864354724409449
0
LINE
8
BLACK
6
CONTINUOUS
10
4.9359081496062993
20
-2.1864354724409449
11
4.9357283464566928
21
-2.1855314960629921
0
LINE
8
BLACK
6
CONTINUOUS
10
4.9357283464566928
20
-2.1855314960629921
11
4.9357283464566928
21
-2.1146653543307088
0
LINE
8
BLACK
6
CONTINUOUS
10
4.9357283464566928
20
-2.1146653543307088
11
4.9359081496062993
21
-2.113761377952756
0
LINE
8
BLACK
6
CONTINUOUS
10
4.9359081496062993
20
-2.113761377952756
11
4.9371865748031496
21
-2.1124829527559053
0
LINE
8
BLACK
6
CONTINUOUS
10
4.9371865748031496
20
-2.1124829527559053
11
4.9389945275590552
21
-2.1124829527559053
0
LINE
8
BLACK
6
CONTINUOUS
10
4.9389945275590552
20
-2.1124829527559053
11
4.9402729527559055
21
-2.113761377952756
0
LINE
8
BLACK
6
CONTINUOUS
10
6.9145669291338585
20
-1.7267716535433071
11
7.4106299212598428
21
-1.7267716535433071
0
LINE
8
BLACK
6
CONTINUOUS
10
7.4106299212598428
20
-1.7267716535433071
11
7.4113832283464562
21
-1.7269214960629922
0
LINE
8
BLACK
6
CONTINUOUS
10
7.4113832283464562
20
-1.7269214960629922
11
7.4124485826771656
21
-1.7279868503937008
0
LINE
8
BLACK
6
CONTINUOUS
10
7.4124485826771656
20
-1.7279868503937008
11
7.4125984251968502
21
-1.728740157480315
0
LINE
8
BLACK
6
CONTINUOUS
10
7.4125984251968502
20
-1.728740157480315
11
7.4125984251968502
21
-2.224803149606299
0
LINE
8
BLACK
6
CONTINUOUS
10
7.4125984251968502
20
-2.224803149606299
11
7.4125984251968502
21
-3.3035433070866143
0
LINE
8
BLACK
6
CONTINUOUS
10
7.4125984251968502
20
-3.3035433070866143
11
7.4124485826771656
21
-3.3042966141732282
0
LINE
8
BLACK
6
CONTINUOUS
10
7.4124485826771656
20
-3.3042966141732282
11
7.4113832283464562
21
-3.305361968503937
0
LINE
8
BLACK
6
CONTINUOUS
10
7.4113832283464562
20
-3.305361968503937
11
7.4106299212598428
21
-3.3055118110236221
0
LINE
8
BLACK
6
CONTINUOUS
10
7.4106299212598428
20
-3.3055118110236221
11
4.2610236220472437
21
-3.3055118110236221
0
LINE
8
BLACK
6
CONTINUOUS
10
4.2610236220472437
20
-3.3055118110236221
11
4.2602703149606302
21
-3.305361968503937
0
LINE
8
BLACK
6
CONTINUOUS
10
4.2602703149606302
20
-3.305361968503937
11
4.2592049606299209
21
-3.3042966141732282
0
LINE
8
BLACK
6
CONTINUOUS
10
4.2592049606299209
20
-3.3042966141732282
11
4.2590551181102363
21
-3.3035433070866143
0
LINE
8
BLACK
6
CONTINUOUS
10
4.2590551181102363
20
-3.3035433070866143
11
4.2590551181102363
21
-2.2799212598425198
0
LINE
8
BLACK
6
CONTINUOUS
10
4.2590551181102363
20
-2.2799212598425198
11
4.2592049606299209
21
-2.2791679527559054
0
LINE
8
BLACK
6
CONTINUOUS
10
4.2592049606299209
20
-2.2791679527559054
11
4.2596316929133859
21
-2.2785293307086611
0
LINE
8
BLACK
6
CONTINUOUS
10
4.2596316929133859
20
-2.2785293307086611
11
4.8108127952755906
21
-1.7273482283464567
0
LINE
8
BLACK
6
CONTINUOUS
10
4.8108127952755906
20
-1.7273482283464567
11
4.8114514173228349
21
-1.7269214960629922
0
LINE
8
BLACK
6
CONTINUOUS
10
4.8114514173228349
20
-1.7269214960629922
11
4.8122047244094484
21
-1.7267716535433071
0
LINE
8
BLACK
6
CONTINUOUS
10
4.8122047244094484
20
-1.7267716535433071
11
6.9145669291338585
21
-1.7267716535433071
0
LINE
8
BLACK
6
CONTINUOUS
10
4.8130200787401574
20
-1.7307086614173228
11
4.262992125984252
21
-2.2807366141732284
0
LINE
8
BLACK
6
CONTINUOUS
10
4.262992125984252
20
-2.2807366141732284
11
4.262992125984252
21
-3.3015748031496064
0
LINE
8
BLACK
6
CONTINUOUS
10
4.262992125984252
20
-3.3015748031496064
11
7.4086614173228345
21
-3.3015748031496064
0
LINE
8
BLACK
6
CONTINUOUS
10
7.4086614173228345
20
-3.3015748031496064
11
7.4086614173228345
21
-2.225618503937008
0
LINE
8
BLACK
6
CONTINUOUS
10
7.4086614173228345
20
-2.225618503937008
11
6.9137515748031495
21
-1.7307086614173228
0
LINE
8
BLACK
6
CONTINUOUS
10
6.9137515748031495
20
-1.7307086614173228
11
4.8130200787401574
21
-1.7307086614173228
0
LINE
8
BLACK
6
CONTINUOUS
10
6.9193192913385824
20
-1.7307086614173228
11
7.4086614173228345
21
-2.2200507874015747
0
LINE
8
BLACK
6
CONTINUOUS
10
7.4086614173228345
20
-2.2200507874015747
11
7.4086614173228345
21
-1.7307086614173228
0
LINE
8
BLACK
6
CONTINUOUS
10
7.4086614173228345
20
-1.7307086614173228
11
6.9193192913385824
21
-1.7307086614173228
  0
ENDSEC
  0
EOF
