  0
SECTION
  2
HEADER
  9
$ANGBASE
  50
0.0
  9
$ANGDIR
  70
1
  9
$MEASUREMENT
  70
0
  0
ENDSEC
  0
SECTION
  2
TABLES
  0
TABLE
  2
LTYPE
  70
4
  0
LTYPE
  5
40F
  2
CONTINUOUS
  70
0
  3
Solid line
  72
65
  73
0
  40
0.0
  0
LTYPE
  5
410
  2
DASHDOT
 70
0
  3
Dash Dot ____ _ ____ _
 72
65
 73
4
 40
2.0
 49
1.25
 49
-0.25
 49
0.25
 49
-0.25
  0
LTYPE
  5
411
  2
DASHED
 70
0
  3
Dashed __ __ __ __ __
 72
65
 73
2
 40
0.75
 49
0.5
 49
-0.25
  0
LTYPE
  5
43B
  2
DOTTED
 70
0
  3
Dotted .  .  .  .
 72
65
 73
2
 40
0.2
 49
0.0
 49
-0.2
  0
ENDTAB
  0
TABLE
  2
STYLE
  70
4
  0
STYLE
  2
KICAD
  70
0
  40
0
  41
1
  42
1
  50
0
  71
0
  3
isocp.shx
  0
STYLE
  2
KICADB
  70
0
  40
0
  41
1
  42
1
  50
0
  71
0
  3
isocp.shx
  0
STYLE
  2
KICADI
  70
0
  40
0
  41
1
  42
1
  50
15
  71
0
  3
isocp.shx
  0
STYLE
  2
KICADBI
  70
0
  40
0
  41
1
  42
1
  50
15
  71
0
  3
isocp.shx
  0
ENDTAB
  0
TABLE
  2
LAYER
  70
1
  0
LAYER
  2
BLACK
  70
0
  62
7
  6
CONTINUOUS
  0
ENDTAB
  0
ENDSEC
  0
SECTION
  2
ENTITIES
0
LINE
8
BLACK
6
CONTINUOUS
10
4.4278161811023624
20
-12.0152812992125977
11
4.4363969685039368
21
-12.0175805511811014
0
LINE
8
BLACK
6
CONTINUOUS
10
4.4363969685039368
20
-12.0175805511811014
11
4.4446042519685038
21
-12.020980118110236
0
LINE
8
BLACK
6
CONTINUOUS
10
4.4446042519685038
20
-12.020980118110236
11
4.4522975984251971
21
-12.0254218503937
0
LINE
8
BLACK
6
CONTINUOUS
10
4.4522975984251971
20
-12.0254218503937
11
4.4593453543307087
21
-12.0308297637795274
0
LINE
8
BLACK
6
CONTINUOUS
10
4.4593453543307087
20
-12.0308297637795274
11
4.4656269291338582
21
-12.037111338582676
0
LINE
8
BLACK
6
CONTINUOUS
10
4.4656269291338582
20
-12.037111338582676
11
4.4710348425196846
21
-12.0441590944881884
0
LINE
8
BLACK
6
CONTINUOUS
10
4.4710348425196846
20
-12.0441590944881884
11
4.4754765748031495
21
-12.0518524409448808
0
LINE
8
BLACK
6
CONTINUOUS
10
4.4754765748031495
20
-12.0518524409448808
11
4.4788761417322833
21
-12.0600597244094487
0
LINE
8
BLACK
6
CONTINUOUS
10
4.4788761417322833
20
-12.0600597244094487
11
4.481175393700787
21
-12.068640511811024
0
LINE
8
BLACK
6
CONTINUOUS
10
4.481175393700787
20
-12.068640511811024
11
4.4823349212598425
21
-12.0774480314960631
0
LINE
8
BLACK
6
CONTINUOUS
10
4.4823349212598425
20
-12.0774480314960631
11
4.4823349212598425
21
-12.0863314960629911
0
LINE
8
BLACK
6
CONTINUOUS
10
4.4823349212598425
20
-12.0863314960629911
11
4.481175393700787
21
-12.0951390157480319
0
LINE
8
BLACK
6
CONTINUOUS
10
4.481175393700787
20
-12.0951390157480319
11
4.4788761417322833
21
-12.1037198031496054
0
LINE
8
BLACK
6
CONTINUOUS
10
4.4788761417322833
20
-12.1037198031496054
11
4.4754765748031495
21
-12.1119270866141733
0
LINE
8
BLACK
6
CONTINUOUS
10
4.4754765748031495
20
-12.1119270866141733
11
4.4710348425196846
21
-12.1196204330708657
0
LINE
8
BLACK
6
CONTINUOUS
10
4.4710348425196846
20
-12.1196204330708657
11
4.4656269291338582
21
-12.1266681889763781
0
LINE
8
BLACK
6
CONTINUOUS
10
4.4656269291338582
20
-12.1266681889763781
11
4.4593453543307087
21
-12.1329497637795267
0
LINE
8
BLACK
6
CONTINUOUS
10
4.4593453543307087
20
-12.1329497637795267
11
4.4522975984251971
21
-12.1383576771653541
0
LINE
8
BLACK
6
CONTINUOUS
10
4.4522975984251971
20
-12.1383576771653541
11
4.4446042519685038
21
-12.1427994094488181
0
LINE
8
BLACK
6
CONTINUOUS
10
4.4446042519685038
20
-12.1427994094488181
11
4.4363969685039368
21
-12.1461989763779528
0
LINE
8
BLACK
6
CONTINUOUS
10
4.4363969685039368
20
-12.1461989763779528
11
4.4278161811023624
21
-12.1484982283464564
0
LINE
8
BLACK
6
CONTINUOUS
10
4.4278161811023624
20
-12.1484982283464564
11
4.4190086614173225
21
-12.1496577559055119
0
LINE
8
BLACK
6
CONTINUOUS
10
4.4190086614173225
20
-12.1496577559055119
11
4.4101251968503936
21
-12.1496577559055119
0
LINE
8
BLACK
6
CONTINUOUS
10
4.4101251968503936
20
-12.1496577559055119
11
4.4013176771653546
21
-12.1484982283464564
0
LINE
8
BLACK
6
CONTINUOUS
10
4.4013176771653546
20
-12.1484982283464564
11
4.3927368897637793
21
-12.1461989763779528
0
LINE
8
BLACK
6
CONTINUOUS
10
4.3927368897637793
20
-12.1461989763779528
11
4.3845296062992123
21
-12.1427994094488181
0
LINE
8
BLACK
6
CONTINUOUS
10
4.3845296062992123
20
-12.1427994094488181
11
4.3768362598425199
21
-12.1383576771653541
0
LINE
8
BLACK
6
CONTINUOUS
10
4.3768362598425199
20
-12.1383576771653541
11
4.3697885039370075
21
-12.1329497637795267
0
LINE
8
BLACK
6
CONTINUOUS
10
4.3697885039370075
20
-12.1329497637795267
11
4.363506929133858
21
-12.1266681889763781
0
LINE
8
BLACK
6
CONTINUOUS
10
4.363506929133858
20
-12.1266681889763781
11
4.3580990157480315
21
-12.1196204330708657
0
LINE
8
BLACK
6
CONTINUOUS
10
4.3580990157480315
20
-12.1196204330708657
11
4.3536572834645666
21
-12.1119270866141733
0
LINE
8
BLACK
6
CONTINUOUS
10
4.3536572834645666
20
-12.1119270866141733
11
4.3502577165354328
21
-12.1037198031496054
0
LINE
8
BLACK
6
CONTINUOUS
10
4.3502577165354328
20
-12.1037198031496054
11
4.3479584645669291
21
-12.0951390157480319
0
LINE
8
BLACK
6
CONTINUOUS
10
4.3479584645669291
20
-12.0951390157480319
11
4.3467989370078737
21
-12.0863314960629911
0
LINE
8
BLACK
6
CONTINUOUS
10
4.3467989370078737
20
-12.0863314960629911
11
4.3467989370078737
21
-12.0774480314960631
0
LINE
8
BLACK
6
CONTINUOUS
10
4.3467989370078737
20
-12.0774480314960631
11
4.346815866141732
21
-12.0773194881889765
0
LINE
8
BLACK
6
CONTINUOUS
10
4.346815866141732
20
-12.0773194881889765
11
4.3479584645669291
21
-12.068640511811024
0
LINE
8
BLACK
6
CONTINUOUS
10
4.3479584645669291
20
-12.068640511811024
11
4.3502577165354328
21
-12.0600597244094487
0
LINE
8
BLACK
6
CONTINUOUS
10
4.3502577165354328
20
-12.0600597244094487
11
4.3536572834645666
21
-12.0518524409448808
0
LINE
8
BLACK
6
CONTINUOUS
10
4.3536572834645666
20
-12.0518524409448808
11
4.3580990157480315
21
-12.0441590944881884
0
LINE
8
BLACK
6
CONTINUOUS
10
4.3580990157480315
20
-12.0441590944881884
11
4.363506929133858
21
-12.037111338582676
0
LINE
8
BLACK
6
CONTINUOUS
10
4.363506929133858
20
-12.037111338582676
11
4.3697885039370075
21
-12.0308297637795274
0
LINE
8
BLACK
6
CONTINUOUS
10
4.3697885039370075
20
-12.0308297637795274
11
4.3768362598425199
21
-12.0254218503937
0
LINE
8
BLACK
6
CONTINUOUS
10
4.3768362598425199
20
-12.0254218503937
11
4.3845296062992123
21
-12.020980118110236
0
LINE
8
BLACK
6
CONTINUOUS
10
4.3845296062992123
20
-12.020980118110236
11
4.3927368897637793
21
-12.0175805511811014
0
LINE
8
BLACK
6
CONTINUOUS
10
4.3927368897637793
20
-12.0175805511811014
11
4.4013176771653546
21
-12.0152812992125977
0
LINE
8
BLACK
6
CONTINUOUS
10
4.4013176771653546
20
-12.0152812992125977
11
4.4101251968503936
21
-12.0141217716535422
0
LINE
8
BLACK
6
CONTINUOUS
10
4.4101251968503936
20
-12.0141217716535422
11
4.4190086614173225
21
-12.0141217716535422
0
LINE
8
BLACK
6
CONTINUOUS
10
4.4190086614173225
20
-12.0141217716535422
11
4.4278161811023624
21
-12.0152812992125977
0
LINE
8
BLACK
6
CONTINUOUS
10
4.3564960629921261
20
-12.0864600393700776
11
4.3579259448818899
21
-12.095488070866141
0
LINE
8
BLACK
6
CONTINUOUS
10
4.3579259448818899
20
-12.095488070866141
11
4.360750551181102
21
-12.1041812204724408
0
LINE
8
BLACK
6
CONTINUOUS
10
4.360750551181102
20
-12.1041812204724408
11
4.3649002755905508
21
-12.112325511811024
0
LINE
8
BLACK
6
CONTINUOUS
10
4.3649002755905508
20
-12.112325511811024
11
4.3702729527559052
21
-12.1197203937007867
0
LINE
8
BLACK
6
CONTINUOUS
10
4.3702729527559052
20
-12.1197203937007867
11
4.376736299212598
21
-12.1261837401574795
0
LINE
8
BLACK
6
CONTINUOUS
10
4.376736299212598
20
-12.1261837401574795
11
4.3841311811023624
21
-12.1315564173228339
0
LINE
8
BLACK
6
CONTINUOUS
10
4.3841311811023624
20
-12.1315564173228339
11
4.3922754724409447
21
-12.1357061417322836
0
LINE
8
BLACK
6
CONTINUOUS
10
4.3922754724409447
20
-12.1357061417322836
11
4.4009686220472437
21
-12.1385307480314957
0
LINE
8
BLACK
6
CONTINUOUS
10
4.4009686220472437
20
-12.1385307480314957
11
4.4099966535433071
21
-12.1399606299212603
0
LINE
8
BLACK
6
CONTINUOUS
10
4.4099966535433071
20
-12.1399606299212603
11
4.4191372047244091
21
-12.1399606299212603
0
LINE
8
BLACK
6
CONTINUOUS
10
4.4191372047244091
20
-12.1399606299212603
11
4.4281652362204724
21
-12.1385307480314957
0
LINE
8
BLACK
6
CONTINUOUS
10
4.4281652362204724
20
-12.1385307480314957
11
4.4368583858267714
21
-12.1357061417322836
0
LINE
8
BLACK
6
CONTINUOUS
10
4.4368583858267714
20
-12.1357061417322836
11
4.4450026771653546
21
-12.1315564173228339
0
LINE
8
BLACK
6
CONTINUOUS
10
4.4450026771653546
20
-12.1315564173228339
11
4.4523975590551181
21
-12.1261837401574795
0
LINE
8
BLACK
6
CONTINUOUS
10
4.4523975590551181
20
-12.1261837401574795
11
4.4588609055118109
21
-12.1197203937007867
0
LINE
8
BLACK
6
CONTINUOUS
10
4.4588609055118109
20
-12.1197203937007867
11
4.4642335826771653
21
-12.112325511811024
0
LINE
8
BLACK
6
CONTINUOUS
10
4.4642335826771653
20
-12.112325511811024
11
4.4683833070866141
21
-12.1041812204724408
0
LINE
8
BLACK
6
CONTINUOUS
10
4.4683833070866141
20
-12.1041812204724408
11
4.4712079133858262
21
-12.095488070866141
0
LINE
8
BLACK
6
CONTINUOUS
10
4.4712079133858262
20
-12.095488070866141
11
4.47263779527559
21
-12.0864600393700776
0
LINE
8
BLACK
6
CONTINUOUS
10
4.47263779527559
20
-12.0864600393700776
11
4.47263779527559
21
-12.0773194881889765
0
LINE
8
BLACK
6
CONTINUOUS
10
4.47263779527559
20
-12.0773194881889765
11
4.4712079133858262
21
-12.0682914566929131
0
LINE
8
BLACK
6
CONTINUOUS
10
4.4712079133858262
20
-12.0682914566929131
11
4.4683833070866141
21
-12.0595983070866133
0
LINE
8
BLACK
6
CONTINUOUS
10
4.4683833070866141
20
-12.0595983070866133
11
4.4642335826771653
21
-12.0514540157480319
0
LINE
8
BLACK
6
CONTINUOUS
10
4.4642335826771653
20
-12.0514540157480319
11
4.4588609055118109
21
-12.0440591338582674
0
LINE
8
BLACK
6
CONTINUOUS
10
4.4588609055118109
20
-12.0440591338582674
11
4.4523975590551181
21
-12.0375957874015747
0
LINE
8
BLACK
6
CONTINUOUS
10
4.4523975590551181
20
-12.0375957874015747
11
4.4450026771653546
21
-12.0322231102362203
0
LINE
8
BLACK
6
CONTINUOUS
10
4.4450026771653546
20
-12.0322231102362203
11
4.4368583858267714
21
-12.0280733858267705
0
LINE
8
BLACK
6
CONTINUOUS
10
4.4368583858267714
20
-12.0280733858267705
11
4.4281652362204724
21
-12.0252487795275584
0
LINE
8
BLACK
6
CONTINUOUS
10
4.4281652362204724
20
-12.0252487795275584
11
4.4191372047244091
21
-12.0238188976377955
0
LINE
8
BLACK
6
CONTINUOUS
10
4.4191372047244091
20
-12.0238188976377955
11
4.4099966535433071
21
-12.0238188976377955
0
LINE
8
BLACK
6
CONTINUOUS
10
4.4099966535433071
20
-12.0238188976377955
11
4.4009686220472437
21
-12.0252487795275584
0
LINE
8
BLACK
6
CONTINUOUS
10
4.4009686220472437
20
-12.0252487795275584
11
4.3922754724409447
21
-12.0280733858267705
0
LINE
8
BLACK
6
CONTINUOUS
10
4.3922754724409447
20
-12.0280733858267705
11
4.3841311811023624
21
-12.0322231102362203
0
LINE
8
BLACK
6
CONTINUOUS
10
4.3841311811023624
20
-12.0322231102362203
11
4.376736299212598
21
-12.0375957874015747
0
LINE
8
BLACK
6
CONTINUOUS
10
4.376736299212598
20
-12.0375957874015747
11
4.3702729527559052
21
-12.0440591338582674
0
LINE
8
BLACK
6
CONTINUOUS
10
4.3702729527559052
20
-12.0440591338582674
11
4.3649002755905508
21
-12.0514540157480319
0
LINE
8
BLACK
6
CONTINUOUS
10
4.3649002755905508
20
-12.0514540157480319
11
4.360750551181102
21
-12.0595983070866133
0
LINE
8
BLACK
6
CONTINUOUS
10
4.360750551181102
20
-12.0595983070866133
11
4.3579259448818899
21
-12.0682914566929131
0
LINE
8
BLACK
6
CONTINUOUS
10
4.3579259448818899
20
-12.0682914566929131
11
4.3564960629921261
21
-12.0773194881889765
0
LINE
8
BLACK
6
CONTINUOUS
10
4.3564960629921261
20
-12.0773194881889765
11
4.3564960629921261
21
-12.0864600393700776
0
LINE
8
BLACK
6
CONTINUOUS
10
7.4238791732283467
20
-12.0152812992125977
11
7.4324599606299211
21
-12.0175805511811014
0
LINE
8
BLACK
6
CONTINUOUS
10
7.4324599606299211
20
-12.0175805511811014
11
7.4406672440944881
21
-12.020980118110236
0
LINE
8
BLACK
6
CONTINUOUS
10
7.4406672440944881
20
-12.020980118110236
11
7.4483605905511805
21
-12.0254218503937
0
LINE
8
BLACK
6
CONTINUOUS
10
7.4483605905511805
20
-12.0254218503937
11
7.4554083464566929
21
-12.0308297637795274
0
LINE
8
BLACK
6
CONTINUOUS
10
7.4554083464566929
20
-12.0308297637795274
11
7.4616899212598424
21
-12.037111338582676
0
LINE
8
BLACK
6
CONTINUOUS
10
7.4616899212598424
20
-12.037111338582676
11
7.4670978346456689
21
-12.0441590944881884
0
LINE
8
BLACK
6
CONTINUOUS
10
7.4670978346456689
20
-12.0441590944881884
11
7.4715395669291338
21
-12.0518524409448808
0
LINE
8
BLACK
6
CONTINUOUS
10
7.4715395669291338
20
-12.0518524409448808
11
7.4749391338582676
21
-12.0600597244094487
0
LINE
8
BLACK
6
CONTINUOUS
10
7.4749391338582676
20
-12.0600597244094487
11
7.4772383858267712
21
-12.068640511811024
0
LINE
8
BLACK
6
CONTINUOUS
10
7.4772383858267712
20
-12.068640511811024
11
7.4783979133858267
21
-12.0774480314960631
0
LINE
8
BLACK
6
CONTINUOUS
10
7.4783979133858267
20
-12.0774480314960631
11
7.4783979133858267
21
-12.0863314960629911
0
LINE
8
BLACK
6
CONTINUOUS
10
7.4783979133858267
20
-12.0863314960629911
11
7.4772383858267712
21
-12.0951390157480319
0
LINE
8
BLACK
6
CONTINUOUS
10
7.4772383858267712
20
-12.0951390157480319
11
7.4749391338582676
21
-12.1037198031496054
0
LINE
8
BLACK
6
CONTINUOUS
10
7.4749391338582676
20
-12.1037198031496054
11
7.4715395669291338
21
-12.1119270866141733
0
LINE
8
BLACK
6
CONTINUOUS
10
7.4715395669291338
20
-12.1119270866141733
11
7.4670978346456689
21
-12.1196204330708657
0
LINE
8
BLACK
6
CONTINUOUS
10
7.4670978346456689
20
-12.1196204330708657
11
7.4616899212598424
21
-12.1266681889763781
0
LINE
8
BLACK
6
CONTINUOUS
10
7.4616899212598424
20
-12.1266681889763781
11
7.4554083464566929
21
-12.1329497637795267
0
LINE
8
BLACK
6
CONTINUOUS
10
7.4554083464566929
20
-12.1329497637795267
11
7.4483605905511805
21
-12.1383576771653541
0
LINE
8
BLACK
6
CONTINUOUS
10
7.4483605905511805
20
-12.1383576771653541
11
7.4406672440944881
21
-12.1427994094488181
0
LINE
8
BLACK
6
CONTINUOUS
10
7.4406672440944881
20
-12.1427994094488181
11
7.4324599606299211
21
-12.1461989763779528
0
LINE
8
BLACK
6
CONTINUOUS
10
7.4324599606299211
20
-12.1461989763779528
11
7.4238791732283467
21
-12.1484982283464564
0
LINE
8
BLACK
6
CONTINUOUS
10
7.4238791732283467
20
-12.1484982283464564
11
7.4150716535433068
21
-12.1496577559055119
0
LINE
8
BLACK
6
CONTINUOUS
10
7.4150716535433068
20
-12.1496577559055119
11
7.4061881889763779
21
-12.1496577559055119
0
LINE
8
BLACK
6
CONTINUOUS
10
7.4061881889763779
20
-12.1496577559055119
11
7.397380669291338
21
-12.1484982283464564
0
LINE
8
BLACK
6
CONTINUOUS
10
7.397380669291338
20
-12.1484982283464564
11
7.3887998818897636
21
-12.1461989763779528
0
LINE
8
BLACK
6
CONTINUOUS
10
7.3887998818897636
20
-12.1461989763779528
11
7.3805925984251965
21
-12.1427994094488181
0
LINE
8
BLACK
6
CONTINUOUS
10
7.3805925984251965
20
-12.1427994094488181
11
7.3728992519685042
21
-12.1383576771653541
0
LINE
8
BLACK
6
CONTINUOUS
10
7.3728992519685042
20
-12.1383576771653541
11
7.3658514960629917
21
-12.1329497637795267
0
LINE
8
BLACK
6
CONTINUOUS
10
7.3658514960629917
20
-12.1329497637795267
11
7.3595699212598422
21
-12.1266681889763781
0
LINE
8
BLACK
6
CONTINUOUS
10
7.3595699212598422
20
-12.1266681889763781
11
7.3541620078740157
21
-12.1196204330708657
0
LINE
8
BLACK
6
CONTINUOUS
10
7.3541620078740157
20
-12.1196204330708657
11
7.3497202755905509
21
-12.1119270866141733
0
LINE
8
BLACK
6
CONTINUOUS
10
7.3497202755905509
20
-12.1119270866141733
11
7.3463207086614171
21
-12.1037198031496054
0
LINE
8
BLACK
6
CONTINUOUS
10
7.3463207086614171
20
-12.1037198031496054
11
7.3440214566929134
21
-12.0951390157480319
0
LINE
8
BLACK
6
CONTINUOUS
10
7.3440214566929134
20
-12.0951390157480319
11
7.3428619291338579
21
-12.0863314960629911
0
LINE
8
BLACK
6
CONTINUOUS
10
7.3428619291338579
20
-12.0863314960629911
11
7.3428619291338579
21
-12.0774480314960631
0
LINE
8
BLACK
6
CONTINUOUS
10
7.3428619291338579
20
-12.0774480314960631
11
7.3428788582677162
21
-12.0773194881889765
0
LINE
8
BLACK
6
CONTINUOUS
10
7.3428788582677162
20
-12.0773194881889765
11
7.3440214566929134
21
-12.068640511811024
0
LINE
8
BLACK
6
CONTINUOUS
10
7.3440214566929134
20
-12.068640511811024
11
7.3463207086614171
21
-12.0600597244094487
0
LINE
8
BLACK
6
CONTINUOUS
10
7.3463207086614171
20
-12.0600597244094487
11
7.3497202755905509
21
-12.0518524409448808
0
LINE
8
BLACK
6
CONTINUOUS
10
7.3497202755905509
20
-12.0518524409448808
11
7.3541620078740157
21
-12.0441590944881884
0
LINE
8
BLACK
6
CONTINUOUS
10
7.3541620078740157
20
-12.0441590944881884
11
7.3595699212598422
21
-12.037111338582676
0
LINE
8
BLACK
6
CONTINUOUS
10
7.3595699212598422
20
-12.037111338582676
11
7.3658514960629917
21
-12.0308297637795274
0
LINE
8
BLACK
6
CONTINUOUS
10
7.3658514960629917
20
-12.0308297637795274
11
7.3728992519685042
21
-12.0254218503937
0
LINE
8
BLACK
6
CONTINUOUS
10
7.3728992519685042
20
-12.0254218503937
11
7.3805925984251965
21
-12.020980118110236
0
LINE
8
BLACK
6
CONTINUOUS
10
7.3805925984251965
20
-12.020980118110236
11
7.3887998818897636
21
-12.0175805511811014
0
LINE
8
BLACK
6
CONTINUOUS
10
7.3887998818897636
20
-12.0175805511811014
11
7.397380669291338
21
-12.0152812992125977
0
LINE
8
BLACK
6
CONTINUOUS
10
7.397380669291338
20
-12.0152812992125977
11
7.4061881889763779
21
-12.0141217716535422
0
LINE
8
BLACK
6
CONTINUOUS
10
7.4061881889763779
20
-12.0141217716535422
11
7.4150716535433068
21
-12.0141217716535422
0
LINE
8
BLACK
6
CONTINUOUS
10
7.4150716535433068
20
-12.0141217716535422
11
7.4238791732283467
21
-12.0152812992125977
0
LINE
8
BLACK
6
CONTINUOUS
10
7.3525590551181104
20
-12.0864600393700776
11
7.3539889370078741
21
-12.095488070866141
0
LINE
8
BLACK
6
CONTINUOUS
10
7.3539889370078741
20
-12.095488070866141
11
7.3568135433070863
21
-12.1041812204724408
0
LINE
8
BLACK
6
CONTINUOUS
10
7.3568135433070863
20
-12.1041812204724408
11
7.3609632677165351
21
-12.112325511811024
0
LINE
8
BLACK
6
CONTINUOUS
10
7.3609632677165351
20
-12.112325511811024
11
7.3663359448818895
21
-12.1197203937007867
0
LINE
8
BLACK
6
CONTINUOUS
10
7.3663359448818895
20
-12.1197203937007867
11
7.3727992913385823
21
-12.1261837401574795
0
LINE
8
BLACK
6
CONTINUOUS
10
7.3727992913385823
20
-12.1261837401574795
11
7.3801941732283467
21
-12.1315564173228339
0
LINE
8
BLACK
6
CONTINUOUS
10
7.3801941732283467
20
-12.1315564173228339
11
7.388338464566929
21
-12.1357061417322836
0
LINE
8
BLACK
6
CONTINUOUS
10
7.388338464566929
20
-12.1357061417322836
11
7.397031614173228
21
-12.1385307480314957
0
LINE
8
BLACK
6
CONTINUOUS
10
7.397031614173228
20
-12.1385307480314957
11
7.4060596456692913
21
-12.1399606299212603
0
LINE
8
BLACK
6
CONTINUOUS
10
7.4060596456692913
20
-12.1399606299212603
11
7.4152001968503933
21
-12.1399606299212603
0
LINE
8
BLACK
6
CONTINUOUS
10
7.4152001968503933
20
-12.1399606299212603
11
7.4242282283464567
21
-12.1385307480314957
0
LINE
8
BLACK
6
CONTINUOUS
10
7.4242282283464567
20
-12.1385307480314957
11
7.4329213779527556
21
-12.1357061417322836
0
LINE
8
BLACK
6
CONTINUOUS
10
7.4329213779527556
20
-12.1357061417322836
11
7.4410656692913388
21
-12.1315564173228339
0
LINE
8
BLACK
6
CONTINUOUS
10
7.4410656692913388
20
-12.1315564173228339
11
7.4484605511811024
21
-12.1261837401574795
0
LINE
8
BLACK
6
CONTINUOUS
10
7.4484605511811024
20
-12.1261837401574795
11
7.4549238976377952
21
-12.1197203937007867
0
LINE
8
BLACK
6
CONTINUOUS
10
7.4549238976377952
20
-12.1197203937007867
11
7.4602965748031496
21
-12.112325511811024
0
LINE
8
BLACK
6
CONTINUOUS
10
7.4602965748031496
20
-12.112325511811024
11
7.4644462992125984
21
-12.1041812204724408
0
LINE
8
BLACK
6
CONTINUOUS
10
7.4644462992125984
20
-12.1041812204724408
11
7.4672709055118105
21
-12.095488070866141
0
LINE
8
BLACK
6
CONTINUOUS
10
7.4672709055118105
20
-12.095488070866141
11
7.4687007874015743
21
-12.0864600393700776
0
LINE
8
BLACK
6
CONTINUOUS
10
7.4687007874015743
20
-12.0864600393700776
11
7.4687007874015743
21
-12.0773194881889765
0
LINE
8
BLACK
6
CONTINUOUS
10
7.4687007874015743
20
-12.0773194881889765
11
7.4672709055118105
21
-12.0682914566929131
0
LINE
8
BLACK
6
CONTINUOUS
10
7.4672709055118105
20
-12.0682914566929131
11
7.4644462992125984
21
-12.0595983070866133
0
LINE
8
BLACK
6
CONTINUOUS
10
7.4644462992125984
20
-12.0595983070866133
11
7.4602965748031496
21
-12.0514540157480319
0
LINE
8
BLACK
6
CONTINUOUS
10
7.4602965748031496
20
-12.0514540157480319
11
7.4549238976377952
21
-12.0440591338582674
0
LINE
8
BLACK
6
CONTINUOUS
10
7.4549238976377952
20
-12.0440591338582674
11
7.4484605511811024
21
-12.0375957874015747
0
LINE
8
BLACK
6
CONTINUOUS
10
7.4484605511811024
20
-12.0375957874015747
11
7.4410656692913388
21
-12.0322231102362203
0
LINE
8
BLACK
6
CONTINUOUS
10
7.4410656692913388
20
-12.0322231102362203
11
7.4329213779527556
21
-12.0280733858267705
0
LINE
8
BLACK
6
CONTINUOUS
10
7.4329213779527556
20
-12.0280733858267705
11
7.4242282283464567
21
-12.0252487795275584
0
LINE
8
BLACK
6
CONTINUOUS
10
7.4242282283464567
20
-12.0252487795275584
11
7.4152001968503933
21
-12.0238188976377955
0
LINE
8
BLACK
6
CONTINUOUS
10
7.4152001968503933
20
-12.0238188976377955
11
7.4060596456692913
21
-12.0238188976377955
0
LINE
8
BLACK
6
CONTINUOUS
10
7.4060596456692913
20
-12.0238188976377955
11
7.397031614173228
21
-12.0252487795275584
0
LINE
8
BLACK
6
CONTINUOUS
10
7.397031614173228
20
-12.0252487795275584
11
7.388338464566929
21
-12.0280733858267705
0
LINE
8
BLACK
6
CONTINUOUS
10
7.388338464566929
20
-12.0280733858267705
11
7.3801941732283467
21
-12.0322231102362203
0
LINE
8
BLACK
6
CONTINUOUS
10
7.3801941732283467
20
-12.0322231102362203
11
7.3727992913385823
21
-12.0375957874015747
0
LINE
8
BLACK
6
CONTINUOUS
10
7.3727992913385823
20
-12.0375957874015747
11
7.3663359448818895
21
-12.0440591338582674
0
LINE
8
BLACK
6
CONTINUOUS
10
7.3663359448818895
20
-12.0440591338582674
11
7.3609632677165351
21
-12.0514540157480319
0
LINE
8
BLACK
6
CONTINUOUS
10
7.3609632677165351
20
-12.0514540157480319
11
7.3568135433070863
21
-12.0595983070866133
0
LINE
8
BLACK
6
CONTINUOUS
10
7.3568135433070863
20
-12.0595983070866133
11
7.3539889370078741
21
-12.0682914566929131
0
LINE
8
BLACK
6
CONTINUOUS
10
7.3539889370078741
20
-12.0682914566929131
11
7.3525590551181104
21
-12.0773194881889765
0
LINE
8
BLACK
6
CONTINUOUS
10
7.3525590551181104
20
-12.0773194881889765
11
7.3525590551181104
21
-12.0864600393700776
0
LINE
8
BLACK
6
CONTINUOUS
10
4.4278161811023624
20
-10.1629190944881884
11
4.4363969685039368
21
-10.1652183464566921
0
LINE
8
BLACK
6
CONTINUOUS
10
4.4363969685039368
20
-10.1652183464566921
11
4.4446042519685038
21
-10.1686179133858268
0
LINE
8
BLACK
6
CONTINUOUS
10
4.4446042519685038
20
-10.1686179133858268
11
4.4522975984251971
21
-10.1730596456692908
0
LINE
8
BLACK
6
CONTINUOUS
10
4.4522975984251971
20
-10.1730596456692908
11
4.4593453543307087
21
-10.1784675590551181
0
LINE
8
BLACK
6
CONTINUOUS
10
4.4593453543307087
20
-10.1784675590551181
11
4.4656269291338582
21
-10.1847491338582667
0
LINE
8
BLACK
6
CONTINUOUS
10
4.4656269291338582
20
-10.1847491338582667
11
4.4710348425196846
21
-10.1917968897637792
0
LINE
8
BLACK
6
CONTINUOUS
10
4.4710348425196846
20
-10.1917968897637792
11
4.4754765748031495
21
-10.1994902362204716
0
LINE
8
BLACK
6
CONTINUOUS
10
4.4754765748031495
20
-10.1994902362204716
11
4.4788761417322833
21
-10.2076975196850395
0
LINE
8
BLACK
6
CONTINUOUS
10
4.4788761417322833
20
-10.2076975196850395
11
4.481175393700787
21
-10.2162783070866148
0
LINE
8
BLACK
6
CONTINUOUS
10
4.481175393700787
20
-10.2162783070866148
11
4.4823349212598425
21
-10.2250858267716538
0
LINE
8
BLACK
6
CONTINUOUS
10
4.4823349212598425
20
-10.2250858267716538
11
4.4823349212598425
21
-10.2339692913385818
0
LINE
8
BLACK
6
CONTINUOUS
10
4.4823349212598425
20
-10.2339692913385818
11
4.481175393700787
21
-10.2427768110236226
0
LINE
8
BLACK
6
CONTINUOUS
10
4.481175393700787
20
-10.2427768110236226
11
4.4788761417322833
21
-10.2513575984251961
0
LINE
8
BLACK
6
CONTINUOUS
10
4.4788761417322833
20
-10.2513575984251961
11
4.4754765748031495
21
-10.259564881889764
0
LINE
8
BLACK
6
CONTINUOUS
10
4.4754765748031495
20
-10.259564881889764
11
4.4710348425196846
21
-10.2672582283464564
0
LINE
8
BLACK
6
CONTINUOUS
10
4.4710348425196846
20
-10.2672582283464564
11
4.4656269291338582
21
-10.2743059842519688
0
LINE
8
BLACK
6
CONTINUOUS
10
4.4656269291338582
20
-10.2743059842519688
11
4.4593453543307087
21
-10.2805875590551175
0
LINE
8
BLACK
6
CONTINUOUS
10
4.4593453543307087
20
-10.2805875590551175
11
4.4522975984251971
21
-10.2859954724409448
0
LINE
8
BLACK
6
CONTINUOUS
10
4.4522975984251971
20
-10.2859954724409448
11
4.4446042519685038
21
-10.2904372047244088
0
LINE
8
BLACK
6
CONTINUOUS
10
4.4446042519685038
20
-10.2904372047244088
11
4.4363969685039368
21
-10.2938367716535435
0
LINE
8
BLACK
6
CONTINUOUS
10
4.4363969685039368
20
-10.2938367716535435
11
4.4278161811023624
21
-10.2961360236220472
0
LINE
8
BLACK
6
CONTINUOUS
10
4.4278161811023624
20
-10.2961360236220472
11
4.4190086614173225
21
-10.2972955511811026
0
LINE
8
BLACK
6
CONTINUOUS
10
4.4190086614173225
20
-10.2972955511811026
11
4.4101251968503936
21
-10.2972955511811026
0
LINE
8
BLACK
6
CONTINUOUS
10
4.4101251968503936
20
-10.2972955511811026
11
4.4013176771653546
21
-10.2961360236220472
0
LINE
8
BLACK
6
CONTINUOUS
10
4.4013176771653546
20
-10.2961360236220472
11
4.3927368897637793
21
-10.2938367716535435
0
LINE
8
BLACK
6
CONTINUOUS
10
4.3927368897637793
20
-10.2938367716535435
11
4.3845296062992123
21
-10.2904372047244088
0
LINE
8
BLACK
6
CONTINUOUS
10
4.3845296062992123
20
-10.2904372047244088
11
4.3768362598425199
21
-10.2859954724409448
0
LINE
8
BLACK
6
CONTINUOUS
10
4.3768362598425199
20
-10.2859954724409448
11
4.3697885039370075
21
-10.2805875590551175
0
LINE
8
BLACK
6
CONTINUOUS
10
4.3697885039370075
20
-10.2805875590551175
11
4.363506929133858
21
-10.2743059842519688
0
LINE
8
BLACK
6
CONTINUOUS
10
4.363506929133858
20
-10.2743059842519688
11
4.3580990157480315
21
-10.2672582283464564
0
LINE
8
BLACK
6
CONTINUOUS
10
4.3580990157480315
20
-10.2672582283464564
11
4.3536572834645666
21
-10.259564881889764
0
LINE
8
BLACK
6
CONTINUOUS
10
4.3536572834645666
20
-10.259564881889764
11
4.3502577165354328
21
-10.2513575984251961
0
LINE
8
BLACK
6
CONTINUOUS
10
4.3502577165354328
20
-10.2513575984251961
11
4.3479584645669291
21
-10.2427768110236226
0
LINE
8
BLACK
6
CONTINUOUS
10
4.3479584645669291
20
-10.2427768110236226
11
4.3467989370078737
21
-10.2339692913385818
0
LINE
8
BLACK
6
CONTINUOUS
10
4.3467989370078737
20
-10.2339692913385818
11
4.3467989370078737
21
-10.2250858267716538
0
LINE
8
BLACK
6
CONTINUOUS
10
4.3467989370078737
20
-10.2250858267716538
11
4.346815866141732
21
-10.2249572834645672
0
LINE
8
BLACK
6
CONTINUOUS
10
4.346815866141732
20
-10.2249572834645672
11
4.3479584645669291
21
-10.2162783070866148
0
LINE
8
BLACK
6
CONTINUOUS
10
4.3479584645669291
20
-10.2162783070866148
11
4.3502577165354328
21
-10.2076975196850395
0
LINE
8
BLACK
6
CONTINUOUS
10
4.3502577165354328
20
-10.2076975196850395
11
4.3536572834645666
21
-10.1994902362204716
0
LINE
8
BLACK
6
CONTINUOUS
10
4.3536572834645666
20
-10.1994902362204716
11
4.3580990157480315
21
-10.1917968897637792
0
LINE
8
BLACK
6
CONTINUOUS
10
4.3580990157480315
20
-10.1917968897637792
11
4.363506929133858
21
-10.1847491338582667
0
LINE
8
BLACK
6
CONTINUOUS
10
4.363506929133858
20
-10.1847491338582667
11
4.3697885039370075
21
-10.1784675590551181
0
LINE
8
BLACK
6
CONTINUOUS
10
4.3697885039370075
20
-10.1784675590551181
11
4.3768362598425199
21
-10.1730596456692908
0
LINE
8
BLACK
6
CONTINUOUS
10
4.3768362598425199
20
-10.1730596456692908
11
4.3845296062992123
21
-10.1686179133858268
0
LINE
8
BLACK
6
CONTINUOUS
10
4.3845296062992123
20
-10.1686179133858268
11
4.3927368897637793
21
-10.1652183464566921
0
LINE
8
BLACK
6
CONTINUOUS
10
4.3927368897637793
20
-10.1652183464566921
11
4.4013176771653546
21
-10.1629190944881884
0
LINE
8
BLACK
6
CONTINUOUS
10
4.4013176771653546
20
-10.1629190944881884
11
4.4101251968503936
21
-10.161759566929133
0
LINE
8
BLACK
6
CONTINUOUS
10
4.4101251968503936
20
-10.161759566929133
11
4.4190086614173225
21
-10.161759566929133
0
LINE
8
BLACK
6
CONTINUOUS
10
4.4190086614173225
20
-10.161759566929133
11
4.4278161811023624
21
-10.1629190944881884
0
LINE
8
BLACK
6
CONTINUOUS
10
4.3564960629921261
20
-10.2340978346456684
11
4.3579259448818899
21
-10.2431258661417317
0
LINE
8
BLACK
6
CONTINUOUS
10
4.3579259448818899
20
-10.2431258661417317
11
4.360750551181102
21
-10.2518190157480316
0
LINE
8
BLACK
6
CONTINUOUS
10
4.360750551181102
20
-10.2518190157480316
11
4.3649002755905508
21
-10.2599633070866147
0
LINE
8
BLACK
6
CONTINUOUS
10
4.3649002755905508
20
-10.2599633070866147
11
4.3702729527559052
21
-10.2673581889763774
0
LINE
8
BLACK
6
CONTINUOUS
10
4.3702729527559052
20
-10.2673581889763774
11
4.376736299212598
21
-10.2738215354330702
0
LINE
8
BLACK
6
CONTINUOUS
10
4.376736299212598
20
-10.2738215354330702
11
4.3841311811023624
21
-10.2791942125984246
0
LINE
8
BLACK
6
CONTINUOUS
10
4.3841311811023624
20
-10.2791942125984246
11
4.3922754724409447
21
-10.2833439370078743
0
LINE
8
BLACK
6
CONTINUOUS
10
4.3922754724409447
20
-10.2833439370078743
11
4.4009686220472437
21
-10.2861685433070864
0
LINE
8
BLACK
6
CONTINUOUS
10
4.4009686220472437
20
-10.2861685433070864
11
4.4099966535433071
21
-10.2875984251968493
0
LINE
8
BLACK
6
CONTINUOUS
10
4.4099966535433071
20
-10.2875984251968493
11
4.4191372047244091
21
-10.2875984251968493
0
LINE
8
BLACK
6
CONTINUOUS
10
4.4191372047244091
20
-10.2875984251968493
11
4.4281652362204724
21
-10.2861685433070864
0
LINE
8
BLACK
6
CONTINUOUS
10
4.4281652362204724
20
-10.2861685433070864
11
4.4368583858267714
21
-10.2833439370078743
0
LINE
8
BLACK
6
CONTINUOUS
10
4.4368583858267714
20
-10.2833439370078743
11
4.4450026771653546
21
-10.2791942125984246
0
LINE
8
BLACK
6
CONTINUOUS
10
4.4450026771653546
20
-10.2791942125984246
11
4.4523975590551181
21
-10.2738215354330702
0
LINE
8
BLACK
6
CONTINUOUS
10
4.4523975590551181
20
-10.2738215354330702
11
4.4588609055118109
21
-10.2673581889763774
0
LINE
8
BLACK
6
CONTINUOUS
10
4.4588609055118109
20
-10.2673581889763774
11
4.4642335826771653
21
-10.2599633070866147
0
LINE
8
BLACK
6
CONTINUOUS
10
4.4642335826771653
20
-10.2599633070866147
11
4.4683833070866141
21
-10.2518190157480316
0
LINE
8
BLACK
6
CONTINUOUS
10
4.4683833070866141
20
-10.2518190157480316
11
4.4712079133858262
21
-10.2431258661417317
0
LINE
8
BLACK
6
CONTINUOUS
10
4.4712079133858262
20
-10.2431258661417317
11
4.47263779527559
21
-10.2340978346456684
0
LINE
8
BLACK
6
CONTINUOUS
10
4.47263779527559
20
-10.2340978346456684
11
4.47263779527559
21
-10.2249572834645672
0
LINE
8
BLACK
6
CONTINUOUS
10
4.47263779527559
20
-10.2249572834645672
11
4.4712079133858262
21
-10.2159292519685039
0
LINE
8
BLACK
6
CONTINUOUS
10
4.4712079133858262
20
-10.2159292519685039
11
4.4683833070866141
21
-10.207236102362204
0
LINE
8
BLACK
6
CONTINUOUS
10
4.4683833070866141
20
-10.207236102362204
11
4.4642335826771653
21
-10.1990918110236226
0
LINE
8
BLACK
6
CONTINUOUS
10
4.4642335826771653
20
-10.1990918110236226
11
4.4588609055118109
21
-10.1916969291338582
0
LINE
8
BLACK
6
CONTINUOUS
10
4.4588609055118109
20
-10.1916969291338582
11
4.4523975590551181
21
-10.1852335826771654
0
LINE
8
BLACK
6
CONTINUOUS
10
4.4523975590551181
20
-10.1852335826771654
11
4.4450026771653546
21
-10.179860905511811
0
LINE
8
BLACK
6
CONTINUOUS
10
4.4450026771653546
20
-10.179860905511811
11
4.4368583858267714
21
-10.1757111811023613
0
LINE
8
BLACK
6
CONTINUOUS
10
4.4368583858267714
20
-10.1757111811023613
11
4.4281652362204724
21
-10.1728865748031492
0
LINE
8
BLACK
6
CONTINUOUS
10
4.4281652362204724
20
-10.1728865748031492
11
4.4191372047244091
21
-10.1714566929133863
0
LINE
8
BLACK
6
CONTINUOUS
10
4.4191372047244091
20
-10.1714566929133863
11
4.4099966535433071
21
-10.1714566929133863
0
LINE
8
BLACK
6
CONTINUOUS
10
4.4099966535433071
20
-10.1714566929133863
11
4.4009686220472437
21
-10.1728865748031492
0
LINE
8
BLACK
6
CONTINUOUS
10
4.4009686220472437
20
-10.1728865748031492
11
4.3922754724409447
21
-10.1757111811023613
0
LINE
8
BLACK
6
CONTINUOUS
10
4.3922754724409447
20
-10.1757111811023613
11
4.3841311811023624
21
-10.179860905511811
0
LINE
8
BLACK
6
CONTINUOUS
10
4.3841311811023624
20
-10.179860905511811
11
4.376736299212598
21
-10.1852335826771654
0
LINE
8
BLACK
6
CONTINUOUS
10
4.376736299212598
20
-10.1852335826771654
11
4.3702729527559052
21
-10.1916969291338582
0
LINE
8
BLACK
6
CONTINUOUS
10
4.3702729527559052
20
-10.1916969291338582
11
4.3649002755905508
21
-10.1990918110236226
0
LINE
8
BLACK
6
CONTINUOUS
10
4.3649002755905508
20
-10.1990918110236226
11
4.360750551181102
21
-10.207236102362204
0
LINE
8
BLACK
6
CONTINUOUS
10
4.360750551181102
20
-10.207236102362204
11
4.3579259448818899
21
-10.2159292519685039
0
LINE
8
BLACK
6
CONTINUOUS
10
4.3579259448818899
20
-10.2159292519685039
11
4.3564960629921261
21
-10.2249572834645672
0
LINE
8
BLACK
6
CONTINUOUS
10
4.3564960629921261
20
-10.2249572834645672
11
4.3564960629921261
21
-10.2340978346456684
0
LINE
8
BLACK
6
CONTINUOUS
10
7.4238791732283467
20
-10.1629190944881884
11
7.4324599606299211
21
-10.1652183464566921
0
LINE
8
BLACK
6
CONTINUOUS
10
7.4324599606299211
20
-10.1652183464566921
11
7.4406672440944881
21
-10.1686179133858268
0
LINE
8
BLACK
6
CONTINUOUS
10
7.4406672440944881
20
-10.1686179133858268
11
7.4483605905511805
21
-10.1730596456692908
0
LINE
8
BLACK
6
CONTINUOUS
10
7.4483605905511805
20
-10.1730596456692908
11
7.4554083464566929
21
-10.1784675590551181
0
LINE
8
BLACK
6
CONTINUOUS
10
7.4554083464566929
20
-10.1784675590551181
11
7.4616899212598424
21
-10.1847491338582667
0
LINE
8
BLACK
6
CONTINUOUS
10
7.4616899212598424
20
-10.1847491338582667
11
7.4670978346456689
21
-10.1917968897637792
0
LINE
8
BLACK
6
CONTINUOUS
10
7.4670978346456689
20
-10.1917968897637792
11
7.4715395669291338
21
-10.1994902362204716
0
LINE
8
BLACK
6
CONTINUOUS
10
7.4715395669291338
20
-10.1994902362204716
11
7.4749391338582676
21
-10.2076975196850395
0
LINE
8
BLACK
6
CONTINUOUS
10
7.4749391338582676
20
-10.2076975196850395
11
7.4772383858267712
21
-10.2162783070866148
0
LINE
8
BLACK
6
CONTINUOUS
10
7.4772383858267712
20
-10.2162783070866148
11
7.4783979133858267
21
-10.2250858267716538
0
LINE
8
BLACK
6
CONTINUOUS
10
7.4783979133858267
20
-10.2250858267716538
11
7.4783979133858267
21
-10.2339692913385818
0
LINE
8
BLACK
6
CONTINUOUS
10
7.4783979133858267
20
-10.2339692913385818
11
7.4772383858267712
21
-10.2427768110236226
0
LINE
8
BLACK
6
CONTINUOUS
10
7.4772383858267712
20
-10.2427768110236226
11
7.4749391338582676
21
-10.2513575984251961
0
LINE
8
BLACK
6
CONTINUOUS
10
7.4749391338582676
20
-10.2513575984251961
11
7.4715395669291338
21
-10.259564881889764
0
LINE
8
BLACK
6
CONTINUOUS
10
7.4715395669291338
20
-10.259564881889764
11
7.4670978346456689
21
-10.2672582283464564
0
LINE
8
BLACK
6
CONTINUOUS
10
7.4670978346456689
20
-10.2672582283464564
11
7.4616899212598424
21
-10.2743059842519688
0
LINE
8
BLACK
6
CONTINUOUS
10
7.4616899212598424
20
-10.2743059842519688
11
7.4554083464566929
21
-10.2805875590551175
0
LINE
8
BLACK
6
CONTINUOUS
10
7.4554083464566929
20
-10.2805875590551175
11
7.4483605905511805
21
-10.2859954724409448
0
LINE
8
BLACK
6
CONTINUOUS
10
7.4483605905511805
20
-10.2859954724409448
11
7.4406672440944881
21
-10.2904372047244088
0
LINE
8
BLACK
6
CONTINUOUS
10
7.4406672440944881
20
-10.2904372047244088
11
7.4324599606299211
21
-10.2938367716535435
0
LINE
8
BLACK
6
CONTINUOUS
10
7.4324599606299211
20
-10.2938367716535435
11
7.4238791732283467
21
-10.2961360236220472
0
LINE
8
BLACK
6
CONTINUOUS
10
7.4238791732283467
20
-10.2961360236220472
11
7.4150716535433068
21
-10.2972955511811026
0
LINE
8
BLACK
6
CONTINUOUS
10
7.4150716535433068
20
-10.2972955511811026
11
7.4061881889763779
21
-10.2972955511811026
0
LINE
8
BLACK
6
CONTINUOUS
10
7.4061881889763779
20
-10.2972955511811026
11
7.397380669291338
21
-10.2961360236220472
0
LINE
8
BLACK
6
CONTINUOUS
10
7.397380669291338
20
-10.2961360236220472
11
7.3887998818897636
21
-10.2938367716535435
0
LINE
8
BLACK
6
CONTINUOUS
10
7.3887998818897636
20
-10.2938367716535435
11
7.3805925984251965
21
-10.2904372047244088
0
LINE
8
BLACK
6
CONTINUOUS
10
7.3805925984251965
20
-10.2904372047244088
11
7.3728992519685042
21
-10.2859954724409448
0
LINE
8
BLACK
6
CONTINUOUS
10
7.3728992519685042
20
-10.2859954724409448
11
7.3658514960629917
21
-10.2805875590551175
0
LINE
8
BLACK
6
CONTINUOUS
10
7.3658514960629917
20
-10.2805875590551175
11
7.3595699212598422
21
-10.2743059842519688
0
LINE
8
BLACK
6
CONTINUOUS
10
7.3595699212598422
20
-10.2743059842519688
11
7.3541620078740157
21
-10.2672582283464564
0
LINE
8
BLACK
6
CONTINUOUS
10
7.3541620078740157
20
-10.2672582283464564
11
7.3497202755905509
21
-10.259564881889764
0
LINE
8
BLACK
6
CONTINUOUS
10
7.3497202755905509
20
-10.259564881889764
11
7.3463207086614171
21
-10.2513575984251961
0
LINE
8
BLACK
6
CONTINUOUS
10
7.3463207086614171
20
-10.2513575984251961
11
7.3440214566929134
21
-10.2427768110236226
0
LINE
8
BLACK
6
CONTINUOUS
10
7.3440214566929134
20
-10.2427768110236226
11
7.3428619291338579
21
-10.2339692913385818
0
LINE
8
BLACK
6
CONTINUOUS
10
7.3428619291338579
20
-10.2339692913385818
11
7.3428619291338579
21
-10.2250858267716538
0
LINE
8
BLACK
6
CONTINUOUS
10
7.3428619291338579
20
-10.2250858267716538
11
7.3428788582677162
21
-10.2249572834645672
0
LINE
8
BLACK
6
CONTINUOUS
10
7.3428788582677162
20
-10.2249572834645672
11
7.3440214566929134
21
-10.2162783070866148
0
LINE
8
BLACK
6
CONTINUOUS
10
7.3440214566929134
20
-10.2162783070866148
11
7.3463207086614171
21
-10.2076975196850395
0
LINE
8
BLACK
6
CONTINUOUS
10
7.3463207086614171
20
-10.2076975196850395
11
7.3497202755905509
21
-10.1994902362204716
0
LINE
8
BLACK
6
CONTINUOUS
10
7.3497202755905509
20
-10.1994902362204716
11
7.3541620078740157
21
-10.1917968897637792
0
LINE
8
BLACK
6
CONTINUOUS
10
7.3541620078740157
20
-10.1917968897637792
11
7.3595699212598422
21
-10.1847491338582667
0
LINE
8
BLACK
6
CONTINUOUS
10
7.3595699212598422
20
-10.1847491338582667
11
7.3658514960629917
21
-10.1784675590551181
0
LINE
8
BLACK
6
CONTINUOUS
10
7.3658514960629917
20
-10.1784675590551181
11
7.3728992519685042
21
-10.1730596456692908
0
LINE
8
BLACK
6
CONTINUOUS
10
7.3728992519685042
20
-10.1730596456692908
11
7.3805925984251965
21
-10.1686179133858268
0
LINE
8
BLACK
6
CONTINUOUS
10
7.3805925984251965
20
-10.1686179133858268
11
7.3887998818897636
21
-10.1652183464566921
0
LINE
8
BLACK
6
CONTINUOUS
10
7.3887998818897636
20
-10.1652183464566921
11
7.397380669291338
21
-10.1629190944881884
0
LINE
8
BLACK
6
CONTINUOUS
10
7.397380669291338
20
-10.1629190944881884
11
7.4061881889763779
21
-10.161759566929133
0
LINE
8
BLACK
6
CONTINUOUS
10
7.4061881889763779
20
-10.161759566929133
11
7.4150716535433068
21
-10.161759566929133
0
LINE
8
BLACK
6
CONTINUOUS
10
7.4150716535433068
20
-10.161759566929133
11
7.4238791732283467
21
-10.1629190944881884
0
LINE
8
BLACK
6
CONTINUOUS
10
7.3525590551181104
20
-10.2340978346456684
11
7.3539889370078741
21
-10.2431258661417317
0
LINE
8
BLACK
6
CONTINUOUS
10
7.3539889370078741
20
-10.2431258661417317
11
7.3568135433070863
21
-10.2518190157480316
0
LINE
8
BLACK
6
CONTINUOUS
10
7.3568135433070863
20
-10.2518190157480316
11
7.3609632677165351
21
-10.2599633070866147
0
LINE
8
BLACK
6
CONTINUOUS
10
7.3609632677165351
20
-10.2599633070866147
11
7.3663359448818895
21
-10.2673581889763774
0
LINE
8
BLACK
6
CONTINUOUS
10
7.3663359448818895
20
-10.2673581889763774
11
7.3727992913385823
21
-10.2738215354330702
0
LINE
8
BLACK
6
CONTINUOUS
10
7.3727992913385823
20
-10.2738215354330702
11
7.3801941732283467
21
-10.2791942125984246
0
LINE
8
BLACK
6
CONTINUOUS
10
7.3801941732283467
20
-10.2791942125984246
11
7.388338464566929
21
-10.2833439370078743
0
LINE
8
BLACK
6
CONTINUOUS
10
7.388338464566929
20
-10.2833439370078743
11
7.397031614173228
21
-10.2861685433070864
0
LINE
8
BLACK
6
CONTINUOUS
10
7.397031614173228
20
-10.2861685433070864
11
7.4060596456692913
21
-10.2875984251968493
0
LINE
8
BLACK
6
CONTINUOUS
10
7.4060596456692913
20
-10.2875984251968493
11
7.4152001968503933
21
-10.2875984251968493
0
LINE
8
BLACK
6
CONTINUOUS
10
7.4152001968503933
20
-10.2875984251968493
11
7.4242282283464567
21
-10.2861685433070864
0
LINE
8
BLACK
6
CONTINUOUS
10
7.4242282283464567
20
-10.2861685433070864
11
7.4329213779527556
21
-10.2833439370078743
0
LINE
8
BLACK
6
CONTINUOUS
10
7.4329213779527556
20
-10.2833439370078743
11
7.4410656692913388
21
-10.2791942125984246
0
LINE
8
BLACK
6
CONTINUOUS
10
7.4410656692913388
20
-10.2791942125984246
11
7.4484605511811024
21
-10.2738215354330702
0
LINE
8
BLACK
6
CONTINUOUS
10
7.4484605511811024
20
-10.2738215354330702
11
7.4549238976377952
21
-10.2673581889763774
0
LINE
8
BLACK
6
CONTINUOUS
10
7.4549238976377952
20
-10.2673581889763774
11
7.4602965748031496
21
-10.2599633070866147
0
LINE
8
BLACK
6
CONTINUOUS
10
7.4602965748031496
20
-10.2599633070866147
11
7.4644462992125984
21
-10.2518190157480316
0
LINE
8
BLACK
6
CONTINUOUS
10
7.4644462992125984
20
-10.2518190157480316
11
7.4672709055118105
21
-10.2431258661417317
0
LINE
8
BLACK
6
CONTINUOUS
10
7.4672709055118105
20
-10.2431258661417317
11
7.4687007874015743
21
-10.2340978346456684
0
LINE
8
BLACK
6
CONTINUOUS
10
7.4687007874015743
20
-10.2340978346456684
11
7.4687007874015743
21
-10.2249572834645672
0
LINE
8
BLACK
6
CONTINUOUS
10
7.4687007874015743
20
-10.2249572834645672
11
7.4672709055118105
21
-10.2159292519685039
0
LINE
8
BLACK
6
CONTINUOUS
10
7.4672709055118105
20
-10.2159292519685039
11
7.4644462992125984
21
-10.207236102362204
0
LINE
8
BLACK
6
CONTINUOUS
10
7.4644462992125984
20
-10.207236102362204
11
7.4602965748031496
21
-10.1990918110236226
0
LINE
8
BLACK
6
CONTINUOUS
10
7.4602965748031496
20
-10.1990918110236226
11
7.4549238976377952
21
-10.1916969291338582
0
LINE
8
BLACK
6
CONTINUOUS
10
7.4549238976377952
20
-10.1916969291338582
11
7.4484605511811024
21
-10.1852335826771654
0
LINE
8
BLACK
6
CONTINUOUS
10
7.4484605511811024
20
-10.1852335826771654
11
7.4410656692913388
21
-10.179860905511811
0
LINE
8
BLACK
6
CONTINUOUS
10
7.4410656692913388
20
-10.179860905511811
11
7.4329213779527556
21
-10.1757111811023613
0
LINE
8
BLACK
6
CONTINUOUS
10
7.4329213779527556
20
-10.1757111811023613
11
7.4242282283464567
21
-10.1728865748031492
0
LINE
8
BLACK
6
CONTINUOUS
10
7.4242282283464567
20
-10.1728865748031492
11
7.4152001968503933
21
-10.1714566929133863
0
LINE
8
BLACK
6
CONTINUOUS
10
7.4152001968503933
20
-10.1714566929133863
11
7.4060596456692913
21
-10.1714566929133863
0
LINE
8
BLACK
6
CONTINUOUS
10
7.4060596456692913
20
-10.1714566929133863
11
7.397031614173228
21
-10.1728865748031492
0
LINE
8
BLACK
6
CONTINUOUS
10
7.397031614173228
20
-10.1728865748031492
11
7.388338464566929
21
-10.1757111811023613
0
LINE
8
BLACK
6
CONTINUOUS
10
7.388338464566929
20
-10.1757111811023613
11
7.3801941732283467
21
-10.179860905511811
0
LINE
8
BLACK
6
CONTINUOUS
10
7.3801941732283467
20
-10.179860905511811
11
7.3727992913385823
21
-10.1852335826771654
0
LINE
8
BLACK
6
CONTINUOUS
10
7.3727992913385823
20
-10.1852335826771654
11
7.3663359448818895
21
-10.1916969291338582
0
LINE
8
BLACK
6
CONTINUOUS
10
7.3663359448818895
20
-10.1916969291338582
11
7.3609632677165351
21
-10.1990918110236226
0
LINE
8
BLACK
6
CONTINUOUS
10
7.3609632677165351
20
-10.1990918110236226
11
7.3568135433070863
21
-10.207236102362204
0
LINE
8
BLACK
6
CONTINUOUS
10
7.3568135433070863
20
-10.207236102362204
11
7.3539889370078741
21
-10.2159292519685039
0
LINE
8
BLACK
6
CONTINUOUS
10
7.3539889370078741
20
-10.2159292519685039
11
7.3525590551181104
21
-10.2249572834645672
0
LINE
8
BLACK
6
CONTINUOUS
10
7.3525590551181104
20
-10.2249572834645672
11
7.3525590551181104
21
-10.2340978346456684
0
LINE
8
BLACK
6
CONTINUOUS
10
4.4278161811023624
20
-5.0841789370078736
11
4.4363969685039368
21
-5.0864781889763782
0
LINE
8
BLACK
6
CONTINUOUS
10
4.4363969685039368
20
-5.0864781889763782
11
4.4446042519685038
21
-5.0898777559055119
0
LINE
8
BLACK
6
CONTINUOUS
10
4.4446042519685038
20
-5.0898777559055119
11
4.4522975984251971
21
-5.094319488188976
0
LINE
8
BLACK
6
CONTINUOUS
10
4.4522975984251971
20
-5.094319488188976
11
4.4593453543307087
21
-5.0997274015748033
0
LINE
8
BLACK
6
CONTINUOUS
10
4.4593453543307087
20
-5.0997274015748033
11
4.4656269291338582
21
-5.1060089763779528
0
LINE
8
BLACK
6
CONTINUOUS
10
4.4656269291338582
20
-5.1060089763779528
11
4.4710348425196846
21
-5.1130567322834644
0
LINE
8
BLACK
6
CONTINUOUS
10
4.4710348425196846
20
-5.1130567322834644
11
4.4754765748031495
21
-5.1207500787401576
0
LINE
8
BLACK
6
CONTINUOUS
10
4.4754765748031495
20
-5.1207500787401576
11
4.4788761417322833
21
-5.1289573622047246
0
LINE
8
BLACK
6
CONTINUOUS
10
4.4788761417322833
20
-5.1289573622047246
11
4.481175393700787
21
-5.1375381496062991
0
LINE
8
BLACK
6
CONTINUOUS
10
4.481175393700787
20
-5.1375381496062991
11
4.4823349212598425
21
-5.1463456692913381
0
LINE
8
BLACK
6
CONTINUOUS
10
4.4823349212598425
20
-5.1463456692913381
11
4.4823349212598425
21
-5.1552291338582679
0
LINE
8
BLACK
6
CONTINUOUS
10
4.4823349212598425
20
-5.1552291338582679
11
4.481175393700787
21
-5.1640366535433069
0
LINE
8
BLACK
6
CONTINUOUS
10
4.481175393700787
20
-5.1640366535433069
11
4.4788761417322833
21
-5.1726174409448822
0
LINE
8
BLACK
6
CONTINUOUS
10
4.4788761417322833
20
-5.1726174409448822
11
4.4754765748031495
21
-5.1808247244094483
0
LINE
8
BLACK
6
CONTINUOUS
10
4.4754765748031495
20
-5.1808247244094483
11
4.4710348425196846
21
-5.1885180708661416
0
LINE
8
BLACK
6
CONTINUOUS
10
4.4710348425196846
20
-5.1885180708661416
11
4.4656269291338582
21
-5.1955658267716531
0
LINE
8
BLACK
6
CONTINUOUS
10
4.4656269291338582
20
-5.1955658267716531
11
4.4593453543307087
21
-5.2018474015748026
0
LINE
8
BLACK
6
CONTINUOUS
10
4.4593453543307087
20
-5.2018474015748026
11
4.4522975984251971
21
-5.20725531496063
0
LINE
8
BLACK
6
CONTINUOUS
10
4.4522975984251971
20
-5.20725531496063
11
4.4446042519685038
21
-5.211697047244094
0
LINE
8
BLACK
6
CONTINUOUS
10
4.4446042519685038
20
-5.211697047244094
11
4.4363969685039368
21
-5.2150966141732278
0
LINE
8
BLACK
6
CONTINUOUS
10
4.4363969685039368
20
-5.2150966141732278
11
4.4278161811023624
21
-5.2173958661417323
0
LINE
8
BLACK
6
CONTINUOUS
10
4.4278161811023624
20
-5.2173958661417323
11
4.4190086614173225
21
-5.2185553937007869
0
LINE
8
BLACK
6
CONTINUOUS
10
4.4190086614173225
20
-5.2185553937007869
11
4.4101251968503936
21
-5.2185553937007869
0
LINE
8
BLACK
6
CONTINUOUS
10
4.4101251968503936
20
-5.2185553937007869
11
4.4013176771653546
21
-5.2173958661417323
0
LINE
8
BLACK
6
CONTINUOUS
10
4.4013176771653546
20
-5.2173958661417323
11
4.3927368897637793
21
-5.2150966141732278
0
LINE
8
BLACK
6
CONTINUOUS
10
4.3927368897637793
20
-5.2150966141732278
11
4.3845296062992123
21
-5.211697047244094
0
LINE
8
BLACK
6
CONTINUOUS
10
4.3845296062992123
20
-5.211697047244094
11
4.3768362598425199
21
-5.20725531496063
0
LINE
8
BLACK
6
CONTINUOUS
10
4.3768362598425199
20
-5.20725531496063
11
4.3697885039370075
21
-5.2018474015748026
0
LINE
8
BLACK
6
CONTINUOUS
10
4.3697885039370075
20
-5.2018474015748026
11
4.363506929133858
21
-5.1955658267716531
0
LINE
8
BLACK
6
CONTINUOUS
10
4.363506929133858
20
-5.1955658267716531
11
4.3580990157480315
21
-5.1885180708661416
0
LINE
8
BLACK
6
CONTINUOUS
10
4.3580990157480315
20
-5.1885180708661416
11
4.3536572834645666
21
-5.1808247244094483
0
LINE
8
BLACK
6
CONTINUOUS
10
4.3536572834645666
20
-5.1808247244094483
11
4.3502577165354328
21
-5.1726174409448822
0
LINE
8
BLACK
6
CONTINUOUS
10
4.3502577165354328
20
-5.1726174409448822
11
4.3479584645669291
21
-5.1640366535433069
0
LINE
8
BLACK
6
CONTINUOUS
10
4.3479584645669291
20
-5.1640366535433069
11
4.3467989370078737
21
-5.1552291338582679
0
LINE
8
BLACK
6
CONTINUOUS
10
4.3467989370078737
20
-5.1552291338582679
11
4.3467989370078737
21
-5.1463456692913381
0
LINE
8
BLACK
6
CONTINUOUS
10
4.3467989370078737
20
-5.1463456692913381
11
4.346815866141732
21
-5.1462171259842515
0
LINE
8
BLACK
6
CONTINUOUS
10
4.346815866141732
20
-5.1462171259842515
11
4.3479584645669291
21
-5.1375381496062991
0
LINE
8
BLACK
6
CONTINUOUS
10
4.3479584645669291
20
-5.1375381496062991
11
4.3502577165354328
21
-5.1289573622047246
0
LINE
8
BLACK
6
CONTINUOUS
10
4.3502577165354328
20
-5.1289573622047246
11
4.3536572834645666
21
-5.1207500787401576
0
LINE
8
BLACK
6
CONTINUOUS
10
4.3536572834645666
20
-5.1207500787401576
11
4.3580990157480315
21
-5.1130567322834644
0
LINE
8
BLACK
6
CONTINUOUS
10
4.3580990157480315
20
-5.1130567322834644
11
4.363506929133858
21
-5.1060089763779528
0
LINE
8
BLACK
6
CONTINUOUS
10
4.363506929133858
20
-5.1060089763779528
11
4.3697885039370075
21
-5.0997274015748033
0
LINE
8
BLACK
6
CONTINUOUS
10
4.3697885039370075
20
-5.0997274015748033
11
4.3768362598425199
21
-5.094319488188976
0
LINE
8
BLACK
6
CONTINUOUS
10
4.3768362598425199
20
-5.094319488188976
11
4.3845296062992123
21
-5.0898777559055119
0
LINE
8
BLACK
6
CONTINUOUS
10
4.3845296062992123
20
-5.0898777559055119
11
4.3927368897637793
21
-5.0864781889763782
0
LINE
8
BLACK
6
CONTINUOUS
10
4.3927368897637793
20
-5.0864781889763782
11
4.4013176771653546
21
-5.0841789370078736
0
LINE
8
BLACK
6
CONTINUOUS
10
4.4013176771653546
20
-5.0841789370078736
11
4.4101251968503936
21
-5.083019409448819
0
LINE
8
BLACK
6
CONTINUOUS
10
4.4101251968503936
20
-5.083019409448819
11
4.4190086614173225
21
-5.083019409448819
0
LINE
8
BLACK
6
CONTINUOUS
10
4.4190086614173225
20
-5.083019409448819
11
4.4278161811023624
21
-5.0841789370078736
0
LINE
8
BLACK
6
CONTINUOUS
10
4.3564960629921261
20
-5.1553576771653544
11
4.3579259448818899
21
-5.1643857086614169
0
LINE
8
BLACK
6
CONTINUOUS
10
4.3579259448818899
20
-5.1643857086614169
11
4.360750551181102
21
-5.1730788582677167
0
LINE
8
BLACK
6
CONTINUOUS
10
4.360750551181102
20
-5.1730788582677167
11
4.3649002755905508
21
-5.181223149606299
0
LINE
8
BLACK
6
CONTINUOUS
10
4.3649002755905508
20
-5.181223149606299
11
4.3702729527559052
21
-5.1886180314960626
0
LINE
8
BLACK
6
CONTINUOUS
10
4.3702729527559052
20
-5.1886180314960626
11
4.376736299212598
21
-5.1950813779527554
0
LINE
8
BLACK
6
CONTINUOUS
10
4.376736299212598
20
-5.1950813779527554
11
4.3841311811023624
21
-5.2004540551181098
0
LINE
8
BLACK
6
CONTINUOUS
10
4.3841311811023624
20
-5.2004540551181098
11
4.3922754724409447
21
-5.2046037795275586
0
LINE
8
BLACK
6
CONTINUOUS
10
4.3922754724409447
20
-5.2046037795275586
11
4.4009686220472437
21
-5.2074283858267716
0
LINE
8
BLACK
6
CONTINUOUS
10
4.4009686220472437
20
-5.2074283858267716
11
4.4099966535433071
21
-5.2088582677165354
0
LINE
8
BLACK
6
CONTINUOUS
10
4.4099966535433071
20
-5.2088582677165354
11
4.4191372047244091
21
-5.2088582677165354
0
LINE
8
BLACK
6
CONTINUOUS
10
4.4191372047244091
20
-5.2088582677165354
11
4.4281652362204724
21
-5.2074283858267716
0
LINE
8
BLACK
6
CONTINUOUS
10
4.4281652362204724
20
-5.2074283858267716
11
4.4368583858267714
21
-5.2046037795275586
0
LINE
8
BLACK
6
CONTINUOUS
10
4.4368583858267714
20
-5.2046037795275586
11
4.4450026771653546
21
-5.2004540551181098
0
LINE
8
BLACK
6
CONTINUOUS
10
4.4450026771653546
20
-5.2004540551181098
11
4.4523975590551181
21
-5.1950813779527554
0
LINE
8
BLACK
6
CONTINUOUS
10
4.4523975590551181
20
-5.1950813779527554
11
4.4588609055118109
21
-5.1886180314960626
0
LINE
8
BLACK
6
CONTINUOUS
10
4.4588609055118109
20
-5.1886180314960626
11
4.4642335826771653
21
-5.181223149606299
0
LINE
8
BLACK
6
CONTINUOUS
10
4.4642335826771653
20
-5.181223149606299
11
4.4683833070866141
21
-5.1730788582677167
0
LINE
8
BLACK
6
CONTINUOUS
10
4.4683833070866141
20
-5.1730788582677167
11
4.4712079133858262
21
-5.1643857086614169
0
LINE
8
BLACK
6
CONTINUOUS
10
4.4712079133858262
20
-5.1643857086614169
11
4.47263779527559
21
-5.1553576771653544
0
LINE
8
BLACK
6
CONTINUOUS
10
4.47263779527559
20
-5.1553576771653544
11
4.47263779527559
21
-5.1462171259842515
0
LINE
8
BLACK
6
CONTINUOUS
10
4.47263779527559
20
-5.1462171259842515
11
4.4712079133858262
21
-5.1371890944881891
0
LINE
8
BLACK
6
CONTINUOUS
10
4.4712079133858262
20
-5.1371890944881891
11
4.4683833070866141
21
-5.1284959448818901
0
LINE
8
BLACK
6
CONTINUOUS
10
4.4683833070866141
20
-5.1284959448818901
11
4.4642335826771653
21
-5.1203516535433069
0
LINE
8
BLACK
6
CONTINUOUS
10
4.4642335826771653
20
-5.1203516535433069
11
4.4588609055118109
21
-5.1129567716535433
0
LINE
8
BLACK
6
CONTINUOUS
10
4.4588609055118109
20
-5.1129567716535433
11
4.4523975590551181
21
-5.1064934251968506
0
LINE
8
BLACK
6
CONTINUOUS
10
4.4523975590551181
20
-5.1064934251968506
11
4.4450026771653546
21
-5.1011207480314962
0
LINE
8
BLACK
6
CONTINUOUS
10
4.4450026771653546
20
-5.1011207480314962
11
4.4368583858267714
21
-5.0969710236220473
0
LINE
8
BLACK
6
CONTINUOUS
10
4.4368583858267714
20
-5.0969710236220473
11
4.4281652362204724
21
-5.0941464173228344
0
LINE
8
BLACK
6
CONTINUOUS
10
4.4281652362204724
20
-5.0941464173228344
11
4.4191372047244091
21
-5.0927165354330706
0
LINE
8
BLACK
6
CONTINUOUS
10
4.4191372047244091
20
-5.0927165354330706
11
4.4099966535433071
21
-5.0927165354330706
0
LINE
8
BLACK
6
CONTINUOUS
10
4.4099966535433071
20
-5.0927165354330706
11
4.4009686220472437
21
-5.0941464173228344
0
LINE
8
BLACK
6
CONTINUOUS
10
4.4009686220472437
20
-5.0941464173228344
11
4.3922754724409447
21
-5.0969710236220473
0
LINE
8
BLACK
6
CONTINUOUS
10
4.3922754724409447
20
-5.0969710236220473
11
4.3841311811023624
21
-5.1011207480314962
0
LINE
8
BLACK
6
CONTINUOUS
10
4.3841311811023624
20
-5.1011207480314962
11
4.376736299212598
21
-5.1064934251968506
0
LINE
8
BLACK
6
CONTINUOUS
10
4.376736299212598
20
-5.1064934251968506
11
4.3702729527559052
21
-5.1129567716535433
0
LINE
8
BLACK
6
CONTINUOUS
10
4.3702729527559052
20
-5.1129567716535433
11
4.3649002755905508
21
-5.1203516535433069
0
LINE
8
BLACK
6
CONTINUOUS
10
4.3649002755905508
20
-5.1203516535433069
11
4.360750551181102
21
-5.1284959448818901
0
LINE
8
BLACK
6
CONTINUOUS
10
4.360750551181102
20
-5.1284959448818901
11
4.3579259448818899
21
-5.1371890944881891
0
LINE
8
BLACK
6
CONTINUOUS
10
4.3579259448818899
20
-5.1371890944881891
11
4.3564960629921261
21
-5.1462171259842515
0
LINE
8
BLACK
6
CONTINUOUS
10
4.3564960629921261
20
-5.1462171259842515
11
4.3564960629921261
21
-5.1553576771653544
0
LINE
8
BLACK
6
CONTINUOUS
10
7.4238791732283467
20
-5.0841789370078736
11
7.4324599606299211
21
-5.0864781889763782
0
LINE
8
BLACK
6
CONTINUOUS
10
7.4324599606299211
20
-5.0864781889763782
11
7.4406672440944881
21
-5.0898777559055119
0
LINE
8
BLACK
6
CONTINUOUS
10
7.4406672440944881
20
-5.0898777559055119
11
7.4483605905511805
21
-5.094319488188976
0
LINE
8
BLACK
6
CONTINUOUS
10
7.4483605905511805
20
-5.094319488188976
11
7.4554083464566929
21
-5.0997274015748033
0
LINE
8
BLACK
6
CONTINUOUS
10
7.4554083464566929
20
-5.0997274015748033
11
7.4616899212598424
21
-5.1060089763779528
0
LINE
8
BLACK
6
CONTINUOUS
10
7.4616899212598424
20
-5.1060089763779528
11
7.4670978346456689
21
-5.1130567322834644
0
LINE
8
BLACK
6
CONTINUOUS
10
7.4670978346456689
20
-5.1130567322834644
11
7.4715395669291338
21
-5.1207500787401576
0
LINE
8
BLACK
6
CONTINUOUS
10
7.4715395669291338
20
-5.1207500787401576
11
7.4749391338582676
21
-5.1289573622047246
0
LINE
8
BLACK
6
CONTINUOUS
10
7.4749391338582676
20
-5.1289573622047246
11
7.4772383858267712
21
-5.1375381496062991
0
LINE
8
BLACK
6
CONTINUOUS
10
7.4772383858267712
20
-5.1375381496062991
11
7.4783979133858267
21
-5.1463456692913381
0
LINE
8
BLACK
6
CONTINUOUS
10
7.4783979133858267
20
-5.1463456692913381
11
7.4783979133858267
21
-5.1552291338582679
0
LINE
8
BLACK
6
CONTINUOUS
10
7.4783979133858267
20
-5.1552291338582679
11
7.4772383858267712
21
-5.1640366535433069
0
LINE
8
BLACK
6
CONTINUOUS
10
7.4772383858267712
20
-5.1640366535433069
11
7.4749391338582676
21
-5.1726174409448822
0
LINE
8
BLACK
6
CONTINUOUS
10
7.4749391338582676
20
-5.1726174409448822
11
7.4715395669291338
21
-5.1808247244094483
0
LINE
8
BLACK
6
CONTINUOUS
10
7.4715395669291338
20
-5.1808247244094483
11
7.4670978346456689
21
-5.1885180708661416
0
LINE
8
BLACK
6
CONTINUOUS
10
7.4670978346456689
20
-5.1885180708661416
11
7.4616899212598424
21
-5.1955658267716531
0
LINE
8
BLACK
6
CONTINUOUS
10
7.4616899212598424
20
-5.1955658267716531
11
7.4554083464566929
21
-5.2018474015748026
0
LINE
8
BLACK
6
CONTINUOUS
10
7.4554083464566929
20
-5.2018474015748026
11
7.4483605905511805
21
-5.20725531496063
0
LINE
8
BLACK
6
CONTINUOUS
10
7.4483605905511805
20
-5.20725531496063
11
7.4406672440944881
21
-5.211697047244094
0
LINE
8
BLACK
6
CONTINUOUS
10
7.4406672440944881
20
-5.211697047244094
11
7.4324599606299211
21
-5.2150966141732278
0
LINE
8
BLACK
6
CONTINUOUS
10
7.4324599606299211
20
-5.2150966141732278
11
7.4238791732283467
21
-5.2173958661417323
0
LINE
8
BLACK
6
CONTINUOUS
10
7.4238791732283467
20
-5.2173958661417323
11
7.4150716535433068
21
-5.2185553937007869
0
LINE
8
BLACK
6
CONTINUOUS
10
7.4150716535433068
20
-5.2185553937007869
11
7.4061881889763779
21
-5.2185553937007869
0
LINE
8
BLACK
6
CONTINUOUS
10
7.4061881889763779
20
-5.2185553937007869
11
7.397380669291338
21
-5.2173958661417323
0
LINE
8
BLACK
6
CONTINUOUS
10
7.397380669291338
20
-5.2173958661417323
11
7.3887998818897636
21
-5.2150966141732278
0
LINE
8
BLACK
6
CONTINUOUS
10
7.3887998818897636
20
-5.2150966141732278
11
7.3805925984251965
21
-5.211697047244094
0
LINE
8
BLACK
6
CONTINUOUS
10
7.3805925984251965
20
-5.211697047244094
11
7.3728992519685042
21
-5.20725531496063
0
LINE
8
BLACK
6
CONTINUOUS
10
7.3728992519685042
20
-5.20725531496063
11
7.3658514960629917
21
-5.2018474015748026
0
LINE
8
BLACK
6
CONTINUOUS
10
7.3658514960629917
20
-5.2018474015748026
11
7.3595699212598422
21
-5.1955658267716531
0
LINE
8
BLACK
6
CONTINUOUS
10
7.3595699212598422
20
-5.1955658267716531
11
7.3541620078740157
21
-5.1885180708661416
0
LINE
8
BLACK
6
CONTINUOUS
10
7.3541620078740157
20
-5.1885180708661416
11
7.3497202755905509
21
-5.1808247244094483
0
LINE
8
BLACK
6
CONTINUOUS
10
7.3497202755905509
20
-5.1808247244094483
11
7.3463207086614171
21
-5.1726174409448822
0
LINE
8
BLACK
6
CONTINUOUS
10
7.3463207086614171
20
-5.1726174409448822
11
7.3440214566929134
21
-5.1640366535433069
0
LINE
8
BLACK
6
CONTINUOUS
10
7.3440214566929134
20
-5.1640366535433069
11
7.3428619291338579
21
-5.1552291338582679
0
LINE
8
BLACK
6
CONTINUOUS
10
7.3428619291338579
20
-5.1552291338582679
11
7.3428619291338579
21
-5.1463456692913381
0
LINE
8
BLACK
6
CONTINUOUS
10
7.3428619291338579
20
-5.1463456692913381
11
7.3428788582677162
21
-5.1462171259842515
0
LINE
8
BLACK
6
CONTINUOUS
10
7.3428788582677162
20
-5.1462171259842515
11
7.3440214566929134
21
-5.1375381496062991
0
LINE
8
BLACK
6
CONTINUOUS
10
7.3440214566929134
20
-5.1375381496062991
11
7.3463207086614171
21
-5.1289573622047246
0
LINE
8
BLACK
6
CONTINUOUS
10
7.3463207086614171
20
-5.1289573622047246
11
7.3497202755905509
21
-5.1207500787401576
0
LINE
8
BLACK
6
CONTINUOUS
10
7.3497202755905509
20
-5.1207500787401576
11
7.3541620078740157
21
-5.1130567322834644
0
LINE
8
BLACK
6
CONTINUOUS
10
7.3541620078740157
20
-5.1130567322834644
11
7.3595699212598422
21
-5.1060089763779528
0
LINE
8
BLACK
6
CONTINUOUS
10
7.3595699212598422
20
-5.1060089763779528
11
7.3658514960629917
21
-5.0997274015748033
0
LINE
8
BLACK
6
CONTINUOUS
10
7.3658514960629917
20
-5.0997274015748033
11
7.3728992519685042
21
-5.094319488188976
0
LINE
8
BLACK
6
CONTINUOUS
10
7.3728992519685042
20
-5.094319488188976
11
7.3805925984251965
21
-5.0898777559055119
0
LINE
8
BLACK
6
CONTINUOUS
10
7.3805925984251965
20
-5.0898777559055119
11
7.3887998818897636
21
-5.0864781889763782
0
LINE
8
BLACK
6
CONTINUOUS
10
7.3887998818897636
20
-5.0864781889763782
11
7.397380669291338
21
-5.0841789370078736
0
LINE
8
BLACK
6
CONTINUOUS
10
7.397380669291338
20
-5.0841789370078736
11
7.4061881889763779
21
-5.083019409448819
0
LINE
8
BLACK
6
CONTINUOUS
10
7.4061881889763779
20
-5.083019409448819
11
7.4150716535433068
21
-5.083019409448819
0
LINE
8
BLACK
6
CONTINUOUS
10
7.4150716535433068
20
-5.083019409448819
11
7.4238791732283467
21
-5.0841789370078736
0
LINE
8
BLACK
6
CONTINUOUS
10
7.3525590551181104
20
-5.1553576771653544
11
7.3539889370078741
21
-5.1643857086614169
0
LINE
8
BLACK
6
CONTINUOUS
10
7.3539889370078741
20
-5.1643857086614169
11
7.3568135433070863
21
-5.1730788582677167
0
LINE
8
BLACK
6
CONTINUOUS
10
7.3568135433070863
20
-5.1730788582677167
11
7.3609632677165351
21
-5.181223149606299
0
LINE
8
BLACK
6
CONTINUOUS
10
7.3609632677165351
20
-5.181223149606299
11
7.3663359448818895
21
-5.1886180314960626
0
LINE
8
BLACK
6
CONTINUOUS
10
7.3663359448818895
20
-5.1886180314960626
11
7.3727992913385823
21
-5.1950813779527554
0
LINE
8
BLACK
6
CONTINUOUS
10
7.3727992913385823
20
-5.1950813779527554
11
7.3801941732283467
21
-5.2004540551181098
0
LINE
8
BLACK
6
CONTINUOUS
10
7.3801941732283467
20
-5.2004540551181098
11
7.388338464566929
21
-5.2046037795275586
0
LINE
8
BLACK
6
CONTINUOUS
10
7.388338464566929
20
-5.2046037795275586
11
7.397031614173228
21
-5.2074283858267716
0
LINE
8
BLACK
6
CONTINUOUS
10
7.397031614173228
20
-5.2074283858267716
11
7.4060596456692913
21
-5.2088582677165354
0
LINE
8
BLACK
6
CONTINUOUS
10
7.4060596456692913
20
-5.2088582677165354
11
7.4152001968503933
21
-5.2088582677165354
0
LINE
8
BLACK
6
CONTINUOUS
10
7.4152001968503933
20
-5.2088582677165354
11
7.4242282283464567
21
-5.2074283858267716
0
LINE
8
BLACK
6
CONTINUOUS
10
7.4242282283464567
20
-5.2074283858267716
11
7.4329213779527556
21
-5.2046037795275586
0
LINE
8
BLACK
6
CONTINUOUS
10
7.4329213779527556
20
-5.2046037795275586
11
7.4410656692913388
21
-5.2004540551181098
0
LINE
8
BLACK
6
CONTINUOUS
10
7.4410656692913388
20
-5.2004540551181098
11
7.4484605511811024
21
-5.1950813779527554
0
LINE
8
BLACK
6
CONTINUOUS
10
7.4484605511811024
20
-5.1950813779527554
11
7.4549238976377952
21
-5.1886180314960626
0
LINE
8
BLACK
6
CONTINUOUS
10
7.4549238976377952
20
-5.1886180314960626
11
7.4602965748031496
21
-5.181223149606299
0
LINE
8
BLACK
6
CONTINUOUS
10
7.4602965748031496
20
-5.181223149606299
11
7.4644462992125984
21
-5.1730788582677167
0
LINE
8
BLACK
6
CONTINUOUS
10
7.4644462992125984
20
-5.1730788582677167
11
7.4672709055118105
21
-5.1643857086614169
0
LINE
8
BLACK
6
CONTINUOUS
10
7.4672709055118105
20
-5.1643857086614169
11
7.4687007874015743
21
-5.1553576771653544
0
LINE
8
BLACK
6
CONTINUOUS
10
7.4687007874015743
20
-5.1553576771653544
11
7.4687007874015743
21
-5.1462171259842515
0
LINE
8
BLACK
6
CONTINUOUS
10
7.4687007874015743
20
-5.1462171259842515
11
7.4672709055118105
21
-5.1371890944881891
0
LINE
8
BLACK
6
CONTINUOUS
10
7.4672709055118105
20
-5.1371890944881891
11
7.4644462992125984
21
-5.1284959448818901
0
LINE
8
BLACK
6
CONTINUOUS
10
7.4644462992125984
20
-5.1284959448818901
11
7.4602965748031496
21
-5.1203516535433069
0
LINE
8
BLACK
6
CONTINUOUS
10
7.4602965748031496
20
-5.1203516535433069
11
7.4549238976377952
21
-5.1129567716535433
0
LINE
8
BLACK
6
CONTINUOUS
10
7.4549238976377952
20
-5.1129567716535433
11
7.4484605511811024
21
-5.1064934251968506
0
LINE
8
BLACK
6
CONTINUOUS
10
7.4484605511811024
20
-5.1064934251968506
11
7.4410656692913388
21
-5.1011207480314962
0
LINE
8
BLACK
6
CONTINUOUS
10
7.4410656692913388
20
-5.1011207480314962
11
7.4329213779527556
21
-5.0969710236220473
0
LINE
8
BLACK
6
CONTINUOUS
10
7.4329213779527556
20
-5.0969710236220473
11
7.4242282283464567
21
-5.0941464173228344
0
LINE
8
BLACK
6
CONTINUOUS
10
7.4242282283464567
20
-5.0941464173228344
11
7.4152001968503933
21
-5.0927165354330706
0
LINE
8
BLACK
6
CONTINUOUS
10
7.4152001968503933
20
-5.0927165354330706
11
7.4060596456692913
21
-5.0927165354330706
0
LINE
8
BLACK
6
CONTINUOUS
10
7.4060596456692913
20
-5.0927165354330706
11
7.397031614173228
21
-5.0941464173228344
0
LINE
8
BLACK
6
CONTINUOUS
10
7.397031614173228
20
-5.0941464173228344
11
7.388338464566929
21
-5.0969710236220473
0
LINE
8
BLACK
6
CONTINUOUS
10
7.388338464566929
20
-5.0969710236220473
11
7.3801941732283467
21
-5.1011207480314962
0
LINE
8
BLACK
6
CONTINUOUS
10
7.3801941732283467
20
-5.1011207480314962
11
7.3727992913385823
21
-5.1064934251968506
0
LINE
8
BLACK
6
CONTINUOUS
10
7.3727992913385823
20
-5.1064934251968506
11
7.3663359448818895
21
-5.1129567716535433
0
LINE
8
BLACK
6
CONTINUOUS
10
7.3663359448818895
20
-5.1129567716535433
11
7.3609632677165351
21
-5.1203516535433069
0
LINE
8
BLACK
6
CONTINUOUS
10
7.3609632677165351
20
-5.1203516535433069
11
7.3568135433070863
21
-5.1284959448818901
0
LINE
8
BLACK
6
CONTINUOUS
10
7.3568135433070863
20
-5.1284959448818901
11
7.3539889370078741
21
-5.1371890944881891
0
LINE
8
BLACK
6
CONTINUOUS
10
7.3539889370078741
20
-5.1371890944881891
11
7.3525590551181104
21
-5.1462171259842515
0
LINE
8
BLACK
6
CONTINUOUS
10
7.3525590551181104
20
-5.1462171259842515
11
7.3525590551181104
21
-5.1553576771653544
0
LINE
8
BLACK
6
CONTINUOUS
10
4.942296535433071
20
-1.3581005511811024
11
4.9509629133858271
21
-1.3609164566929133
0
LINE
8
BLACK
6
CONTINUOUS
10
4.9509629133858271
20
-1.3609164566929133
11
4.9590820866141732
21
-1.3650533858267717
0
LINE
8
BLACK
6
CONTINUOUS
10
4.9590820866141732
20
-1.3650533858267717
11
4.966454173228346
21
-1.3704094881889763
0
LINE
8
BLACK
6
CONTINUOUS
10
4.966454173228346
20
-1.3704094881889763
11
4.9728975984251971
21
-1.3768529133858267
0
LINE
8
BLACK
6
CONTINUOUS
10
4.9728975984251971
20
-1.3768529133858267
11
4.978253700787401
21
-1.384225
0
LINE
8
BLACK
6
CONTINUOUS
10
4.978253700787401
20
-1.384225
11
4.9823906299212597
21
-1.3923441732283464
0
LINE
8
BLACK
6
CONTINUOUS
10
4.9823906299212597
20
-1.3923441732283464
11
4.985206535433071
21
-1.4010105511811024
0
LINE
8
BLACK
6
CONTINUOUS
10
4.985206535433071
20
-1.4010105511811024
11
4.9866320078740154
21
-1.4100107480314961
0
LINE
8
BLACK
6
CONTINUOUS
10
4.9866320078740154
20
-1.4100107480314961
11
4.9866320078740154
21
-1.4191231102362205
0
LINE
8
BLACK
6
CONTINUOUS
10
4.9866320078740154
20
-1.4191231102362205
11
4.985206535433071
21
-1.4281233070866142
0
LINE
8
BLACK
6
CONTINUOUS
10
4.985206535433071
20
-1.4281233070866142
11
4.9823906299212597
21
-1.43678968503937
0
LINE
8
BLACK
6
CONTINUOUS
10
4.9823906299212597
20
-1.43678968503937
11
4.978253700787401
21
-1.4449088582677165
0
LINE
8
BLACK
6
CONTINUOUS
10
4.978253700787401
20
-1.4449088582677165
11
4.9728975984251971
21
-1.4522809448818896
0
LINE
8
BLACK
6
CONTINUOUS
10
4.9728975984251971
20
-1.4522809448818896
11
4.966454173228346
21
-1.4587243700787402
0
LINE
8
BLACK
6
CONTINUOUS
10
4.966454173228346
20
-1.4587243700787402
11
4.9590820866141732
21
-1.4640804724409449
0
LINE
8
BLACK
6
CONTINUOUS
10
4.9590820866141732
20
-1.4640804724409449
11
4.9509629133858271
21
-1.4682174015748031
0
LINE
8
BLACK
6
CONTINUOUS
10
4.9509629133858271
20
-1.4682174015748031
11
4.942296535433071
21
-1.4710333070866142
0
LINE
8
BLACK
6
CONTINUOUS
10
4.942296535433071
20
-1.4710333070866142
11
4.9332963385826769
21
-1.472458779527559
0
LINE
8
BLACK
6
CONTINUOUS
10
4.9332963385826769
20
-1.472458779527559
11
4.9241839763779529
21
-1.472458779527559
0
LINE
8
BLACK
6
CONTINUOUS
10
4.9241839763779529
20
-1.472458779527559
11
4.9151837795275588
21
-1.4710333070866142
0
LINE
8
BLACK
6
CONTINUOUS
10
4.9151837795275588
20
-1.4710333070866142
11
4.9065174015748028
21
-1.4682174015748031
0
LINE
8
BLACK
6
CONTINUOUS
10
4.9065174015748028
20
-1.4682174015748031
11
4.8983982283464567
21
-1.4640804724409449
0
LINE
8
BLACK
6
CONTINUOUS
10
4.8983982283464567
20
-1.4640804724409449
11
4.8910261417322838
21
-1.4587243700787402
0
LINE
8
BLACK
6
CONTINUOUS
10
4.8910261417322838
20
-1.4587243700787402
11
4.8845827165354327
21
-1.4522809448818896
0
LINE
8
BLACK
6
CONTINUOUS
10
4.8845827165354327
20
-1.4522809448818896
11
4.8792266141732279
21
-1.4449088582677165
0
LINE
8
BLACK
6
CONTINUOUS
10
4.8792266141732279
20
-1.4449088582677165
11
4.8750896850393701
21
-1.43678968503937
0
LINE
8
BLACK
6
CONTINUOUS
10
4.8750896850393701
20
-1.43678968503937
11
4.8722737795275588
21
-1.4281233070866142
0
LINE
8
BLACK
6
CONTINUOUS
10
4.8722737795275588
20
-1.4281233070866142
11
4.8708483070866144
21
-1.4191231102362205
0
LINE
8
BLACK
6
CONTINUOUS
10
4.8708483070866144
20
-1.4191231102362205
11
4.8708483070866144
21
-1.4107712598425197
0
LINE
8
BLACK
6
CONTINUOUS
10
4.8708483070866144
20
-1.4107712598425197
11
4.8708483070866144
21
-1.4100107480314961
0
LINE
8
BLACK
6
CONTINUOUS
10
4.8708483070866144
20
-1.4100107480314961
11
4.8722737795275588
21
-1.4010105511811024
0
LINE
8
BLACK
6
CONTINUOUS
10
4.8722737795275588
20
-1.4010105511811024
11
4.8750896850393701
21
-1.3923441732283464
0
LINE
8
BLACK
6
CONTINUOUS
10
4.8750896850393701
20
-1.3923441732283464
11
4.8792266141732279
21
-1.384225
0
LINE
8
BLACK
6
CONTINUOUS
10
4.8792266141732279
20
-1.384225
11
4.8845827165354327
21
-1.3768529133858267
0
LINE
8
BLACK
6
CONTINUOUS
10
4.8845827165354327
20
-1.3768529133858267
11
4.8910261417322838
21
-1.3704094881889763
0
LINE
8
BLACK
6
CONTINUOUS
10
4.8910261417322838
20
-1.3704094881889763
11
4.8983982283464567
21
-1.3650533858267717
0
LINE
8
BLACK
6
CONTINUOUS
10
4.8983982283464567
20
-1.3650533858267717
11
4.9065174015748028
21
-1.3609164566929133
0
LINE
8
BLACK
6
CONTINUOUS
10
4.9065174015748028
20
-1.3609164566929133
11
4.9151837795275588
21
-1.3581005511811024
0
LINE
8
BLACK
6
CONTINUOUS
10
4.9151837795275588
20
-1.3581005511811024
11
4.9241839763779529
21
-1.3566750787401574
0
LINE
8
BLACK
6
CONTINUOUS
10
4.9241839763779529
20
-1.3566750787401574
11
4.9332963385826769
21
-1.3566750787401574
0
LINE
8
BLACK
6
CONTINUOUS
10
4.9332963385826769
20
-1.3566750787401574
11
4.942296535433071
21
-1.3581005511811024
0
LINE
8
BLACK
6
CONTINUOUS
10
4.8805118110236219
20
-1.4183625984251969
11
4.8816993700787403
21
-1.4258604330708662
0
LINE
8
BLACK
6
CONTINUOUS
10
4.8816993700787403
20
-1.4258604330708662
11
4.8840451968503933
21
-1.4330801968503937
0
LINE
8
BLACK
6
CONTINUOUS
10
4.8840451968503933
20
-1.4330801968503937
11
4.8874915748031498
21
-1.439844094488189
0
LINE
8
BLACK
6
CONTINUOUS
10
4.8874915748031498
20
-1.439844094488189
11
4.8919536220472439
21
-1.4459855905511811
0
LINE
8
BLACK
6
CONTINUOUS
10
4.8919536220472439
20
-1.4459855905511811
11
4.8973214960629923
21
-1.451353464566929
0
LINE
8
BLACK
6
CONTINUOUS
10
4.8973214960629923
20
-1.451353464566929
11
4.9034629921259842
21
-1.4558155118110236
0
LINE
8
BLACK
6
CONTINUOUS
10
4.9034629921259842
20
-1.4558155118110236
11
4.9102268897637797
21
-1.4592618897637795
0
LINE
8
BLACK
6
CONTINUOUS
10
4.9102268897637797
20
-1.4592618897637795
11
4.9174466535433066
21
-1.4616077165354331
0
LINE
8
BLACK
6
CONTINUOUS
10
4.9174466535433066
20
-1.4616077165354331
11
4.9249444881889763
21
-1.4627952755905511
0
LINE
8
BLACK
6
CONTINUOUS
10
4.9249444881889763
20
-1.4627952755905511
11
4.9325358267716535
21
-1.4627952755905511
0
LINE
8
BLACK
6
CONTINUOUS
10
4.9325358267716535
20
-1.4627952755905511
11
4.9400336614173224
21
-1.4616077165354331
0
LINE
8
BLACK
6
CONTINUOUS
10
4.9400336614173224
20
-1.4616077165354331
11
4.9472534251968501
21
-1.4592618897637795
0
LINE
8
BLACK
6
CONTINUOUS
10
4.9472534251968501
20
-1.4592618897637795
11
4.9540173228346456
21
-1.4558155118110236
0
LINE
8
BLACK
6
CONTINUOUS
10
4.9540173228346456
20
-1.4558155118110236
11
4.9601588188976375
21
-1.451353464566929
0
LINE
8
BLACK
6
CONTINUOUS
10
4.9601588188976375
20
-1.451353464566929
11
4.9655266929133859
21
-1.4459855905511811
0
LINE
8
BLACK
6
CONTINUOUS
10
4.9655266929133859
20
-1.4459855905511811
11
4.96998874015748
21
-1.439844094488189
0
LINE
8
BLACK
6
CONTINUOUS
10
4.96998874015748
20
-1.439844094488189
11
4.9734351181102365
21
-1.4330801968503937
0
LINE
8
BLACK
6
CONTINUOUS
10
4.9734351181102365
20
-1.4330801968503937
11
4.9757809448818895
21
-1.4258604330708662
0
LINE
8
BLACK
6
CONTINUOUS
10
4.9757809448818895
20
-1.4258604330708662
11
4.976968503937008
21
-1.4183625984251969
0
LINE
8
BLACK
6
CONTINUOUS
10
4.976968503937008
20
-1.4183625984251969
11
4.976968503937008
21
-1.4107712598425197
0
LINE
8
BLACK
6
CONTINUOUS
10
4.976968503937008
20
-1.4107712598425197
11
4.9757809448818895
21
-1.4032734251968504
0
LINE
8
BLACK
6
CONTINUOUS
10
4.9757809448818895
20
-1.4032734251968504
11
4.9734351181102365
21
-1.3960536614173229
0
LINE
8
BLACK
6
CONTINUOUS
10
4.9734351181102365
20
-1.3960536614173229
11
4.96998874015748
21
-1.3892897637795276
0
LINE
8
BLACK
6
CONTINUOUS
10
4.96998874015748
20
-1.3892897637795276
11
4.9655266929133859
21
-1.3831482677165354
0
LINE
8
BLACK
6
CONTINUOUS
10
4.9655266929133859
20
-1.3831482677165354
11
4.9601588188976375
21
-1.3777803937007873
0
LINE
8
BLACK
6
CONTINUOUS
10
4.9601588188976375
20
-1.3777803937007873
11
4.9540173228346456
21
-1.3733183464566929
0
LINE
8
BLACK
6
CONTINUOUS
10
4.9540173228346456
20
-1.3733183464566929
11
4.9472534251968501
21
-1.3698719685039369
0
LINE
8
BLACK
6
CONTINUOUS
10
4.9472534251968501
20
-1.3698719685039369
11
4.9400336614173224
21
-1.3675261417322835
0
LINE
8
BLACK
6
CONTINUOUS
10
4.9400336614173224
20
-1.3675261417322835
11
4.9325358267716535
21
-1.3663385826771652
0
LINE
8
BLACK
6
CONTINUOUS
10
4.9325358267716535
20
-1.3663385826771652
11
4.9249444881889763
21
-1.3663385826771652
0
LINE
8
BLACK
6
CONTINUOUS
10
4.9249444881889763
20
-1.3663385826771652
11
4.9174466535433066
21
-1.3675261417322835
0
LINE
8
BLACK
6
CONTINUOUS
10
4.9174466535433066
20
-1.3675261417322835
11
4.9102268897637797
21
-1.3698719685039369
0
LINE
8
BLACK
6
CONTINUOUS
10
4.9102268897637797
20
-1.3698719685039369
11
4.9034629921259842
21
-1.3733183464566929
0
LINE
8
BLACK
6
CONTINUOUS
10
4.9034629921259842
20
-1.3733183464566929
11
4.8973214960629923
21
-1.3777803937007873
0
LINE
8
BLACK
6
CONTINUOUS
10
4.8973214960629923
20
-1.3777803937007873
11
4.8919536220472439
21
-1.3831482677165354
0
LINE
8
BLACK
6
CONTINUOUS
10
4.8919536220472439
20
-1.3831482677165354
11
4.8874915748031498
21
-1.3892897637795276
0
LINE
8
BLACK
6
CONTINUOUS
10
4.8874915748031498
20
-1.3892897637795276
11
4.8840451968503933
21
-1.3960536614173229
0
LINE
8
BLACK
6
CONTINUOUS
10
4.8840451968503933
20
-1.3960536614173229
11
4.8816993700787403
21
-1.4032734251968504
0
LINE
8
BLACK
6
CONTINUOUS
10
4.8816993700787403
20
-1.4032734251968504
11
4.8805118110236219
21
-1.4107712598425197
0
LINE
8
BLACK
6
CONTINUOUS
10
4.8805118110236219
20
-1.4107712598425197
11
4.8805118110236219
21
-1.4183625984251969
0
LINE
8
BLACK
6
CONTINUOUS
10
6.2100130708661414
20
-1.3581005511811024
11
6.2186794488188974
21
-1.3609164566929133
0
LINE
8
BLACK
6
CONTINUOUS
10
6.2186794488188974
20
-1.3609164566929133
11
6.2267986220472435
21
-1.3650533858267717
0
LINE
8
BLACK
6
CONTINUOUS
10
6.2267986220472435
20
-1.3650533858267717
11
6.2341707086614173
21
-1.3704094881889763
0
LINE
8
BLACK
6
CONTINUOUS
10
6.2341707086614173
20
-1.3704094881889763
11
6.2406141338582675
21
-1.3768529133858267
0
LINE
8
BLACK
6
CONTINUOUS
10
6.2406141338582675
20
-1.3768529133858267
11
6.2459702362204723
21
-1.384225
0
LINE
8
BLACK
6
CONTINUOUS
10
6.2459702362204723
20
-1.384225
11
6.250107165354331
21
-1.3923441732283464
0
LINE
8
BLACK
6
CONTINUOUS
10
6.250107165354331
20
-1.3923441732283464
11
6.2529230708661414
21
-1.4010105511811024
0
LINE
8
BLACK
6
CONTINUOUS
10
6.2529230708661414
20
-1.4010105511811024
11
6.2543485433070867
21
-1.4100107480314961
0
LINE
8
BLACK
6
CONTINUOUS
10
6.2543485433070867
20
-1.4100107480314961
11
6.2543485433070867
21
-1.4191231102362205
0
LINE
8
BLACK
6
CONTINUOUS
10
6.2543485433070867
20
-1.4191231102362205
11
6.2529230708661414
21
-1.4281233070866142
0
LINE
8
BLACK
6
CONTINUOUS
10
6.2529230708661414
20
-1.4281233070866142
11
6.250107165354331
21
-1.43678968503937
0
LINE
8
BLACK
6
CONTINUOUS
10
6.250107165354331
20
-1.43678968503937
11
6.2459702362204723
21
-1.4449088582677165
0
LINE
8
BLACK
6
CONTINUOUS
10
6.2459702362204723
20
-1.4449088582677165
11
6.2406141338582675
21
-1.4522809448818896
0
LINE
8
BLACK
6
CONTINUOUS
10
6.2406141338582675
20
-1.4522809448818896
11
6.2341707086614173
21
-1.4587243700787402
0
LINE
8
BLACK
6
CONTINUOUS
10
6.2341707086614173
20
-1.4587243700787402
11
6.2267986220472435
21
-1.4640804724409449
0
LINE
8
BLACK
6
CONTINUOUS
10
6.2267986220472435
20
-1.4640804724409449
11
6.2186794488188974
21
-1.4682174015748031
0
LINE
8
BLACK
6
CONTINUOUS
10
6.2186794488188974
20
-1.4682174015748031
11
6.2100130708661414
21
-1.4710333070866142
0
LINE
8
BLACK
6
CONTINUOUS
10
6.2100130708661414
20
-1.4710333070866142
11
6.2010128740157482
21
-1.472458779527559
0
LINE
8
BLACK
6
CONTINUOUS
10
6.2010128740157482
20
-1.472458779527559
11
6.1919005118110233
21
-1.472458779527559
0
LINE
8
BLACK
6
CONTINUOUS
10
6.1919005118110233
20
-1.472458779527559
11
6.1829003149606301
21
-1.4710333070866142
0
LINE
8
BLACK
6
CONTINUOUS
10
6.1829003149606301
20
-1.4710333070866142
11
6.174233937007874
21
-1.4682174015748031
0
LINE
8
BLACK
6
CONTINUOUS
10
6.174233937007874
20
-1.4682174015748031
11
6.1661147637795271
21
-1.4640804724409449
0
LINE
8
BLACK
6
CONTINUOUS
10
6.1661147637795271
20
-1.4640804724409449
11
6.1587426771653542
21
-1.4587243700787402
0
LINE
8
BLACK
6
CONTINUOUS
10
6.1587426771653542
20
-1.4587243700787402
11
6.152299251968504
21
-1.4522809448818896
0
LINE
8
BLACK
6
CONTINUOUS
10
6.152299251968504
20
-1.4522809448818896
11
6.1469431496062992
21
-1.4449088582677165
0
LINE
8
BLACK
6
CONTINUOUS
10
6.1469431496062992
20
-1.4449088582677165
11
6.1428062204724405
21
-1.43678968503937
0
LINE
8
BLACK
6
CONTINUOUS
10
6.1428062204724405
20
-1.43678968503937
11
6.1399903149606301
21
-1.4281233070866142
0
LINE
8
BLACK
6
CONTINUOUS
10
6.1399903149606301
20
-1.4281233070866142
11
6.1385648425196848
21
-1.4191231102362205
0
LINE
8
BLACK
6
CONTINUOUS
10
6.1385648425196848
20
-1.4191231102362205
11
6.1385648425196848
21
-1.4107712598425197
0
LINE
8
BLACK
6
CONTINUOUS
10
6.1385648425196848
20
-1.4107712598425197
11
6.1385648425196848
21
-1.4100107480314961
0
LINE
8
BLACK
6
CONTINUOUS
10
6.1385648425196848
20
-1.4100107480314961
11
6.1399903149606301
21
-1.4010105511811024
0
LINE
8
BLACK
6
CONTINUOUS
10
6.1399903149606301
20
-1.4010105511811024
11
6.1428062204724405
21
-1.3923441732283464
0
LINE
8
BLACK
6
CONTINUOUS
10
6.1428062204724405
20
-1.3923441732283464
11
6.1469431496062992
21
-1.384225
0
LINE
8
BLACK
6
CONTINUOUS
10
6.1469431496062992
20
-1.384225
11
6.152299251968504
21
-1.3768529133858267
0
LINE
8
BLACK
6
CONTINUOUS
10
6.152299251968504
20
-1.3768529133858267
11
6.1587426771653542
21
-1.3704094881889763
0
LINE
8
BLACK
6
CONTINUOUS
10
6.1587426771653542
20
-1.3704094881889763
11
6.1661147637795271
21
-1.3650533858267717
0
LINE
8
BLACK
6
CONTINUOUS
10
6.1661147637795271
20
-1.3650533858267717
11
6.174233937007874
21
-1.3609164566929133
0
LINE
8
BLACK
6
CONTINUOUS
10
6.174233937007874
20
-1.3609164566929133
11
6.1829003149606301
21
-1.3581005511811024
0
LINE
8
BLACK
6
CONTINUOUS
10
6.1829003149606301
20
-1.3581005511811024
11
6.1919005118110233
21
-1.3566750787401574
0
LINE
8
BLACK
6
CONTINUOUS
10
6.1919005118110233
20
-1.3566750787401574
11
6.2010128740157482
21
-1.3566750787401574
0
LINE
8
BLACK
6
CONTINUOUS
10
6.2010128740157482
20
-1.3566750787401574
11
6.2100130708661414
21
-1.3581005511811024
0
LINE
8
BLACK
6
CONTINUOUS
10
6.1482283464566931
20
-1.4183625984251969
11
6.1494159055118107
21
-1.4258604330708662
0
LINE
8
BLACK
6
CONTINUOUS
10
6.1494159055118107
20
-1.4258604330708662
11
6.1517617322834646
21
-1.4330801968503937
0
LINE
8
BLACK
6
CONTINUOUS
10
6.1517617322834646
20
-1.4330801968503937
11
6.1552081102362202
21
-1.439844094488189
0
LINE
8
BLACK
6
CONTINUOUS
10
6.1552081102362202
20
-1.439844094488189
11
6.1596701574803152
21
-1.4459855905511811
0
LINE
8
BLACK
6
CONTINUOUS
10
6.1596701574803152
20
-1.4459855905511811
11
6.1650380314960627
21
-1.451353464566929
0
LINE
8
BLACK
6
CONTINUOUS
10
6.1650380314960627
20
-1.451353464566929
11
6.1711795275590546
21
-1.4558155118110236
0
LINE
8
BLACK
6
CONTINUOUS
10
6.1711795275590546
20
-1.4558155118110236
11
6.1779434251968501
21
-1.4592618897637795
0
LINE
8
BLACK
6
CONTINUOUS
10
6.1779434251968501
20
-1.4592618897637795
11
6.1851631889763778
21
-1.4616077165354331
0
LINE
8
BLACK
6
CONTINUOUS
10
6.1851631889763778
20
-1.4616077165354331
11
6.1926610236220467
21
-1.4627952755905511
0
LINE
8
BLACK
6
CONTINUOUS
10
6.1926610236220467
20
-1.4627952755905511
11
6.2002523622047239
21
-1.4627952755905511
0
LINE
8
BLACK
6
CONTINUOUS
10
6.2002523622047239
20
-1.4627952755905511
11
6.2077501968503936
21
-1.4616077165354331
0
LINE
8
BLACK
6
CONTINUOUS
10
6.2077501968503936
20
-1.4616077165354331
11
6.2149699606299214
21
-1.4592618897637795
0
LINE
8
BLACK
6
CONTINUOUS
10
6.2149699606299214
20
-1.4592618897637795
11
6.221733858267716
21
-1.4558155118110236
0
LINE
8
BLACK
6
CONTINUOUS
10
6.221733858267716
20
-1.4558155118110236
11
6.2278753543307088
21
-1.451353464566929
0
LINE
8
BLACK
6
CONTINUOUS
10
6.2278753543307088
20
-1.451353464566929
11
6.2332432283464563
21
-1.4459855905511811
0
LINE
8
BLACK
6
CONTINUOUS
10
6.2332432283464563
20
-1.4459855905511811
11
6.2377052755905513
21
-1.439844094488189
0
LINE
8
BLACK
6
CONTINUOUS
10
6.2377052755905513
20
-1.439844094488189
11
6.2411516535433069
21
-1.4330801968503937
0
LINE
8
BLACK
6
CONTINUOUS
10
6.2411516535433069
20
-1.4330801968503937
11
6.2434974803149608
21
-1.4258604330708662
0
LINE
8
BLACK
6
CONTINUOUS
10
6.2434974803149608
20
-1.4258604330708662
11
6.2446850393700783
21
-1.4183625984251969
0
LINE
8
BLACK
6
CONTINUOUS
10
6.2446850393700783
20
-1.4183625984251969
11
6.2446850393700783
21
-1.4107712598425197
0
LINE
8
BLACK
6
CONTINUOUS
10
6.2446850393700783
20
-1.4107712598425197
11
6.2434974803149608
21
-1.4032734251968504
0
LINE
8
BLACK
6
CONTINUOUS
10
6.2434974803149608
20
-1.4032734251968504
11
6.2411516535433069
21
-1.3960536614173229
0
LINE
8
BLACK
6
CONTINUOUS
10
6.2411516535433069
20
-1.3960536614173229
11
6.2377052755905513
21
-1.3892897637795276
0
LINE
8
BLACK
6
CONTINUOUS
10
6.2377052755905513
20
-1.3892897637795276
11
6.2332432283464563
21
-1.3831482677165354
0
LINE
8
BLACK
6
CONTINUOUS
10
6.2332432283464563
20
-1.3831482677165354
11
6.2278753543307088
21
-1.3777803937007873
0
LINE
8
BLACK
6
CONTINUOUS
10
6.2278753543307088
20
-1.3777803937007873
11
6.221733858267716
21
-1.3733183464566929
0
LINE
8
BLACK
6
CONTINUOUS
10
6.221733858267716
20
-1.3733183464566929
11
6.2149699606299214
21
-1.3698719685039369
0
LINE
8
BLACK
6
CONTINUOUS
10
6.2149699606299214
20
-1.3698719685039369
11
6.2077501968503936
21
-1.3675261417322835
0
LINE
8
BLACK
6
CONTINUOUS
10
6.2077501968503936
20
-1.3675261417322835
11
6.2002523622047239
21
-1.3663385826771652
0
LINE
8
BLACK
6
CONTINUOUS
10
6.2002523622047239
20
-1.3663385826771652
11
6.1926610236220467
21
-1.3663385826771652
0
LINE
8
BLACK
6
CONTINUOUS
10
6.1926610236220467
20
-1.3663385826771652
11
6.1851631889763778
21
-1.3675261417322835
0
LINE
8
BLACK
6
CONTINUOUS
10
6.1851631889763778
20
-1.3675261417322835
11
6.1779434251968501
21
-1.3698719685039369
0
LINE
8
BLACK
6
CONTINUOUS
10
6.1779434251968501
20
-1.3698719685039369
11
6.1711795275590546
21
-1.3733183464566929
0
LINE
8
BLACK
6
CONTINUOUS
10
6.1711795275590546
20
-1.3733183464566929
11
6.1650380314960627
21
-1.3777803937007873
0
LINE
8
BLACK
6
CONTINUOUS
10
6.1650380314960627
20
-1.3777803937007873
11
6.1596701574803152
21
-1.3831482677165354
0
LINE
8
BLACK
6
CONTINUOUS
10
6.1596701574803152
20
-1.3831482677165354
11
6.1552081102362202
21
-1.3892897637795276
0
LINE
8
BLACK
6
CONTINUOUS
10
6.1552081102362202
20
-1.3892897637795276
11
6.1517617322834646
21
-1.3960536614173229
0
LINE
8
BLACK
6
CONTINUOUS
10
6.1517617322834646
20
-1.3960536614173229
11
6.1494159055118107
21
-1.4032734251968504
0
LINE
8
BLACK
6
CONTINUOUS
10
6.1494159055118107
20
-1.4032734251968504
11
6.1482283464566931
21
-1.4107712598425197
0
LINE
8
BLACK
6
CONTINUOUS
10
6.1482283464566931
20
-1.4107712598425197
11
6.1482283464566931
21
-1.4183625984251969
0
LINE
8
BLACK
6
CONTINUOUS
10
5.3194641338582676
20
-0.5115009448818898
11
5.3402175590551177
21
-0.5142331889763779
0
LINE
8
BLACK
6
CONTINUOUS
10
5.3402175590551177
20
-0.5142331889763779
11
5.360747834645669
21
-0.5183169291338583
0
LINE
8
BLACK
6
CONTINUOUS
10
5.360747834645669
20
-0.5183169291338583
11
5.380967047244094
21
-0.5237346456692913
0
LINE
8
BLACK
6
CONTINUOUS
10
5.380967047244094
20
-0.5237346456692913
11
5.4007886614173231
21
-0.5304631496062993
0
LINE
8
BLACK
6
CONTINUOUS
10
5.4007886614173231
20
-0.5304631496062993
11
5.4201277559055114
21
-0.5384736614173228
0
LINE
8
BLACK
6
CONTINUOUS
10
5.4201277559055114
20
-0.5384736614173228
11
5.438901496062992
21
-0.5477318897637795
0
LINE
8
BLACK
6
CONTINUOUS
10
5.438901496062992
20
-0.5477318897637795
11
5.4570295669291333
21
-0.5581981102362205
0
LINE
8
BLACK
6
CONTINUOUS
10
5.4570295669291333
20
-0.5581981102362205
11
5.4744342913385822
21
-0.5698275984251968
0
LINE
8
BLACK
6
CONTINUOUS
10
5.4744342913385822
20
-0.5698275984251968
11
5.4910411417322837
21
-0.5825704724409448
0
LINE
8
BLACK
6
CONTINUOUS
10
5.4910411417322837
20
-0.5825704724409448
11
5.5067790157480312
21
-0.5963722047244094
0
LINE
8
BLACK
6
CONTINUOUS
10
5.5067790157480312
20
-0.5963722047244094
11
5.5215805511811018
21
-0.6111737401574803
0
LINE
8
BLACK
6
CONTINUOUS
10
5.5215805511811018
20
-0.6111737401574803
11
5.5353822834645667
21
-0.6269116141732284
0
LINE
8
BLACK
6
CONTINUOUS
10
5.5353822834645667
20
-0.6269116141732284
11
5.5481251574803148
21
-0.6435184645669291
0
LINE
8
BLACK
6
CONTINUOUS
10
5.5481251574803148
20
-0.6435184645669291
11
5.5597546456692912
21
-0.6609231889763779
0
LINE
8
BLACK
6
CONTINUOUS
10
5.5597546456692912
20
-0.6609231889763779
11
5.5702208661417325
21
-0.6790512598425197
0
LINE
8
BLACK
6
CONTINUOUS
10
5.5702208661417325
20
-0.6790512598425197
11
5.5794790944881889
21
-0.697825
0
LINE
8
BLACK
6
CONTINUOUS
10
5.5794790944881889
20
-0.697825
11
5.5874896062992123
21
-0.717164094488189
0
LINE
8
BLACK
6
CONTINUOUS
10
5.5874896062992123
20
-0.717164094488189
11
5.5942181102362207
21
-0.7369857086614173
0
LINE
8
BLACK
6
CONTINUOUS
10
5.5942181102362207
20
-0.7369857086614173
11
5.5996358267716531
21
-0.7572049212598425
0
LINE
8
BLACK
6
CONTINUOUS
10
5.5996358267716531
20
-0.7572049212598425
11
5.6037195669291338
21
-0.7777351968503937
0
LINE
8
BLACK
6
CONTINUOUS
10
5.6037195669291338
20
-0.7777351968503937
11
5.6064518110236223
21
-0.798488622047244
0
LINE
8
BLACK
6
CONTINUOUS
10
5.6064518110236223
20
-0.798488622047244
11
5.6078208661417319
21
-0.8193762598425197
0
LINE
8
BLACK
6
CONTINUOUS
10
5.6078208661417319
20
-0.8193762598425197
11
5.6078208661417319
21
-0.840308779527559
0
LINE
8
BLACK
6
CONTINUOUS
10
5.6078208661417319
20
-0.840308779527559
11
5.6064518110236223
21
-0.8611964173228346
0
LINE
8
BLACK
6
CONTINUOUS
10
5.6064518110236223
20
-0.8611964173228346
11
5.6037195669291338
21
-0.881949842519685
0
LINE
8
BLACK
6
CONTINUOUS
10
5.6037195669291338
20
-0.881949842519685
11
5.5996358267716531
21
-0.9024801181102362
0
LINE
8
BLACK
6
CONTINUOUS
10
5.5996358267716531
20
-0.9024801181102362
11
5.5942181102362207
21
-0.9226993307086614
0
LINE
8
BLACK
6
CONTINUOUS
10
5.5942181102362207
20
-0.9226993307086614
11
5.5874896062992123
21
-0.9425209448818898
0
LINE
8
BLACK
6
CONTINUOUS
10
5.5874896062992123
20
-0.9425209448818898
11
5.5794790944881889
21
-0.9618600393700787
0
LINE
8
BLACK
6
CONTINUOUS
10
5.5794790944881889
20
-0.9618600393700787
11
5.5702208661417325
21
-0.980633779527559
0
LINE
8
BLACK
6
CONTINUOUS
10
5.5702208661417325
20
-0.980633779527559
11
5.5597546456692912
21
-0.9987618503937008
0
LINE
8
BLACK
6
CONTINUOUS
10
5.5597546456692912
20
-0.9987618503937008
11
5.5481251574803148
21
-1.0161665748031496
0
LINE
8
BLACK
6
CONTINUOUS
10
5.5481251574803148
20
-1.0161665748031496
11
5.5353822834645667
21
-1.0327734251968503
0
LINE
8
BLACK
6
CONTINUOUS
10
5.5353822834645667
20
-1.0327734251968503
11
5.5215805511811018
21
-1.0485112992125984
0
LINE
8
BLACK
6
CONTINUOUS
10
5.5215805511811018
20
-1.0485112992125984
11
5.5067790157480312
21
-1.0633128346456693
0
LINE
8
BLACK
6
CONTINUOUS
10
5.5067790157480312
20
-1.0633128346456693
11
5.4910411417322837
21
-1.0771145669291338
0
LINE
8
BLACK
6
CONTINUOUS
10
5.4910411417322837
20
-1.0771145669291338
11
5.4744342913385822
21
-1.0898574409448818
0
LINE
8
BLACK
6
CONTINUOUS
10
5.4744342913385822
20
-1.0898574409448818
11
5.4570295669291333
21
-1.1014869291338583
0
LINE
8
BLACK
6
CONTINUOUS
10
5.4570295669291333
20
-1.1014869291338583
11
5.438901496062992
21
-1.1119531496062991
0
LINE
8
BLACK
6
CONTINUOUS
10
5.438901496062992
20
-1.1119531496062991
11
5.4201277559055114
21
-1.1212113779527559
0
LINE
8
BLACK
6
CONTINUOUS
10
5.4201277559055114
20
-1.1212113779527559
11
5.4007886614173231
21
-1.1292218897637796
0
LINE
8
BLACK
6
CONTINUOUS
10
5.4007886614173231
20
-1.1292218897637796
11
5.380967047244094
21
-1.1359503937007873
0
LINE
8
BLACK
6
CONTINUOUS
10
5.380967047244094
20
-1.1359503937007873
11
5.360747834645669
21
-1.1413681102362205
0
LINE
8
BLACK
6
CONTINUOUS
10
5.360747834645669
20
-1.1413681102362205
11
5.3402175590551177
21
-1.1454518503937008
0
LINE
8
BLACK
6
CONTINUOUS
10
5.3402175590551177
20
-1.1454518503937008
11
5.3194641338582676
21
-1.1481840944881889
0
LINE
8
BLACK
6
CONTINUOUS
10
5.3194641338582676
20
-1.1481840944881889
11
5.2985764960629922
21
-1.1495531496062992
0
LINE
8
BLACK
6
CONTINUOUS
10
5.2985764960629922
20
-1.1495531496062992
11
5.277643976377953
21
-1.1495531496062992
0
LINE
8
BLACK
6
CONTINUOUS
10
5.277643976377953
20
-1.1495531496062992
11
5.2567563385826768
21
-1.1481840944881889
0
LINE
8
BLACK
6
CONTINUOUS
10
5.2567563385826768
20
-1.1481840944881889
11
5.2360029133858266
21
-1.1454518503937008
0
LINE
8
BLACK
6
CONTINUOUS
10
5.2360029133858266
20
-1.1454518503937008
11
5.2154726377952754
21
-1.1413681102362205
0
LINE
8
BLACK
6
CONTINUOUS
10
5.2154726377952754
20
-1.1413681102362205
11
5.1952534251968503
21
-1.1359503937007873
0
LINE
8
BLACK
6
CONTINUOUS
10
5.1952534251968503
20
-1.1359503937007873
11
5.1754318110236222
21
-1.1292218897637796
0
LINE
8
BLACK
6
CONTINUOUS
10
5.1754318110236222
20
-1.1292218897637796
11
5.1560927165354329
21
-1.1212113779527559
0
LINE
8
BLACK
6
CONTINUOUS
10
5.1560927165354329
20
-1.1212113779527559
11
5.1373189763779523
21
-1.1119531496062991
0
LINE
8
BLACK
6
CONTINUOUS
10
5.1373189763779523
20
-1.1119531496062991
11
5.119190905511811
21
-1.1014869291338583
0
LINE
8
BLACK
6
CONTINUOUS
10
5.119190905511811
20
-1.1014869291338583
11
5.1017861811023621
21
-1.0898574409448818
0
LINE
8
BLACK
6
CONTINUOUS
10
5.1017861811023621
20
-1.0898574409448818
11
5.0851793307086615
21
-1.0771145669291338
0
LINE
8
BLACK
6
CONTINUOUS
10
5.0851793307086615
20
-1.0771145669291338
11
5.0694414566929131
21
-1.0633128346456693
0
LINE
8
BLACK
6
CONTINUOUS
10
5.0694414566929131
20
-1.0633128346456693
11
5.0546399212598425
21
-1.0485112992125984
0
LINE
8
BLACK
6
CONTINUOUS
10
5.0546399212598425
20
-1.0485112992125984
11
5.0408381889763776
21
-1.0327734251968503
0
LINE
8
BLACK
6
CONTINUOUS
10
5.0408381889763776
20
-1.0327734251968503
11
5.0280953149606296
21
-1.0161665748031496
0
LINE
8
BLACK
6
CONTINUOUS
10
5.0280953149606296
20
-1.0161665748031496
11
5.0164658267716531
21
-0.9987618503937008
0
LINE
8
BLACK
6
CONTINUOUS
10
5.0164658267716531
20
-0.9987618503937008
11
5.0059996062992127
21
-0.980633779527559
0
LINE
8
BLACK
6
CONTINUOUS
10
5.0059996062992127
20
-0.980633779527559
11
4.9967413779527554
21
-0.9618600393700787
0
LINE
8
BLACK
6
CONTINUOUS
10
4.9967413779527554
20
-0.9618600393700787
11
4.988730866141732
21
-0.9425209448818898
0
LINE
8
BLACK
6
CONTINUOUS
10
4.988730866141732
20
-0.9425209448818898
11
4.9820023622047245
21
-0.9226993307086614
0
LINE
8
BLACK
6
CONTINUOUS
10
4.9820023622047245
20
-0.9226993307086614
11
4.9765846456692913
21
-0.9024801181102362
0
LINE
8
BLACK
6
CONTINUOUS
10
4.9765846456692913
20
-0.9024801181102362
11
4.9725009055118106
21
-0.881949842519685
0
LINE
8
BLACK
6
CONTINUOUS
10
4.9725009055118106
20
-0.881949842519685
11
4.9697686614173229
21
-0.8611964173228346
0
LINE
8
BLACK
6
CONTINUOUS
10
4.9697686614173229
20
-0.8611964173228346
11
4.9683996062992124
21
-0.840308779527559
0
LINE
8
BLACK
6
CONTINUOUS
10
4.9683996062992124
20
-0.840308779527559
11
4.9683996062992124
21
-0.8193762598425197
0
LINE
8
BLACK
6
CONTINUOUS
10
4.9683996062992124
20
-0.8193762598425197
11
4.9684393700787401
21
-0.8187694488188976
0
LINE
8
BLACK
6
CONTINUOUS
10
4.9684393700787401
20
-0.8187694488188976
11
4.9697686614173229
21
-0.798488622047244
0
LINE
8
BLACK
6
CONTINUOUS
10
4.9697686614173229
20
-0.798488622047244
11
4.9725009055118106
21
-0.7777351968503937
0
LINE
8
BLACK
6
CONTINUOUS
10
4.9725009055118106
20
-0.7777351968503937
11
4.9765846456692913
21
-0.7572049212598425
0
LINE
8
BLACK
6
CONTINUOUS
10
4.9765846456692913
20
-0.7572049212598425
11
4.9820023622047245
21
-0.7369857086614173
0
LINE
8
BLACK
6
CONTINUOUS
10
4.9820023622047245
20
-0.7369857086614173
11
4.988730866141732
21
-0.717164094488189
0
LINE
8
BLACK
6
CONTINUOUS
10
4.988730866141732
20
-0.717164094488189
11
4.9967413779527554
21
-0.697825
0
LINE
8
BLACK
6
CONTINUOUS
10
4.9967413779527554
20
-0.697825
11
5.0059996062992127
21
-0.6790512598425197
0
LINE
8
BLACK
6
CONTINUOUS
10
5.0059996062992127
20
-0.6790512598425197
11
5.0164658267716531
21
-0.6609231889763779
0
LINE
8
BLACK
6
CONTINUOUS
10
5.0164658267716531
20
-0.6609231889763779
11
5.0280953149606296
21
-0.6435184645669291
0
LINE
8
BLACK
6
CONTINUOUS
10
5.0280953149606296
20
-0.6435184645669291
11
5.0408381889763776
21
-0.6269116141732284
0
LINE
8
BLACK
6
CONTINUOUS
10
5.0408381889763776
20
-0.6269116141732284
11
5.0546399212598425
21
-0.6111737401574803
0
LINE
8
BLACK
6
CONTINUOUS
10
5.0546399212598425
20
-0.6111737401574803
11
5.0694414566929131
21
-0.5963722047244094
0
LINE
8
BLACK
6
CONTINUOUS
10
5.0694414566929131
20
-0.5963722047244094
11
5.0851793307086615
21
-0.5825704724409448
0
LINE
8
BLACK
6
CONTINUOUS
10
5.0851793307086615
20
-0.5825704724409448
11
5.1017861811023621
21
-0.5698275984251968
0
LINE
8
BLACK
6
CONTINUOUS
10
5.1017861811023621
20
-0.5698275984251968
11
5.119190905511811
21
-0.5581981102362205
0
LINE
8
BLACK
6
CONTINUOUS
10
5.119190905511811
20
-0.5581981102362205
11
5.1373189763779523
21
-0.5477318897637795
0
LINE
8
BLACK
6
CONTINUOUS
10
5.1373189763779523
20
-0.5477318897637795
11
5.1560927165354329
21
-0.5384736614173228
0
LINE
8
BLACK
6
CONTINUOUS
10
5.1560927165354329
20
-0.5384736614173228
11
5.1754318110236222
21
-0.5304631496062993
0
LINE
8
BLACK
6
CONTINUOUS
10
5.1754318110236222
20
-0.5304631496062993
11
5.1952534251968503
21
-0.5237346456692913
0
LINE
8
BLACK
6
CONTINUOUS
10
5.1952534251968503
20
-0.5237346456692913
11
5.2154726377952754
21
-0.5183169291338583
0
LINE
8
BLACK
6
CONTINUOUS
10
5.2154726377952754
20
-0.5183169291338583
11
5.2360029133858266
21
-0.5142331889763779
0
LINE
8
BLACK
6
CONTINUOUS
10
5.2360029133858266
20
-0.5142331889763779
11
5.2567563385826768
21
-0.5115009448818898
0
LINE
8
BLACK
6
CONTINUOUS
10
5.2567563385826768
20
-0.5115009448818898
11
5.277643976377953
21
-0.5101318897637795
0
LINE
8
BLACK
6
CONTINUOUS
10
5.277643976377953
20
-0.5101318897637795
11
5.2985764960629922
21
-0.5101318897637795
0
LINE
8
BLACK
6
CONTINUOUS
10
5.2985764960629922
20
-0.5101318897637795
11
5.3194641338582676
21
-0.5115009448818898
0
LINE
8
BLACK
6
CONTINUOUS
10
4.9780708661417323
20
-0.840915590551181
11
4.9796507480314958
21
-0.8630053543307087
0
LINE
8
BLACK
6
CONTINUOUS
10
4.9796507480314958
20
-0.8630053543307087
11
4.9828024803149606
21
-0.8849261023622047
0
LINE
8
BLACK
6
CONTINUOUS
10
4.9828024803149606
20
-0.8849261023622047
11
4.9875099999999994
21
-0.9065661417322834
0
LINE
8
BLACK
6
CONTINUOUS
10
4.9875099999999994
20
-0.9065661417322834
11
4.9937492913385828
21
-0.9278152362204725
0
LINE
8
BLACK
6
CONTINUOUS
10
4.9937492913385828
20
-0.9278152362204725
11
5.0014885826771653
21
-0.9485650787401575
0
LINE
8
BLACK
6
CONTINUOUS
10
5.0014885826771653
20
-0.9485650787401575
11
5.0106884251968502
21
-0.9687099606299212
0
LINE
8
BLACK
6
CONTINUOUS
10
5.0106884251968502
20
-0.9687099606299212
11
5.0213019685039368
21
-0.9881472047244094
0
LINE
8
BLACK
6
CONTINUOUS
10
5.0213019685039368
20
-0.9881472047244094
11
5.0332750787401572
21
-1.006777716535433
0
LINE
8
BLACK
6
CONTINUOUS
10
5.0332750787401572
20
-1.006777716535433
11
5.046546771653543
21
-1.0245066535433072
0
LINE
8
BLACK
6
CONTINUOUS
10
5.046546771653543
20
-1.0245066535433072
11
5.0610494488188973
21
-1.0412436220472441
0
LINE
8
BLACK
6
CONTINUOUS
10
5.0610494488188973
20
-1.0412436220472441
11
5.0767091338582677
21
-1.0569033070866141
0
LINE
8
BLACK
6
CONTINUOUS
10
5.0767091338582677
20
-1.0569033070866141
11
5.0934461023622042
21
-1.0714059842519685
0
LINE
8
BLACK
6
CONTINUOUS
10
5.0934461023622042
20
-1.0714059842519685
11
5.111175039370079
21
-1.0846776771653543
0
LINE
8
BLACK
6
CONTINUOUS
10
5.111175039370079
20
-1.0846776771653543
11
5.1298055511811018
21
-1.0966507874015747
0
LINE
8
BLACK
6
CONTINUOUS
10
5.1298055511811018
20
-1.0966507874015747
11
5.1492427952755904
21
-1.1072643307086614
0
LINE
8
BLACK
6
CONTINUOUS
10
5.1492427952755904
20
-1.1072643307086614
11
5.1693876771653544
21
-1.1164641732283465
0
LINE
8
BLACK
6
CONTINUOUS
10
5.1693876771653544
20
-1.1164641732283465
11
5.190137519685039
21
-1.1242034645669292
0
LINE
8
BLACK
6
CONTINUOUS
10
5.190137519685039
20
-1.1242034645669292
11
5.2113866141732279
21
-1.1304427559055117
0
LINE
8
BLACK
6
CONTINUOUS
10
5.2113866141732279
20
-1.1304427559055117
11
5.2330266535433072
21
-1.1351502755905511
0
LINE
8
BLACK
6
CONTINUOUS
10
5.2330266535433072
20
-1.1351502755905511
11
5.2549474015748032
21
-1.1383020078740158
0
LINE
8
BLACK
6
CONTINUOUS
10
5.2549474015748032
20
-1.1383020078740158
11
5.2770371653543302
21
-1.1398818897637795
0
LINE
8
BLACK
6
CONTINUOUS
10
5.2770371653543302
20
-1.1398818897637795
11
5.2991833070866141
21
-1.1398818897637795
0
LINE
8
BLACK
6
CONTINUOUS
10
5.2991833070866141
20
-1.1398818897637795
11
5.321273070866142
21
-1.1383020078740158
0
LINE
8
BLACK
6
CONTINUOUS
10
5.321273070866142
20
-1.1383020078740158
11
5.343193818897638
21
-1.1351502755905511
0
LINE
8
BLACK
6
CONTINUOUS
10
5.343193818897638
20
-1.1351502755905511
11
5.3648338582677164
21
-1.1304427559055117
0
LINE
8
BLACK
6
CONTINUOUS
10
5.3648338582677164
20
-1.1304427559055117
11
5.3860829527559053
21
-1.1242034645669292
0
LINE
8
BLACK
6
CONTINUOUS
10
5.3860829527559053
20
-1.1242034645669292
11
5.4068327952755908
21
-1.1164641732283465
0
LINE
8
BLACK
6
CONTINUOUS
10
5.4068327952755908
20
-1.1164641732283465
11
5.426977677165354
21
-1.1072643307086614
0
LINE
8
BLACK
6
CONTINUOUS
10
5.426977677165354
20
-1.1072643307086614
11
5.4464149212598425
21
-1.0966507874015747
0
LINE
8
BLACK
6
CONTINUOUS
10
5.4464149212598425
20
-1.0966507874015747
11
5.4650454330708662
21
-1.0846776771653543
0
LINE
8
BLACK
6
CONTINUOUS
10
5.4650454330708662
20
-1.0846776771653543
11
5.4827743700787401
21
-1.0714059842519685
0
LINE
8
BLACK
6
CONTINUOUS
10
5.4827743700787401
20
-1.0714059842519685
11
5.4995113385826766
21
-1.0569033070866141
0
LINE
8
BLACK
6
CONTINUOUS
10
5.4995113385826766
20
-1.0569033070866141
11
5.515171023622047
21
-1.0412436220472441
0
LINE
8
BLACK
6
CONTINUOUS
10
5.515171023622047
20
-1.0412436220472441
11
5.5296737007874013
21
-1.0245066535433072
0
LINE
8
BLACK
6
CONTINUOUS
10
5.5296737007874013
20
-1.0245066535433072
11
5.5429453937007871
21
-1.006777716535433
0
LINE
8
BLACK
6
CONTINUOUS
10
5.5429453937007871
20
-1.006777716535433
11
5.5549185039370075
21
-0.9881472047244094
0
LINE
8
BLACK
6
CONTINUOUS
10
5.5549185039370075
20
-0.9881472047244094
11
5.5655320472440941
21
-0.9687099606299212
0
LINE
8
BLACK
6
CONTINUOUS
10
5.5655320472440941
20
-0.9687099606299212
11
5.574731889763779
21
-0.9485650787401575
0
LINE
8
BLACK
6
CONTINUOUS
10
5.574731889763779
20
-0.9485650787401575
11
5.5824711811023624
21
-0.9278152362204725
0
LINE
8
BLACK
6
CONTINUOUS
10
5.5824711811023624
20
-0.9278152362204725
11
5.5887104724409449
21
-0.9065661417322834
0
LINE
8
BLACK
6
CONTINUOUS
10
5.5887104724409449
20
-0.9065661417322834
11
5.5934179921259846
21
-0.8849261023622047
0
LINE
8
BLACK
6
CONTINUOUS
10
5.5934179921259846
20
-0.8849261023622047
11
5.5965697244094486
21
-0.8630053543307087
0
LINE
8
BLACK
6
CONTINUOUS
10
5.5965697244094486
20
-0.8630053543307087
11
5.5981496062992129
21
-0.840915590551181
0
LINE
8
BLACK
6
CONTINUOUS
10
5.5981496062992129
20
-0.840915590551181
11
5.5981496062992129
21
-0.8187694488188976
0
LINE
8
BLACK
6
CONTINUOUS
10
5.5981496062992129
20
-0.8187694488188976
11
5.5965697244094486
21
-0.79667968503937
0
LINE
8
BLACK
6
CONTINUOUS
10
5.5965697244094486
20
-0.79667968503937
11
5.5934179921259846
21
-0.774758937007874
0
LINE
8
BLACK
6
CONTINUOUS
10
5.5934179921259846
20
-0.774758937007874
11
5.5887104724409449
21
-0.7531188976377953
0
LINE
8
BLACK
6
CONTINUOUS
10
5.5887104724409449
20
-0.7531188976377953
11
5.5824711811023624
21
-0.7318698031496063
0
LINE
8
BLACK
6
CONTINUOUS
10
5.5824711811023624
20
-0.7318698031496063
11
5.574731889763779
21
-0.7111199606299212
0
LINE
8
BLACK
6
CONTINUOUS
10
5.574731889763779
20
-0.7111199606299212
11
5.5655320472440941
21
-0.6909750787401575
0
LINE
8
BLACK
6
CONTINUOUS
10
5.5655320472440941
20
-0.6909750787401575
11
5.5549185039370075
21
-0.6715378346456693
0
LINE
8
BLACK
6
CONTINUOUS
10
5.5549185039370075
20
-0.6715378346456693
11
5.5429453937007871
21
-0.6529073228346457
0
LINE
8
BLACK
6
CONTINUOUS
10
5.5429453937007871
20
-0.6529073228346457
11
5.5296737007874013
21
-0.6351783858267717
0
LINE
8
BLACK
6
CONTINUOUS
10
5.5296737007874013
20
-0.6351783858267717
11
5.515171023622047
21
-0.6184414173228346
0
LINE
8
BLACK
6
CONTINUOUS
10
5.515171023622047
20
-0.6184414173228346
11
5.4995113385826766
21
-0.6027817322834645
0
LINE
8
BLACK
6
CONTINUOUS
10
5.4995113385826766
20
-0.6027817322834645
11
5.4827743700787401
21
-0.5882790551181102
0
LINE
8
BLACK
6
CONTINUOUS
10
5.4827743700787401
20
-0.5882790551181102
11
5.4650454330708662
21
-0.5750073622047244
0
LINE
8
BLACK
6
CONTINUOUS
10
5.4650454330708662
20
-0.5750073622047244
11
5.4464149212598425
21
-0.5630342519685039
0
LINE
8
BLACK
6
CONTINUOUS
10
5.4464149212598425
20
-0.5630342519685039
11
5.426977677165354
21
-0.5524207086614173
0
LINE
8
BLACK
6
CONTINUOUS
10
5.426977677165354
20
-0.5524207086614173
11
5.4068327952755908
21
-0.5432208661417323
0
LINE
8
BLACK
6
CONTINUOUS
10
5.4068327952755908
20
-0.5432208661417323
11
5.3860829527559053
21
-0.5354815748031496
0
LINE
8
BLACK
6
CONTINUOUS
10
5.3860829527559053
20
-0.5354815748031496
11
5.3648338582677164
21
-0.5292422834645669
0
LINE
8
BLACK
6
CONTINUOUS
10
5.3648338582677164
20
-0.5292422834645669
11
5.343193818897638
21
-0.5245347637795276
0
LINE
8
BLACK
6
CONTINUOUS
10
5.343193818897638
20
-0.5245347637795276
11
5.321273070866142
21
-0.521383031496063
0
LINE
8
BLACK
6
CONTINUOUS
10
5.321273070866142
20
-0.521383031496063
11
5.2991833070866141
21
-0.5198031496062993
0
LINE
8
BLACK
6
CONTINUOUS
10
5.2991833070866141
20
-0.5198031496062993
11
5.2770371653543302
21
-0.5198031496062993
0
LINE
8
BLACK
6
CONTINUOUS
10
5.2770371653543302
20
-0.5198031496062993
11
5.2549474015748032
21
-0.521383031496063
0
LINE
8
BLACK
6
CONTINUOUS
10
5.2549474015748032
20
-0.521383031496063
11
5.2330266535433072
21
-0.5245347637795276
0
LINE
8
BLACK
6
CONTINUOUS
10
5.2330266535433072
20
-0.5245347637795276
11
5.2113866141732279
21
-0.5292422834645669
0
LINE
8
BLACK
6
CONTINUOUS
10
5.2113866141732279
20
-0.5292422834645669
11
5.190137519685039
21
-0.5354815748031496
0
LINE
8
BLACK
6
CONTINUOUS
10
5.190137519685039
20
-0.5354815748031496
11
5.1693876771653544
21
-0.5432208661417323
0
LINE
8
BLACK
6
CONTINUOUS
10
5.1693876771653544
20
-0.5432208661417323
11
5.1492427952755904
21
-0.5524207086614173
0
LINE
8
BLACK
6
CONTINUOUS
10
5.1492427952755904
20
-0.5524207086614173
11
5.1298055511811018
21
-0.5630342519685039
0
LINE
8
BLACK
6
CONTINUOUS
10
5.1298055511811018
20
-0.5630342519685039
11
5.111175039370079
21
-0.5750073622047244
0
LINE
8
BLACK
6
CONTINUOUS
10
5.111175039370079
20
-0.5750073622047244
11
5.0934461023622042
21
-0.5882790551181102
0
LINE
8
BLACK
6
CONTINUOUS
10
5.0934461023622042
20
-0.5882790551181102
11
5.0767091338582677
21
-0.6027817322834645
0
LINE
8
BLACK
6
CONTINUOUS
10
5.0767091338582677
20
-0.6027817322834645
11
5.0610494488188973
21
-0.6184414173228346
0
LINE
8
BLACK
6
CONTINUOUS
10
5.0610494488188973
20
-0.6184414173228346
11
5.046546771653543
21
-0.6351783858267717
0
LINE
8
BLACK
6
CONTINUOUS
10
5.046546771653543
20
-0.6351783858267717
11
5.0332750787401572
21
-0.6529073228346457
0
LINE
8
BLACK
6
CONTINUOUS
10
5.0332750787401572
20
-0.6529073228346457
11
5.0213019685039368
21
-0.6715378346456693
0
LINE
8
BLACK
6
CONTINUOUS
10
5.0213019685039368
20
-0.6715378346456693
11
5.0106884251968502
21
-0.6909750787401575
0
LINE
8
BLACK
6
CONTINUOUS
10
5.0106884251968502
20
-0.6909750787401575
11
5.0014885826771653
21
-0.7111199606299212
0
LINE
8
BLACK
6
CONTINUOUS
10
5.0014885826771653
20
-0.7111199606299212
11
4.9937492913385828
21
-0.7318698031496063
0
LINE
8
BLACK
6
CONTINUOUS
10
4.9937492913385828
20
-0.7318698031496063
11
4.9875099999999994
21
-0.7531188976377953
0
LINE
8
BLACK
6
CONTINUOUS
10
4.9875099999999994
20
-0.7531188976377953
11
4.9828024803149606
21
-0.774758937007874
0
LINE
8
BLACK
6
CONTINUOUS
10
4.9828024803149606
20
-0.774758937007874
11
4.9796507480314958
21
-0.79667968503937
0
LINE
8
BLACK
6
CONTINUOUS
10
4.9796507480314958
20
-0.79667968503937
11
4.9780708661417323
21
-0.8187694488188976
0
LINE
8
BLACK
6
CONTINUOUS
10
4.9780708661417323
20
-0.8187694488188976
11
4.9780708661417323
21
-0.840915590551181
0
LINE
8
BLACK
6
CONTINUOUS
10
4.429501929133858
20
-0.5413346062992126
11
4.4390496456692912
21
-0.5444368503937008
0
LINE
8
BLACK
6
CONTINUOUS
10
4.4390496456692912
20
-0.5444368503937008
11
4.4479944881889759
21
-0.5489944881889763
0
LINE
8
BLACK
6
CONTINUOUS
10
4.4479944881889759
20
-0.5489944881889763
11
4.4561162598425197
21
-0.5548952755905512
0
LINE
8
BLACK
6
CONTINUOUS
10
4.4561162598425197
20
-0.5548952755905512
11
4.4632149606299212
21
-0.5619939763779528
0
LINE
8
BLACK
6
CONTINUOUS
10
4.4632149606299212
20
-0.5619939763779528
11
4.4691157480314958
21
-0.570115748031496
0
LINE
8
BLACK
6
CONTINUOUS
10
4.4691157480314958
20
-0.570115748031496
11
4.4736733858267712
21
-0.5790605905511811
0
LINE
8
BLACK
6
CONTINUOUS
10
4.4736733858267712
20
-0.5790605905511811
11
4.47677562992126
21
-0.5886083070866142
0
LINE
8
BLACK
6
CONTINUOUS
10
4.47677562992126
20
-0.5886083070866142
11
4.4783461023622042
21
-0.5985237795275591
0
LINE
8
BLACK
6
CONTINUOUS
10
4.4783461023622042
20
-0.5985237795275591
11
4.4783461023622042
21
-0.6085628346456693
0
LINE
8
BLACK
6
CONTINUOUS
10
4.4783461023622042
20
-0.6085628346456693
11
4.47677562992126
21
-0.6184783070866141
0
LINE
8
BLACK
6
CONTINUOUS
10
4.47677562992126
20
-0.6184783070866141
11
4.4736733858267712
21
-0.6280260236220472
0
LINE
8
BLACK
6
CONTINUOUS
10
4.4736733858267712
20
-0.6280260236220472
11
4.4691157480314958
21
-0.6369708661417323
0
LINE
8
BLACK
6
CONTINUOUS
10
4.4691157480314958
20
-0.6369708661417323
11
4.4632149606299212
21
-0.6450926377952756
0
LINE
8
BLACK
6
CONTINUOUS
10
4.4632149606299212
20
-0.6450926377952756
11
4.4561162598425197
21
-0.6521913385826772
0
LINE
8
BLACK
6
CONTINUOUS
10
4.4561162598425197
20
-0.6521913385826772
11
4.4479944881889759
21
-0.6580921259842519
0
LINE
8
BLACK
6
CONTINUOUS
10
4.4479944881889759
20
-0.6580921259842519
11
4.4390496456692912
21
-0.6626497637795276
0
LINE
8
BLACK
6
CONTINUOUS
10
4.4390496456692912
20
-0.6626497637795276
11
4.429501929133858
21
-0.6657520078740158
0
LINE
8
BLACK
6
CONTINUOUS
10
4.429501929133858
20
-0.6657520078740158
11
4.4195864566929135
21
-0.6673224803149607
0
LINE
8
BLACK
6
CONTINUOUS
10
4.4195864566929135
20
-0.6673224803149607
11
4.4095474015748026
21
-0.6673224803149607
0
LINE
8
BLACK
6
CONTINUOUS
10
4.4095474015748026
20
-0.6673224803149607
11
4.3996319291338581
21
-0.6657520078740158
0
LINE
8
BLACK
6
CONTINUOUS
10
4.3996319291338581
20
-0.6657520078740158
11
4.390084212598425
21
-0.6626497637795276
0
LINE
8
BLACK
6
CONTINUOUS
10
4.390084212598425
20
-0.6626497637795276
11
4.3811393700787402
21
-0.6580921259842519
0
LINE
8
BLACK
6
CONTINUOUS
10
4.3811393700787402
20
-0.6580921259842519
11
4.3730175984251964
21
-0.6521913385826772
0
LINE
8
BLACK
6
CONTINUOUS
10
4.3730175984251964
20
-0.6521913385826772
11
4.3659188976377949
21
-0.6450926377952756
0
LINE
8
BLACK
6
CONTINUOUS
10
4.3659188976377949
20
-0.6450926377952756
11
4.3600181102362203
21
-0.6369708661417323
0
LINE
8
BLACK
6
CONTINUOUS
10
4.3600181102362203
20
-0.6369708661417323
11
4.3554604724409449
21
-0.6280260236220472
0
LINE
8
BLACK
6
CONTINUOUS
10
4.3554604724409449
20
-0.6280260236220472
11
4.352358228346457
21
-0.6184783070866141
0
LINE
8
BLACK
6
CONTINUOUS
10
4.352358228346457
20
-0.6184783070866141
11
4.3507877559055119
21
-0.6085628346456693
0
LINE
8
BLACK
6
CONTINUOUS
10
4.3507877559055119
20
-0.6085628346456693
11
4.3507877559055119
21
-0.599282874015748
0
LINE
8
BLACK
6
CONTINUOUS
10
4.3507877559055119
20
-0.599282874015748
11
4.3507877559055119
21
-0.5985237795275591
0
LINE
8
BLACK
6
CONTINUOUS
10
4.3507877559055119
20
-0.5985237795275591
11
4.352358228346457
21
-0.5886083070866142
0
LINE
8
BLACK
6
CONTINUOUS
10
4.352358228346457
20
-0.5886083070866142
11
4.3554604724409449
21
-0.5790605905511811
0
LINE
8
BLACK
6
CONTINUOUS
10
4.3554604724409449
20
-0.5790605905511811
11
4.3600181102362203
21
-0.570115748031496
0
LINE
8
BLACK
6
CONTINUOUS
10
4.3600181102362203
20
-0.570115748031496
11
4.3659188976377949
21
-0.5619939763779528
0
LINE
8
BLACK
6
CONTINUOUS
10
4.3659188976377949
20
-0.5619939763779528
11
4.3730175984251964
21
-0.5548952755905512
0
LINE
8
BLACK
6
CONTINUOUS
10
4.3730175984251964
20
-0.5548952755905512
11
4.3811393700787402
21
-0.5489944881889763
0
LINE
8
BLACK
6
CONTINUOUS
10
4.3811393700787402
20
-0.5489944881889763
11
4.390084212598425
21
-0.5444368503937008
0
LINE
8
BLACK
6
CONTINUOUS
10
4.390084212598425
20
-0.5444368503937008
11
4.3996319291338581
21
-0.5413346062992126
0
LINE
8
BLACK
6
CONTINUOUS
10
4.3996319291338581
20
-0.5413346062992126
11
4.4095474015748026
21
-0.5397641338582677
0
LINE
8
BLACK
6
CONTINUOUS
10
4.4095474015748026
20
-0.5397641338582677
11
4.4195864566929135
21
-0.5397641338582677
0
LINE
8
BLACK
6
CONTINUOUS
10
4.4195864566929135
20
-0.5397641338582677
11
4.429501929133858
21
-0.5413346062992126
0
LINE
8
BLACK
6
CONTINUOUS
10
4.3604330708661418
20
-0.6078037401574803
11
4.3617660236220468
21
-0.6162196850393701
0
LINE
8
BLACK
6
CONTINUOUS
10
4.3617660236220468
20
-0.6162196850393701
11
4.3643990944881885
21
-0.6243235039370079
0
LINE
8
BLACK
6
CONTINUOUS
10
4.3643990944881885
20
-0.6243235039370079
11
4.3682674803149606
21
-0.6319156299212598
0
LINE
8
BLACK
6
CONTINUOUS
10
4.3682674803149606
20
-0.6319156299212598
11
4.3732759448818896
21
-0.6388091732283464
0
LINE
8
BLACK
6
CONTINUOUS
10
4.3732759448818896
20
-0.6388091732283464
11
4.3793010629921261
21
-0.6448342913385826
0
LINE
8
BLACK
6
CONTINUOUS
10
4.3793010629921261
20
-0.6448342913385826
11
4.3861946062992123
21
-0.6498427559055118
0
LINE
8
BLACK
6
CONTINUOUS
10
4.3861946062992123
20
-0.6498427559055118
11
4.3937867322834645
21
-0.6537111417322834
0
LINE
8
BLACK
6
CONTINUOUS
10
4.3937867322834645
20
-0.6537111417322834
11
4.4018905511811024
21
-0.6563442125984252
0
LINE
8
BLACK
6
CONTINUOUS
10
4.4018905511811024
20
-0.6563442125984252
11
4.4103064960629919
21
-0.6576771653543307
0
LINE
8
BLACK
6
CONTINUOUS
10
4.4103064960629919
20
-0.6576771653543307
11
4.4188273622047243
21
-0.6576771653543307
0
LINE
8
BLACK
6
CONTINUOUS
10
4.4188273622047243
20
-0.6576771653543307
11
4.4272433070866137
21
-0.6563442125984252
0
LINE
8
BLACK
6
CONTINUOUS
10
4.4272433070866137
20
-0.6563442125984252
11
4.4353471259842516
21
-0.6537111417322834
0
LINE
8
BLACK
6
CONTINUOUS
10
4.4353471259842516
20
-0.6537111417322834
11
4.4429392519685038
21
-0.6498427559055118
0
LINE
8
BLACK
6
CONTINUOUS
10
4.4429392519685038
20
-0.6498427559055118
11
4.4498327952755901
21
-0.6448342913385826
0
LINE
8
BLACK
6
CONTINUOUS
10
4.4498327952755901
20
-0.6448342913385826
11
4.4558579133858265
21
-0.6388091732283464
0
LINE
8
BLACK
6
CONTINUOUS
10
4.4558579133858265
20
-0.6388091732283464
11
4.4608663779527555
21
-0.6319156299212598
0
LINE
8
BLACK
6
CONTINUOUS
10
4.4608663779527555
20
-0.6319156299212598
11
4.4647347637795276
21
-0.6243235039370079
0
LINE
8
BLACK
6
CONTINUOUS
10
4.4647347637795276
20
-0.6243235039370079
11
4.4673678346456693
21
-0.6162196850393701
0
LINE
8
BLACK
6
CONTINUOUS
10
4.4673678346456693
20
-0.6162196850393701
11
4.4687007874015743
21
-0.6078037401574803
0
LINE
8
BLACK
6
CONTINUOUS
10
4.4687007874015743
20
-0.6078037401574803
11
4.4687007874015743
21
-0.599282874015748
0
LINE
8
BLACK
6
CONTINUOUS
10
4.4687007874015743
20
-0.599282874015748
11
4.4673678346456693
21
-0.5908669291338583
0
LINE
8
BLACK
6
CONTINUOUS
10
4.4673678346456693
20
-0.5908669291338583
11
4.4647347637795276
21
-0.5827631102362204
0
LINE
8
BLACK
6
CONTINUOUS
10
4.4647347637795276
20
-0.5827631102362204
11
4.4608663779527555
21
-0.5751709842519684
0
LINE
8
BLACK
6
CONTINUOUS
10
4.4608663779527555
20
-0.5751709842519684
11
4.4558579133858265
21
-0.5682774409448819
0
LINE
8
BLACK
6
CONTINUOUS
10
4.4558579133858265
20
-0.5682774409448819
11
4.4498327952755901
21
-0.5622523228346457
0
LINE
8
BLACK
6
CONTINUOUS
10
4.4498327952755901
20
-0.5622523228346457
11
4.4429392519685038
21
-0.5572438582677165
0
LINE
8
BLACK
6
CONTINUOUS
10
4.4429392519685038
20
-0.5572438582677165
11
4.4353471259842516
21
-0.5533754724409449
0
LINE
8
BLACK
6
CONTINUOUS
10
4.4353471259842516
20
-0.5533754724409449
11
4.4272433070866137
21
-0.5507424015748031
0
LINE
8
BLACK
6
CONTINUOUS
10
4.4272433070866137
20
-0.5507424015748031
11
4.4188273622047243
21
-0.5494094488188976
0
LINE
8
BLACK
6
CONTINUOUS
10
4.4188273622047243
20
-0.5494094488188976
11
4.4103064960629919
21
-0.5494094488188976
0
LINE
8
BLACK
6
CONTINUOUS
10
4.4103064960629919
20
-0.5494094488188976
11
4.4018905511811024
21
-0.5507424015748031
0
LINE
8
BLACK
6
CONTINUOUS
10
4.4018905511811024
20
-0.5507424015748031
11
4.3937867322834645
21
-0.5533754724409449
0
LINE
8
BLACK
6
CONTINUOUS
10
4.3937867322834645
20
-0.5533754724409449
11
4.3861946062992123
21
-0.5572438582677165
0
LINE
8
BLACK
6
CONTINUOUS
10
4.3861946062992123
20
-0.5572438582677165
11
4.3793010629921261
21
-0.5622523228346457
0
LINE
8
BLACK
6
CONTINUOUS
10
4.3793010629921261
20
-0.5622523228346457
11
4.3732759448818896
21
-0.5682774409448819
0
LINE
8
BLACK
6
CONTINUOUS
10
4.3732759448818896
20
-0.5682774409448819
11
4.3682674803149606
21
-0.5751709842519684
0
LINE
8
BLACK
6
CONTINUOUS
10
4.3682674803149606
20
-0.5751709842519684
11
4.3643990944881885
21
-0.5827631102362204
0
LINE
8
BLACK
6
CONTINUOUS
10
4.3643990944881885
20
-0.5827631102362204
11
4.3617660236220468
21
-0.5908669291338583
0
LINE
8
BLACK
6
CONTINUOUS
10
4.3617660236220468
20
-0.5908669291338583
11
4.3604330708661418
21
-0.599282874015748
0
LINE
8
BLACK
6
CONTINUOUS
10
4.3604330708661418
20
-0.599282874015748
11
4.3604330708661418
21
-0.6078037401574803
0
LINE
8
BLACK
6
CONTINUOUS
10
7.4255649212598422
20
-0.5413346062992126
11
7.4351126377952754
21
-0.5444368503937008
0
LINE
8
BLACK
6
CONTINUOUS
10
7.4351126377952754
20
-0.5444368503937008
11
7.4440574803149602
21
-0.5489944881889763
0
LINE
8
BLACK
6
CONTINUOUS
10
7.4440574803149602
20
-0.5489944881889763
11
7.4521792519685039
21
-0.5548952755905512
0
LINE
8
BLACK
6
CONTINUOUS
10
7.4521792519685039
20
-0.5548952755905512
11
7.4592779527559054
21
-0.5619939763779528
0
LINE
8
BLACK
6
CONTINUOUS
10
7.4592779527559054
20
-0.5619939763779528
11
7.4651787401574801
21
-0.570115748031496
0
LINE
8
BLACK
6
CONTINUOUS
10
7.4651787401574801
20
-0.570115748031496
11
7.4697363779527555
21
-0.5790605905511811
0
LINE
8
BLACK
6
CONTINUOUS
10
7.4697363779527555
20
-0.5790605905511811
11
7.4728386220472443
21
-0.5886083070866142
0
LINE
8
BLACK
6
CONTINUOUS
10
7.4728386220472443
20
-0.5886083070866142
11
7.4744090944881885
21
-0.5985237795275591
0
LINE
8
BLACK
6
CONTINUOUS
10
7.4744090944881885
20
-0.5985237795275591
11
7.4744090944881885
21
-0.6085628346456693
0
LINE
8
BLACK
6
CONTINUOUS
10
7.4744090944881885
20
-0.6085628346456693
11
7.4728386220472443
21
-0.6184783070866141
0
LINE
8
BLACK
6
CONTINUOUS
10
7.4728386220472443
20
-0.6184783070866141
11
7.4697363779527555
21
-0.6280260236220472
0
LINE
8
BLACK
6
CONTINUOUS
10
7.4697363779527555
20
-0.6280260236220472
11
7.4651787401574801
21
-0.6369708661417323
0
LINE
8
BLACK
6
CONTINUOUS
10
7.4651787401574801
20
-0.6369708661417323
11
7.4592779527559054
21
-0.6450926377952756
0
LINE
8
BLACK
6
CONTINUOUS
10
7.4592779527559054
20
-0.6450926377952756
11
7.4521792519685039
21
-0.6521913385826772
0
LINE
8
BLACK
6
CONTINUOUS
10
7.4521792519685039
20
-0.6521913385826772
11
7.4440574803149602
21
-0.6580921259842519
0
LINE
8
BLACK
6
CONTINUOUS
10
7.4440574803149602
20
-0.6580921259842519
11
7.4351126377952754
21
-0.6626497637795276
0
LINE
8
BLACK
6
CONTINUOUS
10
7.4351126377952754
20
-0.6626497637795276
11
7.4255649212598422
21
-0.6657520078740158
0
LINE
8
BLACK
6
CONTINUOUS
10
7.4255649212598422
20
-0.6657520078740158
11
7.4156494488188978
21
-0.6673224803149607
0
LINE
8
BLACK
6
CONTINUOUS
10
7.4156494488188978
20
-0.6673224803149607
11
7.4056103937007869
21
-0.6673224803149607
0
LINE
8
BLACK
6
CONTINUOUS
10
7.4056103937007869
20
-0.6673224803149607
11
7.3956949212598424
21
-0.6657520078740158
0
LINE
8
BLACK
6
CONTINUOUS
10
7.3956949212598424
20
-0.6657520078740158
11
7.3861472047244092
21
-0.6626497637795276
0
LINE
8
BLACK
6
CONTINUOUS
10
7.3861472047244092
20
-0.6626497637795276
11
7.3772023622047245
21
-0.6580921259842519
0
LINE
8
BLACK
6
CONTINUOUS
10
7.3772023622047245
20
-0.6580921259842519
11
7.3690805905511807
21
-0.6521913385826772
0
LINE
8
BLACK
6
CONTINUOUS
10
7.3690805905511807
20
-0.6521913385826772
11
7.3619818897637792
21
-0.6450926377952756
0
LINE
8
BLACK
6
CONTINUOUS
10
7.3619818897637792
20
-0.6450926377952756
11
7.3560811023622046
21
-0.6369708661417323
0
LINE
8
BLACK
6
CONTINUOUS
10
7.3560811023622046
20
-0.6369708661417323
11
7.3515234645669292
21
-0.6280260236220472
0
LINE
8
BLACK
6
CONTINUOUS
10
7.3515234645669292
20
-0.6280260236220472
11
7.3484212204724404
21
-0.6184783070866141
0
LINE
8
BLACK
6
CONTINUOUS
10
7.3484212204724404
20
-0.6184783070866141
11
7.3468507480314962
21
-0.6085628346456693
0
LINE
8
BLACK
6
CONTINUOUS
10
7.3468507480314962
20
-0.6085628346456693
11
7.3468507480314962
21
-0.599282874015748
0
LINE
8
BLACK
6
CONTINUOUS
10
7.3468507480314962
20
-0.599282874015748
11
7.3468507480314962
21
-0.5985237795275591
0
LINE
8
BLACK
6
CONTINUOUS
10
7.3468507480314962
20
-0.5985237795275591
11
7.3484212204724404
21
-0.5886083070866142
0
LINE
8
BLACK
6
CONTINUOUS
10
7.3484212204724404
20
-0.5886083070866142
11
7.3515234645669292
21
-0.5790605905511811
0
LINE
8
BLACK
6
CONTINUOUS
10
7.3515234645669292
20
-0.5790605905511811
11
7.3560811023622046
21
-0.570115748031496
0
LINE
8
BLACK
6
CONTINUOUS
10
7.3560811023622046
20
-0.570115748031496
11
7.3619818897637792
21
-0.5619939763779528
0
LINE
8
BLACK
6
CONTINUOUS
10
7.3619818897637792
20
-0.5619939763779528
11
7.3690805905511807
21
-0.5548952755905512
0
LINE
8
BLACK
6
CONTINUOUS
10
7.3690805905511807
20
-0.5548952755905512
11
7.3772023622047245
21
-0.5489944881889763
0
LINE
8
BLACK
6
CONTINUOUS
10
7.3772023622047245
20
-0.5489944881889763
11
7.3861472047244092
21
-0.5444368503937008
0
LINE
8
BLACK
6
CONTINUOUS
10
7.3861472047244092
20
-0.5444368503937008
11
7.3956949212598424
21
-0.5413346062992126
0
LINE
8
BLACK
6
CONTINUOUS
10
7.3956949212598424
20
-0.5413346062992126
11
7.4056103937007869
21
-0.5397641338582677
0
LINE
8
BLACK
6
CONTINUOUS
10
7.4056103937007869
20
-0.5397641338582677
11
7.4156494488188978
21
-0.5397641338582677
0
LINE
8
BLACK
6
CONTINUOUS
10
7.4156494488188978
20
-0.5397641338582677
11
7.4255649212598422
21
-0.5413346062992126
0
LINE
8
BLACK
6
CONTINUOUS
10
7.3564960629921261
20
-0.6078037401574803
11
7.3578290157480311
21
-0.6162196850393701
0
LINE
8
BLACK
6
CONTINUOUS
10
7.3578290157480311
20
-0.6162196850393701
11
7.3604620866141728
21
-0.6243235039370079
0
LINE
8
BLACK
6
CONTINUOUS
10
7.3604620866141728
20
-0.6243235039370079
11
7.3643304724409449
21
-0.6319156299212598
0
LINE
8
BLACK
6
CONTINUOUS
10
7.3643304724409449
20
-0.6319156299212598
11
7.3693389370078739
21
-0.6388091732283464
0
LINE
8
BLACK
6
CONTINUOUS
10
7.3693389370078739
20
-0.6388091732283464
11
7.3753640551181103
21
-0.6448342913385826
0
LINE
8
BLACK
6
CONTINUOUS
10
7.3753640551181103
20
-0.6448342913385826
11
7.3822575984251966
21
-0.6498427559055118
0
LINE
8
BLACK
6
CONTINUOUS
10
7.3822575984251966
20
-0.6498427559055118
11
7.3898497244094488
21
-0.6537111417322834
0
LINE
8
BLACK
6
CONTINUOUS
10
7.3898497244094488
20
-0.6537111417322834
11
7.3979535433070867
21
-0.6563442125984252
0
LINE
8
BLACK
6
CONTINUOUS
10
7.3979535433070867
20
-0.6563442125984252
11
7.4063694881889761
21
-0.6576771653543307
0
LINE
8
BLACK
6
CONTINUOUS
10
7.4063694881889761
20
-0.6576771653543307
11
7.4148903543307085
21
-0.6576771653543307
0
LINE
8
BLACK
6
CONTINUOUS
10
7.4148903543307085
20
-0.6576771653543307
11
7.423306299212598
21
-0.6563442125984252
0
LINE
8
BLACK
6
CONTINUOUS
10
7.423306299212598
20
-0.6563442125984252
11
7.4314101181102359
21
-0.6537111417322834
0
LINE
8
BLACK
6
CONTINUOUS
10
7.4314101181102359
20
-0.6537111417322834
11
7.4390022440944881
21
-0.6498427559055118
0
LINE
8
BLACK
6
CONTINUOUS
10
7.4390022440944881
20
-0.6498427559055118
11
7.4458957874015743
21
-0.6448342913385826
0
LINE
8
BLACK
6
CONTINUOUS
10
7.4458957874015743
20
-0.6448342913385826
11
7.4519209055118107
21
-0.6388091732283464
0
LINE
8
BLACK
6
CONTINUOUS
10
7.4519209055118107
20
-0.6388091732283464
11
7.4569293700787398
21
-0.6319156299212598
0
LINE
8
BLACK
6
CONTINUOUS
10
7.4569293700787398
20
-0.6319156299212598
11
7.4607977559055119
21
-0.6243235039370079
0
LINE
8
BLACK
6
CONTINUOUS
10
7.4607977559055119
20
-0.6243235039370079
11
7.4634308267716536
21
-0.6162196850393701
0
LINE
8
BLACK
6
CONTINUOUS
10
7.4634308267716536
20
-0.6162196850393701
11
7.4647637795275585
21
-0.6078037401574803
0
LINE
8
BLACK
6
CONTINUOUS
10
7.4647637795275585
20
-0.6078037401574803
11
7.4647637795275585
21
-0.599282874015748
0
LINE
8
BLACK
6
CONTINUOUS
10
7.4647637795275585
20
-0.599282874015748
11
7.4634308267716536
21
-0.5908669291338583
0
LINE
8
BLACK
6
CONTINUOUS
10
7.4634308267716536
20
-0.5908669291338583
11
7.4607977559055119
21
-0.5827631102362204
0
LINE
8
BLACK
6
CONTINUOUS
10
7.4607977559055119
20
-0.5827631102362204
11
7.4569293700787398
21
-0.5751709842519684
0
LINE
8
BLACK
6
CONTINUOUS
10
7.4569293700787398
20
-0.5751709842519684
11
7.4519209055118107
21
-0.5682774409448819
0
LINE
8
BLACK
6
CONTINUOUS
10
7.4519209055118107
20
-0.5682774409448819
11
7.4458957874015743
21
-0.5622523228346457
0
LINE
8
BLACK
6
CONTINUOUS
10
7.4458957874015743
20
-0.5622523228346457
11
7.4390022440944881
21
-0.5572438582677165
0
LINE
8
BLACK
6
CONTINUOUS
10
7.4390022440944881
20
-0.5572438582677165
11
7.4314101181102359
21
-0.5533754724409449
0
LINE
8
BLACK
6
CONTINUOUS
10
7.4314101181102359
20
-0.5533754724409449
11
7.423306299212598
21
-0.5507424015748031
0
LINE
8
BLACK
6
CONTINUOUS
10
7.423306299212598
20
-0.5507424015748031
11
7.4148903543307085
21
-0.5494094488188976
0
LINE
8
BLACK
6
CONTINUOUS
10
7.4148903543307085
20
-0.5494094488188976
11
7.4063694881889761
21
-0.5494094488188976
0
LINE
8
BLACK
6
CONTINUOUS
10
7.4063694881889761
20
-0.5494094488188976
11
7.3979535433070867
21
-0.5507424015748031
0
LINE
8
BLACK
6
CONTINUOUS
10
7.3979535433070867
20
-0.5507424015748031
11
7.3898497244094488
21
-0.5533754724409449
0
LINE
8
BLACK
6
CONTINUOUS
10
7.3898497244094488
20
-0.5533754724409449
11
7.3822575984251966
21
-0.5572438582677165
0
LINE
8
BLACK
6
CONTINUOUS
10
7.3822575984251966
20
-0.5572438582677165
11
7.3753640551181103
21
-0.5622523228346457
0
LINE
8
BLACK
6
CONTINUOUS
10
7.3753640551181103
20
-0.5622523228346457
11
7.3693389370078739
21
-0.5682774409448819
0
LINE
8
BLACK
6
CONTINUOUS
10
7.3693389370078739
20
-0.5682774409448819
11
7.3643304724409449
21
-0.5751709842519684
0
LINE
8
BLACK
6
CONTINUOUS
10
7.3643304724409449
20
-0.5751709842519684
11
7.3604620866141728
21
-0.5827631102362204
0
LINE
8
BLACK
6
CONTINUOUS
10
7.3604620866141728
20
-0.5827631102362204
11
7.3578290157480311
21
-0.5908669291338583
0
LINE
8
BLACK
6
CONTINUOUS
10
7.3578290157480311
20
-0.5908669291338583
11
7.3564960629921261
21
-0.599282874015748
0
LINE
8
BLACK
6
CONTINUOUS
10
7.3564960629921261
20
-0.599282874015748
11
7.3564960629921261
21
-0.6078037401574803
0
LINE
8
BLACK
6
CONTINUOUS
10
4.942296535433071
20
-0.5234548818897637
11
4.9509629133858271
21
-0.5262707874015748
0
LINE
8
BLACK
6
CONTINUOUS
10
4.9509629133858271
20
-0.5262707874015748
11
4.9590820866141732
21
-0.5304077165354331
0
LINE
8
BLACK
6
CONTINUOUS
10
4.9590820866141732
20
-0.5304077165354331
11
4.966454173228346
21
-0.5357638188976378
0
LINE
8
BLACK
6
CONTINUOUS
10
4.966454173228346
20
-0.5357638188976378
11
4.9728975984251971
21
-0.5422072440944882
0
LINE
8
BLACK
6
CONTINUOUS
10
4.9728975984251971
20
-0.5422072440944882
11
4.978253700787401
21
-0.5495793307086614
0
LINE
8
BLACK
6
CONTINUOUS
10
4.978253700787401
20
-0.5495793307086614
11
4.9823906299212597
21
-0.5576985039370078
0
LINE
8
BLACK
6
CONTINUOUS
10
4.9823906299212597
20
-0.5576985039370078
11
4.985206535433071
21
-0.5663648818897637
0
LINE
8
BLACK
6
CONTINUOUS
10
4.985206535433071
20
-0.5663648818897637
11
4.9866320078740154
21
-0.5753650787401575
0
LINE
8
BLACK
6
CONTINUOUS
10
4.9866320078740154
20
-0.5753650787401575
11
4.9866320078740154
21
-0.5844774409448819
0
LINE
8
BLACK
6
CONTINUOUS
10
4.9866320078740154
20
-0.5844774409448819
11
4.985206535433071
21
-0.5934776377952756
0
LINE
8
BLACK
6
CONTINUOUS
10
4.985206535433071
20
-0.5934776377952756
11
4.9823906299212597
21
-0.6021440157480314
0
LINE
8
BLACK
6
CONTINUOUS
10
4.9823906299212597
20
-0.6021440157480314
11
4.978253700787401
21
-0.610263188976378
0
LINE
8
BLACK
6
CONTINUOUS
10
4.978253700787401
20
-0.610263188976378
11
4.9728975984251971
21
-0.6176352755905512
0
LINE
8
BLACK
6
CONTINUOUS
10
4.9728975984251971
20
-0.6176352755905512
11
4.966454173228346
21
-0.6240787007874016
0
LINE
8
BLACK
6
CONTINUOUS
10
4.966454173228346
20
-0.6240787007874016
11
4.9590820866141732
21
-0.6294348031496063
0
LINE
8
BLACK
6
CONTINUOUS
10
4.9590820866141732
20
-0.6294348031496063
11
4.9509629133858271
21
-0.6335717322834645
0
LINE
8
BLACK
6
CONTINUOUS
10
4.9509629133858271
20
-0.6335717322834645
11
4.942296535433071
21
-0.6363876377952756
0
LINE
8
BLACK
6
CONTINUOUS
10
4.942296535433071
20
-0.6363876377952756
11
4.9332963385826769
21
-0.6378131102362204
0
LINE
8
BLACK
6
CONTINUOUS
10
4.9332963385826769
20
-0.6378131102362204
11
4.9241839763779529
21
-0.6378131102362204
0
LINE
8
BLACK
6
CONTINUOUS
10
4.9241839763779529
20
-0.6378131102362204
11
4.9151837795275588
21
-0.6363876377952756
0
LINE
8
BLACK
6
CONTINUOUS
10
4.9151837795275588
20
-0.6363876377952756
11
4.9065174015748028
21
-0.6335717322834645
0
LINE
8
BLACK
6
CONTINUOUS
10
4.9065174015748028
20
-0.6335717322834645
11
4.8983982283464567
21
-0.6294348031496063
0
LINE
8
BLACK
6
CONTINUOUS
10
4.8983982283464567
20
-0.6294348031496063
11
4.8910261417322838
21
-0.6240787007874016
0
LINE
8
BLACK
6
CONTINUOUS
10
4.8910261417322838
20
-0.6240787007874016
11
4.8845827165354327
21
-0.6176352755905512
0
LINE
8
BLACK
6
CONTINUOUS
10
4.8845827165354327
20
-0.6176352755905512
11
4.8792266141732279
21
-0.610263188976378
0
LINE
8
BLACK
6
CONTINUOUS
10
4.8792266141732279
20
-0.610263188976378
11
4.8750896850393701
21
-0.6021440157480314
0
LINE
8
BLACK
6
CONTINUOUS
10
4.8750896850393701
20
-0.6021440157480314
11
4.8722737795275588
21
-0.5934776377952756
0
LINE
8
BLACK
6
CONTINUOUS
10
4.8722737795275588
20
-0.5934776377952756
11
4.8708483070866144
21
-0.5844774409448819
0
LINE
8
BLACK
6
CONTINUOUS
10
4.8708483070866144
20
-0.5844774409448819
11
4.8708483070866144
21
-0.5761255905511811
0
LINE
8
BLACK
6
CONTINUOUS
10
4.8708483070866144
20
-0.5761255905511811
11
4.8708483070866144
21
-0.5753650787401575
0
LINE
8
BLACK
6
CONTINUOUS
10
4.8708483070866144
20
-0.5753650787401575
11
4.8722737795275588
21
-0.5663648818897637
0
LINE
8
BLACK
6
CONTINUOUS
10
4.8722737795275588
20
-0.5663648818897637
11
4.8750896850393701
21
-0.5576985039370078
0
LINE
8
BLACK
6
CONTINUOUS
10
4.8750896850393701
20
-0.5576985039370078
11
4.8792266141732279
21
-0.5495793307086614
0
LINE
8
BLACK
6
CONTINUOUS
10
4.8792266141732279
20
-0.5495793307086614
11
4.8845827165354327
21
-0.5422072440944882
0
LINE
8
BLACK
6
CONTINUOUS
10
4.8845827165354327
20
-0.5422072440944882
11
4.8910261417322838
21
-0.5357638188976378
0
LINE
8
BLACK
6
CONTINUOUS
10
4.8910261417322838
20
-0.5357638188976378
11
4.8983982283464567
21
-0.5304077165354331
0
LINE
8
BLACK
6
CONTINUOUS
10
4.8983982283464567
20
-0.5304077165354331
11
4.9065174015748028
21
-0.5262707874015748
0
LINE
8
BLACK
6
CONTINUOUS
10
4.9065174015748028
20
-0.5262707874015748
11
4.9151837795275588
21
-0.5234548818897637
0
LINE
8
BLACK
6
CONTINUOUS
10
4.9151837795275588
20
-0.5234548818897637
11
4.9241839763779529
21
-0.5220294094488189
0
LINE
8
BLACK
6
CONTINUOUS
10
4.9241839763779529
20
-0.5220294094488189
11
4.9332963385826769
21
-0.5220294094488189
0
LINE
8
BLACK
6
CONTINUOUS
10
4.9332963385826769
20
-0.5220294094488189
11
4.942296535433071
21
-0.5234548818897637
0
LINE
8
BLACK
6
CONTINUOUS
10
4.8805118110236219
20
-0.5837169291338583
11
4.8816993700787403
21
-0.5912147637795275
0
LINE
8
BLACK
6
CONTINUOUS
10
4.8816993700787403
20
-0.5912147637795275
11
4.8840451968503933
21
-0.5984345275590551
0
LINE
8
BLACK
6
CONTINUOUS
10
4.8840451968503933
20
-0.5984345275590551
11
4.8874915748031498
21
-0.6051984251968504
0
LINE
8
BLACK
6
CONTINUOUS
10
4.8874915748031498
20
-0.6051984251968504
11
4.8919536220472439
21
-0.6113399212598425
0
LINE
8
BLACK
6
CONTINUOUS
10
4.8919536220472439
20
-0.6113399212598425
11
4.8973214960629923
21
-0.6167077952755905
0
LINE
8
BLACK
6
CONTINUOUS
10
4.8973214960629923
20
-0.6167077952755905
11
4.9034629921259842
21
-0.621169842519685
0
LINE
8
BLACK
6
CONTINUOUS
10
4.9034629921259842
20
-0.621169842519685
11
4.9102268897637797
21
-0.6246162204724409
0
LINE
8
BLACK
6
CONTINUOUS
10
4.9102268897637797
20
-0.6246162204724409
11
4.9174466535433066
21
-0.6269620472440944
0
LINE
8
BLACK
6
CONTINUOUS
10
4.9174466535433066
20
-0.6269620472440944
11
4.9249444881889763
21
-0.6281496062992126
0
LINE
8
BLACK
6
CONTINUOUS
10
4.9249444881889763
20
-0.6281496062992126
11
4.9325358267716535
21
-0.6281496062992126
0
LINE
8
BLACK
6
CONTINUOUS
10
4.9325358267716535
20
-0.6281496062992126
11
4.9400336614173224
21
-0.6269620472440944
0
LINE
8
BLACK
6
CONTINUOUS
10
4.9400336614173224
20
-0.6269620472440944
11
4.9472534251968501
21
-0.6246162204724409
0
LINE
8
BLACK
6
CONTINUOUS
10
4.9472534251968501
20
-0.6246162204724409
11
4.9540173228346456
21
-0.621169842519685
0
LINE
8
BLACK
6
CONTINUOUS
10
4.9540173228346456
20
-0.621169842519685
11
4.9601588188976375
21
-0.6167077952755905
0
LINE
8
BLACK
6
CONTINUOUS
10
4.9601588188976375
20
-0.6167077952755905
11
4.9655266929133859
21
-0.6113399212598425
0
LINE
8
BLACK
6
CONTINUOUS
10
4.9655266929133859
20
-0.6113399212598425
11
4.96998874015748
21
-0.6051984251968504
0
LINE
8
BLACK
6
CONTINUOUS
10
4.96998874015748
20
-0.6051984251968504
11
4.9734351181102365
21
-0.5984345275590551
0
LINE
8
BLACK
6
CONTINUOUS
10
4.9734351181102365
20
-0.5984345275590551
11
4.9757809448818895
21
-0.5912147637795275
0
LINE
8
BLACK
6
CONTINUOUS
10
4.9757809448818895
20
-0.5912147637795275
11
4.976968503937008
21
-0.5837169291338583
0
LINE
8
BLACK
6
CONTINUOUS
10
4.976968503937008
20
-0.5837169291338583
11
4.976968503937008
21
-0.5761255905511811
0
LINE
8
BLACK
6
CONTINUOUS
10
4.976968503937008
20
-0.5761255905511811
11
4.9757809448818895
21
-0.5686277559055118
0
LINE
8
BLACK
6
CONTINUOUS
10
4.9757809448818895
20
-0.5686277559055118
11
4.9734351181102365
21
-0.5614079921259842
0
LINE
8
BLACK
6
CONTINUOUS
10
4.9734351181102365
20
-0.5614079921259842
11
4.96998874015748
21
-0.554644094488189
0
LINE
8
BLACK
6
CONTINUOUS
10
4.96998874015748
20
-0.554644094488189
11
4.9655266929133859
21
-0.5485025984251969
0
LINE
8
BLACK
6
CONTINUOUS
10
4.9655266929133859
20
-0.5485025984251969
11
4.9601588188976375
21
-0.5431347244094488
0
LINE
8
BLACK
6
CONTINUOUS
10
4.9601588188976375
20
-0.5431347244094488
11
4.9540173228346456
21
-0.5386726771653543
0
LINE
8
BLACK
6
CONTINUOUS
10
4.9540173228346456
20
-0.5386726771653543
11
4.9472534251968501
21
-0.5352262992125985
0
LINE
8
BLACK
6
CONTINUOUS
10
4.9472534251968501
20
-0.5352262992125985
11
4.9400336614173224
21
-0.5328804724409448
0
LINE
8
BLACK
6
CONTINUOUS
10
4.9400336614173224
20
-0.5328804724409448
11
4.9325358267716535
21
-0.5316929133858268
0
LINE
8
BLACK
6
CONTINUOUS
10
4.9325358267716535
20
-0.5316929133858268
11
4.9249444881889763
21
-0.5316929133858268
0
LINE
8
BLACK
6
CONTINUOUS
10
4.9249444881889763
20
-0.5316929133858268
11
4.9174466535433066
21
-0.5328804724409448
0
LINE
8
BLACK
6
CONTINUOUS
10
4.9174466535433066
20
-0.5328804724409448
11
4.9102268897637797
21
-0.5352262992125985
0
LINE
8
BLACK
6
CONTINUOUS
10
4.9102268897637797
20
-0.5352262992125985
11
4.9034629921259842
21
-0.5386726771653543
0
LINE
8
BLACK
6
CONTINUOUS
10
4.9034629921259842
20
-0.5386726771653543
11
4.8973214960629923
21
-0.5431347244094488
0
LINE
8
BLACK
6
CONTINUOUS
10
4.8973214960629923
20
-0.5431347244094488
11
4.8919536220472439
21
-0.5485025984251969
0
LINE
8
BLACK
6
CONTINUOUS
10
4.8919536220472439
20
-0.5485025984251969
11
4.8874915748031498
21
-0.554644094488189
0
LINE
8
BLACK
6
CONTINUOUS
10
4.8874915748031498
20
-0.554644094488189
11
4.8840451968503933
21
-0.5614079921259842
0
LINE
8
BLACK
6
CONTINUOUS
10
4.8840451968503933
20
-0.5614079921259842
11
4.8816993700787403
21
-0.5686277559055118
0
LINE
8
BLACK
6
CONTINUOUS
10
4.8816993700787403
20
-0.5686277559055118
11
4.8805118110236219
21
-0.5761255905511811
0
LINE
8
BLACK
6
CONTINUOUS
10
4.8805118110236219
20
-0.5761255905511811
11
4.8805118110236219
21
-0.5837169291338583
0
LINE
8
BLACK
6
CONTINUOUS
10
6.2100130708661414
20
-0.5234548818897637
11
6.2186794488188974
21
-0.5262707874015748
0
LINE
8
BLACK
6
CONTINUOUS
10
6.2186794488188974
20
-0.5262707874015748
11
6.2267986220472435
21
-0.5304077165354331
0
LINE
8
BLACK
6
CONTINUOUS
10
6.2267986220472435
20
-0.5304077165354331
11
6.2341707086614173
21
-0.5357638188976378
0
LINE
8
BLACK
6
CONTINUOUS
10
6.2341707086614173
20
-0.5357638188976378
11
6.2406141338582675
21
-0.5422072440944882
0
LINE
8
BLACK
6
CONTINUOUS
10
6.2406141338582675
20
-0.5422072440944882
11
6.2459702362204723
21
-0.5495793307086614
0
LINE
8
BLACK
6
CONTINUOUS
10
6.2459702362204723
20
-0.5495793307086614
11
6.250107165354331
21
-0.5576985039370078
0
LINE
8
BLACK
6
CONTINUOUS
10
6.250107165354331
20
-0.5576985039370078
11
6.2529230708661414
21
-0.5663648818897637
0
LINE
8
BLACK
6
CONTINUOUS
10
6.2529230708661414
20
-0.5663648818897637
11
6.2543485433070867
21
-0.5753650787401575
0
LINE
8
BLACK
6
CONTINUOUS
10
6.2543485433070867
20
-0.5753650787401575
11
6.2543485433070867
21
-0.5844774409448819
0
LINE
8
BLACK
6
CONTINUOUS
10
6.2543485433070867
20
-0.5844774409448819
11
6.2529230708661414
21
-0.5934776377952756
0
LINE
8
BLACK
6
CONTINUOUS
10
6.2529230708661414
20
-0.5934776377952756
11
6.250107165354331
21
-0.6021440157480314
0
LINE
8
BLACK
6
CONTINUOUS
10
6.250107165354331
20
-0.6021440157480314
11
6.2459702362204723
21
-0.610263188976378
0
LINE
8
BLACK
6
CONTINUOUS
10
6.2459702362204723
20
-0.610263188976378
11
6.2406141338582675
21
-0.6176352755905512
0
LINE
8
BLACK
6
CONTINUOUS
10
6.2406141338582675
20
-0.6176352755905512
11
6.2341707086614173
21
-0.6240787007874016
0
LINE
8
BLACK
6
CONTINUOUS
10
6.2341707086614173
20
-0.6240787007874016
11
6.2267986220472435
21
-0.6294348031496063
0
LINE
8
BLACK
6
CONTINUOUS
10
6.2267986220472435
20
-0.6294348031496063
11
6.2186794488188974
21
-0.6335717322834645
0
LINE
8
BLACK
6
CONTINUOUS
10
6.2186794488188974
20
-0.6335717322834645
11
6.2100130708661414
21
-0.6363876377952756
0
LINE
8
BLACK
6
CONTINUOUS
10
6.2100130708661414
20
-0.6363876377952756
11
6.2010128740157482
21
-0.6378131102362204
0
LINE
8
BLACK
6
CONTINUOUS
10
6.2010128740157482
20
-0.6378131102362204
11
6.1919005118110233
21
-0.6378131102362204
0
LINE
8
BLACK
6
CONTINUOUS
10
6.1919005118110233
20
-0.6378131102362204
11
6.1829003149606301
21
-0.6363876377952756
0
LINE
8
BLACK
6
CONTINUOUS
10
6.1829003149606301
20
-0.6363876377952756
11
6.174233937007874
21
-0.6335717322834645
0
LINE
8
BLACK
6
CONTINUOUS
10
6.174233937007874
20
-0.6335717322834645
11
6.1661147637795271
21
-0.6294348031496063
0
LINE
8
BLACK
6
CONTINUOUS
10
6.1661147637795271
20
-0.6294348031496063
11
6.1587426771653542
21
-0.6240787007874016
0
LINE
8
BLACK
6
CONTINUOUS
10
6.1587426771653542
20
-0.6240787007874016
11
6.152299251968504
21
-0.6176352755905512
0
LINE
8
BLACK
6
CONTINUOUS
10
6.152299251968504
20
-0.6176352755905512
11
6.1469431496062992
21
-0.610263188976378
0
LINE
8
BLACK
6
CONTINUOUS
10
6.1469431496062992
20
-0.610263188976378
11
6.1428062204724405
21
-0.6021440157480314
0
LINE
8
BLACK
6
CONTINUOUS
10
6.1428062204724405
20
-0.6021440157480314
11
6.1399903149606301
21
-0.5934776377952756
0
LINE
8
BLACK
6
CONTINUOUS
10
6.1399903149606301
20
-0.5934776377952756
11
6.1385648425196848
21
-0.5844774409448819
0
LINE
8
BLACK
6
CONTINUOUS
10
6.1385648425196848
20
-0.5844774409448819
11
6.1385648425196848
21
-0.5761255905511811
0
LINE
8
BLACK
6
CONTINUOUS
10
6.1385648425196848
20
-0.5761255905511811
11
6.1385648425196848
21
-0.5753650787401575
0
LINE
8
BLACK
6
CONTINUOUS
10
6.1385648425196848
20
-0.5753650787401575
11
6.1399903149606301
21
-0.5663648818897637
0
LINE
8
BLACK
6
CONTINUOUS
10
6.1399903149606301
20
-0.5663648818897637
11
6.1428062204724405
21
-0.5576985039370078
0
LINE
8
BLACK
6
CONTINUOUS
10
6.1428062204724405
20
-0.5576985039370078
11
6.1469431496062992
21
-0.5495793307086614
0
LINE
8
BLACK
6
CONTINUOUS
10
6.1469431496062992
20
-0.5495793307086614
11
6.152299251968504
21
-0.5422072440944882
0
LINE
8
BLACK
6
CONTINUOUS
10
6.152299251968504
20
-0.5422072440944882
11
6.1587426771653542
21
-0.5357638188976378
0
LINE
8
BLACK
6
CONTINUOUS
10
6.1587426771653542
20
-0.5357638188976378
11
6.1661147637795271
21
-0.5304077165354331
0
LINE
8
BLACK
6
CONTINUOUS
10
6.1661147637795271
20
-0.5304077165354331
11
6.174233937007874
21
-0.5262707874015748
0
LINE
8
BLACK
6
CONTINUOUS
10
6.174233937007874
20
-0.5262707874015748
11
6.1829003149606301
21
-0.5234548818897637
0
LINE
8
BLACK
6
CONTINUOUS
10
6.1829003149606301
20
-0.5234548818897637
11
6.1919005118110233
21
-0.5220294094488189
0
LINE
8
BLACK
6
CONTINUOUS
10
6.1919005118110233
20
-0.5220294094488189
11
6.2010128740157482
21
-0.5220294094488189
0
LINE
8
BLACK
6
CONTINUOUS
10
6.2010128740157482
20
-0.5220294094488189
11
6.2100130708661414
21
-0.5234548818897637
0
LINE
8
BLACK
6
CONTINUOUS
10
6.1482283464566931
20
-0.5837169291338583
11
6.1494159055118107
21
-0.5912147637795275
0
LINE
8
BLACK
6
CONTINUOUS
10
6.1494159055118107
20
-0.5912147637795275
11
6.1517617322834646
21
-0.5984345275590551
0
LINE
8
BLACK
6
CONTINUOUS
10
6.1517617322834646
20
-0.5984345275590551
11
6.1552081102362202
21
-0.6051984251968504
0
LINE
8
BLACK
6
CONTINUOUS
10
6.1552081102362202
20
-0.6051984251968504
11
6.1596701574803152
21
-0.6113399212598425
0
LINE
8
BLACK
6
CONTINUOUS
10
6.1596701574803152
20
-0.6113399212598425
11
6.1650380314960627
21
-0.6167077952755905
0
LINE
8
BLACK
6
CONTINUOUS
10
6.1650380314960627
20
-0.6167077952755905
11
6.1711795275590546
21
-0.621169842519685
0
LINE
8
BLACK
6
CONTINUOUS
10
6.1711795275590546
20
-0.621169842519685
11
6.1779434251968501
21
-0.6246162204724409
0
LINE
8
BLACK
6
CONTINUOUS
10
6.1779434251968501
20
-0.6246162204724409
11
6.1851631889763778
21
-0.6269620472440944
0
LINE
8
BLACK
6
CONTINUOUS
10
6.1851631889763778
20
-0.6269620472440944
11
6.1926610236220467
21
-0.6281496062992126
0
LINE
8
BLACK
6
CONTINUOUS
10
6.1926610236220467
20
-0.6281496062992126
11
6.2002523622047239
21
-0.6281496062992126
0
LINE
8
BLACK
6
CONTINUOUS
10
6.2002523622047239
20
-0.6281496062992126
11
6.2077501968503936
21
-0.6269620472440944
0
LINE
8
BLACK
6
CONTINUOUS
10
6.2077501968503936
20
-0.6269620472440944
11
6.2149699606299214
21
-0.6246162204724409
0
LINE
8
BLACK
6
CONTINUOUS
10
6.2149699606299214
20
-0.6246162204724409
11
6.221733858267716
21
-0.621169842519685
0
LINE
8
BLACK
6
CONTINUOUS
10
6.221733858267716
20
-0.621169842519685
11
6.2278753543307088
21
-0.6167077952755905
0
LINE
8
BLACK
6
CONTINUOUS
10
6.2278753543307088
20
-0.6167077952755905
11
6.2332432283464563
21
-0.6113399212598425
0
LINE
8
BLACK
6
CONTINUOUS
10
6.2332432283464563
20
-0.6113399212598425
11
6.2377052755905513
21
-0.6051984251968504
0
LINE
8
BLACK
6
CONTINUOUS
10
6.2377052755905513
20
-0.6051984251968504
11
6.2411516535433069
21
-0.5984345275590551
0
LINE
8
BLACK
6
CONTINUOUS
10
6.2411516535433069
20
-0.5984345275590551
11
6.2434974803149608
21
-0.5912147637795275
0
LINE
8
BLACK
6
CONTINUOUS
10
6.2434974803149608
20
-0.5912147637795275
11
6.2446850393700783
21
-0.5837169291338583
0
LINE
8
BLACK
6
CONTINUOUS
10
6.2446850393700783
20
-0.5837169291338583
11
6.2446850393700783
21
-0.5761255905511811
0
LINE
8
BLACK
6
CONTINUOUS
10
6.2446850393700783
20
-0.5761255905511811
11
6.2434974803149608
21
-0.5686277559055118
0
LINE
8
BLACK
6
CONTINUOUS
10
6.2434974803149608
20
-0.5686277559055118
11
6.2411516535433069
21
-0.5614079921259842
0
LINE
8
BLACK
6
CONTINUOUS
10
6.2411516535433069
20
-0.5614079921259842
11
6.2377052755905513
21
-0.554644094488189
0
LINE
8
BLACK
6
CONTINUOUS
10
6.2377052755905513
20
-0.554644094488189
11
6.2332432283464563
21
-0.5485025984251969
0
LINE
8
BLACK
6
CONTINUOUS
10
6.2332432283464563
20
-0.5485025984251969
11
6.2278753543307088
21
-0.5431347244094488
0
LINE
8
BLACK
6
CONTINUOUS
10
6.2278753543307088
20
-0.5431347244094488
11
6.221733858267716
21
-0.5386726771653543
0
LINE
8
BLACK
6
CONTINUOUS
10
6.221733858267716
20
-0.5386726771653543
11
6.2149699606299214
21
-0.5352262992125985
0
LINE
8
BLACK
6
CONTINUOUS
10
6.2149699606299214
20
-0.5352262992125985
11
6.2077501968503936
21
-0.5328804724409448
0
LINE
8
BLACK
6
CONTINUOUS
10
6.2077501968503936
20
-0.5328804724409448
11
6.2002523622047239
21
-0.5316929133858268
0
LINE
8
BLACK
6
CONTINUOUS
10
6.2002523622047239
20
-0.5316929133858268
11
6.1926610236220467
21
-0.5316929133858268
0
LINE
8
BLACK
6
CONTINUOUS
10
6.1926610236220467
20
-0.5316929133858268
11
6.1851631889763778
21
-0.5328804724409448
0
LINE
8
BLACK
6
CONTINUOUS
10
6.1851631889763778
20
-0.5328804724409448
11
6.1779434251968501
21
-0.5352262992125985
0
LINE
8
BLACK
6
CONTINUOUS
10
6.1779434251968501
20
-0.5352262992125985
11
6.1711795275590546
21
-0.5386726771653543
0
LINE
8
BLACK
6
CONTINUOUS
10
6.1711795275590546
20
-0.5386726771653543
11
6.1650380314960627
21
-0.5431347244094488
0
LINE
8
BLACK
6
CONTINUOUS
10
6.1650380314960627
20
-0.5431347244094488
11
6.1596701574803152
21
-0.5485025984251969
0
LINE
8
BLACK
6
CONTINUOUS
10
6.1596701574803152
20
-0.5485025984251969
11
6.1552081102362202
21
-0.554644094488189
0
LINE
8
BLACK
6
CONTINUOUS
10
6.1552081102362202
20
-0.554644094488189
11
6.1517617322834646
21
-0.5614079921259842
0
LINE
8
BLACK
6
CONTINUOUS
10
6.1517617322834646
20
-0.5614079921259842
11
6.1494159055118107
21
-0.5686277559055118
0
LINE
8
BLACK
6
CONTINUOUS
10
6.1494159055118107
20
-0.5686277559055118
11
6.1482283464566931
21
-0.5761255905511811
0
LINE
8
BLACK
6
CONTINUOUS
10
6.1482283464566931
20
-0.5761255905511811
11
6.1482283464566931
21
-0.5837169291338583
0
LINE
8
BLACK
6
CONTINUOUS
10
4.4278161811023624
20
0.5280257874015748
11
4.4363969685039368
21
0.5257265354330709
0
LINE
8
BLACK
6
CONTINUOUS
10
4.4363969685039368
20
0.5257265354330709
11
4.4446042519685038
21
0.522326968503937
0
LINE
8
BLACK
6
CONTINUOUS
10
4.4446042519685038
20
0.522326968503937
11
4.4522975984251971
21
0.5178852362204724
0
LINE
8
BLACK
6
CONTINUOUS
10
4.4522975984251971
20
0.5178852362204724
11
4.4593453543307087
21
0.5124773228346456
0
LINE
8
BLACK
6
CONTINUOUS
10
4.4593453543307087
20
0.5124773228346456
11
4.4656269291338582
21
0.506195748031496
0
LINE
8
BLACK
6
CONTINUOUS
10
4.4656269291338582
20
0.506195748031496
11
4.4710348425196846
21
0.4991479921259843
0
LINE
8
BLACK
6
CONTINUOUS
10
4.4710348425196846
20
0.4991479921259843
11
4.4754765748031495
21
0.4914546456692913
0
LINE
8
BLACK
6
CONTINUOUS
10
4.4754765748031495
20
0.4914546456692913
11
4.4788761417322833
21
0.4832473622047244
0
LINE
8
BLACK
6
CONTINUOUS
10
4.4788761417322833
20
0.4832473622047244
11
4.481175393700787
21
0.4746665748031496
0
LINE
8
BLACK
6
CONTINUOUS
10
4.481175393700787
20
0.4746665748031496
11
4.4823349212598425
21
0.4658590551181102
0
LINE
8
BLACK
6
CONTINUOUS
10
4.4823349212598425
20
0.4658590551181102
11
4.4823349212598425
21
0.4569755905511811
0
LINE
8
BLACK
6
CONTINUOUS
10
4.4823349212598425
20
0.4569755905511811
11
4.481175393700787
21
0.4481680708661417
0
LINE
8
BLACK
6
CONTINUOUS
10
4.481175393700787
20
0.4481680708661417
11
4.4788761417322833
21
0.4395872834645669
0
LINE
8
BLACK
6
CONTINUOUS
10
4.4788761417322833
20
0.4395872834645669
11
4.4754765748031495
21
0.43138
0
LINE
8
BLACK
6
CONTINUOUS
10
4.4754765748031495
20
0.43138
11
4.4710348425196846
21
0.4236866535433071
0
LINE
8
BLACK
6
CONTINUOUS
10
4.4710348425196846
20
0.4236866535433071
11
4.4656269291338582
21
0.4166388976377953
0
LINE
8
BLACK
6
CONTINUOUS
10
4.4656269291338582
20
0.4166388976377953
11
4.4593453543307087
21
0.4103573228346457
0
LINE
8
BLACK
6
CONTINUOUS
10
4.4593453543307087
20
0.4103573228346457
11
4.4522975984251971
21
0.4049494094488189
0
LINE
8
BLACK
6
CONTINUOUS
10
4.4522975984251971
20
0.4049494094488189
11
4.4446042519685038
21
0.4005076771653543
0
LINE
8
BLACK
6
CONTINUOUS
10
4.4446042519685038
20
0.4005076771653543
11
4.4363969685039368
21
0.3971081102362204
0
LINE
8
BLACK
6
CONTINUOUS
10
4.4363969685039368
20
0.3971081102362204
11
4.4278161811023624
21
0.3948088582677165
0
LINE
8
BLACK
6
CONTINUOUS
10
4.4278161811023624
20
0.3948088582677165
11
4.4190086614173225
21
0.3936493307086614
0
LINE
8
BLACK
6
CONTINUOUS
10
4.4190086614173225
20
0.3936493307086614
11
4.4101251968503936
21
0.3936493307086614
0
LINE
8
BLACK
6
CONTINUOUS
10
4.4101251968503936
20
0.3936493307086614
11
4.4013176771653546
21
0.3948088582677165
0
LINE
8
BLACK
6
CONTINUOUS
10
4.4013176771653546
20
0.3948088582677165
11
4.3927368897637793
21
0.3971081102362204
0
LINE
8
BLACK
6
CONTINUOUS
10
4.3927368897637793
20
0.3971081102362204
11
4.3845296062992123
21
0.4005076771653543
0
LINE
8
BLACK
6
CONTINUOUS
10
4.3845296062992123
20
0.4005076771653543
11
4.3768362598425199
21
0.4049494094488189
0
LINE
8
BLACK
6
CONTINUOUS
10
4.3768362598425199
20
0.4049494094488189
11
4.3697885039370075
21
0.4103573228346457
0
LINE
8
BLACK
6
CONTINUOUS
10
4.3697885039370075
20
0.4103573228346457
11
4.363506929133858
21
0.4166388976377953
0
LINE
8
BLACK
6
CONTINUOUS
10
4.363506929133858
20
0.4166388976377953
11
4.3580990157480315
21
0.4236866535433071
0
LINE
8
BLACK
6
CONTINUOUS
10
4.3580990157480315
20
0.4236866535433071
11
4.3536572834645666
21
0.43138
0
LINE
8
BLACK
6
CONTINUOUS
10
4.3536572834645666
20
0.43138
11
4.3502577165354328
21
0.4395872834645669
0
LINE
8
BLACK
6
CONTINUOUS
10
4.3502577165354328
20
0.4395872834645669
11
4.3479584645669291
21
0.4481680708661417
0
LINE
8
BLACK
6
CONTINUOUS
10
4.3479584645669291
20
0.4481680708661417
11
4.3467989370078737
21
0.4569755905511811
0
LINE
8
BLACK
6
CONTINUOUS
10
4.3467989370078737
20
0.4569755905511811
11
4.3467989370078737
21
0.4658590551181102
0
LINE
8
BLACK
6
CONTINUOUS
10
4.3467989370078737
20
0.4658590551181102
11
4.346815866141732
21
0.4659875984251968
0
LINE
8
BLACK
6
CONTINUOUS
10
4.346815866141732
20
0.4659875984251968
11
4.3479584645669291
21
0.4746665748031496
0
LINE
8
BLACK
6
CONTINUOUS
10
4.3479584645669291
20
0.4746665748031496
11
4.3502577165354328
21
0.4832473622047244
0
LINE
8
BLACK
6
CONTINUOUS
10
4.3502577165354328
20
0.4832473622047244
11
4.3536572834645666
21
0.4914546456692913
0
LINE
8
BLACK
6
CONTINUOUS
10
4.3536572834645666
20
0.4914546456692913
11
4.3580990157480315
21
0.4991479921259843
0
LINE
8
BLACK
6
CONTINUOUS
10
4.3580990157480315
20
0.4991479921259843
11
4.363506929133858
21
0.506195748031496
0
LINE
8
BLACK
6
CONTINUOUS
10
4.363506929133858
20
0.506195748031496
11
4.3697885039370075
21
0.5124773228346456
0
LINE
8
BLACK
6
CONTINUOUS
10
4.3697885039370075
20
0.5124773228346456
11
4.3768362598425199
21
0.5178852362204724
0
LINE
8
BLACK
6
CONTINUOUS
10
4.3768362598425199
20
0.5178852362204724
11
4.3845296062992123
21
0.522326968503937
0
LINE
8
BLACK
6
CONTINUOUS
10
4.3845296062992123
20
0.522326968503937
11
4.3927368897637793
21
0.5257265354330709
0
LINE
8
BLACK
6
CONTINUOUS
10
4.3927368897637793
20
0.5257265354330709
11
4.4013176771653546
21
0.5280257874015748
0
LINE
8
BLACK
6
CONTINUOUS
10
4.4013176771653546
20
0.5280257874015748
11
4.4101251968503936
21
0.5291853149606299
0
LINE
8
BLACK
6
CONTINUOUS
10
4.4101251968503936
20
0.5291853149606299
11
4.4190086614173225
21
0.5291853149606299
0
LINE
8
BLACK
6
CONTINUOUS
10
4.4190086614173225
20
0.5291853149606299
11
4.4278161811023624
21
0.5280257874015748
0
LINE
8
BLACK
6
CONTINUOUS
10
4.3564960629921261
20
0.4568470472440945
11
4.3579259448818899
21
0.4478190157480315
0
LINE
8
BLACK
6
CONTINUOUS
10
4.3579259448818899
20
0.4478190157480315
11
4.360750551181102
21
0.4391258661417323
0
LINE
8
BLACK
6
CONTINUOUS
10
4.360750551181102
20
0.4391258661417323
11
4.3649002755905508
21
0.4309815748031496
0
LINE
8
BLACK
6
CONTINUOUS
10
4.3649002755905508
20
0.4309815748031496
11
4.3702729527559052
21
0.4235866929133858
0
LINE
8
BLACK
6
CONTINUOUS
10
4.3702729527559052
20
0.4235866929133858
11
4.376736299212598
21
0.4171233464566929
0
LINE
8
BLACK
6
CONTINUOUS
10
4.376736299212598
20
0.4171233464566929
11
4.3841311811023624
21
0.4117506692913386
0
LINE
8
BLACK
6
CONTINUOUS
10
4.3841311811023624
20
0.4117506692913386
11
4.3922754724409447
21
0.4076009448818897
0
LINE
8
BLACK
6
CONTINUOUS
10
4.3922754724409447
20
0.4076009448818897
11
4.4009686220472437
21
0.4047763385826771
0
LINE
8
BLACK
6
CONTINUOUS
10
4.4009686220472437
20
0.4047763385826771
11
4.4099966535433071
21
0.4033464566929134
0
LINE
8
BLACK
6
CONTINUOUS
10
4.4099966535433071
20
0.4033464566929134
11
4.4191372047244091
21
0.4033464566929134
0
LINE
8
BLACK
6
CONTINUOUS
10
4.4191372047244091
20
0.4033464566929134
11
4.4281652362204724
21
0.4047763385826771
0
LINE
8
BLACK
6
CONTINUOUS
10
4.4281652362204724
20
0.4047763385826771
11
4.4368583858267714
21
0.4076009448818897
0
LINE
8
BLACK
6
CONTINUOUS
10
4.4368583858267714
20
0.4076009448818897
11
4.4450026771653546
21
0.4117506692913386
0
LINE
8
BLACK
6
CONTINUOUS
10
4.4450026771653546
20
0.4117506692913386
11
4.4523975590551181
21
0.4171233464566929
0
LINE
8
BLACK
6
CONTINUOUS
10
4.4523975590551181
20
0.4171233464566929
11
4.4588609055118109
21
0.4235866929133858
0
LINE
8
BLACK
6
CONTINUOUS
10
4.4588609055118109
20
0.4235866929133858
11
4.4642335826771653
21
0.4309815748031496
0
LINE
8
BLACK
6
CONTINUOUS
10
4.4642335826771653
20
0.4309815748031496
11
4.4683833070866141
21
0.4391258661417323
0
LINE
8
BLACK
6
CONTINUOUS
10
4.4683833070866141
20
0.4391258661417323
11
4.4712079133858262
21
0.4478190157480315
0
LINE
8
BLACK
6
CONTINUOUS
10
4.4712079133858262
20
0.4478190157480315
11
4.47263779527559
21
0.4568470472440945
0
LINE
8
BLACK
6
CONTINUOUS
10
4.47263779527559
20
0.4568470472440945
11
4.47263779527559
21
0.4659875984251968
0
LINE
8
BLACK
6
CONTINUOUS
10
4.47263779527559
20
0.4659875984251968
11
4.4712079133858262
21
0.4750156299212598
0
LINE
8
BLACK
6
CONTINUOUS
10
4.4712079133858262
20
0.4750156299212598
11
4.4683833070866141
21
0.483708779527559
0
LINE
8
BLACK
6
CONTINUOUS
10
4.4683833070866141
20
0.483708779527559
11
4.4642335826771653
21
0.4918530708661417
0
LINE
8
BLACK
6
CONTINUOUS
10
4.4642335826771653
20
0.4918530708661417
11
4.4588609055118109
21
0.4992479527559055
0
LINE
8
BLACK
6
CONTINUOUS
10
4.4588609055118109
20
0.4992479527559055
11
4.4523975590551181
21
0.5057112992125984
0
LINE
8
BLACK
6
CONTINUOUS
10
4.4523975590551181
20
0.5057112992125984
11
4.4450026771653546
21
0.5110839763779528
0
LINE
8
BLACK
6
CONTINUOUS
10
4.4450026771653546
20
0.5110839763779528
11
4.4368583858267714
21
0.5152337007874016
0
LINE
8
BLACK
6
CONTINUOUS
10
4.4368583858267714
20
0.5152337007874016
11
4.4281652362204724
21
0.5180583070866142
0
LINE
8
BLACK
6
CONTINUOUS
10
4.4281652362204724
20
0.5180583070866142
11
4.4191372047244091
21
0.5194881889763779
0
LINE
8
BLACK
6
CONTINUOUS
10
4.4191372047244091
20
0.5194881889763779
11
4.4099966535433071
21
0.5194881889763779
0
LINE
8
BLACK
6
CONTINUOUS
10
4.4099966535433071
20
0.5194881889763779
11
4.4009686220472437
21
0.5180583070866142
0
LINE
8
BLACK
6
CONTINUOUS
10
4.4009686220472437
20
0.5180583070866142
11
4.3922754724409447
21
0.5152337007874016
0
LINE
8
BLACK
6
CONTINUOUS
10
4.3922754724409447
20
0.5152337007874016
11
4.3841311811023624
21
0.5110839763779528
0
LINE
8
BLACK
6
CONTINUOUS
10
4.3841311811023624
20
0.5110839763779528
11
4.376736299212598
21
0.5057112992125984
0
LINE
8
BLACK
6
CONTINUOUS
10
4.376736299212598
20
0.5057112992125984
11
4.3702729527559052
21
0.4992479527559055
0
LINE
8
BLACK
6
CONTINUOUS
10
4.3702729527559052
20
0.4992479527559055
11
4.3649002755905508
21
0.4918530708661417
0
LINE
8
BLACK
6
CONTINUOUS
10
4.3649002755905508
20
0.4918530708661417
11
4.360750551181102
21
0.483708779527559
0
LINE
8
BLACK
6
CONTINUOUS
10
4.360750551181102
20
0.483708779527559
11
4.3579259448818899
21
0.4750156299212598
0
LINE
8
BLACK
6
CONTINUOUS
10
4.3579259448818899
20
0.4750156299212598
11
4.3564960629921261
21
0.4659875984251968
0
LINE
8
BLACK
6
CONTINUOUS
10
4.3564960629921261
20
0.4659875984251968
11
4.3564960629921261
21
0.4568470472440945
0
LINE
8
BLACK
6
CONTINUOUS
10
7.4238791732283467
20
0.5280257874015748
11
7.4324599606299211
21
0.5257265354330709
0
LINE
8
BLACK
6
CONTINUOUS
10
7.4324599606299211
20
0.5257265354330709
11
7.4406672440944881
21
0.522326968503937
0
LINE
8
BLACK
6
CONTINUOUS
10
7.4406672440944881
20
0.522326968503937
11
7.4483605905511805
21
0.5178852362204724
0
LINE
8
BLACK
6
CONTINUOUS
10
7.4483605905511805
20
0.5178852362204724
11
7.4554083464566929
21
0.5124773228346456
0
LINE
8
BLACK
6
CONTINUOUS
10
7.4554083464566929
20
0.5124773228346456
11
7.4616899212598424
21
0.506195748031496
0
LINE
8
BLACK
6
CONTINUOUS
10
7.4616899212598424
20
0.506195748031496
11
7.4670978346456689
21
0.4991479921259843
0
LINE
8
BLACK
6
CONTINUOUS
10
7.4670978346456689
20
0.4991479921259843
11
7.4715395669291338
21
0.4914546456692913
0
LINE
8
BLACK
6
CONTINUOUS
10
7.4715395669291338
20
0.4914546456692913
11
7.4749391338582676
21
0.4832473622047244
0
LINE
8
BLACK
6
CONTINUOUS
10
7.4749391338582676
20
0.4832473622047244
11
7.4772383858267712
21
0.4746665748031496
0
LINE
8
BLACK
6
CONTINUOUS
10
7.4772383858267712
20
0.4746665748031496
11
7.4783979133858267
21
0.4658590551181102
0
LINE
8
BLACK
6
CONTINUOUS
10
7.4783979133858267
20
0.4658590551181102
11
7.4783979133858267
21
0.4569755905511811
0
LINE
8
BLACK
6
CONTINUOUS
10
7.4783979133858267
20
0.4569755905511811
11
7.4772383858267712
21
0.4481680708661417
0
LINE
8
BLACK
6
CONTINUOUS
10
7.4772383858267712
20
0.4481680708661417
11
7.4749391338582676
21
0.4395872834645669
0
LINE
8
BLACK
6
CONTINUOUS
10
7.4749391338582676
20
0.4395872834645669
11
7.4715395669291338
21
0.43138
0
LINE
8
BLACK
6
CONTINUOUS
10
7.4715395669291338
20
0.43138
11
7.4670978346456689
21
0.4236866535433071
0
LINE
8
BLACK
6
CONTINUOUS
10
7.4670978346456689
20
0.4236866535433071
11
7.4616899212598424
21
0.4166388976377953
0
LINE
8
BLACK
6
CONTINUOUS
10
7.4616899212598424
20
0.4166388976377953
11
7.4554083464566929
21
0.4103573228346457
0
LINE
8
BLACK
6
CONTINUOUS
10
7.4554083464566929
20
0.4103573228346457
11
7.4483605905511805
21
0.4049494094488189
0
LINE
8
BLACK
6
CONTINUOUS
10
7.4483605905511805
20
0.4049494094488189
11
7.4406672440944881
21
0.4005076771653543
0
LINE
8
BLACK
6
CONTINUOUS
10
7.4406672440944881
20
0.4005076771653543
11
7.4324599606299211
21
0.3971081102362204
0
LINE
8
BLACK
6
CONTINUOUS
10
7.4324599606299211
20
0.3971081102362204
11
7.4238791732283467
21
0.3948088582677165
0
LINE
8
BLACK
6
CONTINUOUS
10
7.4238791732283467
20
0.3948088582677165
11
7.4150716535433068
21
0.3936493307086614
0
LINE
8
BLACK
6
CONTINUOUS
10
7.4150716535433068
20
0.3936493307086614
11
7.4061881889763779
21
0.3936493307086614
0
LINE
8
BLACK
6
CONTINUOUS
10
7.4061881889763779
20
0.3936493307086614
11
7.397380669291338
21
0.3948088582677165
0
LINE
8
BLACK
6
CONTINUOUS
10
7.397380669291338
20
0.3948088582677165
11
7.3887998818897636
21
0.3971081102362204
0
LINE
8
BLACK
6
CONTINUOUS
10
7.3887998818897636
20
0.3971081102362204
11
7.3805925984251965
21
0.4005076771653543
0
LINE
8
BLACK
6
CONTINUOUS
10
7.3805925984251965
20
0.4005076771653543
11
7.3728992519685042
21
0.4049494094488189
0
LINE
8
BLACK
6
CONTINUOUS
10
7.3728992519685042
20
0.4049494094488189
11
7.3658514960629917
21
0.4103573228346457
0
LINE
8
BLACK
6
CONTINUOUS
10
7.3658514960629917
20
0.4103573228346457
11
7.3595699212598422
21
0.4166388976377953
0
LINE
8
BLACK
6
CONTINUOUS
10
7.3595699212598422
20
0.4166388976377953
11
7.3541620078740157
21
0.4236866535433071
0
LINE
8
BLACK
6
CONTINUOUS
10
7.3541620078740157
20
0.4236866535433071
11
7.3497202755905509
21
0.43138
0
LINE
8
BLACK
6
CONTINUOUS
10
7.3497202755905509
20
0.43138
11
7.3463207086614171
21
0.4395872834645669
0
LINE
8
BLACK
6
CONTINUOUS
10
7.3463207086614171
20
0.4395872834645669
11
7.3440214566929134
21
0.4481680708661417
0
LINE
8
BLACK
6
CONTINUOUS
10
7.3440214566929134
20
0.4481680708661417
11
7.3428619291338579
21
0.4569755905511811
0
LINE
8
BLACK
6
CONTINUOUS
10
7.3428619291338579
20
0.4569755905511811
11
7.3428619291338579
21
0.4658590551181102
0
LINE
8
BLACK
6
CONTINUOUS
10
7.3428619291338579
20
0.4658590551181102
11
7.3428788582677162
21
0.4659875984251968
0
LINE
8
BLACK
6
CONTINUOUS
10
7.3428788582677162
20
0.4659875984251968
11
7.3440214566929134
21
0.4746665748031496
0
LINE
8
BLACK
6
CONTINUOUS
10
7.3440214566929134
20
0.4746665748031496
11
7.3463207086614171
21
0.4832473622047244
0
LINE
8
BLACK
6
CONTINUOUS
10
7.3463207086614171
20
0.4832473622047244
11
7.3497202755905509
21
0.4914546456692913
0
LINE
8
BLACK
6
CONTINUOUS
10
7.3497202755905509
20
0.4914546456692913
11
7.3541620078740157
21
0.4991479921259843
0
LINE
8
BLACK
6
CONTINUOUS
10
7.3541620078740157
20
0.4991479921259843
11
7.3595699212598422
21
0.506195748031496
0
LINE
8
BLACK
6
CONTINUOUS
10
7.3595699212598422
20
0.506195748031496
11
7.3658514960629917
21
0.5124773228346456
0
LINE
8
BLACK
6
CONTINUOUS
10
7.3658514960629917
20
0.5124773228346456
11
7.3728992519685042
21
0.5178852362204724
0
LINE
8
BLACK
6
CONTINUOUS
10
7.3728992519685042
20
0.5178852362204724
11
7.3805925984251965
21
0.522326968503937
0
LINE
8
BLACK
6
CONTINUOUS
10
7.3805925984251965
20
0.522326968503937
11
7.3887998818897636
21
0.5257265354330709
0
LINE
8
BLACK
6
CONTINUOUS
10
7.3887998818897636
20
0.5257265354330709
11
7.397380669291338
21
0.5280257874015748
0
LINE
8
BLACK
6
CONTINUOUS
10
7.397380669291338
20
0.5280257874015748
11
7.4061881889763779
21
0.5291853149606299
0
LINE
8
BLACK
6
CONTINUOUS
10
7.4061881889763779
20
0.5291853149606299
11
7.4150716535433068
21
0.5291853149606299
0
LINE
8
BLACK
6
CONTINUOUS
10
7.4150716535433068
20
0.5291853149606299
11
7.4238791732283467
21
0.5280257874015748
0
LINE
8
BLACK
6
CONTINUOUS
10
7.3525590551181104
20
0.4568470472440945
11
7.3539889370078741
21
0.4478190157480315
0
LINE
8
BLACK
6
CONTINUOUS
10
7.3539889370078741
20
0.4478190157480315
11
7.3568135433070863
21
0.4391258661417323
0
LINE
8
BLACK
6
CONTINUOUS
10
7.3568135433070863
20
0.4391258661417323
11
7.3609632677165351
21
0.4309815748031496
0
LINE
8
BLACK
6
CONTINUOUS
10
7.3609632677165351
20
0.4309815748031496
11
7.3663359448818895
21
0.4235866929133858
0
LINE
8
BLACK
6
CONTINUOUS
10
7.3663359448818895
20
0.4235866929133858
11
7.3727992913385823
21
0.4171233464566929
0
LINE
8
BLACK
6
CONTINUOUS
10
7.3727992913385823
20
0.4171233464566929
11
7.3801941732283467
21
0.4117506692913386
0
LINE
8
BLACK
6
CONTINUOUS
10
7.3801941732283467
20
0.4117506692913386
11
7.388338464566929
21
0.4076009448818897
0
LINE
8
BLACK
6
CONTINUOUS
10
7.388338464566929
20
0.4076009448818897
11
7.397031614173228
21
0.4047763385826771
0
LINE
8
BLACK
6
CONTINUOUS
10
7.397031614173228
20
0.4047763385826771
11
7.4060596456692913
21
0.4033464566929134
0
LINE
8
BLACK
6
CONTINUOUS
10
7.4060596456692913
20
0.4033464566929134
11
7.4152001968503933
21
0.4033464566929134
0
LINE
8
BLACK
6
CONTINUOUS
10
7.4152001968503933
20
0.4033464566929134
11
7.4242282283464567
21
0.4047763385826771
0
LINE
8
BLACK
6
CONTINUOUS
10
7.4242282283464567
20
0.4047763385826771
11
7.4329213779527556
21
0.4076009448818897
0
LINE
8
BLACK
6
CONTINUOUS
10
7.4329213779527556
20
0.4076009448818897
11
7.4410656692913388
21
0.4117506692913386
0
LINE
8
BLACK
6
CONTINUOUS
10
7.4410656692913388
20
0.4117506692913386
11
7.4484605511811024
21
0.4171233464566929
0
LINE
8
BLACK
6
CONTINUOUS
10
7.4484605511811024
20
0.4171233464566929
11
7.4549238976377952
21
0.4235866929133858
0
LINE
8
BLACK
6
CONTINUOUS
10
7.4549238976377952
20
0.4235866929133858
11
7.4602965748031496
21
0.4309815748031496
0
LINE
8
BLACK
6
CONTINUOUS
10
7.4602965748031496
20
0.4309815748031496
11
7.4644462992125984
21
0.4391258661417323
0
LINE
8
BLACK
6
CONTINUOUS
10
7.4644462992125984
20
0.4391258661417323
11
7.4672709055118105
21
0.4478190157480315
0
LINE
8
BLACK
6
CONTINUOUS
10
7.4672709055118105
20
0.4478190157480315
11
7.4687007874015743
21
0.4568470472440945
0
LINE
8
BLACK
6
CONTINUOUS
10
7.4687007874015743
20
0.4568470472440945
11
7.4687007874015743
21
0.4659875984251968
0
LINE
8
BLACK
6
CONTINUOUS
10
7.4687007874015743
20
0.4659875984251968
11
7.4672709055118105
21
0.4750156299212598
0
LINE
8
BLACK
6
CONTINUOUS
10
7.4672709055118105
20
0.4750156299212598
11
7.4644462992125984
21
0.483708779527559
0
LINE
8
BLACK
6
CONTINUOUS
10
7.4644462992125984
20
0.483708779527559
11
7.4602965748031496
21
0.4918530708661417
0
LINE
8
BLACK
6
CONTINUOUS
10
7.4602965748031496
20
0.4918530708661417
11
7.4549238976377952
21
0.4992479527559055
0
LINE
8
BLACK
6
CONTINUOUS
10
7.4549238976377952
20
0.4992479527559055
11
7.4484605511811024
21
0.5057112992125984
0
LINE
8
BLACK
6
CONTINUOUS
10
7.4484605511811024
20
0.5057112992125984
11
7.4410656692913388
21
0.5110839763779528
0
LINE
8
BLACK
6
CONTINUOUS
10
7.4410656692913388
20
0.5110839763779528
11
7.4329213779527556
21
0.5152337007874016
0
LINE
8
BLACK
6
CONTINUOUS
10
7.4329213779527556
20
0.5152337007874016
11
7.4242282283464567
21
0.5180583070866142
0
LINE
8
BLACK
6
CONTINUOUS
10
7.4242282283464567
20
0.5180583070866142
11
7.4152001968503933
21
0.5194881889763779
0
LINE
8
BLACK
6
CONTINUOUS
10
7.4152001968503933
20
0.5194881889763779
11
7.4060596456692913
21
0.5194881889763779
0
LINE
8
BLACK
6
CONTINUOUS
10
7.4060596456692913
20
0.5194881889763779
11
7.397031614173228
21
0.5180583070866142
0
LINE
8
BLACK
6
CONTINUOUS
10
7.397031614173228
20
0.5180583070866142
11
7.388338464566929
21
0.5152337007874016
0
LINE
8
BLACK
6
CONTINUOUS
10
7.388338464566929
20
0.5152337007874016
11
7.3801941732283467
21
0.5110839763779528
0
LINE
8
BLACK
6
CONTINUOUS
10
7.3801941732283467
20
0.5110839763779528
11
7.3727992913385823
21
0.5057112992125984
0
LINE
8
BLACK
6
CONTINUOUS
10
7.3727992913385823
20
0.5057112992125984
11
7.3663359448818895
21
0.4992479527559055
0
LINE
8
BLACK
6
CONTINUOUS
10
7.3663359448818895
20
0.4992479527559055
11
7.3609632677165351
21
0.4918530708661417
0
LINE
8
BLACK
6
CONTINUOUS
10
7.3609632677165351
20
0.4918530708661417
11
7.3568135433070863
21
0.483708779527559
0
LINE
8
BLACK
6
CONTINUOUS
10
7.3568135433070863
20
0.483708779527559
11
7.3539889370078741
21
0.4750156299212598
0
LINE
8
BLACK
6
CONTINUOUS
10
7.3539889370078741
20
0.4750156299212598
11
7.3525590551181104
21
0.4659875984251968
0
LINE
8
BLACK
6
CONTINUOUS
10
7.3525590551181104
20
0.4659875984251968
11
7.3525590551181104
21
0.4568470472440945
0
LINE
8
BLACK
6
CONTINUOUS
10
7.6261569291338578
20
0.6217558267716535
11
7.6279309448818893
21
0.6210210236220473
0
LINE
8
BLACK
6
CONTINUOUS
10
7.6279309448818893
20
0.6210210236220473
11
7.62928874015748
21
0.6196632283464567
0
LINE
8
BLACK
6
CONTINUOUS
10
7.62928874015748
20
0.6196632283464567
11
7.6300235433070869
21
0.6178892125984252
0
LINE
8
BLACK
6
CONTINUOUS
10
7.6300235433070869
20
0.6178892125984252
11
7.6301181102362206
21
0.6169291338582678
0
LINE
8
BLACK
6
CONTINUOUS
10
7.6301181102362206
20
0.6169291338582678
11
7.6301181102362206
21
-12.2374015748031493
0
LINE
8
BLACK
6
CONTINUOUS
10
7.6301181102362206
20
-12.2374015748031493
11
7.6300235433070869
21
-12.238361653543306
0
LINE
8
BLACK
6
CONTINUOUS
10
7.6300235433070869
20
-12.238361653543306
11
7.62928874015748
21
-12.2401356692913375
0
LINE
8
BLACK
6
CONTINUOUS
10
7.62928874015748
20
-12.2401356692913375
11
7.6279309448818893
21
-12.2414934645669291
0
LINE
8
BLACK
6
CONTINUOUS
10
7.6279309448818893
20
-12.2414934645669291
11
7.6261569291338578
21
-12.2422282677165359
0
LINE
8
BLACK
6
CONTINUOUS
10
7.6261569291338578
20
-12.2422282677165359
11
7.6251968503937002
21
-12.2423228346456696
0
LINE
8
BLACK
6
CONTINUOUS
10
7.6251968503937002
20
-12.2423228346456696
11
4.2000000000000002
21
-12.2423228346456696
0
LINE
8
BLACK
6
CONTINUOUS
10
4.2000000000000002
20
-12.2423228346456696
11
4.1990399212598426
21
-12.2422282677165359
0
LINE
8
BLACK
6
CONTINUOUS
10
4.1990399212598426
20
-12.2422282677165359
11
4.1972659055118111
21
-12.2414934645669291
0
LINE
8
BLACK
6
CONTINUOUS
10
4.1972659055118111
20
-12.2414934645669291
11
4.1959081102362203
21
-12.2401356692913375
0
LINE
8
BLACK
6
CONTINUOUS
10
4.1959081102362203
20
-12.2401356692913375
11
4.1951733070866144
21
-12.238361653543306
0
LINE
8
BLACK
6
CONTINUOUS
10
4.1951733070866144
20
-12.238361653543306
11
4.1950787401574798
21
-12.2374015748031493
0
LINE
8
BLACK
6
CONTINUOUS
10
4.1950787401574798
20
-12.2374015748031493
11
4.1950787401574798
21
0.6169291338582678
0
LINE
8
BLACK
6
CONTINUOUS
10
4.1950787401574798
20
0.6169291338582678
11
4.1951733070866144
21
0.6178892125984252
0
LINE
8
BLACK
6
CONTINUOUS
10
4.1951733070866144
20
0.6178892125984252
11
4.1959081102362203
21
0.6196632283464567
0
LINE
8
BLACK
6
CONTINUOUS
10
4.1959081102362203
20
0.6196632283464567
11
4.1972659055118111
21
0.6210210236220473
0
LINE
8
BLACK
6
CONTINUOUS
10
4.1972659055118111
20
0.6210210236220473
11
4.1990399212598426
21
0.6217558267716535
0
LINE
8
BLACK
6
CONTINUOUS
10
4.1990399212598426
20
0.6217558267716535
11
4.2000000000000002
21
0.6218503937007874
0
LINE
8
BLACK
6
CONTINUOUS
10
4.2000000000000002
20
0.6218503937007874
11
7.6251968503937002
21
0.6218503937007874
0
LINE
8
BLACK
6
CONTINUOUS
10
7.6251968503937002
20
0.6218503937007874
11
7.6261569291338578
21
0.6217558267716535
0
LINE
8
BLACK
6
CONTINUOUS
10
4.2049212598425196
20
0.612007874015748
11
4.2049212598425196
21
-12.2324803149606289
0
LINE
8
BLACK
6
CONTINUOUS
10
4.2049212598425196
20
-12.2324803149606289
11
7.6202755905511808
21
-12.2324803149606289
0
LINE
8
BLACK
6
CONTINUOUS
10
7.6202755905511808
20
-12.2324803149606289
11
7.6202755905511808
21
0.612007874015748
0
LINE
8
BLACK
6
CONTINUOUS
10
7.6202755905511808
20
0.612007874015748
11
4.2049212598425196
21
0.612007874015748
  0
ENDSEC
  0
EOF
