  0
SECTION
  2
HEADER
  9
$ANGBASE
  50
0.0
  9
$ANGDIR
  70
1
  9
$MEASUREMENT
  70
0
  0
ENDSEC
  0
SECTION
  2
TABLES
  0
TABLE
  2
LTYPE
  70
4
  0
LTYPE
  5
40F
  2
CONTINUOUS
  70
0
  3
Solid line
  72
65
  73
0
  40
0.0
  0
LTYPE
  5
410
  2
DASHDOT
 70
0
  3
Dash Dot ____ _ ____ _
 72
65
 73
4
 40
2.0
 49
1.25
 49
-0.25
 49
0.25
 49
-0.25
  0
LTYPE
  5
411
  2
DASHED
 70
0
  3
Dashed __ __ __ __ __
 72
65
 73
2
 40
0.75
 49
0.5
 49
-0.25
  0
LTYPE
  5
43B
  2
DOTTED
 70
0
  3
Dotted .  .  .  .
 72
65
 73
2
 40
0.2
 49
0.0
 49
-0.2
  0
ENDTAB
  0
TABLE
  2
STYLE
  70
4
  0
STYLE
  2
KICAD
  70
0
  40
0
  41
1
  42
1
  50
0
  71
0
  3
isocp.shx
  0
STYLE
  2
KICADB
  70
0
  40
0
  41
1
  42
1
  50
0
  71
0
  3
isocp.shx
  0
STYLE
  2
KICADI
  70
0
  40
0
  41
1
  42
1
  50
15
  71
0
  3
isocp.shx
  0
STYLE
  2
KICADBI
  70
0
  40
0
  41
1
  42
1
  50
15
  71
0
  3
isocp.shx
  0
ENDTAB
  0
TABLE
  2
LAYER
  70
1
  0
LAYER
  2
BLACK
  70
0
  62
7
  6
CONTINUOUS
  0
ENDTAB
  0
ENDSEC
  0
SECTION
  2
ENTITIES
0
LINE
8
BLACK
6
CONTINUOUS
10
6.9546975196850394
20
-10.8420437007874018
11
6.9649451181102364
21
-10.8438281496062991
0
LINE
8
BLACK
6
CONTINUOUS
10
6.9649451181102364
20
-10.8438281496062991
11
6.9748001968503939
21
-10.8471559448818891
0
LINE
8
BLACK
6
CONTINUOUS
10
6.9748001968503939
20
-10.8471559448818891
11
6.9840317716535427
21
-10.8519491338582679
0
LINE
8
BLACK
6
CONTINUOUS
10
6.9840317716535427
20
-10.8519491338582679
11
6.9924235039370073
21
-10.8580953543307093
0
LINE
8
BLACK
6
CONTINUOUS
10
6.9924235039370073
20
-10.8580953543307093
11
6.9997786614173227
21
-10.8654505118110229
0
LINE
8
BLACK
6
CONTINUOUS
10
6.9997786614173227
20
-10.8654505118110229
11
7.0059248818897633
21
-10.8738422440944884
0
LINE
8
BLACK
6
CONTINUOUS
10
7.0059248818897633
20
-10.8738422440944884
11
7.0107180708661412
21
-10.8830738188976373
0
LINE
8
BLACK
6
CONTINUOUS
10
7.0107180708661412
20
-10.8830738188976373
11
7.014045866141732
21
-10.8929288976377947
0
LINE
8
BLACK
6
CONTINUOUS
10
7.014045866141732
20
-10.8929288976377947
11
7.0158303149606294
21
-10.9031764960629918
0
LINE
8
BLACK
6
CONTINUOUS
10
7.0158303149606294
20
-10.9031764960629918
11
7.0161417322834643
21
-10.9096740157480312
0
LINE
8
BLACK
6
CONTINUOUS
10
7.0161417322834643
20
-10.9096740157480312
11
7.0161417322834643
21
-11.4104047244094478
0
LINE
8
BLACK
6
CONTINUOUS
10
7.0161417322834643
20
-11.4104047244094478
11
7.0158303149606294
21
-11.4169022440944872
0
LINE
8
BLACK
6
CONTINUOUS
10
7.0158303149606294
20
-11.4169022440944872
11
7.014045866141732
21
-11.4271498425196842
0
LINE
8
BLACK
6
CONTINUOUS
10
7.014045866141732
20
-11.4271498425196842
11
7.0107180708661412
21
-11.4370049212598417
0
LINE
8
BLACK
6
CONTINUOUS
10
7.0107180708661412
20
-11.4370049212598417
11
7.0059248818897633
21
-11.4462364960629923
0
LINE
8
BLACK
6
CONTINUOUS
10
7.0059248818897633
20
-11.4462364960629923
11
6.9997786614173227
21
-11.454628228346456
0
LINE
8
BLACK
6
CONTINUOUS
10
6.9997786614173227
20
-11.454628228346456
11
6.9924235039370073
21
-11.4619833858267715
0
LINE
8
BLACK
6
CONTINUOUS
10
6.9924235039370073
20
-11.4619833858267715
11
6.9840317716535427
21
-11.4681296062992129
0
LINE
8
BLACK
6
CONTINUOUS
10
6.9840317716535427
20
-11.4681296062992129
11
6.9748001968503939
21
-11.4729227952755899
0
LINE
8
BLACK
6
CONTINUOUS
10
6.9748001968503939
20
-11.4729227952755899
11
6.9649451181102364
21
-11.4762505905511816
0
LINE
8
BLACK
6
CONTINUOUS
10
6.9649451181102364
20
-11.4762505905511816
11
6.9546975196850394
21
-11.478035039370079
0
LINE
8
BLACK
6
CONTINUOUS
10
6.9546975196850394
20
-11.478035039370079
11
6.9481999999999999
21
-11.478346456692913
0
LINE
8
BLACK
6
CONTINUOUS
10
6.9481999999999999
20
-11.478346456692913
11
4.8254220472440945
21
-11.478346456692913
0
LINE
8
BLACK
6
CONTINUOUS
10
4.8254220472440945
20
-11.478346456692913
11
4.8189245275590551
21
-11.478035039370079
0
LINE
8
BLACK
6
CONTINUOUS
10
4.8189245275590551
20
-11.478035039370079
11
4.808676929133858
21
-11.4762505905511816
0
LINE
8
BLACK
6
CONTINUOUS
10
4.808676929133858
20
-11.4762505905511816
11
4.7988218503937006
21
-11.4729227952755899
0
LINE
8
BLACK
6
CONTINUOUS
10
4.7988218503937006
20
-11.4729227952755899
11
4.7895902755905508
21
-11.4681296062992129
0
LINE
8
BLACK
6
CONTINUOUS
10
4.7895902755905508
20
-11.4681296062992129
11
4.7811985433070863
21
-11.4619833858267715
0
LINE
8
BLACK
6
CONTINUOUS
10
4.7811985433070863
20
-11.4619833858267715
11
4.7738433858267717
21
-11.454628228346456
0
LINE
8
BLACK
6
CONTINUOUS
10
4.7738433858267717
20
-11.454628228346456
11
4.7676971653543303
21
-11.4462364960629923
0
LINE
8
BLACK
6
CONTINUOUS
10
4.7676971653543303
20
-11.4462364960629923
11
4.7629039763779524
21
-11.4370049212598417
0
LINE
8
BLACK
6
CONTINUOUS
10
4.7629039763779524
20
-11.4370049212598417
11
4.7595761811023625
21
-11.4271498425196842
0
LINE
8
BLACK
6
CONTINUOUS
10
4.7595761811023625
20
-11.4271498425196842
11
4.7577917322834642
21
-11.4169022440944872
0
LINE
8
BLACK
6
CONTINUOUS
10
4.7577917322834642
20
-11.4169022440944872
11
4.7574803149606302
21
-11.4104047244094478
0
LINE
8
BLACK
6
CONTINUOUS
10
4.7574803149606302
20
-11.4104047244094478
11
4.7574803149606302
21
-10.9096740157480312
0
LINE
8
BLACK
6
CONTINUOUS
10
4.7574803149606302
20
-10.9096740157480312
11
4.7577917322834642
21
-10.9031764960629918
0
LINE
8
BLACK
6
CONTINUOUS
10
4.7577917322834642
20
-10.9031764960629918
11
4.7595761811023625
21
-10.8929288976377947
0
LINE
8
BLACK
6
CONTINUOUS
10
4.7595761811023625
20
-10.8929288976377947
11
4.7629039763779524
21
-10.8830738188976373
0
LINE
8
BLACK
6
CONTINUOUS
10
4.7629039763779524
20
-10.8830738188976373
11
4.7676971653543303
21
-10.8738422440944884
0
LINE
8
BLACK
6
CONTINUOUS
10
4.7676971653543303
20
-10.8738422440944884
11
4.7738433858267717
21
-10.8654505118110229
0
LINE
8
BLACK
6
CONTINUOUS
10
4.7738433858267717
20
-10.8654505118110229
11
4.7811985433070863
21
-10.8580953543307093
0
LINE
8
BLACK
6
CONTINUOUS
10
4.7811985433070863
20
-10.8580953543307093
11
4.7895902755905508
21
-10.8519491338582679
0
LINE
8
BLACK
6
CONTINUOUS
10
4.7895902755905508
20
-10.8519491338582679
11
4.7988218503937006
21
-10.8471559448818891
0
LINE
8
BLACK
6
CONTINUOUS
10
4.7988218503937006
20
-10.8471559448818891
11
4.808676929133858
21
-10.8438281496062991
0
LINE
8
BLACK
6
CONTINUOUS
10
4.808676929133858
20
-10.8438281496062991
11
4.8189245275590551
21
-10.8420437007874018
0
LINE
8
BLACK
6
CONTINUOUS
10
4.8189245275590551
20
-10.8420437007874018
11
4.8254220472440945
21
-10.841732283464566
0
LINE
8
BLACK
6
CONTINUOUS
10
4.8254220472440945
20
-10.841732283464566
11
6.9481999999999999
21
-10.841732283464566
0
LINE
8
BLACK
6
CONTINUOUS
10
6.9481999999999999
20
-10.841732283464566
11
6.9546975196850394
21
-10.8420437007874018
0
LINE
8
BLACK
6
CONTINUOUS
10
5.1787401574803145
20
-10.3405511811023612
11
4.8547244094488189
21
-10.3405511811023612
0
LINE
8
BLACK
6
CONTINUOUS
10
4.8547244094488189
20
-10.3405511811023612
11
4.8547244094488189
21
-10.0452755905511815
0
LINE
8
BLACK
6
CONTINUOUS
10
4.8547244094488189
20
-10.0452755905511815
11
5.1787401574803145
21
-10.0452755905511815
0
LINE
8
BLACK
6
CONTINUOUS
10
5.1787401574803145
20
-10.0452755905511815
11
5.1787401574803145
21
-10.3405511811023612
0
LINE
8
BLACK
6
CONTINUOUS
10
5.9826771653543309
20
-10.3405511811023612
11
5.6559055118110235
21
-10.3405511811023612
0
LINE
8
BLACK
6
CONTINUOUS
10
5.6559055118110235
20
-10.3405511811023612
11
5.6559055118110235
21
-10.0452755905511815
0
LINE
8
BLACK
6
CONTINUOUS
10
5.6559055118110235
20
-10.0452755905511815
11
5.9826771653543309
21
-10.0452755905511815
0
LINE
8
BLACK
6
CONTINUOUS
10
5.9826771653543309
20
-10.0452755905511815
11
5.9826771653543309
21
-10.3405511811023612
0
LINE
8
BLACK
6
CONTINUOUS
10
6.7929133858267718
20
-10.3405511811023612
11
6.4661417322834644
21
-10.3405511811023612
0
LINE
8
BLACK
6
CONTINUOUS
10
6.4661417322834644
20
-10.3405511811023612
11
6.4661417322834644
21
-10.0452755905511815
0
LINE
8
BLACK
6
CONTINUOUS
10
6.4661417322834644
20
-10.0452755905511815
11
6.7929133858267718
21
-10.0452755905511815
0
LINE
8
BLACK
6
CONTINUOUS
10
6.7929133858267718
20
-10.0452755905511815
11
6.7929133858267718
21
-10.3405511811023612
0
LINE
8
BLACK
6
CONTINUOUS
10
7.273324488188976
20
-10.0460630314960628
11
7.2788980314960625
21
-10.0483716535433061
0
LINE
8
BLACK
6
CONTINUOUS
10
7.2788980314960625
20
-10.0483716535433061
11
7.2836841732283464
21
-10.0520441732283459
0
LINE
8
BLACK
6
CONTINUOUS
10
7.2836841732283464
20
-10.0520441732283459
11
7.2873566929133853
21
-10.0568303149606297
0
LINE
8
BLACK
6
CONTINUOUS
10
7.2873566929133853
20
-10.0568303149606297
11
7.2896653149606294
21
-10.0624038582677162
0
LINE
8
BLACK
6
CONTINUOUS
10
7.2896653149606294
20
-10.0624038582677162
11
7.2904527559055117
21
-10.068385039370078
0
LINE
8
BLACK
6
CONTINUOUS
10
7.2904527559055117
20
-10.068385039370078
11
7.2904527559055117
21
-10.3174417322834646
0
LINE
8
BLACK
6
CONTINUOUS
10
7.2904527559055117
20
-10.3174417322834646
11
7.2896653149606294
21
-10.3234229133858264
0
LINE
8
BLACK
6
CONTINUOUS
10
7.2896653149606294
20
-10.3234229133858264
11
7.2873566929133853
21
-10.3289964566929129
0
LINE
8
BLACK
6
CONTINUOUS
10
7.2873566929133853
20
-10.3289964566929129
11
7.2836841732283464
21
-10.3337825984251968
0
LINE
8
BLACK
6
CONTINUOUS
10
7.2836841732283464
20
-10.3337825984251968
11
7.2788980314960625
21
-10.3374551181102365
0
LINE
8
BLACK
6
CONTINUOUS
10
7.2788980314960625
20
-10.3374551181102365
11
7.273324488188976
21
-10.3397637401574798
0
LINE
8
BLACK
6
CONTINUOUS
10
7.273324488188976
20
-10.3397637401574798
11
7.2673433070866142
21
-10.3405511811023612
0
LINE
8
BLACK
6
CONTINUOUS
10
7.2673433070866142
20
-10.3405511811023612
11
7.0970267716535433
21
-10.3405511811023612
0
LINE
8
BLACK
6
CONTINUOUS
10
7.0970267716535433
20
-10.3405511811023612
11
7.0910455905511807
21
-10.3397637401574798
0
LINE
8
BLACK
6
CONTINUOUS
10
7.0910455905511807
20
-10.3397637401574798
11
7.0854720472440942
21
-10.3374551181102365
0
LINE
8
BLACK
6
CONTINUOUS
10
7.0854720472440942
20
-10.3374551181102365
11
7.0806859055118112
21
-10.3337825984251968
0
LINE
8
BLACK
6
CONTINUOUS
10
7.0806859055118112
20
-10.3337825984251968
11
7.0770133858267714
21
-10.3289964566929129
0
LINE
8
BLACK
6
CONTINUOUS
10
7.0770133858267714
20
-10.3289964566929129
11
7.0747047637795273
21
-10.3234229133858264
0
LINE
8
BLACK
6
CONTINUOUS
10
7.0747047637795273
20
-10.3234229133858264
11
7.0739173228346459
21
-10.3174417322834646
0
LINE
8
BLACK
6
CONTINUOUS
10
7.0739173228346459
20
-10.3174417322834646
11
7.0739173228346459
21
-10.068385039370078
0
LINE
8
BLACK
6
CONTINUOUS
10
7.0739173228346459
20
-10.068385039370078
11
7.0747047637795273
21
-10.0624038582677162
0
LINE
8
BLACK
6
CONTINUOUS
10
7.0747047637795273
20
-10.0624038582677162
11
7.0770133858267714
21
-10.0568303149606297
0
LINE
8
BLACK
6
CONTINUOUS
10
7.0770133858267714
20
-10.0568303149606297
11
7.0806859055118112
21
-10.0520441732283459
0
LINE
8
BLACK
6
CONTINUOUS
10
7.0806859055118112
20
-10.0520441732283459
11
7.0854720472440942
21
-10.0483716535433061
0
LINE
8
BLACK
6
CONTINUOUS
10
7.0854720472440942
20
-10.0483716535433061
11
7.0910455905511807
21
-10.0460630314960628
0
LINE
8
BLACK
6
CONTINUOUS
10
7.0910455905511807
20
-10.0460630314960628
11
7.0970267716535433
21
-10.0452755905511815
0
LINE
8
BLACK
6
CONTINUOUS
10
7.0970267716535433
20
-10.0452755905511815
11
7.2673433070866142
21
-10.0452755905511815
0
LINE
8
BLACK
6
CONTINUOUS
10
7.2673433070866142
20
-10.0452755905511815
11
7.273324488188976
21
-10.0460630314960628
0
LINE
8
BLACK
6
CONTINUOUS
10
6.9575518503937008
20
-8.9869255905511807
11
6.9677994488188979
21
-8.9887100393700781
0
LINE
8
BLACK
6
CONTINUOUS
10
6.9677994488188979
20
-8.9887100393700781
11
6.9776545275590554
21
-8.9920378346456697
0
LINE
8
BLACK
6
CONTINUOUS
10
6.9776545275590554
20
-8.9920378346456697
11
6.9868861023622042
21
-8.9968310236220468
0
LINE
8
BLACK
6
CONTINUOUS
10
6.9868861023622042
20
-8.9968310236220468
11
6.9952778346456688
21
-9.0029772440944882
0
LINE
8
BLACK
6
CONTINUOUS
10
6.9952778346456688
20
-9.0029772440944882
11
7.0026329921259842
21
-9.0103324015748036
0
LINE
8
BLACK
6
CONTINUOUS
10
7.0026329921259842
20
-9.0103324015748036
11
7.0087792125984247
21
-9.0187241338582673
0
LINE
8
BLACK
6
CONTINUOUS
10
7.0087792125984247
20
-9.0187241338582673
11
7.0135724015748027
21
-9.0279557086614179
0
LINE
8
BLACK
6
CONTINUOUS
10
7.0135724015748027
20
-9.0279557086614179
11
7.0169001968503935
21
-9.0378107874015754
0
LINE
8
BLACK
6
CONTINUOUS
10
7.0169001968503935
20
-9.0378107874015754
11
7.0186846456692908
21
-9.0480583858267707
0
LINE
8
BLACK
6
CONTINUOUS
10
7.0186846456692908
20
-9.0480583858267707
11
7.0189960629921258
21
-9.0545559055118101
0
LINE
8
BLACK
6
CONTINUOUS
10
7.0189960629921258
20
-9.0545559055118101
11
7.0189960629921258
21
-9.5552866141732284
0
LINE
8
BLACK
6
CONTINUOUS
10
7.0189960629921258
20
-9.5552866141732284
11
7.0186846456692908
21
-9.5617841338582679
0
LINE
8
BLACK
6
CONTINUOUS
10
7.0186846456692908
20
-9.5617841338582679
11
7.0169001968503935
21
-9.5720317322834649
0
LINE
8
BLACK
6
CONTINUOUS
10
7.0169001968503935
20
-9.5720317322834649
11
7.0135724015748027
21
-9.5818868110236224
0
LINE
8
BLACK
6
CONTINUOUS
10
7.0135724015748027
20
-9.5818868110236224
11
7.0087792125984247
21
-9.5911183858267712
0
LINE
8
BLACK
6
CONTINUOUS
10
7.0087792125984247
20
-9.5911183858267712
11
7.0026329921259842
21
-9.5995101181102367
0
LINE
8
BLACK
6
CONTINUOUS
10
7.0026329921259842
20
-9.5995101181102367
11
6.9952778346456688
21
-9.6068652755905504
0
LINE
8
BLACK
6
CONTINUOUS
10
6.9952778346456688
20
-9.6068652755905504
11
6.9868861023622042
21
-9.6130114960629918
0
LINE
8
BLACK
6
CONTINUOUS
10
6.9868861023622042
20
-9.6130114960629918
11
6.9776545275590554
21
-9.6178046850393706
0
LINE
8
BLACK
6
CONTINUOUS
10
6.9776545275590554
20
-9.6178046850393706
11
6.9677994488188979
21
-9.6211324803149605
0
LINE
8
BLACK
6
CONTINUOUS
10
6.9677994488188979
20
-9.6211324803149605
11
6.9575518503937008
21
-9.6229169291338579
0
LINE
8
BLACK
6
CONTINUOUS
10
6.9575518503937008
20
-9.6229169291338579
11
6.9510543307086614
21
-9.6232283464566919
0
LINE
8
BLACK
6
CONTINUOUS
10
6.9510543307086614
20
-9.6232283464566919
11
4.828276377952756
21
-9.6232283464566919
0
LINE
8
BLACK
6
CONTINUOUS
10
4.828276377952756
20
-9.6232283464566919
11
4.8217788582677166
21
-9.6229169291338579
0
LINE
8
BLACK
6
CONTINUOUS
10
4.8217788582677166
20
-9.6229169291338579
11
4.8115312598425195
21
-9.6211324803149605
0
LINE
8
BLACK
6
CONTINUOUS
10
4.8115312598425195
20
-9.6211324803149605
11
4.8016761811023621
21
-9.6178046850393706
0
LINE
8
BLACK
6
CONTINUOUS
10
4.8016761811023621
20
-9.6178046850393706
11
4.7924446062992123
21
-9.6130114960629918
0
LINE
8
BLACK
6
CONTINUOUS
10
4.7924446062992123
20
-9.6130114960629918
11
4.7840528740157477
21
-9.6068652755905504
0
LINE
8
BLACK
6
CONTINUOUS
10
4.7840528740157477
20
-9.6068652755905504
11
4.7766977165354332
21
-9.5995101181102367
0
LINE
8
BLACK
6
CONTINUOUS
10
4.7766977165354332
20
-9.5995101181102367
11
4.7705514960629918
21
-9.5911183858267712
0
LINE
8
BLACK
6
CONTINUOUS
10
4.7705514960629918
20
-9.5911183858267712
11
4.7657583070866139
21
-9.5818868110236224
0
LINE
8
BLACK
6
CONTINUOUS
10
4.7657583070866139
20
-9.5818868110236224
11
4.7624305118110239
21
-9.5720317322834649
0
LINE
8
BLACK
6
CONTINUOUS
10
4.7624305118110239
20
-9.5720317322834649
11
4.7606460629921257
21
-9.5617841338582679
0
LINE
8
BLACK
6
CONTINUOUS
10
4.7606460629921257
20
-9.5617841338582679
11
4.7603346456692917
21
-9.5552866141732284
0
LINE
8
BLACK
6
CONTINUOUS
10
4.7603346456692917
20
-9.5552866141732284
11
4.7603346456692917
21
-9.0545559055118101
0
LINE
8
BLACK
6
CONTINUOUS
10
4.7603346456692917
20
-9.0545559055118101
11
4.7606460629921257
21
-9.0480583858267707
0
LINE
8
BLACK
6
CONTINUOUS
10
4.7606460629921257
20
-9.0480583858267707
11
4.7624305118110239
21
-9.0378107874015754
0
LINE
8
BLACK
6
CONTINUOUS
10
4.7624305118110239
20
-9.0378107874015754
11
4.7657583070866139
21
-9.0279557086614179
0
LINE
8
BLACK
6
CONTINUOUS
10
4.7657583070866139
20
-9.0279557086614179
11
4.7705514960629918
21
-9.0187241338582673
0
LINE
8
BLACK
6
CONTINUOUS
10
4.7705514960629918
20
-9.0187241338582673
11
4.7766977165354332
21
-9.0103324015748036
0
LINE
8
BLACK
6
CONTINUOUS
10
4.7766977165354332
20
-9.0103324015748036
11
4.7840528740157477
21
-9.0029772440944882
0
LINE
8
BLACK
6
CONTINUOUS
10
4.7840528740157477
20
-9.0029772440944882
11
4.7924446062992123
21
-8.9968310236220468
0
LINE
8
BLACK
6
CONTINUOUS
10
4.7924446062992123
20
-8.9968310236220468
11
4.8016761811023621
21
-8.9920378346456697
0
LINE
8
BLACK
6
CONTINUOUS
10
4.8016761811023621
20
-8.9920378346456697
11
4.8115312598425195
21
-8.9887100393700781
0
LINE
8
BLACK
6
CONTINUOUS
10
4.8115312598425195
20
-8.9887100393700781
11
4.8217788582677166
21
-8.9869255905511807
0
LINE
8
BLACK
6
CONTINUOUS
10
4.8217788582677166
20
-8.9869255905511807
11
4.828276377952756
21
-8.9866141732283467
0
LINE
8
BLACK
6
CONTINUOUS
10
4.828276377952756
20
-8.9866141732283467
11
6.9510543307086614
21
-8.9866141732283467
0
LINE
8
BLACK
6
CONTINUOUS
10
6.9510543307086614
20
-8.9866141732283467
11
6.9575518503937008
21
-8.9869255905511807
0
LINE
8
BLACK
6
CONTINUOUS
10
5.1815944881889759
20
-8.4854330708661418
11
4.8575787401574804
21
-8.4854330708661418
0
LINE
8
BLACK
6
CONTINUOUS
10
4.8575787401574804
20
-8.4854330708661418
11
4.8575787401574804
21
-8.1901574803149604
0
LINE
8
BLACK
6
CONTINUOUS
10
4.8575787401574804
20
-8.1901574803149604
11
5.1815944881889759
21
-8.1901574803149604
0
LINE
8
BLACK
6
CONTINUOUS
10
5.1815944881889759
20
-8.1901574803149604
11
5.1815944881889759
21
-8.4854330708661418
0
LINE
8
BLACK
6
CONTINUOUS
10
5.9855314960629924
20
-8.4854330708661418
11
5.658759842519685
21
-8.4854330708661418
0
LINE
8
BLACK
6
CONTINUOUS
10
5.658759842519685
20
-8.4854330708661418
11
5.658759842519685
21
-8.1901574803149604
0
LINE
8
BLACK
6
CONTINUOUS
10
5.658759842519685
20
-8.1901574803149604
11
5.9855314960629924
21
-8.1901574803149604
0
LINE
8
BLACK
6
CONTINUOUS
10
5.9855314960629924
20
-8.1901574803149604
11
5.9855314960629924
21
-8.4854330708661418
0
LINE
8
BLACK
6
CONTINUOUS
10
6.7957677165354333
20
-8.4854330708661418
11
6.4689960629921259
21
-8.4854330708661418
0
LINE
8
BLACK
6
CONTINUOUS
10
6.4689960629921259
20
-8.4854330708661418
11
6.4689960629921259
21
-8.1901574803149604
0
LINE
8
BLACK
6
CONTINUOUS
10
6.4689960629921259
20
-8.1901574803149604
11
6.7957677165354333
21
-8.1901574803149604
0
LINE
8
BLACK
6
CONTINUOUS
10
6.7957677165354333
20
-8.1901574803149604
11
6.7957677165354333
21
-8.4854330708661418
0
LINE
8
BLACK
6
CONTINUOUS
10
7.3226450787401571
20
-8.1909475590551182
11
7.3293057086614173
21
-8.1932782283464558
0
LINE
8
BLACK
6
CONTINUOUS
10
7.3293057086614173
20
-8.1932782283464558
11
7.3352807480314963
21
-8.1970325984251975
0
LINE
8
BLACK
6
CONTINUOUS
10
7.3352807480314963
20
-8.1970325984251975
11
7.3402705511811019
21
-8.2020224015748031
0
LINE
8
BLACK
6
CONTINUOUS
10
7.3402705511811019
20
-8.2020224015748031
11
7.3440249212598427
21
-8.2079974409448813
0
LINE
8
BLACK
6
CONTINUOUS
10
7.3440249212598427
20
-8.2079974409448813
11
7.3463555905511813
21
-8.2146580708661414
0
LINE
8
BLACK
6
CONTINUOUS
10
7.3463555905511813
20
-8.2146580708661414
11
7.3471456299212594
21
-8.2216703937007871
0
LINE
8
BLACK
6
CONTINUOUS
10
7.3471456299212594
20
-8.2216703937007871
11
7.3471456692913382
21
-8.4539201968503939
0
LINE
8
BLACK
6
CONTINUOUS
10
7.3471456692913382
20
-8.4539201968503939
11
7.3463555905511813
21
-8.4609324803149608
0
LINE
8
BLACK
6
CONTINUOUS
10
7.3463555905511813
20
-8.4609324803149608
11
7.3440249212598427
21
-8.467593110236221
0
LINE
8
BLACK
6
CONTINUOUS
10
7.3440249212598427
20
-8.467593110236221
11
7.3402705511811019
21
-8.4735681496062991
0
LINE
8
BLACK
6
CONTINUOUS
10
7.3402705511811019
20
-8.4735681496062991
11
7.3352807480314963
21
-8.4785579527559047
0
LINE
8
BLACK
6
CONTINUOUS
10
7.3352807480314963
20
-8.4785579527559047
11
7.3293057086614173
21
-8.4823123228346446
0
LINE
8
BLACK
6
CONTINUOUS
10
7.3293057086614173
20
-8.4823123228346446
11
7.3226450787401571
21
-8.4846429921259841
0
LINE
8
BLACK
6
CONTINUOUS
10
7.3226450787401571
20
-8.4846429921259841
11
7.3156327559055114
21
-8.4854330314960631
0
LINE
8
BLACK
6
CONTINUOUS
10
7.3156327559055114
20
-8.4854330314960631
11
7.0544459448818895
21
-8.4854330708661418
0
LINE
8
BLACK
6
CONTINUOUS
10
7.0544459448818895
20
-8.4854330708661418
11
7.0474336614173225
21
-8.4846429921259841
0
LINE
8
BLACK
6
CONTINUOUS
10
7.0474336614173225
20
-8.4846429921259841
11
7.0407730314960633
21
-8.4823123228346446
0
LINE
8
BLACK
6
CONTINUOUS
10
7.0407730314960633
20
-8.4823123228346446
11
7.0347979921259842
21
-8.4785579527559047
0
LINE
8
BLACK
6
CONTINUOUS
10
7.0347979921259842
20
-8.4785579527559047
11
7.0298081889763777
21
-8.4735681496062991
0
LINE
8
BLACK
6
CONTINUOUS
10
7.0298081889763777
20
-8.4735681496062991
11
7.0260538188976378
21
-8.467593110236221
0
LINE
8
BLACK
6
CONTINUOUS
10
7.0260538188976378
20
-8.467593110236221
11
7.0237231496062993
21
-8.4609324803149608
0
LINE
8
BLACK
6
CONTINUOUS
10
7.0237231496062993
20
-8.4609324803149608
11
7.0229331102362202
21
-8.4539201574803151
0
LINE
8
BLACK
6
CONTINUOUS
10
7.0229331102362202
20
-8.4539201574803151
11
7.0229330708661415
21
-8.2216703543307084
0
LINE
8
BLACK
6
CONTINUOUS
10
7.0229330708661415
20
-8.2216703543307084
11
7.0237231496062993
21
-8.2146580708661414
0
LINE
8
BLACK
6
CONTINUOUS
10
7.0237231496062993
20
-8.2146580708661414
11
7.0260538188976378
21
-8.2079974409448813
0
LINE
8
BLACK
6
CONTINUOUS
10
7.0260538188976378
20
-8.2079974409448813
11
7.0298081889763777
21
-8.2020224015748031
0
LINE
8
BLACK
6
CONTINUOUS
10
7.0298081889763777
20
-8.2020224015748031
11
7.0347979921259842
21
-8.1970325984251975
0
LINE
8
BLACK
6
CONTINUOUS
10
7.0347979921259842
20
-8.1970325984251975
11
7.0407730314960633
21
-8.1932782283464558
0
LINE
8
BLACK
6
CONTINUOUS
10
7.0407730314960633
20
-8.1932782283464558
11
7.0474336614173225
21
-8.1909475590551182
0
LINE
8
BLACK
6
CONTINUOUS
10
7.0474336614173225
20
-8.1909475590551182
11
7.0544459842519682
21
-8.1901575196850391
0
LINE
8
BLACK
6
CONTINUOUS
10
7.0544459842519682
20
-8.1901575196850391
11
7.3156327952755902
21
-8.1901574803149604
0
LINE
8
BLACK
6
CONTINUOUS
10
7.3156327952755902
20
-8.1901574803149604
11
7.3226450787401571
21
-8.1909475590551182
0
LINE
8
BLACK
6
CONTINUOUS
10
6.9531227165354332
20
-7.3640909448818892
11
6.9633703149606294
21
-7.3658753937007875
0
LINE
8
BLACK
6
CONTINUOUS
10
6.9633703149606294
20
-7.3658753937007875
11
6.9732253937007869
21
-7.3692031889763774
0
LINE
8
BLACK
6
CONTINUOUS
10
6.9732253937007869
20
-7.3692031889763774
11
6.9824569685039366
21
-7.3739963779527553
0
LINE
8
BLACK
6
CONTINUOUS
10
6.9824569685039366
20
-7.3739963779527553
11
6.9908487007874012
21
-7.3801425984251967
0
LINE
8
BLACK
6
CONTINUOUS
10
6.9908487007874012
20
-7.3801425984251967
11
6.9982038582677166
21
-7.3874977559055113
0
LINE
8
BLACK
6
CONTINUOUS
10
6.9982038582677166
20
-7.3874977559055113
11
7.0043500787401571
21
-7.3958894881889758
0
LINE
8
BLACK
6
CONTINUOUS
10
7.0043500787401571
20
-7.3958894881889758
11
7.0091432677165351
21
-7.4051210629921256
0
LINE
8
BLACK
6
CONTINUOUS
10
7.0091432677165351
20
-7.4051210629921256
11
7.0124710629921259
21
-7.414976141732283
0
LINE
8
BLACK
6
CONTINUOUS
10
7.0124710629921259
20
-7.414976141732283
11
7.0142555118110232
21
-7.4252237401574801
0
LINE
8
BLACK
6
CONTINUOUS
10
7.0142555118110232
20
-7.4252237401574801
11
7.0145669291338582
21
-7.4317212598425195
0
LINE
8
BLACK
6
CONTINUOUS
10
7.0145669291338582
20
-7.4317212598425195
11
7.0145669291338582
21
-7.932451968503937
0
LINE
8
BLACK
6
CONTINUOUS
10
7.0145669291338582
20
-7.932451968503937
11
7.0142555118110232
21
-7.9389494881889764
0
LINE
8
BLACK
6
CONTINUOUS
10
7.0142555118110232
20
-7.9389494881889764
11
7.0124710629921259
21
-7.9491970866141735
0
LINE
8
BLACK
6
CONTINUOUS
10
7.0124710629921259
20
-7.9491970866141735
11
7.0091432677165351
21
-7.9590521653543309
0
LINE
8
BLACK
6
CONTINUOUS
10
7.0091432677165351
20
-7.9590521653543309
11
7.0043500787401571
21
-7.9682837401574798
0
LINE
8
BLACK
6
CONTINUOUS
10
7.0043500787401571
20
-7.9682837401574798
11
6.9982038582677166
21
-7.9766754724409443
0
LINE
8
BLACK
6
CONTINUOUS
10
6.9982038582677166
20
-7.9766754724409443
11
6.9908487007874012
21
-7.9840306299212598
0
LINE
8
BLACK
6
CONTINUOUS
10
6.9908487007874012
20
-7.9840306299212598
11
6.9824569685039366
21
-7.9901768503937003
0
LINE
8
BLACK
6
CONTINUOUS
10
6.9824569685039366
20
-7.9901768503937003
11
6.9732253937007869
21
-7.9949700393700782
0
LINE
8
BLACK
6
CONTINUOUS
10
6.9732253937007869
20
-7.9949700393700782
11
6.9633703149606294
21
-7.998297834645669
0
LINE
8
BLACK
6
CONTINUOUS
10
6.9633703149606294
20
-7.998297834645669
11
6.9531227165354332
21
-8.0000822834645664
0
LINE
8
BLACK
6
CONTINUOUS
10
6.9531227165354332
20
-8.0000822834645664
11
6.9466251968503938
21
-8.0003937007874022
0
LINE
8
BLACK
6
CONTINUOUS
10
6.9466251968503938
20
-8.0003937007874022
11
4.8238472440944884
21
-8.0003937007874022
0
LINE
8
BLACK
6
CONTINUOUS
10
4.8238472440944884
20
-8.0003937007874022
11
4.817349724409449
21
-8.0000822834645664
0
LINE
8
BLACK
6
CONTINUOUS
10
4.817349724409449
20
-8.0000822834645664
11
4.8071021259842519
21
-7.998297834645669
0
LINE
8
BLACK
6
CONTINUOUS
10
4.8071021259842519
20
-7.998297834645669
11
4.7972470472440945
21
-7.9949700393700782
0
LINE
8
BLACK
6
CONTINUOUS
10
4.7972470472440945
20
-7.9949700393700782
11
4.7880154724409447
21
-7.9901768503937003
0
LINE
8
BLACK
6
CONTINUOUS
10
4.7880154724409447
20
-7.9901768503937003
11
4.7796237401574801
21
-7.9840306299212598
0
LINE
8
BLACK
6
CONTINUOUS
10
4.7796237401574801
20
-7.9840306299212598
11
4.7722685826771656
21
-7.9766754724409443
0
LINE
8
BLACK
6
CONTINUOUS
10
4.7722685826771656
20
-7.9766754724409443
11
4.7661223622047242
21
-7.9682837401574798
0
LINE
8
BLACK
6
CONTINUOUS
10
4.7661223622047242
20
-7.9682837401574798
11
4.7613291732283463
21
-7.9590521653543309
0
LINE
8
BLACK
6
CONTINUOUS
10
4.7613291732283463
20
-7.9590521653543309
11
4.7580013779527555
21
-7.9491970866141735
0
LINE
8
BLACK
6
CONTINUOUS
10
4.7580013779527555
20
-7.9491970866141735
11
4.7562169291338581
21
-7.9389494881889764
0
LINE
8
BLACK
6
CONTINUOUS
10
4.7562169291338581
20
-7.9389494881889764
11
4.7559055118110232
21
-7.932451968503937
0
LINE
8
BLACK
6
CONTINUOUS
10
4.7559055118110232
20
-7.932451968503937
11
4.7559055118110232
21
-7.4317212598425195
0
LINE
8
BLACK
6
CONTINUOUS
10
4.7559055118110232
20
-7.4317212598425195
11
4.7562169291338581
21
-7.4252237401574801
0
LINE
8
BLACK
6
CONTINUOUS
10
4.7562169291338581
20
-7.4252237401574801
11
4.7580013779527555
21
-7.414976141732283
0
LINE
8
BLACK
6
CONTINUOUS
10
4.7580013779527555
20
-7.414976141732283
11
4.7613291732283463
21
-7.4051210629921256
0
LINE
8
BLACK
6
CONTINUOUS
10
4.7613291732283463
20
-7.4051210629921256
11
4.7661223622047242
21
-7.3958894881889758
0
LINE
8
BLACK
6
CONTINUOUS
10
4.7661223622047242
20
-7.3958894881889758
11
4.7722685826771656
21
-7.3874977559055113
0
LINE
8
BLACK
6
CONTINUOUS
10
4.7722685826771656
20
-7.3874977559055113
11
4.7796237401574801
21
-7.3801425984251967
0
LINE
8
BLACK
6
CONTINUOUS
10
4.7796237401574801
20
-7.3801425984251967
11
4.7880154724409447
21
-7.3739963779527553
0
LINE
8
BLACK
6
CONTINUOUS
10
4.7880154724409447
20
-7.3739963779527553
11
4.7972470472440945
21
-7.3692031889763774
0
LINE
8
BLACK
6
CONTINUOUS
10
4.7972470472440945
20
-7.3692031889763774
11
4.8071021259842519
21
-7.3658753937007875
0
LINE
8
BLACK
6
CONTINUOUS
10
4.8071021259842519
20
-7.3658753937007875
11
4.817349724409449
21
-7.3640909448818892
0
LINE
8
BLACK
6
CONTINUOUS
10
4.817349724409449
20
-7.3640909448818892
11
4.8238472440944884
21
-7.3637795275590552
0
LINE
8
BLACK
6
CONTINUOUS
10
4.8238472440944884
20
-7.3637795275590552
11
6.9466251968503938
21
-7.3637795275590552
0
LINE
8
BLACK
6
CONTINUOUS
10
6.9466251968503938
20
-7.3637795275590552
11
6.9531227165354332
21
-7.3640909448818892
0
LINE
8
BLACK
6
CONTINUOUS
10
5.1771653543307083
20
-6.8625984251968504
11
4.8531496062992128
21
-6.8625984251968504
0
LINE
8
BLACK
6
CONTINUOUS
10
4.8531496062992128
20
-6.8625984251968504
11
4.8531496062992128
21
-6.5673228346456689
0
LINE
8
BLACK
6
CONTINUOUS
10
4.8531496062992128
20
-6.5673228346456689
11
5.1771653543307083
21
-6.5673228346456689
0
LINE
8
BLACK
6
CONTINUOUS
10
5.1771653543307083
20
-6.5673228346456689
11
5.1771653543307083
21
-6.8625984251968504
0
LINE
8
BLACK
6
CONTINUOUS
10
5.9811023622047239
20
-6.8625984251968504
11
5.6543307086614174
21
-6.8625984251968504
0
LINE
8
BLACK
6
CONTINUOUS
10
5.6543307086614174
20
-6.8625984251968504
11
5.6543307086614174
21
-6.5673228346456689
0
LINE
8
BLACK
6
CONTINUOUS
10
5.6543307086614174
20
-6.5673228346456689
11
5.9811023622047239
21
-6.5673228346456689
0
LINE
8
BLACK
6
CONTINUOUS
10
5.9811023622047239
20
-6.5673228346456689
11
5.9811023622047239
21
-6.8625984251968504
0
LINE
8
BLACK
6
CONTINUOUS
10
6.7913385826771648
20
-6.8625984251968504
11
6.4645669291338583
21
-6.8625984251968504
0
LINE
8
BLACK
6
CONTINUOUS
10
6.4645669291338583
20
-6.8625984251968504
11
6.4645669291338583
21
-6.5673228346456689
0
LINE
8
BLACK
6
CONTINUOUS
10
6.4645669291338583
20
-6.5673228346456689
11
6.7913385826771648
21
-6.5673228346456689
0
LINE
8
BLACK
6
CONTINUOUS
10
6.7913385826771648
20
-6.5673228346456689
11
6.7913385826771648
21
-6.8625984251968504
0
LINE
8
BLACK
6
CONTINUOUS
10
7.3182159448818895
20
-6.5681129133858267
11
7.3248765748031497
21
-6.5704435826771652
0
LINE
8
BLACK
6
CONTINUOUS
10
7.3248765748031497
20
-6.5704435826771652
11
7.3308516141732278
21
-6.5741979527559051
0
LINE
8
BLACK
6
CONTINUOUS
10
7.3308516141732278
20
-6.5741979527559051
11
7.3358414173228343
21
-6.5791877559055116
0
LINE
8
BLACK
6
CONTINUOUS
10
7.3358414173228343
20
-6.5791877559055116
11
7.3395957874015743
21
-6.5851627952755907
0
LINE
8
BLACK
6
CONTINUOUS
10
7.3395957874015743
20
-6.5851627952755907
11
7.3419264566929137
21
-6.5918234251968499
0
LINE
8
BLACK
6
CONTINUOUS
10
7.3419264566929137
20
-6.5918234251968499
11
7.3427164960629918
21
-6.5988357480314956
0
LINE
8
BLACK
6
CONTINUOUS
10
7.3427164960629918
20
-6.5988357480314956
11
7.3427165354330706
21
-6.8310855511811024
0
LINE
8
BLACK
6
CONTINUOUS
10
7.3427165354330706
20
-6.8310855511811024
11
7.3419264566929137
21
-6.8380978346456693
0
LINE
8
BLACK
6
CONTINUOUS
10
7.3419264566929137
20
-6.8380978346456693
11
7.3395957874015743
21
-6.8447584645669286
0
LINE
8
BLACK
6
CONTINUOUS
10
7.3395957874015743
20
-6.8447584645669286
11
7.3358414173228343
21
-6.8507335039370076
0
LINE
8
BLACK
6
CONTINUOUS
10
7.3358414173228343
20
-6.8507335039370076
11
7.3308516141732278
21
-6.8557233070866141
0
LINE
8
BLACK
6
CONTINUOUS
10
7.3308516141732278
20
-6.8557233070866141
11
7.3248765748031497
21
-6.8594776771653541
0
LINE
8
BLACK
6
CONTINUOUS
10
7.3248765748031497
20
-6.8594776771653541
11
7.3182159448818895
21
-6.8618083464566926
0
LINE
8
BLACK
6
CONTINUOUS
10
7.3182159448818895
20
-6.8618083464566926
11
7.3112036220472438
21
-6.8625983858267716
0
LINE
8
BLACK
6
CONTINUOUS
10
7.3112036220472438
20
-6.8625983858267716
11
7.0500168110236219
21
-6.8625984251968504
0
LINE
8
BLACK
6
CONTINUOUS
10
7.0500168110236219
20
-6.8625984251968504
11
7.0430045275590549
21
-6.8618083464566926
0
LINE
8
BLACK
6
CONTINUOUS
10
7.0430045275590549
20
-6.8618083464566926
11
7.0363438976377948
21
-6.8594776771653541
0
LINE
8
BLACK
6
CONTINUOUS
10
7.0363438976377948
20
-6.8594776771653541
11
7.0303688582677166
21
-6.8557233070866141
0
LINE
8
BLACK
6
CONTINUOUS
10
7.0303688582677166
20
-6.8557233070866141
11
7.0253790551181101
21
-6.8507335039370076
0
LINE
8
BLACK
6
CONTINUOUS
10
7.0253790551181101
20
-6.8507335039370076
11
7.0216246850393702
21
-6.8447584645669286
0
LINE
8
BLACK
6
CONTINUOUS
10
7.0216246850393702
20
-6.8447584645669286
11
7.0192940157480317
21
-6.8380978346456693
0
LINE
8
BLACK
6
CONTINUOUS
10
7.0192940157480317
20
-6.8380978346456693
11
7.0185039763779526
21
-6.8310855118110236
0
LINE
8
BLACK
6
CONTINUOUS
10
7.0185039763779526
20
-6.8310855118110236
11
7.0185039370078739
21
-6.5988357086614169
0
LINE
8
BLACK
6
CONTINUOUS
10
7.0185039370078739
20
-6.5988357086614169
11
7.0192940157480317
21
-6.5918234251968499
0
LINE
8
BLACK
6
CONTINUOUS
10
7.0192940157480317
20
-6.5918234251968499
11
7.0216246850393702
21
-6.5851627952755907
0
LINE
8
BLACK
6
CONTINUOUS
10
7.0216246850393702
20
-6.5851627952755907
11
7.0253790551181101
21
-6.5791877559055116
0
LINE
8
BLACK
6
CONTINUOUS
10
7.0253790551181101
20
-6.5791877559055116
11
7.0303688582677166
21
-6.5741979527559051
0
LINE
8
BLACK
6
CONTINUOUS
10
7.0303688582677166
20
-6.5741979527559051
11
7.0363438976377948
21
-6.5704435826771652
0
LINE
8
BLACK
6
CONTINUOUS
10
7.0363438976377948
20
-6.5704435826771652
11
7.0430045275590549
21
-6.5681129133858267
0
LINE
8
BLACK
6
CONTINUOUS
10
7.0430045275590549
20
-6.5681129133858267
11
7.0500168503937006
21
-6.5673228740157477
0
LINE
8
BLACK
6
CONTINUOUS
10
7.0500168503937006
20
-6.5673228740157477
11
7.3112036614173226
21
-6.5673228346456689
0
LINE
8
BLACK
6
CONTINUOUS
10
7.3112036614173226
20
-6.5673228346456689
11
7.3182159448818895
21
-6.5681129133858267
0
LINE
8
BLACK
6
CONTINUOUS
10
6.9493825590551177
20
-5.741846850393701
11
6.9596301574803148
21
-5.7436312992125984
0
LINE
8
BLACK
6
CONTINUOUS
10
6.9596301574803148
20
-5.7436312992125984
11
6.9694852362204722
21
-5.7469590944881892
0
LINE
8
BLACK
6
CONTINUOUS
10
6.9694852362204722
20
-5.7469590944881892
11
6.978716811023622
21
-5.7517522834645671
0
LINE
8
BLACK
6
CONTINUOUS
10
6.978716811023622
20
-5.7517522834645671
11
6.9871085433070865
21
-5.7578985039370076
0
LINE
8
BLACK
6
CONTINUOUS
10
6.9871085433070865
20
-5.7578985039370076
11
6.9944637007874011
21
-5.7652536614173231
0
LINE
8
BLACK
6
CONTINUOUS
10
6.9944637007874011
20
-5.7652536614173231
11
7.0006099212598425
21
-5.7736453937007877
0
LINE
8
BLACK
6
CONTINUOUS
10
7.0006099212598425
20
-5.7736453937007877
11
7.0054031102362204
21
-5.7828769685039365
0
LINE
8
BLACK
6
CONTINUOUS
10
7.0054031102362204
20
-5.7828769685039365
11
7.0087309055118112
21
-5.792732047244094
0
LINE
8
BLACK
6
CONTINUOUS
10
7.0087309055118112
20
-5.792732047244094
11
7.0105153543307086
21
-5.802979645669291
0
LINE
8
BLACK
6
CONTINUOUS
10
7.0105153543307086
20
-5.802979645669291
11
7.0108267716535435
21
-5.8094771653543305
0
LINE
8
BLACK
6
CONTINUOUS
10
7.0108267716535435
20
-5.8094771653543305
11
7.0108267716535435
21
-6.3102078740157479
0
LINE
8
BLACK
6
CONTINUOUS
10
7.0108267716535435
20
-6.3102078740157479
11
7.0105153543307086
21
-6.3167053937007873
0
LINE
8
BLACK
6
CONTINUOUS
10
7.0105153543307086
20
-6.3167053937007873
11
7.0087309055118112
21
-6.3269529921259844
0
LINE
8
BLACK
6
CONTINUOUS
10
7.0087309055118112
20
-6.3269529921259844
11
7.0054031102362204
21
-6.3368080708661418
0
LINE
8
BLACK
6
CONTINUOUS
10
7.0054031102362204
20
-6.3368080708661418
11
7.0006099212598425
21
-6.3460396456692916
0
LINE
8
BLACK
6
CONTINUOUS
10
7.0006099212598425
20
-6.3460396456692916
11
6.9944637007874011
21
-6.3544313779527561
0
LINE
8
BLACK
6
CONTINUOUS
10
6.9944637007874011
20
-6.3544313779527561
11
6.9871085433070865
21
-6.3617865354330707
0
LINE
8
BLACK
6
CONTINUOUS
10
6.9871085433070865
20
-6.3617865354330707
11
6.978716811023622
21
-6.3679327559055121
0
LINE
8
BLACK
6
CONTINUOUS
10
6.978716811023622
20
-6.3679327559055121
11
6.9694852362204722
21
-6.37272594488189
0
LINE
8
BLACK
6
CONTINUOUS
10
6.9694852362204722
20
-6.37272594488189
11
6.9596301574803148
21
-6.3760537401574799
0
LINE
8
BLACK
6
CONTINUOUS
10
6.9596301574803148
20
-6.3760537401574799
11
6.9493825590551177
21
-6.3778381889763782
0
LINE
8
BLACK
6
CONTINUOUS
10
6.9493825590551177
20
-6.3778381889763782
11
6.9428850393700783
21
-6.3781496062992122
0
LINE
8
BLACK
6
CONTINUOUS
10
6.9428850393700783
20
-6.3781496062992122
11
4.8201070866141729
21
-6.3781496062992122
0
LINE
8
BLACK
6
CONTINUOUS
10
4.8201070866141729
20
-6.3781496062992122
11
4.8136095669291334
21
-6.3778381889763782
0
LINE
8
BLACK
6
CONTINUOUS
10
4.8136095669291334
20
-6.3778381889763782
11
4.8033619685039373
21
-6.3760537401574799
0
LINE
8
BLACK
6
CONTINUOUS
10
4.8033619685039373
20
-6.3760537401574799
11
4.7935068897637798
21
-6.37272594488189
0
LINE
8
BLACK
6
CONTINUOUS
10
4.7935068897637798
20
-6.37272594488189
11
4.7842753149606301
21
-6.3679327559055121
0
LINE
8
BLACK
6
CONTINUOUS
10
4.7842753149606301
20
-6.3679327559055121
11
4.7758835826771655
21
-6.3617865354330707
0
LINE
8
BLACK
6
CONTINUOUS
10
4.7758835826771655
20
-6.3617865354330707
11
4.7685284251968501
21
-6.3544313779527561
0
LINE
8
BLACK
6
CONTINUOUS
10
4.7685284251968501
20
-6.3544313779527561
11
4.7623822047244095
21
-6.3460396456692916
0
LINE
8
BLACK
6
CONTINUOUS
10
4.7623822047244095
20
-6.3460396456692916
11
4.7575890157480316
21
-6.3368080708661418
0
LINE
8
BLACK
6
CONTINUOUS
10
4.7575890157480316
20
-6.3368080708661418
11
4.7542612204724408
21
-6.3269529921259844
0
LINE
8
BLACK
6
CONTINUOUS
10
4.7542612204724408
20
-6.3269529921259844
11
4.7524767716535434
21
-6.3167053937007873
0
LINE
8
BLACK
6
CONTINUOUS
10
4.7524767716535434
20
-6.3167053937007873
11
4.7521653543307085
21
-6.3102078740157479
0
LINE
8
BLACK
6
CONTINUOUS
10
4.7521653543307085
20
-6.3102078740157479
11
4.7521653543307085
21
-5.8094771653543305
0
LINE
8
BLACK
6
CONTINUOUS
10
4.7521653543307085
20
-5.8094771653543305
11
4.7524767716535434
21
-5.802979645669291
0
LINE
8
BLACK
6
CONTINUOUS
10
4.7524767716535434
20
-5.802979645669291
11
4.7542612204724408
21
-5.792732047244094
0
LINE
8
BLACK
6
CONTINUOUS
10
4.7542612204724408
20
-5.792732047244094
11
4.7575890157480316
21
-5.7828769685039365
0
LINE
8
BLACK
6
CONTINUOUS
10
4.7575890157480316
20
-5.7828769685039365
11
4.7623822047244095
21
-5.7736453937007877
0
LINE
8
BLACK
6
CONTINUOUS
10
4.7623822047244095
20
-5.7736453937007877
11
4.7685284251968501
21
-5.7652536614173231
0
LINE
8
BLACK
6
CONTINUOUS
10
4.7685284251968501
20
-5.7652536614173231
11
4.7758835826771655
21
-5.7578985039370076
0
LINE
8
BLACK
6
CONTINUOUS
10
4.7758835826771655
20
-5.7578985039370076
11
4.7842753149606301
21
-5.7517522834645671
0
LINE
8
BLACK
6
CONTINUOUS
10
4.7842753149606301
20
-5.7517522834645671
11
4.7935068897637798
21
-5.7469590944881892
0
LINE
8
BLACK
6
CONTINUOUS
10
4.7935068897637798
20
-5.7469590944881892
11
4.8033619685039373
21
-5.7436312992125984
0
LINE
8
BLACK
6
CONTINUOUS
10
4.8033619685039373
20
-5.7436312992125984
11
4.8136095669291334
21
-5.741846850393701
0
LINE
8
BLACK
6
CONTINUOUS
10
4.8136095669291334
20
-5.741846850393701
11
4.8201070866141729
21
-5.7415354330708661
0
LINE
8
BLACK
6
CONTINUOUS
10
4.8201070866141729
20
-5.7415354330708661
11
6.9428850393700783
21
-5.7415354330708661
0
LINE
8
BLACK
6
CONTINUOUS
10
6.9428850393700783
20
-5.7415354330708661
11
6.9493825590551177
21
-5.741846850393701
0
LINE
8
BLACK
6
CONTINUOUS
10
5.1734251968503937
20
-5.2403543307086613
11
4.8494094488188972
21
-5.2403543307086613
0
LINE
8
BLACK
6
CONTINUOUS
10
4.8494094488188972
20
-5.2403543307086613
11
4.8494094488188972
21
-4.9450787401574798
0
LINE
8
BLACK
6
CONTINUOUS
10
4.8494094488188972
20
-4.9450787401574798
11
5.1734251968503937
21
-4.9450787401574798
0
LINE
8
BLACK
6
CONTINUOUS
10
5.1734251968503937
20
-4.9450787401574798
11
5.1734251968503937
21
-5.2403543307086613
0
LINE
8
BLACK
6
CONTINUOUS
10
5.9773622047244093
20
-5.2403543307086613
11
5.6505905511811019
21
-5.2403543307086613
0
LINE
8
BLACK
6
CONTINUOUS
10
5.6505905511811019
20
-5.2403543307086613
11
5.6505905511811019
21
-4.9450787401574798
0
LINE
8
BLACK
6
CONTINUOUS
10
5.6505905511811019
20
-4.9450787401574798
11
5.9773622047244093
21
-4.9450787401574798
0
LINE
8
BLACK
6
CONTINUOUS
10
5.9773622047244093
20
-4.9450787401574798
11
5.9773622047244093
21
-5.2403543307086613
0
LINE
8
BLACK
6
CONTINUOUS
10
6.7875984251968502
20
-5.2403543307086613
11
6.4608267716535428
21
-5.2403543307086613
0
LINE
8
BLACK
6
CONTINUOUS
10
6.4608267716535428
20
-5.2403543307086613
11
6.4608267716535428
21
-4.9450787401574798
0
LINE
8
BLACK
6
CONTINUOUS
10
6.4608267716535428
20
-4.9450787401574798
11
6.7875984251968502
21
-4.9450787401574798
0
LINE
8
BLACK
6
CONTINUOUS
10
6.7875984251968502
20
-4.9450787401574798
11
6.7875984251968502
21
-5.2403543307086613
0
LINE
8
BLACK
6
CONTINUOUS
10
7.2680095275590553
20
-4.9458661811023621
11
7.2735830708661418
21
-4.9481748031496062
0
LINE
8
BLACK
6
CONTINUOUS
10
7.2735830708661418
20
-4.9481748031496062
11
7.2783692125984247
21
-4.9518473228346451
0
LINE
8
BLACK
6
CONTINUOUS
10
7.2783692125984247
20
-4.9518473228346451
11
7.2820417322834645
21
-4.956633464566929
0
LINE
8
BLACK
6
CONTINUOUS
10
7.2820417322834645
20
-4.956633464566929
11
7.2843503543307087
21
-4.9622070078740155
0
LINE
8
BLACK
6
CONTINUOUS
10
7.2843503543307087
20
-4.9622070078740155
11
7.28513779527559
21
-4.9681881889763782
0
LINE
8
BLACK
6
CONTINUOUS
10
7.28513779527559
20
-4.9681881889763782
11
7.28513779527559
21
-5.2172448818897639
0
LINE
8
BLACK
6
CONTINUOUS
10
7.28513779527559
20
-5.2172448818897639
11
7.2843503543307087
21
-5.2232260629921257
0
LINE
8
BLACK
6
CONTINUOUS
10
7.2843503543307087
20
-5.2232260629921257
11
7.2820417322834645
21
-5.2287996062992121
0
LINE
8
BLACK
6
CONTINUOUS
10
7.2820417322834645
20
-5.2287996062992121
11
7.2783692125984247
21
-5.233585748031496
0
LINE
8
BLACK
6
CONTINUOUS
10
7.2783692125984247
20
-5.233585748031496
11
7.2735830708661418
21
-5.2372582677165349
0
LINE
8
BLACK
6
CONTINUOUS
10
7.2735830708661418
20
-5.2372582677165349
11
7.2680095275590553
21
-5.239566889763779
0
LINE
8
BLACK
6
CONTINUOUS
10
7.2680095275590553
20
-5.239566889763779
11
7.2620283464566926
21
-5.2403543307086613
0
LINE
8
BLACK
6
CONTINUOUS
10
7.2620283464566926
20
-5.2403543307086613
11
7.0917118110236217
21
-5.2403543307086613
0
LINE
8
BLACK
6
CONTINUOUS
10
7.0917118110236217
20
-5.2403543307086613
11
7.0857306299212599
21
-5.239566889763779
0
LINE
8
BLACK
6
CONTINUOUS
10
7.0857306299212599
20
-5.239566889763779
11
7.0801570866141734
21
-5.2372582677165349
0
LINE
8
BLACK
6
CONTINUOUS
10
7.0801570866141734
20
-5.2372582677165349
11
7.0753709448818896
21
-5.233585748031496
0
LINE
8
BLACK
6
CONTINUOUS
10
7.0753709448818896
20
-5.233585748031496
11
7.0716984251968507
21
-5.2287996062992121
0
LINE
8
BLACK
6
CONTINUOUS
10
7.0716984251968507
20
-5.2287996062992121
11
7.0693898031496065
21
-5.2232260629921257
0
LINE
8
BLACK
6
CONTINUOUS
10
7.0693898031496065
20
-5.2232260629921257
11
7.0686023622047243
21
-5.2172448818897639
0
LINE
8
BLACK
6
CONTINUOUS
10
7.0686023622047243
20
-5.2172448818897639
11
7.0686023622047243
21
-4.9681881889763782
0
LINE
8
BLACK
6
CONTINUOUS
10
7.0686023622047243
20
-4.9681881889763782
11
7.0693898031496065
21
-4.9622070078740155
0
LINE
8
BLACK
6
CONTINUOUS
10
7.0693898031496065
20
-4.9622070078740155
11
7.0716984251968507
21
-4.956633464566929
0
LINE
8
BLACK
6
CONTINUOUS
10
7.0716984251968507
20
-4.956633464566929
11
7.0753709448818896
21
-4.9518473228346451
0
LINE
8
BLACK
6
CONTINUOUS
10
7.0753709448818896
20
-4.9518473228346451
11
7.0801570866141734
21
-4.9481748031496062
0
LINE
8
BLACK
6
CONTINUOUS
10
7.0801570866141734
20
-4.9481748031496062
11
7.0857306299212599
21
-4.9458661811023621
0
LINE
8
BLACK
6
CONTINUOUS
10
7.0857306299212599
20
-4.9458661811023621
11
7.0917118110236217
21
-4.9450787401574798
0
LINE
8
BLACK
6
CONTINUOUS
10
7.0917118110236217
20
-4.9450787401574798
11
7.2620283464566926
21
-4.9450787401574798
0
LINE
8
BLACK
6
CONTINUOUS
10
7.2620283464566926
20
-4.9450787401574798
11
7.2680095275590553
21
-4.9458661811023621
0
LINE
8
BLACK
6
CONTINUOUS
10
6.9637526377952756
20
-3.8696027559055115
11
6.9740002362204727
21
-3.8713872047244093
0
LINE
8
BLACK
6
CONTINUOUS
10
6.9740002362204727
20
-3.8713872047244093
11
6.9838553149606302
21
-3.8747150000000001
0
LINE
8
BLACK
6
CONTINUOUS
10
6.9838553149606302
20
-3.8747150000000001
11
6.993086889763779
21
-3.8795081889763781
0
LINE
8
BLACK
6
CONTINUOUS
10
6.993086889763779
20
-3.8795081889763781
11
7.0014786220472436
21
-3.885654409448819
0
LINE
8
BLACK
6
CONTINUOUS
10
7.0014786220472436
20
-3.885654409448819
11
7.008833779527559
21
-3.8930095669291336
0
LINE
8
BLACK
6
CONTINUOUS
10
7.008833779527559
20
-3.8930095669291336
11
7.0149799999999995
21
-3.9014012992125982
0
LINE
8
BLACK
6
CONTINUOUS
10
7.0149799999999995
20
-3.9014012992125982
11
7.0197731889763775
21
-3.9106328740157479
0
LINE
8
BLACK
6
CONTINUOUS
10
7.0197731889763775
20
-3.9106328740157479
11
7.0231009842519683
21
-3.9204879527559053
0
LINE
8
BLACK
6
CONTINUOUS
10
7.0231009842519683
20
-3.9204879527559053
11
7.0248854330708657
21
-3.9307355511811024
0
LINE
8
BLACK
6
CONTINUOUS
10
7.0248854330708657
20
-3.9307355511811024
11
7.0251968503937006
21
-3.9372330708661418
0
LINE
8
BLACK
6
CONTINUOUS
10
7.0251968503937006
20
-3.9372330708661418
11
7.0251968503937006
21
-4.4379637795275588
0
LINE
8
BLACK
6
CONTINUOUS
10
7.0251968503937006
20
-4.4379637795275588
11
7.0248854330708657
21
-4.4444612992125982
0
LINE
8
BLACK
6
CONTINUOUS
10
7.0248854330708657
20
-4.4444612992125982
11
7.0231009842519683
21
-4.4547088976377953
0
LINE
8
BLACK
6
CONTINUOUS
10
7.0231009842519683
20
-4.4547088976377953
11
7.0197731889763775
21
-4.4645639763779528
0
LINE
8
BLACK
6
CONTINUOUS
10
7.0197731889763775
20
-4.4645639763779528
11
7.0149799999999995
21
-4.4737955511811025
0
LINE
8
BLACK
6
CONTINUOUS
10
7.0149799999999995
20
-4.4737955511811025
11
7.008833779527559
21
-4.4821872834645671
0
LINE
8
BLACK
6
CONTINUOUS
10
7.008833779527559
20
-4.4821872834645671
11
7.0014786220472436
21
-4.4895424409448816
0
LINE
8
BLACK
6
CONTINUOUS
10
7.0014786220472436
20
-4.4895424409448816
11
6.993086889763779
21
-4.495688661417323
0
LINE
8
BLACK
6
CONTINUOUS
10
6.993086889763779
20
-4.495688661417323
11
6.9838553149606302
21
-4.500481850393701
0
LINE
8
BLACK
6
CONTINUOUS
10
6.9838553149606302
20
-4.500481850393701
11
6.9740002362204727
21
-4.5038096456692909
0
LINE
8
BLACK
6
CONTINUOUS
10
6.9740002362204727
20
-4.5038096456692909
11
6.9637526377952756
21
-4.5055940944881891
0
LINE
8
BLACK
6
CONTINUOUS
10
6.9637526377952756
20
-4.5055940944881891
11
6.9572551181102362
21
-4.5059055118110232
0
LINE
8
BLACK
6
CONTINUOUS
10
6.9572551181102362
20
-4.5059055118110232
11
4.8344771653543308
21
-4.5059055118110232
0
LINE
8
BLACK
6
CONTINUOUS
10
4.8344771653543308
20
-4.5059055118110232
11
4.8279796456692914
21
-4.5055940944881891
0
LINE
8
BLACK
6
CONTINUOUS
10
4.8279796456692914
20
-4.5055940944881891
11
4.8177320472440943
21
-4.5038096456692909
0
LINE
8
BLACK
6
CONTINUOUS
10
4.8177320472440943
20
-4.5038096456692909
11
4.8078769685039369
21
-4.500481850393701
0
LINE
8
BLACK
6
CONTINUOUS
10
4.8078769685039369
20
-4.500481850393701
11
4.7986453937007871
21
-4.495688661417323
0
LINE
8
BLACK
6
CONTINUOUS
10
4.7986453937007871
20
-4.495688661417323
11
4.7902536614173226
21
-4.4895424409448816
0
LINE
8
BLACK
6
CONTINUOUS
10
4.7902536614173226
20
-4.4895424409448816
11
4.782898503937008
21
-4.4821872834645671
0
LINE
8
BLACK
6
CONTINUOUS
10
4.782898503937008
20
-4.4821872834645671
11
4.7767522834645666
21
-4.4737955511811025
0
LINE
8
BLACK
6
CONTINUOUS
10
4.7767522834645666
20
-4.4737955511811025
11
4.7719590944881887
21
-4.4645639763779528
0
LINE
8
BLACK
6
CONTINUOUS
10
4.7719590944881887
20
-4.4645639763779528
11
4.7686312992125979
21
-4.4547088976377953
0
LINE
8
BLACK
6
CONTINUOUS
10
4.7686312992125979
20
-4.4547088976377953
11
4.7668468503937005
21
-4.4444612992125982
0
LINE
8
BLACK
6
CONTINUOUS
10
4.7668468503937005
20
-4.4444612992125982
11
4.7665354330708665
21
-4.4379637795275588
0
LINE
8
BLACK
6
CONTINUOUS
10
4.7665354330708665
20
-4.4379637795275588
11
4.7665354330708665
21
-3.9372330708661418
0
LINE
8
BLACK
6
CONTINUOUS
10
4.7665354330708665
20
-3.9372330708661418
11
4.7668468503937005
21
-3.9307355511811024
0
LINE
8
BLACK
6
CONTINUOUS
10
4.7668468503937005
20
-3.9307355511811024
11
4.7686312992125979
21
-3.9204879527559053
0
LINE
8
BLACK
6
CONTINUOUS
10
4.7686312992125979
20
-3.9204879527559053
11
4.7719590944881887
21
-3.9106328740157479
0
LINE
8
BLACK
6
CONTINUOUS
10
4.7719590944881887
20
-3.9106328740157479
11
4.7767522834645666
21
-3.9014012992125982
0
LINE
8
BLACK
6
CONTINUOUS
10
4.7767522834645666
20
-3.9014012992125982
11
4.782898503937008
21
-3.8930095669291336
0
LINE
8
BLACK
6
CONTINUOUS
10
4.782898503937008
20
-3.8930095669291336
11
4.7902536614173226
21
-3.885654409448819
0
LINE
8
BLACK
6
CONTINUOUS
10
4.7902536614173226
20
-3.885654409448819
11
4.7986453937007871
21
-3.8795081889763781
0
LINE
8
BLACK
6
CONTINUOUS
10
4.7986453937007871
20
-3.8795081889763781
11
4.8078769685039369
21
-3.8747150000000001
0
LINE
8
BLACK
6
CONTINUOUS
10
4.8078769685039369
20
-3.8747150000000001
11
4.8177320472440943
21
-3.8713872047244093
0
LINE
8
BLACK
6
CONTINUOUS
10
4.8177320472440943
20
-3.8713872047244093
11
4.8279796456692914
21
-3.8696027559055115
0
LINE
8
BLACK
6
CONTINUOUS
10
4.8279796456692914
20
-3.8696027559055115
11
4.8344771653543308
21
-3.869291338582677
0
LINE
8
BLACK
6
CONTINUOUS
10
4.8344771653543308
20
-3.869291338582677
11
6.9572551181102362
21
-3.869291338582677
0
LINE
8
BLACK
6
CONTINUOUS
10
6.9572551181102362
20
-3.869291338582677
11
6.9637526377952756
21
-3.8696027559055115
0
LINE
8
BLACK
6
CONTINUOUS
10
5.1877952755905508
20
-3.3681102362204722
11
4.8637795275590552
21
-3.3681102362204722
0
LINE
8
BLACK
6
CONTINUOUS
10
4.8637795275590552
20
-3.3681102362204722
11
4.8637795275590552
21
-3.0728346456692912
0
LINE
8
BLACK
6
CONTINUOUS
10
4.8637795275590552
20
-3.0728346456692912
11
5.1877952755905508
21
-3.0728346456692912
0
LINE
8
BLACK
6
CONTINUOUS
10
5.1877952755905508
20
-3.0728346456692912
11
5.1877952755905508
21
-3.3681102362204722
0
LINE
8
BLACK
6
CONTINUOUS
10
5.9917322834645672
20
-3.3681102362204722
11
5.6649606299212598
21
-3.3681102362204722
0
LINE
8
BLACK
6
CONTINUOUS
10
5.6649606299212598
20
-3.3681102362204722
11
5.6649606299212598
21
-3.0728346456692912
0
LINE
8
BLACK
6
CONTINUOUS
10
5.6649606299212598
20
-3.0728346456692912
11
5.9917322834645672
21
-3.0728346456692912
0
LINE
8
BLACK
6
CONTINUOUS
10
5.9917322834645672
20
-3.0728346456692912
11
5.9917322834645672
21
-3.3681102362204722
0
LINE
8
BLACK
6
CONTINUOUS
10
6.8019685039370081
20
-3.3681102362204722
11
6.4751968503937007
21
-3.3681102362204722
0
LINE
8
BLACK
6
CONTINUOUS
10
6.4751968503937007
20
-3.3681102362204722
11
6.4751968503937007
21
-3.0728346456692912
0
LINE
8
BLACK
6
CONTINUOUS
10
6.4751968503937007
20
-3.0728346456692912
11
6.8019685039370081
21
-3.0728346456692912
0
LINE
8
BLACK
6
CONTINUOUS
10
6.8019685039370081
20
-3.0728346456692912
11
6.8019685039370081
21
-3.3681102362204722
0
LINE
8
BLACK
6
CONTINUOUS
10
7.3288458661417319
20
-3.0736247244094486
11
7.3355064960629921
21
-3.0759553937007875
0
LINE
8
BLACK
6
CONTINUOUS
10
7.3355064960629921
20
-3.0759553937007875
11
7.3414815354330711
21
-3.0797097637795274
0
LINE
8
BLACK
6
CONTINUOUS
10
7.3414815354330711
20
-3.0797097637795274
11
7.3464713385826768
21
-3.0846995669291339
0
LINE
8
BLACK
6
CONTINUOUS
10
7.3464713385826768
20
-3.0846995669291339
11
7.3502257086614176
21
-3.0906746062992125
0
LINE
8
BLACK
6
CONTINUOUS
10
7.3502257086614176
20
-3.0906746062992125
11
7.3525563779527561
21
-3.0973352362204722
0
LINE
8
BLACK
6
CONTINUOUS
10
7.3525563779527561
20
-3.0973352362204722
11
7.3533464173228342
21
-3.1043475590551179
0
LINE
8
BLACK
6
CONTINUOUS
10
7.3533464173228342
20
-3.1043475590551179
11
7.353346456692913
21
-3.3365973622047242
0
LINE
8
BLACK
6
CONTINUOUS
10
7.353346456692913
20
-3.3365973622047242
11
7.3525563779527561
21
-3.3436096456692912
0
LINE
8
BLACK
6
CONTINUOUS
10
7.3525563779527561
20
-3.3436096456692912
11
7.3502257086614176
21
-3.3502702755905509
0
LINE
8
BLACK
6
CONTINUOUS
10
7.3502257086614176
20
-3.3502702755905509
11
7.3464713385826768
21
-3.3562453149606299
0
LINE
8
BLACK
6
CONTINUOUS
10
7.3464713385826768
20
-3.3562453149606299
11
7.3414815354330711
21
-3.361235118110236
0
LINE
8
BLACK
6
CONTINUOUS
10
7.3414815354330711
20
-3.361235118110236
11
7.3355064960629921
21
-3.3649894881889764
0
LINE
8
BLACK
6
CONTINUOUS
10
7.3355064960629921
20
-3.3649894881889764
11
7.3288458661417319
21
-3.3673201574803149
0
LINE
8
BLACK
6
CONTINUOUS
10
7.3288458661417319
20
-3.3673201574803149
11
7.3218335433070862
21
-3.3681101968503935
0
LINE
8
BLACK
6
CONTINUOUS
10
7.3218335433070862
20
-3.3681101968503935
11
7.0606467322834643
21
-3.3681102362204722
0
LINE
8
BLACK
6
CONTINUOUS
10
7.0606467322834643
20
-3.3681102362204722
11
7.0536344488188973
21
-3.3673201574803149
0
LINE
8
BLACK
6
CONTINUOUS
10
7.0536344488188973
20
-3.3673201574803149
11
7.0469738188976381
21
-3.3649894881889764
0
LINE
8
BLACK
6
CONTINUOUS
10
7.0469738188976381
20
-3.3649894881889764
11
7.040998779527559
21
-3.361235118110236
0
LINE
8
BLACK
6
CONTINUOUS
10
7.040998779527559
20
-3.361235118110236
11
7.0360089763779525
21
-3.3562453149606299
0
LINE
8
BLACK
6
CONTINUOUS
10
7.0360089763779525
20
-3.3562453149606299
11
7.0322546062992126
21
-3.3502702755905509
0
LINE
8
BLACK
6
CONTINUOUS
10
7.0322546062992126
20
-3.3502702755905509
11
7.0299239370078741
21
-3.3436096456692912
0
LINE
8
BLACK
6
CONTINUOUS
10
7.0299239370078741
20
-3.3436096456692912
11
7.0291338976377951
21
-3.3365973228346455
0
LINE
8
BLACK
6
CONTINUOUS
10
7.0291338976377951
20
-3.3365973228346455
11
7.0291338582677163
21
-3.1043475196850392
0
LINE
8
BLACK
6
CONTINUOUS
10
7.0291338582677163
20
-3.1043475196850392
11
7.0299239370078741
21
-3.0973352362204722
0
LINE
8
BLACK
6
CONTINUOUS
10
7.0299239370078741
20
-3.0973352362204722
11
7.0322546062992126
21
-3.0906746062992125
0
LINE
8
BLACK
6
CONTINUOUS
10
7.0322546062992126
20
-3.0906746062992125
11
7.0360089763779525
21
-3.0846995669291339
0
LINE
8
BLACK
6
CONTINUOUS
10
7.0360089763779525
20
-3.0846995669291339
11
7.040998779527559
21
-3.0797097637795274
0
LINE
8
BLACK
6
CONTINUOUS
10
7.040998779527559
20
-3.0797097637795274
11
7.0469738188976381
21
-3.0759553937007875
0
LINE
8
BLACK
6
CONTINUOUS
10
7.0469738188976381
20
-3.0759553937007875
11
7.0536344488188973
21
-3.0736247244094486
0
LINE
8
BLACK
6
CONTINUOUS
10
7.0536344488188973
20
-3.0736247244094486
11
7.060646771653543
21
-3.07283468503937
0
LINE
8
BLACK
6
CONTINUOUS
10
7.060646771653543
20
-3.07283468503937
11
7.321833582677165
21
-3.0728346456692912
0
LINE
8
BLACK
6
CONTINUOUS
10
7.321833582677165
20
-3.0728346456692912
11
7.3288458661417319
21
-3.0736247244094486
0
LINE
8
BLACK
6
CONTINUOUS
10
6.9712329527559049
20
-2.1908625984251966
11
6.981480551181102
21
-2.1926470472440944
0
LINE
8
BLACK
6
CONTINUOUS
10
6.981480551181102
20
-2.1926470472440944
11
6.9913356299212595
21
-2.1959748425196848
0
LINE
8
BLACK
6
CONTINUOUS
10
6.9913356299212595
20
-2.1959748425196848
11
7.0005672047244092
21
-2.2007680314960631
0
LINE
8
BLACK
6
CONTINUOUS
10
7.0005672047244092
20
-2.2007680314960631
11
7.0089589370078738
21
-2.2069142519685041
0
LINE
8
BLACK
6
CONTINUOUS
10
7.0089589370078738
20
-2.2069142519685041
11
7.0163140944881892
21
-2.2142694094488187
0
LINE
8
BLACK
6
CONTINUOUS
10
7.0163140944881892
20
-2.2142694094488187
11
7.0224603149606297
21
-2.2226611417322832
0
LINE
8
BLACK
6
CONTINUOUS
10
7.0224603149606297
20
-2.2226611417322832
11
7.0272535039370077
21
-2.231892716535433
0
LINE
8
BLACK
6
CONTINUOUS
10
7.0272535039370077
20
-2.231892716535433
11
7.0305812992125984
21
-2.2417477952755904
0
LINE
8
BLACK
6
CONTINUOUS
10
7.0305812992125984
20
-2.2417477952755904
11
7.0323657480314958
21
-2.2519953937007875
0
LINE
8
BLACK
6
CONTINUOUS
10
7.0323657480314958
20
-2.2519953937007875
11
7.0326771653543307
21
-2.2584929133858269
0
LINE
8
BLACK
6
CONTINUOUS
10
7.0326771653543307
20
-2.2584929133858269
11
7.0326771653543307
21
-2.7592236220472439
0
LINE
8
BLACK
6
CONTINUOUS
10
7.0326771653543307
20
-2.7592236220472439
11
7.0323657480314958
21
-2.7657211417322833
0
LINE
8
BLACK
6
CONTINUOUS
10
7.0323657480314958
20
-2.7657211417322833
11
7.0305812992125984
21
-2.7759687401574804
0
LINE
8
BLACK
6
CONTINUOUS
10
7.0305812992125984
20
-2.7759687401574804
11
7.0272535039370077
21
-2.7858238188976379
0
LINE
8
BLACK
6
CONTINUOUS
10
7.0272535039370077
20
-2.7858238188976379
11
7.0224603149606297
21
-2.7950553937007871
0
LINE
8
BLACK
6
CONTINUOUS
10
7.0224603149606297
20
-2.7950553937007871
11
7.0163140944881892
21
-2.8034471259842517
0
LINE
8
BLACK
6
CONTINUOUS
10
7.0163140944881892
20
-2.8034471259842517
11
7.0089589370078738
21
-2.8108022834645667
0
LINE
8
BLACK
6
CONTINUOUS
10
7.0089589370078738
20
-2.8108022834645667
11
7.0005672047244092
21
-2.8169485039370077
0
LINE
8
BLACK
6
CONTINUOUS
10
7.0005672047244092
20
-2.8169485039370077
11
6.9913356299212595
21
-2.8217416929133856
0
LINE
8
BLACK
6
CONTINUOUS
10
6.9913356299212595
20
-2.8217416929133856
11
6.981480551181102
21
-2.8250694881889764
0
LINE
8
BLACK
6
CONTINUOUS
10
6.981480551181102
20
-2.8250694881889764
11
6.9712329527559049
21
-2.8268539370078738
0
LINE
8
BLACK
6
CONTINUOUS
10
6.9712329527559049
20
-2.8268539370078738
11
6.9647354330708664
21
-2.8271653543307087
0
LINE
8
BLACK
6
CONTINUOUS
10
6.9647354330708664
20
-2.8271653543307087
11
4.8419574803149601
21
-2.8271653543307087
0
LINE
8
BLACK
6
CONTINUOUS
10
4.8419574803149601
20
-2.8271653543307087
11
4.8354599606299216
21
-2.8268539370078738
0
LINE
8
BLACK
6
CONTINUOUS
10
4.8354599606299216
20
-2.8268539370078738
11
4.8252123622047245
21
-2.8250694881889764
0
LINE
8
BLACK
6
CONTINUOUS
10
4.8252123622047245
20
-2.8250694881889764
11
4.815357283464567
21
-2.8217416929133856
0
LINE
8
BLACK
6
CONTINUOUS
10
4.815357283464567
20
-2.8217416929133856
11
4.8061257086614173
21
-2.8169485039370077
0
LINE
8
BLACK
6
CONTINUOUS
10
4.8061257086614173
20
-2.8169485039370077
11
4.7977339763779527
21
-2.8108022834645667
0
LINE
8
BLACK
6
CONTINUOUS
10
4.7977339763779527
20
-2.8108022834645667
11
4.7903788188976373
21
-2.8034471259842517
0
LINE
8
BLACK
6
CONTINUOUS
10
4.7903788188976373
20
-2.8034471259842517
11
4.7842325984251968
21
-2.7950553937007871
0
LINE
8
BLACK
6
CONTINUOUS
10
4.7842325984251968
20
-2.7950553937007871
11
4.7794394094488188
21
-2.7858238188976379
0
LINE
8
BLACK
6
CONTINUOUS
10
4.7794394094488188
20
-2.7858238188976379
11
4.776111614173228
21
-2.7759687401574804
0
LINE
8
BLACK
6
CONTINUOUS
10
4.776111614173228
20
-2.7759687401574804
11
4.7743271653543307
21
-2.7657211417322833
0
LINE
8
BLACK
6
CONTINUOUS
10
4.7743271653543307
20
-2.7657211417322833
11
4.7740157480314958
21
-2.7592236220472439
0
LINE
8
BLACK
6
CONTINUOUS
10
4.7740157480314958
20
-2.7592236220472439
11
4.7740157480314958
21
-2.2584929133858269
0
LINE
8
BLACK
6
CONTINUOUS
10
4.7740157480314958
20
-2.2584929133858269
11
4.7743271653543307
21
-2.2519953937007875
0
LINE
8
BLACK
6
CONTINUOUS
10
4.7743271653543307
20
-2.2519953937007875
11
4.776111614173228
21
-2.2417477952755904
0
LINE
8
BLACK
6
CONTINUOUS
10
4.776111614173228
20
-2.2417477952755904
11
4.7794394094488188
21
-2.231892716535433
0
LINE
8
BLACK
6
CONTINUOUS
10
4.7794394094488188
20
-2.231892716535433
11
4.7842325984251968
21
-2.2226611417322832
0
LINE
8
BLACK
6
CONTINUOUS
10
4.7842325984251968
20
-2.2226611417322832
11
4.7903788188976373
21
-2.2142694094488187
0
LINE
8
BLACK
6
CONTINUOUS
10
4.7903788188976373
20
-2.2142694094488187
11
4.7977339763779527
21
-2.2069142519685041
0
LINE
8
BLACK
6
CONTINUOUS
10
4.7977339763779527
20
-2.2069142519685041
11
4.8061257086614173
21
-2.2007680314960631
0
LINE
8
BLACK
6
CONTINUOUS
10
4.8061257086614173
20
-2.2007680314960631
11
4.815357283464567
21
-2.1959748425196848
0
LINE
8
BLACK
6
CONTINUOUS
10
4.815357283464567
20
-2.1959748425196848
11
4.8252123622047245
21
-2.1926470472440944
0
LINE
8
BLACK
6
CONTINUOUS
10
4.8252123622047245
20
-2.1926470472440944
11
4.8354599606299216
21
-2.1908625984251966
0
LINE
8
BLACK
6
CONTINUOUS
10
4.8354599606299216
20
-2.1908625984251966
11
4.8419574803149601
21
-2.1905511811023621
0
LINE
8
BLACK
6
CONTINUOUS
10
4.8419574803149601
20
-2.1905511811023621
11
6.9647354330708664
21
-2.1905511811023621
0
LINE
8
BLACK
6
CONTINUOUS
10
6.9647354330708664
20
-2.1905511811023621
11
6.9712329527559049
21
-2.1908625984251966
0
LINE
8
BLACK
6
CONTINUOUS
10
5.1952755905511809
20
-1.6893700787401575
11
4.872047244094488
21
-1.6893700787401575
0
LINE
8
BLACK
6
CONTINUOUS
10
4.872047244094488
20
-1.6893700787401575
11
4.872047244094488
21
-1.5519685039370079
0
LINE
8
BLACK
6
CONTINUOUS
10
4.872047244094488
20
-1.5519685039370079
11
5.1952755905511809
21
-1.5519685039370079
0
LINE
8
BLACK
6
CONTINUOUS
10
5.1952755905511809
20
-1.5519685039370079
11
5.1952755905511809
21
-1.6893700787401575
0
LINE
8
BLACK
6
CONTINUOUS
10
5.9992125984251965
20
-1.6893700787401575
11
5.6791338582677167
21
-1.6893700787401575
0
LINE
8
BLACK
6
CONTINUOUS
10
5.6791338582677167
20
-1.6893700787401575
11
5.6791338582677167
21
-1.553543307086614
0
LINE
8
BLACK
6
CONTINUOUS
10
5.6791338582677167
20
-1.553543307086614
11
5.9992125984251965
21
-1.553543307086614
0
LINE
8
BLACK
6
CONTINUOUS
10
5.9992125984251965
20
-1.553543307086614
11
5.9992125984251965
21
-1.6893700787401575
0
LINE
8
BLACK
6
CONTINUOUS
10
6.8094488188976374
20
-1.6893700787401575
11
6.4893700787401576
21
-1.6893700787401575
0
LINE
8
BLACK
6
CONTINUOUS
10
6.4893700787401576
20
-1.6893700787401575
11
6.4893700787401576
21
-1.5582677165354331
0
LINE
8
BLACK
6
CONTINUOUS
10
6.4893700787401576
20
-1.5582677165354331
11
6.8094488188976374
21
-1.5582677165354331
0
LINE
8
BLACK
6
CONTINUOUS
10
6.8094488188976374
20
-1.5582677165354331
11
6.8094488188976374
21
-1.6893700787401575
0
LINE
8
BLACK
6
CONTINUOUS
10
7.3500766929133858
20
-1.5490505511811024
11
7.354525275590551
21
-1.5512253149606299
0
LINE
8
BLACK
6
CONTINUOUS
10
7.354525275590551
20
-1.5512253149606299
11
7.3580266535433072
21
-1.5547266929133858
0
LINE
8
BLACK
6
CONTINUOUS
10
7.3580266535433072
20
-1.5547266929133858
11
7.3602014173228341
21
-1.5591752755905512
0
LINE
8
BLACK
6
CONTINUOUS
10
7.3602014173228341
20
-1.5591752755905512
11
7.3608267716535432
21
-1.5634673228346456
0
LINE
8
BLACK
6
CONTINUOUS
10
7.3608267716535432
20
-1.5634673228346456
11
7.3608267716535432
21
-1.6743279527559054
0
LINE
8
BLACK
6
CONTINUOUS
10
7.3608267716535432
20
-1.6743279527559054
11
7.3602014173228341
21
-1.67862
0
LINE
8
BLACK
6
CONTINUOUS
10
7.3602014173228341
20
-1.67862
11
7.3580266535433072
21
-1.6830685826771654
0
LINE
8
BLACK
6
CONTINUOUS
10
7.3580266535433072
20
-1.6830685826771654
11
7.354525275590551
21
-1.6865699606299211
0
LINE
8
BLACK
6
CONTINUOUS
10
7.354525275590551
20
-1.6865699606299211
11
7.3500766929133858
21
-1.6887447244094487
0
LINE
8
BLACK
6
CONTINUOUS
10
7.3500766929133858
20
-1.6887447244094487
11
7.3457846456692915
21
-1.6893700787401575
0
LINE
8
BLACK
6
CONTINUOUS
10
7.3457846456692915
20
-1.6893700787401575
11
7.0492940944881886
21
-1.6893700787401575
0
LINE
8
BLACK
6
CONTINUOUS
10
7.0492940944881886
20
-1.6893700787401575
11
7.0450020472440942
21
-1.6887447244094487
0
LINE
8
BLACK
6
CONTINUOUS
10
7.0450020472440942
20
-1.6887447244094487
11
7.040553464566929
21
-1.6865699606299211
0
LINE
8
BLACK
6
CONTINUOUS
10
7.040553464566929
20
-1.6865699606299211
11
7.0370520866141728
21
-1.6830685826771654
0
LINE
8
BLACK
6
CONTINUOUS
10
7.0370520866141728
20
-1.6830685826771654
11
7.034877322834646
21
-1.67862
0
LINE
8
BLACK
6
CONTINUOUS
10
7.034877322834646
20
-1.67862
11
7.0342519685039369
21
-1.6743279527559054
0
LINE
8
BLACK
6
CONTINUOUS
10
7.0342519685039369
20
-1.6743279527559054
11
7.0342519685039369
21
-1.5634673228346456
0
LINE
8
BLACK
6
CONTINUOUS
10
7.0342519685039369
20
-1.5634673228346456
11
7.034877322834646
21
-1.5591752755905512
0
LINE
8
BLACK
6
CONTINUOUS
10
7.034877322834646
20
-1.5591752755905512
11
7.0370520866141728
21
-1.5547266929133858
0
LINE
8
BLACK
6
CONTINUOUS
10
7.0370520866141728
20
-1.5547266929133858
11
7.040553464566929
21
-1.5512253149606299
0
LINE
8
BLACK
6
CONTINUOUS
10
7.040553464566929
20
-1.5512253149606299
11
7.0450020472440942
21
-1.5490505511811024
0
LINE
8
BLACK
6
CONTINUOUS
10
7.0450020472440942
20
-1.5490505511811024
11
7.0492940944881886
21
-1.5484251968503937
0
LINE
8
BLACK
6
CONTINUOUS
10
7.0492940944881886
20
-1.5484251968503937
11
7.3457846456692915
21
-1.5484251968503937
0
LINE
8
BLACK
6
CONTINUOUS
10
7.3457846456692915
20
-1.5484251968503937
11
7.3500766929133858
21
-1.5490505511811024
  0
ENDSEC
  0
EOF
